ISO-10303-21;
HEADER;
/* Generated by software containing ST-Developer
 * from STEP Tools, Inc. (www.steptools.com) 
 */
/* OPTION: using custom renumber hook */

FILE_DESCRIPTION(
/* description */ ('STEP AP242 Edition 2',
'CAx-IF Rec.Pracs.---Representation and Presentation of Product Manufa
cturing Information (PMI)---4.0---2014-10-13',
'CAx-IF Rec.Pracs.---3D Tessellated Geometry---0.4---2014-09-14','2;1',
'CAx-IF Rec.Pracs.---User Defined Attributes---1.5---2016-08-15'),
/* implementation_level */ '2;1');

FILE_NAME(
/* name */ 'Part Studio 1 - Part 1',
/* time_stamp */ '2026-06-09T12:44:41Z',
/* author */ (''),
/* organization */ (''),
/* preprocessor_version */ 'ST-DEVELOPER v20',
/* originating_system */ 'ONSHAPE BY PTC INC, 1.216',
/* authorisation */ '  ');

FILE_SCHEMA (('AP242_MANAGED_MODEL_BASED_3D_ENGINEERING_MIM_LF { 1 0 10303 442 3 1 4 }'));
ENDSEC;

DATA;
#10=SHAPE_REPRESENTATION_RELATIONSHIP('','',#357,#11);
#11=ADVANCED_BREP_SHAPE_REPRESENTATION('',(#355),#599);
#12=CYLINDRICAL_SURFACE('',#377,0.008);
#13=CYLINDRICAL_SURFACE('',#378,0.008);
#14=CYLINDRICAL_SURFACE('',#379,0.008);
#15=CYLINDRICAL_SURFACE('',#380,0.008);
#16=CYLINDRICAL_SURFACE('',#390,0.0064);
#17=CYLINDRICAL_SURFACE('',#391,0.0064);
#18=CYLINDRICAL_SURFACE('',#392,0.0064);
#19=CYLINDRICAL_SURFACE('',#393,0.0064);
#20=CIRCLE('',#360,0.008);
#21=CIRCLE('',#361,0.008);
#22=CIRCLE('',#362,0.008);
#23=CIRCLE('',#363,0.008);
#24=CIRCLE('',#364,0.0064);
#25=CIRCLE('',#365,0.0064);
#26=CIRCLE('',#366,0.0064);
#27=CIRCLE('',#367,0.0064);
#28=CIRCLE('',#373,0.008);
#29=CIRCLE('',#374,0.008);
#30=CIRCLE('',#375,0.008);
#31=CIRCLE('',#376,0.008);
#32=CIRCLE('',#386,0.0064);
#33=CIRCLE('',#387,0.0064);
#34=CIRCLE('',#388,0.0064);
#35=CIRCLE('',#389,0.0064);
#36=ORIENTED_EDGE('',*,*,#132,.F.);
#37=ORIENTED_EDGE('',*,*,#133,.T.);
#38=ORIENTED_EDGE('',*,*,#134,.F.);
#39=ORIENTED_EDGE('',*,*,#135,.T.);
#40=ORIENTED_EDGE('',*,*,#136,.T.);
#41=ORIENTED_EDGE('',*,*,#137,.T.);
#42=ORIENTED_EDGE('',*,*,#138,.T.);
#43=ORIENTED_EDGE('',*,*,#139,.T.);
#44=ORIENTED_EDGE('',*,*,#140,.F.);
#45=ORIENTED_EDGE('',*,*,#141,.T.);
#46=ORIENTED_EDGE('',*,*,#142,.F.);
#47=ORIENTED_EDGE('',*,*,#143,.F.);
#48=ORIENTED_EDGE('',*,*,#144,.F.);
#49=ORIENTED_EDGE('',*,*,#145,.F.);
#50=ORIENTED_EDGE('',*,*,#146,.F.);
#51=ORIENTED_EDGE('',*,*,#147,.T.);
#52=ORIENTED_EDGE('',*,*,#134,.T.);
#53=ORIENTED_EDGE('',*,*,#148,.T.);
#54=ORIENTED_EDGE('',*,*,#149,.F.);
#55=ORIENTED_EDGE('',*,*,#150,.T.);
#56=ORIENTED_EDGE('',*,*,#151,.T.);
#57=ORIENTED_EDGE('',*,*,#152,.T.);
#58=ORIENTED_EDGE('',*,*,#136,.F.);
#59=ORIENTED_EDGE('',*,*,#153,.T.);
#60=ORIENTED_EDGE('',*,*,#154,.T.);
#61=ORIENTED_EDGE('',*,*,#155,.T.);
#62=ORIENTED_EDGE('',*,*,#138,.F.);
#63=ORIENTED_EDGE('',*,*,#156,.T.);
#64=ORIENTED_EDGE('',*,*,#157,.F.);
#65=ORIENTED_EDGE('',*,*,#158,.T.);
#66=ORIENTED_EDGE('',*,*,#132,.T.);
#67=ORIENTED_EDGE('',*,*,#159,.T.);
#68=ORIENTED_EDGE('',*,*,#149,.T.);
#69=ORIENTED_EDGE('',*,*,#160,.T.);
#70=ORIENTED_EDGE('',*,*,#157,.T.);
#71=ORIENTED_EDGE('',*,*,#161,.T.);
#72=ORIENTED_EDGE('',*,*,#154,.F.);
#73=ORIENTED_EDGE('',*,*,#162,.T.);
#74=ORIENTED_EDGE('',*,*,#151,.F.);
#75=ORIENTED_EDGE('',*,*,#163,.T.);
#76=ORIENTED_EDGE('',*,*,#133,.F.);
#77=ORIENTED_EDGE('',*,*,#158,.F.);
#78=ORIENTED_EDGE('',*,*,#160,.F.);
#79=ORIENTED_EDGE('',*,*,#148,.F.);
#80=ORIENTED_EDGE('',*,*,#139,.F.);
#81=ORIENTED_EDGE('',*,*,#155,.F.);
#82=ORIENTED_EDGE('',*,*,#161,.F.);
#83=ORIENTED_EDGE('',*,*,#159,.F.);
#84=ORIENTED_EDGE('',*,*,#137,.F.);
#85=ORIENTED_EDGE('',*,*,#152,.F.);
#86=ORIENTED_EDGE('',*,*,#162,.F.);
#87=ORIENTED_EDGE('',*,*,#156,.F.);
#88=ORIENTED_EDGE('',*,*,#135,.F.);
#89=ORIENTED_EDGE('',*,*,#150,.F.);
#90=ORIENTED_EDGE('',*,*,#163,.F.);
#91=ORIENTED_EDGE('',*,*,#153,.F.);
#92=ORIENTED_EDGE('',*,*,#147,.F.);
#93=ORIENTED_EDGE('',*,*,#164,.F.);
#94=ORIENTED_EDGE('',*,*,#165,.T.);
#95=ORIENTED_EDGE('',*,*,#166,.F.);
#96=ORIENTED_EDGE('',*,*,#167,.F.);
#97=ORIENTED_EDGE('',*,*,#168,.F.);
#98=ORIENTED_EDGE('',*,*,#145,.T.);
#99=ORIENTED_EDGE('',*,*,#169,.F.);
#100=ORIENTED_EDGE('',*,*,#170,.F.);
#101=ORIENTED_EDGE('',*,*,#171,.F.);
#102=ORIENTED_EDGE('',*,*,#143,.T.);
#103=ORIENTED_EDGE('',*,*,#172,.F.);
#104=ORIENTED_EDGE('',*,*,#173,.T.);
#105=ORIENTED_EDGE('',*,*,#174,.F.);
#106=ORIENTED_EDGE('',*,*,#141,.F.);
#107=ORIENTED_EDGE('',*,*,#175,.F.);
#108=ORIENTED_EDGE('',*,*,#165,.F.);
#109=ORIENTED_EDGE('',*,*,#176,.F.);
#110=ORIENTED_EDGE('',*,*,#167,.T.);
#111=ORIENTED_EDGE('',*,*,#177,.F.);
#112=ORIENTED_EDGE('',*,*,#170,.T.);
#113=ORIENTED_EDGE('',*,*,#178,.F.);
#114=ORIENTED_EDGE('',*,*,#173,.F.);
#115=ORIENTED_EDGE('',*,*,#179,.F.);
#116=ORIENTED_EDGE('',*,*,#140,.T.);
#117=ORIENTED_EDGE('',*,*,#166,.T.);
#118=ORIENTED_EDGE('',*,*,#179,.T.);
#119=ORIENTED_EDGE('',*,*,#175,.T.);
#120=ORIENTED_EDGE('',*,*,#142,.T.);
#121=ORIENTED_EDGE('',*,*,#174,.T.);
#122=ORIENTED_EDGE('',*,*,#178,.T.);
#123=ORIENTED_EDGE('',*,*,#172,.T.);
#124=ORIENTED_EDGE('',*,*,#144,.T.);
#125=ORIENTED_EDGE('',*,*,#171,.T.);
#126=ORIENTED_EDGE('',*,*,#177,.T.);
#127=ORIENTED_EDGE('',*,*,#169,.T.);
#128=ORIENTED_EDGE('',*,*,#146,.T.);
#129=ORIENTED_EDGE('',*,*,#168,.T.);
#130=ORIENTED_EDGE('',*,*,#176,.T.);
#131=ORIENTED_EDGE('',*,*,#164,.T.);
#132=EDGE_CURVE('',#180,#181,#212,.T.);
#133=EDGE_CURVE('',#180,#182,#20,.T.);
#134=EDGE_CURVE('',#183,#182,#213,.T.);
#135=EDGE_CURVE('',#183,#184,#21,.T.);
#136=EDGE_CURVE('',#184,#185,#214,.T.);
#137=EDGE_CURVE('',#185,#186,#22,.T.);
#138=EDGE_CURVE('',#186,#187,#215,.T.);
#139=EDGE_CURVE('',#187,#181,#23,.T.);
#140=EDGE_CURVE('',#188,#189,#24,.T.);
#141=EDGE_CURVE('',#188,#190,#216,.T.);
#142=EDGE_CURVE('',#191,#190,#25,.T.);
#143=EDGE_CURVE('',#192,#191,#217,.T.);
#144=EDGE_CURVE('',#193,#192,#26,.T.);
#145=EDGE_CURVE('',#194,#193,#218,.T.);
#146=EDGE_CURVE('',#195,#194,#27,.T.);
#147=EDGE_CURVE('',#195,#189,#219,.T.);
#148=EDGE_CURVE('',#182,#196,#220,.T.);
#149=EDGE_CURVE('',#197,#196,#221,.T.);
#150=EDGE_CURVE('',#197,#183,#222,.F.);
#151=EDGE_CURVE('',#198,#199,#223,.T.);
#152=EDGE_CURVE('',#199,#185,#224,.F.);
#153=EDGE_CURVE('',#184,#198,#225,.T.);
#154=EDGE_CURVE('',#200,#201,#226,.T.);
#155=EDGE_CURVE('',#201,#187,#227,.F.);
#156=EDGE_CURVE('',#186,#200,#228,.T.);
#157=EDGE_CURVE('',#202,#203,#229,.T.);
#158=EDGE_CURVE('',#202,#180,#230,.F.);
#159=EDGE_CURVE('',#181,#203,#231,.T.);
#160=EDGE_CURVE('',#196,#202,#28,.F.);
#161=EDGE_CURVE('',#203,#201,#29,.F.);
#162=EDGE_CURVE('',#200,#199,#30,.F.);
#163=EDGE_CURVE('',#198,#197,#31,.F.);
#164=EDGE_CURVE('',#204,#195,#232,.T.);
#165=EDGE_CURVE('',#204,#205,#233,.T.);
#166=EDGE_CURVE('',#189,#205,#234,.F.);
#167=EDGE_CURVE('',#206,#207,#235,.T.);
#168=EDGE_CURVE('',#194,#206,#236,.F.);
#169=EDGE_CURVE('',#207,#193,#237,.T.);
#170=EDGE_CURVE('',#208,#209,#238,.T.);
#171=EDGE_CURVE('',#192,#208,#239,.F.);
#172=EDGE_CURVE('',#209,#191,#240,.T.);
#173=EDGE_CURVE('',#210,#211,#241,.T.);
#174=EDGE_CURVE('',#190,#211,#242,.F.);
#175=EDGE_CURVE('',#210,#188,#243,.T.);
#176=EDGE_CURVE('',#206,#204,#32,.F.);
#177=EDGE_CURVE('',#208,#207,#33,.F.);
#178=EDGE_CURVE('',#211,#209,#34,.F.);
#179=EDGE_CURVE('',#205,#210,#35,.F.);
#180=VERTEX_POINT('',#501);
#181=VERTEX_POINT('',#502);
#182=VERTEX_POINT('',#504);
#183=VERTEX_POINT('',#506);
#184=VERTEX_POINT('',#508);
#185=VERTEX_POINT('',#510);
#186=VERTEX_POINT('',#512);
#187=VERTEX_POINT('',#514);
#188=VERTEX_POINT('',#517);
#189=VERTEX_POINT('',#518);
#190=VERTEX_POINT('',#520);
#191=VERTEX_POINT('',#522);
#192=VERTEX_POINT('',#524);
#193=VERTEX_POINT('',#526);
#194=VERTEX_POINT('',#528);
#195=VERTEX_POINT('',#530);
#196=VERTEX_POINT('',#534);
#197=VERTEX_POINT('',#536);
#198=VERTEX_POINT('',#540);
#199=VERTEX_POINT('',#541);
#200=VERTEX_POINT('',#546);
#201=VERTEX_POINT('',#547);
#202=VERTEX_POINT('',#552);
#203=VERTEX_POINT('',#553);
#204=VERTEX_POINT('',#567);
#205=VERTEX_POINT('',#569);
#206=VERTEX_POINT('',#573);
#207=VERTEX_POINT('',#574);
#208=VERTEX_POINT('',#579);
#209=VERTEX_POINT('',#580);
#210=VERTEX_POINT('',#585);
#211=VERTEX_POINT('',#586);
#212=LINE('',#500,#244);
#213=LINE('',#505,#245);
#214=LINE('',#509,#246);
#215=LINE('',#513,#247);
#216=LINE('',#519,#248);
#217=LINE('',#523,#249);
#218=LINE('',#527,#250);
#219=LINE('',#531,#251);
#220=LINE('',#533,#252);
#221=LINE('',#535,#253);
#222=LINE('',#537,#254);
#223=LINE('',#539,#255);
#224=LINE('',#542,#256);
#225=LINE('',#543,#257);
#226=LINE('',#545,#258);
#227=LINE('',#548,#259);
#228=LINE('',#549,#260);
#229=LINE('',#551,#261);
#230=LINE('',#554,#262);
#231=LINE('',#555,#263);
#232=LINE('',#566,#264);
#233=LINE('',#568,#265);
#234=LINE('',#570,#266);
#235=LINE('',#572,#267);
#236=LINE('',#575,#268);
#237=LINE('',#576,#269);
#238=LINE('',#578,#270);
#239=LINE('',#581,#271);
#240=LINE('',#582,#272);
#241=LINE('',#584,#273);
#242=LINE('',#587,#274);
#243=LINE('',#588,#275);
#244=VECTOR('',#398,1.);
#245=VECTOR('',#401,1.);
#246=VECTOR('',#404,1.);
#247=VECTOR('',#407,1.);
#248=VECTOR('',#412,1.);
#249=VECTOR('',#415,1.);
#250=VECTOR('',#418,1.);
#251=VECTOR('',#421,1.);
#252=VECTOR('',#424,1.);
#253=VECTOR('',#425,1.);
#254=VECTOR('',#426,1.);
#255=VECTOR('',#429,1.);
#256=VECTOR('',#430,1.);
#257=VECTOR('',#431,1.);
#258=VECTOR('',#434,1.);
#259=VECTOR('',#435,1.);
#260=VECTOR('',#436,1.);
#261=VECTOR('',#439,1.);
#262=VECTOR('',#440,1.);
#263=VECTOR('',#441,1.);
#264=VECTOR('',#462,1.);
#265=VECTOR('',#463,1.);
#266=VECTOR('',#464,1.);
#267=VECTOR('',#467,1.);
#268=VECTOR('',#468,1.);
#269=VECTOR('',#469,1.);
#270=VECTOR('',#472,1.);
#271=VECTOR('',#473,1.);
#272=VECTOR('',#474,1.);
#273=VECTOR('',#477,1.);
#274=VECTOR('',#478,1.);
#275=VECTOR('',#479,1.);
#276=EDGE_LOOP('',(#36,#37,#38,#39,#40,#41,#42,#43));
#277=EDGE_LOOP('',(#44,#45,#46,#47,#48,#49,#50,#51));
#278=EDGE_LOOP('',(#52,#53,#54,#55));
#279=EDGE_LOOP('',(#56,#57,#58,#59));
#280=EDGE_LOOP('',(#60,#61,#62,#63));
#281=EDGE_LOOP('',(#64,#65,#66,#67));
#282=EDGE_LOOP('',(#68,#69,#70,#71,#72,#73,#74,#75));
#283=EDGE_LOOP('',(#76,#77,#78,#79));
#284=EDGE_LOOP('',(#80,#81,#82,#83));
#285=EDGE_LOOP('',(#84,#85,#86,#87));
#286=EDGE_LOOP('',(#88,#89,#90,#91));
#287=EDGE_LOOP('',(#92,#93,#94,#95));
#288=EDGE_LOOP('',(#96,#97,#98,#99));
#289=EDGE_LOOP('',(#100,#101,#102,#103));
#290=EDGE_LOOP('',(#104,#105,#106,#107));
#291=EDGE_LOOP('',(#108,#109,#110,#111,#112,#113,#114,#115));
#292=EDGE_LOOP('',(#116,#117,#118,#119));
#293=EDGE_LOOP('',(#120,#121,#122,#123));
#294=EDGE_LOOP('',(#124,#125,#126,#127));
#295=EDGE_LOOP('',(#128,#129,#130,#131));
#296=FACE_BOUND('',#276,.T.);
#297=FACE_BOUND('',#277,.T.);
#298=FACE_BOUND('',#278,.T.);
#299=FACE_BOUND('',#279,.T.);
#300=FACE_BOUND('',#280,.T.);
#301=FACE_BOUND('',#281,.T.);
#302=FACE_BOUND('',#282,.T.);
#303=FACE_BOUND('',#283,.T.);
#304=FACE_BOUND('',#284,.T.);
#305=FACE_BOUND('',#285,.T.);
#306=FACE_BOUND('',#286,.T.);
#307=FACE_BOUND('',#287,.T.);
#308=FACE_BOUND('',#288,.T.);
#309=FACE_BOUND('',#289,.T.);
#310=FACE_BOUND('',#290,.T.);
#311=FACE_BOUND('',#291,.T.);
#312=FACE_BOUND('',#292,.T.);
#313=FACE_BOUND('',#293,.T.);
#314=FACE_BOUND('',#294,.T.);
#315=FACE_BOUND('',#295,.T.);
#316=PLANE('',#359);
#317=PLANE('',#368);
#318=PLANE('',#369);
#319=PLANE('',#370);
#320=PLANE('',#371);
#321=PLANE('',#372);
#322=PLANE('',#381);
#323=PLANE('',#382);
#324=PLANE('',#383);
#325=PLANE('',#384);
#326=PLANE('',#385);
#327=ADVANCED_FACE('',(#296,#297),#316,.T.);
#328=ADVANCED_FACE('',(#298),#317,.T.);
#329=ADVANCED_FACE('',(#299),#318,.F.);
#330=ADVANCED_FACE('',(#300),#319,.F.);
#331=ADVANCED_FACE('',(#301),#320,.T.);
#332=ADVANCED_FACE('',(#302),#321,.F.);
#333=ADVANCED_FACE('',(#303),#12,.T.);
#334=ADVANCED_FACE('',(#304),#13,.T.);
#335=ADVANCED_FACE('',(#305),#14,.T.);
#336=ADVANCED_FACE('',(#306),#15,.T.);
#337=ADVANCED_FACE('',(#307),#322,.F.);
#338=ADVANCED_FACE('',(#308),#323,.T.);
#339=ADVANCED_FACE('',(#309),#324,.T.);
#340=ADVANCED_FACE('',(#310),#325,.F.);
#341=ADVANCED_FACE('',(#311),#326,.T.);
#342=ADVANCED_FACE('',(#312),#16,.F.);
#343=ADVANCED_FACE('',(#313),#17,.F.);
#344=ADVANCED_FACE('',(#314),#18,.F.);
#345=ADVANCED_FACE('',(#315),#19,.F.);
#346=CLOSED_SHELL('',(#327,#328,#329,#330,#331,#332,#333,#334,#335,#336,
#337,#338,#339,#340,#341,#342,#343,#344,#345));
#347=STYLED_ITEM('',(#348),#355);
#348=PRESENTATION_STYLE_ASSIGNMENT((#349));
#349=SURFACE_STYLE_USAGE(.BOTH.,#350);
#350=SURFACE_SIDE_STYLE('',(#351));
#351=SURFACE_STYLE_FILL_AREA(#352);
#352=FILL_AREA_STYLE('',(#353));
#353=FILL_AREA_STYLE_COLOUR('',#354);
#354=COLOUR_RGB('',0.615686274509804,0.811764705882353,0.929411764705882);
#355=MANIFOLD_SOLID_BREP('Part 1',#346);
#356=SHAPE_DEFINITION_REPRESENTATION(#604,#357);
#357=SHAPE_REPRESENTATION('Part 1',(#358),#599);
#358=AXIS2_PLACEMENT_3D('',#498,#394,#395);
#359=AXIS2_PLACEMENT_3D('',#499,#396,#397);
#360=AXIS2_PLACEMENT_3D('',#503,#399,#400);
#361=AXIS2_PLACEMENT_3D('',#507,#402,#403);
#362=AXIS2_PLACEMENT_3D('',#511,#405,#406);
#363=AXIS2_PLACEMENT_3D('',#515,#408,#409);
#364=AXIS2_PLACEMENT_3D('',#516,#410,#411);
#365=AXIS2_PLACEMENT_3D('',#521,#413,#414);
#366=AXIS2_PLACEMENT_3D('',#525,#416,#417);
#367=AXIS2_PLACEMENT_3D('',#529,#419,#420);
#368=AXIS2_PLACEMENT_3D('',#532,#422,#423);
#369=AXIS2_PLACEMENT_3D('',#538,#427,#428);
#370=AXIS2_PLACEMENT_3D('',#544,#432,#433);
#371=AXIS2_PLACEMENT_3D('',#550,#437,#438);
#372=AXIS2_PLACEMENT_3D('',#556,#442,#443);
#373=AXIS2_PLACEMENT_3D('',#557,#444,#445);
#374=AXIS2_PLACEMENT_3D('',#558,#446,#447);
#375=AXIS2_PLACEMENT_3D('',#559,#448,#449);
#376=AXIS2_PLACEMENT_3D('',#560,#450,#451);
#377=AXIS2_PLACEMENT_3D('',#561,#452,#453);
#378=AXIS2_PLACEMENT_3D('',#562,#454,#455);
#379=AXIS2_PLACEMENT_3D('',#563,#456,#457);
#380=AXIS2_PLACEMENT_3D('',#564,#458,#459);
#381=AXIS2_PLACEMENT_3D('',#565,#460,#461);
#382=AXIS2_PLACEMENT_3D('',#571,#465,#466);
#383=AXIS2_PLACEMENT_3D('',#577,#470,#471);
#384=AXIS2_PLACEMENT_3D('',#583,#475,#476);
#385=AXIS2_PLACEMENT_3D('',#589,#480,#481);
#386=AXIS2_PLACEMENT_3D('',#590,#482,#483);
#387=AXIS2_PLACEMENT_3D('',#591,#484,#485);
#388=AXIS2_PLACEMENT_3D('',#592,#486,#487);
#389=AXIS2_PLACEMENT_3D('',#593,#488,#489);
#390=AXIS2_PLACEMENT_3D('',#594,#490,#491);
#391=AXIS2_PLACEMENT_3D('',#595,#492,#493);
#392=AXIS2_PLACEMENT_3D('',#596,#494,#495);
#393=AXIS2_PLACEMENT_3D('',#597,#496,#497);
#394=DIRECTION('',(0.,0.,1.));
#395=DIRECTION('',(1.,0.,0.));
#396=DIRECTION('',(0.,0.,1.));
#397=DIRECTION('',(1.,0.,0.));
#398=DIRECTION('',(1.15648231731787E-16,1.,0.));
#399=DIRECTION('',(0.,0.,1.));
#400=DIRECTION('',(1.,0.,0.));
#401=DIRECTION('',(-1.,-1.26161707343768E-16,0.));
#402=DIRECTION('',(0.,0.,1.));
#403=DIRECTION('',(1.,0.,0.));
#404=DIRECTION('',(1.15648231731787E-16,1.,0.));
#405=DIRECTION('',(0.,0.,1.));
#406=DIRECTION('',(1.,0.,0.));
#407=DIRECTION('',(-1.,-1.26161707343768E-16,0.));
#408=DIRECTION('',(0.,0.,1.));
#409=DIRECTION('',(1.,0.,0.));
#410=DIRECTION('',(0.,0.,1.));
#411=DIRECTION('',(1.,0.,0.));
#412=DIRECTION('',(1.15648231731787E-16,1.,0.));
#413=DIRECTION('',(0.,0.,1.));
#414=DIRECTION('',(1.,0.,0.));
#415=DIRECTION('',(-1.,-1.26161707343768E-16,0.));
#416=DIRECTION('',(0.,0.,1.));
#417=DIRECTION('',(1.,0.,0.));
#418=DIRECTION('',(1.15648231731787E-16,1.,0.));
#419=DIRECTION('',(0.,0.,1.));
#420=DIRECTION('',(1.,0.,0.));
#421=DIRECTION('',(-1.,-1.26161707343768E-16,0.));
#422=DIRECTION('',(1.26161707343768E-16,-1.,0.));
#423=DIRECTION('',(1.,1.26161707343768E-16,0.));
#424=DIRECTION('',(0.,0.,-1.));
#425=DIRECTION('',(-1.,-1.26161707343768E-16,0.));
#426=DIRECTION('',(0.,0.,-1.));
#427=DIRECTION('',(-1.,1.15648231731787E-16,0.));
#428=DIRECTION('',(-1.15648231731787E-16,-1.,0.));
#429=DIRECTION('',(1.15648231731787E-16,1.,0.));
#430=DIRECTION('',(0.,0.,-1.));
#431=DIRECTION('',(0.,0.,-1.));
#432=DIRECTION('',(1.26161707343768E-16,-1.,0.));
#433=DIRECTION('',(1.,1.26161707343768E-16,0.));
#434=DIRECTION('',(-1.,-1.26161707343768E-16,0.));
#435=DIRECTION('',(0.,0.,-1.));
#436=DIRECTION('',(0.,0.,-1.));
#437=DIRECTION('',(-1.,1.15648231731787E-16,0.));
#438=DIRECTION('',(-1.15648231731787E-16,-1.,0.));
#439=DIRECTION('',(1.15648231731787E-16,1.,0.));
#440=DIRECTION('',(0.,0.,-1.));
#441=DIRECTION('',(0.,0.,-1.));
#442=DIRECTION('',(0.,0.,1.));
#443=DIRECTION('',(1.,0.,0.));
#444=DIRECTION('',(0.,0.,1.));
#445=DIRECTION('',(1.,0.,0.));
#446=DIRECTION('',(0.,0.,1.));
#447=DIRECTION('',(1.,0.,0.));
#448=DIRECTION('',(0.,0.,1.));
#449=DIRECTION('',(1.,0.,0.));
#450=DIRECTION('',(0.,0.,1.));
#451=DIRECTION('',(1.,0.,0.));
#452=DIRECTION('',(0.,0.,-1.));
#453=DIRECTION('',(-1.,0.,0.));
#454=DIRECTION('',(0.,0.,1.));
#455=DIRECTION('',(1.,0.,0.));
#456=DIRECTION('',(0.,0.,-1.));
#457=DIRECTION('',(-1.,0.,0.));
#458=DIRECTION('',(0.,0.,1.));
#459=DIRECTION('',(1.,0.,0.));
#460=DIRECTION('',(1.26161707343768E-16,-1.,0.));
#461=DIRECTION('',(1.,1.26161707343768E-16,0.));
#462=DIRECTION('',(0.,0.,1.));
#463=DIRECTION('',(-1.,-1.26161707343768E-16,0.));
#464=DIRECTION('',(0.,0.,1.));
#465=DIRECTION('',(-1.,1.15648231731787E-16,0.));
#466=DIRECTION('',(-1.15648231731787E-16,-1.,0.));
#467=DIRECTION('',(1.15648231731787E-16,1.,0.));
#468=DIRECTION('',(0.,0.,1.));
#469=DIRECTION('',(0.,0.,1.));
#470=DIRECTION('',(1.26161707343768E-16,-1.,0.));
#471=DIRECTION('',(1.,1.26161707343768E-16,0.));
#472=DIRECTION('',(-1.,-1.26161707343768E-16,0.));
#473=DIRECTION('',(0.,0.,1.));
#474=DIRECTION('',(0.,0.,1.));
#475=DIRECTION('',(-1.,1.15648231731787E-16,0.));
#476=DIRECTION('',(-1.15648231731787E-16,-1.,0.));
#477=DIRECTION('',(1.15648231731787E-16,1.,0.));
#478=DIRECTION('',(0.,0.,1.));
#479=DIRECTION('',(0.,0.,1.));
#480=DIRECTION('',(0.,0.,1.));
#481=DIRECTION('',(1.,0.,0.));
#482=DIRECTION('',(0.,0.,1.));
#483=DIRECTION('',(1.,0.,0.));
#484=DIRECTION('',(0.,0.,1.));
#485=DIRECTION('',(1.,0.,0.));
#486=DIRECTION('',(0.,0.,1.));
#487=DIRECTION('',(1.,0.,0.));
#488=DIRECTION('',(0.,0.,1.));
#489=DIRECTION('',(1.,0.,0.));
#490=DIRECTION('',(0.,0.,-1.));
#491=DIRECTION('',(-1.,0.,0.));
#492=DIRECTION('',(0.,0.,1.));
#493=DIRECTION('',(1.,0.,0.));
#494=DIRECTION('',(0.,0.,-1.));
#495=DIRECTION('',(-1.,0.,0.));
#496=DIRECTION('',(0.,0.,1.));
#497=DIRECTION('',(1.,0.,0.));
#498=CARTESIAN_POINT('',(0.,0.,0.));
#499=CARTESIAN_POINT('',(-6.93889390390723E-18,1.04083408558608E-17,0.007));
#500=CARTESIAN_POINT('',(-0.0275,6.93889390390723E-18,0.007));
#501=CARTESIAN_POINT('',(-0.0275,-0.007,0.007));
#502=CARTESIAN_POINT('',(-0.0275,0.007,0.007));
#503=CARTESIAN_POINT('',(-0.0195,-0.007,0.007));
#504=CARTESIAN_POINT('',(-0.0195,-0.015,0.007));
#505=CARTESIAN_POINT('',(-6.93889390390723E-18,-0.015,0.007));
#506=CARTESIAN_POINT('',(0.0195,-0.015,0.007));
#507=CARTESIAN_POINT('',(0.0195,-0.007,0.007));
#508=CARTESIAN_POINT('',(0.0275,-0.007,0.007));
#509=CARTESIAN_POINT('',(0.0275,1.56125112837912E-17,0.007));
#510=CARTESIAN_POINT('',(0.0275,0.007,0.007));
#511=CARTESIAN_POINT('',(0.0195,0.007,0.007));
#512=CARTESIAN_POINT('',(0.0195,0.015,0.007));
#513=CARTESIAN_POINT('',(-6.93889390390723E-18,0.015,0.007));
#514=CARTESIAN_POINT('',(-0.0195,0.015,0.007));
#515=CARTESIAN_POINT('',(-0.0195,0.007,0.007));
#516=CARTESIAN_POINT('',(-0.0195,-0.007,0.007));
#517=CARTESIAN_POINT('',(-0.0259,-0.007,0.007));
#518=CARTESIAN_POINT('',(-0.0195,-0.0134,0.007));
#519=CARTESIAN_POINT('',(-0.0259,6.75385673313637E-18,0.007));
#520=CARTESIAN_POINT('',(-0.0259,0.007,0.007));
#521=CARTESIAN_POINT('',(-0.0195,0.007,0.007));
#522=CARTESIAN_POINT('',(-0.0195,0.0134,0.007));
#523=CARTESIAN_POINT('',(-6.7370351721572E-18,0.0134,0.007));
#524=CARTESIAN_POINT('',(0.0195,0.0134,0.007));
#525=CARTESIAN_POINT('',(0.0195,0.007,0.007));
#526=CARTESIAN_POINT('',(0.0259,0.007,0.007));
#527=CARTESIAN_POINT('',(0.0259,1.57975484545621E-17,0.007));
#528=CARTESIAN_POINT('',(0.0259,-0.007,0.007));
#529=CARTESIAN_POINT('',(0.0195,-0.007,0.007));
#530=CARTESIAN_POINT('',(0.0195,-0.0134,0.007));
#531=CARTESIAN_POINT('',(-7.14075263565726E-18,-0.0134,0.007));
#532=CARTESIAN_POINT('',(-6.93889390390723E-18,-0.015,0.007));
#533=CARTESIAN_POINT('',(-0.0195,-0.015,0.007));
#534=CARTESIAN_POINT('',(-0.0195,-0.015,0.));
#535=CARTESIAN_POINT('',(-6.93889390390723E-18,-0.015,0.));
#536=CARTESIAN_POINT('',(0.0195,-0.015,0.));
#537=CARTESIAN_POINT('',(0.0195,-0.015,0.007));
#538=CARTESIAN_POINT('',(0.0275,1.56125112837912E-17,0.007));
#539=CARTESIAN_POINT('',(0.0275,1.56125112837912E-17,0.));
#540=CARTESIAN_POINT('',(0.0275,-0.007,0.));
#541=CARTESIAN_POINT('',(0.0275,0.007,0.));
#542=CARTESIAN_POINT('',(0.0275,0.007,0.007));
#543=CARTESIAN_POINT('',(0.0275,-0.007,0.));
#544=CARTESIAN_POINT('',(-6.93889390390723E-18,0.015,0.007));
#545=CARTESIAN_POINT('',(-6.93889390390723E-18,0.015,0.));
#546=CARTESIAN_POINT('',(0.0195,0.015,0.));
#547=CARTESIAN_POINT('',(-0.0195,0.015,0.));
#548=CARTESIAN_POINT('',(-0.0195,0.015,0.007));
#549=CARTESIAN_POINT('',(0.0195,0.015,0.007));
#550=CARTESIAN_POINT('',(-0.0275,6.93889390390723E-18,0.007));
#551=CARTESIAN_POINT('',(-0.0275,6.93889390390723E-18,0.));
#552=CARTESIAN_POINT('',(-0.0275,-0.007,0.));
#553=CARTESIAN_POINT('',(-0.0275,0.007,0.));
#554=CARTESIAN_POINT('',(-0.0275,-0.007,0.007));
#555=CARTESIAN_POINT('',(-0.0275,0.007,0.));
#556=CARTESIAN_POINT('',(-6.93889390390723E-18,1.04083408558608E-17,0.));
#557=CARTESIAN_POINT('',(-0.0195,-0.007,0.));
#558=CARTESIAN_POINT('',(-0.0195,0.007,0.));
#559=CARTESIAN_POINT('',(0.0195,0.007,0.));
#560=CARTESIAN_POINT('',(0.0195,-0.007,0.));
#561=CARTESIAN_POINT('',(-0.0195,-0.007,0.007));
#562=CARTESIAN_POINT('',(-0.0195,0.007,0.007));
#563=CARTESIAN_POINT('',(0.0195,0.007,0.007));
#564=CARTESIAN_POINT('',(0.0195,-0.007,0.007));
#565=CARTESIAN_POINT('',(-7.14075263565726E-18,-0.0134,0.007));
#566=CARTESIAN_POINT('',(0.0195,-0.0134,0.007));
#567=CARTESIAN_POINT('',(0.0195,-0.0134,0.0016));
#568=CARTESIAN_POINT('',(-7.14075263565726E-18,-0.0134,0.0016));
#569=CARTESIAN_POINT('',(-0.0195,-0.0134,0.0016));
#570=CARTESIAN_POINT('',(-0.0195,-0.0134,0.007));
#571=CARTESIAN_POINT('',(0.0259,1.57975484545621E-17,0.007));
#572=CARTESIAN_POINT('',(0.0259,1.57975484545621E-17,0.0016));
#573=CARTESIAN_POINT('',(0.0259,-0.007,0.0016));
#574=CARTESIAN_POINT('',(0.0259,0.007,0.0016));
#575=CARTESIAN_POINT('',(0.0259,-0.007,0.007));
#576=CARTESIAN_POINT('',(0.0259,0.007,0.007));
#577=CARTESIAN_POINT('',(-6.7370351721572E-18,0.0134,0.007));
#578=CARTESIAN_POINT('',(-6.7370351721572E-18,0.0134,0.0016));
#579=CARTESIAN_POINT('',(0.0195,0.0134,0.0016));
#580=CARTESIAN_POINT('',(-0.0195,0.0134,0.0016));
#581=CARTESIAN_POINT('',(0.0195,0.0134,0.007));
#582=CARTESIAN_POINT('',(-0.0195,0.0134,0.007));
#583=CARTESIAN_POINT('',(-0.0259,6.75385673313637E-18,0.007));
#584=CARTESIAN_POINT('',(-0.0259,6.75385673313637E-18,0.0016));
#585=CARTESIAN_POINT('',(-0.0259,-0.007,0.0016));
#586=CARTESIAN_POINT('',(-0.0259,0.007,0.0016));
#587=CARTESIAN_POINT('',(-0.0259,0.007,0.007));
#588=CARTESIAN_POINT('',(-0.0259,-0.007,0.007));
#589=CARTESIAN_POINT('',(-6.93889390390723E-18,1.04083408558608E-17,0.0016));
#590=CARTESIAN_POINT('',(0.0195,-0.007,0.0016));
#591=CARTESIAN_POINT('',(0.0195,0.007,0.0016));
#592=CARTESIAN_POINT('',(-0.0195,0.007,0.0016));
#593=CARTESIAN_POINT('',(-0.0195,-0.007,0.0016));
#594=CARTESIAN_POINT('',(-0.0195,-0.007,0.007));
#595=CARTESIAN_POINT('',(-0.0195,0.007,0.007));
#596=CARTESIAN_POINT('',(0.0195,0.007,0.007));
#597=CARTESIAN_POINT('',(0.0195,-0.007,0.007));
#598=MECHANICAL_DESIGN_GEOMETRIC_PRESENTATION_REPRESENTATION('',(#347),
#599);
#599=(
GEOMETRIC_REPRESENTATION_CONTEXT(3)
GLOBAL_UNCERTAINTY_ASSIGNED_CONTEXT((#600))
GLOBAL_UNIT_ASSIGNED_CONTEXT((#603,#602,#601))
REPRESENTATION_CONTEXT('Part 1','TOP_LEVEL_ASSEMBLY_PART')
);
#600=UNCERTAINTY_MEASURE_WITH_UNIT(LENGTH_MEASURE(1.E-8),#603,
'DISTANCE_ACCURACY_VALUE','Maximum Tolerance applied to model');
#601=(
NAMED_UNIT(*)
SI_UNIT($,.STERADIAN.)
SOLID_ANGLE_UNIT()
);
#602=(
NAMED_UNIT(*)
PLANE_ANGLE_UNIT()
SI_UNIT($,.RADIAN.)
);
#603=(
LENGTH_UNIT()
NAMED_UNIT(*)
SI_UNIT($,.METRE.)
);
#604=PRODUCT_DEFINITION_SHAPE('','',#605);
#605=PRODUCT_DEFINITION('','',#607,#606);
#606=PRODUCT_DEFINITION_CONTEXT('',#613,'design');
#607=PRODUCT_DEFINITION_FORMATION_WITH_SPECIFIED_SOURCE('','',#609,
 .NOT_KNOWN.);
#608=PRODUCT_RELATED_PRODUCT_CATEGORY('','',(#609));
#609=PRODUCT('Part 1','Part 1','Part 1',(#611));
#610=PRODUCT_CATEGORY('','');
#611=PRODUCT_CONTEXT('',#613,'mechanical');
#612=APPLICATION_PROTOCOL_DEFINITION('international standard',
'ap242_managed_model_based_3d_engineering',2020,#613);
#613=APPLICATION_CONTEXT('managed model based 3d engineering');
ENDSEC;
END-ISO-10303-21;
