ISO-10303-21;
HEADER;
/* Generated by software containing ST-Developer
 * from STEP Tools, Inc. (www.steptools.com) 
 */
/* OPTION: using custom renumber hook */

FILE_DESCRIPTION(
/* description */ ('STEP AP242 Edition 2',
'CAx-IF Rec.Pracs.---Representation and Presentation of Product Manufa
cturing Information (PMI)---4.0---2014-10-13',
'CAx-IF Rec.Pracs.---3D Tessellated Geometry---0.4---2014-09-14','2;1',
'CAx-IF Rec.Pracs.---User Defined Attributes---1.5---2016-08-15'),
/* implementation_level */ '2;1');

FILE_NAME(
/* name */ 'Part Studio 1',
/* time_stamp */ '2026-06-12T01:57:50Z',
/* author */ (''),
/* organization */ (''),
/* preprocessor_version */ 'ST-DEVELOPER v20',
/* originating_system */ 'ONSHAPE BY PTC INC, 1.216',
/* authorisation */ '  ');

FILE_SCHEMA (('AP242_MANAGED_MODEL_BASED_3D_ENGINEERING_MIM_LF { 1 0 10303 442 3 1 4 }'));
ENDSEC;

DATA;
#10=ADVANCED_BREP_SHAPE_REPRESENTATION('',(#257),#566);
#11=B_SPLINE_SURFACE_WITH_KNOTS('',3,1,((#479,#480),(#481,#482),(#483,#484),
(#485,#486)),.RULED_SURF.,.F.,.F.,.F.,(4,4),(2,2),(0.,1.),(0.,1.),
 .PIECEWISE_BEZIER_KNOTS.);
#12=B_SPLINE_SURFACE_WITH_KNOTS('',3,1,((#498,#499),(#500,#501),(#502,#503),
(#504,#505)),.RULED_SURF.,.F.,.F.,.F.,(4,4),(2,2),(0.,1.),(0.,1.),
 .PIECEWISE_BEZIER_KNOTS.);
#13=B_SPLINE_SURFACE_WITH_KNOTS('',3,1,((#512,#513),(#514,#515),(#516,#517),
(#518,#519)),.RULED_SURF.,.F.,.F.,.F.,(4,4),(2,2),(0.,1.),(0.,1.),
 .PIECEWISE_BEZIER_KNOTS.);
#14=B_SPLINE_SURFACE_WITH_KNOTS('',3,1,((#526,#527),(#528,#529),(#530,#531),
(#532,#533)),.RULED_SURF.,.F.,.F.,.F.,(4,4),(2,2),(0.,1.),(0.,1.),
 .PIECEWISE_BEZIER_KNOTS.);
#15=CIRCLE('',#340,0.025);
#16=CIRCLE('',#341,0.025);
#17=CIRCLE('',#344,0.009);
#18=CIRCLE('',#345,0.009);
#19=CIRCLE('',#350,0.025);
#20=CIRCLE('',#351,0.025);
#21=CIRCLE('',#354,0.009);
#22=CIRCLE('',#355,0.009);
#23=CYLINDRICAL_SURFACE('',#339,0.025);
#24=CYLINDRICAL_SURFACE('',#343,0.009);
#25=CYLINDRICAL_SURFACE('',#349,0.025);
#26=CYLINDRICAL_SURFACE('',#353,0.009);
#27=ORIENTED_EDGE('',*,*,#91,.F.);
#28=ORIENTED_EDGE('',*,*,#92,.F.);
#29=ORIENTED_EDGE('',*,*,#93,.T.);
#30=ORIENTED_EDGE('',*,*,#94,.T.);
#31=ORIENTED_EDGE('',*,*,#95,.F.);
#32=ORIENTED_EDGE('',*,*,#96,.F.);
#33=ORIENTED_EDGE('',*,*,#97,.T.);
#34=ORIENTED_EDGE('',*,*,#92,.T.);
#35=ORIENTED_EDGE('',*,*,#98,.F.);
#36=ORIENTED_EDGE('',*,*,#99,.F.);
#37=ORIENTED_EDGE('',*,*,#100,.T.);
#38=ORIENTED_EDGE('',*,*,#96,.T.);
#39=ORIENTED_EDGE('',*,*,#101,.T.);
#40=ORIENTED_EDGE('',*,*,#102,.F.);
#41=ORIENTED_EDGE('',*,*,#103,.F.);
#42=ORIENTED_EDGE('',*,*,#93,.F.);
#43=ORIENTED_EDGE('',*,*,#97,.F.);
#44=ORIENTED_EDGE('',*,*,#100,.F.);
#45=ORIENTED_EDGE('',*,*,#101,.F.);
#46=ORIENTED_EDGE('',*,*,#104,.T.);
#47=ORIENTED_EDGE('',*,*,#98,.T.);
#48=ORIENTED_EDGE('',*,*,#95,.T.);
#49=ORIENTED_EDGE('',*,*,#91,.T.);
#50=ORIENTED_EDGE('',*,*,#102,.T.);
#51=ORIENTED_EDGE('',*,*,#105,.F.);
#52=ORIENTED_EDGE('',*,*,#106,.F.);
#53=ORIENTED_EDGE('',*,*,#103,.T.);
#54=ORIENTED_EDGE('',*,*,#107,.T.);
#55=ORIENTED_EDGE('',*,*,#108,.F.);
#56=ORIENTED_EDGE('',*,*,#107,.F.);
#57=ORIENTED_EDGE('',*,*,#99,.T.);
#58=ORIENTED_EDGE('',*,*,#109,.T.);
#59=ORIENTED_EDGE('',*,*,#110,.T.);
#60=ORIENTED_EDGE('',*,*,#109,.F.);
#61=ORIENTED_EDGE('',*,*,#104,.F.);
#62=ORIENTED_EDGE('',*,*,#111,.T.);
#63=ORIENTED_EDGE('',*,*,#112,.T.);
#64=ORIENTED_EDGE('',*,*,#111,.F.);
#65=ORIENTED_EDGE('',*,*,#94,.F.);
#66=ORIENTED_EDGE('',*,*,#106,.T.);
#67=ORIENTED_EDGE('',*,*,#113,.T.);
#68=ORIENTED_EDGE('',*,*,#112,.F.);
#69=ORIENTED_EDGE('',*,*,#114,.F.);
#70=ORIENTED_EDGE('',*,*,#115,.T.);
#71=ORIENTED_EDGE('',*,*,#116,.T.);
#72=ORIENTED_EDGE('',*,*,#115,.F.);
#73=ORIENTED_EDGE('',*,*,#117,.F.);
#74=ORIENTED_EDGE('',*,*,#118,.T.);
#75=ORIENTED_EDGE('',*,*,#119,.T.);
#76=ORIENTED_EDGE('',*,*,#118,.F.);
#77=ORIENTED_EDGE('',*,*,#120,.F.);
#78=ORIENTED_EDGE('',*,*,#108,.T.);
#79=ORIENTED_EDGE('',*,*,#121,.F.);
#80=ORIENTED_EDGE('',*,*,#122,.T.);
#81=ORIENTED_EDGE('',*,*,#105,.T.);
#82=ORIENTED_EDGE('',*,*,#120,.T.);
#83=ORIENTED_EDGE('',*,*,#117,.T.);
#84=ORIENTED_EDGE('',*,*,#114,.T.);
#85=ORIENTED_EDGE('',*,*,#121,.T.);
#86=ORIENTED_EDGE('',*,*,#110,.F.);
#87=ORIENTED_EDGE('',*,*,#113,.F.);
#88=ORIENTED_EDGE('',*,*,#116,.F.);
#89=ORIENTED_EDGE('',*,*,#119,.F.);
#90=ORIENTED_EDGE('',*,*,#122,.F.);
#91=EDGE_CURVE('',#123,#124,#143,.T.);
#92=EDGE_CURVE('',#125,#123,#144,.T.);
#93=EDGE_CURVE('',#125,#126,#145,.T.);
#94=EDGE_CURVE('',#126,#124,#146,.T.);
#95=EDGE_CURVE('',#127,#123,#15,.T.);
#96=EDGE_CURVE('',#128,#127,#147,.T.);
#97=EDGE_CURVE('',#128,#125,#16,.T.);
#98=EDGE_CURVE('',#129,#127,#148,.T.);
#99=EDGE_CURVE('',#130,#129,#149,.T.);
#100=EDGE_CURVE('',#130,#128,#150,.T.);
#101=EDGE_CURVE('',#131,#131,#17,.T.);
#102=EDGE_CURVE('',#132,#132,#18,.T.);
#103=EDGE_CURVE('',#126,#130,#151,.T.);
#104=EDGE_CURVE('',#124,#129,#152,.T.);
#105=EDGE_CURVE('',#133,#134,#153,.T.);
#106=EDGE_CURVE('',#126,#133,#315,.T.);
#107=EDGE_CURVE('',#130,#134,#316,.T.);
#108=EDGE_CURVE('',#134,#135,#154,.T.);
#109=EDGE_CURVE('',#129,#135,#317,.T.);
#110=EDGE_CURVE('',#136,#135,#155,.T.);
#111=EDGE_CURVE('',#124,#136,#318,.T.);
#112=EDGE_CURVE('',#133,#136,#156,.T.);
#113=EDGE_CURVE('',#137,#136,#157,.T.);
#114=EDGE_CURVE('',#138,#133,#158,.T.);
#115=EDGE_CURVE('',#138,#137,#159,.T.);
#116=EDGE_CURVE('',#139,#137,#19,.T.);
#117=EDGE_CURVE('',#140,#138,#20,.T.);
#118=EDGE_CURVE('',#140,#139,#160,.T.);
#119=EDGE_CURVE('',#135,#139,#161,.T.);
#120=EDGE_CURVE('',#134,#140,#162,.T.);
#121=EDGE_CURVE('',#141,#141,#21,.T.);
#122=EDGE_CURVE('',#142,#142,#22,.T.);
#123=VERTEX_POINT('',#451);
#124=VERTEX_POINT('',#452);
#125=VERTEX_POINT('',#454);
#126=VERTEX_POINT('',#456);
#127=VERTEX_POINT('',#460);
#128=VERTEX_POINT('',#462);
#129=VERTEX_POINT('',#466);
#130=VERTEX_POINT('',#468);
#131=VERTEX_POINT('',#472);
#132=VERTEX_POINT('',#474);
#133=VERTEX_POINT('',#488);
#134=VERTEX_POINT('',#489);
#135=VERTEX_POINT('',#507);
#136=VERTEX_POINT('',#521);
#137=VERTEX_POINT('',#537);
#138=VERTEX_POINT('',#539);
#139=VERTEX_POINT('',#543);
#140=VERTEX_POINT('',#545);
#141=VERTEX_POINT('',#552);
#142=VERTEX_POINT('',#554);
#143=LINE('',#450,#163);
#144=LINE('',#453,#164);
#145=LINE('',#455,#165);
#146=LINE('',#457,#166);
#147=LINE('',#461,#167);
#148=LINE('',#465,#168);
#149=LINE('',#467,#169);
#150=LINE('',#469,#170);
#151=LINE('',#476,#171);
#152=LINE('',#478,#172);
#153=LINE('',#487,#173);
#154=LINE('',#506,#174);
#155=LINE('',#520,#175);
#156=LINE('',#534,#176);
#157=LINE('',#536,#177);
#158=LINE('',#538,#178);
#159=LINE('',#540,#179);
#160=LINE('',#546,#180);
#161=LINE('',#548,#181);
#162=LINE('',#549,#182);
#163=VECTOR('',#370,1.);
#164=VECTOR('',#371,1.);
#165=VECTOR('',#372,1.);
#166=VECTOR('',#373,1.);
#167=VECTOR('',#378,1.);
#168=VECTOR('',#383,1.);
#169=VECTOR('',#384,1.);
#170=VECTOR('',#385,1.);
#171=VECTOR('',#394,1.);
#172=VECTOR('',#397,1.);
#173=VECTOR('',#398,1.);
#174=VECTOR('',#399,1.);
#175=VECTOR('',#400,1.);
#176=VECTOR('',#401,1.);
#177=VECTOR('',#404,1.);
#178=VECTOR('',#405,1.);
#179=VECTOR('',#406,1.);
#180=VECTOR('',#413,1.);
#181=VECTOR('',#416,1.);
#182=VECTOR('',#417,1.);
#183=EDGE_LOOP('',(#27,#28,#29,#30));
#184=EDGE_LOOP('',(#31,#32,#33,#34));
#185=EDGE_LOOP('',(#35,#36,#37,#38));
#186=EDGE_LOOP('',(#39));
#187=EDGE_LOOP('',(#40));
#188=EDGE_LOOP('',(#41,#42,#43,#44));
#189=EDGE_LOOP('',(#45));
#190=EDGE_LOOP('',(#46,#47,#48,#49));
#191=EDGE_LOOP('',(#50));
#192=EDGE_LOOP('',(#51,#52,#53,#54));
#193=EDGE_LOOP('',(#55,#56,#57,#58));
#194=EDGE_LOOP('',(#59,#60,#61,#62));
#195=EDGE_LOOP('',(#63,#64,#65,#66));
#196=EDGE_LOOP('',(#67,#68,#69,#70));
#197=EDGE_LOOP('',(#71,#72,#73,#74));
#198=EDGE_LOOP('',(#75,#76,#77,#78));
#199=EDGE_LOOP('',(#79));
#200=EDGE_LOOP('',(#80));
#201=EDGE_LOOP('',(#81,#82,#83,#84));
#202=EDGE_LOOP('',(#85));
#203=EDGE_LOOP('',(#86,#87,#88,#89));
#204=EDGE_LOOP('',(#90));
#205=FACE_BOUND('',#183,.T.);
#206=FACE_BOUND('',#184,.T.);
#207=FACE_BOUND('',#185,.T.);
#208=FACE_BOUND('',#186,.T.);
#209=FACE_BOUND('',#187,.T.);
#210=FACE_BOUND('',#188,.T.);
#211=FACE_BOUND('',#189,.T.);
#212=FACE_BOUND('',#190,.T.);
#213=FACE_BOUND('',#191,.T.);
#214=FACE_BOUND('',#192,.T.);
#215=FACE_BOUND('',#193,.T.);
#216=FACE_BOUND('',#194,.T.);
#217=FACE_BOUND('',#195,.T.);
#218=FACE_BOUND('',#196,.T.);
#219=FACE_BOUND('',#197,.T.);
#220=FACE_BOUND('',#198,.T.);
#221=FACE_BOUND('',#199,.T.);
#222=FACE_BOUND('',#200,.T.);
#223=FACE_BOUND('',#201,.T.);
#224=FACE_BOUND('',#202,.T.);
#225=FACE_BOUND('',#203,.T.);
#226=FACE_BOUND('',#204,.T.);
#227=PLANE('',#338);
#228=PLANE('',#342);
#229=PLANE('',#346);
#230=PLANE('',#347);
#231=PLANE('',#348);
#232=PLANE('',#352);
#233=PLANE('',#356);
#234=PLANE('',#357);
#235=ADVANCED_FACE('',(#205),#227,.T.);
#236=ADVANCED_FACE('',(#206),#23,.T.);
#237=ADVANCED_FACE('',(#207),#228,.T.);
#238=ADVANCED_FACE('',(#208,#209),#24,.F.);
#239=ADVANCED_FACE('',(#210,#211),#229,.T.);
#240=ADVANCED_FACE('',(#212,#213),#230,.F.);
#241=ADVANCED_FACE('',(#214),#11,.F.);
#242=ADVANCED_FACE('',(#215),#12,.F.);
#243=ADVANCED_FACE('',(#216),#13,.T.);
#244=ADVANCED_FACE('',(#217),#14,.T.);
#245=ADVANCED_FACE('',(#218),#231,.T.);
#246=ADVANCED_FACE('',(#219),#25,.T.);
#247=ADVANCED_FACE('',(#220),#232,.T.);
#248=ADVANCED_FACE('',(#221,#222),#26,.F.);
#249=ADVANCED_FACE('',(#223,#224),#233,.T.);
#250=ADVANCED_FACE('',(#225,#226),#234,.F.);
#251=CLOSED_SHELL('',(#235,#236,#237,#238,#239,#240,#241,#242,#243,#244,
#245,#246,#247,#248,#249,#250));
#252=SURFACE_STYLE_USAGE(.BOTH.,#253);
#253=SURFACE_SIDE_STYLE('',(#254));
#254=SURFACE_STYLE_FILL_AREA(#255);
#255=FILL_AREA_STYLE('',(#256));
#256=FILL_AREA_STYLE_COLOUR('',#298);
#257=MANIFOLD_SOLID_BREP('Part 1',#251);
#258=SHAPE_REPRESENTATION_RELATIONSHIP('','',#328,#263);
#259=SHAPE_REPRESENTATION_RELATIONSHIP('','',#329,#264);
#260=SHAPE_REPRESENTATION_RELATIONSHIP('','',#330,#265);
#261=SHAPE_REPRESENTATION_RELATIONSHIP('','',#331,#266);
#262=SHAPE_REPRESENTATION_RELATIONSHIP('','',#332,#10);
#263=GEOMETRICALLY_BOUNDED_WIREFRAME_SHAPE_REPRESENTATION('',(#319),#562);
#264=GEOMETRICALLY_BOUNDED_WIREFRAME_SHAPE_REPRESENTATION('',(#320),#563);
#265=GEOMETRICALLY_BOUNDED_WIREFRAME_SHAPE_REPRESENTATION('',(#321),#564);
#266=GEOMETRICALLY_BOUNDED_WIREFRAME_SHAPE_REPRESENTATION('',(#322),#565);
#267=DRAUGHTING_PRE_DEFINED_COLOUR('black');
#268=STYLED_ITEM('',(#277),#307);
#269=STYLED_ITEM('',(#278),#307);
#270=STYLED_ITEM('',(#279),#308);
#271=STYLED_ITEM('',(#280),#308);
#272=STYLED_ITEM('',(#281),#309);
#273=STYLED_ITEM('',(#282),#309);
#274=STYLED_ITEM('',(#283),#310);
#275=STYLED_ITEM('',(#284),#310);
#276=STYLED_ITEM('',(#285),#257);
#277=PRESENTATION_STYLE_ASSIGNMENT((#286));
#278=PRESENTATION_STYLE_ASSIGNMENT((#287));
#279=PRESENTATION_STYLE_ASSIGNMENT((#288));
#280=PRESENTATION_STYLE_ASSIGNMENT((#289));
#281=PRESENTATION_STYLE_ASSIGNMENT((#290));
#282=PRESENTATION_STYLE_ASSIGNMENT((#291));
#283=PRESENTATION_STYLE_ASSIGNMENT((#292));
#284=PRESENTATION_STYLE_ASSIGNMENT((#293));
#285=PRESENTATION_STYLE_ASSIGNMENT((#252));
#286=CURVE_STYLE('',#299,POSITIVE_LENGTH_MEASURE(0.352777777777778),#294);
#287=CURVE_STYLE('',#300,POSITIVE_LENGTH_MEASURE(0.352777777777778),#267);
#288=CURVE_STYLE('',#301,POSITIVE_LENGTH_MEASURE(0.352777777777778),#295);
#289=CURVE_STYLE('',#302,POSITIVE_LENGTH_MEASURE(0.352777777777778),#267);
#290=CURVE_STYLE('',#303,POSITIVE_LENGTH_MEASURE(0.352777777777778),#296);
#291=CURVE_STYLE('',#304,POSITIVE_LENGTH_MEASURE(0.352777777777778),#267);
#292=CURVE_STYLE('',#305,POSITIVE_LENGTH_MEASURE(0.352777777777778),#297);
#293=CURVE_STYLE('',#306,POSITIVE_LENGTH_MEASURE(0.352777777777778),#267);
#294=COLOUR_RGB('',1.,0.,0.);
#295=COLOUR_RGB('',1.,0.,0.);
#296=COLOUR_RGB('',1.,0.,0.);
#297=COLOUR_RGB('',1.,0.,0.);
#298=COLOUR_RGB('',0.325490196078431,0.529411764705882,0.752941176470588);
#299=DRAUGHTING_PRE_DEFINED_CURVE_FONT('continuous');
#300=DRAUGHTING_PRE_DEFINED_CURVE_FONT('continuous');
#301=DRAUGHTING_PRE_DEFINED_CURVE_FONT('continuous');
#302=DRAUGHTING_PRE_DEFINED_CURVE_FONT('continuous');
#303=DRAUGHTING_PRE_DEFINED_CURVE_FONT('continuous');
#304=DRAUGHTING_PRE_DEFINED_CURVE_FONT('continuous');
#305=DRAUGHTING_PRE_DEFINED_CURVE_FONT('continuous');
#306=DRAUGHTING_PRE_DEFINED_CURVE_FONT('continuous');
#307=TRIMMED_CURVE('',#311,(PARAMETER_VALUE(0.)),(PARAMETER_VALUE(1.)),
 .T.,.PARAMETER.);
#308=TRIMMED_CURVE('',#312,(PARAMETER_VALUE(0.)),(PARAMETER_VALUE(1.)),
 .T.,.PARAMETER.);
#309=TRIMMED_CURVE('',#313,(PARAMETER_VALUE(0.)),(PARAMETER_VALUE(1.)),
 .T.,.PARAMETER.);
#310=TRIMMED_CURVE('',#314,(PARAMETER_VALUE(0.)),(PARAMETER_VALUE(1.)),
 .T.,.PARAMETER.);
#311=B_SPLINE_CURVE_WITH_KNOTS('',3,(#429,#430,#431,#432),.UNSPECIFIED.,
 .F.,.F.,(4,4),(0.,1.),.UNSPECIFIED.);
#312=B_SPLINE_CURVE_WITH_KNOTS('',3,(#434,#435,#436,#437),.UNSPECIFIED.,
 .F.,.F.,(4,4),(0.,1.),.UNSPECIFIED.);
#313=B_SPLINE_CURVE_WITH_KNOTS('',3,(#439,#440,#441,#442),.UNSPECIFIED.,
 .F.,.F.,(4,4),(0.,1.),.UNSPECIFIED.);
#314=B_SPLINE_CURVE_WITH_KNOTS('',3,(#444,#445,#446,#447),.UNSPECIFIED.,
 .F.,.F.,(4,4),(0.,1.),.UNSPECIFIED.);
#315=B_SPLINE_CURVE_WITH_KNOTS('',3,(#490,#491,#492,#493),.UNSPECIFIED.,
 .F.,.F.,(4,4),(0.,1.),.UNSPECIFIED.);
#316=B_SPLINE_CURVE_WITH_KNOTS('',3,(#494,#495,#496,#497),.UNSPECIFIED.,
 .F.,.F.,(4,4),(0.,1.),.UNSPECIFIED.);
#317=B_SPLINE_CURVE_WITH_KNOTS('',3,(#508,#509,#510,#511),.UNSPECIFIED.,
 .F.,.F.,(4,4),(0.,1.),.UNSPECIFIED.);
#318=B_SPLINE_CURVE_WITH_KNOTS('',3,(#522,#523,#524,#525),.UNSPECIFIED.,
 .F.,.F.,(4,4),(0.,1.),.UNSPECIFIED.);
#319=GEOMETRIC_CURVE_SET('',(#307));
#320=GEOMETRIC_CURVE_SET('',(#308));
#321=GEOMETRIC_CURVE_SET('',(#309));
#322=GEOMETRIC_CURVE_SET('',(#310));
#323=SHAPE_DEFINITION_REPRESENTATION(#587,#328);
#324=SHAPE_DEFINITION_REPRESENTATION(#588,#329);
#325=SHAPE_DEFINITION_REPRESENTATION(#589,#330);
#326=SHAPE_DEFINITION_REPRESENTATION(#590,#331);
#327=SHAPE_DEFINITION_REPRESENTATION(#591,#332);
#328=SHAPE_REPRESENTATION('Curve 3',(#333),#562);
#329=SHAPE_REPRESENTATION('Curve 4',(#334),#563);
#330=SHAPE_REPRESENTATION('Curve 1',(#335),#564);
#331=SHAPE_REPRESENTATION('Curve 2',(#336),#565);
#332=SHAPE_REPRESENTATION('Part 1',(#337),#566);
#333=AXIS2_PLACEMENT_3D('',#428,#358,#359);
#334=AXIS2_PLACEMENT_3D('',#433,#360,#361);
#335=AXIS2_PLACEMENT_3D('',#438,#362,#363);
#336=AXIS2_PLACEMENT_3D('',#443,#364,#365);
#337=AXIS2_PLACEMENT_3D('',#448,#366,#367);
#338=AXIS2_PLACEMENT_3D('',#449,#368,#369);
#339=AXIS2_PLACEMENT_3D('',#458,#374,#375);
#340=AXIS2_PLACEMENT_3D('',#459,#376,#377);
#341=AXIS2_PLACEMENT_3D('',#463,#379,#380);
#342=AXIS2_PLACEMENT_3D('',#464,#381,#382);
#343=AXIS2_PLACEMENT_3D('',#470,#386,#387);
#344=AXIS2_PLACEMENT_3D('',#471,#388,#389);
#345=AXIS2_PLACEMENT_3D('',#473,#390,#391);
#346=AXIS2_PLACEMENT_3D('',#475,#392,#393);
#347=AXIS2_PLACEMENT_3D('',#477,#395,#396);
#348=AXIS2_PLACEMENT_3D('',#535,#402,#403);
#349=AXIS2_PLACEMENT_3D('',#541,#407,#408);
#350=AXIS2_PLACEMENT_3D('',#542,#409,#410);
#351=AXIS2_PLACEMENT_3D('',#544,#411,#412);
#352=AXIS2_PLACEMENT_3D('',#547,#414,#415);
#353=AXIS2_PLACEMENT_3D('',#550,#418,#419);
#354=AXIS2_PLACEMENT_3D('',#551,#420,#421);
#355=AXIS2_PLACEMENT_3D('',#553,#422,#423);
#356=AXIS2_PLACEMENT_3D('',#555,#424,#425);
#357=AXIS2_PLACEMENT_3D('',#556,#426,#427);
#358=DIRECTION('',(0.,0.,1.));
#359=DIRECTION('',(1.,0.,0.));
#360=DIRECTION('',(0.,0.,1.));
#361=DIRECTION('',(1.,0.,0.));
#362=DIRECTION('',(0.,0.,1.));
#363=DIRECTION('',(1.,0.,0.));
#364=DIRECTION('',(0.,0.,1.));
#365=DIRECTION('',(1.,0.,0.));
#366=DIRECTION('',(0.,0.,1.));
#367=DIRECTION('',(1.,0.,0.));
#368=DIRECTION('',(0.,1.,0.));
#369=DIRECTION('',(0.,0.,1.));
#370=DIRECTION('',(1.,0.,0.));
#371=DIRECTION('',(0.,0.,-1.));
#372=DIRECTION('',(1.,0.,0.));
#373=DIRECTION('',(0.,0.,-1.));
#374=DIRECTION('',(0.,0.,-1.));
#375=DIRECTION('',(-1.,0.,0.));
#376=DIRECTION('',(0.,0.,-1.));
#377=DIRECTION('',(1.,0.,0.));
#378=DIRECTION('',(0.,0.,-1.));
#379=DIRECTION('',(0.,0.,-1.));
#380=DIRECTION('',(1.,0.,0.));
#381=DIRECTION('',(1.44560289664734E-16,-1.,0.));
#382=DIRECTION('',(1.,1.44560289664734E-16,0.));
#383=DIRECTION('',(-1.,-1.44560289664734E-16,0.));
#384=DIRECTION('',(0.,0.,-1.));
#385=DIRECTION('',(-1.,-1.44560289664734E-16,0.));
#386=DIRECTION('',(0.,0.,-1.));
#387=DIRECTION('',(-1.,0.,0.));
#388=DIRECTION('',(0.,0.,1.));
#389=DIRECTION('',(1.,0.,0.));
#390=DIRECTION('',(0.,0.,1.));
#391=DIRECTION('',(1.,0.,0.));
#392=DIRECTION('',(0.,0.,1.));
#393=DIRECTION('',(1.,0.,0.));
#394=DIRECTION('',(1.38777878078145E-16,-1.,0.));
#395=DIRECTION('',(0.,0.,1.));
#396=DIRECTION('',(1.,0.,0.));
#397=DIRECTION('',(1.38777878078145E-16,-1.,0.));
#398=DIRECTION('',(-1.38777878078145E-16,-6.12323399573677E-17,1.));
#399=DIRECTION('',(0.,-1.,-6.12323399573677E-17));
#400=DIRECTION('',(-1.38777878078145E-16,-6.12323399573677E-17,1.));
#401=DIRECTION('',(0.,-1.,-6.12323399573677E-17));
#402=DIRECTION('',(0.,6.12323399573677E-17,-1.));
#403=DIRECTION('',(0.,1.,6.12323399573677E-17));
#404=DIRECTION('',(-1.,0.,0.));
#405=DIRECTION('',(-1.,0.,0.));
#406=DIRECTION('',(0.,-1.,-6.12323399573677E-17));
#407=DIRECTION('',(0.,-1.,-6.12323399573677E-17));
#408=DIRECTION('',(1.,0.,0.));
#409=DIRECTION('',(0.,1.,6.12323399573677E-17));
#410=DIRECTION('',(-1.,0.,0.));
#411=DIRECTION('',(0.,1.,6.12323399573677E-17));
#412=DIRECTION('',(-1.,0.,0.));
#413=DIRECTION('',(0.,-1.,-6.12323399573677E-17));
#414=DIRECTION('',(-1.44560289664734E-16,-6.12323399573677E-17,1.));
#415=DIRECTION('',(-1.,8.85176480108653E-33,-1.44560289664734E-16));
#416=DIRECTION('',(1.,-8.85176480108653E-33,1.44560289664734E-16));
#417=DIRECTION('',(1.,-8.85176480108653E-33,1.44560289664734E-16));
#418=DIRECTION('',(0.,-1.,-6.12323399573677E-17));
#419=DIRECTION('',(1.,0.,0.));
#420=DIRECTION('',(0.,-1.,-6.12323399573677E-17));
#421=DIRECTION('',(-1.,0.,0.));
#422=DIRECTION('',(0.,-1.,-6.12323399573677E-17));
#423=DIRECTION('',(-1.,0.,0.));
#424=DIRECTION('',(0.,1.,6.12323399573677E-17));
#425=DIRECTION('',(-1.,0.,0.));
#426=DIRECTION('',(0.,1.,6.12323399573677E-17));
#427=DIRECTION('',(-1.,0.,0.));
#428=CARTESIAN_POINT('',(0.,0.,0.));
#429=CARTESIAN_POINT('',(-0.03,0.025,-0.006));
#430=CARTESIAN_POINT('',(-0.00322868875522564,0.025,-0.006));
#431=CARTESIAN_POINT('',(0.00322868875522564,-0.006,-0.025));
#432=CARTESIAN_POINT('',(0.03,-0.006,-0.025));
#433=CARTESIAN_POINT('',(0.,0.,0.));
#434=CARTESIAN_POINT('',(-0.03,0.025,0.006));
#435=CARTESIAN_POINT('',(-0.00322868875522564,0.025,0.006));
#436=CARTESIAN_POINT('',(0.00322868875522564,0.006,-0.025));
#437=CARTESIAN_POINT('',(0.03,0.006,-0.025));
#438=CARTESIAN_POINT('',(0.,0.,0.));
#439=CARTESIAN_POINT('',(-0.03,-0.025,0.006));
#440=CARTESIAN_POINT('',(-0.00322868875522564,-0.025,0.006));
#441=CARTESIAN_POINT('',(0.00322868875522564,0.006,0.025));
#442=CARTESIAN_POINT('',(0.03,0.006,0.025));
#443=CARTESIAN_POINT('',(0.,0.,0.));
#444=CARTESIAN_POINT('',(-0.03,-0.025,-0.006));
#445=CARTESIAN_POINT('',(-0.00322868875522564,-0.025,-0.006));
#446=CARTESIAN_POINT('',(0.00322868875522564,-0.006,0.025));
#447=CARTESIAN_POINT('',(0.03,-0.006,0.025));
#448=CARTESIAN_POINT('',(0.,0.,0.));
#449=CARTESIAN_POINT('',(-0.042,0.025,0.006));
#450=CARTESIAN_POINT('',(-0.042,0.025,-0.006));
#451=CARTESIAN_POINT('',(-0.054,0.025,-0.006));
#452=CARTESIAN_POINT('',(-0.03,0.025,-0.006));
#453=CARTESIAN_POINT('',(-0.054,0.025,0.006));
#454=CARTESIAN_POINT('',(-0.054,0.025,0.006));
#455=CARTESIAN_POINT('',(-0.042,0.025,0.006));
#456=CARTESIAN_POINT('',(-0.03,0.025,0.006));
#457=CARTESIAN_POINT('',(-0.03,0.025,0.006));
#458=CARTESIAN_POINT('',(-0.054,-3.46944695195361E-18,0.006));
#459=CARTESIAN_POINT('',(-0.054,-3.46944695195361E-18,-0.006));
#460=CARTESIAN_POINT('',(-0.054,-0.025,-0.006));
#461=CARTESIAN_POINT('',(-0.054,-0.025,0.006));
#462=CARTESIAN_POINT('',(-0.054,-0.025,0.006));
#463=CARTESIAN_POINT('',(-0.054,-3.46944695195361E-18,0.006));
#464=CARTESIAN_POINT('',(-0.042,-0.025,0.006));
#465=CARTESIAN_POINT('',(-0.042,-0.025,-0.006));
#466=CARTESIAN_POINT('',(-0.03,-0.025,-0.006));
#467=CARTESIAN_POINT('',(-0.03,-0.025,0.006));
#468=CARTESIAN_POINT('',(-0.03,-0.025,0.006));
#469=CARTESIAN_POINT('',(-0.042,-0.025,0.006));
#470=CARTESIAN_POINT('',(-0.054,-4.00333244196729E-18,0.006));
#471=CARTESIAN_POINT('',(-0.054,-4.00333244196729E-18,0.006));
#472=CARTESIAN_POINT('',(-0.045,-4.00333244196729E-18,0.006));
#473=CARTESIAN_POINT('',(-0.054,-4.00333244196729E-18,-0.006));
#474=CARTESIAN_POINT('',(-0.045,-4.00333244196729E-18,-0.006));
#475=CARTESIAN_POINT('',(-0.0395,0.,0.006));
#476=CARTESIAN_POINT('',(-0.03,3.46944695195361E-18,0.006));
#477=CARTESIAN_POINT('',(-0.0395,0.,-0.006));
#478=CARTESIAN_POINT('',(-0.03,3.46944695195361E-18,-0.006));
#479=CARTESIAN_POINT('',(-0.03,0.025,0.006));
#480=CARTESIAN_POINT('',(-0.03,-0.025,0.006));
#481=CARTESIAN_POINT('',(-0.00322868875522562,0.025,0.006));
#482=CARTESIAN_POINT('',(-0.00322868875522564,-0.025,0.006));
#483=CARTESIAN_POINT('',(0.00322868875522562,0.006,-0.025));
#484=CARTESIAN_POINT('',(0.00322868875522565,0.006,0.025));
#485=CARTESIAN_POINT('',(0.03,0.006,-0.025));
#486=CARTESIAN_POINT('',(0.03,0.006,0.025));
#487=CARTESIAN_POINT('',(0.03,0.006,-3.10205291220941E-18));
#488=CARTESIAN_POINT('',(0.03,0.006,-0.025));
#489=CARTESIAN_POINT('',(0.03,0.006,0.025));
#490=CARTESIAN_POINT('',(-0.03,0.025,0.006));
#491=CARTESIAN_POINT('',(-0.00322868875522564,0.025,0.006));
#492=CARTESIAN_POINT('',(0.00322868875522564,0.006,-0.025));
#493=CARTESIAN_POINT('',(0.03,0.006,-0.025));
#494=CARTESIAN_POINT('',(-0.03,-0.025,0.006));
#495=CARTESIAN_POINT('',(-0.00322868875522564,-0.025,0.006));
#496=CARTESIAN_POINT('',(0.00322868875522564,0.006,0.025));
#497=CARTESIAN_POINT('',(0.03,0.006,0.025));
#498=CARTESIAN_POINT('',(-0.03,-0.025,0.006));
#499=CARTESIAN_POINT('',(-0.03,-0.025,-0.006));
#500=CARTESIAN_POINT('',(-0.00322868875522564,-0.025,0.006));
#501=CARTESIAN_POINT('',(-0.00322868875522565,-0.025,-0.006));
#502=CARTESIAN_POINT('',(0.00322868875522565,0.006,0.025));
#503=CARTESIAN_POINT('',(0.00322868875522565,-0.006,0.025));
#504=CARTESIAN_POINT('',(0.03,0.006,0.025));
#505=CARTESIAN_POINT('',(0.03,-0.006,0.025));
#506=CARTESIAN_POINT('',(0.03,0.006,0.025));
#507=CARTESIAN_POINT('',(0.03,-0.006,0.025));
#508=CARTESIAN_POINT('',(-0.03,-0.025,-0.006));
#509=CARTESIAN_POINT('',(-0.00322868875522564,-0.025,-0.006));
#510=CARTESIAN_POINT('',(0.00322868875522564,-0.006,0.025));
#511=CARTESIAN_POINT('',(0.03,-0.006,0.025));
#512=CARTESIAN_POINT('',(-0.03,0.025,-0.006));
#513=CARTESIAN_POINT('',(-0.03,-0.025,-0.006));
#514=CARTESIAN_POINT('',(-0.00322868875522562,0.025,-0.006));
#515=CARTESIAN_POINT('',(-0.00322868875522565,-0.025,-0.006));
#516=CARTESIAN_POINT('',(0.00322868875522562,-0.006,-0.025));
#517=CARTESIAN_POINT('',(0.00322868875522565,-0.006,0.025));
#518=CARTESIAN_POINT('',(0.03,-0.006,-0.025));
#519=CARTESIAN_POINT('',(0.03,-0.006,0.025));
#520=CARTESIAN_POINT('',(0.03,-0.006,-3.83684099169782E-18));
#521=CARTESIAN_POINT('',(0.03,-0.006,-0.025));
#522=CARTESIAN_POINT('',(-0.03,0.025,-0.006));
#523=CARTESIAN_POINT('',(-0.00322868875522564,0.025,-0.006));
#524=CARTESIAN_POINT('',(0.00322868875522564,-0.006,-0.025));
#525=CARTESIAN_POINT('',(0.03,-0.006,-0.025));
#526=CARTESIAN_POINT('',(-0.03,0.025,0.006));
#527=CARTESIAN_POINT('',(-0.03,0.025,-0.006));
#528=CARTESIAN_POINT('',(-0.00322868875522562,0.025,0.006));
#529=CARTESIAN_POINT('',(-0.00322868875522562,0.025,-0.006));
#530=CARTESIAN_POINT('',(0.00322868875522562,0.006,-0.025));
#531=CARTESIAN_POINT('',(0.00322868875522562,-0.006,-0.025));
#532=CARTESIAN_POINT('',(0.03,0.006,-0.025));
#533=CARTESIAN_POINT('',(0.03,-0.006,-0.025));
#534=CARTESIAN_POINT('',(0.03,0.006,-0.025));
#535=CARTESIAN_POINT('',(0.042,0.006,-0.025));
#536=CARTESIAN_POINT('',(0.042,-0.006,-0.025));
#537=CARTESIAN_POINT('',(0.054,-0.006,-0.025));
#538=CARTESIAN_POINT('',(0.042,0.006,-0.025));
#539=CARTESIAN_POINT('',(0.054,0.006,-0.025));
#540=CARTESIAN_POINT('',(0.054,0.006,-0.025));
#541=CARTESIAN_POINT('',(0.054,0.006,3.83684099169782E-18));
#542=CARTESIAN_POINT('',(0.054,-0.006,3.10205291220941E-18));
#543=CARTESIAN_POINT('',(0.054,-0.006,0.025));
#544=CARTESIAN_POINT('',(0.054,0.006,3.83684099169782E-18));
#545=CARTESIAN_POINT('',(0.054,0.006,0.025));
#546=CARTESIAN_POINT('',(0.054,0.006,0.025));
#547=CARTESIAN_POINT('',(0.042,0.006,0.025));
#548=CARTESIAN_POINT('',(0.042,-0.006,0.025));
#549=CARTESIAN_POINT('',(0.042,0.006,0.025));
#550=CARTESIAN_POINT('',(0.054,0.006,4.3707264817115E-18));
#551=CARTESIAN_POINT('',(0.054,0.006,4.3707264817115E-18));
#552=CARTESIAN_POINT('',(0.045,0.006,4.3707264817115E-18));
#553=CARTESIAN_POINT('',(0.054,-0.006,3.63593840222309E-18));
#554=CARTESIAN_POINT('',(0.045,-0.006,3.63593840222309E-18));
#555=CARTESIAN_POINT('',(0.0395,0.006,3.67394039744206E-19));
#556=CARTESIAN_POINT('',(0.0395,-0.006,-3.67394039744206E-19));
#557=MECHANICAL_DESIGN_GEOMETRIC_PRESENTATION_REPRESENTATION('',(#268,#269),
#562);
#558=MECHANICAL_DESIGN_GEOMETRIC_PRESENTATION_REPRESENTATION('',(#270,#271),
#563);
#559=MECHANICAL_DESIGN_GEOMETRIC_PRESENTATION_REPRESENTATION('',(#272,#273),
#564);
#560=MECHANICAL_DESIGN_GEOMETRIC_PRESENTATION_REPRESENTATION('',(#274,#275),
#565);
#561=MECHANICAL_DESIGN_GEOMETRIC_PRESENTATION_REPRESENTATION('',(#276),
#566);
#562=(
GEOMETRIC_REPRESENTATION_CONTEXT(3)
GLOBAL_UNCERTAINTY_ASSIGNED_CONTEXT((#567))
GLOBAL_UNIT_ASSIGNED_CONTEXT((#582,#577,#572))
REPRESENTATION_CONTEXT('Curve 3','TOP_LEVEL_ASSEMBLY_PART')
);
#563=(
GEOMETRIC_REPRESENTATION_CONTEXT(3)
GLOBAL_UNCERTAINTY_ASSIGNED_CONTEXT((#568))
GLOBAL_UNIT_ASSIGNED_CONTEXT((#583,#578,#573))
REPRESENTATION_CONTEXT('Curve 4','TOP_LEVEL_ASSEMBLY_PART')
);
#564=(
GEOMETRIC_REPRESENTATION_CONTEXT(3)
GLOBAL_UNCERTAINTY_ASSIGNED_CONTEXT((#569))
GLOBAL_UNIT_ASSIGNED_CONTEXT((#584,#579,#574))
REPRESENTATION_CONTEXT('Curve 1','TOP_LEVEL_ASSEMBLY_PART')
);
#565=(
GEOMETRIC_REPRESENTATION_CONTEXT(3)
GLOBAL_UNCERTAINTY_ASSIGNED_CONTEXT((#570))
GLOBAL_UNIT_ASSIGNED_CONTEXT((#585,#580,#575))
REPRESENTATION_CONTEXT('Curve 2','TOP_LEVEL_ASSEMBLY_PART')
);
#566=(
GEOMETRIC_REPRESENTATION_CONTEXT(3)
GLOBAL_UNCERTAINTY_ASSIGNED_CONTEXT((#571))
GLOBAL_UNIT_ASSIGNED_CONTEXT((#586,#581,#576))
REPRESENTATION_CONTEXT('Part 1','TOP_LEVEL_ASSEMBLY_PART')
);
#567=UNCERTAINTY_MEASURE_WITH_UNIT(LENGTH_MEASURE(1.E-8),#582,
'DISTANCE_ACCURACY_VALUE','Maximum Tolerance applied to model');
#568=UNCERTAINTY_MEASURE_WITH_UNIT(LENGTH_MEASURE(1.E-8),#583,
'DISTANCE_ACCURACY_VALUE','Maximum Tolerance applied to model');
#569=UNCERTAINTY_MEASURE_WITH_UNIT(LENGTH_MEASURE(1.E-8),#584,
'DISTANCE_ACCURACY_VALUE','Maximum Tolerance applied to model');
#570=UNCERTAINTY_MEASURE_WITH_UNIT(LENGTH_MEASURE(1.E-8),#585,
'DISTANCE_ACCURACY_VALUE','Maximum Tolerance applied to model');
#571=UNCERTAINTY_MEASURE_WITH_UNIT(LENGTH_MEASURE(1.E-6),#586,
'DISTANCE_ACCURACY_VALUE','Maximum Tolerance applied to model');
#572=(
NAMED_UNIT(*)
SI_UNIT($,.STERADIAN.)
SOLID_ANGLE_UNIT()
);
#573=(
NAMED_UNIT(*)
SI_UNIT($,.STERADIAN.)
SOLID_ANGLE_UNIT()
);
#574=(
NAMED_UNIT(*)
SI_UNIT($,.STERADIAN.)
SOLID_ANGLE_UNIT()
);
#575=(
NAMED_UNIT(*)
SI_UNIT($,.STERADIAN.)
SOLID_ANGLE_UNIT()
);
#576=(
NAMED_UNIT(*)
SI_UNIT($,.STERADIAN.)
SOLID_ANGLE_UNIT()
);
#577=(
NAMED_UNIT(*)
PLANE_ANGLE_UNIT()
SI_UNIT($,.RADIAN.)
);
#578=(
NAMED_UNIT(*)
PLANE_ANGLE_UNIT()
SI_UNIT($,.RADIAN.)
);
#579=(
NAMED_UNIT(*)
PLANE_ANGLE_UNIT()
SI_UNIT($,.RADIAN.)
);
#580=(
NAMED_UNIT(*)
PLANE_ANGLE_UNIT()
SI_UNIT($,.RADIAN.)
);
#581=(
NAMED_UNIT(*)
PLANE_ANGLE_UNIT()
SI_UNIT($,.RADIAN.)
);
#582=(
LENGTH_UNIT()
NAMED_UNIT(*)
SI_UNIT($,.METRE.)
);
#583=(
LENGTH_UNIT()
NAMED_UNIT(*)
SI_UNIT($,.METRE.)
);
#584=(
LENGTH_UNIT()
NAMED_UNIT(*)
SI_UNIT($,.METRE.)
);
#585=(
LENGTH_UNIT()
NAMED_UNIT(*)
SI_UNIT($,.METRE.)
);
#586=(
LENGTH_UNIT()
NAMED_UNIT(*)
SI_UNIT($,.METRE.)
);
#587=PRODUCT_DEFINITION_SHAPE('','',#592);
#588=PRODUCT_DEFINITION_SHAPE('','',#593);
#589=PRODUCT_DEFINITION_SHAPE('','',#594);
#590=PRODUCT_DEFINITION_SHAPE('','',#595);
#591=PRODUCT_DEFINITION_SHAPE('','',#596);
#592=PRODUCT_DEFINITION('','',#602,#597);
#593=PRODUCT_DEFINITION('','',#603,#598);
#594=PRODUCT_DEFINITION('','',#604,#599);
#595=PRODUCT_DEFINITION('','',#605,#600);
#596=PRODUCT_DEFINITION('','',#606,#601);
#597=PRODUCT_DEFINITION_CONTEXT('',#632,'design');
#598=PRODUCT_DEFINITION_CONTEXT('',#633,'design');
#599=PRODUCT_DEFINITION_CONTEXT('',#634,'design');
#600=PRODUCT_DEFINITION_CONTEXT('',#635,'design');
#601=PRODUCT_DEFINITION_CONTEXT('',#636,'design');
#602=PRODUCT_DEFINITION_FORMATION_WITH_SPECIFIED_SOURCE('','',#612,
 .NOT_KNOWN.);
#603=PRODUCT_DEFINITION_FORMATION_WITH_SPECIFIED_SOURCE('','',#613,
 .NOT_KNOWN.);
#604=PRODUCT_DEFINITION_FORMATION_WITH_SPECIFIED_SOURCE('','',#614,
 .NOT_KNOWN.);
#605=PRODUCT_DEFINITION_FORMATION_WITH_SPECIFIED_SOURCE('','',#615,
 .NOT_KNOWN.);
#606=PRODUCT_DEFINITION_FORMATION_WITH_SPECIFIED_SOURCE('','',#616,
 .NOT_KNOWN.);
#607=PRODUCT_RELATED_PRODUCT_CATEGORY('','',(#612));
#608=PRODUCT_RELATED_PRODUCT_CATEGORY('','',(#613));
#609=PRODUCT_RELATED_PRODUCT_CATEGORY('','',(#614));
#610=PRODUCT_RELATED_PRODUCT_CATEGORY('','',(#615));
#611=PRODUCT_RELATED_PRODUCT_CATEGORY('','',(#616));
#612=PRODUCT('Curve 3','Curve 3','Curve 3',(#622));
#613=PRODUCT('Curve 4','Curve 4','Curve 4',(#623));
#614=PRODUCT('Curve 1','Curve 1','Curve 1',(#624));
#615=PRODUCT('Curve 2','Curve 2','Curve 2',(#625));
#616=PRODUCT('Part 1','Part 1','Part 1',(#626));
#617=PRODUCT_CATEGORY('','');
#618=PRODUCT_CATEGORY('','');
#619=PRODUCT_CATEGORY('','');
#620=PRODUCT_CATEGORY('','');
#621=PRODUCT_CATEGORY('','');
#622=PRODUCT_CONTEXT('',#632,'mechanical');
#623=PRODUCT_CONTEXT('',#633,'mechanical');
#624=PRODUCT_CONTEXT('',#634,'mechanical');
#625=PRODUCT_CONTEXT('',#635,'mechanical');
#626=PRODUCT_CONTEXT('',#636,'mechanical');
#627=APPLICATION_PROTOCOL_DEFINITION('international standard',
'ap242_managed_model_based_3d_engineering',2020,#632);
#628=APPLICATION_PROTOCOL_DEFINITION('international standard',
'ap242_managed_model_based_3d_engineering',2020,#633);
#629=APPLICATION_PROTOCOL_DEFINITION('international standard',
'ap242_managed_model_based_3d_engineering',2020,#634);
#630=APPLICATION_PROTOCOL_DEFINITION('international standard',
'ap242_managed_model_based_3d_engineering',2020,#635);
#631=APPLICATION_PROTOCOL_DEFINITION('international standard',
'ap242_managed_model_based_3d_engineering',2020,#636);
#632=APPLICATION_CONTEXT('managed model based 3d engineering');
#633=APPLICATION_CONTEXT('managed model based 3d engineering');
#634=APPLICATION_CONTEXT('managed model based 3d engineering');
#635=APPLICATION_CONTEXT('managed model based 3d engineering');
#636=APPLICATION_CONTEXT('managed model based 3d engineering');
ENDSEC;
END-ISO-10303-21;
