ISO-10303-21;
HEADER;
/* Generated by software containing ST-Developer
 * from STEP Tools, Inc. (www.steptools.com) 
 */
/* OPTION: using custom renumber hook */

FILE_DESCRIPTION(
/* description */ ('STEP AP242 Edition 2',
'CAx-IF Rec.Pracs.---Representation and Presentation of Product Manufa
cturing Information (PMI)---4.0---2014-10-13',
'CAx-IF Rec.Pracs.---3D Tessellated Geometry---0.4---2014-09-14','2;1',
'CAx-IF Rec.Pracs.---User Defined Attributes---1.5---2016-08-15'),
/* implementation_level */ '2;1');

FILE_NAME(
/* name */ 'Part Studio 1',
/* time_stamp */ '2026-08-05T02:15:27Z',
/* author */ (''),
/* organization */ (''),
/* preprocessor_version */ 'ST-DEVELOPER v20',
/* originating_system */ 'ONSHAPE BY PTC INC, 1.218',
/* authorisation */ '  ');

FILE_SCHEMA (('AP242_MANAGED_MODEL_BASED_3D_ENGINEERING_MIM_LF { 1 0 10303 442 3 1 4 }'));
ENDSEC;

DATA;
#10=SHAPE_REPRESENTATION_RELATIONSHIP('','',#712,#11);
#11=ADVANCED_BREP_SHAPE_REPRESENTATION('',(#710),#1195);
#12=ELLIPSE('',#783,0.00282842712474619,0.002);
#13=ELLIPSE('',#784,0.00282842712474619,0.002);
#14=ELLIPSE('',#786,0.00282842712474619,0.002);
#15=ELLIPSE('',#788,0.00282842712474619,0.002);
#16=VERTEX_LOOP('',#395);
#17=CONICAL_SURFACE('',#769,0.011,1.02974425867665);
#18=CONICAL_SURFACE('',#780,0.0165,0.785398163397448);
#19=CONICAL_SURFACE('',#781,0.0325,0.785398163397448);
#20=CYLINDRICAL_SURFACE('',#741,0.018);
#21=CYLINDRICAL_SURFACE('',#746,0.0225);
#22=CYLINDRICAL_SURFACE('',#750,0.0275);
#23=CYLINDRICAL_SURFACE('',#754,0.0325);
#24=CYLINDRICAL_SURFACE('',#757,0.008);
#25=CYLINDRICAL_SURFACE('',#763,0.008);
#26=CYLINDRICAL_SURFACE('',#764,0.008);
#27=CYLINDRICAL_SURFACE('',#767,0.008);
#28=CYLINDRICAL_SURFACE('',#768,0.008);
#29=CYLINDRICAL_SURFACE('',#771,0.011);
#30=CYLINDRICAL_SURFACE('',#772,0.0042);
#31=CYLINDRICAL_SURFACE('',#773,0.0042);
#32=CYLINDRICAL_SURFACE('',#774,0.0042);
#33=CYLINDRICAL_SURFACE('',#775,0.0042);
#34=CYLINDRICAL_SURFACE('',#782,0.002);
#35=CYLINDRICAL_SURFACE('',#785,0.002);
#36=CYLINDRICAL_SURFACE('',#787,0.002);
#37=CYLINDRICAL_SURFACE('',#789,0.002);
#38=CIRCLE('',#717,0.0042);
#39=CIRCLE('',#718,0.0042);
#40=CIRCLE('',#719,0.008);
#41=CIRCLE('',#720,0.008);
#42=CIRCLE('',#722,0.0042);
#43=CIRCLE('',#723,0.0042);
#44=CIRCLE('',#724,0.008);
#45=CIRCLE('',#725,0.008);
#46=CIRCLE('',#727,0.0042);
#47=CIRCLE('',#728,0.0042);
#48=CIRCLE('',#729,0.008);
#49=CIRCLE('',#730,0.008);
#50=CIRCLE('',#732,0.0042);
#51=CIRCLE('',#733,0.0042);
#52=CIRCLE('',#734,0.008);
#53=CIRCLE('',#735,0.008);
#54=CIRCLE('',#737,0.0305);
#55=CIRCLE('',#739,0.0165);
#56=CIRCLE('',#740,0.011);
#57=CIRCLE('',#742,0.018);
#58=CIRCLE('',#743,0.018);
#59=CIRCLE('',#745,0.0225);
#60=CIRCLE('',#747,0.0225);
#61=CIRCLE('',#749,0.0275);
#62=CIRCLE('',#751,0.0275);
#63=CIRCLE('',#753,0.0325);
#64=CIRCLE('',#755,0.0325);
#65=CIRCLE('',#758,0.008);
#66=CIRCLE('',#759,0.008);
#67=CIRCLE('',#770,0.011);
#68=ORIENTED_EDGE('',*,*,#244,.T.);
#69=ORIENTED_EDGE('',*,*,#245,.T.);
#70=ORIENTED_EDGE('',*,*,#246,.F.);
#71=ORIENTED_EDGE('',*,*,#247,.T.);
#72=ORIENTED_EDGE('',*,*,#248,.F.);
#73=ORIENTED_EDGE('',*,*,#249,.T.);
#74=ORIENTED_EDGE('',*,*,#250,.T.);
#75=ORIENTED_EDGE('',*,*,#251,.F.);
#76=ORIENTED_EDGE('',*,*,#252,.T.);
#77=ORIENTED_EDGE('',*,*,#253,.T.);
#78=ORIENTED_EDGE('',*,*,#254,.T.);
#79=ORIENTED_EDGE('',*,*,#255,.T.);
#80=ORIENTED_EDGE('',*,*,#256,.F.);
#81=ORIENTED_EDGE('',*,*,#257,.T.);
#82=ORIENTED_EDGE('',*,*,#244,.F.);
#83=ORIENTED_EDGE('',*,*,#258,.F.);
#84=ORIENTED_EDGE('',*,*,#259,.T.);
#85=ORIENTED_EDGE('',*,*,#260,.T.);
#86=ORIENTED_EDGE('',*,*,#261,.F.);
#87=ORIENTED_EDGE('',*,*,#262,.T.);
#88=ORIENTED_EDGE('',*,*,#263,.T.);
#89=ORIENTED_EDGE('',*,*,#264,.T.);
#90=ORIENTED_EDGE('',*,*,#265,.T.);
#91=ORIENTED_EDGE('',*,*,#266,.T.);
#92=ORIENTED_EDGE('',*,*,#267,.T.);
#93=ORIENTED_EDGE('',*,*,#268,.T.);
#94=ORIENTED_EDGE('',*,*,#269,.T.);
#95=ORIENTED_EDGE('',*,*,#270,.F.);
#96=ORIENTED_EDGE('',*,*,#246,.T.);
#97=ORIENTED_EDGE('',*,*,#271,.T.);
#98=ORIENTED_EDGE('',*,*,#272,.F.);
#99=ORIENTED_EDGE('',*,*,#273,.F.);
#100=ORIENTED_EDGE('',*,*,#274,.F.);
#101=ORIENTED_EDGE('',*,*,#275,.F.);
#102=ORIENTED_EDGE('',*,*,#250,.F.);
#103=ORIENTED_EDGE('',*,*,#276,.T.);
#104=ORIENTED_EDGE('',*,*,#277,.F.);
#105=ORIENTED_EDGE('',*,*,#278,.T.);
#106=ORIENTED_EDGE('',*,*,#279,.T.);
#107=ORIENTED_EDGE('',*,*,#280,.T.);
#108=ORIENTED_EDGE('',*,*,#281,.F.);
#109=ORIENTED_EDGE('',*,*,#282,.T.);
#110=ORIENTED_EDGE('',*,*,#283,.F.);
#111=ORIENTED_EDGE('',*,*,#284,.F.);
#112=ORIENTED_EDGE('',*,*,#285,.F.);
#113=ORIENTED_EDGE('',*,*,#286,.F.);
#114=ORIENTED_EDGE('',*,*,#287,.T.);
#115=ORIENTED_EDGE('',*,*,#288,.T.);
#116=ORIENTED_EDGE('',*,*,#289,.F.);
#117=ORIENTED_EDGE('',*,*,#290,.T.);
#118=ORIENTED_EDGE('',*,*,#248,.T.);
#119=ORIENTED_EDGE('',*,*,#291,.F.);
#120=ORIENTED_EDGE('',*,*,#292,.F.);
#121=ORIENTED_EDGE('',*,*,#293,.T.);
#122=ORIENTED_EDGE('',*,*,#294,.T.);
#123=ORIENTED_EDGE('',*,*,#295,.T.);
#124=ORIENTED_EDGE('',*,*,#296,.T.);
#125=ORIENTED_EDGE('',*,*,#297,.T.);
#126=ORIENTED_EDGE('',*,*,#298,.T.);
#127=ORIENTED_EDGE('',*,*,#299,.T.);
#128=ORIENTED_EDGE('',*,*,#300,.T.);
#129=ORIENTED_EDGE('',*,*,#301,.T.);
#130=ORIENTED_EDGE('',*,*,#302,.T.);
#131=ORIENTED_EDGE('',*,*,#303,.T.);
#132=ORIENTED_EDGE('',*,*,#304,.T.);
#133=ORIENTED_EDGE('',*,*,#305,.T.);
#134=ORIENTED_EDGE('',*,*,#304,.F.);
#135=ORIENTED_EDGE('',*,*,#306,.T.);
#136=ORIENTED_EDGE('',*,*,#305,.F.);
#137=ORIENTED_EDGE('',*,*,#307,.T.);
#138=ORIENTED_EDGE('',*,*,#306,.F.);
#139=ORIENTED_EDGE('',*,*,#308,.T.);
#140=ORIENTED_EDGE('',*,*,#307,.F.);
#141=ORIENTED_EDGE('',*,*,#309,.T.);
#142=ORIENTED_EDGE('',*,*,#308,.F.);
#143=ORIENTED_EDGE('',*,*,#310,.T.);
#144=ORIENTED_EDGE('',*,*,#309,.F.);
#145=ORIENTED_EDGE('',*,*,#267,.F.);
#146=ORIENTED_EDGE('',*,*,#311,.T.);
#147=ORIENTED_EDGE('',*,*,#261,.T.);
#148=ORIENTED_EDGE('',*,*,#312,.F.);
#149=ORIENTED_EDGE('',*,*,#313,.F.);
#150=ORIENTED_EDGE('',*,*,#278,.F.);
#151=ORIENTED_EDGE('',*,*,#314,.T.);
#152=ORIENTED_EDGE('',*,*,#273,.T.);
#153=ORIENTED_EDGE('',*,*,#281,.T.);
#154=ORIENTED_EDGE('',*,*,#315,.T.);
#155=ORIENTED_EDGE('',*,*,#294,.F.);
#156=ORIENTED_EDGE('',*,*,#316,.T.);
#157=ORIENTED_EDGE('',*,*,#289,.T.);
#158=ORIENTED_EDGE('',*,*,#317,.T.);
#159=ORIENTED_EDGE('',*,*,#254,.F.);
#160=ORIENTED_EDGE('',*,*,#318,.T.);
#161=ORIENTED_EDGE('',*,*,#265,.F.);
#162=ORIENTED_EDGE('',*,*,#314,.F.);
#163=ORIENTED_EDGE('',*,*,#277,.T.);
#164=ORIENTED_EDGE('',*,*,#319,.T.);
#165=ORIENTED_EDGE('',*,*,#256,.T.);
#166=ORIENTED_EDGE('',*,*,#320,.T.);
#167=ORIENTED_EDGE('',*,*,#287,.F.);
#168=ORIENTED_EDGE('',*,*,#321,.T.);
#169=ORIENTED_EDGE('',*,*,#279,.F.);
#170=ORIENTED_EDGE('',*,*,#313,.T.);
#171=ORIENTED_EDGE('',*,*,#272,.T.);
#172=ORIENTED_EDGE('',*,*,#322,.T.);
#173=ORIENTED_EDGE('',*,*,#316,.F.);
#174=ORIENTED_EDGE('',*,*,#293,.F.);
#175=ORIENTED_EDGE('',*,*,#323,.T.);
#176=ORIENTED_EDGE('',*,*,#282,.F.);
#177=ORIENTED_EDGE('',*,*,#284,.T.);
#178=ORIENTED_EDGE('',*,*,#324,.F.);
#179=ORIENTED_EDGE('',*,*,#291,.T.);
#180=ORIENTED_EDGE('',*,*,#251,.T.);
#181=ORIENTED_EDGE('',*,*,#283,.T.);
#182=ORIENTED_EDGE('',*,*,#323,.F.);
#183=ORIENTED_EDGE('',*,*,#292,.T.);
#184=ORIENTED_EDGE('',*,*,#324,.T.);
#185=ORIENTED_EDGE('',*,*,#325,.T.);
#186=ORIENTED_EDGE('',*,*,#259,.F.);
#187=ORIENTED_EDGE('',*,*,#326,.F.);
#188=ORIENTED_EDGE('',*,*,#269,.F.);
#189=ORIENTED_EDGE('',*,*,#270,.T.);
#190=ORIENTED_EDGE('',*,*,#326,.T.);
#191=ORIENTED_EDGE('',*,*,#258,.T.);
#192=ORIENTED_EDGE('',*,*,#247,.F.);
#193=ORIENTED_EDGE('',*,*,#312,.T.);
#194=ORIENTED_EDGE('',*,*,#260,.F.);
#195=ORIENTED_EDGE('',*,*,#325,.F.);
#196=ORIENTED_EDGE('',*,*,#268,.F.);
#197=ORIENTED_EDGE('',*,*,#327,.F.);
#198=ORIENTED_EDGE('',*,*,#327,.T.);
#199=ORIENTED_EDGE('',*,*,#302,.F.);
#200=ORIENTED_EDGE('',*,*,#286,.T.);
#201=ORIENTED_EDGE('',*,*,#275,.T.);
#202=ORIENTED_EDGE('',*,*,#285,.T.);
#203=ORIENTED_EDGE('',*,*,#274,.T.);
#204=ORIENTED_EDGE('',*,*,#264,.F.);
#205=ORIENTED_EDGE('',*,*,#253,.F.);
#206=ORIENTED_EDGE('',*,*,#263,.F.);
#207=ORIENTED_EDGE('',*,*,#252,.F.);
#208=ORIENTED_EDGE('',*,*,#276,.F.);
#209=ORIENTED_EDGE('',*,*,#249,.F.);
#210=ORIENTED_EDGE('',*,*,#290,.F.);
#211=ORIENTED_EDGE('',*,*,#319,.F.);
#212=ORIENTED_EDGE('',*,*,#280,.F.);
#213=ORIENTED_EDGE('',*,*,#321,.F.);
#214=ORIENTED_EDGE('',*,*,#295,.F.);
#215=ORIENTED_EDGE('',*,*,#315,.F.);
#216=ORIENTED_EDGE('',*,*,#266,.F.);
#217=ORIENTED_EDGE('',*,*,#318,.F.);
#218=ORIENTED_EDGE('',*,*,#262,.F.);
#219=ORIENTED_EDGE('',*,*,#311,.F.);
#220=ORIENTED_EDGE('',*,*,#271,.F.);
#221=ORIENTED_EDGE('',*,*,#245,.F.);
#222=ORIENTED_EDGE('',*,*,#257,.F.);
#223=ORIENTED_EDGE('',*,*,#322,.F.);
#224=ORIENTED_EDGE('',*,*,#303,.F.);
#225=ORIENTED_EDGE('',*,*,#301,.F.);
#226=ORIENTED_EDGE('',*,*,#300,.F.);
#227=ORIENTED_EDGE('',*,*,#310,.F.);
#228=ORIENTED_EDGE('',*,*,#328,.F.);
#229=ORIENTED_EDGE('',*,*,#299,.F.);
#230=ORIENTED_EDGE('',*,*,#329,.F.);
#231=ORIENTED_EDGE('',*,*,#320,.F.);
#232=ORIENTED_EDGE('',*,*,#329,.T.);
#233=ORIENTED_EDGE('',*,*,#298,.F.);
#234=ORIENTED_EDGE('',*,*,#330,.F.);
#235=ORIENTED_EDGE('',*,*,#288,.F.);
#236=ORIENTED_EDGE('',*,*,#328,.T.);
#237=ORIENTED_EDGE('',*,*,#255,.F.);
#238=ORIENTED_EDGE('',*,*,#331,.F.);
#239=ORIENTED_EDGE('',*,*,#296,.F.);
#240=ORIENTED_EDGE('',*,*,#330,.T.);
#241=ORIENTED_EDGE('',*,*,#297,.F.);
#242=ORIENTED_EDGE('',*,*,#331,.T.);
#243=ORIENTED_EDGE('',*,*,#317,.F.);
#244=EDGE_CURVE('',#332,#333,#397,.T.);
#245=EDGE_CURVE('',#333,#334,#398,.T.);
#246=EDGE_CURVE('',#335,#334,#399,.T.);
#247=EDGE_CURVE('',#335,#332,#400,.T.);
#248=EDGE_CURVE('',#336,#337,#401,.T.);
#249=EDGE_CURVE('',#336,#338,#402,.T.);
#250=EDGE_CURVE('',#338,#339,#403,.T.);
#251=EDGE_CURVE('',#337,#339,#404,.T.);
#252=EDGE_CURVE('',#340,#340,#38,.T.);
#253=EDGE_CURVE('',#341,#341,#39,.T.);
#254=EDGE_CURVE('',#342,#343,#405,.T.);
#255=EDGE_CURVE('',#343,#344,#406,.T.);
#256=EDGE_CURVE('',#345,#344,#407,.T.);
#257=EDGE_CURVE('',#345,#333,#408,.T.);
#258=EDGE_CURVE('',#346,#332,#40,.T.);
#259=EDGE_CURVE('',#346,#347,#409,.T.);
#260=EDGE_CURVE('',#347,#348,#41,.T.);
#261=EDGE_CURVE('',#349,#348,#410,.T.);
#262=EDGE_CURVE('',#349,#342,#411,.F.);
#263=EDGE_CURVE('',#350,#350,#42,.F.);
#264=EDGE_CURVE('',#351,#351,#43,.F.);
#265=EDGE_CURVE('',#352,#353,#412,.T.);
#266=EDGE_CURVE('',#353,#354,#413,.F.);
#267=EDGE_CURVE('',#354,#355,#414,.T.);
#268=EDGE_CURVE('',#355,#356,#44,.F.);
#269=EDGE_CURVE('',#356,#357,#415,.T.);
#270=EDGE_CURVE('',#335,#357,#45,.T.);
#271=EDGE_CURVE('',#334,#358,#416,.T.);
#272=EDGE_CURVE('',#359,#358,#417,.T.);
#273=EDGE_CURVE('',#352,#359,#418,.T.);
#274=EDGE_CURVE('',#360,#360,#46,.F.);
#275=EDGE_CURVE('',#361,#361,#47,.F.);
#276=EDGE_CURVE('',#338,#362,#419,.T.);
#277=EDGE_CURVE('',#363,#362,#420,.T.);
#278=EDGE_CURVE('',#363,#364,#421,.T.);
#279=EDGE_CURVE('',#364,#365,#422,.T.);
#280=EDGE_CURVE('',#365,#366,#423,.F.);
#281=EDGE_CURVE('',#367,#366,#424,.T.);
#282=EDGE_CURVE('',#367,#368,#48,.T.);
#283=EDGE_CURVE('',#369,#368,#425,.T.);
#284=EDGE_CURVE('',#339,#369,#49,.F.);
#285=EDGE_CURVE('',#370,#370,#50,.F.);
#286=EDGE_CURVE('',#371,#371,#51,.F.);
#287=EDGE_CURVE('',#372,#373,#426,.T.);
#288=EDGE_CURVE('',#373,#374,#427,.F.);
#289=EDGE_CURVE('',#375,#374,#428,.T.);
#290=EDGE_CURVE('',#375,#336,#429,.T.);
#291=EDGE_CURVE('',#376,#337,#52,.F.);
#292=EDGE_CURVE('',#377,#376,#430,.T.);
#293=EDGE_CURVE('',#377,#378,#53,.T.);
#294=EDGE_CURVE('',#378,#379,#431,.T.);
#295=EDGE_CURVE('',#379,#372,#432,.F.);
#296=EDGE_CURVE('',#380,#381,#433,.F.);
#297=EDGE_CURVE('',#381,#382,#434,.F.);
#298=EDGE_CURVE('',#382,#383,#435,.T.);
#299=EDGE_CURVE('',#383,#380,#436,.T.);
#300=EDGE_CURVE('',#384,#384,#54,.T.);
#301=EDGE_CURVE('',#385,#385,#55,.F.);
#302=EDGE_CURVE('',#386,#386,#56,.T.);
#303=EDGE_CURVE('',#387,#387,#57,.T.);
#304=EDGE_CURVE('',#388,#388,#58,.T.);
#305=EDGE_CURVE('',#389,#389,#59,.T.);
#306=EDGE_CURVE('',#390,#390,#60,.T.);
#307=EDGE_CURVE('',#391,#391,#61,.T.);
#308=EDGE_CURVE('',#392,#392,#62,.T.);
#309=EDGE_CURVE('',#393,#393,#63,.T.);
#310=EDGE_CURVE('',#394,#394,#64,.F.);
#311=EDGE_CURVE('',#354,#349,#437,.T.);
#312=EDGE_CURVE('',#355,#348,#438,.T.);
#313=EDGE_CURVE('',#364,#359,#65,.T.);
#314=EDGE_CURVE('',#363,#352,#66,.T.);
#315=EDGE_CURVE('',#366,#379,#439,.T.);
#316=EDGE_CURVE('',#378,#367,#440,.T.);
#317=EDGE_CURVE('',#374,#343,#441,.T.);
#318=EDGE_CURVE('',#342,#353,#442,.T.);
#319=EDGE_CURVE('',#362,#375,#443,.T.);
#320=EDGE_CURVE('',#344,#373,#444,.F.);
#321=EDGE_CURVE('',#372,#365,#445,.T.);
#322=EDGE_CURVE('',#358,#345,#446,.T.);
#323=EDGE_CURVE('',#377,#368,#447,.T.);
#324=EDGE_CURVE('',#376,#369,#448,.T.);
#325=EDGE_CURVE('',#356,#347,#449,.T.);
#326=EDGE_CURVE('',#357,#346,#450,.T.);
#327=EDGE_CURVE('',#396,#396,#67,.T.);
#328=EDGE_CURVE('',#380,#344,#12,.F.);
#329=EDGE_CURVE('',#373,#383,#13,.T.);
#330=EDGE_CURVE('',#374,#382,#14,.T.);
#331=EDGE_CURVE('',#381,#343,#15,.F.);
#332=VERTEX_POINT('',#1001);
#333=VERTEX_POINT('',#1002);
#334=VERTEX_POINT('',#1004);
#335=VERTEX_POINT('',#1006);
#336=VERTEX_POINT('',#1010);
#337=VERTEX_POINT('',#1011);
#338=VERTEX_POINT('',#1013);
#339=VERTEX_POINT('',#1015);
#340=VERTEX_POINT('',#1019);
#341=VERTEX_POINT('',#1021);
#342=VERTEX_POINT('',#1023);
#343=VERTEX_POINT('',#1024);
#344=VERTEX_POINT('',#1026);
#345=VERTEX_POINT('',#1028);
#346=VERTEX_POINT('',#1031);
#347=VERTEX_POINT('',#1033);
#348=VERTEX_POINT('',#1035);
#349=VERTEX_POINT('',#1037);
#350=VERTEX_POINT('',#1041);
#351=VERTEX_POINT('',#1043);
#352=VERTEX_POINT('',#1045);
#353=VERTEX_POINT('',#1046);
#354=VERTEX_POINT('',#1048);
#355=VERTEX_POINT('',#1050);
#356=VERTEX_POINT('',#1052);
#357=VERTEX_POINT('',#1054);
#358=VERTEX_POINT('',#1057);
#359=VERTEX_POINT('',#1059);
#360=VERTEX_POINT('',#1063);
#361=VERTEX_POINT('',#1065);
#362=VERTEX_POINT('',#1067);
#363=VERTEX_POINT('',#1069);
#364=VERTEX_POINT('',#1071);
#365=VERTEX_POINT('',#1073);
#366=VERTEX_POINT('',#1075);
#367=VERTEX_POINT('',#1077);
#368=VERTEX_POINT('',#1079);
#369=VERTEX_POINT('',#1081);
#370=VERTEX_POINT('',#1085);
#371=VERTEX_POINT('',#1087);
#372=VERTEX_POINT('',#1089);
#373=VERTEX_POINT('',#1090);
#374=VERTEX_POINT('',#1092);
#375=VERTEX_POINT('',#1094);
#376=VERTEX_POINT('',#1097);
#377=VERTEX_POINT('',#1099);
#378=VERTEX_POINT('',#1101);
#379=VERTEX_POINT('',#1103);
#380=VERTEX_POINT('',#1107);
#381=VERTEX_POINT('',#1108);
#382=VERTEX_POINT('',#1110);
#383=VERTEX_POINT('',#1112);
#384=VERTEX_POINT('',#1115);
#385=VERTEX_POINT('',#1118);
#386=VERTEX_POINT('',#1120);
#387=VERTEX_POINT('',#1123);
#388=VERTEX_POINT('',#1125);
#389=VERTEX_POINT('',#1128);
#390=VERTEX_POINT('',#1131);
#391=VERTEX_POINT('',#1134);
#392=VERTEX_POINT('',#1137);
#393=VERTEX_POINT('',#1140);
#394=VERTEX_POINT('',#1143);
#395=VERTEX_POINT('',#1172);
#396=VERTEX_POINT('',#1174);
#397=LINE('',#1000,#451);
#398=LINE('',#1003,#452);
#399=LINE('',#1005,#453);
#400=LINE('',#1007,#454);
#401=LINE('',#1009,#455);
#402=LINE('',#1012,#456);
#403=LINE('',#1014,#457);
#404=LINE('',#1016,#458);
#405=LINE('',#1022,#459);
#406=LINE('',#1025,#460);
#407=LINE('',#1027,#461);
#408=LINE('',#1029,#462);
#409=LINE('',#1032,#463);
#410=LINE('',#1036,#464);
#411=LINE('',#1038,#465);
#412=LINE('',#1044,#466);
#413=LINE('',#1047,#467);
#414=LINE('',#1049,#468);
#415=LINE('',#1053,#469);
#416=LINE('',#1056,#470);
#417=LINE('',#1058,#471);
#418=LINE('',#1060,#472);
#419=LINE('',#1066,#473);
#420=LINE('',#1068,#474);
#421=LINE('',#1070,#475);
#422=LINE('',#1072,#476);
#423=LINE('',#1074,#477);
#424=LINE('',#1076,#478);
#425=LINE('',#1080,#479);
#426=LINE('',#1088,#480);
#427=LINE('',#1091,#481);
#428=LINE('',#1093,#482);
#429=LINE('',#1095,#483);
#430=LINE('',#1098,#484);
#431=LINE('',#1102,#485);
#432=LINE('',#1104,#486);
#433=LINE('',#1106,#487);
#434=LINE('',#1109,#488);
#435=LINE('',#1111,#489);
#436=LINE('',#1113,#490);
#437=LINE('',#1145,#491);
#438=LINE('',#1146,#492);
#439=LINE('',#1151,#493);
#440=LINE('',#1152,#494);
#441=LINE('',#1154,#495);
#442=LINE('',#1155,#496);
#443=LINE('',#1156,#497);
#444=LINE('',#1158,#498);
#445=LINE('',#1159,#499);
#446=LINE('',#1160,#500);
#447=LINE('',#1162,#501);
#448=LINE('',#1164,#502);
#449=LINE('',#1167,#503);
#450=LINE('',#1168,#504);
#451=VECTOR('',#794,1.);
#452=VECTOR('',#795,1.);
#453=VECTOR('',#796,1.);
#454=VECTOR('',#797,1.);
#455=VECTOR('',#800,1.);
#456=VECTOR('',#801,1.);
#457=VECTOR('',#802,1.);
#458=VECTOR('',#803,1.);
#459=VECTOR('',#810,1.);
#460=VECTOR('',#811,1.);
#461=VECTOR('',#812,1.);
#462=VECTOR('',#813,1.);
#463=VECTOR('',#816,1.);
#464=VECTOR('',#819,1.);
#465=VECTOR('',#820,1.);
#466=VECTOR('',#827,1.);
#467=VECTOR('',#828,1.);
#468=VECTOR('',#829,1.);
#469=VECTOR('',#832,1.);
#470=VECTOR('',#835,1.);
#471=VECTOR('',#836,1.);
#472=VECTOR('',#837,1.);
#473=VECTOR('',#844,1.);
#474=VECTOR('',#845,1.);
#475=VECTOR('',#846,1.);
#476=VECTOR('',#847,1.);
#477=VECTOR('',#848,1.);
#478=VECTOR('',#849,1.);
#479=VECTOR('',#852,1.);
#480=VECTOR('',#861,1.);
#481=VECTOR('',#862,1.);
#482=VECTOR('',#863,1.);
#483=VECTOR('',#864,1.);
#484=VECTOR('',#867,1.);
#485=VECTOR('',#870,1.);
#486=VECTOR('',#871,1.);
#487=VECTOR('',#874,1.);
#488=VECTOR('',#875,1.);
#489=VECTOR('',#876,1.);
#490=VECTOR('',#877,1.);
#491=VECTOR('',#918,1.);
#492=VECTOR('',#919,1.);
#493=VECTOR('',#928,1.);
#494=VECTOR('',#929,1.);
#495=VECTOR('',#932,1.);
#496=VECTOR('',#933,1.);
#497=VECTOR('',#934,1.);
#498=VECTOR('',#937,1.);
#499=VECTOR('',#938,1.);
#500=VECTOR('',#939,1.);
#501=VECTOR('',#942,1.);
#502=VECTOR('',#945,1.);
#503=VECTOR('',#950,1.);
#504=VECTOR('',#951,1.);
#505=EDGE_LOOP('',(#68,#69,#70,#71));
#506=EDGE_LOOP('',(#72,#73,#74,#75));
#507=EDGE_LOOP('',(#76));
#508=EDGE_LOOP('',(#77));
#509=EDGE_LOOP('',(#78,#79,#80,#81,#82,#83,#84,#85,#86,#87));
#510=EDGE_LOOP('',(#88));
#511=EDGE_LOOP('',(#89));
#512=EDGE_LOOP('',(#90,#91,#92,#93,#94,#95,#96,#97,#98,#99));
#513=EDGE_LOOP('',(#100));
#514=EDGE_LOOP('',(#101));
#515=EDGE_LOOP('',(#102,#103,#104,#105,#106,#107,#108,#109,#110,#111));
#516=EDGE_LOOP('',(#112));
#517=EDGE_LOOP('',(#113));
#518=EDGE_LOOP('',(#114,#115,#116,#117,#118,#119,#120,#121,#122,#123));
#519=EDGE_LOOP('',(#124,#125,#126,#127));
#520=EDGE_LOOP('',(#128));
#521=EDGE_LOOP('',(#129));
#522=EDGE_LOOP('',(#130));
#523=EDGE_LOOP('',(#131));
#524=EDGE_LOOP('',(#132));
#525=EDGE_LOOP('',(#133));
#526=EDGE_LOOP('',(#134));
#527=EDGE_LOOP('',(#135));
#528=EDGE_LOOP('',(#136));
#529=EDGE_LOOP('',(#137));
#530=EDGE_LOOP('',(#138));
#531=EDGE_LOOP('',(#139));
#532=EDGE_LOOP('',(#140));
#533=EDGE_LOOP('',(#141));
#534=EDGE_LOOP('',(#142));
#535=EDGE_LOOP('',(#143));
#536=EDGE_LOOP('',(#144));
#537=EDGE_LOOP('',(#145,#146,#147,#148));
#538=EDGE_LOOP('',(#149,#150,#151,#152));
#539=EDGE_LOOP('',(#153,#154,#155,#156));
#540=EDGE_LOOP('',(#157,#158,#159,#160,#161,#162,#163,#164));
#541=EDGE_LOOP('',(#165,#166,#167,#168,#169,#170,#171,#172));
#542=EDGE_LOOP('',(#173,#174,#175,#176));
#543=EDGE_LOOP('',(#177,#178,#179,#180));
#544=EDGE_LOOP('',(#181,#182,#183,#184));
#545=EDGE_LOOP('',(#185,#186,#187,#188));
#546=EDGE_LOOP('',(#189,#190,#191,#192));
#547=EDGE_LOOP('',(#193,#194,#195,#196));
#548=EDGE_LOOP('',(#197));
#549=EDGE_LOOP('',(#198));
#550=EDGE_LOOP('',(#199));
#551=EDGE_LOOP('',(#200));
#552=EDGE_LOOP('',(#201));
#553=EDGE_LOOP('',(#202));
#554=EDGE_LOOP('',(#203));
#555=EDGE_LOOP('',(#204));
#556=EDGE_LOOP('',(#205));
#557=EDGE_LOOP('',(#206));
#558=EDGE_LOOP('',(#207));
#559=EDGE_LOOP('',(#208,#209,#210,#211));
#560=EDGE_LOOP('',(#212,#213,#214,#215));
#561=EDGE_LOOP('',(#216,#217,#218,#219));
#562=EDGE_LOOP('',(#220,#221,#222,#223));
#563=EDGE_LOOP('',(#224));
#564=EDGE_LOOP('',(#225));
#565=EDGE_LOOP('',(#226));
#566=EDGE_LOOP('',(#227));
#567=EDGE_LOOP('',(#228,#229,#230,#231));
#568=EDGE_LOOP('',(#232,#233,#234,#235));
#569=EDGE_LOOP('',(#236,#237,#238,#239));
#570=EDGE_LOOP('',(#240,#241,#242,#243));
#571=FACE_BOUND('',#505,.T.);
#572=FACE_BOUND('',#506,.T.);
#573=FACE_BOUND('',#507,.T.);
#574=FACE_BOUND('',#508,.T.);
#575=FACE_BOUND('',#509,.T.);
#576=FACE_BOUND('',#510,.T.);
#577=FACE_BOUND('',#511,.T.);
#578=FACE_BOUND('',#512,.T.);
#579=FACE_BOUND('',#513,.T.);
#580=FACE_BOUND('',#514,.T.);
#581=FACE_BOUND('',#515,.T.);
#582=FACE_BOUND('',#516,.T.);
#583=FACE_BOUND('',#517,.T.);
#584=FACE_BOUND('',#518,.T.);
#585=FACE_BOUND('',#519,.T.);
#586=FACE_BOUND('',#520,.T.);
#587=FACE_BOUND('',#521,.T.);
#588=FACE_BOUND('',#522,.T.);
#589=FACE_BOUND('',#523,.T.);
#590=FACE_BOUND('',#524,.T.);
#591=FACE_BOUND('',#525,.T.);
#592=FACE_BOUND('',#526,.T.);
#593=FACE_BOUND('',#527,.T.);
#594=FACE_BOUND('',#528,.T.);
#595=FACE_BOUND('',#529,.T.);
#596=FACE_BOUND('',#530,.T.);
#597=FACE_BOUND('',#531,.T.);
#598=FACE_BOUND('',#532,.T.);
#599=FACE_BOUND('',#533,.T.);
#600=FACE_BOUND('',#534,.T.);
#601=FACE_BOUND('',#535,.T.);
#602=FACE_BOUND('',#536,.T.);
#603=FACE_BOUND('',#537,.T.);
#604=FACE_BOUND('',#538,.T.);
#605=FACE_BOUND('',#539,.T.);
#606=FACE_BOUND('',#540,.T.);
#607=FACE_BOUND('',#541,.T.);
#608=FACE_BOUND('',#542,.T.);
#609=FACE_BOUND('',#543,.T.);
#610=FACE_BOUND('',#544,.T.);
#611=FACE_BOUND('',#545,.T.);
#612=FACE_BOUND('',#546,.T.);
#613=FACE_BOUND('',#547,.T.);
#614=FACE_BOUND('',#16,.T.);
#615=FACE_BOUND('',#548,.T.);
#616=FACE_BOUND('',#549,.T.);
#617=FACE_BOUND('',#550,.T.);
#618=FACE_BOUND('',#551,.T.);
#619=FACE_BOUND('',#552,.T.);
#620=FACE_BOUND('',#553,.T.);
#621=FACE_BOUND('',#554,.T.);
#622=FACE_BOUND('',#555,.T.);
#623=FACE_BOUND('',#556,.T.);
#624=FACE_BOUND('',#557,.T.);
#625=FACE_BOUND('',#558,.T.);
#626=FACE_BOUND('',#559,.T.);
#627=FACE_BOUND('',#560,.T.);
#628=FACE_BOUND('',#561,.T.);
#629=FACE_BOUND('',#562,.T.);
#630=FACE_BOUND('',#563,.T.);
#631=FACE_BOUND('',#564,.T.);
#632=FACE_BOUND('',#565,.T.);
#633=FACE_BOUND('',#566,.T.);
#634=FACE_BOUND('',#567,.T.);
#635=FACE_BOUND('',#568,.T.);
#636=FACE_BOUND('',#569,.T.);
#637=FACE_BOUND('',#570,.T.);
#638=PLANE('',#714);
#639=PLANE('',#715);
#640=PLANE('',#716);
#641=PLANE('',#721);
#642=PLANE('',#726);
#643=PLANE('',#731);
#644=PLANE('',#736);
#645=PLANE('',#738);
#646=PLANE('',#744);
#647=PLANE('',#748);
#648=PLANE('',#752);
#649=PLANE('',#756);
#650=PLANE('',#760);
#651=PLANE('',#761);
#652=PLANE('',#762);
#653=PLANE('',#765);
#654=PLANE('',#766);
#655=PLANE('',#776);
#656=PLANE('',#777);
#657=PLANE('',#778);
#658=PLANE('',#779);
#659=ADVANCED_FACE('',(#571),#638,.T.);
#660=ADVANCED_FACE('',(#572),#639,.F.);
#661=ADVANCED_FACE('',(#573,#574,#575),#640,.T.);
#662=ADVANCED_FACE('',(#576,#577,#578),#641,.T.);
#663=ADVANCED_FACE('',(#579,#580,#581),#642,.F.);
#664=ADVANCED_FACE('',(#582,#583,#584),#643,.F.);
#665=ADVANCED_FACE('',(#585,#586),#644,.T.);
#666=ADVANCED_FACE('',(#587,#588),#645,.F.);
#667=ADVANCED_FACE('',(#589,#590),#20,.T.);
#668=ADVANCED_FACE('',(#591,#592),#646,.T.);
#669=ADVANCED_FACE('',(#593,#594),#21,.T.);
#670=ADVANCED_FACE('',(#595,#596),#647,.T.);
#671=ADVANCED_FACE('',(#597,#598),#22,.F.);
#672=ADVANCED_FACE('',(#599,#600),#648,.T.);
#673=ADVANCED_FACE('',(#601,#602),#23,.T.);
#674=ADVANCED_FACE('',(#603),#649,.T.);
#675=ADVANCED_FACE('',(#604),#24,.F.);
#676=ADVANCED_FACE('',(#605),#650,.F.);
#677=ADVANCED_FACE('',(#606),#651,.T.);
#678=ADVANCED_FACE('',(#607),#652,.F.);
#679=ADVANCED_FACE('',(#608),#25,.F.);
#680=ADVANCED_FACE('',(#609),#26,.F.);
#681=ADVANCED_FACE('',(#610),#653,.T.);
#682=ADVANCED_FACE('',(#611),#654,.T.);
#683=ADVANCED_FACE('',(#612),#27,.F.);
#684=ADVANCED_FACE('',(#613),#28,.F.);
#685=ADVANCED_FACE('',(#614,#615),#17,.F.);
#686=ADVANCED_FACE('',(#616,#617),#29,.F.);
#687=ADVANCED_FACE('',(#618,#619),#30,.F.);
#688=ADVANCED_FACE('',(#620,#621),#31,.F.);
#689=ADVANCED_FACE('',(#622,#623),#32,.F.);
#690=ADVANCED_FACE('',(#624,#625),#33,.F.);
#691=ADVANCED_FACE('',(#626),#655,.T.);
#692=ADVANCED_FACE('',(#627),#656,.F.);
#693=ADVANCED_FACE('',(#628),#657,.F.);
#694=ADVANCED_FACE('',(#629),#658,.T.);
#695=ADVANCED_FACE('',(#630,#631),#18,.T.);
#696=ADVANCED_FACE('',(#632,#633),#19,.T.);
#697=ADVANCED_FACE('',(#634),#34,.F.);
#698=ADVANCED_FACE('',(#635),#35,.F.);
#699=ADVANCED_FACE('',(#636),#36,.F.);
#700=ADVANCED_FACE('',(#637),#37,.F.);
#701=CLOSED_SHELL('',(#659,#660,#661,#662,#663,#664,#665,#666,#667,#668,
#669,#670,#671,#672,#673,#674,#675,#676,#677,#678,#679,#680,#681,#682,#683,
#684,#685,#686,#687,#688,#689,#690,#691,#692,#693,#694,#695,#696,#697,#698,
#699,#700));
#702=STYLED_ITEM('',(#703),#710);
#703=PRESENTATION_STYLE_ASSIGNMENT((#704));
#704=SURFACE_STYLE_USAGE(.BOTH.,#705);
#705=SURFACE_SIDE_STYLE('',(#706));
#706=SURFACE_STYLE_FILL_AREA(#707);
#707=FILL_AREA_STYLE('',(#708));
#708=FILL_AREA_STYLE_COLOUR('',#709);
#709=COLOUR_RGB('',0.615686274509804,0.811764705882353,0.929411764705882);
#710=MANIFOLD_SOLID_BREP('Part 1',#701);
#711=SHAPE_DEFINITION_REPRESENTATION(#1200,#712);
#712=SHAPE_REPRESENTATION('Part 1',(#713),#1195);
#713=AXIS2_PLACEMENT_3D('',#998,#790,#791);
#714=AXIS2_PLACEMENT_3D('',#999,#792,#793);
#715=AXIS2_PLACEMENT_3D('',#1008,#798,#799);
#716=AXIS2_PLACEMENT_3D('',#1017,#804,#805);
#717=AXIS2_PLACEMENT_3D('',#1018,#806,#807);
#718=AXIS2_PLACEMENT_3D('',#1020,#808,#809);
#719=AXIS2_PLACEMENT_3D('',#1030,#814,#815);
#720=AXIS2_PLACEMENT_3D('',#1034,#817,#818);
#721=AXIS2_PLACEMENT_3D('',#1039,#821,#822);
#722=AXIS2_PLACEMENT_3D('',#1040,#823,#824);
#723=AXIS2_PLACEMENT_3D('',#1042,#825,#826);
#724=AXIS2_PLACEMENT_3D('',#1051,#830,#831);
#725=AXIS2_PLACEMENT_3D('',#1055,#833,#834);
#726=AXIS2_PLACEMENT_3D('',#1061,#838,#839);
#727=AXIS2_PLACEMENT_3D('',#1062,#840,#841);
#728=AXIS2_PLACEMENT_3D('',#1064,#842,#843);
#729=AXIS2_PLACEMENT_3D('',#1078,#850,#851);
#730=AXIS2_PLACEMENT_3D('',#1082,#853,#854);
#731=AXIS2_PLACEMENT_3D('',#1083,#855,#856);
#732=AXIS2_PLACEMENT_3D('',#1084,#857,#858);
#733=AXIS2_PLACEMENT_3D('',#1086,#859,#860);
#734=AXIS2_PLACEMENT_3D('',#1096,#865,#866);
#735=AXIS2_PLACEMENT_3D('',#1100,#868,#869);
#736=AXIS2_PLACEMENT_3D('',#1105,#872,#873);
#737=AXIS2_PLACEMENT_3D('',#1114,#878,#879);
#738=AXIS2_PLACEMENT_3D('',#1116,#880,#881);
#739=AXIS2_PLACEMENT_3D('',#1117,#882,#883);
#740=AXIS2_PLACEMENT_3D('',#1119,#884,#885);
#741=AXIS2_PLACEMENT_3D('',#1121,#886,#887);
#742=AXIS2_PLACEMENT_3D('',#1122,#888,#889);
#743=AXIS2_PLACEMENT_3D('',#1124,#890,#891);
#744=AXIS2_PLACEMENT_3D('',#1126,#892,#893);
#745=AXIS2_PLACEMENT_3D('',#1127,#894,#895);
#746=AXIS2_PLACEMENT_3D('',#1129,#896,#897);
#747=AXIS2_PLACEMENT_3D('',#1130,#898,#899);
#748=AXIS2_PLACEMENT_3D('',#1132,#900,#901);
#749=AXIS2_PLACEMENT_3D('',#1133,#902,#903);
#750=AXIS2_PLACEMENT_3D('',#1135,#904,#905);
#751=AXIS2_PLACEMENT_3D('',#1136,#906,#907);
#752=AXIS2_PLACEMENT_3D('',#1138,#908,#909);
#753=AXIS2_PLACEMENT_3D('',#1139,#910,#911);
#754=AXIS2_PLACEMENT_3D('',#1141,#912,#913);
#755=AXIS2_PLACEMENT_3D('',#1142,#914,#915);
#756=AXIS2_PLACEMENT_3D('',#1144,#916,#917);
#757=AXIS2_PLACEMENT_3D('',#1147,#920,#921);
#758=AXIS2_PLACEMENT_3D('',#1148,#922,#923);
#759=AXIS2_PLACEMENT_3D('',#1149,#924,#925);
#760=AXIS2_PLACEMENT_3D('',#1150,#926,#927);
#761=AXIS2_PLACEMENT_3D('',#1153,#930,#931);
#762=AXIS2_PLACEMENT_3D('',#1157,#935,#936);
#763=AXIS2_PLACEMENT_3D('',#1161,#940,#941);
#764=AXIS2_PLACEMENT_3D('',#1163,#943,#944);
#765=AXIS2_PLACEMENT_3D('',#1165,#946,#947);
#766=AXIS2_PLACEMENT_3D('',#1166,#948,#949);
#767=AXIS2_PLACEMENT_3D('',#1169,#952,#953);
#768=AXIS2_PLACEMENT_3D('',#1170,#954,#955);
#769=AXIS2_PLACEMENT_3D('',#1171,#956,#957);
#770=AXIS2_PLACEMENT_3D('',#1173,#958,#959);
#771=AXIS2_PLACEMENT_3D('',#1175,#960,#961);
#772=AXIS2_PLACEMENT_3D('',#1176,#962,#963);
#773=AXIS2_PLACEMENT_3D('',#1177,#964,#965);
#774=AXIS2_PLACEMENT_3D('',#1178,#966,#967);
#775=AXIS2_PLACEMENT_3D('',#1179,#968,#969);
#776=AXIS2_PLACEMENT_3D('',#1180,#970,#971);
#777=AXIS2_PLACEMENT_3D('',#1181,#972,#973);
#778=AXIS2_PLACEMENT_3D('',#1182,#974,#975);
#779=AXIS2_PLACEMENT_3D('',#1183,#976,#977);
#780=AXIS2_PLACEMENT_3D('',#1184,#978,#979);
#781=AXIS2_PLACEMENT_3D('',#1185,#980,#981);
#782=AXIS2_PLACEMENT_3D('',#1186,#982,#983);
#783=AXIS2_PLACEMENT_3D('',#1187,#984,#985);
#784=AXIS2_PLACEMENT_3D('',#1188,#986,#987);
#785=AXIS2_PLACEMENT_3D('',#1189,#988,#989);
#786=AXIS2_PLACEMENT_3D('',#1190,#990,#991);
#787=AXIS2_PLACEMENT_3D('',#1191,#992,#993);
#788=AXIS2_PLACEMENT_3D('',#1192,#994,#995);
#789=AXIS2_PLACEMENT_3D('',#1193,#996,#997);
#790=DIRECTION('',(0.,0.,1.));
#791=DIRECTION('',(1.,0.,0.));
#792=DIRECTION('',(0.,0.,1.));
#793=DIRECTION('',(1.,0.,0.));
#794=DIRECTION('',(0.,1.,0.));
#795=DIRECTION('',(-1.,0.,0.));
#796=DIRECTION('',(0.,1.,0.));
#797=DIRECTION('',(1.,0.,1.04083408558608E-16));
#798=DIRECTION('',(0.,0.,-1.));
#799=DIRECTION('',(-1.,0.,0.));
#800=DIRECTION('',(0.,1.,0.));
#801=DIRECTION('',(1.,0.,0.));
#802=DIRECTION('',(0.,1.,0.));
#803=DIRECTION('',(1.,0.,1.04083408558608E-16));
#804=DIRECTION('',(1.,0.,1.04083408558608E-16));
#805=DIRECTION('',(1.04083408558608E-16,0.,-1.));
#806=DIRECTION('',(-1.,0.,-1.04083408558608E-16));
#807=DIRECTION('',(-1.04083408558608E-16,0.,1.));
#808=DIRECTION('',(-1.,0.,-1.04083408558608E-16));
#809=DIRECTION('',(-1.04083408558608E-16,0.,1.));
#810=DIRECTION('',(1.04083408558608E-16,0.,-1.));
#811=DIRECTION('',(0.,1.,0.));
#812=DIRECTION('',(1.04083408558608E-16,0.,-1.));
#813=DIRECTION('',(-7.3598084000802E-17,-0.707106781186548,0.707106781186548));
#814=DIRECTION('',(1.,0.,1.04083408558608E-16));
#815=DIRECTION('',(1.04083408558608E-16,0.,-1.));
#816=DIRECTION('',(0.,-1.,0.));
#817=DIRECTION('',(-1.,0.,-1.04083408558608E-16));
#818=DIRECTION('',(1.04083408558608E-16,0.,-1.));
#819=DIRECTION('',(0.,1.,0.));
#820=DIRECTION('',(-7.3598084000802E-17,0.707106781186548,0.707106781186548));
#821=DIRECTION('',(-1.,0.,0.));
#822=DIRECTION('',(0.,0.,1.));
#823=DIRECTION('',(-1.,0.,0.));
#824=DIRECTION('',(0.,0.,1.));
#825=DIRECTION('',(-1.,0.,0.));
#826=DIRECTION('',(0.,0.,1.));
#827=DIRECTION('',(0.,0.,1.));
#828=DIRECTION('',(0.,-0.707106781186548,-0.707106781186548));
#829=DIRECTION('',(0.,1.,0.));
#830=DIRECTION('',(-1.,0.,0.));
#831=DIRECTION('',(0.,0.,1.));
#832=DIRECTION('',(0.,1.,0.));
#833=DIRECTION('',(-1.,0.,0.));
#834=DIRECTION('',(0.,0.,1.));
#835=DIRECTION('',(0.,0.707106781186548,-0.707106781186548));
#836=DIRECTION('',(0.,0.,1.));
#837=DIRECTION('',(0.,1.,0.));
#838=DIRECTION('',(-1.,0.,0.));
#839=DIRECTION('',(0.,0.,1.));
#840=DIRECTION('',(-1.,0.,0.));
#841=DIRECTION('',(0.,0.,1.));
#842=DIRECTION('',(-1.,0.,0.));
#843=DIRECTION('',(0.,0.,1.));
#844=DIRECTION('',(0.,-0.707106781186548,-0.707106781186548));
#845=DIRECTION('',(0.,0.,1.));
#846=DIRECTION('',(0.,1.,0.));
#847=DIRECTION('',(0.,0.,1.));
#848=DIRECTION('',(0.,0.707106781186548,-0.707106781186548));
#849=DIRECTION('',(0.,1.,0.));
#850=DIRECTION('',(-1.,0.,0.));
#851=DIRECTION('',(0.,0.,1.));
#852=DIRECTION('',(0.,1.,0.));
#853=DIRECTION('',(-1.,0.,0.));
#854=DIRECTION('',(0.,0.,1.));
#855=DIRECTION('',(1.,0.,-1.04083408558608E-16));
#856=DIRECTION('',(-1.04083408558608E-16,0.,-1.));
#857=DIRECTION('',(1.,0.,-1.04083408558608E-16));
#858=DIRECTION('',(-1.04083408558608E-16,0.,-1.));
#859=DIRECTION('',(1.,0.,-1.04083408558608E-16));
#860=DIRECTION('',(-1.04083408558608E-16,0.,-1.));
#861=DIRECTION('',(-1.04083408558608E-16,0.,-1.));
#862=DIRECTION('',(0.,1.,0.));
#863=DIRECTION('',(-1.04083408558608E-16,0.,-1.));
#864=DIRECTION('',(7.3598084000802E-17,0.707106781186548,0.707106781186548));
#865=DIRECTION('',(1.,0.,-1.04083408558608E-16));
#866=DIRECTION('',(-1.04083408558608E-16,0.,-1.));
#867=DIRECTION('',(0.,-1.,0.));
#868=DIRECTION('',(1.,0.,-1.04083408558608E-16));
#869=DIRECTION('',(-1.04083408558608E-16,0.,-1.));
#870=DIRECTION('',(0.,1.,0.));
#871=DIRECTION('',(7.3598084000802E-17,-0.707106781186548,0.707106781186548));
#872=DIRECTION('',(0.,0.,1.));
#873=DIRECTION('',(1.,0.,0.));
#874=DIRECTION('',(0.,1.,0.));
#875=DIRECTION('',(1.,0.,0.));
#876=DIRECTION('',(0.,1.,0.));
#877=DIRECTION('',(1.,0.,0.));
#878=DIRECTION('',(0.,0.,1.));
#879=DIRECTION('',(1.,0.,0.));
#880=DIRECTION('',(0.,0.,1.));
#881=DIRECTION('',(1.,0.,0.));
#882=DIRECTION('',(0.,0.,1.));
#883=DIRECTION('',(1.,0.,0.));
#884=DIRECTION('',(0.,0.,1.));
#885=DIRECTION('',(1.,0.,0.));
#886=DIRECTION('',(0.,0.,-1.));
#887=DIRECTION('',(-1.,0.,0.));
#888=DIRECTION('',(0.,0.,1.));
#889=DIRECTION('',(1.,0.,0.));
#890=DIRECTION('',(0.,0.,-1.));
#891=DIRECTION('',(-1.,0.,0.));
#892=DIRECTION('',(0.,0.,-1.));
#893=DIRECTION('',(-1.,0.,0.));
#894=DIRECTION('',(0.,0.,-1.));
#895=DIRECTION('',(-1.,0.,0.));
#896=DIRECTION('',(0.,0.,-1.));
#897=DIRECTION('',(-1.,0.,0.));
#898=DIRECTION('',(0.,0.,-1.));
#899=DIRECTION('',(-1.,0.,0.));
#900=DIRECTION('',(0.,0.,-1.));
#901=DIRECTION('',(-1.,0.,0.));
#902=DIRECTION('',(0.,0.,-1.));
#903=DIRECTION('',(-1.,0.,0.));
#904=DIRECTION('',(0.,0.,-1.));
#905=DIRECTION('',(-1.,0.,0.));
#906=DIRECTION('',(0.,0.,-1.));
#907=DIRECTION('',(-1.,0.,0.));
#908=DIRECTION('',(0.,0.,-1.));
#909=DIRECTION('',(-1.,0.,0.));
#910=DIRECTION('',(0.,0.,-1.));
#911=DIRECTION('',(-1.,0.,0.));
#912=DIRECTION('',(0.,0.,-1.));
#913=DIRECTION('',(-1.,0.,0.));
#914=DIRECTION('',(0.,0.,1.));
#915=DIRECTION('',(1.,0.,0.));
#916=DIRECTION('',(0.,0.,1.));
#917=DIRECTION('',(1.,0.,0.));
#918=DIRECTION('',(1.,0.,0.));
#919=DIRECTION('',(1.,0.,1.04083408558608E-16));
#920=DIRECTION('',(0.,1.,0.));
#921=DIRECTION('',(0.,0.,1.));
#922=DIRECTION('',(0.,-1.,0.));
#923=DIRECTION('',(0.,0.,-1.));
#924=DIRECTION('',(0.,-1.,0.));
#925=DIRECTION('',(0.,0.,-1.));
#926=DIRECTION('',(0.,0.,-1.));
#927=DIRECTION('',(-1.,0.,0.));
#928=DIRECTION('',(-1.,0.,0.));
#929=DIRECTION('',(1.,0.,1.04083408558608E-16));
#930=DIRECTION('',(0.,-1.,0.));
#931=DIRECTION('',(1.,0.,0.));
#932=DIRECTION('',(1.,0.,0.));
#933=DIRECTION('',(-1.,0.,0.));
#934=DIRECTION('',(-1.,0.,0.));
#935=DIRECTION('',(0.,-1.,0.));
#936=DIRECTION('',(1.,0.,0.));
#937=DIRECTION('',(1.,0.,0.));
#938=DIRECTION('',(1.,0.,0.));
#939=DIRECTION('',(1.,0.,0.));
#940=DIRECTION('',(1.,0.,1.04083408558608E-16));
#941=DIRECTION('',(1.04083408558608E-16,0.,-1.));
#942=DIRECTION('',(1.,0.,1.04083408558608E-16));
#943=DIRECTION('',(1.,0.,1.04083408558608E-16));
#944=DIRECTION('',(1.04083408558608E-16,0.,-1.));
#945=DIRECTION('',(1.,0.,1.04083408558608E-16));
#946=DIRECTION('',(-1.04083408558608E-16,0.,1.));
#947=DIRECTION('',(1.,0.,1.04083408558608E-16));
#948=DIRECTION('',(-1.04083408558608E-16,0.,1.));
#949=DIRECTION('',(1.,0.,1.04083408558608E-16));
#950=DIRECTION('',(1.,0.,1.04083408558608E-16));
#951=DIRECTION('',(1.,0.,1.04083408558608E-16));
#952=DIRECTION('',(1.,0.,1.04083408558608E-16));
#953=DIRECTION('',(1.04083408558608E-16,0.,-1.));
#954=DIRECTION('',(1.,0.,1.04083408558608E-16));
#955=DIRECTION('',(1.04083408558608E-16,0.,-1.));
#956=DIRECTION('',(0.,0.,-1.));
#957=DIRECTION('',(-1.,0.,0.));
#958=DIRECTION('',(0.,0.,1.));
#959=DIRECTION('',(1.,0.,0.));
#960=DIRECTION('',(0.,0.,1.));
#961=DIRECTION('',(1.,0.,0.));
#962=DIRECTION('',(-1.,0.,-1.04083408558608E-16));
#963=DIRECTION('',(-1.04083408558608E-16,0.,1.));
#964=DIRECTION('',(-1.,0.,-1.04083408558608E-16));
#965=DIRECTION('',(-1.04083408558608E-16,0.,1.));
#966=DIRECTION('',(-1.,0.,-1.04083408558608E-16));
#967=DIRECTION('',(-1.04083408558608E-16,0.,1.));
#968=DIRECTION('',(-1.,0.,-1.04083408558608E-16));
#969=DIRECTION('',(-1.04083408558608E-16,0.,1.));
#970=DIRECTION('',(0.,-0.707106781186548,0.707106781186548));
#971=DIRECTION('',(1.,0.,0.));
#972=DIRECTION('',(0.,-0.707106781186548,-0.707106781186548));
#973=DIRECTION('',(-1.,0.,0.));
#974=DIRECTION('',(0.,0.707106781186548,-0.707106781186548));
#975=DIRECTION('',(1.,0.,0.));
#976=DIRECTION('',(0.,0.707106781186548,0.707106781186548));
#977=DIRECTION('',(-1.,0.,0.));
#978=DIRECTION('',(0.,0.,1.));
#979=DIRECTION('',(1.,0.,0.));
#980=DIRECTION('',(0.,0.,-1.));
#981=DIRECTION('',(-1.,0.,0.));
#982=DIRECTION('',(1.,0.,0.));
#983=DIRECTION('',(0.,0.,-1.));
#984=DIRECTION('',(0.707106781186548,-0.707106781186548,0.));
#985=DIRECTION('',(-0.707106781186548,-0.707106781186548,0.));
#986=DIRECTION('',(0.707106781186548,0.707106781186548,0.));
#987=DIRECTION('',(0.707106781186548,-0.707106781186548,0.));
#988=DIRECTION('',(0.,1.,0.));
#989=DIRECTION('',(0.,0.,1.));
#990=DIRECTION('',(-0.707106781186548,0.707106781186548,0.));
#991=DIRECTION('',(0.707106781186548,0.707106781186548,0.));
#992=DIRECTION('',(0.,-1.,0.));
#993=DIRECTION('',(0.,0.,-1.));
#994=DIRECTION('',(-0.707106781186548,-0.707106781186548,0.));
#995=DIRECTION('',(0.707106781186548,-0.707106781186548,0.));
#996=DIRECTION('',(-1.,0.,0.));
#997=DIRECTION('',(0.,0.,1.));
#998=CARTESIAN_POINT('',(0.,0.,0.));
#999=CARTESIAN_POINT('',(0.01,-0.024,0.066));
#1000=CARTESIAN_POINT('',(0.012,-0.024,0.066));
#1001=CARTESIAN_POINT('',(0.012,0.0219282032302755,0.066));
#1002=CARTESIAN_POINT('',(0.012,0.0225,0.066));
#1003=CARTESIAN_POINT('',(0.008,0.0225,0.066));
#1004=CARTESIAN_POINT('',(0.008,0.0225,0.066));
#1005=CARTESIAN_POINT('',(0.008,-0.024,0.066));
#1006=CARTESIAN_POINT('',(0.008,0.0219282032302755,0.066));
#1007=CARTESIAN_POINT('',(-0.106018474271978,0.0219282032302755,0.066));
#1008=CARTESIAN_POINT('',(-0.01,-0.024,0.066));
#1009=CARTESIAN_POINT('',(-0.012,-0.024,0.066));
#1010=CARTESIAN_POINT('',(-0.012,-0.0225,0.066));
#1011=CARTESIAN_POINT('',(-0.012,-0.0219282032302755,0.066));
#1012=CARTESIAN_POINT('',(-0.008,-0.0225,0.066));
#1013=CARTESIAN_POINT('',(-0.008,-0.0225,0.066));
#1014=CARTESIAN_POINT('',(-0.008,-0.024,0.066));
#1015=CARTESIAN_POINT('',(-0.008,-0.0219282032302755,0.066));
#1016=CARTESIAN_POINT('',(-0.106018474271978,-0.0219282032302755,0.066));
#1017=CARTESIAN_POINT('',(0.012,-0.024,0.041));
#1018=CARTESIAN_POINT('',(0.012,-0.011,0.053));
#1019=CARTESIAN_POINT('',(0.012,-0.011,0.0572));
#1020=CARTESIAN_POINT('',(0.012,0.011,0.053));
#1021=CARTESIAN_POINT('',(0.012,0.011,0.0572));
#1022=CARTESIAN_POINT('',(0.012,-0.024,0.041));
#1023=CARTESIAN_POINT('',(0.012,-0.024,0.0645));
#1024=CARTESIAN_POINT('',(0.012,-0.024,0.018));
#1025=CARTESIAN_POINT('',(0.012,0.024,0.018));
#1026=CARTESIAN_POINT('',(0.012,0.024,0.018));
#1027=CARTESIAN_POINT('',(0.012,0.024,0.041));
#1028=CARTESIAN_POINT('',(0.012,0.024,0.0645));
#1029=CARTESIAN_POINT('',(0.012,0.01175,0.07675));
#1030=CARTESIAN_POINT('',(0.012,0.015,0.07));
#1031=CARTESIAN_POINT('',(0.012,0.015,0.062));
#1032=CARTESIAN_POINT('',(0.012,0.0075,0.062));
#1033=CARTESIAN_POINT('',(0.012,-0.015,0.062));
#1034=CARTESIAN_POINT('',(0.012,-0.015,0.07));
#1035=CARTESIAN_POINT('',(0.012,-0.0219282032302755,0.066));
#1036=CARTESIAN_POINT('',(0.012,-0.024,0.066));
#1037=CARTESIAN_POINT('',(0.012,-0.0225,0.066));
#1038=CARTESIAN_POINT('',(0.012,-0.03575,0.05275));
#1039=CARTESIAN_POINT('',(0.008,-0.024,0.055));
#1040=CARTESIAN_POINT('',(0.008,-0.011,0.053));
#1041=CARTESIAN_POINT('',(0.008,-0.011,0.0572));
#1042=CARTESIAN_POINT('',(0.008,0.011,0.053));
#1043=CARTESIAN_POINT('',(0.008,0.011,0.0572));
#1044=CARTESIAN_POINT('',(0.008,-0.024,0.055));
#1045=CARTESIAN_POINT('',(0.008,-0.024,0.044));
#1046=CARTESIAN_POINT('',(0.008,-0.024,0.0645));
#1047=CARTESIAN_POINT('',(0.008,-0.02875,0.05975));
#1048=CARTESIAN_POINT('',(0.008,-0.0225,0.066));
#1049=CARTESIAN_POINT('',(0.008,-0.024,0.066));
#1050=CARTESIAN_POINT('',(0.008,-0.0219282032302755,0.066));
#1051=CARTESIAN_POINT('',(0.008,-0.015,0.07));
#1052=CARTESIAN_POINT('',(0.008,-0.015,0.062));
#1053=CARTESIAN_POINT('',(0.008,-0.024,0.062));
#1054=CARTESIAN_POINT('',(0.008,0.015,0.062));
#1055=CARTESIAN_POINT('',(0.008,0.015,0.07));
#1056=CARTESIAN_POINT('',(0.008,0.00475,0.08375));
#1057=CARTESIAN_POINT('',(0.008,0.024,0.0645));
#1058=CARTESIAN_POINT('',(0.008,0.024,0.055));
#1059=CARTESIAN_POINT('',(0.008,0.024,0.044));
#1060=CARTESIAN_POINT('',(0.008,-0.024,0.044));
#1061=CARTESIAN_POINT('',(-0.008,-0.024,0.055));
#1062=CARTESIAN_POINT('',(-0.008,-0.011,0.053));
#1063=CARTESIAN_POINT('',(-0.008,-0.011,0.0572));
#1064=CARTESIAN_POINT('',(-0.008,0.011,0.053));
#1065=CARTESIAN_POINT('',(-0.008,0.011,0.0572));
#1066=CARTESIAN_POINT('',(-0.008,-0.024,0.0645));
#1067=CARTESIAN_POINT('',(-0.008,-0.024,0.0645));
#1068=CARTESIAN_POINT('',(-0.008,-0.024,0.055));
#1069=CARTESIAN_POINT('',(-0.008,-0.024,0.044));
#1070=CARTESIAN_POINT('',(-0.008,-0.024,0.044));
#1071=CARTESIAN_POINT('',(-0.008,0.024,0.044));
#1072=CARTESIAN_POINT('',(-0.008,0.024,0.055));
#1073=CARTESIAN_POINT('',(-0.008,0.024,0.0645));
#1074=CARTESIAN_POINT('',(-0.008,0.0225,0.066));
#1075=CARTESIAN_POINT('',(-0.008,0.0225,0.066));
#1076=CARTESIAN_POINT('',(-0.008,-0.024,0.066));
#1077=CARTESIAN_POINT('',(-0.008,0.0219282032302755,0.066));
#1078=CARTESIAN_POINT('',(-0.008,0.015,0.07));
#1079=CARTESIAN_POINT('',(-0.008,0.015,0.062));
#1080=CARTESIAN_POINT('',(-0.008,-0.024,0.062));
#1081=CARTESIAN_POINT('',(-0.008,-0.015,0.062));
#1082=CARTESIAN_POINT('',(-0.008,-0.015,0.07));
#1083=CARTESIAN_POINT('',(-0.012,-0.024,0.041));
#1084=CARTESIAN_POINT('',(-0.012,-0.011,0.053));
#1085=CARTESIAN_POINT('',(-0.012,-0.011,0.0488));
#1086=CARTESIAN_POINT('',(-0.012,0.011,0.053));
#1087=CARTESIAN_POINT('',(-0.012,0.011,0.0488));
#1088=CARTESIAN_POINT('',(-0.012,0.024,0.041));
#1089=CARTESIAN_POINT('',(-0.012,0.024,0.0645));
#1090=CARTESIAN_POINT('',(-0.012,0.024,0.018));
#1091=CARTESIAN_POINT('',(-0.012,-0.024,0.018));
#1092=CARTESIAN_POINT('',(-0.012,-0.024,0.018));
#1093=CARTESIAN_POINT('',(-0.012,-0.024,0.041));
#1094=CARTESIAN_POINT('',(-0.012,-0.024,0.0645));
#1095=CARTESIAN_POINT('',(-0.012,-0.024,0.0645));
#1096=CARTESIAN_POINT('',(-0.012,-0.015,0.07));
#1097=CARTESIAN_POINT('',(-0.012,-0.015,0.062));
#1098=CARTESIAN_POINT('',(-0.012,-0.024,0.062));
#1099=CARTESIAN_POINT('',(-0.012,0.015,0.062));
#1100=CARTESIAN_POINT('',(-0.012,0.015,0.07));
#1101=CARTESIAN_POINT('',(-0.012,0.0219282032302755,0.066));
#1102=CARTESIAN_POINT('',(-0.012,-0.024,0.066));
#1103=CARTESIAN_POINT('',(-0.012,0.0225,0.066));
#1104=CARTESIAN_POINT('',(-0.012,0.0225,0.066));
#1105=CARTESIAN_POINT('',(0.006,0.,0.016));
#1106=CARTESIAN_POINT('',(0.014,-0.024,0.016));
#1107=CARTESIAN_POINT('',(0.014,0.026,0.016));
#1108=CARTESIAN_POINT('',(0.014,-0.026,0.016));
#1109=CARTESIAN_POINT('',(-0.012,-0.026,0.016));
#1110=CARTESIAN_POINT('',(-0.014,-0.026,0.016));
#1111=CARTESIAN_POINT('',(-0.014,0.,0.016));
#1112=CARTESIAN_POINT('',(-0.014,0.026,0.016));
#1113=CARTESIAN_POINT('',(0.006,0.026,0.016));
#1114=CARTESIAN_POINT('',(0.,0.,0.016));
#1115=CARTESIAN_POINT('',(0.0305,0.,0.016));
#1116=CARTESIAN_POINT('',(0.009,0.,-0.008));
#1117=CARTESIAN_POINT('',(0.,0.,-0.008));
#1118=CARTESIAN_POINT('',(0.0165,0.,-0.008));
#1119=CARTESIAN_POINT('',(0.,0.,-0.008));
#1120=CARTESIAN_POINT('',(0.011,0.,-0.008));
#1121=CARTESIAN_POINT('',(0.,0.,0.));
#1122=CARTESIAN_POINT('',(0.,0.,-0.0065));
#1123=CARTESIAN_POINT('',(0.018,0.,-0.0065));
#1124=CARTESIAN_POINT('',(0.,0.,0.));
#1125=CARTESIAN_POINT('',(-0.018,0.,0.));
#1126=CARTESIAN_POINT('',(0.02025,0.,0.));
#1127=CARTESIAN_POINT('',(0.,0.,0.));
#1128=CARTESIAN_POINT('',(-0.0225,0.,0.));
#1129=CARTESIAN_POINT('',(0.,0.,0.));
#1130=CARTESIAN_POINT('',(0.,0.,0.004));
#1131=CARTESIAN_POINT('',(-0.0225,0.,0.004));
#1132=CARTESIAN_POINT('',(0.025,0.,0.004));
#1133=CARTESIAN_POINT('',(0.,0.,0.004));
#1134=CARTESIAN_POINT('',(-0.0275,0.,0.004));
#1135=CARTESIAN_POINT('',(0.,0.,0.));
#1136=CARTESIAN_POINT('',(0.,0.,0.));
#1137=CARTESIAN_POINT('',(-0.0275,0.,0.));
#1138=CARTESIAN_POINT('',(0.03,0.,0.));
#1139=CARTESIAN_POINT('',(0.,0.,0.));
#1140=CARTESIAN_POINT('',(-0.0325,0.,0.));
#1141=CARTESIAN_POINT('',(0.,0.,0.));
#1142=CARTESIAN_POINT('',(0.,0.,0.014));
#1143=CARTESIAN_POINT('',(0.0325,0.,0.014));
#1144=CARTESIAN_POINT('',(0.01,-0.024,0.066));
#1145=CARTESIAN_POINT('',(0.01,-0.0225,0.066));
#1146=CARTESIAN_POINT('',(-0.106018474271978,-0.0219282032302755,0.066));
#1147=CARTESIAN_POINT('',(0.,-0.024,0.044));
#1148=CARTESIAN_POINT('',(0.,0.024,0.044));
#1149=CARTESIAN_POINT('',(0.,-0.024,0.044));
#1150=CARTESIAN_POINT('',(-0.01,-0.024,0.066));
#1151=CARTESIAN_POINT('',(-0.01,0.0225,0.066));
#1152=CARTESIAN_POINT('',(-0.106018474271978,0.0219282032302755,0.066));
#1153=CARTESIAN_POINT('',(0.01025,-0.024,0.));
#1154=CARTESIAN_POINT('',(0.012,-0.024,0.018));
#1155=CARTESIAN_POINT('',(0.01025,-0.024,0.0645));
#1156=CARTESIAN_POINT('',(-0.012,-0.024,0.0645));
#1157=CARTESIAN_POINT('',(0.01025,0.024,0.));
#1158=CARTESIAN_POINT('',(0.01025,0.024,0.018));
#1159=CARTESIAN_POINT('',(0.01025,0.024,0.0645));
#1160=CARTESIAN_POINT('',(0.012,0.024,0.0645));
#1161=CARTESIAN_POINT('',(-0.106018474271978,0.015,0.07));
#1162=CARTESIAN_POINT('',(-0.106018474271978,0.015,0.062));
#1163=CARTESIAN_POINT('',(-0.106018474271978,-0.015,0.07));
#1164=CARTESIAN_POINT('',(-0.106018474271978,-0.015,0.062));
#1165=CARTESIAN_POINT('',(-0.106018474271978,0.0075,0.062));
#1166=CARTESIAN_POINT('',(-0.106018474271978,0.0075,0.062));
#1167=CARTESIAN_POINT('',(-0.106018474271978,-0.015,0.062));
#1168=CARTESIAN_POINT('',(-0.106018474271978,0.015,0.062));
#1169=CARTESIAN_POINT('',(-0.106018474271978,0.015,0.07));
#1170=CARTESIAN_POINT('',(-0.106018474271978,-0.015,0.07));
#1171=CARTESIAN_POINT('',(0.,0.,0.027));
#1172=CARTESIAN_POINT('',(0.,0.,0.0336094668093031));
#1173=CARTESIAN_POINT('',(0.,0.,0.027));
#1174=CARTESIAN_POINT('',(0.011,0.,0.027));
#1175=CARTESIAN_POINT('',(0.,0.,-0.008));
#1176=CARTESIAN_POINT('',(0.012,0.011,0.053));
#1177=CARTESIAN_POINT('',(0.012,-0.011,0.053));
#1178=CARTESIAN_POINT('',(0.012,0.011,0.053));
#1179=CARTESIAN_POINT('',(0.012,-0.011,0.053));
#1180=CARTESIAN_POINT('',(0.01025,-0.024,0.0645));
#1181=CARTESIAN_POINT('',(-0.01,0.0225,0.066));
#1182=CARTESIAN_POINT('',(0.01,-0.0225,0.066));
#1183=CARTESIAN_POINT('',(0.01025,0.024,0.0645));
#1184=CARTESIAN_POINT('',(0.,0.,-0.008));
#1185=CARTESIAN_POINT('',(0.,0.,0.014));
#1186=CARTESIAN_POINT('',(0.006,0.026,0.018));
#1187=CARTESIAN_POINT('',(0.014,0.026,0.018));
#1188=CARTESIAN_POINT('',(-0.014,0.026,0.018));
#1189=CARTESIAN_POINT('',(-0.014,0.,0.018));
#1190=CARTESIAN_POINT('',(-0.014,-0.026,0.018));
#1191=CARTESIAN_POINT('',(0.014,-0.024,0.018));
#1192=CARTESIAN_POINT('',(0.014,-0.026,0.018));
#1193=CARTESIAN_POINT('',(0.01025,-0.026,0.018));
#1194=MECHANICAL_DESIGN_GEOMETRIC_PRESENTATION_REPRESENTATION('',(#702),
#1195);
#1195=(
GEOMETRIC_REPRESENTATION_CONTEXT(3)
GLOBAL_UNCERTAINTY_ASSIGNED_CONTEXT((#1196))
GLOBAL_UNIT_ASSIGNED_CONTEXT((#1199,#1198,#1197))
REPRESENTATION_CONTEXT('Part 1','TOP_LEVEL_ASSEMBLY_PART')
);
#1196=UNCERTAINTY_MEASURE_WITH_UNIT(LENGTH_MEASURE(1.E-8),#1199,
'DISTANCE_ACCURACY_VALUE','Maximum Tolerance applied to model');
#1197=(
NAMED_UNIT(*)
SI_UNIT($,.STERADIAN.)
SOLID_ANGLE_UNIT()
);
#1198=(
NAMED_UNIT(*)
PLANE_ANGLE_UNIT()
SI_UNIT($,.RADIAN.)
);
#1199=(
LENGTH_UNIT()
NAMED_UNIT(*)
SI_UNIT($,.METRE.)
);
#1200=PRODUCT_DEFINITION_SHAPE('','',#1201);
#1201=PRODUCT_DEFINITION('','',#1203,#1202);
#1202=PRODUCT_DEFINITION_CONTEXT('',#1209,'design');
#1203=PRODUCT_DEFINITION_FORMATION_WITH_SPECIFIED_SOURCE('','',#1205,
 .NOT_KNOWN.);
#1204=PRODUCT_RELATED_PRODUCT_CATEGORY('','',(#1205));
#1205=PRODUCT('Part 1','Part 1','Part 1',(#1207));
#1206=PRODUCT_CATEGORY('','');
#1207=PRODUCT_CONTEXT('',#1209,'mechanical');
#1208=APPLICATION_PROTOCOL_DEFINITION('international standard',
'ap242_managed_model_based_3d_engineering',2020,#1209);
#1209=APPLICATION_CONTEXT('managed model based 3d engineering');
ENDSEC;
END-ISO-10303-21;
