ISO-10303-21;
HEADER;
/* Generated by software containing ST-Developer
 * from STEP Tools, Inc. (www.steptools.com) 
 */
/* OPTION: using custom renumber hook */

FILE_DESCRIPTION(
/* description */ ('STEP AP242 Edition 2',
'CAx-IF Rec.Pracs.---Representation and Presentation of Product Manufa
cturing Information (PMI)---4.0---2014-10-13',
'CAx-IF Rec.Pracs.---3D Tessellated Geometry---0.4---2014-09-14','2;1',
'CAx-IF Rec.Pracs.---User Defined Attributes---1.5---2016-08-15'),
/* implementation_level */ '2;1');

FILE_NAME(
/* name */ 'Part Studio 1',
/* time_stamp */ '2026-09-11T15:41:27Z',
/* author */ (''),
/* organization */ (''),
/* preprocessor_version */ 'ST-DEVELOPER v20',
/* originating_system */ 'ONSHAPE BY PTC INC, 1.220',
/* authorisation */ '  ');

FILE_SCHEMA (('AP242_MANAGED_MODEL_BASED_3D_ENGINEERING_MIM_LF { 1 0 10303 442 3 1 4 }'));
ENDSEC;

DATA;
#10=SHAPE_REPRESENTATION_RELATIONSHIP('','',#657,#11);
#11=ADVANCED_BREP_SHAPE_REPRESENTATION('',(#655),#1039);
#12=CIRCLE('',#663,0.02);
#13=CIRCLE('',#664,0.02);
#14=CIRCLE('',#665,0.02);
#15=CIRCLE('',#666,0.02);
#16=CYLINDRICAL_SURFACE('',#662,0.02);
#17=ORIENTED_EDGE('',*,*,#197,.F.);
#18=ORIENTED_EDGE('',*,*,#198,.T.);
#19=ORIENTED_EDGE('',*,*,#199,.T.);
#20=ORIENTED_EDGE('',*,*,#200,.F.);
#21=ORIENTED_EDGE('',*,*,#201,.F.);
#22=ORIENTED_EDGE('',*,*,#202,.T.);
#23=ORIENTED_EDGE('',*,*,#203,.T.);
#24=ORIENTED_EDGE('',*,*,#204,.F.);
#25=ORIENTED_EDGE('',*,*,#205,.T.);
#26=ORIENTED_EDGE('',*,*,#206,.T.);
#27=ORIENTED_EDGE('',*,*,#207,.T.);
#28=ORIENTED_EDGE('',*,*,#208,.F.);
#29=ORIENTED_EDGE('',*,*,#204,.T.);
#30=ORIENTED_EDGE('',*,*,#209,.T.);
#31=ORIENTED_EDGE('',*,*,#210,.F.);
#32=ORIENTED_EDGE('',*,*,#211,.F.);
#33=ORIENTED_EDGE('',*,*,#212,.F.);
#34=ORIENTED_EDGE('',*,*,#213,.T.);
#35=ORIENTED_EDGE('',*,*,#214,.F.);
#36=ORIENTED_EDGE('',*,*,#215,.F.);
#37=ORIENTED_EDGE('',*,*,#216,.F.);
#38=ORIENTED_EDGE('',*,*,#210,.T.);
#39=ORIENTED_EDGE('',*,*,#217,.T.);
#40=ORIENTED_EDGE('',*,*,#218,.F.);
#41=ORIENTED_EDGE('',*,*,#219,.F.);
#42=ORIENTED_EDGE('',*,*,#220,.F.);
#43=ORIENTED_EDGE('',*,*,#221,.T.);
#44=ORIENTED_EDGE('',*,*,#218,.T.);
#45=ORIENTED_EDGE('',*,*,#222,.F.);
#46=ORIENTED_EDGE('',*,*,#199,.F.);
#47=ORIENTED_EDGE('',*,*,#223,.T.);
#48=ORIENTED_EDGE('',*,*,#224,.F.);
#49=ORIENTED_EDGE('',*,*,#225,.F.);
#50=ORIENTED_EDGE('',*,*,#226,.F.);
#51=ORIENTED_EDGE('',*,*,#227,.T.);
#52=ORIENTED_EDGE('',*,*,#220,.T.);
#53=ORIENTED_EDGE('',*,*,#228,.F.);
#54=ORIENTED_EDGE('',*,*,#229,.F.);
#55=ORIENTED_EDGE('',*,*,#230,.T.);
#56=ORIENTED_EDGE('',*,*,#226,.T.);
#57=ORIENTED_EDGE('',*,*,#231,.F.);
#58=ORIENTED_EDGE('',*,*,#232,.T.);
#59=ORIENTED_EDGE('',*,*,#233,.T.);
#60=ORIENTED_EDGE('',*,*,#197,.T.);
#61=ORIENTED_EDGE('',*,*,#234,.T.);
#62=ORIENTED_EDGE('',*,*,#235,.F.);
#63=ORIENTED_EDGE('',*,*,#236,.F.);
#64=ORIENTED_EDGE('',*,*,#229,.T.);
#65=ORIENTED_EDGE('',*,*,#237,.T.);
#66=ORIENTED_EDGE('',*,*,#238,.F.);
#67=ORIENTED_EDGE('',*,*,#239,.F.);
#68=ORIENTED_EDGE('',*,*,#235,.T.);
#69=ORIENTED_EDGE('',*,*,#240,.F.);
#70=ORIENTED_EDGE('',*,*,#241,.F.);
#71=ORIENTED_EDGE('',*,*,#242,.T.);
#72=ORIENTED_EDGE('',*,*,#238,.T.);
#73=ORIENTED_EDGE('',*,*,#243,.T.);
#74=ORIENTED_EDGE('',*,*,#202,.F.);
#75=ORIENTED_EDGE('',*,*,#244,.F.);
#76=ORIENTED_EDGE('',*,*,#245,.F.);
#77=ORIENTED_EDGE('',*,*,#246,.T.);
#78=ORIENTED_EDGE('',*,*,#247,.F.);
#79=ORIENTED_EDGE('',*,*,#248,.F.);
#80=ORIENTED_EDGE('',*,*,#241,.T.);
#81=ORIENTED_EDGE('',*,*,#247,.T.);
#82=ORIENTED_EDGE('',*,*,#249,.T.);
#83=ORIENTED_EDGE('',*,*,#205,.F.);
#84=ORIENTED_EDGE('',*,*,#250,.F.);
#85=ORIENTED_EDGE('',*,*,#251,.F.);
#86=ORIENTED_EDGE('',*,*,#252,.F.);
#87=ORIENTED_EDGE('',*,*,#253,.T.);
#88=ORIENTED_EDGE('',*,*,#254,.T.);
#89=ORIENTED_EDGE('',*,*,#255,.T.);
#90=ORIENTED_EDGE('',*,*,#212,.T.);
#91=ORIENTED_EDGE('',*,*,#221,.F.);
#92=ORIENTED_EDGE('',*,*,#227,.F.);
#93=ORIENTED_EDGE('',*,*,#230,.F.);
#94=ORIENTED_EDGE('',*,*,#236,.T.);
#95=ORIENTED_EDGE('',*,*,#239,.T.);
#96=ORIENTED_EDGE('',*,*,#242,.F.);
#97=ORIENTED_EDGE('',*,*,#248,.T.);
#98=ORIENTED_EDGE('',*,*,#250,.T.);
#99=ORIENTED_EDGE('',*,*,#211,.T.);
#100=ORIENTED_EDGE('',*,*,#216,.T.);
#101=ORIENTED_EDGE('',*,*,#209,.F.);
#102=ORIENTED_EDGE('',*,*,#203,.F.);
#103=ORIENTED_EDGE('',*,*,#243,.F.);
#104=ORIENTED_EDGE('',*,*,#240,.T.);
#105=ORIENTED_EDGE('',*,*,#237,.F.);
#106=ORIENTED_EDGE('',*,*,#234,.F.);
#107=ORIENTED_EDGE('',*,*,#228,.T.);
#108=ORIENTED_EDGE('',*,*,#200,.T.);
#109=ORIENTED_EDGE('',*,*,#222,.T.);
#110=ORIENTED_EDGE('',*,*,#217,.F.);
#111=ORIENTED_EDGE('',*,*,#256,.F.);
#112=ORIENTED_EDGE('',*,*,#257,.F.);
#113=ORIENTED_EDGE('',*,*,#258,.T.);
#114=ORIENTED_EDGE('',*,*,#245,.T.);
#115=ORIENTED_EDGE('',*,*,#259,.F.);
#116=ORIENTED_EDGE('',*,*,#260,.F.);
#117=ORIENTED_EDGE('',*,*,#261,.T.);
#118=ORIENTED_EDGE('',*,*,#257,.T.);
#119=ORIENTED_EDGE('',*,*,#262,.F.);
#120=ORIENTED_EDGE('',*,*,#263,.F.);
#121=ORIENTED_EDGE('',*,*,#264,.T.);
#122=ORIENTED_EDGE('',*,*,#260,.T.);
#123=ORIENTED_EDGE('',*,*,#265,.F.);
#124=ORIENTED_EDGE('',*,*,#207,.F.);
#125=ORIENTED_EDGE('',*,*,#266,.T.);
#126=ORIENTED_EDGE('',*,*,#263,.T.);
#127=ORIENTED_EDGE('',*,*,#249,.F.);
#128=ORIENTED_EDGE('',*,*,#246,.F.);
#129=ORIENTED_EDGE('',*,*,#258,.F.);
#130=ORIENTED_EDGE('',*,*,#261,.F.);
#131=ORIENTED_EDGE('',*,*,#264,.F.);
#132=ORIENTED_EDGE('',*,*,#266,.F.);
#133=ORIENTED_EDGE('',*,*,#206,.F.);
#134=ORIENTED_EDGE('',*,*,#201,.T.);
#135=ORIENTED_EDGE('',*,*,#208,.T.);
#136=ORIENTED_EDGE('',*,*,#265,.T.);
#137=ORIENTED_EDGE('',*,*,#262,.T.);
#138=ORIENTED_EDGE('',*,*,#259,.T.);
#139=ORIENTED_EDGE('',*,*,#256,.T.);
#140=ORIENTED_EDGE('',*,*,#244,.T.);
#141=ORIENTED_EDGE('',*,*,#267,.T.);
#142=ORIENTED_EDGE('',*,*,#268,.F.);
#143=ORIENTED_EDGE('',*,*,#269,.F.);
#144=ORIENTED_EDGE('',*,*,#224,.T.);
#145=ORIENTED_EDGE('',*,*,#270,.T.);
#146=ORIENTED_EDGE('',*,*,#271,.F.);
#147=ORIENTED_EDGE('',*,*,#272,.F.);
#148=ORIENTED_EDGE('',*,*,#268,.T.);
#149=ORIENTED_EDGE('',*,*,#273,.T.);
#150=ORIENTED_EDGE('',*,*,#274,.F.);
#151=ORIENTED_EDGE('',*,*,#275,.F.);
#152=ORIENTED_EDGE('',*,*,#271,.T.);
#153=ORIENTED_EDGE('',*,*,#276,.T.);
#154=ORIENTED_EDGE('',*,*,#232,.F.);
#155=ORIENTED_EDGE('',*,*,#277,.F.);
#156=ORIENTED_EDGE('',*,*,#274,.T.);
#157=ORIENTED_EDGE('',*,*,#231,.T.);
#158=ORIENTED_EDGE('',*,*,#225,.T.);
#159=ORIENTED_EDGE('',*,*,#219,.T.);
#160=ORIENTED_EDGE('',*,*,#269,.T.);
#161=ORIENTED_EDGE('',*,*,#272,.T.);
#162=ORIENTED_EDGE('',*,*,#275,.T.);
#163=ORIENTED_EDGE('',*,*,#277,.T.);
#164=ORIENTED_EDGE('',*,*,#233,.F.);
#165=ORIENTED_EDGE('',*,*,#276,.F.);
#166=ORIENTED_EDGE('',*,*,#273,.F.);
#167=ORIENTED_EDGE('',*,*,#270,.F.);
#168=ORIENTED_EDGE('',*,*,#267,.F.);
#169=ORIENTED_EDGE('',*,*,#223,.F.);
#170=ORIENTED_EDGE('',*,*,#198,.F.);
#171=ORIENTED_EDGE('',*,*,#251,.T.);
#172=ORIENTED_EDGE('',*,*,#215,.T.);
#173=ORIENTED_EDGE('',*,*,#278,.T.);
#174=ORIENTED_EDGE('',*,*,#279,.F.);
#175=ORIENTED_EDGE('',*,*,#280,.T.);
#176=ORIENTED_EDGE('',*,*,#281,.F.);
#177=ORIENTED_EDGE('',*,*,#213,.F.);
#178=ORIENTED_EDGE('',*,*,#255,.F.);
#179=ORIENTED_EDGE('',*,*,#282,.T.);
#180=ORIENTED_EDGE('',*,*,#283,.F.);
#181=ORIENTED_EDGE('',*,*,#280,.F.);
#182=ORIENTED_EDGE('',*,*,#254,.F.);
#183=ORIENTED_EDGE('',*,*,#284,.T.);
#184=ORIENTED_EDGE('',*,*,#285,.F.);
#185=ORIENTED_EDGE('',*,*,#282,.F.);
#186=ORIENTED_EDGE('',*,*,#253,.F.);
#187=ORIENTED_EDGE('',*,*,#252,.T.);
#188=ORIENTED_EDGE('',*,*,#279,.T.);
#189=ORIENTED_EDGE('',*,*,#286,.T.);
#190=ORIENTED_EDGE('',*,*,#284,.F.);
#191=ORIENTED_EDGE('',*,*,#278,.F.);
#192=ORIENTED_EDGE('',*,*,#214,.T.);
#193=ORIENTED_EDGE('',*,*,#281,.T.);
#194=ORIENTED_EDGE('',*,*,#283,.T.);
#195=ORIENTED_EDGE('',*,*,#285,.T.);
#196=ORIENTED_EDGE('',*,*,#286,.F.);
#197=EDGE_CURVE('',#287,#288,#347,.T.);
#198=EDGE_CURVE('',#287,#289,#348,.T.);
#199=EDGE_CURVE('',#289,#290,#349,.T.);
#200=EDGE_CURVE('',#288,#290,#350,.T.);
#201=EDGE_CURVE('',#291,#292,#351,.T.);
#202=EDGE_CURVE('',#291,#293,#352,.T.);
#203=EDGE_CURVE('',#293,#294,#353,.T.);
#204=EDGE_CURVE('',#292,#294,#354,.T.);
#205=EDGE_CURVE('',#295,#296,#355,.T.);
#206=EDGE_CURVE('',#296,#297,#356,.T.);
#207=EDGE_CURVE('',#297,#298,#357,.T.);
#208=EDGE_CURVE('',#292,#298,#358,.T.);
#209=EDGE_CURVE('',#294,#299,#359,.T.);
#210=EDGE_CURVE('',#300,#299,#360,.T.);
#211=EDGE_CURVE('',#295,#300,#361,.T.);
#212=EDGE_CURVE('',#301,#302,#12,.T.);
#213=EDGE_CURVE('',#301,#303,#362,.T.);
#214=EDGE_CURVE('',#304,#303,#13,.T.);
#215=EDGE_CURVE('',#305,#304,#363,.T.);
#216=EDGE_CURVE('',#300,#305,#14,.T.);
#217=EDGE_CURVE('',#299,#306,#15,.T.);
#218=EDGE_CURVE('',#302,#306,#364,.T.);
#219=EDGE_CURVE('',#307,#308,#365,.T.);
#220=EDGE_CURVE('',#309,#307,#366,.T.);
#221=EDGE_CURVE('',#309,#302,#367,.T.);
#222=EDGE_CURVE('',#290,#306,#368,.T.);
#223=EDGE_CURVE('',#289,#310,#369,.T.);
#224=EDGE_CURVE('',#308,#310,#370,.T.);
#225=EDGE_CURVE('',#311,#307,#371,.T.);
#226=EDGE_CURVE('',#312,#311,#372,.T.);
#227=EDGE_CURVE('',#312,#309,#373,.T.);
#228=EDGE_CURVE('',#313,#288,#374,.T.);
#229=EDGE_CURVE('',#314,#313,#375,.T.);
#230=EDGE_CURVE('',#314,#312,#376,.T.);
#231=EDGE_CURVE('',#315,#311,#377,.T.);
#232=EDGE_CURVE('',#315,#316,#378,.T.);
#233=EDGE_CURVE('',#316,#287,#379,.T.);
#234=EDGE_CURVE('',#313,#317,#380,.T.);
#235=EDGE_CURVE('',#318,#317,#381,.T.);
#236=EDGE_CURVE('',#314,#318,#382,.T.);
#237=EDGE_CURVE('',#317,#319,#383,.T.);
#238=EDGE_CURVE('',#320,#319,#384,.T.);
#239=EDGE_CURVE('',#318,#320,#385,.T.);
#240=EDGE_CURVE('',#321,#319,#386,.T.);
#241=EDGE_CURVE('',#322,#321,#387,.T.);
#242=EDGE_CURVE('',#322,#320,#388,.T.);
#243=EDGE_CURVE('',#321,#293,#389,.T.);
#244=EDGE_CURVE('',#323,#291,#390,.T.);
#245=EDGE_CURVE('',#324,#323,#391,.T.);
#246=EDGE_CURVE('',#324,#325,#392,.T.);
#247=EDGE_CURVE('',#326,#325,#393,.T.);
#248=EDGE_CURVE('',#322,#326,#394,.T.);
#249=EDGE_CURVE('',#325,#296,#395,.T.);
#250=EDGE_CURVE('',#326,#295,#396,.T.);
#251=EDGE_CURVE('',#327,#305,#397,.T.);
#252=EDGE_CURVE('',#328,#327,#398,.T.);
#253=EDGE_CURVE('',#328,#329,#399,.T.);
#254=EDGE_CURVE('',#329,#330,#400,.T.);
#255=EDGE_CURVE('',#330,#301,#401,.T.);
#256=EDGE_CURVE('',#331,#323,#402,.T.);
#257=EDGE_CURVE('',#332,#331,#403,.T.);
#258=EDGE_CURVE('',#332,#324,#404,.T.);
#259=EDGE_CURVE('',#333,#331,#405,.T.);
#260=EDGE_CURVE('',#334,#333,#406,.T.);
#261=EDGE_CURVE('',#334,#332,#407,.T.);
#262=EDGE_CURVE('',#335,#333,#408,.T.);
#263=EDGE_CURVE('',#336,#335,#409,.T.);
#264=EDGE_CURVE('',#336,#334,#410,.T.);
#265=EDGE_CURVE('',#298,#335,#411,.T.);
#266=EDGE_CURVE('',#297,#336,#412,.T.);
#267=EDGE_CURVE('',#310,#337,#413,.T.);
#268=EDGE_CURVE('',#338,#337,#414,.T.);
#269=EDGE_CURVE('',#308,#338,#415,.T.);
#270=EDGE_CURVE('',#337,#339,#416,.T.);
#271=EDGE_CURVE('',#340,#339,#417,.T.);
#272=EDGE_CURVE('',#338,#340,#418,.T.);
#273=EDGE_CURVE('',#339,#341,#419,.T.);
#274=EDGE_CURVE('',#342,#341,#420,.T.);
#275=EDGE_CURVE('',#340,#342,#421,.T.);
#276=EDGE_CURVE('',#341,#316,#422,.T.);
#277=EDGE_CURVE('',#342,#315,#423,.T.);
#278=EDGE_CURVE('',#304,#343,#424,.T.);
#279=EDGE_CURVE('',#327,#343,#425,.T.);
#280=EDGE_CURVE('',#330,#344,#426,.T.);
#281=EDGE_CURVE('',#303,#344,#427,.T.);
#282=EDGE_CURVE('',#329,#345,#428,.T.);
#283=EDGE_CURVE('',#344,#345,#429,.T.);
#284=EDGE_CURVE('',#328,#346,#430,.T.);
#285=EDGE_CURVE('',#345,#346,#431,.T.);
#286=EDGE_CURVE('',#343,#346,#432,.T.);
#287=VERTEX_POINT('',#858);
#288=VERTEX_POINT('',#859);
#289=VERTEX_POINT('',#861);
#290=VERTEX_POINT('',#863);
#291=VERTEX_POINT('',#867);
#292=VERTEX_POINT('',#868);
#293=VERTEX_POINT('',#870);
#294=VERTEX_POINT('',#872);
#295=VERTEX_POINT('',#876);
#296=VERTEX_POINT('',#877);
#297=VERTEX_POINT('',#879);
#298=VERTEX_POINT('',#881);
#299=VERTEX_POINT('',#884);
#300=VERTEX_POINT('',#886);
#301=VERTEX_POINT('',#890);
#302=VERTEX_POINT('',#891);
#303=VERTEX_POINT('',#893);
#304=VERTEX_POINT('',#895);
#305=VERTEX_POINT('',#897);
#306=VERTEX_POINT('',#900);
#307=VERTEX_POINT('',#904);
#308=VERTEX_POINT('',#905);
#309=VERTEX_POINT('',#907);
#310=VERTEX_POINT('',#911);
#311=VERTEX_POINT('',#915);
#312=VERTEX_POINT('',#917);
#313=VERTEX_POINT('',#921);
#314=VERTEX_POINT('',#923);
#315=VERTEX_POINT('',#926);
#316=VERTEX_POINT('',#928);
#317=VERTEX_POINT('',#932);
#318=VERTEX_POINT('',#934);
#319=VERTEX_POINT('',#938);
#320=VERTEX_POINT('',#940);
#321=VERTEX_POINT('',#944);
#322=VERTEX_POINT('',#946);
#323=VERTEX_POINT('',#951);
#324=VERTEX_POINT('',#953);
#325=VERTEX_POINT('',#955);
#326=VERTEX_POINT('',#957);
#327=VERTEX_POINT('',#964);
#328=VERTEX_POINT('',#966);
#329=VERTEX_POINT('',#968);
#330=VERTEX_POINT('',#970);
#331=VERTEX_POINT('',#975);
#332=VERTEX_POINT('',#977);
#333=VERTEX_POINT('',#981);
#334=VERTEX_POINT('',#983);
#335=VERTEX_POINT('',#987);
#336=VERTEX_POINT('',#989);
#337=VERTEX_POINT('',#998);
#338=VERTEX_POINT('',#1000);
#339=VERTEX_POINT('',#1004);
#340=VERTEX_POINT('',#1006);
#341=VERTEX_POINT('',#1010);
#342=VERTEX_POINT('',#1012);
#343=VERTEX_POINT('',#1021);
#344=VERTEX_POINT('',#1025);
#345=VERTEX_POINT('',#1029);
#346=VERTEX_POINT('',#1033);
#347=LINE('',#857,#433);
#348=LINE('',#860,#434);
#349=LINE('',#862,#435);
#350=LINE('',#864,#436);
#351=LINE('',#866,#437);
#352=LINE('',#869,#438);
#353=LINE('',#871,#439);
#354=LINE('',#873,#440);
#355=LINE('',#875,#441);
#356=LINE('',#878,#442);
#357=LINE('',#880,#443);
#358=LINE('',#882,#444);
#359=LINE('',#883,#445);
#360=LINE('',#885,#446);
#361=LINE('',#887,#447);
#362=LINE('',#892,#448);
#363=LINE('',#896,#449);
#364=LINE('',#901,#450);
#365=LINE('',#903,#451);
#366=LINE('',#906,#452);
#367=LINE('',#908,#453);
#368=LINE('',#909,#454);
#369=LINE('',#910,#455);
#370=LINE('',#912,#456);
#371=LINE('',#914,#457);
#372=LINE('',#916,#458);
#373=LINE('',#918,#459);
#374=LINE('',#920,#460);
#375=LINE('',#922,#461);
#376=LINE('',#924,#462);
#377=LINE('',#925,#463);
#378=LINE('',#927,#464);
#379=LINE('',#929,#465);
#380=LINE('',#931,#466);
#381=LINE('',#933,#467);
#382=LINE('',#935,#468);
#383=LINE('',#937,#469);
#384=LINE('',#939,#470);
#385=LINE('',#941,#471);
#386=LINE('',#943,#472);
#387=LINE('',#945,#473);
#388=LINE('',#947,#474);
#389=LINE('',#949,#475);
#390=LINE('',#950,#476);
#391=LINE('',#952,#477);
#392=LINE('',#954,#478);
#393=LINE('',#956,#479);
#394=LINE('',#958,#480);
#395=LINE('',#960,#481);
#396=LINE('',#961,#482);
#397=LINE('',#963,#483);
#398=LINE('',#965,#484);
#399=LINE('',#967,#485);
#400=LINE('',#969,#486);
#401=LINE('',#971,#487);
#402=LINE('',#974,#488);
#403=LINE('',#976,#489);
#404=LINE('',#978,#490);
#405=LINE('',#980,#491);
#406=LINE('',#982,#492);
#407=LINE('',#984,#493);
#408=LINE('',#986,#494);
#409=LINE('',#988,#495);
#410=LINE('',#990,#496);
#411=LINE('',#992,#497);
#412=LINE('',#993,#498);
#413=LINE('',#997,#499);
#414=LINE('',#999,#500);
#415=LINE('',#1001,#501);
#416=LINE('',#1003,#502);
#417=LINE('',#1005,#503);
#418=LINE('',#1007,#504);
#419=LINE('',#1009,#505);
#420=LINE('',#1011,#506);
#421=LINE('',#1013,#507);
#422=LINE('',#1015,#508);
#423=LINE('',#1016,#509);
#424=LINE('',#1020,#510);
#425=LINE('',#1022,#511);
#426=LINE('',#1024,#512);
#427=LINE('',#1026,#513);
#428=LINE('',#1028,#514);
#429=LINE('',#1030,#515);
#430=LINE('',#1032,#516);
#431=LINE('',#1034,#517);
#432=LINE('',#1036,#518);
#433=VECTOR('',#699,1.);
#434=VECTOR('',#700,1.);
#435=VECTOR('',#701,1.);
#436=VECTOR('',#702,1.);
#437=VECTOR('',#705,1.);
#438=VECTOR('',#706,1.);
#439=VECTOR('',#707,1.);
#440=VECTOR('',#708,1.);
#441=VECTOR('',#711,1.);
#442=VECTOR('',#712,1.);
#443=VECTOR('',#713,1.);
#444=VECTOR('',#714,1.);
#445=VECTOR('',#715,1.);
#446=VECTOR('',#716,1.);
#447=VECTOR('',#717,1.);
#448=VECTOR('',#722,1.);
#449=VECTOR('',#725,1.);
#450=VECTOR('',#730,1.);
#451=VECTOR('',#733,1.);
#452=VECTOR('',#734,1.);
#453=VECTOR('',#735,1.);
#454=VECTOR('',#736,1.);
#455=VECTOR('',#737,1.);
#456=VECTOR('',#738,1.);
#457=VECTOR('',#741,1.);
#458=VECTOR('',#742,1.);
#459=VECTOR('',#743,1.);
#460=VECTOR('',#746,1.);
#461=VECTOR('',#747,1.);
#462=VECTOR('',#748,1.);
#463=VECTOR('',#749,1.);
#464=VECTOR('',#750,1.);
#465=VECTOR('',#751,1.);
#466=VECTOR('',#754,1.);
#467=VECTOR('',#755,1.);
#468=VECTOR('',#756,1.);
#469=VECTOR('',#759,1.);
#470=VECTOR('',#760,1.);
#471=VECTOR('',#761,1.);
#472=VECTOR('',#764,1.);
#473=VECTOR('',#765,1.);
#474=VECTOR('',#766,1.);
#475=VECTOR('',#769,1.);
#476=VECTOR('',#770,1.);
#477=VECTOR('',#771,1.);
#478=VECTOR('',#772,1.);
#479=VECTOR('',#773,1.);
#480=VECTOR('',#774,1.);
#481=VECTOR('',#777,1.);
#482=VECTOR('',#778,1.);
#483=VECTOR('',#781,1.);
#484=VECTOR('',#782,1.);
#485=VECTOR('',#783,1.);
#486=VECTOR('',#784,1.);
#487=VECTOR('',#785,1.);
#488=VECTOR('',#790,1.);
#489=VECTOR('',#791,1.);
#490=VECTOR('',#792,1.);
#491=VECTOR('',#795,1.);
#492=VECTOR('',#796,1.);
#493=VECTOR('',#797,1.);
#494=VECTOR('',#800,1.);
#495=VECTOR('',#801,1.);
#496=VECTOR('',#802,1.);
#497=VECTOR('',#805,1.);
#498=VECTOR('',#806,1.);
#499=VECTOR('',#813,1.);
#500=VECTOR('',#814,1.);
#501=VECTOR('',#815,1.);
#502=VECTOR('',#818,1.);
#503=VECTOR('',#819,1.);
#504=VECTOR('',#820,1.);
#505=VECTOR('',#823,1.);
#506=VECTOR('',#824,1.);
#507=VECTOR('',#825,1.);
#508=VECTOR('',#828,1.);
#509=VECTOR('',#829,1.);
#510=VECTOR('',#836,1.);
#511=VECTOR('',#837,1.);
#512=VECTOR('',#840,1.);
#513=VECTOR('',#841,1.);
#514=VECTOR('',#844,1.);
#515=VECTOR('',#845,1.);
#516=VECTOR('',#848,1.);
#517=VECTOR('',#849,1.);
#518=VECTOR('',#852,1.);
#519=EDGE_LOOP('',(#17,#18,#19,#20));
#520=EDGE_LOOP('',(#21,#22,#23,#24));
#521=EDGE_LOOP('',(#25,#26,#27,#28,#29,#30,#31,#32));
#522=EDGE_LOOP('',(#33,#34,#35,#36,#37,#38,#39,#40));
#523=EDGE_LOOP('',(#41,#42,#43,#44,#45,#46,#47,#48));
#524=EDGE_LOOP('',(#49,#50,#51,#52));
#525=EDGE_LOOP('',(#53,#54,#55,#56,#57,#58,#59,#60));
#526=EDGE_LOOP('',(#61,#62,#63,#64));
#527=EDGE_LOOP('',(#65,#66,#67,#68));
#528=EDGE_LOOP('',(#69,#70,#71,#72));
#529=EDGE_LOOP('',(#73,#74,#75,#76,#77,#78,#79,#80));
#530=EDGE_LOOP('',(#81,#82,#83,#84));
#531=EDGE_LOOP('',(#85,#86,#87,#88,#89,#90,#91,#92,#93,#94,#95,#96,#97,
#98,#99,#100));
#532=EDGE_LOOP('',(#101,#102,#103,#104,#105,#106,#107,#108,#109,#110));
#533=EDGE_LOOP('',(#111,#112,#113,#114));
#534=EDGE_LOOP('',(#115,#116,#117,#118));
#535=EDGE_LOOP('',(#119,#120,#121,#122));
#536=EDGE_LOOP('',(#123,#124,#125,#126));
#537=EDGE_LOOP('',(#127,#128,#129,#130,#131,#132,#133));
#538=EDGE_LOOP('',(#134,#135,#136,#137,#138,#139,#140));
#539=EDGE_LOOP('',(#141,#142,#143,#144));
#540=EDGE_LOOP('',(#145,#146,#147,#148));
#541=EDGE_LOOP('',(#149,#150,#151,#152));
#542=EDGE_LOOP('',(#153,#154,#155,#156));
#543=EDGE_LOOP('',(#157,#158,#159,#160,#161,#162,#163));
#544=EDGE_LOOP('',(#164,#165,#166,#167,#168,#169,#170));
#545=EDGE_LOOP('',(#171,#172,#173,#174));
#546=EDGE_LOOP('',(#175,#176,#177,#178));
#547=EDGE_LOOP('',(#179,#180,#181,#182));
#548=EDGE_LOOP('',(#183,#184,#185,#186));
#549=EDGE_LOOP('',(#187,#188,#189,#190));
#550=EDGE_LOOP('',(#191,#192,#193,#194,#195,#196));
#551=FACE_BOUND('',#519,.T.);
#552=FACE_BOUND('',#520,.T.);
#553=FACE_BOUND('',#521,.T.);
#554=FACE_BOUND('',#522,.T.);
#555=FACE_BOUND('',#523,.T.);
#556=FACE_BOUND('',#524,.T.);
#557=FACE_BOUND('',#525,.T.);
#558=FACE_BOUND('',#526,.T.);
#559=FACE_BOUND('',#527,.T.);
#560=FACE_BOUND('',#528,.T.);
#561=FACE_BOUND('',#529,.T.);
#562=FACE_BOUND('',#530,.T.);
#563=FACE_BOUND('',#531,.T.);
#564=FACE_BOUND('',#532,.T.);
#565=FACE_BOUND('',#533,.T.);
#566=FACE_BOUND('',#534,.T.);
#567=FACE_BOUND('',#535,.T.);
#568=FACE_BOUND('',#536,.T.);
#569=FACE_BOUND('',#537,.T.);
#570=FACE_BOUND('',#538,.T.);
#571=FACE_BOUND('',#539,.T.);
#572=FACE_BOUND('',#540,.T.);
#573=FACE_BOUND('',#541,.T.);
#574=FACE_BOUND('',#542,.T.);
#575=FACE_BOUND('',#543,.T.);
#576=FACE_BOUND('',#544,.T.);
#577=FACE_BOUND('',#545,.T.);
#578=FACE_BOUND('',#546,.T.);
#579=FACE_BOUND('',#547,.T.);
#580=FACE_BOUND('',#548,.T.);
#581=FACE_BOUND('',#549,.T.);
#582=FACE_BOUND('',#550,.T.);
#583=PLANE('',#659);
#584=PLANE('',#660);
#585=PLANE('',#661);
#586=PLANE('',#667);
#587=PLANE('',#668);
#588=PLANE('',#669);
#589=PLANE('',#670);
#590=PLANE('',#671);
#591=PLANE('',#672);
#592=PLANE('',#673);
#593=PLANE('',#674);
#594=PLANE('',#675);
#595=PLANE('',#676);
#596=PLANE('',#677);
#597=PLANE('',#678);
#598=PLANE('',#679);
#599=PLANE('',#680);
#600=PLANE('',#681);
#601=PLANE('',#682);
#602=PLANE('',#683);
#603=PLANE('',#684);
#604=PLANE('',#685);
#605=PLANE('',#686);
#606=PLANE('',#687);
#607=PLANE('',#688);
#608=PLANE('',#689);
#609=PLANE('',#690);
#610=PLANE('',#691);
#611=PLANE('',#692);
#612=PLANE('',#693);
#613=PLANE('',#694);
#614=ADVANCED_FACE('',(#551),#583,.T.);
#615=ADVANCED_FACE('',(#552),#584,.F.);
#616=ADVANCED_FACE('',(#553),#585,.F.);
#617=ADVANCED_FACE('',(#554),#16,.T.);
#618=ADVANCED_FACE('',(#555),#586,.T.);
#619=ADVANCED_FACE('',(#556),#587,.T.);
#620=ADVANCED_FACE('',(#557),#588,.T.);
#621=ADVANCED_FACE('',(#558),#589,.F.);
#622=ADVANCED_FACE('',(#559),#590,.F.);
#623=ADVANCED_FACE('',(#560),#591,.T.);
#624=ADVANCED_FACE('',(#561),#592,.F.);
#625=ADVANCED_FACE('',(#562),#593,.F.);
#626=ADVANCED_FACE('',(#563),#594,.T.);
#627=ADVANCED_FACE('',(#564),#595,.F.);
#628=ADVANCED_FACE('',(#565),#596,.T.);
#629=ADVANCED_FACE('',(#566),#597,.T.);
#630=ADVANCED_FACE('',(#567),#598,.T.);
#631=ADVANCED_FACE('',(#568),#599,.T.);
#632=ADVANCED_FACE('',(#569),#600,.T.);
#633=ADVANCED_FACE('',(#570),#601,.F.);
#634=ADVANCED_FACE('',(#571),#602,.F.);
#635=ADVANCED_FACE('',(#572),#603,.F.);
#636=ADVANCED_FACE('',(#573),#604,.F.);
#637=ADVANCED_FACE('',(#574),#605,.F.);
#638=ADVANCED_FACE('',(#575),#606,.T.);
#639=ADVANCED_FACE('',(#576),#607,.F.);
#640=ADVANCED_FACE('',(#577),#608,.F.);
#641=ADVANCED_FACE('',(#578),#609,.T.);
#642=ADVANCED_FACE('',(#579),#610,.T.);
#643=ADVANCED_FACE('',(#580),#611,.T.);
#644=ADVANCED_FACE('',(#581),#612,.F.);
#645=ADVANCED_FACE('',(#582),#613,.T.);
#646=CLOSED_SHELL('',(#614,#615,#616,#617,#618,#619,#620,#621,#622,#623,
#624,#625,#626,#627,#628,#629,#630,#631,#632,#633,#634,#635,#636,#637,#638,
#639,#640,#641,#642,#643,#644,#645));
#647=STYLED_ITEM('',(#648),#655);
#648=PRESENTATION_STYLE_ASSIGNMENT((#649));
#649=SURFACE_STYLE_USAGE(.BOTH.,#650);
#650=SURFACE_SIDE_STYLE('',(#651));
#651=SURFACE_STYLE_FILL_AREA(#652);
#652=FILL_AREA_STYLE('',(#653));
#653=FILL_AREA_STYLE_COLOUR('',#654);
#654=COLOUR_RGB('',0.615686274509804,0.811764705882353,0.929411764705882);
#655=MANIFOLD_SOLID_BREP('Part 1',#646);
#656=SHAPE_DEFINITION_REPRESENTATION(#1044,#657);
#657=SHAPE_REPRESENTATION('Part 1',(#658),#1039);
#658=AXIS2_PLACEMENT_3D('',#855,#695,#696);
#659=AXIS2_PLACEMENT_3D('',#856,#697,#698);
#660=AXIS2_PLACEMENT_3D('',#865,#703,#704);
#661=AXIS2_PLACEMENT_3D('',#874,#709,#710);
#662=AXIS2_PLACEMENT_3D('',#888,#718,#719);
#663=AXIS2_PLACEMENT_3D('',#889,#720,#721);
#664=AXIS2_PLACEMENT_3D('',#894,#723,#724);
#665=AXIS2_PLACEMENT_3D('',#898,#726,#727);
#666=AXIS2_PLACEMENT_3D('',#899,#728,#729);
#667=AXIS2_PLACEMENT_3D('',#902,#731,#732);
#668=AXIS2_PLACEMENT_3D('',#913,#739,#740);
#669=AXIS2_PLACEMENT_3D('',#919,#744,#745);
#670=AXIS2_PLACEMENT_3D('',#930,#752,#753);
#671=AXIS2_PLACEMENT_3D('',#936,#757,#758);
#672=AXIS2_PLACEMENT_3D('',#942,#762,#763);
#673=AXIS2_PLACEMENT_3D('',#948,#767,#768);
#674=AXIS2_PLACEMENT_3D('',#959,#775,#776);
#675=AXIS2_PLACEMENT_3D('',#962,#779,#780);
#676=AXIS2_PLACEMENT_3D('',#972,#786,#787);
#677=AXIS2_PLACEMENT_3D('',#973,#788,#789);
#678=AXIS2_PLACEMENT_3D('',#979,#793,#794);
#679=AXIS2_PLACEMENT_3D('',#985,#798,#799);
#680=AXIS2_PLACEMENT_3D('',#991,#803,#804);
#681=AXIS2_PLACEMENT_3D('',#994,#807,#808);
#682=AXIS2_PLACEMENT_3D('',#995,#809,#810);
#683=AXIS2_PLACEMENT_3D('',#996,#811,#812);
#684=AXIS2_PLACEMENT_3D('',#1002,#816,#817);
#685=AXIS2_PLACEMENT_3D('',#1008,#821,#822);
#686=AXIS2_PLACEMENT_3D('',#1014,#826,#827);
#687=AXIS2_PLACEMENT_3D('',#1017,#830,#831);
#688=AXIS2_PLACEMENT_3D('',#1018,#832,#833);
#689=AXIS2_PLACEMENT_3D('',#1019,#834,#835);
#690=AXIS2_PLACEMENT_3D('',#1023,#838,#839);
#691=AXIS2_PLACEMENT_3D('',#1027,#842,#843);
#692=AXIS2_PLACEMENT_3D('',#1031,#846,#847);
#693=AXIS2_PLACEMENT_3D('',#1035,#850,#851);
#694=AXIS2_PLACEMENT_3D('',#1037,#853,#854);
#695=DIRECTION('',(0.,0.,1.));
#696=DIRECTION('',(1.,0.,0.));
#697=DIRECTION('',(-1.,0.,0.));
#698=DIRECTION('',(0.,0.,1.));
#699=DIRECTION('',(0.,1.,0.));
#700=DIRECTION('',(0.,0.,1.));
#701=DIRECTION('',(0.,1.,0.));
#702=DIRECTION('',(0.,0.,1.));
#703=DIRECTION('',(-1.,0.,0.));
#704=DIRECTION('',(0.,0.,1.));
#705=DIRECTION('',(0.,0.,1.));
#706=DIRECTION('',(0.,1.,0.));
#707=DIRECTION('',(0.,0.,1.));
#708=DIRECTION('',(0.,1.,0.));
#709=DIRECTION('',(0.,0.,-1.));
#710=DIRECTION('',(-1.,0.,0.));
#711=DIRECTION('',(0.,1.,0.));
#712=DIRECTION('',(-1.,0.,0.));
#713=DIRECTION('',(0.,1.,0.));
#714=DIRECTION('',(-1.,0.,0.));
#715=DIRECTION('',(-1.,0.,0.));
#716=DIRECTION('',(0.,1.,0.));
#717=DIRECTION('',(-1.,0.,0.));
#718=DIRECTION('',(0.,1.,0.));
#719=DIRECTION('',(0.,0.,1.));
#720=DIRECTION('',(0.,-1.,0.));
#721=DIRECTION('',(0.,0.,-1.));
#722=DIRECTION('',(0.,1.,0.));
#723=DIRECTION('',(0.,-1.,0.));
#724=DIRECTION('',(0.,0.,-1.));
#725=DIRECTION('',(0.,1.,0.));
#726=DIRECTION('',(0.,-1.,0.));
#727=DIRECTION('',(0.,0.,-1.));
#728=DIRECTION('',(0.,-1.,0.));
#729=DIRECTION('',(0.,0.,-1.));
#730=DIRECTION('',(0.,1.,0.));
#731=DIRECTION('',(0.,0.,1.));
#732=DIRECTION('',(1.,0.,0.));
#733=DIRECTION('',(1.,0.,0.));
#734=DIRECTION('',(0.,1.,0.));
#735=DIRECTION('',(1.,0.,0.));
#736=DIRECTION('',(1.,0.,0.));
#737=DIRECTION('',(1.,0.,0.));
#738=DIRECTION('',(0.,1.,0.));
#739=DIRECTION('',(-1.,0.,0.));
#740=DIRECTION('',(0.,0.,1.));
#741=DIRECTION('',(0.,0.,1.));
#742=DIRECTION('',(0.,1.,0.));
#743=DIRECTION('',(0.,0.,1.));
#744=DIRECTION('',(0.,0.,-1.));
#745=DIRECTION('',(-1.,0.,0.));
#746=DIRECTION('',(-1.,0.,0.));
#747=DIRECTION('',(0.,1.,0.));
#748=DIRECTION('',(-1.,0.,0.));
#749=DIRECTION('',(1.,0.,0.));
#750=DIRECTION('',(0.,1.,0.));
#751=DIRECTION('',(1.,0.,0.));
#752=DIRECTION('',(-1.,0.,0.));
#753=DIRECTION('',(0.,0.,1.));
#754=DIRECTION('',(0.,0.,1.));
#755=DIRECTION('',(0.,1.,0.));
#756=DIRECTION('',(0.,0.,1.));
#757=DIRECTION('',(0.,0.,1.));
#758=DIRECTION('',(1.,0.,0.));
#759=DIRECTION('',(1.,0.,0.));
#760=DIRECTION('',(0.,1.,0.));
#761=DIRECTION('',(1.,0.,0.));
#762=DIRECTION('',(-1.,0.,0.));
#763=DIRECTION('',(0.,0.,1.));
#764=DIRECTION('',(0.,0.,1.));
#765=DIRECTION('',(0.,1.,0.));
#766=DIRECTION('',(0.,0.,1.));
#767=DIRECTION('',(0.,0.,1.));
#768=DIRECTION('',(1.,0.,0.));
#769=DIRECTION('',(1.,0.,0.));
#770=DIRECTION('',(-1.,0.,0.));
#771=DIRECTION('',(0.,1.,0.));
#772=DIRECTION('',(-1.,0.,0.));
#773=DIRECTION('',(0.,1.,0.));
#774=DIRECTION('',(1.,0.,0.));
#775=DIRECTION('',(-1.,0.,0.));
#776=DIRECTION('',(0.,0.,1.));
#777=DIRECTION('',(0.,0.,1.));
#778=DIRECTION('',(0.,0.,1.));
#779=DIRECTION('',(0.,-1.,0.));
#780=DIRECTION('',(1.,0.,0.));
#781=DIRECTION('',(1.,0.,0.));
#782=DIRECTION('',(0.,0.,1.));
#783=DIRECTION('',(-1.,0.,0.));
#784=DIRECTION('',(0.,0.,1.));
#785=DIRECTION('',(-1.,0.,0.));
#786=DIRECTION('',(0.,-1.,0.));
#787=DIRECTION('',(1.,0.,0.));
#788=DIRECTION('',(1.,0.,0.));
#789=DIRECTION('',(0.,0.,-1.));
#790=DIRECTION('',(0.,0.,-1.));
#791=DIRECTION('',(0.,1.,0.));
#792=DIRECTION('',(0.,0.,-1.));
#793=DIRECTION('',(0.928476690885259,0.,0.371390676354104));
#794=DIRECTION('',(0.371390676354104,0.,-0.928476690885259));
#795=DIRECTION('',(0.371390676354104,0.,-0.928476690885259));
#796=DIRECTION('',(0.,1.,0.));
#797=DIRECTION('',(0.371390676354104,0.,-0.928476690885259));
#798=DIRECTION('',(0.,0.,1.));
#799=DIRECTION('',(1.,0.,0.));
#800=DIRECTION('',(1.,0.,0.));
#801=DIRECTION('',(0.,1.,0.));
#802=DIRECTION('',(1.,0.,0.));
#803=DIRECTION('',(-1.,0.,0.));
#804=DIRECTION('',(0.,0.,1.));
#805=DIRECTION('',(0.,0.,1.));
#806=DIRECTION('',(0.,0.,1.));
#807=DIRECTION('',(0.,-1.,0.));
#808=DIRECTION('',(1.,0.,0.));
#809=DIRECTION('',(0.,-1.,0.));
#810=DIRECTION('',(1.,0.,0.));
#811=DIRECTION('',(-1.,0.,0.));
#812=DIRECTION('',(0.,0.,1.));
#813=DIRECTION('',(0.,0.,1.));
#814=DIRECTION('',(0.,1.,0.));
#815=DIRECTION('',(0.,0.,1.));
#816=DIRECTION('',(0.,0.,-1.));
#817=DIRECTION('',(-1.,0.,0.));
#818=DIRECTION('',(-1.,0.,0.));
#819=DIRECTION('',(0.,1.,0.));
#820=DIRECTION('',(-1.,0.,0.));
#821=DIRECTION('',(0.928476690885259,0.,-0.371390676354104));
#822=DIRECTION('',(-0.371390676354104,0.,-0.928476690885259));
#823=DIRECTION('',(-0.371390676354104,0.,-0.928476690885259));
#824=DIRECTION('',(0.,1.,0.));
#825=DIRECTION('',(-0.371390676354104,0.,-0.928476690885259));
#826=DIRECTION('',(1.,0.,0.));
#827=DIRECTION('',(0.,0.,-1.));
#828=DIRECTION('',(0.,0.,-1.));
#829=DIRECTION('',(0.,0.,-1.));
#830=DIRECTION('',(0.,-1.,0.));
#831=DIRECTION('',(1.,0.,0.));
#832=DIRECTION('',(0.,-1.,0.));
#833=DIRECTION('',(1.,0.,0.));
#834=DIRECTION('',(0.,0.,-1.));
#835=DIRECTION('',(-1.,0.,0.));
#836=DIRECTION('',(-1.,0.,0.));
#837=DIRECTION('',(0.,1.,0.));
#838=DIRECTION('',(0.,0.,1.));
#839=DIRECTION('',(1.,0.,0.));
#840=DIRECTION('',(0.,1.,0.));
#841=DIRECTION('',(1.,0.,0.));
#842=DIRECTION('',(1.,0.,0.));
#843=DIRECTION('',(0.,0.,-1.));
#844=DIRECTION('',(0.,1.,0.));
#845=DIRECTION('',(0.,0.,-1.));
#846=DIRECTION('',(0.,0.,1.));
#847=DIRECTION('',(1.,0.,0.));
#848=DIRECTION('',(0.,1.,0.));
#849=DIRECTION('',(1.,0.,0.));
#850=DIRECTION('',(1.,0.,0.));
#851=DIRECTION('',(0.,0.,-1.));
#852=DIRECTION('',(0.,0.,-1.));
#853=DIRECTION('',(0.,-1.,0.));
#854=DIRECTION('',(1.,0.,0.));
#855=CARTESIAN_POINT('',(0.,0.,0.));
#856=CARTESIAN_POINT('',(-0.04,-0.025,0.0275));
#857=CARTESIAN_POINT('',(-0.04,-0.025,0.));
#858=CARTESIAN_POINT('',(-0.04,0.01,0.));
#859=CARTESIAN_POINT('',(-0.04,0.025,0.));
#860=CARTESIAN_POINT('',(-0.04,0.01,0.0275));
#861=CARTESIAN_POINT('',(-0.04,0.01,0.055));
#862=CARTESIAN_POINT('',(-0.04,-0.025,0.055));
#863=CARTESIAN_POINT('',(-0.04,0.025,0.055));
#864=CARTESIAN_POINT('',(-0.04,0.025,0.0275));
#865=CARTESIAN_POINT('',(0.04,-0.025,0.0275));
#866=CARTESIAN_POINT('',(0.04,0.01,0.0275));
#867=CARTESIAN_POINT('',(0.04,0.01,0.));
#868=CARTESIAN_POINT('',(0.04,0.01,0.055));
#869=CARTESIAN_POINT('',(0.04,-0.025,0.));
#870=CARTESIAN_POINT('',(0.04,0.025,0.));
#871=CARTESIAN_POINT('',(0.04,0.025,0.0275));
#872=CARTESIAN_POINT('',(0.04,0.025,0.055));
#873=CARTESIAN_POINT('',(0.04,-0.025,0.055));
#874=CARTESIAN_POINT('',(0.0335,-0.025,0.055));
#875=CARTESIAN_POINT('',(0.04,-0.025,0.055));
#876=CARTESIAN_POINT('',(0.04,-0.025,0.055));
#877=CARTESIAN_POINT('',(0.04,-0.01,0.055));
#878=CARTESIAN_POINT('',(0.0335,-0.01,0.055));
#879=CARTESIAN_POINT('',(0.027,-0.01,0.055));
#880=CARTESIAN_POINT('',(0.027,-0.01,0.055));
#881=CARTESIAN_POINT('',(0.027,0.01,0.055));
#882=CARTESIAN_POINT('',(0.0335,0.01,0.055));
#883=CARTESIAN_POINT('',(0.0335,0.025,0.055));
#884=CARTESIAN_POINT('',(0.02,0.025,0.055));
#885=CARTESIAN_POINT('',(0.02,-0.025,0.055));
#886=CARTESIAN_POINT('',(0.02,-0.025,0.055));
#887=CARTESIAN_POINT('',(0.0335,-0.025,0.055));
#888=CARTESIAN_POINT('',(0.,-0.025,0.055));
#889=CARTESIAN_POINT('',(0.,-0.025,0.055));
#890=CARTESIAN_POINT('',(-0.0173205080756888,-0.025,0.065));
#891=CARTESIAN_POINT('',(-0.02,-0.025,0.055));
#892=CARTESIAN_POINT('',(-0.0173205080756888,-0.141914731033415,0.065));
#893=CARTESIAN_POINT('',(-0.0173205080756888,0.005,0.065));
#894=CARTESIAN_POINT('',(0.,0.005,0.055));
#895=CARTESIAN_POINT('',(0.0173205080756888,0.005,0.065));
#896=CARTESIAN_POINT('',(0.0173205080756888,-0.141914731033415,0.065));
#897=CARTESIAN_POINT('',(0.0173205080756888,-0.025,0.065));
#898=CARTESIAN_POINT('',(0.,-0.025,0.055));
#899=CARTESIAN_POINT('',(0.,0.025,0.055));
#900=CARTESIAN_POINT('',(-0.02,0.025,0.055));
#901=CARTESIAN_POINT('',(-0.02,-0.025,0.055));
#902=CARTESIAN_POINT('',(-0.0235,-0.025,0.055));
#903=CARTESIAN_POINT('',(-0.0335,-0.01,0.055));
#904=CARTESIAN_POINT('',(-0.04,-0.01,0.055));
#905=CARTESIAN_POINT('',(-0.027,-0.01,0.055));
#906=CARTESIAN_POINT('',(-0.04,-0.025,0.055));
#907=CARTESIAN_POINT('',(-0.04,-0.025,0.055));
#908=CARTESIAN_POINT('',(-0.0235,-0.025,0.055));
#909=CARTESIAN_POINT('',(-0.0235,0.025,0.055));
#910=CARTESIAN_POINT('',(-0.0335,0.01,0.055));
#911=CARTESIAN_POINT('',(-0.027,0.01,0.055));
#912=CARTESIAN_POINT('',(-0.027,-0.01,0.055));
#913=CARTESIAN_POINT('',(-0.04,-0.025,0.0275));
#914=CARTESIAN_POINT('',(-0.04,-0.01,0.0275));
#915=CARTESIAN_POINT('',(-0.04,-0.01,0.));
#916=CARTESIAN_POINT('',(-0.04,-0.025,0.));
#917=CARTESIAN_POINT('',(-0.04,-0.025,0.));
#918=CARTESIAN_POINT('',(-0.04,-0.025,0.0275));
#919=CARTESIAN_POINT('',(-0.0345,-0.025,0.));
#920=CARTESIAN_POINT('',(-0.0345,0.025,0.));
#921=CARTESIAN_POINT('',(-0.029,0.025,0.));
#922=CARTESIAN_POINT('',(-0.029,-0.025,0.));
#923=CARTESIAN_POINT('',(-0.029,-0.025,0.));
#924=CARTESIAN_POINT('',(-0.0345,-0.025,0.));
#925=CARTESIAN_POINT('',(-0.049,-0.01,0.));
#926=CARTESIAN_POINT('',(-0.058,-0.01,0.));
#927=CARTESIAN_POINT('',(-0.058,-0.01,0.));
#928=CARTESIAN_POINT('',(-0.058,0.01,0.));
#929=CARTESIAN_POINT('',(-0.049,0.01,0.));
#930=CARTESIAN_POINT('',(-0.029,-0.025,0.016));
#931=CARTESIAN_POINT('',(-0.029,0.025,0.016));
#932=CARTESIAN_POINT('',(-0.029,0.025,0.032));
#933=CARTESIAN_POINT('',(-0.029,-0.025,0.032));
#934=CARTESIAN_POINT('',(-0.029,-0.025,0.032));
#935=CARTESIAN_POINT('',(-0.029,-0.025,0.016));
#936=CARTESIAN_POINT('',(-0.0145,-0.025,0.032));
#937=CARTESIAN_POINT('',(-0.0145,0.025,0.032));
#938=CARTESIAN_POINT('',(0.029,0.025,0.032));
#939=CARTESIAN_POINT('',(0.029,-0.025,0.032));
#940=CARTESIAN_POINT('',(0.029,-0.025,0.032));
#941=CARTESIAN_POINT('',(-0.0145,-0.025,0.032));
#942=CARTESIAN_POINT('',(0.029,-0.025,0.016));
#943=CARTESIAN_POINT('',(0.029,0.025,0.016));
#944=CARTESIAN_POINT('',(0.029,0.025,0.));
#945=CARTESIAN_POINT('',(0.029,-0.025,0.));
#946=CARTESIAN_POINT('',(0.029,-0.025,0.));
#947=CARTESIAN_POINT('',(0.029,-0.025,0.016));
#948=CARTESIAN_POINT('',(0.0345,-0.025,0.));
#949=CARTESIAN_POINT('',(0.0345,0.025,0.));
#950=CARTESIAN_POINT('',(0.049,0.01,0.));
#951=CARTESIAN_POINT('',(0.058,0.01,0.));
#952=CARTESIAN_POINT('',(0.058,-0.01,0.));
#953=CARTESIAN_POINT('',(0.058,-0.01,0.));
#954=CARTESIAN_POINT('',(0.049,-0.01,0.));
#955=CARTESIAN_POINT('',(0.04,-0.01,0.));
#956=CARTESIAN_POINT('',(0.04,-0.025,0.));
#957=CARTESIAN_POINT('',(0.04,-0.025,0.));
#958=CARTESIAN_POINT('',(0.0345,-0.025,0.));
#959=CARTESIAN_POINT('',(0.04,-0.025,0.0275));
#960=CARTESIAN_POINT('',(0.04,-0.01,0.0275));
#961=CARTESIAN_POINT('',(0.04,-0.025,0.0275));
#962=CARTESIAN_POINT('',(0.,-0.025,0.0375));
#963=CARTESIAN_POINT('',(0.,-0.025,0.065));
#964=CARTESIAN_POINT('',(0.008,-0.025,0.065));
#965=CARTESIAN_POINT('',(0.008,-0.025,0.0375));
#966=CARTESIAN_POINT('',(0.008,-0.025,0.055));
#967=CARTESIAN_POINT('',(0.,-0.025,0.055));
#968=CARTESIAN_POINT('',(-0.008,-0.025,0.055));
#969=CARTESIAN_POINT('',(-0.008,-0.025,0.0375));
#970=CARTESIAN_POINT('',(-0.008,-0.025,0.065));
#971=CARTESIAN_POINT('',(0.,-0.025,0.065));
#972=CARTESIAN_POINT('',(0.,0.025,0.0375));
#973=CARTESIAN_POINT('',(0.058,-0.01,0.01));
#974=CARTESIAN_POINT('',(0.058,0.01,0.01));
#975=CARTESIAN_POINT('',(0.058,0.01,0.02));
#976=CARTESIAN_POINT('',(0.058,-0.01,0.02));
#977=CARTESIAN_POINT('',(0.058,-0.01,0.02));
#978=CARTESIAN_POINT('',(0.058,-0.01,0.01));
#979=CARTESIAN_POINT('',(0.049,-0.01,0.0425));
#980=CARTESIAN_POINT('',(0.049,0.01,0.0425));
#981=CARTESIAN_POINT('',(0.04,0.01,0.065));
#982=CARTESIAN_POINT('',(0.04,-0.01,0.065));
#983=CARTESIAN_POINT('',(0.04,-0.01,0.065));
#984=CARTESIAN_POINT('',(0.049,-0.01,0.0425));
#985=CARTESIAN_POINT('',(0.0335,-0.01,0.065));
#986=CARTESIAN_POINT('',(0.0335,0.01,0.065));
#987=CARTESIAN_POINT('',(0.027,0.01,0.065));
#988=CARTESIAN_POINT('',(0.027,-0.01,0.065));
#989=CARTESIAN_POINT('',(0.027,-0.01,0.065));
#990=CARTESIAN_POINT('',(0.0335,-0.01,0.065));
#991=CARTESIAN_POINT('',(0.027,-0.01,0.06));
#992=CARTESIAN_POINT('',(0.027,0.01,0.06));
#993=CARTESIAN_POINT('',(0.027,-0.01,0.06));
#994=CARTESIAN_POINT('',(0.,-0.01,0.0375));
#995=CARTESIAN_POINT('',(0.,0.01,0.0375));
#996=CARTESIAN_POINT('',(-0.027,-0.01,0.06));
#997=CARTESIAN_POINT('',(-0.027,0.01,0.06));
#998=CARTESIAN_POINT('',(-0.027,0.01,0.065));
#999=CARTESIAN_POINT('',(-0.027,-0.01,0.065));
#1000=CARTESIAN_POINT('',(-0.027,-0.01,0.065));
#1001=CARTESIAN_POINT('',(-0.027,-0.01,0.06));
#1002=CARTESIAN_POINT('',(-0.0335,-0.01,0.065));
#1003=CARTESIAN_POINT('',(-0.0335,0.01,0.065));
#1004=CARTESIAN_POINT('',(-0.04,0.01,0.065));
#1005=CARTESIAN_POINT('',(-0.04,-0.01,0.065));
#1006=CARTESIAN_POINT('',(-0.04,-0.01,0.065));
#1007=CARTESIAN_POINT('',(-0.0335,-0.01,0.065));
#1008=CARTESIAN_POINT('',(-0.049,-0.01,0.0425));
#1009=CARTESIAN_POINT('',(-0.049,0.01,0.0425));
#1010=CARTESIAN_POINT('',(-0.058,0.01,0.02));
#1011=CARTESIAN_POINT('',(-0.058,-0.01,0.02));
#1012=CARTESIAN_POINT('',(-0.058,-0.01,0.02));
#1013=CARTESIAN_POINT('',(-0.049,-0.01,0.0425));
#1014=CARTESIAN_POINT('',(-0.058,-0.01,0.01));
#1015=CARTESIAN_POINT('',(-0.058,0.01,0.01));
#1016=CARTESIAN_POINT('',(-0.058,-0.01,0.01));
#1017=CARTESIAN_POINT('',(0.,-0.01,0.0375));
#1018=CARTESIAN_POINT('',(0.,0.01,0.0375));
#1019=CARTESIAN_POINT('',(0.0126602540378444,-0.141914731033415,0.065));
#1020=CARTESIAN_POINT('',(0.0126602540378444,0.005,0.065));
#1021=CARTESIAN_POINT('',(0.008,0.005,0.065));
#1022=CARTESIAN_POINT('',(0.008,-0.141914731033415,0.065));
#1023=CARTESIAN_POINT('',(-0.0126602540378444,-0.141914731033415,0.065));
#1024=CARTESIAN_POINT('',(-0.008,-0.141914731033415,0.065));
#1025=CARTESIAN_POINT('',(-0.008,0.005,0.065));
#1026=CARTESIAN_POINT('',(-0.0126602540378444,0.005,0.065));
#1027=CARTESIAN_POINT('',(-0.008,-0.141914731033415,0.06));
#1028=CARTESIAN_POINT('',(-0.008,-0.141914731033415,0.055));
#1029=CARTESIAN_POINT('',(-0.008,0.005,0.055));
#1030=CARTESIAN_POINT('',(-0.008,0.005,0.06));
#1031=CARTESIAN_POINT('',(-0.004,-0.141914731033415,0.055));
#1032=CARTESIAN_POINT('',(0.008,-0.141914731033415,0.055));
#1033=CARTESIAN_POINT('',(0.008,0.005,0.055));
#1034=CARTESIAN_POINT('',(-0.004,0.005,0.055));
#1035=CARTESIAN_POINT('',(0.008,-0.141914731033415,0.06));
#1036=CARTESIAN_POINT('',(0.008,0.005,0.06));
#1037=CARTESIAN_POINT('',(0.,0.005,0.065));
#1038=MECHANICAL_DESIGN_GEOMETRIC_PRESENTATION_REPRESENTATION('',(#647),
#1039);
#1039=(
GEOMETRIC_REPRESENTATION_CONTEXT(3)
GLOBAL_UNCERTAINTY_ASSIGNED_CONTEXT((#1040))
GLOBAL_UNIT_ASSIGNED_CONTEXT((#1043,#1042,#1041))
REPRESENTATION_CONTEXT('Part 1','TOP_LEVEL_ASSEMBLY_PART')
);
#1040=UNCERTAINTY_MEASURE_WITH_UNIT(LENGTH_MEASURE(1.E-8),#1043,
'DISTANCE_ACCURACY_VALUE','Maximum Tolerance applied to model');
#1041=(
NAMED_UNIT(*)
SI_UNIT($,.STERADIAN.)
SOLID_ANGLE_UNIT()
);
#1042=(
NAMED_UNIT(*)
PLANE_ANGLE_UNIT()
SI_UNIT($,.RADIAN.)
);
#1043=(
LENGTH_UNIT()
NAMED_UNIT(*)
SI_UNIT($,.METRE.)
);
#1044=PRODUCT_DEFINITION_SHAPE('','',#1045);
#1045=PRODUCT_DEFINITION('','',#1047,#1046);
#1046=PRODUCT_DEFINITION_CONTEXT('',#1053,'design');
#1047=PRODUCT_DEFINITION_FORMATION_WITH_SPECIFIED_SOURCE('','',#1049,
 .NOT_KNOWN.);
#1048=PRODUCT_RELATED_PRODUCT_CATEGORY('','',(#1049));
#1049=PRODUCT('Part 1','Part 1','Part 1',(#1051));
#1050=PRODUCT_CATEGORY('','');
#1051=PRODUCT_CONTEXT('',#1053,'mechanical');
#1052=APPLICATION_PROTOCOL_DEFINITION('international standard',
'ap242_managed_model_based_3d_engineering',2020,#1053);
#1053=APPLICATION_CONTEXT('managed model based 3d engineering');
ENDSEC;
END-ISO-10303-21;
