ISO-10303-21;
HEADER;
/* Generated by software containing ST-Developer
 * from STEP Tools, Inc. (www.steptools.com) 
 */
/* OPTION: using custom renumber hook */

FILE_DESCRIPTION(
/* description */ ('STEP AP242 Edition 2',
'CAx-IF Rec.Pracs.---Representation and Presentation of Product Manufa
cturing Information (PMI)---4.0---2014-10-13',
'CAx-IF Rec.Pracs.---3D Tessellated Geometry---0.4---2014-09-14','2;1',
'CAx-IF Rec.Pracs.---User Defined Attributes---1.5---2016-08-15'),
/* implementation_level */ '2;1');

FILE_NAME(
/* name */ 'Part Studio 1',
/* time_stamp */ '2026-08-13T04:42:45Z',
/* author */ (''),
/* organization */ (''),
/* preprocessor_version */ 'ST-DEVELOPER v20',
/* originating_system */ 'ONSHAPE BY PTC INC, 1.219',
/* authorisation */ '  ');

FILE_SCHEMA (('AP242_MANAGED_MODEL_BASED_3D_ENGINEERING_MIM_LF { 1 0 10303 442 3 1 4 }'));
ENDSEC;

DATA;
#10=SHAPE_REPRESENTATION_RELATIONSHIP('','',#329,#11);
#11=ADVANCED_BREP_SHAPE_REPRESENTATION('',(#327),#613);
#12=TOROIDAL_SURFACE('',#362,0.0105,0.0005);
#13=TOROIDAL_SURFACE('',#363,0.0105,0.0005);
#14=CONICAL_SURFACE('',#360,0.01,0.785398163397448);
#15=CONICAL_SURFACE('',#361,0.009,0.785398163397448);
#16=LINE('',#559,#18);
#17=LINE('',#567,#19);
#18=VECTOR('',#411,1.);
#19=VECTOR('',#412,1.);
#20=PLANE('',#337);
#21=PLANE('',#348);
#22=PLANE('',#350);
#23=PLANE('',#352);
#24=PLANE('',#358);
#25=PLANE('',#359);
#26=PLANE('',#366);
#27=PLANE('',#370);
#28=PLANE('',#377);
#29=PLANE('',#378);
#30=CIRCLE('',#332,0.009);
#31=CIRCLE('',#333,0.009);
#32=CIRCLE('',#335,0.0075);
#33=CIRCLE('',#336,0.0075);
#34=CIRCLE('',#338,0.0072);
#35=CIRCLE('',#339,0.009);
#36=CIRCLE('',#341,0.009);
#37=CIRCLE('',#343,0.01);
#38=CIRCLE('',#344,0.01);
#39=CIRCLE('',#346,0.0125);
#40=CIRCLE('',#347,0.0125);
#41=CIRCLE('',#349,0.0105);
#42=CIRCLE('',#351,0.0105);
#43=CIRCLE('',#354,0.01);
#44=CIRCLE('',#355,0.01);
#45=CIRCLE('',#357,0.0072);
#46=CIRCLE('',#365,0.0025);
#47=CIRCLE('',#367,0.0021);
#48=CIRCLE('',#369,0.0025);
#49=CIRCLE('',#371,0.0021);
#50=CIRCLE('',#375,0.011);
#51=CIRCLE('',#376,0.011);
#52=ORIENTED_EDGE('',*,*,#112,.T.);
#53=ORIENTED_EDGE('',*,*,#113,.T.);
#54=ORIENTED_EDGE('',*,*,#114,.T.);
#55=ORIENTED_EDGE('',*,*,#115,.T.);
#56=ORIENTED_EDGE('',*,*,#116,.F.);
#57=ORIENTED_EDGE('',*,*,#117,.T.);
#58=ORIENTED_EDGE('',*,*,#118,.F.);
#59=ORIENTED_EDGE('',*,*,#119,.F.);
#60=ORIENTED_EDGE('',*,*,#120,.F.);
#61=ORIENTED_EDGE('',*,*,#121,.T.);
#62=ORIENTED_EDGE('',*,*,#122,.T.);
#63=ORIENTED_EDGE('',*,*,#121,.F.);
#64=ORIENTED_EDGE('',*,*,#123,.T.);
#65=ORIENTED_EDGE('',*,*,#124,.F.);
#66=ORIENTED_EDGE('',*,*,#125,.T.);
#67=ORIENTED_EDGE('',*,*,#126,.F.);
#68=ORIENTED_EDGE('',*,*,#127,.T.);
#69=ORIENTED_EDGE('',*,*,#128,.T.);
#70=ORIENTED_EDGE('',*,*,#129,.F.);
#71=ORIENTED_EDGE('',*,*,#130,.T.);
#72=ORIENTED_EDGE('',*,*,#131,.T.);
#73=ORIENTED_EDGE('',*,*,#129,.T.);
#74=ORIENTED_EDGE('',*,*,#132,.T.);
#75=ORIENTED_EDGE('',*,*,#130,.F.);
#76=ORIENTED_EDGE('',*,*,#114,.F.);
#77=ORIENTED_EDGE('',*,*,#133,.T.);
#78=ORIENTED_EDGE('',*,*,#134,.T.);
#79=ORIENTED_EDGE('',*,*,#135,.F.);
#80=ORIENTED_EDGE('',*,*,#120,.T.);
#81=ORIENTED_EDGE('',*,*,#116,.T.);
#82=ORIENTED_EDGE('',*,*,#135,.T.);
#83=ORIENTED_EDGE('',*,*,#117,.F.);
#84=ORIENTED_EDGE('',*,*,#113,.F.);
#85=ORIENTED_EDGE('',*,*,#134,.F.);
#86=ORIENTED_EDGE('',*,*,#124,.T.);
#87=ORIENTED_EDGE('',*,*,#122,.F.);
#88=ORIENTED_EDGE('',*,*,#131,.F.);
#89=ORIENTED_EDGE('',*,*,#123,.F.);
#90=ORIENTED_EDGE('',*,*,#133,.F.);
#91=ORIENTED_EDGE('',*,*,#132,.F.);
#92=ORIENTED_EDGE('',*,*,#136,.F.);
#93=ORIENTED_EDGE('',*,*,#118,.T.);
#94=ORIENTED_EDGE('',*,*,#137,.T.);
#95=ORIENTED_EDGE('',*,*,#136,.T.);
#96=ORIENTED_EDGE('',*,*,#112,.F.);
#97=ORIENTED_EDGE('',*,*,#138,.F.);
#98=ORIENTED_EDGE('',*,*,#139,.T.);
#99=ORIENTED_EDGE('',*,*,#138,.T.);
#100=ORIENTED_EDGE('',*,*,#137,.F.);
#101=ORIENTED_EDGE('',*,*,#119,.T.);
#102=ORIENTED_EDGE('',*,*,#115,.F.);
#103=ORIENTED_EDGE('',*,*,#139,.F.);
#104=ORIENTED_EDGE('',*,*,#140,.F.);
#105=ORIENTED_EDGE('',*,*,#125,.F.);
#106=ORIENTED_EDGE('',*,*,#141,.T.);
#107=ORIENTED_EDGE('',*,*,#127,.F.);
#108=ORIENTED_EDGE('',*,*,#126,.T.);
#109=ORIENTED_EDGE('',*,*,#140,.T.);
#110=ORIENTED_EDGE('',*,*,#141,.F.);
#111=ORIENTED_EDGE('',*,*,#128,.F.);
#112=EDGE_CURVE('',#142,#142,#170,.T.);
#113=EDGE_CURVE('',#143,#143,#30,.F.);
#114=EDGE_CURVE('',#144,#144,#31,.T.);
#115=EDGE_CURVE('',#145,#145,#171,.T.);
#116=EDGE_CURVE('',#146,#146,#32,.T.);
#117=EDGE_CURVE('',#147,#147,#33,.T.);
#118=EDGE_CURVE('',#148,#148,#172,.T.);
#119=EDGE_CURVE('',#149,#149,#173,.T.);
#120=EDGE_CURVE('',#150,#150,#34,.T.);
#121=EDGE_CURVE('',#151,#151,#35,.T.);
#122=EDGE_CURVE('',#152,#152,#36,.T.);
#123=EDGE_CURVE('',#153,#153,#37,.T.);
#124=EDGE_CURVE('',#154,#154,#38,.T.);
#125=EDGE_CURVE('',#155,#156,#174,.T.);
#126=EDGE_CURVE('',#157,#156,#16,.F.);
#127=EDGE_CURVE('',#157,#158,#175,.T.);
#128=EDGE_CURVE('',#158,#155,#17,.F.);
#129=EDGE_CURVE('',#159,#159,#39,.T.);
#130=EDGE_CURVE('',#160,#160,#40,.T.);
#131=EDGE_CURVE('',#161,#161,#41,.F.);
#132=EDGE_CURVE('',#162,#162,#42,.T.);
#133=EDGE_CURVE('',#163,#163,#43,.F.);
#134=EDGE_CURVE('',#164,#164,#44,.T.);
#135=EDGE_CURVE('',#165,#165,#45,.T.);
#136=EDGE_CURVE('',#166,#166,#46,.T.);
#137=EDGE_CURVE('',#167,#167,#47,.T.);
#138=EDGE_CURVE('',#168,#168,#48,.T.);
#139=EDGE_CURVE('',#169,#169,#49,.T.);
#140=EDGE_CURVE('',#156,#157,#50,.T.);
#141=EDGE_CURVE('',#155,#158,#51,.T.);
#142=VERTEX_POINT('',#492);
#143=VERTEX_POINT('',#494);
#144=VERTEX_POINT('',#496);
#145=VERTEX_POINT('',#508);
#146=VERTEX_POINT('',#511);
#147=VERTEX_POINT('',#513);
#148=VERTEX_POINT('',#525);
#149=VERTEX_POINT('',#537);
#150=VERTEX_POINT('',#540);
#151=VERTEX_POINT('',#542);
#152=VERTEX_POINT('',#545);
#153=VERTEX_POINT('',#548);
#154=VERTEX_POINT('',#550);
#155=VERTEX_POINT('',#557);
#156=VERTEX_POINT('',#558);
#157=VERTEX_POINT('',#560);
#158=VERTEX_POINT('',#566);
#159=VERTEX_POINT('',#569);
#160=VERTEX_POINT('',#571);
#161=VERTEX_POINT('',#574);
#162=VERTEX_POINT('',#577);
#163=VERTEX_POINT('',#581);
#164=VERTEX_POINT('',#583);
#165=VERTEX_POINT('',#586);
#166=VERTEX_POINT('',#595);
#167=VERTEX_POINT('',#598);
#168=VERTEX_POINT('',#601);
#169=VERTEX_POINT('',#604);
#170=B_SPLINE_CURVE_WITH_KNOTS('',3,(#481,#482,#483,#484,#485,#486,#487,
#488,#489,#490,#491),.UNSPECIFIED.,.T.,.F.,(1,1,1,1,1,1,1,1,1,1,1,1,1,1,
1),(-0.00589041277814391,-0.00392694185209594,-0.00196347092604797,1.70377248511919E-18,
0.00196347092604797,0.00392694185209594,0.00589041277814391,0.00785388370419188,
0.00981735463023984,0.0117808255562878,0.0137442964823358,0.0157077674083838,
0.0176712383344317,0.0196347092604797,0.0215981801865277),.UNSPECIFIED.);
#171=B_SPLINE_CURVE_WITH_KNOTS('',3,(#497,#498,#499,#500,#501,#502,#503,
#504,#505,#506,#507),.UNSPECIFIED.,.T.,.F.,(1,1,1,1,1,1,1,1,1,1,1,1,1,1,
1),(-0.00494055308136254,-0.00329370205424169,-0.00164685102712085,0.,0.00164685102712084,
0.00329370205424169,0.00494055308136253,0.00658740410848338,0.00823425513560422,
0.00988110616272507,0.0115279571898459,0.0131748082169668,0.0148216592440876,
0.0164685102712084,0.0181153612983293),.UNSPECIFIED.);
#172=B_SPLINE_CURVE_WITH_KNOTS('',3,(#514,#515,#516,#517,#518,#519,#520,
#521,#522,#523,#524),.UNSPECIFIED.,.T.,.F.,(1,1,1,1,1,1,1,1,1,1,1,1,1,1,
1),(-0.00590374453187817,-0.00393582968791878,-0.00196791484395939,0.,0.00196791484395939,
0.00393582968791878,0.00590374453187817,0.00787165937583756,0.00983957421979695,
0.0118074890637563,0.0137754039077157,0.0157433187516751,0.0177112335956345,
0.0196791484395939,0.0216470632835533),.UNSPECIFIED.);
#173=B_SPLINE_CURVE_WITH_KNOTS('',3,(#526,#527,#528,#529,#530,#531,#532,
#533,#534,#535,#536),.UNSPECIFIED.,.T.,.F.,(1,1,1,1,1,1,1,1,1,1,1,1,1,1,
1),(-0.00494835341879619,-0.00329890227919746,-0.00164945113959873,4.61960327810051E-18,
0.00164945113959874,0.00329890227919747,0.0049483534187962,0.00659780455839493,
0.00824725569799366,0.00989670683759239,0.0115461579771911,0.0131956091167899,
0.0148450602563886,0.0164945113959873,0.0181439625355861),.UNSPECIFIED.);
#174=B_SPLINE_CURVE_WITH_KNOTS('',3,(#552,#553,#554,#555,#556),
 .UNSPECIFIED.,.F.,.F.,(4,1,4),(0.,0.00406869919343969,0.00813739838687938),
 .UNSPECIFIED.);
#175=B_SPLINE_CURVE_WITH_KNOTS('',3,(#561,#562,#563,#564,#565),
 .UNSPECIFIED.,.F.,.F.,(4,1,4),(0.,0.00406869919343969,0.00813739838687938),
 .UNSPECIFIED.);
#176=EDGE_LOOP('',(#52));
#177=EDGE_LOOP('',(#53));
#178=EDGE_LOOP('',(#54));
#179=EDGE_LOOP('',(#55));
#180=EDGE_LOOP('',(#56));
#181=EDGE_LOOP('',(#57));
#182=EDGE_LOOP('',(#58));
#183=EDGE_LOOP('',(#59));
#184=EDGE_LOOP('',(#60));
#185=EDGE_LOOP('',(#61));
#186=EDGE_LOOP('',(#62));
#187=EDGE_LOOP('',(#63));
#188=EDGE_LOOP('',(#64));
#189=EDGE_LOOP('',(#65));
#190=EDGE_LOOP('',(#66,#67,#68,#69));
#191=EDGE_LOOP('',(#70));
#192=EDGE_LOOP('',(#71));
#193=EDGE_LOOP('',(#72));
#194=EDGE_LOOP('',(#73));
#195=EDGE_LOOP('',(#74));
#196=EDGE_LOOP('',(#75));
#197=EDGE_LOOP('',(#76));
#198=EDGE_LOOP('',(#77));
#199=EDGE_LOOP('',(#78));
#200=EDGE_LOOP('',(#79));
#201=EDGE_LOOP('',(#80));
#202=EDGE_LOOP('',(#81));
#203=EDGE_LOOP('',(#82));
#204=EDGE_LOOP('',(#83));
#205=EDGE_LOOP('',(#84));
#206=EDGE_LOOP('',(#85));
#207=EDGE_LOOP('',(#86));
#208=EDGE_LOOP('',(#87));
#209=EDGE_LOOP('',(#88));
#210=EDGE_LOOP('',(#89));
#211=EDGE_LOOP('',(#90));
#212=EDGE_LOOP('',(#91));
#213=EDGE_LOOP('',(#92));
#214=EDGE_LOOP('',(#93));
#215=EDGE_LOOP('',(#94));
#216=EDGE_LOOP('',(#95));
#217=EDGE_LOOP('',(#96));
#218=EDGE_LOOP('',(#97));
#219=EDGE_LOOP('',(#98));
#220=EDGE_LOOP('',(#99));
#221=EDGE_LOOP('',(#100));
#222=EDGE_LOOP('',(#101));
#223=EDGE_LOOP('',(#102));
#224=EDGE_LOOP('',(#103));
#225=EDGE_LOOP('',(#104,#105,#106,#107));
#226=EDGE_LOOP('',(#108,#109));
#227=EDGE_LOOP('',(#110,#111));
#228=FACE_BOUND('',#176,.T.);
#229=FACE_BOUND('',#177,.T.);
#230=FACE_BOUND('',#178,.T.);
#231=FACE_BOUND('',#179,.T.);
#232=FACE_BOUND('',#180,.T.);
#233=FACE_BOUND('',#181,.T.);
#234=FACE_BOUND('',#182,.T.);
#235=FACE_BOUND('',#183,.T.);
#236=FACE_BOUND('',#184,.T.);
#237=FACE_BOUND('',#185,.T.);
#238=FACE_BOUND('',#186,.T.);
#239=FACE_BOUND('',#187,.T.);
#240=FACE_BOUND('',#188,.T.);
#241=FACE_BOUND('',#189,.T.);
#242=FACE_BOUND('',#190,.T.);
#243=FACE_BOUND('',#191,.T.);
#244=FACE_BOUND('',#192,.T.);
#245=FACE_BOUND('',#193,.T.);
#246=FACE_BOUND('',#194,.T.);
#247=FACE_BOUND('',#195,.T.);
#248=FACE_BOUND('',#196,.T.);
#249=FACE_BOUND('',#197,.T.);
#250=FACE_BOUND('',#198,.T.);
#251=FACE_BOUND('',#199,.T.);
#252=FACE_BOUND('',#200,.T.);
#253=FACE_BOUND('',#201,.T.);
#254=FACE_BOUND('',#202,.T.);
#255=FACE_BOUND('',#203,.T.);
#256=FACE_BOUND('',#204,.T.);
#257=FACE_BOUND('',#205,.T.);
#258=FACE_BOUND('',#206,.T.);
#259=FACE_BOUND('',#207,.T.);
#260=FACE_BOUND('',#208,.T.);
#261=FACE_BOUND('',#209,.T.);
#262=FACE_BOUND('',#210,.T.);
#263=FACE_BOUND('',#211,.T.);
#264=FACE_BOUND('',#212,.T.);
#265=FACE_BOUND('',#213,.T.);
#266=FACE_BOUND('',#214,.T.);
#267=FACE_BOUND('',#215,.T.);
#268=FACE_BOUND('',#216,.T.);
#269=FACE_BOUND('',#217,.T.);
#270=FACE_BOUND('',#218,.T.);
#271=FACE_BOUND('',#219,.T.);
#272=FACE_BOUND('',#220,.T.);
#273=FACE_BOUND('',#221,.T.);
#274=FACE_BOUND('',#222,.T.);
#275=FACE_BOUND('',#223,.T.);
#276=FACE_BOUND('',#224,.T.);
#277=FACE_BOUND('',#225,.T.);
#278=FACE_BOUND('',#226,.T.);
#279=FACE_BOUND('',#227,.T.);
#280=CYLINDRICAL_SURFACE('',#331,0.009);
#281=CYLINDRICAL_SURFACE('',#334,0.0075);
#282=CYLINDRICAL_SURFACE('',#340,0.009);
#283=CYLINDRICAL_SURFACE('',#342,0.01);
#284=CYLINDRICAL_SURFACE('',#345,0.0125);
#285=CYLINDRICAL_SURFACE('',#353,0.01);
#286=CYLINDRICAL_SURFACE('',#356,0.0072);
#287=CYLINDRICAL_SURFACE('',#364,0.0025);
#288=CYLINDRICAL_SURFACE('',#368,0.0025);
#289=CYLINDRICAL_SURFACE('',#372,0.0021);
#290=CYLINDRICAL_SURFACE('',#373,0.0021);
#291=CYLINDRICAL_SURFACE('',#374,0.011);
#292=ADVANCED_FACE('',(#228,#229,#230,#231),#280,.T.);
#293=ADVANCED_FACE('',(#232,#233,#234,#235),#281,.T.);
#294=ADVANCED_FACE('',(#236,#237),#20,.T.);
#295=ADVANCED_FACE('',(#238,#239),#282,.T.);
#296=ADVANCED_FACE('',(#240,#241),#283,.T.);
#297=ADVANCED_FACE('',(#242,#243,#244),#284,.T.);
#298=ADVANCED_FACE('',(#245,#246),#21,.T.);
#299=ADVANCED_FACE('',(#247,#248),#22,.F.);
#300=ADVANCED_FACE('',(#249),#23,.F.);
#301=ADVANCED_FACE('',(#250,#251),#285,.T.);
#302=ADVANCED_FACE('',(#252,#253),#286,.T.);
#303=ADVANCED_FACE('',(#254),#24,.T.);
#304=ADVANCED_FACE('',(#255,#256),#25,.F.);
#305=ADVANCED_FACE('',(#257,#258),#14,.T.);
#306=ADVANCED_FACE('',(#259,#260),#15,.T.);
#307=ADVANCED_FACE('',(#261,#262),#12,.F.);
#308=ADVANCED_FACE('',(#263,#264),#13,.F.);
#309=ADVANCED_FACE('',(#265,#266),#287,.F.);
#310=ADVANCED_FACE('',(#267,#268),#26,.T.);
#311=ADVANCED_FACE('',(#269,#270),#288,.F.);
#312=ADVANCED_FACE('',(#271,#272),#27,.T.);
#313=ADVANCED_FACE('',(#273,#274),#289,.F.);
#314=ADVANCED_FACE('',(#275,#276),#290,.F.);
#315=ADVANCED_FACE('',(#277),#291,.F.);
#316=ADVANCED_FACE('',(#278),#28,.T.);
#317=ADVANCED_FACE('',(#279),#29,.F.);
#318=CLOSED_SHELL('',(#292,#293,#294,#295,#296,#297,#298,#299,#300,#301,
#302,#303,#304,#305,#306,#307,#308,#309,#310,#311,#312,#313,#314,#315,#316,
#317));
#319=STYLED_ITEM('',(#320),#327);
#320=PRESENTATION_STYLE_ASSIGNMENT((#321));
#321=SURFACE_STYLE_USAGE(.BOTH.,#322);
#322=SURFACE_SIDE_STYLE('',(#323));
#323=SURFACE_STYLE_FILL_AREA(#324);
#324=FILL_AREA_STYLE('',(#325));
#325=FILL_AREA_STYLE_COLOUR('',#326);
#326=COLOUR_RGB('',0.615686274509804,0.811764705882353,0.929411764705882);
#327=MANIFOLD_SOLID_BREP('Part 1',#318);
#328=SHAPE_DEFINITION_REPRESENTATION(#618,#329);
#329=SHAPE_REPRESENTATION('Part 1',(#330),#613);
#330=AXIS2_PLACEMENT_3D('',#479,#379,#380);
#331=AXIS2_PLACEMENT_3D('',#480,#381,#382);
#332=AXIS2_PLACEMENT_3D('',#493,#383,#384);
#333=AXIS2_PLACEMENT_3D('',#495,#385,#386);
#334=AXIS2_PLACEMENT_3D('',#509,#387,#388);
#335=AXIS2_PLACEMENT_3D('',#510,#389,#390);
#336=AXIS2_PLACEMENT_3D('',#512,#391,#392);
#337=AXIS2_PLACEMENT_3D('',#538,#393,#394);
#338=AXIS2_PLACEMENT_3D('',#539,#395,#396);
#339=AXIS2_PLACEMENT_3D('',#541,#397,#398);
#340=AXIS2_PLACEMENT_3D('',#543,#399,#400);
#341=AXIS2_PLACEMENT_3D('',#544,#401,#402);
#342=AXIS2_PLACEMENT_3D('',#546,#403,#404);
#343=AXIS2_PLACEMENT_3D('',#547,#405,#406);
#344=AXIS2_PLACEMENT_3D('',#549,#407,#408);
#345=AXIS2_PLACEMENT_3D('',#551,#409,#410);
#346=AXIS2_PLACEMENT_3D('',#568,#413,#414);
#347=AXIS2_PLACEMENT_3D('',#570,#415,#416);
#348=AXIS2_PLACEMENT_3D('',#572,#417,#418);
#349=AXIS2_PLACEMENT_3D('',#573,#419,#420);
#350=AXIS2_PLACEMENT_3D('',#575,#421,#422);
#351=AXIS2_PLACEMENT_3D('',#576,#423,#424);
#352=AXIS2_PLACEMENT_3D('',#578,#425,#426);
#353=AXIS2_PLACEMENT_3D('',#579,#427,#428);
#354=AXIS2_PLACEMENT_3D('',#580,#429,#430);
#355=AXIS2_PLACEMENT_3D('',#582,#431,#432);
#356=AXIS2_PLACEMENT_3D('',#584,#433,#434);
#357=AXIS2_PLACEMENT_3D('',#585,#435,#436);
#358=AXIS2_PLACEMENT_3D('',#587,#437,#438);
#359=AXIS2_PLACEMENT_3D('',#588,#439,#440);
#360=AXIS2_PLACEMENT_3D('',#589,#441,#442);
#361=AXIS2_PLACEMENT_3D('',#590,#443,#444);
#362=AXIS2_PLACEMENT_3D('',#591,#445,#446);
#363=AXIS2_PLACEMENT_3D('',#592,#447,#448);
#364=AXIS2_PLACEMENT_3D('',#593,#449,#450);
#365=AXIS2_PLACEMENT_3D('',#594,#451,#452);
#366=AXIS2_PLACEMENT_3D('',#596,#453,#454);
#367=AXIS2_PLACEMENT_3D('',#597,#455,#456);
#368=AXIS2_PLACEMENT_3D('',#599,#457,#458);
#369=AXIS2_PLACEMENT_3D('',#600,#459,#460);
#370=AXIS2_PLACEMENT_3D('',#602,#461,#462);
#371=AXIS2_PLACEMENT_3D('',#603,#463,#464);
#372=AXIS2_PLACEMENT_3D('',#605,#465,#466);
#373=AXIS2_PLACEMENT_3D('',#606,#467,#468);
#374=AXIS2_PLACEMENT_3D('',#607,#469,#470);
#375=AXIS2_PLACEMENT_3D('',#608,#471,#472);
#376=AXIS2_PLACEMENT_3D('',#609,#473,#474);
#377=AXIS2_PLACEMENT_3D('',#610,#475,#476);
#378=AXIS2_PLACEMENT_3D('',#611,#477,#478);
#379=DIRECTION('',(0.,0.,1.));
#380=DIRECTION('',(1.,0.,0.));
#381=DIRECTION('',(0.,-1.,0.));
#382=DIRECTION('',(0.,0.,-1.));
#383=DIRECTION('',(0.,-1.,0.));
#384=DIRECTION('',(0.,0.,-1.));
#385=DIRECTION('',(0.,-1.,0.));
#386=DIRECTION('',(0.,0.,-1.));
#387=DIRECTION('',(0.,1.,0.));
#388=DIRECTION('',(0.,0.,1.));
#389=DIRECTION('',(0.,-1.,0.));
#390=DIRECTION('',(0.,0.,-1.));
#391=DIRECTION('',(0.,-1.,0.));
#392=DIRECTION('',(0.,0.,-1.));
#393=DIRECTION('',(0.,-1.,0.));
#394=DIRECTION('',(1.,0.,0.));
#395=DIRECTION('',(0.,-1.,0.));
#396=DIRECTION('',(0.,0.,-1.));
#397=DIRECTION('',(0.,-1.,0.));
#398=DIRECTION('',(0.,0.,-1.));
#399=DIRECTION('',(0.,1.,0.));
#400=DIRECTION('',(0.,0.,1.));
#401=DIRECTION('',(0.,-1.,0.));
#402=DIRECTION('',(0.,0.,-1.));
#403=DIRECTION('',(0.,1.,0.));
#404=DIRECTION('',(0.,0.,1.));
#405=DIRECTION('',(0.,-1.,0.));
#406=DIRECTION('',(0.,0.,-1.));
#407=DIRECTION('',(0.,-1.,0.));
#408=DIRECTION('',(0.,0.,-1.));
#409=DIRECTION('',(0.,1.,0.));
#410=DIRECTION('',(0.,0.,1.));
#411=DIRECTION('',(0.,1.,0.));
#412=DIRECTION('',(0.,1.,0.));
#413=DIRECTION('',(0.,-1.,0.));
#414=DIRECTION('',(0.,0.,-1.));
#415=DIRECTION('',(0.,-1.,0.));
#416=DIRECTION('',(0.,0.,-1.));
#417=DIRECTION('',(0.,-1.,0.));
#418=DIRECTION('',(1.,0.,0.));
#419=DIRECTION('',(0.,-1.,0.));
#420=DIRECTION('',(0.,0.,-1.));
#421=DIRECTION('',(0.,-1.,0.));
#422=DIRECTION('',(1.,0.,0.));
#423=DIRECTION('',(0.,-1.,0.));
#424=DIRECTION('',(0.,0.,-1.));
#425=DIRECTION('',(0.,-1.,0.));
#426=DIRECTION('',(1.,0.,0.));
#427=DIRECTION('',(0.,-1.,0.));
#428=DIRECTION('',(0.,0.,-1.));
#429=DIRECTION('',(0.,-1.,0.));
#430=DIRECTION('',(0.,0.,-1.));
#431=DIRECTION('',(0.,-1.,0.));
#432=DIRECTION('',(0.,0.,-1.));
#433=DIRECTION('',(0.,1.,0.));
#434=DIRECTION('',(0.,0.,1.));
#435=DIRECTION('',(0.,-1.,0.));
#436=DIRECTION('',(0.,0.,-1.));
#437=DIRECTION('',(0.,-1.,0.));
#438=DIRECTION('',(1.,0.,0.));
#439=DIRECTION('',(0.,-1.,0.));
#440=DIRECTION('',(1.,0.,0.));
#441=DIRECTION('',(0.,-1.,0.));
#442=DIRECTION('',(0.,0.,-1.));
#443=DIRECTION('',(0.,1.,0.));
#444=DIRECTION('',(0.,0.,1.));
#445=DIRECTION('',(0.,-1.,0.));
#446=DIRECTION('',(0.,0.,-1.));
#447=DIRECTION('',(0.,-1.,0.));
#448=DIRECTION('',(0.,0.,-1.));
#449=DIRECTION('',(0.,0.,-1.));
#450=DIRECTION('',(-1.,0.,0.));
#451=DIRECTION('',(0.,0.,-1.));
#452=DIRECTION('',(-1.,0.,0.));
#453=DIRECTION('',(0.,0.,-1.));
#454=DIRECTION('',(-1.,0.,0.));
#455=DIRECTION('',(0.,0.,1.));
#456=DIRECTION('',(1.,0.,0.));
#457=DIRECTION('',(0.,0.,-1.));
#458=DIRECTION('',(-1.,0.,0.));
#459=DIRECTION('',(0.,0.,-1.));
#460=DIRECTION('',(-1.,0.,0.));
#461=DIRECTION('',(0.,0.,-1.));
#462=DIRECTION('',(-1.,0.,0.));
#463=DIRECTION('',(0.,0.,1.));
#464=DIRECTION('',(1.,0.,0.));
#465=DIRECTION('',(0.,0.,1.));
#466=DIRECTION('',(1.,0.,0.));
#467=DIRECTION('',(0.,0.,1.));
#468=DIRECTION('',(1.,0.,0.));
#469=DIRECTION('',(1.,0.,0.));
#470=DIRECTION('',(0.,0.,-1.));
#471=DIRECTION('',(1.,0.,0.));
#472=DIRECTION('',(0.,0.,-1.));
#473=DIRECTION('',(1.,0.,0.));
#474=DIRECTION('',(0.,0.,-1.));
#475=DIRECTION('',(1.,0.,0.));
#476=DIRECTION('',(0.,1.,0.));
#477=DIRECTION('',(1.,0.,0.));
#478=DIRECTION('',(0.,1.,0.));
#479=CARTESIAN_POINT('',(0.,0.,0.));
#480=CARTESIAN_POINT('',(0.,0.074,5.51091059616309E-19));
#481=CARTESIAN_POINT('',(0.00196071162515631,0.0659574320342856,-0.00882610754538494));
#482=CARTESIAN_POINT('',(-2.7562181341553E-7,0.0667712816383704,-0.00908690082698544));
#483=CARTESIAN_POINT('',(-0.00195960913790264,0.0659574414122329,-0.00882628914667328));
#484=CARTESIAN_POINT('',(-0.00277039481322753,0.0640030485697613,-0.00855552845145583));
#485=CARTESIAN_POINT('',(-0.00195880840943826,0.0620401618828631,-0.00882644737010633));
#486=CARTESIAN_POINT('',(-1.36342705251743E-6,0.061230092355575,-0.00908669169359334));
#487=CARTESIAN_POINT('',(0.00195786037340485,0.0620394700609145,-0.00882678547605428));
#488=CARTESIAN_POINT('',(0.00277035669547379,0.0639992623107579,-0.00855548918214317));
#489=CARTESIAN_POINT('',(0.00196071162515631,0.0659574320342856,-0.00882610754538494));
#490=CARTESIAN_POINT('',(-2.7562181341553E-7,0.0667712816383704,-0.00908690082698544));
#491=CARTESIAN_POINT('',(-0.00195960913790264,0.0659574414122329,-0.00882628914667328));
#492=CARTESIAN_POINT('',(1.75445609531805E-18,0.0665,-0.009));
#493=CARTESIAN_POINT('',(0.,0.054,5.51091059616309E-19));
#494=CARTESIAN_POINT('',(0.,0.054,-0.009));
#495=CARTESIAN_POINT('',(0.,0.074,5.51091059616309E-19));
#496=CARTESIAN_POINT('',(0.,0.074,-0.009));
#497=CARTESIAN_POINT('',(0.00164427725170846,0.0656470888831554,0.00887777847876353));
#498=CARTESIAN_POINT('',(0.0023277804837506,0.0639996715879272,0.00868851391625234));
#499=CARTESIAN_POINT('',(0.00164460081328914,0.0623542247651359,0.00887759358116051));
#500=CARTESIAN_POINT('',(2.30885212537751E-6,0.0616728311790632,0.00906121652609939));
#501=CARTESIAN_POINT('',(-0.00164612100010486,0.0623544528807005,0.0088775397632878));
#502=CARTESIAN_POINT('',(-0.00232663622131248,0.0639990778423169,0.00868867586628193));
#503=CARTESIAN_POINT('',(-0.00164733299749749,0.0656439298927583,0.00887718476458512));
#504=CARTESIAN_POINT('',(-1.07417789500439E-6,0.0663272447697256,0.00906125906402712));
#505=CARTESIAN_POINT('',(0.00164427725170846,0.0656470888831554,0.00887777847876353));
#506=CARTESIAN_POINT('',(0.0023277804837506,0.0639996715879272,0.00868851391625234));
#507=CARTESIAN_POINT('',(0.00164460081328914,0.0623542247651359,0.00887759358116051));
#508=CARTESIAN_POINT('',(0.0021,0.064,0.0087515712874889));
#509=CARTESIAN_POINT('',(0.,-0.081,4.59242549680257E-19));
#510=CARTESIAN_POINT('',(0.,-0.081,4.59242549680257E-19));
#511=CARTESIAN_POINT('',(0.,-0.081,-0.0075));
#512=CARTESIAN_POINT('',(0.,-0.0667,4.59242549680257E-19));
#513=CARTESIAN_POINT('',(0.,-0.0667,-0.0075));
#514=CARTESIAN_POINT('',(-0.00195893378003294,-0.0751589694228556,-0.00729182536440824));
#515=CARTESIAN_POINT('',(-0.00277078166515806,-0.0732000485019745,-0.00696067504499157));
#516=CARTESIAN_POINT('',(-0.00195793955933484,-0.0712408365692466,-0.00729188132681831));
#517=CARTESIAN_POINT('',(-3.24698502279181E-6,-0.070429188735556,-0.00760413647640815));
#518=CARTESIAN_POINT('',(0.00196095937639208,-0.0712424118006457,-0.00729157166351045));
#519=CARTESIAN_POINT('',(0.00276969419527679,-0.0731982466214021,-0.00696082265845008));
#520=CARTESIAN_POINT('',(0.00196026256706509,-0.0751584159989135,-0.00729154502481665));
#521=CARTESIAN_POINT('',(-1.06819079415121E-7,-0.075970653637785,-0.00760415740043622));
#522=CARTESIAN_POINT('',(-0.00195893378003294,-0.0751589694228556,-0.00729182536440824));
#523=CARTESIAN_POINT('',(-0.00277078166515806,-0.0732000485019745,-0.00696067504499157));
#524=CARTESIAN_POINT('',(-0.00195793955933484,-0.0712408365692466,-0.00729188132681831));
#525=CARTESIAN_POINT('',(-0.0025,-0.0732,-0.00707106781186547));
#526=CARTESIAN_POINT('',(-0.00164697901637329,-0.074844254776575,0.00735276725149521));
#527=CARTESIAN_POINT('',(2.24555058580563E-7,-0.0755278762417894,0.00757357916148209));
#528=CARTESIAN_POINT('',(0.00164608079613897,-0.0748442402562673,0.00735291610257644));
#529=CARTESIAN_POINT('',(0.0023271329533725,-0.0732025724142015,0.0071235077960104));
#530=CARTESIAN_POINT('',(0.00164538468780026,-0.0715537226487194,0.0073530535016317));
#531=CARTESIAN_POINT('',(1.15708676215244E-6,-0.070873274905367,0.00757340368084873));
#532=CARTESIAN_POINT('',(-0.00164463612769315,-0.0715531788770798,0.0073533314537386));
#533=CARTESIAN_POINT('',(-0.00232709597124999,-0.0731994049700937,0.00712347539448879));
#534=CARTESIAN_POINT('',(-0.00164697901637329,-0.074844254776575,0.00735276725149521));
#535=CARTESIAN_POINT('',(2.24555058580563E-7,-0.0755278762417894,0.00757357916148209));
#536=CARTESIAN_POINT('',(0.00164608079613897,-0.0748442402562673,0.00735291610257644));
#537=CARTESIAN_POINT('',(4.75708003663651E-18,-0.0753,0.0075));
#538=CARTESIAN_POINT('',(0.,-0.0652,0.));
#539=CARTESIAN_POINT('',(0.,-0.0652,9.91963907309356E-19));
#540=CARTESIAN_POINT('',(0.,-0.0652,-0.0072));
#541=CARTESIAN_POINT('',(0.,-0.0652,5.51091059616309E-19));
#542=CARTESIAN_POINT('',(0.,-0.0652,-0.009));
#543=CARTESIAN_POINT('',(0.,-0.0652,5.51091059616309E-19));
#544=CARTESIAN_POINT('',(0.,-0.0322,5.51091059616309E-19));
#545=CARTESIAN_POINT('',(0.,-0.0322,-0.009));
#546=CARTESIAN_POINT('',(0.,-0.0312,6.12323399573677E-19));
#547=CARTESIAN_POINT('',(0.,-0.0182,6.12323399573677E-19));
#548=CARTESIAN_POINT('',(0.,-0.0182,-0.01));
#549=CARTESIAN_POINT('',(0.,-0.0312,6.12323399573677E-19));
#550=CARTESIAN_POINT('',(0.,-0.0312,-0.01));
#551=CARTESIAN_POINT('',(0.,-0.0177,7.65404249467096E-19));
#552=CARTESIAN_POINT('',(0.004,-0.00955081604725558,0.011842719282327));
#553=CARTESIAN_POINT('',(0.0027171796228746,-0.00979839300382564,0.0122760050325144));
#554=CARTESIAN_POINT('',(2.30441228969138E-6,-0.0099965807189002,0.0127240384819175));
#555=CARTESIAN_POINT('',(-0.00271743784786439,-0.00979834316788741,0.0122759178143735));
#556=CARTESIAN_POINT('',(-0.004,-0.00955081604725558,0.011842719282327));
#557=CARTESIAN_POINT('',(0.004,-0.00955081604725558,0.011842719282327));
#558=CARTESIAN_POINT('',(-0.004,-0.00955081604725558,0.011842719282327));
#559=CARTESIAN_POINT('',(-0.004,-0.0177,0.011842719282327));
#560=CARTESIAN_POINT('',(-0.004,0.00955081604725557,0.011842719282327));
#561=CARTESIAN_POINT('',(-0.004,0.00955081604725557,0.011842719282327));
#562=CARTESIAN_POINT('',(-0.0027171796228746,0.00979839300382563,0.0122760050325144));
#563=CARTESIAN_POINT('',(-2.30441228969138E-6,0.00999658071890019,0.0127240384819175));
#564=CARTESIAN_POINT('',(0.00271743784786439,0.0097983431678874,0.0122759178143735));
#565=CARTESIAN_POINT('',(0.004,0.00955081604725557,0.011842719282327));
#566=CARTESIAN_POINT('',(0.004,0.00955081604725557,0.011842719282327));
#567=CARTESIAN_POINT('',(0.004,-0.0177,0.011842719282327));
#568=CARTESIAN_POINT('',(0.,-0.0177,7.65404249467096E-19));
#569=CARTESIAN_POINT('',(0.,-0.0177,-0.0125));
#570=CARTESIAN_POINT('',(0.,0.018,7.65404249467096E-19));
#571=CARTESIAN_POINT('',(0.,0.018,-0.0125));
#572=CARTESIAN_POINT('',(0.,-0.0177,0.));
#573=CARTESIAN_POINT('',(0.,-0.0177,6.12323399573677E-19));
#574=CARTESIAN_POINT('',(0.,-0.0177,-0.0105));
#575=CARTESIAN_POINT('',(0.,0.018,0.));
#576=CARTESIAN_POINT('',(0.,0.018,6.12323399573677E-19));
#577=CARTESIAN_POINT('',(0.,0.018,-0.0105));
#578=CARTESIAN_POINT('',(0.,0.074,0.));
#579=CARTESIAN_POINT('',(0.,0.053,6.12323399573677E-19));
#580=CARTESIAN_POINT('',(0.,0.0185,6.12323399573677E-19));
#581=CARTESIAN_POINT('',(0.,0.0185,-0.01));
#582=CARTESIAN_POINT('',(0.,0.053,6.12323399573677E-19));
#583=CARTESIAN_POINT('',(0.,0.053,-0.01));
#584=CARTESIAN_POINT('',(0.,-0.0667,9.91963907309356E-19));
#585=CARTESIAN_POINT('',(0.,-0.0667,9.91963907309356E-19));
#586=CARTESIAN_POINT('',(0.,-0.0667,-0.0072));
#587=CARTESIAN_POINT('',(0.,-0.081,0.));
#588=CARTESIAN_POINT('',(0.,-0.0667,0.));
#589=CARTESIAN_POINT('',(0.,0.053,5.51091059616309E-19));
#590=CARTESIAN_POINT('',(0.,-0.0322,5.51091059616309E-19));
#591=CARTESIAN_POINT('',(0.,-0.0182,6.12323399573677E-19));
#592=CARTESIAN_POINT('',(0.,0.0185,6.12323399573677E-19));
#593=CARTESIAN_POINT('',(0.,-0.0732,0.));
#594=CARTESIAN_POINT('',(0.,-0.0732,0.));
#595=CARTESIAN_POINT('',(-0.0025,-0.0732,0.));
#596=CARTESIAN_POINT('',(0.,-0.0732,0.));
#597=CARTESIAN_POINT('',(0.,-0.0732,0.));
#598=CARTESIAN_POINT('',(0.0021,-0.0732,0.));
#599=CARTESIAN_POINT('',(-2.36350332938911E-19,0.064,0.));
#600=CARTESIAN_POINT('',(-2.36350332938911E-19,0.064,0.));
#601=CARTESIAN_POINT('',(-0.0025,0.064,0.));
#602=CARTESIAN_POINT('',(-2.36350332938911E-19,0.064,0.));
#603=CARTESIAN_POINT('',(-2.36350332938911E-19,0.064,0.));
#604=CARTESIAN_POINT('',(0.0021,0.064,0.));
#605=CARTESIAN_POINT('',(0.,-0.0732,0.));
#606=CARTESIAN_POINT('',(-2.36350332938911E-19,0.064,0.));
#607=CARTESIAN_POINT('',(-0.004,-4.33680868994202E-18,0.0173));
#608=CARTESIAN_POINT('',(-0.004,-4.33680868994202E-18,0.0173));
#609=CARTESIAN_POINT('',(0.004,-4.33680868994202E-18,0.0173));
#610=CARTESIAN_POINT('',(-0.004,3.46944695195361E-18,0.0094));
#611=CARTESIAN_POINT('',(0.004,3.46944695195361E-18,0.0094));
#612=MECHANICAL_DESIGN_GEOMETRIC_PRESENTATION_REPRESENTATION('',(#319),
#613);
#613=(
GEOMETRIC_REPRESENTATION_CONTEXT(3)
GLOBAL_UNCERTAINTY_ASSIGNED_CONTEXT((#614))
GLOBAL_UNIT_ASSIGNED_CONTEXT((#617,#616,#615))
REPRESENTATION_CONTEXT('Part 1','TOP_LEVEL_ASSEMBLY_PART')
);
#614=UNCERTAINTY_MEASURE_WITH_UNIT(LENGTH_MEASURE(2.E-5),#617,
'DISTANCE_ACCURACY_VALUE','Maximum Tolerance applied to model');
#615=(
NAMED_UNIT(*)
SI_UNIT($,.STERADIAN.)
SOLID_ANGLE_UNIT()
);
#616=(
NAMED_UNIT(*)
PLANE_ANGLE_UNIT()
SI_UNIT($,.RADIAN.)
);
#617=(
LENGTH_UNIT()
NAMED_UNIT(*)
SI_UNIT($,.METRE.)
);
#618=PRODUCT_DEFINITION_SHAPE('','',#619);
#619=PRODUCT_DEFINITION('','',#621,#620);
#620=PRODUCT_DEFINITION_CONTEXT('',#627,'design');
#621=PRODUCT_DEFINITION_FORMATION_WITH_SPECIFIED_SOURCE('','',#623,
 .NOT_KNOWN.);
#622=PRODUCT_RELATED_PRODUCT_CATEGORY('','',(#623));
#623=PRODUCT('Part 1','Part 1','Part 1',(#625));
#624=PRODUCT_CATEGORY('','');
#625=PRODUCT_CONTEXT('',#627,'mechanical');
#626=APPLICATION_PROTOCOL_DEFINITION('international standard',
'ap242_managed_model_based_3d_engineering',2020,#627);
#627=APPLICATION_CONTEXT('managed model based 3d engineering');
ENDSEC;
END-ISO-10303-21;
