ISO-10303-21;
HEADER;
/* Generated by software containing ST-Developer
 * from STEP Tools, Inc. (www.steptools.com) 
 */
/* OPTION: using custom renumber hook */

FILE_DESCRIPTION(
/* description */ ('STEP AP242 Edition 2',
'CAx-IF Rec.Pracs.---Representation and Presentation of Product Manufa
cturing Information (PMI)---4.0---2014-10-13',
'CAx-IF Rec.Pracs.---3D Tessellated Geometry---0.4---2014-09-14','2;1',
'CAx-IF Rec.Pracs.---User Defined Attributes---1.5---2016-08-15'),
/* implementation_level */ '2;1');

FILE_NAME(
/* name */ 'Part Studio 1',
/* time_stamp */ '2026-07-27T18:13:49Z',
/* author */ (''),
/* organization */ (''),
/* preprocessor_version */ 'ST-DEVELOPER v20',
/* originating_system */ 'ONSHAPE BY PTC INC, 1.218',
/* authorisation */ '  ');

FILE_SCHEMA (('AP242_MANAGED_MODEL_BASED_3D_ENGINEERING_MIM_LF { 1 0 10303 442 3 1 4 }'));
ENDSEC;

DATA;
#10=SHAPE_REPRESENTATION_RELATIONSHIP('','',#196,#11);
#11=ADVANCED_BREP_SHAPE_REPRESENTATION('',(#194),#401);
#12=PLANE('',#208);
#13=PLANE('',#210);
#14=VERTEX_LOOP('',#94);
#15=CONICAL_SURFACE('',#207,0.0075,1.02974425867665);
#16=CONICAL_SURFACE('',#211,0.012,0.785398163397448);
#17=CONICAL_SURFACE('',#212,0.003,1.02974425867665);
#18=B_SPLINE_CURVE_WITH_KNOTS('',3,(#263,#264,#265,#266,#267,#268,#269,
#270,#271,#272,#273),.UNSPECIFIED.,.T.,.F.,(1,1,1,1,1,1,1,1,1,1,1,1,1,1,
1),(-0.00234531850820106,-0.00156354567213404,-0.000781772836067019,7.55347665819152E-19,
0.00078177283606702,0.00156354567213404,0.00234531850820106,0.00312709134426808,
0.0039088641803351,0.00469063701640212,0.00547240985246913,0.00625418268853615,
0.00703595552460317,0.00781772836067019,0.00859950119673721),
 .UNSPECIFIED.);
#19=B_SPLINE_CURVE_WITH_KNOTS('',3,(#275,#276,#277,#278,#279,#280,#281,
#282,#283,#284,#285),.UNSPECIFIED.,.T.,.F.,(1,1,1,1,1,1,1,1,1,1,1,1,1,1,
1),(-0.00234531850820106,-0.00156354567213404,-0.000781772836067019,7.65558282710472E-19,
0.000781772836067021,0.00156354567213404,0.00234531850820106,0.00312709134426808,
0.0039088641803351,0.00469063701640212,0.00547240985246914,0.00625418268853616,
0.00703595552460318,0.0078177283606702,0.00859950119673722),
 .UNSPECIFIED.);
#20=B_SPLINE_CURVE_WITH_KNOTS('',3,(#287,#288,#289,#290,#291,#292,#293,
#294,#295,#296,#297),.UNSPECIFIED.,.T.,.F.,(1,1,1,1,1,1,1,1,1,1,1,1,1,1,
1),(-0.00587315274538562,-0.00391543516359041,-0.00195771758179521,8.65245682877292E-20,
0.00195771758179521,0.00391543516359041,0.00587315274538562,0.00783087032718083,
0.00978858790897603,0.0117463054907712,0.0137040230725664,0.0156617406543617,
0.0176194582361569,0.0195771758179521,0.0215348933997473),.UNSPECIFIED.);
#21=B_SPLINE_CURVE_WITH_KNOTS('',3,(#299,#300,#301,#302,#303,#304,#305,
#306,#307,#308,#309),.UNSPECIFIED.,.T.,.F.,(1,1,1,1,1,1,1,1,1,1,1,1,1,1,
1),(-0.00587315274538562,-0.00391543516359041,-0.00195771758179521,3.32968591109722E-20,
0.00195771758179521,0.00391543516359041,0.00587315274538562,0.00783087032718083,
0.00978858790897603,0.0117463054907712,0.0137040230725664,0.0156617406543617,
0.0176194582361569,0.0195771758179521,0.0215348933997473),.UNSPECIFIED.);
#22=B_SPLINE_CURVE_WITH_KNOTS('',3,(#312,#313,#314,#315,#316,#317,#318,
#319,#320,#321,#322),.UNSPECIFIED.,.T.,.F.,(1,1,1,1,1,1,1,1,1,1,1,1,1,1,
1),(-0.00590391807478544,-0.00393594538319029,-0.00196797269159515,2.23977786797052E-20,
0.00196797269159515,0.00393594538319029,0.00590391807478544,0.00787189076638058,
0.00983986345797573,0.0118078361495709,0.013775808841166,0.0157437815327612,
0.0177117542243563,0.0196797269159515,0.0216476996075466),.UNSPECIFIED.);
#23=B_SPLINE_CURVE_WITH_KNOTS('',3,(#328,#329,#330,#331,#332,#333,#334,
#335,#336,#337,#338),.UNSPECIFIED.,.T.,.F.,(1,1,1,1,1,1,1,1,1,1,1,1,1,1,
1),(-0.00590391807478543,-0.00393594538319029,-0.00196797269159514,3.76695973732141E-20,
0.00196797269159514,0.00393594538319029,0.00590391807478543,0.00787189076638057,
0.00983986345797572,0.0118078361495709,0.013775808841166,0.0157437815327611,
0.0177117542243563,0.0196797269159514,0.0216476996075466),.UNSPECIFIED.);
#24=B_SPLINE_CURVE_WITH_KNOTS('',3,(#341,#342,#343,#344,#345,#346,#347,
#348,#349,#350,#351),.UNSPECIFIED.,.T.,.F.,(1,1,1,1,1,1,1,1,1,1,1,1,1,1,
1),(-0.00236156722991419,-0.00157437815327613,-0.000787189076638063,4.43912210794758E-19,
0.000787189076638064,0.00157437815327613,0.00236156722991419,0.00314875630655226,
0.00393594538319032,0.00472313445982838,0.00551032353646645,0.00629751261310451,
0.00708470168974257,0.00787189076638064,0.0086590798430187),
 .UNSPECIFIED.);
#25=B_SPLINE_CURVE_WITH_KNOTS('',3,(#356,#357,#358,#359,#360,#361,#362,
#363,#364),.UNSPECIFIED.,.F.,.F.,(4,1,1,1,1,1,4),(3.96430508318766E-7,0.0021102220038641,
0.00316513479054199,0.00422004757721988,0.00527496036389777,0.00632987315057566,
0.00843969872393144),.UNSPECIFIED.);
#26=B_SPLINE_CURVE_WITH_KNOTS('',3,(#367,#368,#369,#370,#371,#372,#373,
#374,#375,#376,#377),.UNSPECIFIED.,.T.,.F.,(1,1,1,1,1,1,1,1,1,1,1,1,1,1,
1),(-0.00236156722991419,-0.00157437815327613,-0.000787189076638064,4.68600366938497E-19,
0.000787189076638065,0.00157437815327613,0.00236156722991419,0.00314875630655226,
0.00393594538319032,0.00472313445982839,0.00551032353646645,0.00629751261310452,
0.00708470168974258,0.00787189076638065,0.00865907984301871),
 .UNSPECIFIED.);
#27=B_SPLINE_CURVE_WITH_KNOTS('',3,(#381,#382,#383,#384,#385,#386,#387,
#388,#389),.UNSPECIFIED.,.F.,.F.,(4,1,1,1,1,1,4),(5.88446841639092E-7,0.00203098334141197,
0.00304618078869713,0.0040613782359823,0.00507657568326746,0.00609177313055263,
0.00812216802512296),.UNSPECIFIED.);
#28=ORIENTED_EDGE('',*,*,#62,.T.);
#29=ORIENTED_EDGE('',*,*,#63,.T.);
#30=ORIENTED_EDGE('',*,*,#64,.F.);
#31=ORIENTED_EDGE('',*,*,#65,.F.);
#32=ORIENTED_EDGE('',*,*,#66,.F.);
#33=ORIENTED_EDGE('',*,*,#67,.F.);
#34=ORIENTED_EDGE('',*,*,#68,.T.);
#35=ORIENTED_EDGE('',*,*,#69,.T.);
#36=ORIENTED_EDGE('',*,*,#70,.F.);
#37=ORIENTED_EDGE('',*,*,#71,.T.);
#38=ORIENTED_EDGE('',*,*,#72,.T.);
#39=ORIENTED_EDGE('',*,*,#73,.T.);
#40=ORIENTED_EDGE('',*,*,#74,.F.);
#41=ORIENTED_EDGE('',*,*,#75,.F.);
#42=ORIENTED_EDGE('',*,*,#76,.T.);
#43=ORIENTED_EDGE('',*,*,#69,.F.);
#44=ORIENTED_EDGE('',*,*,#74,.T.);
#45=ORIENTED_EDGE('',*,*,#77,.T.);
#46=ORIENTED_EDGE('',*,*,#75,.T.);
#47=ORIENTED_EDGE('',*,*,#78,.T.);
#48=ORIENTED_EDGE('',*,*,#70,.T.);
#49=ORIENTED_EDGE('',*,*,#63,.F.);
#50=ORIENTED_EDGE('',*,*,#62,.F.);
#51=ORIENTED_EDGE('',*,*,#78,.F.);
#52=ORIENTED_EDGE('',*,*,#73,.F.);
#53=ORIENTED_EDGE('',*,*,#77,.F.);
#54=ORIENTED_EDGE('',*,*,#72,.F.);
#55=ORIENTED_EDGE('',*,*,#64,.T.);
#56=ORIENTED_EDGE('',*,*,#76,.F.);
#57=ORIENTED_EDGE('',*,*,#65,.T.);
#58=ORIENTED_EDGE('',*,*,#68,.F.);
#59=ORIENTED_EDGE('',*,*,#67,.T.);
#60=ORIENTED_EDGE('',*,*,#71,.F.);
#61=ORIENTED_EDGE('',*,*,#66,.T.);
#62=EDGE_CURVE('',#79,#79,#96,.F.);
#63=EDGE_CURVE('',#80,#80,#97,.T.);
#64=EDGE_CURVE('',#81,#81,#18,.T.);
#65=EDGE_CURVE('',#82,#82,#19,.T.);
#66=EDGE_CURVE('',#83,#83,#20,.T.);
#67=EDGE_CURVE('',#84,#84,#21,.T.);
#68=EDGE_CURVE('',#85,#85,#22,.T.);
#69=EDGE_CURVE('',#86,#86,#98,.T.);
#70=EDGE_CURVE('',#87,#87,#99,.T.);
#71=EDGE_CURVE('',#88,#88,#23,.T.);
#72=EDGE_CURVE('',#89,#89,#24,.T.);
#73=EDGE_CURVE('',#90,#91,#100,.T.);
#74=EDGE_CURVE('',#90,#91,#25,.T.);
#75=EDGE_CURVE('',#92,#92,#101,.T.);
#76=EDGE_CURVE('',#93,#93,#26,.T.);
#77=EDGE_CURVE('',#91,#90,#27,.T.);
#78=EDGE_CURVE('',#95,#95,#102,.T.);
#79=VERTEX_POINT('',#260);
#80=VERTEX_POINT('',#262);
#81=VERTEX_POINT('',#274);
#82=VERTEX_POINT('',#286);
#83=VERTEX_POINT('',#298);
#84=VERTEX_POINT('',#310);
#85=VERTEX_POINT('',#323);
#86=VERTEX_POINT('',#325);
#87=VERTEX_POINT('',#327);
#88=VERTEX_POINT('',#339);
#89=VERTEX_POINT('',#352);
#90=VERTEX_POINT('',#354);
#91=VERTEX_POINT('',#355);
#92=VERTEX_POINT('',#366);
#93=VERTEX_POINT('',#378);
#94=VERTEX_POINT('',#380);
#95=VERTEX_POINT('',#392);
#96=CIRCLE('',#199,0.014);
#97=CIRCLE('',#200,0.014);
#98=CIRCLE('',#202,0.0075);
#99=CIRCLE('',#203,0.0075);
#100=CIRCLE('',#205,0.003);
#101=CIRCLE('',#206,0.003);
#102=CIRCLE('',#209,0.012);
#103=EDGE_LOOP('',(#28));
#104=EDGE_LOOP('',(#29));
#105=EDGE_LOOP('',(#30));
#106=EDGE_LOOP('',(#31));
#107=EDGE_LOOP('',(#32));
#108=EDGE_LOOP('',(#33));
#109=EDGE_LOOP('',(#34));
#110=EDGE_LOOP('',(#35));
#111=EDGE_LOOP('',(#36));
#112=EDGE_LOOP('',(#37));
#113=EDGE_LOOP('',(#38));
#114=EDGE_LOOP('',(#39,#40));
#115=EDGE_LOOP('',(#41));
#116=EDGE_LOOP('',(#42));
#117=EDGE_LOOP('',(#43));
#118=EDGE_LOOP('',(#44,#45));
#119=EDGE_LOOP('',(#46));
#120=EDGE_LOOP('',(#47));
#121=EDGE_LOOP('',(#48));
#122=EDGE_LOOP('',(#49));
#123=EDGE_LOOP('',(#50));
#124=EDGE_LOOP('',(#51));
#125=EDGE_LOOP('',(#52,#53));
#126=EDGE_LOOP('',(#54));
#127=EDGE_LOOP('',(#55));
#128=EDGE_LOOP('',(#56));
#129=EDGE_LOOP('',(#57));
#130=EDGE_LOOP('',(#58));
#131=EDGE_LOOP('',(#59));
#132=EDGE_LOOP('',(#60));
#133=EDGE_LOOP('',(#61));
#134=FACE_BOUND('',#103,.T.);
#135=FACE_BOUND('',#104,.T.);
#136=FACE_BOUND('',#105,.T.);
#137=FACE_BOUND('',#106,.T.);
#138=FACE_BOUND('',#107,.T.);
#139=FACE_BOUND('',#108,.T.);
#140=FACE_BOUND('',#109,.T.);
#141=FACE_BOUND('',#110,.T.);
#142=FACE_BOUND('',#111,.T.);
#143=FACE_BOUND('',#112,.T.);
#144=FACE_BOUND('',#113,.T.);
#145=FACE_BOUND('',#114,.T.);
#146=FACE_BOUND('',#115,.T.);
#147=FACE_BOUND('',#116,.T.);
#148=FACE_BOUND('',#14,.T.);
#149=FACE_BOUND('',#117,.T.);
#150=FACE_BOUND('',#118,.T.);
#151=FACE_BOUND('',#119,.T.);
#152=FACE_BOUND('',#120,.T.);
#153=FACE_BOUND('',#121,.T.);
#154=FACE_BOUND('',#122,.T.);
#155=FACE_BOUND('',#123,.T.);
#156=FACE_BOUND('',#124,.T.);
#157=FACE_BOUND('',#125,.T.);
#158=FACE_BOUND('',#126,.T.);
#159=FACE_BOUND('',#127,.T.);
#160=FACE_BOUND('',#128,.T.);
#161=FACE_BOUND('',#129,.T.);
#162=FACE_BOUND('',#130,.T.);
#163=FACE_BOUND('',#131,.T.);
#164=FACE_BOUND('',#132,.T.);
#165=FACE_BOUND('',#133,.T.);
#166=CYLINDRICAL_SURFACE('',#198,0.014);
#167=CYLINDRICAL_SURFACE('',#201,0.0075);
#168=CYLINDRICAL_SURFACE('',#204,0.003);
#169=CYLINDRICAL_SURFACE('',#213,0.001);
#170=CYLINDRICAL_SURFACE('',#214,0.001);
#171=CYLINDRICAL_SURFACE('',#215,0.0025);
#172=CYLINDRICAL_SURFACE('',#216,0.0025);
#173=ADVANCED_FACE('',(#134,#135,#136,#137,#138,#139),#166,.T.);
#174=ADVANCED_FACE('',(#140,#141,#142,#143),#167,.F.);
#175=ADVANCED_FACE('',(#144,#145,#146,#147),#168,.F.);
#176=ADVANCED_FACE('',(#148,#149,#150),#15,.F.);
#177=ADVANCED_FACE('',(#151,#152),#12,.T.);
#178=ADVANCED_FACE('',(#153,#154),#13,.F.);
#179=ADVANCED_FACE('',(#155,#156),#16,.T.);
#180=ADVANCED_FACE('',(#157),#17,.F.);
#181=ADVANCED_FACE('',(#158,#159),#169,.F.);
#182=ADVANCED_FACE('',(#160,#161),#170,.F.);
#183=ADVANCED_FACE('',(#162,#163),#171,.F.);
#184=ADVANCED_FACE('',(#164,#165),#172,.F.);
#185=CLOSED_SHELL('',(#173,#174,#175,#176,#177,#178,#179,#180,#181,#182,
#183,#184));
#186=STYLED_ITEM('',(#187),#194);
#187=PRESENTATION_STYLE_ASSIGNMENT((#188));
#188=SURFACE_STYLE_USAGE(.BOTH.,#189);
#189=SURFACE_SIDE_STYLE('',(#190));
#190=SURFACE_STYLE_FILL_AREA(#191);
#191=FILL_AREA_STYLE('',(#192));
#192=FILL_AREA_STYLE_COLOUR('',#193);
#193=COLOUR_RGB('',0.615686274509804,0.811764705882353,0.929411764705882);
#194=MANIFOLD_SOLID_BREP('Part 1',#185);
#195=SHAPE_DEFINITION_REPRESENTATION(#406,#196);
#196=SHAPE_REPRESENTATION('Part 1',(#197),#401);
#197=AXIS2_PLACEMENT_3D('',#257,#217,#218);
#198=AXIS2_PLACEMENT_3D('',#258,#219,#220);
#199=AXIS2_PLACEMENT_3D('',#259,#221,#222);
#200=AXIS2_PLACEMENT_3D('',#261,#223,#224);
#201=AXIS2_PLACEMENT_3D('',#311,#225,#226);
#202=AXIS2_PLACEMENT_3D('',#324,#227,#228);
#203=AXIS2_PLACEMENT_3D('',#326,#229,#230);
#204=AXIS2_PLACEMENT_3D('',#340,#231,#232);
#205=AXIS2_PLACEMENT_3D('',#353,#233,#234);
#206=AXIS2_PLACEMENT_3D('',#365,#235,#236);
#207=AXIS2_PLACEMENT_3D('',#379,#237,#238);
#208=AXIS2_PLACEMENT_3D('',#390,#239,#240);
#209=AXIS2_PLACEMENT_3D('',#391,#241,#242);
#210=AXIS2_PLACEMENT_3D('',#393,#243,#244);
#211=AXIS2_PLACEMENT_3D('',#394,#245,#246);
#212=AXIS2_PLACEMENT_3D('',#395,#247,#248);
#213=AXIS2_PLACEMENT_3D('',#396,#249,#250);
#214=AXIS2_PLACEMENT_3D('',#397,#251,#252);
#215=AXIS2_PLACEMENT_3D('',#398,#253,#254);
#216=AXIS2_PLACEMENT_3D('',#399,#255,#256);
#217=DIRECTION('',(0.,0.,1.));
#218=DIRECTION('',(1.,0.,0.));
#219=DIRECTION('',(0.,0.,-1.));
#220=DIRECTION('',(-1.,0.,0.));
#221=DIRECTION('',(0.,0.,1.));
#222=DIRECTION('',(1.,0.,0.));
#223=DIRECTION('',(0.,0.,1.));
#224=DIRECTION('',(1.,0.,0.));
#225=DIRECTION('',(0.,0.,1.));
#226=DIRECTION('',(1.,0.,0.));
#227=DIRECTION('',(0.,0.,1.));
#228=DIRECTION('',(1.,0.,0.));
#229=DIRECTION('',(0.,0.,1.));
#230=DIRECTION('',(1.,0.,0.));
#231=DIRECTION('',(0.,0.,-1.));
#232=DIRECTION('',(-1.,0.,0.));
#233=DIRECTION('',(0.,0.,-1.));
#234=DIRECTION('',(-1.,0.,0.));
#235=DIRECTION('',(0.,0.,-1.));
#236=DIRECTION('',(-1.,0.,0.));
#237=DIRECTION('',(0.,0.,-1.));
#238=DIRECTION('',(-1.,0.,0.));
#239=DIRECTION('',(0.,0.,1.));
#240=DIRECTION('',(1.,0.,0.));
#241=DIRECTION('',(0.,0.,1.));
#242=DIRECTION('',(1.,0.,0.));
#243=DIRECTION('',(0.,0.,1.));
#244=DIRECTION('',(1.,0.,0.));
#245=DIRECTION('',(0.,0.,-1.));
#246=DIRECTION('',(-1.,0.,0.));
#247=DIRECTION('',(0.,0.,1.));
#248=DIRECTION('',(1.,0.,0.));
#249=DIRECTION('',(-1.,0.,0.));
#250=DIRECTION('',(0.,0.,1.));
#251=DIRECTION('',(-1.,0.,0.));
#252=DIRECTION('',(0.,0.,1.));
#253=DIRECTION('',(-1.,0.,0.));
#254=DIRECTION('',(0.,0.,1.));
#255=DIRECTION('',(-1.,0.,0.));
#256=DIRECTION('',(0.,0.,1.));
#257=CARTESIAN_POINT('',(0.,0.,0.));
#258=CARTESIAN_POINT('',(0.,8.57252759403147E-19,0.0315));
#259=CARTESIAN_POINT('',(0.,8.57252759403147E-19,0.0295));
#260=CARTESIAN_POINT('',(0.014,8.57252759403147E-19,0.0295));
#261=CARTESIAN_POINT('',(0.,8.57252759403147E-19,0.));
#262=CARTESIAN_POINT('',(0.014,8.57252759403147E-19,0.));
#263=CARTESIAN_POINT('',(0.0139820973232854,0.000784495995331718,0.0272829909963425));
#264=CARTESIAN_POINT('',(0.0140089426976133,-1.98901170113928E-7,0.0276084426286376));
#265=CARTESIAN_POINT('',(0.0139821318862614,-0.000783700390651263,0.0272832384891071));
#266=CARTESIAN_POINT('',(0.0139552978694922,-0.0011080477896424,0.0265008364965986));
#267=CARTESIAN_POINT('',(0.0139821169607817,-0.000784107579432258,0.0257166491233739));
#268=CARTESIAN_POINT('',(0.0140089214945866,-1.69481529556239E-7,0.025391934174345));
#269=CARTESIAN_POINT('',(0.0139821970330017,0.000782621660989129,0.0257156145694316));
#270=CARTESIAN_POINT('',(0.0139552865289703,0.00110821985435227,0.0264988671558879));
#271=CARTESIAN_POINT('',(0.0139820973232854,0.000784495995331718,0.0272829909963425));
#272=CARTESIAN_POINT('',(0.0140089426976133,-1.98901170113928E-7,0.0276084426286376));
#273=CARTESIAN_POINT('',(0.0139821318862614,-0.000783700390651263,0.0272832384891071));
#274=CARTESIAN_POINT('',(0.014,-8.76803706294848E-19,0.0275));
#275=CARTESIAN_POINT('',(-0.0139820973232854,-0.00078449599533172,0.0272829909963425));
#276=CARTESIAN_POINT('',(-0.0140089426976133,1.98901170114646E-7,0.0276084426286376));
#277=CARTESIAN_POINT('',(-0.0139821318862614,0.000783700390651268,0.0272832384891071));
#278=CARTESIAN_POINT('',(-0.0139552978694922,0.0011080477896424,0.0265008364965986));
#279=CARTESIAN_POINT('',(-0.0139821169607817,0.000784107579432255,0.0257166491233739));
#280=CARTESIAN_POINT('',(-0.0140089214945866,1.69481529557208E-7,0.025391934174345));
#281=CARTESIAN_POINT('',(-0.0139821970330017,-0.000782621660989133,0.0257156145694316));
#282=CARTESIAN_POINT('',(-0.0139552865289703,-0.00110821985435227,0.0264988671558879));
#283=CARTESIAN_POINT('',(-0.0139820973232854,-0.00078449599533172,0.0272829909963425));
#284=CARTESIAN_POINT('',(-0.0140089426976133,1.98901170114646E-7,0.0276084426286376));
#285=CARTESIAN_POINT('',(-0.0139821318862614,0.000783700390651268,0.0272832384891071));
#286=CARTESIAN_POINT('',(-0.014,1.6450534904651E-18,0.0275));
#287=CARTESIAN_POINT('',(0.0138881239676063,0.00196115582445439,0.00995732009750754));
#288=CARTESIAN_POINT('',(0.0140558885860122,-4.56249978467908E-7,0.0107712025202626));
#289=CARTESIAN_POINT('',(0.013888321688345,-0.00195933082454052,0.00995786982144196));
#290=CARTESIAN_POINT('',(0.0137183076480654,-0.00277026357842083,0.00800247830709438));
#291=CARTESIAN_POINT('',(0.0138883120643099,-0.00195961232067175,0.00604094810853902));
#292=CARTESIAN_POINT('',(0.0140557413471388,-7.89134879555137E-7,0.00523002861241199));
#293=CARTESIAN_POINT('',(0.0138887223369817,0.00195682699698803,0.006038938618671));
#294=CARTESIAN_POINT('',(0.013718254597058,0.00277050318012707,0.00799804415489553));
#295=CARTESIAN_POINT('',(0.0138881239676063,0.00196115582445439,0.00995732009750754));
#296=CARTESIAN_POINT('',(0.0140558885860122,-4.56249978467908E-7,0.0107712025202626));
#297=CARTESIAN_POINT('',(0.013888321688345,-0.00195933082454052,0.00995786982144196));
#298=CARTESIAN_POINT('',(0.014,-4.95147450938762E-19,0.0105));
#299=CARTESIAN_POINT('',(-0.0138881239676063,-0.00196115582445438,0.00995732009750754));
#300=CARTESIAN_POINT('',(-0.0140558885860122,4.56249978467854E-7,0.0107712025202626));
#301=CARTESIAN_POINT('',(-0.013888321688345,0.00195933082454052,0.00995786982144196));
#302=CARTESIAN_POINT('',(-0.0137183076480654,0.00277026357842083,0.00800247830709437));
#303=CARTESIAN_POINT('',(-0.0138883120643099,0.00195961232067175,0.00604094810853901));
#304=CARTESIAN_POINT('',(-0.0140557413471388,7.89134879550251E-7,0.005230028612412));
#305=CARTESIAN_POINT('',(-0.0138887223369817,-0.00195682699698803,0.006038938618671));
#306=CARTESIAN_POINT('',(-0.013718254597058,-0.00277050318012707,0.00799804415489553));
#307=CARTESIAN_POINT('',(-0.0138881239676063,-0.00196115582445438,0.00995732009750754));
#308=CARTESIAN_POINT('',(-0.0140558885860122,4.56249978467854E-7,0.0107712025202626));
#309=CARTESIAN_POINT('',(-0.013888321688345,0.00195933082454052,0.00995786982144196));
#310=CARTESIAN_POINT('',(-0.014,8.91525782997718E-19,0.0105));
#311=CARTESIAN_POINT('',(0.,0.,0.));
#312=CARTESIAN_POINT('',(-0.00729162920059839,-0.00195980922132982,0.00995811163876267));
#313=CARTESIAN_POINT('',(-0.00760419820834824,-4.34280641803202E-8,0.0107712017136014));
#314=CARTESIAN_POINT('',(-0.00729157796600865,0.00195998293358654,0.00995708150683173));
#315=CARTESIAN_POINT('',(-0.00696073530670586,0.00277039809861463,0.00800338800928239));
#316=CARTESIAN_POINT('',(-0.00729188896623551,0.00195842102929461,0.00603982015380745));
#317=CARTESIAN_POINT('',(-0.00760404746563943,1.69721400959326E-6,0.00522990743343784));
#318=CARTESIAN_POINT('',(-0.0072919207695779,-0.00195919768126498,0.00604055131732782));
#319=CARTESIAN_POINT('',(-0.00696071422973993,-0.00277024826166356,0.00800002578401762));
#320=CARTESIAN_POINT('',(-0.00729162920059839,-0.00195980922132982,0.00995811163876267));
#321=CARTESIAN_POINT('',(-0.00760419820834824,-4.34280641803202E-8,0.0107712017136014));
#322=CARTESIAN_POINT('',(-0.00729157796600865,0.00195998293358654,0.00995708150683173));
#323=CARTESIAN_POINT('',(-0.0075,-4.29157292066169E-19,0.0105));
#324=CARTESIAN_POINT('',(0.,0.,0.018));
#325=CARTESIAN_POINT('',(0.0075,0.,0.018));
#326=CARTESIAN_POINT('',(0.,0.,0.));
#327=CARTESIAN_POINT('',(0.0075,0.,0.));
#328=CARTESIAN_POINT('',(0.00729162920059839,-0.00195980922132982,0.00604188836123732));
#329=CARTESIAN_POINT('',(0.00760419820834824,-4.34280641821091E-8,0.0052287982863986));
#330=CARTESIAN_POINT('',(0.00729157796600865,0.00195998293358654,0.00604291849316827));
#331=CARTESIAN_POINT('',(0.00696073530670586,0.00277039809861463,0.00799661199071761));
#332=CARTESIAN_POINT('',(0.00729188896623551,0.00195842102929461,0.00996017984619255));
#333=CARTESIAN_POINT('',(0.00760404746563943,1.6972140095853E-6,0.0107700925665622));
#334=CARTESIAN_POINT('',(0.0072919207695779,-0.00195919768126498,0.00995944868267217));
#335=CARTESIAN_POINT('',(0.00696071422973993,-0.00277024826166356,0.00799997421598239));
#336=CARTESIAN_POINT('',(0.00729162920059839,-0.00195980922132982,0.00604188836123732));
#337=CARTESIAN_POINT('',(0.00760419820834824,-4.34280641821091E-8,0.0052287982863986));
#338=CARTESIAN_POINT('',(0.00729157796600865,0.00195998293358654,0.00604291849316827));
#339=CARTESIAN_POINT('',(0.0075,3.88019378771597E-20,0.0055));
#340=CARTESIAN_POINT('',(0.005,0.,0.0315));
#341=CARTESIAN_POINT('',(0.00791665168023936,0.00078392368853192,0.0272832446555051));
#342=CARTESIAN_POINT('',(0.0080416792833393,1.73712256771479E-8,0.0276084806854406));
#343=CARTESIAN_POINT('',(0.00791663118640346,-0.00078399317343463,0.0272828326027327));
#344=CARTESIAN_POINT('',(0.00778429412268235,-0.00110815923944581,0.026501355203713));
#345=CARTESIAN_POINT('',(0.00791675558649418,-0.000783368411718001,0.0257159280615228));
#346=CARTESIAN_POINT('',(0.00804161898625578,-6.78885603798311E-7,0.0253919629733752));
#347=CARTESIAN_POINT('',(0.00791676830783116,0.000783679072505981,0.0257162205269311));
#348=CARTESIAN_POINT('',(0.00778428569189598,0.00110809930466543,0.0265000103136071));
#349=CARTESIAN_POINT('',(0.00791665168023936,0.00078392368853192,0.0272832446555051));
#350=CARTESIAN_POINT('',(0.0080416792833393,1.73712256771479E-8,0.0276084806854406));
#351=CARTESIAN_POINT('',(0.00791663118640346,-0.00078399317343463,0.0272828326027327));
#352=CARTESIAN_POINT('',(0.008,-5.56766372665251E-19,0.0275));
#353=CARTESIAN_POINT('',(0.005,0.,0.0195));
#354=CARTESIAN_POINT('',(0.00410358205867033,0.00286294164705854,0.0195));
#355=CARTESIAN_POINT('',(0.00410358205867024,-0.00286294164705851,0.0195));
#356=CARTESIAN_POINT('',(0.0041035820586703,0.00286294164705853,0.0195));
#357=CARTESIAN_POINT('',(0.00351266503324647,0.00267791914617335,0.0198548046744438));
#358=CARTESIAN_POINT('',(0.00275022255381809,0.00214108089655193,0.0204125886892736));
#359=CARTESIAN_POINT('',(0.00213171296926155,0.00105209006654971,0.0210984375025919));
#360=CARTESIAN_POINT('',(0.00193442112897654,-1.64281565570927E-7,0.0214074473463072));
#361=CARTESIAN_POINT('',(0.00213060299619105,-0.00104727013882967,0.0211001728170151));
#362=CARTESIAN_POINT('',(0.00274545124353203,-0.00213705005607688,0.0204166080974464));
#363=CARTESIAN_POINT('',(0.00351319935678415,-0.00267808644864217,0.0198544838502322));
#364=CARTESIAN_POINT('',(0.00410358205867024,-0.00286294164705851,0.0195));
#365=CARTESIAN_POINT('',(0.005,0.,0.0315));
#366=CARTESIAN_POINT('',(0.002,0.,0.0315));
#367=CARTESIAN_POINT('',(0.00208334831976064,-0.000783923688531925,0.0272832446555051));
#368=CARTESIAN_POINT('',(0.0019583207166607,-1.73712256758876E-8,0.0276084806854406));
#369=CARTESIAN_POINT('',(0.00208336881359654,0.000783993173434629,0.0272828326027327));
#370=CARTESIAN_POINT('',(0.00221570587731765,0.00110815923944581,0.026501355203713));
#371=CARTESIAN_POINT('',(0.00208324441350582,0.000783368411718002,0.0257159280615228));
#372=CARTESIAN_POINT('',(0.00195838101374422,6.78885603795193E-7,0.0253919629733752));
#373=CARTESIAN_POINT('',(0.00208323169216884,-0.000783679072505981,0.0257162205269311));
#374=CARTESIAN_POINT('',(0.00221571430810403,-0.00110809930466543,0.0265000103136071));
#375=CARTESIAN_POINT('',(0.00208334831976064,-0.000783923688531925,0.0272832446555051));
#376=CARTESIAN_POINT('',(0.0019583207166607,-1.73712256758876E-8,0.0276084806854406));
#377=CARTESIAN_POINT('',(0.00208336881359654,0.000783993173434629,0.0272828326027327));
#378=CARTESIAN_POINT('',(0.002,4.82686399512481E-19,0.0275));
#379=CARTESIAN_POINT('',(0.,0.,0.018));
#380=CARTESIAN_POINT('',(0.,0.,0.0225064546427067));
#381=CARTESIAN_POINT('',(0.00410358205867024,-0.00286294164705851,0.0195));
#382=CARTESIAN_POINT('',(0.00471637005538028,-0.00265366414009156,0.0192699778478415));
#383=CARTESIAN_POINT('',(0.00557539600343019,-0.0021554402774034,0.0189475253872983));
#384=CARTESIAN_POINT('',(0.00634968148772134,-0.00103146426343457,0.0186568819438269));
#385=CARTESIAN_POINT('',(0.00657631632201511,-8.97296129346091E-6,0.0185718100549873));
#386=CARTESIAN_POINT('',(0.00635571709989478,0.00101942791235222,0.0186546163568552));
#387=CARTESIAN_POINT('',(0.00558307232346026,0.00215027470149988,0.0189446439280278));
#388=CARTESIAN_POINT('',(0.00471775738717228,0.00265319034272554,0.0192694570852837));
#389=CARTESIAN_POINT('',(0.0041035820586703,0.00286294164705849,0.0195));
#390=CARTESIAN_POINT('',(0.,0.,0.0315));
#391=CARTESIAN_POINT('',(0.,8.57252759403147E-19,0.0315));
#392=CARTESIAN_POINT('',(0.012,8.57252759403147E-19,0.0315));
#393=CARTESIAN_POINT('',(0.,0.,0.));
#394=CARTESIAN_POINT('',(0.,8.57252759403147E-19,0.0315));
#395=CARTESIAN_POINT('',(0.005,0.,0.0195));
#396=CARTESIAN_POINT('',(0.014,-9.95102502937764E-20,0.0265));
#397=CARTESIAN_POINT('',(0.014,-9.95102502937764E-20,0.0265));
#398=CARTESIAN_POINT('',(0.014,-4.06086240674091E-19,0.008));
#399=CARTESIAN_POINT('',(0.014,-4.06086240674091E-19,0.008));
#400=MECHANICAL_DESIGN_GEOMETRIC_PRESENTATION_REPRESENTATION('',(#186),
#401);
#401=(
GEOMETRIC_REPRESENTATION_CONTEXT(3)
GLOBAL_UNCERTAINTY_ASSIGNED_CONTEXT((#402))
GLOBAL_UNIT_ASSIGNED_CONTEXT((#405,#404,#403))
REPRESENTATION_CONTEXT('Part 1','TOP_LEVEL_ASSEMBLY_PART')
);
#402=UNCERTAINTY_MEASURE_WITH_UNIT(LENGTH_MEASURE(2.E-5),#405,
'DISTANCE_ACCURACY_VALUE','Maximum Tolerance applied to model');
#403=(
NAMED_UNIT(*)
SI_UNIT($,.STERADIAN.)
SOLID_ANGLE_UNIT()
);
#404=(
NAMED_UNIT(*)
PLANE_ANGLE_UNIT()
SI_UNIT($,.RADIAN.)
);
#405=(
LENGTH_UNIT()
NAMED_UNIT(*)
SI_UNIT($,.METRE.)
);
#406=PRODUCT_DEFINITION_SHAPE('','',#407);
#407=PRODUCT_DEFINITION('','',#409,#408);
#408=PRODUCT_DEFINITION_CONTEXT('',#415,'design');
#409=PRODUCT_DEFINITION_FORMATION_WITH_SPECIFIED_SOURCE('','',#411,
 .NOT_KNOWN.);
#410=PRODUCT_RELATED_PRODUCT_CATEGORY('','',(#411));
#411=PRODUCT('Part 1','Part 1','Part 1',(#413));
#412=PRODUCT_CATEGORY('','');
#413=PRODUCT_CONTEXT('',#415,'mechanical');
#414=APPLICATION_PROTOCOL_DEFINITION('international standard',
'ap242_managed_model_based_3d_engineering',2020,#415);
#415=APPLICATION_CONTEXT('managed model based 3d engineering');
ENDSEC;
END-ISO-10303-21;
