ISO-10303-21;
HEADER;
/* Generated by software containing ST-Developer
 * from STEP Tools, Inc. (www.steptools.com) 
 */
/* OPTION: using custom renumber hook */

FILE_DESCRIPTION(
/* description */ ('STEP AP242 Edition 2',
'CAx-IF Rec.Pracs.---Representation and Presentation of Product Manufa
cturing Information (PMI)---4.0---2014-10-13',
'CAx-IF Rec.Pracs.---3D Tessellated Geometry---0.4---2014-09-14','2;1',
'CAx-IF Rec.Pracs.---User Defined Attributes---1.5---2016-08-15'),
/* implementation_level */ '2;1');

FILE_NAME(
/* name */ 'Part Studio 1',
/* time_stamp */ '2026-07-16T17:46:16Z',
/* author */ (''),
/* organization */ (''),
/* preprocessor_version */ 'ST-DEVELOPER v20',
/* originating_system */ 'ONSHAPE BY PTC INC, 1.217',
/* authorisation */ '  ');

FILE_SCHEMA (('AP242_MANAGED_MODEL_BASED_3D_ENGINEERING_MIM_LF { 1 0 10303 442 3 1 4 }'));
ENDSEC;

DATA;
#10=SHAPE_REPRESENTATION_RELATIONSHIP('','',#442,#11);
#11=ADVANCED_BREP_SHAPE_REPRESENTATION('',(#440),#744);
#12=B_SPLINE_CURVE_WITH_KNOTS('',3,(#699,#700,#701,#702,#703,#704,#705),
 .UNSPECIFIED.,.F.,.F.,(4,1,1,1,4),(0.,0.00175597755379131,0.00351195510758261,
0.00526793266137392,0.00702391021516522),.UNSPECIFIED.);
#13=B_SPLINE_CURVE_WITH_KNOTS('',3,(#734,#735,#736,#737,#738,#739,#740),
 .UNSPECIFIED.,.F.,.F.,(4,1,1,1,4),(0.,0.00175597755379131,0.00351195510758261,
0.00526793266137392,0.00702391021516522),.UNSPECIFIED.);
#14=ELLIPSE('',#461,0.0129,0.003);
#15=ELLIPSE('',#478,0.0129,0.003);
#16=CYLINDRICAL_SURFACE('',#457,0.01);
#17=CYLINDRICAL_SURFACE('',#462,0.00475);
#18=CYLINDRICAL_SURFACE('',#469,0.006);
#19=CYLINDRICAL_SURFACE('',#470,0.002);
#20=CYLINDRICAL_SURFACE('',#472,0.003);
#21=CYLINDRICAL_SURFACE('',#473,0.0026);
#22=CYLINDRICAL_SURFACE('',#474,0.01);
#23=CYLINDRICAL_SURFACE('',#479,0.00475);
#24=CYLINDRICAL_SURFACE('',#484,0.006);
#25=CYLINDRICAL_SURFACE('',#485,0.003);
#26=CYLINDRICAL_SURFACE('',#486,0.0026);
#27=CIRCLE('',#445,0.006);
#28=CIRCLE('',#446,0.006);
#29=CIRCLE('',#449,0.0026);
#30=CIRCLE('',#450,0.006);
#31=CIRCLE('',#451,0.006);
#32=CIRCLE('',#452,0.0026);
#33=CIRCLE('',#455,0.0026);
#34=CIRCLE('',#456,0.0026);
#35=CIRCLE('',#458,0.01);
#36=CIRCLE('',#459,0.01);
#37=CIRCLE('',#463,0.00475);
#38=CIRCLE('',#464,0.00475);
#39=CIRCLE('',#466,0.002);
#40=CIRCLE('',#471,0.002);
#41=CIRCLE('',#475,0.01);
#42=CIRCLE('',#476,0.01);
#43=CIRCLE('',#480,0.00475);
#44=CIRCLE('',#481,0.00475);
#45=ORIENTED_EDGE('',*,*,#159,.F.);
#46=ORIENTED_EDGE('',*,*,#160,.T.);
#47=ORIENTED_EDGE('',*,*,#161,.T.);
#48=ORIENTED_EDGE('',*,*,#162,.T.);
#49=ORIENTED_EDGE('',*,*,#163,.F.);
#50=ORIENTED_EDGE('',*,*,#164,.F.);
#51=ORIENTED_EDGE('',*,*,#162,.F.);
#52=ORIENTED_EDGE('',*,*,#165,.T.);
#53=ORIENTED_EDGE('',*,*,#166,.T.);
#54=ORIENTED_EDGE('',*,*,#167,.F.);
#55=ORIENTED_EDGE('',*,*,#168,.F.);
#56=ORIENTED_EDGE('',*,*,#169,.F.);
#57=ORIENTED_EDGE('',*,*,#170,.T.);
#58=ORIENTED_EDGE('',*,*,#171,.T.);
#59=ORIENTED_EDGE('',*,*,#172,.T.);
#60=ORIENTED_EDGE('',*,*,#173,.F.);
#61=ORIENTED_EDGE('',*,*,#174,.F.);
#62=ORIENTED_EDGE('',*,*,#166,.F.);
#63=ORIENTED_EDGE('',*,*,#175,.T.);
#64=ORIENTED_EDGE('',*,*,#176,.T.);
#65=ORIENTED_EDGE('',*,*,#177,.F.);
#66=ORIENTED_EDGE('',*,*,#178,.T.);
#67=ORIENTED_EDGE('',*,*,#179,.T.);
#68=ORIENTED_EDGE('',*,*,#180,.T.);
#69=ORIENTED_EDGE('',*,*,#181,.T.);
#70=ORIENTED_EDGE('',*,*,#182,.F.);
#71=ORIENTED_EDGE('',*,*,#183,.F.);
#72=ORIENTED_EDGE('',*,*,#184,.F.);
#73=ORIENTED_EDGE('',*,*,#185,.T.);
#74=ORIENTED_EDGE('',*,*,#186,.T.);
#75=ORIENTED_EDGE('',*,*,#179,.F.);
#76=ORIENTED_EDGE('',*,*,#187,.T.);
#77=ORIENTED_EDGE('',*,*,#188,.T.);
#78=ORIENTED_EDGE('',*,*,#189,.F.);
#79=ORIENTED_EDGE('',*,*,#190,.F.);
#80=ORIENTED_EDGE('',*,*,#177,.T.);
#81=ORIENTED_EDGE('',*,*,#191,.T.);
#82=ORIENTED_EDGE('',*,*,#192,.T.);
#83=ORIENTED_EDGE('',*,*,#193,.F.);
#84=ORIENTED_EDGE('',*,*,#194,.F.);
#85=ORIENTED_EDGE('',*,*,#189,.T.);
#86=ORIENTED_EDGE('',*,*,#195,.T.);
#87=ORIENTED_EDGE('',*,*,#196,.F.);
#88=ORIENTED_EDGE('',*,*,#195,.F.);
#89=ORIENTED_EDGE('',*,*,#182,.T.);
#90=ORIENTED_EDGE('',*,*,#197,.T.);
#91=ORIENTED_EDGE('',*,*,#169,.T.);
#92=ORIENTED_EDGE('',*,*,#190,.T.);
#93=ORIENTED_EDGE('',*,*,#194,.T.);
#94=ORIENTED_EDGE('',*,*,#198,.T.);
#95=ORIENTED_EDGE('',*,*,#184,.T.);
#96=ORIENTED_EDGE('',*,*,#199,.T.);
#97=ORIENTED_EDGE('',*,*,#200,.T.);
#98=ORIENTED_EDGE('',*,*,#191,.F.);
#99=ORIENTED_EDGE('',*,*,#188,.F.);
#100=ORIENTED_EDGE('',*,*,#176,.F.);
#101=ORIENTED_EDGE('',*,*,#196,.T.);
#102=ORIENTED_EDGE('',*,*,#197,.F.);
#103=ORIENTED_EDGE('',*,*,#181,.F.);
#104=ORIENTED_EDGE('',*,*,#201,.T.);
#105=ORIENTED_EDGE('',*,*,#170,.F.);
#106=ORIENTED_EDGE('',*,*,#161,.F.);
#107=ORIENTED_EDGE('',*,*,#202,.T.);
#108=ORIENTED_EDGE('',*,*,#199,.F.);
#109=ORIENTED_EDGE('',*,*,#175,.F.);
#110=ORIENTED_EDGE('',*,*,#165,.F.);
#111=ORIENTED_EDGE('',*,*,#193,.T.);
#112=ORIENTED_EDGE('',*,*,#159,.T.);
#113=ORIENTED_EDGE('',*,*,#203,.F.);
#114=ORIENTED_EDGE('',*,*,#204,.T.);
#115=ORIENTED_EDGE('',*,*,#185,.F.);
#116=ORIENTED_EDGE('',*,*,#198,.F.);
#117=ORIENTED_EDGE('',*,*,#192,.F.);
#118=ORIENTED_EDGE('',*,*,#200,.F.);
#119=ORIENTED_EDGE('',*,*,#202,.F.);
#120=ORIENTED_EDGE('',*,*,#160,.F.);
#121=ORIENTED_EDGE('',*,*,#168,.T.);
#122=ORIENTED_EDGE('',*,*,#183,.T.);
#123=ORIENTED_EDGE('',*,*,#205,.F.);
#124=ORIENTED_EDGE('',*,*,#172,.F.);
#125=ORIENTED_EDGE('',*,*,#206,.T.);
#126=ORIENTED_EDGE('',*,*,#207,.T.);
#127=ORIENTED_EDGE('',*,*,#208,.F.);
#128=ORIENTED_EDGE('',*,*,#207,.F.);
#129=ORIENTED_EDGE('',*,*,#209,.T.);
#130=ORIENTED_EDGE('',*,*,#203,.T.);
#131=ORIENTED_EDGE('',*,*,#210,.F.);
#132=ORIENTED_EDGE('',*,*,#211,.F.);
#133=ORIENTED_EDGE('',*,*,#212,.T.);
#134=ORIENTED_EDGE('',*,*,#211,.T.);
#135=ORIENTED_EDGE('',*,*,#180,.F.);
#136=ORIENTED_EDGE('',*,*,#186,.F.);
#137=ORIENTED_EDGE('',*,*,#204,.F.);
#138=ORIENTED_EDGE('',*,*,#209,.F.);
#139=ORIENTED_EDGE('',*,*,#206,.F.);
#140=ORIENTED_EDGE('',*,*,#171,.F.);
#141=ORIENTED_EDGE('',*,*,#201,.F.);
#142=ORIENTED_EDGE('',*,*,#213,.F.);
#143=ORIENTED_EDGE('',*,*,#173,.T.);
#144=ORIENTED_EDGE('',*,*,#205,.T.);
#145=ORIENTED_EDGE('',*,*,#208,.T.);
#146=ORIENTED_EDGE('',*,*,#214,.F.);
#147=ORIENTED_EDGE('',*,*,#212,.F.);
#148=ORIENTED_EDGE('',*,*,#163,.T.);
#149=ORIENTED_EDGE('',*,*,#167,.T.);
#150=ORIENTED_EDGE('',*,*,#174,.T.);
#151=ORIENTED_EDGE('',*,*,#213,.T.);
#152=ORIENTED_EDGE('',*,*,#215,.F.);
#153=ORIENTED_EDGE('',*,*,#210,.T.);
#154=ORIENTED_EDGE('',*,*,#164,.T.);
#155=ORIENTED_EDGE('',*,*,#215,.T.);
#156=ORIENTED_EDGE('',*,*,#214,.T.);
#157=ORIENTED_EDGE('',*,*,#178,.F.);
#158=ORIENTED_EDGE('',*,*,#187,.F.);
#159=EDGE_CURVE('',#216,#217,#256,.T.);
#160=EDGE_CURVE('',#216,#218,#257,.T.);
#161=EDGE_CURVE('',#218,#219,#27,.F.);
#162=EDGE_CURVE('',#219,#220,#258,.T.);
#163=EDGE_CURVE('',#221,#220,#28,.F.);
#164=EDGE_CURVE('',#217,#221,#259,.T.);
#165=EDGE_CURVE('',#219,#222,#260,.T.);
#166=EDGE_CURVE('',#222,#223,#261,.T.);
#167=EDGE_CURVE('',#220,#223,#262,.T.);
#168=EDGE_CURVE('',#224,#224,#29,.T.);
#169=EDGE_CURVE('',#225,#226,#263,.T.);
#170=EDGE_CURVE('',#225,#227,#264,.T.);
#171=EDGE_CURVE('',#227,#228,#265,.T.);
#172=EDGE_CURVE('',#228,#229,#266,.T.);
#173=EDGE_CURVE('',#230,#229,#267,.T.);
#174=EDGE_CURVE('',#223,#230,#30,.F.);
#175=EDGE_CURVE('',#222,#231,#31,.F.);
#176=EDGE_CURVE('',#231,#232,#268,.T.);
#177=EDGE_CURVE('',#226,#232,#269,.T.);
#178=EDGE_CURVE('',#233,#233,#32,.T.);
#179=EDGE_CURVE('',#234,#235,#270,.T.);
#180=EDGE_CURVE('',#235,#236,#271,.T.);
#181=EDGE_CURVE('',#236,#237,#272,.T.);
#182=EDGE_CURVE('',#234,#237,#273,.T.);
#183=EDGE_CURVE('',#238,#238,#33,.T.);
#184=EDGE_CURVE('',#239,#234,#274,.T.);
#185=EDGE_CURVE('',#239,#240,#275,.T.);
#186=EDGE_CURVE('',#240,#235,#276,.T.);
#187=EDGE_CURVE('',#241,#241,#34,.T.);
#188=EDGE_CURVE('',#232,#242,#35,.T.);
#189=EDGE_CURVE('',#243,#242,#277,.T.);
#190=EDGE_CURVE('',#226,#243,#36,.T.);
#191=EDGE_CURVE('',#242,#244,#278,.T.);
#192=EDGE_CURVE('',#244,#216,#14,.T.);
#193=EDGE_CURVE('',#245,#216,#279,.T.);
#194=EDGE_CURVE('',#243,#245,#280,.T.);
#195=EDGE_CURVE('',#246,#246,#37,.T.);
#196=EDGE_CURVE('',#247,#247,#38,.T.);
#197=EDGE_CURVE('',#237,#225,#281,.T.);
#198=EDGE_CURVE('',#245,#239,#39,.F.);
#199=EDGE_CURVE('',#231,#248,#282,.F.);
#200=EDGE_CURVE('',#248,#244,#283,.F.);
#201=EDGE_CURVE('',#236,#227,#284,.T.);
#202=EDGE_CURVE('',#218,#248,#12,.T.);
#203=EDGE_CURVE('',#249,#217,#285,.T.);
#204=EDGE_CURVE('',#249,#240,#40,.F.);
#205=EDGE_CURVE('',#229,#250,#41,.T.);
#206=EDGE_CURVE('',#228,#251,#42,.T.);
#207=EDGE_CURVE('',#251,#250,#286,.T.);
#208=EDGE_CURVE('',#250,#252,#287,.T.);
#209=EDGE_CURVE('',#251,#249,#288,.T.);
#210=EDGE_CURVE('',#252,#217,#15,.T.);
#211=EDGE_CURVE('',#253,#253,#43,.T.);
#212=EDGE_CURVE('',#254,#254,#44,.T.);
#213=EDGE_CURVE('',#230,#255,#289,.F.);
#214=EDGE_CURVE('',#255,#252,#290,.F.);
#215=EDGE_CURVE('',#221,#255,#13,.T.);
#216=VERTEX_POINT('',#613);
#217=VERTEX_POINT('',#614);
#218=VERTEX_POINT('',#616);
#219=VERTEX_POINT('',#618);
#220=VERTEX_POINT('',#620);
#221=VERTEX_POINT('',#622);
#222=VERTEX_POINT('',#626);
#223=VERTEX_POINT('',#628);
#224=VERTEX_POINT('',#632);
#225=VERTEX_POINT('',#634);
#226=VERTEX_POINT('',#635);
#227=VERTEX_POINT('',#637);
#228=VERTEX_POINT('',#639);
#229=VERTEX_POINT('',#641);
#230=VERTEX_POINT('',#643);
#231=VERTEX_POINT('',#646);
#232=VERTEX_POINT('',#648);
#233=VERTEX_POINT('',#651);
#234=VERTEX_POINT('',#654);
#235=VERTEX_POINT('',#655);
#236=VERTEX_POINT('',#657);
#237=VERTEX_POINT('',#659);
#238=VERTEX_POINT('',#663);
#239=VERTEX_POINT('',#665);
#240=VERTEX_POINT('',#667);
#241=VERTEX_POINT('',#670);
#242=VERTEX_POINT('',#673);
#243=VERTEX_POINT('',#675);
#244=VERTEX_POINT('',#679);
#245=VERTEX_POINT('',#682);
#246=VERTEX_POINT('',#686);
#247=VERTEX_POINT('',#688);
#248=VERTEX_POINT('',#694);
#249=VERTEX_POINT('',#708);
#250=VERTEX_POINT('',#714);
#251=VERTEX_POINT('',#716);
#252=VERTEX_POINT('',#720);
#253=VERTEX_POINT('',#725);
#254=VERTEX_POINT('',#727);
#255=VERTEX_POINT('',#731);
#256=LINE('',#612,#291);
#257=LINE('',#615,#292);
#258=LINE('',#619,#293);
#259=LINE('',#623,#294);
#260=LINE('',#625,#295);
#261=LINE('',#627,#296);
#262=LINE('',#629,#297);
#263=LINE('',#633,#298);
#264=LINE('',#636,#299);
#265=LINE('',#638,#300);
#266=LINE('',#640,#301);
#267=LINE('',#642,#302);
#268=LINE('',#647,#303);
#269=LINE('',#649,#304);
#270=LINE('',#653,#305);
#271=LINE('',#656,#306);
#272=LINE('',#658,#307);
#273=LINE('',#660,#308);
#274=LINE('',#664,#309);
#275=LINE('',#666,#310);
#276=LINE('',#668,#311);
#277=LINE('',#674,#312);
#278=LINE('',#678,#313);
#279=LINE('',#681,#314);
#280=LINE('',#683,#315);
#281=LINE('',#690,#316);
#282=LINE('',#693,#317);
#283=LINE('',#695,#318);
#284=LINE('',#697,#319);
#285=LINE('',#707,#320);
#286=LINE('',#717,#321);
#287=LINE('',#719,#322);
#288=LINE('',#721,#323);
#289=LINE('',#730,#324);
#290=LINE('',#732,#325);
#291=VECTOR('',#491,1.);
#292=VECTOR('',#492,1.);
#293=VECTOR('',#495,1.);
#294=VECTOR('',#498,1.);
#295=VECTOR('',#501,1.);
#296=VECTOR('',#502,1.);
#297=VECTOR('',#503,1.);
#298=VECTOR('',#508,1.);
#299=VECTOR('',#509,1.);
#300=VECTOR('',#510,1.);
#301=VECTOR('',#511,1.);
#302=VECTOR('',#512,1.);
#303=VECTOR('',#517,1.);
#304=VECTOR('',#518,1.);
#305=VECTOR('',#523,1.);
#306=VECTOR('',#524,1.);
#307=VECTOR('',#525,1.);
#308=VECTOR('',#526,1.);
#309=VECTOR('',#531,1.);
#310=VECTOR('',#532,1.);
#311=VECTOR('',#533,1.);
#312=VECTOR('',#540,1.);
#313=VECTOR('',#545,1.);
#314=VECTOR('',#548,1.);
#315=VECTOR('',#549,1.);
#316=VECTOR('',#558,1.);
#317=VECTOR('',#563,1.);
#318=VECTOR('',#564,1.);
#319=VECTOR('',#567,1.);
#320=VECTOR('',#572,1.);
#321=VECTOR('',#585,1.);
#322=VECTOR('',#588,1.);
#323=VECTOR('',#589,1.);
#324=VECTOR('',#602,1.);
#325=VECTOR('',#603,1.);
#326=EDGE_LOOP('',(#45,#46,#47,#48,#49,#50));
#327=EDGE_LOOP('',(#51,#52,#53,#54));
#328=EDGE_LOOP('',(#55));
#329=EDGE_LOOP('',(#56,#57,#58,#59,#60,#61,#62,#63,#64,#65));
#330=EDGE_LOOP('',(#66));
#331=EDGE_LOOP('',(#67,#68,#69,#70));
#332=EDGE_LOOP('',(#71));
#333=EDGE_LOOP('',(#72,#73,#74,#75));
#334=EDGE_LOOP('',(#76));
#335=EDGE_LOOP('',(#77,#78,#79,#80));
#336=EDGE_LOOP('',(#81,#82,#83,#84,#85));
#337=EDGE_LOOP('',(#86));
#338=EDGE_LOOP('',(#87));
#339=EDGE_LOOP('',(#88));
#340=EDGE_LOOP('',(#89,#90,#91,#92,#93,#94,#95));
#341=EDGE_LOOP('',(#96,#97,#98,#99,#100));
#342=EDGE_LOOP('',(#101));
#343=EDGE_LOOP('',(#102,#103,#104,#105));
#344=EDGE_LOOP('',(#106,#107,#108,#109,#110));
#345=EDGE_LOOP('',(#111,#112,#113,#114,#115,#116));
#346=EDGE_LOOP('',(#117,#118,#119,#120));
#347=EDGE_LOOP('',(#121));
#348=EDGE_LOOP('',(#122));
#349=EDGE_LOOP('',(#123,#124,#125,#126));
#350=EDGE_LOOP('',(#127,#128,#129,#130,#131));
#351=EDGE_LOOP('',(#132));
#352=EDGE_LOOP('',(#133));
#353=EDGE_LOOP('',(#134));
#354=EDGE_LOOP('',(#135,#136,#137,#138,#139,#140,#141));
#355=EDGE_LOOP('',(#142,#143,#144,#145,#146));
#356=EDGE_LOOP('',(#147));
#357=EDGE_LOOP('',(#148,#149,#150,#151,#152));
#358=EDGE_LOOP('',(#153,#154,#155,#156));
#359=EDGE_LOOP('',(#157));
#360=EDGE_LOOP('',(#158));
#361=FACE_BOUND('',#326,.T.);
#362=FACE_BOUND('',#327,.T.);
#363=FACE_BOUND('',#328,.T.);
#364=FACE_BOUND('',#329,.T.);
#365=FACE_BOUND('',#330,.T.);
#366=FACE_BOUND('',#331,.T.);
#367=FACE_BOUND('',#332,.T.);
#368=FACE_BOUND('',#333,.T.);
#369=FACE_BOUND('',#334,.T.);
#370=FACE_BOUND('',#335,.T.);
#371=FACE_BOUND('',#336,.T.);
#372=FACE_BOUND('',#337,.T.);
#373=FACE_BOUND('',#338,.T.);
#374=FACE_BOUND('',#339,.T.);
#375=FACE_BOUND('',#340,.T.);
#376=FACE_BOUND('',#341,.T.);
#377=FACE_BOUND('',#342,.T.);
#378=FACE_BOUND('',#343,.T.);
#379=FACE_BOUND('',#344,.T.);
#380=FACE_BOUND('',#345,.T.);
#381=FACE_BOUND('',#346,.T.);
#382=FACE_BOUND('',#347,.T.);
#383=FACE_BOUND('',#348,.T.);
#384=FACE_BOUND('',#349,.T.);
#385=FACE_BOUND('',#350,.T.);
#386=FACE_BOUND('',#351,.T.);
#387=FACE_BOUND('',#352,.T.);
#388=FACE_BOUND('',#353,.T.);
#389=FACE_BOUND('',#354,.T.);
#390=FACE_BOUND('',#355,.T.);
#391=FACE_BOUND('',#356,.T.);
#392=FACE_BOUND('',#357,.T.);
#393=FACE_BOUND('',#358,.T.);
#394=FACE_BOUND('',#359,.T.);
#395=FACE_BOUND('',#360,.T.);
#396=PLANE('',#444);
#397=PLANE('',#447);
#398=PLANE('',#448);
#399=PLANE('',#453);
#400=PLANE('',#454);
#401=PLANE('',#460);
#402=PLANE('',#465);
#403=PLANE('',#467);
#404=PLANE('',#468);
#405=PLANE('',#477);
#406=PLANE('',#482);
#407=PLANE('',#483);
#408=ADVANCED_FACE('',(#361),#396,.T.);
#409=ADVANCED_FACE('',(#362),#397,.T.);
#410=ADVANCED_FACE('',(#363,#364,#365),#398,.T.);
#411=ADVANCED_FACE('',(#366),#399,.F.);
#412=ADVANCED_FACE('',(#367,#368,#369),#400,.F.);
#413=ADVANCED_FACE('',(#370),#16,.T.);
#414=ADVANCED_FACE('',(#371),#401,.F.);
#415=ADVANCED_FACE('',(#372,#373),#17,.F.);
#416=ADVANCED_FACE('',(#374,#375),#402,.T.);
#417=ADVANCED_FACE('',(#376,#377),#403,.F.);
#418=ADVANCED_FACE('',(#378),#404,.T.);
#419=ADVANCED_FACE('',(#379),#18,.F.);
#420=ADVANCED_FACE('',(#380),#19,.F.);
#421=ADVANCED_FACE('',(#381),#20,.F.);
#422=ADVANCED_FACE('',(#382,#383),#21,.F.);
#423=ADVANCED_FACE('',(#384),#22,.T.);
#424=ADVANCED_FACE('',(#385),#405,.F.);
#425=ADVANCED_FACE('',(#386,#387),#23,.F.);
#426=ADVANCED_FACE('',(#388,#389),#406,.T.);
#427=ADVANCED_FACE('',(#390,#391),#407,.F.);
#428=ADVANCED_FACE('',(#392),#24,.F.);
#429=ADVANCED_FACE('',(#393),#25,.F.);
#430=ADVANCED_FACE('',(#394,#395),#26,.F.);
#431=CLOSED_SHELL('',(#408,#409,#410,#411,#412,#413,#414,#415,#416,#417,
#418,#419,#420,#421,#422,#423,#424,#425,#426,#427,#428,#429,#430));
#432=STYLED_ITEM('',(#433),#440);
#433=PRESENTATION_STYLE_ASSIGNMENT((#434));
#434=SURFACE_STYLE_USAGE(.BOTH.,#435);
#435=SURFACE_SIDE_STYLE('',(#436));
#436=SURFACE_STYLE_FILL_AREA(#437);
#437=FILL_AREA_STYLE('',(#438));
#438=FILL_AREA_STYLE_COLOUR('',#439);
#439=COLOUR_RGB('',0.615686274509804,0.811764705882353,0.929411764705882);
#440=MANIFOLD_SOLID_BREP('Part 1',#431);
#441=SHAPE_DEFINITION_REPRESENTATION(#749,#442);
#442=SHAPE_REPRESENTATION('Part 1',(#443),#744);
#443=AXIS2_PLACEMENT_3D('',#610,#487,#488);
#444=AXIS2_PLACEMENT_3D('',#611,#489,#490);
#445=AXIS2_PLACEMENT_3D('',#617,#493,#494);
#446=AXIS2_PLACEMENT_3D('',#621,#496,#497);
#447=AXIS2_PLACEMENT_3D('',#624,#499,#500);
#448=AXIS2_PLACEMENT_3D('',#630,#504,#505);
#449=AXIS2_PLACEMENT_3D('',#631,#506,#507);
#450=AXIS2_PLACEMENT_3D('',#644,#513,#514);
#451=AXIS2_PLACEMENT_3D('',#645,#515,#516);
#452=AXIS2_PLACEMENT_3D('',#650,#519,#520);
#453=AXIS2_PLACEMENT_3D('',#652,#521,#522);
#454=AXIS2_PLACEMENT_3D('',#661,#527,#528);
#455=AXIS2_PLACEMENT_3D('',#662,#529,#530);
#456=AXIS2_PLACEMENT_3D('',#669,#534,#535);
#457=AXIS2_PLACEMENT_3D('',#671,#536,#537);
#458=AXIS2_PLACEMENT_3D('',#672,#538,#539);
#459=AXIS2_PLACEMENT_3D('',#676,#541,#542);
#460=AXIS2_PLACEMENT_3D('',#677,#543,#544);
#461=AXIS2_PLACEMENT_3D('',#680,#546,#547);
#462=AXIS2_PLACEMENT_3D('',#684,#550,#551);
#463=AXIS2_PLACEMENT_3D('',#685,#552,#553);
#464=AXIS2_PLACEMENT_3D('',#687,#554,#555);
#465=AXIS2_PLACEMENT_3D('',#689,#556,#557);
#466=AXIS2_PLACEMENT_3D('',#691,#559,#560);
#467=AXIS2_PLACEMENT_3D('',#692,#561,#562);
#468=AXIS2_PLACEMENT_3D('',#696,#565,#566);
#469=AXIS2_PLACEMENT_3D('',#698,#568,#569);
#470=AXIS2_PLACEMENT_3D('',#706,#570,#571);
#471=AXIS2_PLACEMENT_3D('',#709,#573,#574);
#472=AXIS2_PLACEMENT_3D('',#710,#575,#576);
#473=AXIS2_PLACEMENT_3D('',#711,#577,#578);
#474=AXIS2_PLACEMENT_3D('',#712,#579,#580);
#475=AXIS2_PLACEMENT_3D('',#713,#581,#582);
#476=AXIS2_PLACEMENT_3D('',#715,#583,#584);
#477=AXIS2_PLACEMENT_3D('',#718,#586,#587);
#478=AXIS2_PLACEMENT_3D('',#722,#590,#591);
#479=AXIS2_PLACEMENT_3D('',#723,#592,#593);
#480=AXIS2_PLACEMENT_3D('',#724,#594,#595);
#481=AXIS2_PLACEMENT_3D('',#726,#596,#597);
#482=AXIS2_PLACEMENT_3D('',#728,#598,#599);
#483=AXIS2_PLACEMENT_3D('',#729,#600,#601);
#484=AXIS2_PLACEMENT_3D('',#733,#604,#605);
#485=AXIS2_PLACEMENT_3D('',#741,#606,#607);
#486=AXIS2_PLACEMENT_3D('',#742,#608,#609);
#487=DIRECTION('',(0.,0.,1.));
#488=DIRECTION('',(1.,0.,0.));
#489=DIRECTION('',(0.,0.,1.));
#490=DIRECTION('',(1.,0.,0.));
#491=DIRECTION('',(0.,-1.,0.));
#492=DIRECTION('',(-1.,0.,0.));
#493=DIRECTION('',(0.,0.,1.));
#494=DIRECTION('',(1.,0.,0.));
#495=DIRECTION('',(0.,-1.,0.));
#496=DIRECTION('',(0.,0.,-1.));
#497=DIRECTION('',(1.,0.,0.));
#498=DIRECTION('',(-1.,0.,0.));
#499=DIRECTION('',(-1.,0.,0.));
#500=DIRECTION('',(0.,0.,1.));
#501=DIRECTION('',(0.,0.,-1.));
#502=DIRECTION('',(0.,-1.,0.));
#503=DIRECTION('',(0.,0.,-1.));
#504=DIRECTION('',(4.24043516349886E-16,0.,-1.));
#505=DIRECTION('',(-1.,0.,-4.24043516349886E-16));
#506=DIRECTION('',(4.24043516349886E-16,0.,-1.));
#507=DIRECTION('',(-1.,0.,-4.24043516349886E-16));
#508=DIRECTION('',(-1.,0.,-4.38853060553814E-16));
#509=DIRECTION('',(0.,-1.,0.));
#510=DIRECTION('',(-1.,0.,-4.38853060553814E-16));
#511=DIRECTION('',(0.,1.,0.));
#512=DIRECTION('',(-1.,0.,-4.38853060553814E-16));
#513=DIRECTION('',(-4.24043516349886E-16,0.,1.));
#514=DIRECTION('',(-1.,0.,-4.24043516349886E-16));
#515=DIRECTION('',(4.24043516349886E-16,0.,-1.));
#516=DIRECTION('',(-1.,0.,-4.24043516349886E-16));
#517=DIRECTION('',(-1.,0.,-4.38853060553814E-16));
#518=DIRECTION('',(0.,-1.,0.));
#519=DIRECTION('',(-4.24043516349886E-16,0.,1.));
#520=DIRECTION('',(-1.,0.,-4.24043516349886E-16));
#521=DIRECTION('',(-1.,0.,0.));
#522=DIRECTION('',(0.,0.,1.));
#523=DIRECTION('',(0.,-1.,0.));
#524=DIRECTION('',(0.,0.,-1.));
#525=DIRECTION('',(0.,1.,0.));
#526=DIRECTION('',(0.,0.,-1.));
#527=DIRECTION('',(3.09772049281573E-16,0.,-1.));
#528=DIRECTION('',(-1.,0.,-3.09772049281573E-16));
#529=DIRECTION('',(-3.09772049281573E-16,0.,1.));
#530=DIRECTION('',(1.,0.,3.09772049281573E-16));
#531=DIRECTION('',(1.,0.,3.09772049281573E-16));
#532=DIRECTION('',(0.,-1.,0.));
#533=DIRECTION('',(1.,0.,3.09772049281573E-16));
#534=DIRECTION('',(3.09772049281573E-16,0.,-1.));
#535=DIRECTION('',(1.,0.,3.09772049281573E-16));
#536=DIRECTION('',(0.,-1.,0.));
#537=DIRECTION('',(0.,0.,-1.));
#538=DIRECTION('',(0.,1.,0.));
#539=DIRECTION('',(0.,0.,1.));
#540=DIRECTION('',(0.,-1.,0.));
#541=DIRECTION('',(0.,1.,0.));
#542=DIRECTION('',(0.,0.,1.));
#543=DIRECTION('',(-0.232558139534884,0.,-0.972582496108209));
#544=DIRECTION('',(-0.972582496108209,0.,0.232558139534884));
#545=DIRECTION('',(0.972582496108209,0.,-0.232558139534883));
#546=DIRECTION('',(-0.232558139534884,0.,-0.972582496108209));
#547=DIRECTION('',(-0.972582496108209,0.,0.232558139534884));
#548=DIRECTION('',(0.,-1.,0.));
#549=DIRECTION('',(0.972582496108209,0.,-0.232558139534883));
#550=DIRECTION('',(0.,-1.,0.));
#551=DIRECTION('',(0.,0.,-1.));
#552=DIRECTION('',(0.,1.,0.));
#553=DIRECTION('',(0.,0.,1.));
#554=DIRECTION('',(0.,1.,0.));
#555=DIRECTION('',(0.,0.,1.));
#556=DIRECTION('',(0.,1.,0.));
#557=DIRECTION('',(-1.,0.,0.));
#558=DIRECTION('',(-0.707106781186548,0.,-0.707106781186548));
#559=DIRECTION('',(0.,1.,0.));
#560=DIRECTION('',(0.,0.,1.));
#561=DIRECTION('',(0.,1.,0.));
#562=DIRECTION('',(-1.,0.,0.));
#563=DIRECTION('',(0.,0.,-1.));
#564=DIRECTION('',(-1.,0.,0.));
#565=DIRECTION('',(0.707106781186547,0.,-0.707106781186548));
#566=DIRECTION('',(0.,1.,0.));
#567=DIRECTION('',(-0.707106781186548,0.,-0.707106781186548));
#568=DIRECTION('',(0.,0.,-1.));
#569=DIRECTION('',(-1.,0.,0.));
#570=DIRECTION('',(0.,1.,0.));
#571=DIRECTION('',(0.,0.,1.));
#572=DIRECTION('',(0.,1.,0.));
#573=DIRECTION('',(0.,1.,0.));
#574=DIRECTION('',(0.,0.,1.));
#575=DIRECTION('',(-1.,0.,0.));
#576=DIRECTION('',(0.,0.,1.));
#577=DIRECTION('',(-3.09772049281573E-16,0.,1.));
#578=DIRECTION('',(1.,0.,3.09772049281573E-16));
#579=DIRECTION('',(0.,1.,0.));
#580=DIRECTION('',(0.,0.,-1.));
#581=DIRECTION('',(0.,1.,0.));
#582=DIRECTION('',(0.,0.,1.));
#583=DIRECTION('',(0.,1.,0.));
#584=DIRECTION('',(0.,0.,1.));
#585=DIRECTION('',(0.,1.,0.));
#586=DIRECTION('',(-0.232558139534884,0.,-0.972582496108209));
#587=DIRECTION('',(-0.972582496108209,0.,0.232558139534884));
#588=DIRECTION('',(0.972582496108209,0.,-0.232558139534883));
#589=DIRECTION('',(0.972582496108209,0.,-0.232558139534883));
#590=DIRECTION('',(0.232558139534884,0.,0.972582496108209));
#591=DIRECTION('',(-0.972582496108209,0.,0.232558139534884));
#592=DIRECTION('',(0.,1.,0.));
#593=DIRECTION('',(0.,0.,-1.));
#594=DIRECTION('',(0.,1.,0.));
#595=DIRECTION('',(0.,0.,1.));
#596=DIRECTION('',(0.,1.,0.));
#597=DIRECTION('',(0.,0.,1.));
#598=DIRECTION('',(0.,-1.,0.));
#599=DIRECTION('',(-1.,0.,0.));
#600=DIRECTION('',(0.,-1.,0.));
#601=DIRECTION('',(-1.,0.,0.));
#602=DIRECTION('',(0.,0.,-1.));
#603=DIRECTION('',(-1.,0.,0.));
#604=DIRECTION('',(0.,0.,-1.));
#605=DIRECTION('',(-1.,0.,0.));
#606=DIRECTION('',(-1.,0.,0.));
#607=DIRECTION('',(0.,0.,1.));
#608=DIRECTION('',(-3.09772049281573E-16,0.,1.));
#609=DIRECTION('',(1.,0.,3.09772049281573E-16));
#610=CARTESIAN_POINT('',(0.,0.,0.));
#611=CARTESIAN_POINT('',(0.031,0.01925,0.));
#612=CARTESIAN_POINT('',(0.043,0.01925,0.));
#613=CARTESIAN_POINT('',(0.043,0.01625,0.));
#614=CARTESIAN_POINT('',(0.043,-0.01625,0.));
#615=CARTESIAN_POINT('',(0.031,0.01625,0.));
#616=CARTESIAN_POINT('',(0.0181961524227067,0.01625,0.));
#617=CARTESIAN_POINT('',(0.013,0.01325,0.));
#618=CARTESIAN_POINT('',(0.019,0.01325,-3.03576608295941E-18));
#619=CARTESIAN_POINT('',(0.019,0.01925,-3.03576608295941E-18));
#620=CARTESIAN_POINT('',(0.019,-0.01325,-3.03576608295941E-18));
#621=CARTESIAN_POINT('',(0.013,-0.01325,0.));
#622=CARTESIAN_POINT('',(0.0181961524227067,-0.01625,0.));
#623=CARTESIAN_POINT('',(0.031,-0.01625,0.));
#624=CARTESIAN_POINT('',(0.019,0.01925,-0.0035));
#625=CARTESIAN_POINT('',(0.019,0.01325,-0.0035));
#626=CARTESIAN_POINT('',(0.019,0.01325,-0.007));
#627=CARTESIAN_POINT('',(0.019,0.01925,-0.007));
#628=CARTESIAN_POINT('',(0.019,-0.01325,-0.007));
#629=CARTESIAN_POINT('',(0.019,-0.01325,-0.0035));
#630=CARTESIAN_POINT('',(0.0415,0.01925,-0.007));
#631=CARTESIAN_POINT('',(0.0545,0.017,-0.007));
#632=CARTESIAN_POINT('',(0.0519,0.017,-0.007));
#633=CARTESIAN_POINT('',(0.0130707142142714,0.02325,-0.007));
#634=CARTESIAN_POINT('',(0.062,0.02325,-0.007));
#635=CARTESIAN_POINT('',(0.00714142842854284,0.02325,-0.007));
#636=CARTESIAN_POINT('',(0.062,0.,-0.007));
#637=CARTESIAN_POINT('',(0.062,-0.02325,-0.007));
#638=CARTESIAN_POINT('',(0.0130707142142714,-0.02325,-0.007));
#639=CARTESIAN_POINT('',(0.00714142842854284,-0.02325,-0.007));
#640=CARTESIAN_POINT('',(0.00714142842854284,-0.02325,-0.007));
#641=CARTESIAN_POINT('',(0.00714142842854284,-0.01925,-0.007));
#642=CARTESIAN_POINT('',(0.0130707142142714,-0.01925,-0.007));
#643=CARTESIAN_POINT('',(0.013,-0.01925,-0.007));
#644=CARTESIAN_POINT('',(0.013,-0.01325,-0.007));
#645=CARTESIAN_POINT('',(0.013,0.01325,-0.007));
#646=CARTESIAN_POINT('',(0.013,0.01925,-0.007));
#647=CARTESIAN_POINT('',(0.0130707142142714,0.01925,-0.007));
#648=CARTESIAN_POINT('',(0.00714142842854284,0.01925,-0.007));
#649=CARTESIAN_POINT('',(0.00714142842854284,0.02325,-0.007));
#650=CARTESIAN_POINT('',(0.0545,-0.017,-0.007));
#651=CARTESIAN_POINT('',(0.0519,-0.017,-0.007));
#652=CARTESIAN_POINT('',(0.064,0.01925,-0.0045));
#653=CARTESIAN_POINT('',(0.064,0.01925,-0.002));
#654=CARTESIAN_POINT('',(0.064,0.02325,-0.002));
#655=CARTESIAN_POINT('',(0.064,-0.02325,-0.002));
#656=CARTESIAN_POINT('',(0.064,-0.02325,-0.0045));
#657=CARTESIAN_POINT('',(0.064,-0.02325,-0.005));
#658=CARTESIAN_POINT('',(0.064,0.02325,-0.005));
#659=CARTESIAN_POINT('',(0.064,0.02325,-0.005));
#660=CARTESIAN_POINT('',(0.064,0.02325,-0.0045));
#661=CARTESIAN_POINT('',(0.0535,0.01925,-0.002));
#662=CARTESIAN_POINT('',(0.0545,0.017,-0.002));
#663=CARTESIAN_POINT('',(0.0571,0.017,-0.002));
#664=CARTESIAN_POINT('',(0.0535,0.02325,-0.002));
#665=CARTESIAN_POINT('',(0.045,0.02325,-0.002));
#666=CARTESIAN_POINT('',(0.045,0.,-0.002));
#667=CARTESIAN_POINT('',(0.045,-0.02325,-0.002));
#668=CARTESIAN_POINT('',(0.0535,-0.02325,-0.002));
#669=CARTESIAN_POINT('',(0.0545,-0.017,-0.002));
#670=CARTESIAN_POINT('',(0.0571,-0.017,-0.002));
#671=CARTESIAN_POINT('',(2.60208521396521E-18,0.02325,-1.51788304147971E-18));
#672=CARTESIAN_POINT('',(2.60208521396521E-18,0.01925,-1.51788304147971E-18));
#673=CARTESIAN_POINT('',(0.00232558139534884,0.01925,0.00972582496108209));
#674=CARTESIAN_POINT('',(0.00232558139534884,0.02325,0.00972582496108209));
#675=CARTESIAN_POINT('',(0.00232558139534884,0.02325,0.00972582496108209));
#676=CARTESIAN_POINT('',(2.60208521396521E-18,0.02325,-1.51788304147971E-18));
#677=CARTESIAN_POINT('',(0.0226627906976744,0.02325,0.00486291248054105));
#678=CARTESIAN_POINT('',(0.0226627906976744,0.01925,0.00486291248054105));
#679=CARTESIAN_POINT('',(0.0304536858002041,0.01925,0.003));
#680=CARTESIAN_POINT('',(0.0304536858002041,0.01625,0.003));
#681=CARTESIAN_POINT('',(0.043,0.02325,0.));
#682=CARTESIAN_POINT('',(0.043,0.02325,0.));
#683=CARTESIAN_POINT('',(0.0226627906976744,0.02325,0.00486291248054105));
#684=CARTESIAN_POINT('',(2.90853614797496E-19,0.02325,0.));
#685=CARTESIAN_POINT('',(2.90853614797496E-19,0.02325,0.));
#686=CARTESIAN_POINT('',(2.90853614797496E-19,0.02325,0.00475));
#687=CARTESIAN_POINT('',(2.90853614797496E-19,0.01925,0.));
#688=CARTESIAN_POINT('',(2.90853614797496E-19,0.01925,0.00475));
#689=CARTESIAN_POINT('',(0.027,0.02325,0.));
#690=CARTESIAN_POINT('',(0.048,0.02325,-0.021));
#691=CARTESIAN_POINT('',(0.045,0.02325,1.70374627104865E-18));
#692=CARTESIAN_POINT('',(0.027,0.01925,0.));
#693=CARTESIAN_POINT('',(0.013,0.01925,0.));
#694=CARTESIAN_POINT('',(0.013,0.01925,0.003));
#695=CARTESIAN_POINT('',(0.027,0.01925,0.003));
#696=CARTESIAN_POINT('',(0.062,0.01925,-0.007));
#697=CARTESIAN_POINT('',(0.048,-0.02325,-0.021));
#698=CARTESIAN_POINT('',(0.013,0.01325,-0.0035));
#699=CARTESIAN_POINT('',(0.0181961524227067,0.01625,0.));
#700=CARTESIAN_POINT('',(0.017897065680264,0.016768033433781,0.));
#701=CARTESIAN_POINT('',(0.0171655229783016,0.017675983604037,0.000258216095602092));
#702=CARTESIAN_POINT('',(0.0158434179378643,0.0186072630754252,0.00103448107435454));
#703=CARTESIAN_POINT('',(0.0144523039456888,0.0191327802252166,0.00197319290415937));
#704=CARTESIAN_POINT('',(0.0134779168217901,0.01925,0.00266206196220176));
#705=CARTESIAN_POINT('',(0.013,0.01925,0.003));
#706=CARTESIAN_POINT('',(0.045,0.01925,1.70374627104865E-18));
#707=CARTESIAN_POINT('',(0.043,-0.02325,0.));
#708=CARTESIAN_POINT('',(0.043,-0.02325,0.));
#709=CARTESIAN_POINT('',(0.045,-0.02325,1.70374627104865E-18));
#710=CARTESIAN_POINT('',(0.031,0.01625,0.003));
#711=CARTESIAN_POINT('',(0.0545,0.017,-0.082113448739739));
#712=CARTESIAN_POINT('',(2.60208521396521E-18,-0.02325,-1.51788304147971E-18));
#713=CARTESIAN_POINT('',(2.60208521396521E-18,-0.01925,-1.51788304147971E-18));
#714=CARTESIAN_POINT('',(0.00232558139534884,-0.01925,0.00972582496108209));
#715=CARTESIAN_POINT('',(2.60208521396521E-18,-0.02325,-1.51788304147971E-18));
#716=CARTESIAN_POINT('',(0.00232558139534884,-0.02325,0.00972582496108209));
#717=CARTESIAN_POINT('',(0.00232558139534884,-0.02325,0.00972582496108209));
#718=CARTESIAN_POINT('',(0.0226627906976744,-0.02325,0.00486291248054105));
#719=CARTESIAN_POINT('',(0.0226627906976744,-0.01925,0.00486291248054105));
#720=CARTESIAN_POINT('',(0.0304536858002041,-0.01925,0.003));
#721=CARTESIAN_POINT('',(0.0226627906976744,-0.02325,0.00486291248054105));
#722=CARTESIAN_POINT('',(0.0304536858002041,-0.01625,0.003));
#723=CARTESIAN_POINT('',(2.90853614797496E-19,-0.02325,0.));
#724=CARTESIAN_POINT('',(2.90853614797496E-19,-0.02325,0.));
#725=CARTESIAN_POINT('',(2.90853614797496E-19,-0.02325,0.00475));
#726=CARTESIAN_POINT('',(2.90853614797496E-19,-0.01925,0.));
#727=CARTESIAN_POINT('',(2.90853614797496E-19,-0.01925,0.00475));
#728=CARTESIAN_POINT('',(0.027,-0.02325,0.));
#729=CARTESIAN_POINT('',(0.027,-0.01925,0.));
#730=CARTESIAN_POINT('',(0.013,-0.01925,0.));
#731=CARTESIAN_POINT('',(0.013,-0.01925,0.003));
#732=CARTESIAN_POINT('',(0.027,-0.01925,0.003));
#733=CARTESIAN_POINT('',(0.013,-0.01325,-0.0035));
#734=CARTESIAN_POINT('',(0.0181961524227067,-0.01625,0.));
#735=CARTESIAN_POINT('',(0.017897065680264,-0.016768033433781,0.));
#736=CARTESIAN_POINT('',(0.0171655229783016,-0.017675983604037,0.000258216095602092));
#737=CARTESIAN_POINT('',(0.0158434179378643,-0.0186072630754252,0.00103448107435454));
#738=CARTESIAN_POINT('',(0.0144523039456888,-0.0191327802252166,0.00197319290415937));
#739=CARTESIAN_POINT('',(0.0134779168217901,-0.01925,0.00266206196220176));
#740=CARTESIAN_POINT('',(0.013,-0.01925,0.003));
#741=CARTESIAN_POINT('',(0.031,-0.01625,0.003));
#742=CARTESIAN_POINT('',(0.0545,-0.017,-0.082113448739739));
#743=MECHANICAL_DESIGN_GEOMETRIC_PRESENTATION_REPRESENTATION('',(#432),
#744);
#744=(
GEOMETRIC_REPRESENTATION_CONTEXT(3)
GLOBAL_UNCERTAINTY_ASSIGNED_CONTEXT((#745))
GLOBAL_UNIT_ASSIGNED_CONTEXT((#748,#747,#746))
REPRESENTATION_CONTEXT('Part 1','TOP_LEVEL_ASSEMBLY_PART')
);
#745=UNCERTAINTY_MEASURE_WITH_UNIT(LENGTH_MEASURE(2.E-5),#748,
'DISTANCE_ACCURACY_VALUE','Maximum Tolerance applied to model');
#746=(
NAMED_UNIT(*)
SI_UNIT($,.STERADIAN.)
SOLID_ANGLE_UNIT()
);
#747=(
NAMED_UNIT(*)
PLANE_ANGLE_UNIT()
SI_UNIT($,.RADIAN.)
);
#748=(
LENGTH_UNIT()
NAMED_UNIT(*)
SI_UNIT($,.METRE.)
);
#749=PRODUCT_DEFINITION_SHAPE('','',#750);
#750=PRODUCT_DEFINITION('','',#752,#751);
#751=PRODUCT_DEFINITION_CONTEXT('',#758,'design');
#752=PRODUCT_DEFINITION_FORMATION_WITH_SPECIFIED_SOURCE('','',#754,
 .NOT_KNOWN.);
#753=PRODUCT_RELATED_PRODUCT_CATEGORY('','',(#754));
#754=PRODUCT('Part 1','Part 1','Part 1',(#756));
#755=PRODUCT_CATEGORY('','');
#756=PRODUCT_CONTEXT('',#758,'mechanical');
#757=APPLICATION_PROTOCOL_DEFINITION('international standard',
'ap242_managed_model_based_3d_engineering',2020,#758);
#758=APPLICATION_CONTEXT('managed model based 3d engineering');
ENDSEC;
END-ISO-10303-21;
