ISO-10303-21;
HEADER;
/* Generated by software containing ST-Developer
 * from STEP Tools, Inc. (www.steptools.com) 
 */
/* OPTION: using custom renumber hook */

FILE_DESCRIPTION(
/* description */ ('STEP AP242 Edition 2',
'CAx-IF Rec.Pracs.---Representation and Presentation of Product Manufa
cturing Information (PMI)---4.0---2014-10-13',
'CAx-IF Rec.Pracs.---3D Tessellated Geometry---0.4---2014-09-14','2;1',
'CAx-IF Rec.Pracs.---User Defined Attributes---1.5---2016-08-15'),
/* implementation_level */ '2;1');

FILE_NAME(
/* name */ 'Part Studio 1',
/* time_stamp */ '2026-09-06T18:17:41Z',
/* author */ (''),
/* organization */ (''),
/* preprocessor_version */ 'ST-DEVELOPER v20',
/* originating_system */ 'ONSHAPE BY PTC INC, 1.220',
/* authorisation */ '  ');

FILE_SCHEMA (('AP242_MANAGED_MODEL_BASED_3D_ENGINEERING_MIM_LF { 1 0 10303 442 3 1 4 }'));
ENDSEC;

DATA;
#10=SHAPE_REPRESENTATION_RELATIONSHIP('','',#765,#11);
#11=ADVANCED_BREP_SHAPE_REPRESENTATION('',(#763),#1249);
#12=CYLINDRICAL_SURFACE('',#773,0.0375);
#13=CYLINDRICAL_SURFACE('',#803,0.0175);
#14=CYLINDRICAL_SURFACE('',#822,0.01);
#15=CYLINDRICAL_SURFACE('',#823,0.01);
#16=CYLINDRICAL_SURFACE('',#824,0.01);
#17=CYLINDRICAL_SURFACE('',#825,0.01);
#18=CYLINDRICAL_SURFACE('',#826,0.0075);
#19=CYLINDRICAL_SURFACE('',#827,0.0075);
#20=CYLINDRICAL_SURFACE('',#828,0.0075);
#21=CYLINDRICAL_SURFACE('',#829,0.0075);
#22=LINE('',#1040,#100);
#23=LINE('',#1043,#101);
#24=LINE('',#1045,#102);
#25=LINE('',#1047,#103);
#26=LINE('',#1049,#104);
#27=LINE('',#1051,#105);
#28=LINE('',#1053,#106);
#29=LINE('',#1055,#107);
#30=LINE('',#1058,#108);
#31=LINE('',#1060,#109);
#32=LINE('',#1062,#110);
#33=LINE('',#1066,#111);
#34=LINE('',#1069,#112);
#35=LINE('',#1070,#113);
#36=LINE('',#1075,#114);
#37=LINE('',#1079,#115);
#38=LINE('',#1083,#116);
#39=LINE('',#1087,#117);
#40=LINE('',#1091,#118);
#41=LINE('',#1095,#119);
#42=LINE('',#1097,#120);
#43=LINE('',#1100,#121);
#44=LINE('',#1102,#122);
#45=LINE('',#1104,#123);
#46=LINE('',#1106,#124);
#47=LINE('',#1108,#125);
#48=LINE('',#1110,#126);
#49=LINE('',#1112,#127);
#50=LINE('',#1114,#128);
#51=LINE('',#1116,#129);
#52=LINE('',#1118,#130);
#53=LINE('',#1120,#131);
#54=LINE('',#1122,#132);
#55=LINE('',#1128,#133);
#56=LINE('',#1130,#134);
#57=LINE('',#1132,#135);
#58=LINE('',#1134,#136);
#59=LINE('',#1135,#137);
#60=LINE('',#1137,#138);
#61=LINE('',#1139,#139);
#62=LINE('',#1143,#140);
#63=LINE('',#1145,#141);
#64=LINE('',#1147,#142);
#65=LINE('',#1149,#143);
#66=LINE('',#1151,#144);
#67=LINE('',#1153,#145);
#68=LINE('',#1155,#146);
#69=LINE('',#1158,#147);
#70=LINE('',#1160,#148);
#71=LINE('',#1162,#149);
#72=LINE('',#1166,#150);
#73=LINE('',#1168,#151);
#74=LINE('',#1170,#152);
#75=LINE('',#1172,#153);
#76=LINE('',#1174,#154);
#77=LINE('',#1176,#155);
#78=LINE('',#1177,#156);
#79=LINE('',#1183,#157);
#80=LINE('',#1185,#158);
#81=LINE('',#1187,#159);
#82=LINE('',#1189,#160);
#83=LINE('',#1191,#161);
#84=LINE('',#1193,#162);
#85=LINE('',#1195,#163);
#86=LINE('',#1197,#164);
#87=LINE('',#1199,#165);
#88=LINE('',#1201,#166);
#89=LINE('',#1203,#167);
#90=LINE('',#1205,#168);
#91=LINE('',#1207,#169);
#92=LINE('',#1209,#170);
#93=LINE('',#1211,#171);
#94=LINE('',#1213,#172);
#95=LINE('',#1214,#173);
#96=LINE('',#1227,#174);
#97=LINE('',#1228,#175);
#98=LINE('',#1234,#176);
#99=LINE('',#1235,#177);
#100=VECTOR('',#836,1.);
#101=VECTOR('',#837,1.);
#102=VECTOR('',#838,1.);
#103=VECTOR('',#839,1.);
#104=VECTOR('',#842,1.);
#105=VECTOR('',#843,1.);
#106=VECTOR('',#844,1.);
#107=VECTOR('',#847,1.);
#108=VECTOR('',#848,1.);
#109=VECTOR('',#849,1.);
#110=VECTOR('',#850,1.);
#111=VECTOR('',#855,1.);
#112=VECTOR('',#856,1.);
#113=VECTOR('',#857,1.);
#114=VECTOR('',#862,1.);
#115=VECTOR('',#865,1.);
#116=VECTOR('',#868,1.);
#117=VECTOR('',#871,1.);
#118=VECTOR('',#874,1.);
#119=VECTOR('',#877,1.);
#120=VECTOR('',#880,1.);
#121=VECTOR('',#881,1.);
#122=VECTOR('',#882,1.);
#123=VECTOR('',#883,1.);
#124=VECTOR('',#886,1.);
#125=VECTOR('',#887,1.);
#126=VECTOR('',#888,1.);
#127=VECTOR('',#891,1.);
#128=VECTOR('',#892,1.);
#129=VECTOR('',#893,1.);
#130=VECTOR('',#896,1.);
#131=VECTOR('',#897,1.);
#132=VECTOR('',#898,1.);
#133=VECTOR('',#905,1.);
#134=VECTOR('',#906,1.);
#135=VECTOR('',#907,1.);
#136=VECTOR('',#910,1.);
#137=VECTOR('',#911,1.);
#138=VECTOR('',#912,1.);
#139=VECTOR('',#913,1.);
#140=VECTOR('',#918,1.);
#141=VECTOR('',#919,1.);
#142=VECTOR('',#920,1.);
#143=VECTOR('',#923,1.);
#144=VECTOR('',#924,1.);
#145=VECTOR('',#925,1.);
#146=VECTOR('',#928,1.);
#147=VECTOR('',#929,1.);
#148=VECTOR('',#930,1.);
#149=VECTOR('',#931,1.);
#150=VECTOR('',#936,1.);
#151=VECTOR('',#937,1.);
#152=VECTOR('',#938,1.);
#153=VECTOR('',#941,1.);
#154=VECTOR('',#942,1.);
#155=VECTOR('',#943,1.);
#156=VECTOR('',#944,1.);
#157=VECTOR('',#951,1.);
#158=VECTOR('',#952,1.);
#159=VECTOR('',#953,1.);
#160=VECTOR('',#956,1.);
#161=VECTOR('',#957,1.);
#162=VECTOR('',#958,1.);
#163=VECTOR('',#961,1.);
#164=VECTOR('',#962,1.);
#165=VECTOR('',#963,1.);
#166=VECTOR('',#966,1.);
#167=VECTOR('',#967,1.);
#168=VECTOR('',#968,1.);
#169=VECTOR('',#971,1.);
#170=VECTOR('',#972,1.);
#171=VECTOR('',#973,1.);
#172=VECTOR('',#976,1.);
#173=VECTOR('',#977,1.);
#174=VECTOR('',#998,1.);
#175=VECTOR('',#999,1.);
#176=VECTOR('',#1010,1.);
#177=VECTOR('',#1011,1.);
#178=ORIENTED_EDGE('',*,*,#382,.F.);
#179=ORIENTED_EDGE('',*,*,#383,.F.);
#180=ORIENTED_EDGE('',*,*,#384,.T.);
#181=ORIENTED_EDGE('',*,*,#385,.T.);
#182=ORIENTED_EDGE('',*,*,#386,.F.);
#183=ORIENTED_EDGE('',*,*,#387,.T.);
#184=ORIENTED_EDGE('',*,*,#388,.T.);
#185=ORIENTED_EDGE('',*,*,#389,.F.);
#186=ORIENTED_EDGE('',*,*,#386,.T.);
#187=ORIENTED_EDGE('',*,*,#390,.T.);
#188=ORIENTED_EDGE('',*,*,#391,.T.);
#189=ORIENTED_EDGE('',*,*,#392,.F.);
#190=ORIENTED_EDGE('',*,*,#393,.F.);
#191=ORIENTED_EDGE('',*,*,#394,.T.);
#192=ORIENTED_EDGE('',*,*,#395,.F.);
#193=ORIENTED_EDGE('',*,*,#396,.T.);
#194=ORIENTED_EDGE('',*,*,#393,.T.);
#195=ORIENTED_EDGE('',*,*,#397,.F.);
#196=ORIENTED_EDGE('',*,*,#398,.T.);
#197=ORIENTED_EDGE('',*,*,#399,.T.);
#198=ORIENTED_EDGE('',*,*,#400,.F.);
#199=ORIENTED_EDGE('',*,*,#401,.F.);
#200=ORIENTED_EDGE('',*,*,#402,.T.);
#201=ORIENTED_EDGE('',*,*,#403,.T.);
#202=ORIENTED_EDGE('',*,*,#404,.F.);
#203=ORIENTED_EDGE('',*,*,#405,.T.);
#204=ORIENTED_EDGE('',*,*,#406,.T.);
#205=ORIENTED_EDGE('',*,*,#407,.T.);
#206=ORIENTED_EDGE('',*,*,#408,.F.);
#207=ORIENTED_EDGE('',*,*,#409,.T.);
#208=ORIENTED_EDGE('',*,*,#410,.T.);
#209=ORIENTED_EDGE('',*,*,#411,.F.);
#210=ORIENTED_EDGE('',*,*,#412,.F.);
#211=ORIENTED_EDGE('',*,*,#413,.T.);
#212=ORIENTED_EDGE('',*,*,#414,.T.);
#213=ORIENTED_EDGE('',*,*,#415,.F.);
#214=ORIENTED_EDGE('',*,*,#416,.F.);
#215=ORIENTED_EDGE('',*,*,#411,.T.);
#216=ORIENTED_EDGE('',*,*,#417,.T.);
#217=ORIENTED_EDGE('',*,*,#418,.F.);
#218=ORIENTED_EDGE('',*,*,#419,.F.);
#219=ORIENTED_EDGE('',*,*,#415,.T.);
#220=ORIENTED_EDGE('',*,*,#420,.T.);
#221=ORIENTED_EDGE('',*,*,#421,.F.);
#222=ORIENTED_EDGE('',*,*,#422,.F.);
#223=ORIENTED_EDGE('',*,*,#418,.T.);
#224=ORIENTED_EDGE('',*,*,#423,.F.);
#225=ORIENTED_EDGE('',*,*,#424,.F.);
#226=ORIENTED_EDGE('',*,*,#425,.T.);
#227=ORIENTED_EDGE('',*,*,#426,.F.);
#228=ORIENTED_EDGE('',*,*,#427,.F.);
#229=ORIENTED_EDGE('',*,*,#421,.T.);
#230=ORIENTED_EDGE('',*,*,#428,.T.);
#231=ORIENTED_EDGE('',*,*,#384,.F.);
#232=ORIENTED_EDGE('',*,*,#429,.F.);
#233=ORIENTED_EDGE('',*,*,#430,.F.);
#234=ORIENTED_EDGE('',*,*,#431,.F.);
#235=ORIENTED_EDGE('',*,*,#426,.T.);
#236=ORIENTED_EDGE('',*,*,#432,.F.);
#237=ORIENTED_EDGE('',*,*,#430,.T.);
#238=ORIENTED_EDGE('',*,*,#433,.T.);
#239=ORIENTED_EDGE('',*,*,#434,.F.);
#240=ORIENTED_EDGE('',*,*,#435,.F.);
#241=ORIENTED_EDGE('',*,*,#436,.T.);
#242=ORIENTED_EDGE('',*,*,#437,.T.);
#243=ORIENTED_EDGE('',*,*,#438,.F.);
#244=ORIENTED_EDGE('',*,*,#434,.T.);
#245=ORIENTED_EDGE('',*,*,#439,.T.);
#246=ORIENTED_EDGE('',*,*,#440,.T.);
#247=ORIENTED_EDGE('',*,*,#441,.F.);
#248=ORIENTED_EDGE('',*,*,#442,.F.);
#249=ORIENTED_EDGE('',*,*,#443,.T.);
#250=ORIENTED_EDGE('',*,*,#444,.F.);
#251=ORIENTED_EDGE('',*,*,#445,.F.);
#252=ORIENTED_EDGE('',*,*,#446,.T.);
#253=ORIENTED_EDGE('',*,*,#442,.T.);
#254=ORIENTED_EDGE('',*,*,#447,.F.);
#255=ORIENTED_EDGE('',*,*,#448,.F.);
#256=ORIENTED_EDGE('',*,*,#449,.T.);
#257=ORIENTED_EDGE('',*,*,#445,.T.);
#258=ORIENTED_EDGE('',*,*,#450,.T.);
#259=ORIENTED_EDGE('',*,*,#395,.T.);
#260=ORIENTED_EDGE('',*,*,#451,.F.);
#261=ORIENTED_EDGE('',*,*,#452,.F.);
#262=ORIENTED_EDGE('',*,*,#453,.F.);
#263=ORIENTED_EDGE('',*,*,#454,.F.);
#264=ORIENTED_EDGE('',*,*,#455,.T.);
#265=ORIENTED_EDGE('',*,*,#448,.T.);
#266=ORIENTED_EDGE('',*,*,#456,.F.);
#267=ORIENTED_EDGE('',*,*,#457,.F.);
#268=ORIENTED_EDGE('',*,*,#458,.T.);
#269=ORIENTED_EDGE('',*,*,#454,.T.);
#270=ORIENTED_EDGE('',*,*,#459,.F.);
#271=ORIENTED_EDGE('',*,*,#460,.F.);
#272=ORIENTED_EDGE('',*,*,#461,.T.);
#273=ORIENTED_EDGE('',*,*,#457,.T.);
#274=ORIENTED_EDGE('',*,*,#462,.F.);
#275=ORIENTED_EDGE('',*,*,#463,.F.);
#276=ORIENTED_EDGE('',*,*,#464,.T.);
#277=ORIENTED_EDGE('',*,*,#460,.T.);
#278=ORIENTED_EDGE('',*,*,#465,.F.);
#279=ORIENTED_EDGE('',*,*,#466,.F.);
#280=ORIENTED_EDGE('',*,*,#467,.T.);
#281=ORIENTED_EDGE('',*,*,#463,.T.);
#282=ORIENTED_EDGE('',*,*,#468,.F.);
#283=ORIENTED_EDGE('',*,*,#413,.F.);
#284=ORIENTED_EDGE('',*,*,#469,.T.);
#285=ORIENTED_EDGE('',*,*,#466,.T.);
#286=ORIENTED_EDGE('',*,*,#470,.T.);
#287=ORIENTED_EDGE('',*,*,#471,.F.);
#288=ORIENTED_EDGE('',*,*,#412,.T.);
#289=ORIENTED_EDGE('',*,*,#416,.T.);
#290=ORIENTED_EDGE('',*,*,#419,.T.);
#291=ORIENTED_EDGE('',*,*,#422,.T.);
#292=ORIENTED_EDGE('',*,*,#427,.T.);
#293=ORIENTED_EDGE('',*,*,#431,.T.);
#294=ORIENTED_EDGE('',*,*,#435,.T.);
#295=ORIENTED_EDGE('',*,*,#438,.T.);
#296=ORIENTED_EDGE('',*,*,#472,.T.);
#297=ORIENTED_EDGE('',*,*,#404,.T.);
#298=ORIENTED_EDGE('',*,*,#473,.T.);
#299=ORIENTED_EDGE('',*,*,#439,.F.);
#300=ORIENTED_EDGE('',*,*,#446,.F.);
#301=ORIENTED_EDGE('',*,*,#449,.F.);
#302=ORIENTED_EDGE('',*,*,#455,.F.);
#303=ORIENTED_EDGE('',*,*,#458,.F.);
#304=ORIENTED_EDGE('',*,*,#461,.F.);
#305=ORIENTED_EDGE('',*,*,#464,.F.);
#306=ORIENTED_EDGE('',*,*,#467,.F.);
#307=ORIENTED_EDGE('',*,*,#469,.F.);
#308=ORIENTED_EDGE('',*,*,#470,.F.);
#309=ORIENTED_EDGE('',*,*,#410,.F.);
#310=ORIENTED_EDGE('',*,*,#468,.T.);
#311=ORIENTED_EDGE('',*,*,#465,.T.);
#312=ORIENTED_EDGE('',*,*,#462,.T.);
#313=ORIENTED_EDGE('',*,*,#459,.T.);
#314=ORIENTED_EDGE('',*,*,#456,.T.);
#315=ORIENTED_EDGE('',*,*,#453,.T.);
#316=ORIENTED_EDGE('',*,*,#447,.T.);
#317=ORIENTED_EDGE('',*,*,#397,.T.);
#318=ORIENTED_EDGE('',*,*,#392,.T.);
#319=ORIENTED_EDGE('',*,*,#474,.T.);
#320=ORIENTED_EDGE('',*,*,#398,.F.);
#321=ORIENTED_EDGE('',*,*,#475,.T.);
#322=ORIENTED_EDGE('',*,*,#387,.F.);
#323=ORIENTED_EDGE('',*,*,#385,.F.);
#324=ORIENTED_EDGE('',*,*,#428,.F.);
#325=ORIENTED_EDGE('',*,*,#425,.F.);
#326=ORIENTED_EDGE('',*,*,#420,.F.);
#327=ORIENTED_EDGE('',*,*,#417,.F.);
#328=ORIENTED_EDGE('',*,*,#414,.F.);
#329=ORIENTED_EDGE('',*,*,#471,.T.);
#330=ORIENTED_EDGE('',*,*,#476,.F.);
#331=ORIENTED_EDGE('',*,*,#450,.F.);
#332=ORIENTED_EDGE('',*,*,#477,.T.);
#333=ORIENTED_EDGE('',*,*,#401,.T.);
#334=ORIENTED_EDGE('',*,*,#441,.T.);
#335=ORIENTED_EDGE('',*,*,#478,.T.);
#336=ORIENTED_EDGE('',*,*,#402,.F.);
#337=ORIENTED_EDGE('',*,*,#477,.F.);
#338=ORIENTED_EDGE('',*,*,#444,.T.);
#339=ORIENTED_EDGE('',*,*,#400,.T.);
#340=ORIENTED_EDGE('',*,*,#479,.T.);
#341=ORIENTED_EDGE('',*,*,#390,.F.);
#342=ORIENTED_EDGE('',*,*,#396,.F.);
#343=ORIENTED_EDGE('',*,*,#476,.T.);
#344=ORIENTED_EDGE('',*,*,#480,.T.);
#345=ORIENTED_EDGE('',*,*,#407,.F.);
#346=ORIENTED_EDGE('',*,*,#481,.F.);
#347=ORIENTED_EDGE('',*,*,#429,.T.);
#348=ORIENTED_EDGE('',*,*,#406,.F.);
#349=ORIENTED_EDGE('',*,*,#482,.T.);
#350=ORIENTED_EDGE('',*,*,#436,.F.);
#351=ORIENTED_EDGE('',*,*,#433,.F.);
#352=ORIENTED_EDGE('',*,*,#481,.T.);
#353=ORIENTED_EDGE('',*,*,#389,.T.);
#354=ORIENTED_EDGE('',*,*,#483,.T.);
#355=ORIENTED_EDGE('',*,*,#408,.T.);
#356=ORIENTED_EDGE('',*,*,#480,.F.);
#357=ORIENTED_EDGE('',*,*,#383,.T.);
#358=ORIENTED_EDGE('',*,*,#479,.F.);
#359=ORIENTED_EDGE('',*,*,#399,.F.);
#360=ORIENTED_EDGE('',*,*,#474,.F.);
#361=ORIENTED_EDGE('',*,*,#391,.F.);
#362=ORIENTED_EDGE('',*,*,#483,.F.);
#363=ORIENTED_EDGE('',*,*,#388,.F.);
#364=ORIENTED_EDGE('',*,*,#475,.F.);
#365=ORIENTED_EDGE('',*,*,#409,.F.);
#366=ORIENTED_EDGE('',*,*,#472,.F.);
#367=ORIENTED_EDGE('',*,*,#437,.F.);
#368=ORIENTED_EDGE('',*,*,#482,.F.);
#369=ORIENTED_EDGE('',*,*,#405,.F.);
#370=ORIENTED_EDGE('',*,*,#473,.F.);
#371=ORIENTED_EDGE('',*,*,#403,.F.);
#372=ORIENTED_EDGE('',*,*,#478,.F.);
#373=ORIENTED_EDGE('',*,*,#440,.F.);
#374=ORIENTED_EDGE('',*,*,#432,.T.);
#375=ORIENTED_EDGE('',*,*,#423,.T.);
#376=ORIENTED_EDGE('',*,*,#382,.T.);
#377=ORIENTED_EDGE('',*,*,#424,.T.);
#378=ORIENTED_EDGE('',*,*,#452,.T.);
#379=ORIENTED_EDGE('',*,*,#394,.F.);
#380=ORIENTED_EDGE('',*,*,#451,.T.);
#381=ORIENTED_EDGE('',*,*,#443,.F.);
#382=EDGE_CURVE('',#484,#484,#554,.F.);
#383=EDGE_CURVE('',#485,#486,#22,.T.);
#384=EDGE_CURVE('',#485,#487,#23,.T.);
#385=EDGE_CURVE('',#487,#488,#24,.T.);
#386=EDGE_CURVE('',#486,#488,#25,.T.);
#387=EDGE_CURVE('',#488,#489,#26,.T.);
#388=EDGE_CURVE('',#489,#490,#27,.T.);
#389=EDGE_CURVE('',#486,#490,#28,.T.);
#390=EDGE_CURVE('',#491,#492,#29,.T.);
#391=EDGE_CURVE('',#492,#493,#30,.T.);
#392=EDGE_CURVE('',#494,#493,#31,.T.);
#393=EDGE_CURVE('',#491,#494,#32,.T.);
#394=EDGE_CURVE('',#495,#495,#555,.F.);
#395=EDGE_CURVE('',#496,#497,#33,.T.);
#396=EDGE_CURVE('',#496,#491,#34,.T.);
#397=EDGE_CURVE('',#497,#494,#35,.T.);
#398=EDGE_CURVE('',#498,#499,#556,.T.);
#399=EDGE_CURVE('',#499,#500,#36,.F.);
#400=EDGE_CURVE('',#501,#500,#557,.T.);
#401=EDGE_CURVE('',#502,#501,#37,.T.);
#402=EDGE_CURVE('',#502,#503,#558,.T.);
#403=EDGE_CURVE('',#503,#504,#38,.F.);
#404=EDGE_CURVE('',#505,#504,#559,.T.);
#405=EDGE_CURVE('',#505,#506,#39,.T.);
#406=EDGE_CURVE('',#506,#507,#560,.T.);
#407=EDGE_CURVE('',#507,#508,#40,.T.);
#408=EDGE_CURVE('',#509,#508,#561,.T.);
#409=EDGE_CURVE('',#509,#498,#41,.T.);
#410=EDGE_CURVE('',#510,#511,#42,.T.);
#411=EDGE_CURVE('',#512,#511,#43,.T.);
#412=EDGE_CURVE('',#513,#512,#44,.T.);
#413=EDGE_CURVE('',#513,#510,#45,.T.);
#414=EDGE_CURVE('',#511,#514,#46,.T.);
#415=EDGE_CURVE('',#515,#514,#47,.T.);
#416=EDGE_CURVE('',#512,#515,#48,.T.);
#417=EDGE_CURVE('',#514,#516,#49,.T.);
#418=EDGE_CURVE('',#517,#516,#50,.T.);
#419=EDGE_CURVE('',#515,#517,#51,.T.);
#420=EDGE_CURVE('',#516,#518,#52,.T.);
#421=EDGE_CURVE('',#519,#518,#53,.T.);
#422=EDGE_CURVE('',#517,#519,#54,.T.);
#423=EDGE_CURVE('',#520,#520,#562,.T.);
#424=EDGE_CURVE('',#521,#521,#563,.T.);
#425=EDGE_CURVE('',#518,#522,#55,.T.);
#426=EDGE_CURVE('',#523,#522,#56,.T.);
#427=EDGE_CURVE('',#519,#523,#57,.T.);
#428=EDGE_CURVE('',#522,#487,#58,.T.);
#429=EDGE_CURVE('',#524,#485,#59,.T.);
#430=EDGE_CURVE('',#525,#524,#60,.T.);
#431=EDGE_CURVE('',#523,#525,#61,.T.);
#432=EDGE_CURVE('',#526,#526,#564,.F.);
#433=EDGE_CURVE('',#524,#527,#62,.T.);
#434=EDGE_CURVE('',#528,#527,#63,.T.);
#435=EDGE_CURVE('',#525,#528,#64,.T.);
#436=EDGE_CURVE('',#527,#529,#65,.T.);
#437=EDGE_CURVE('',#529,#530,#66,.T.);
#438=EDGE_CURVE('',#528,#530,#67,.T.);
#439=EDGE_CURVE('',#531,#532,#68,.T.);
#440=EDGE_CURVE('',#532,#533,#69,.T.);
#441=EDGE_CURVE('',#534,#533,#70,.T.);
#442=EDGE_CURVE('',#531,#534,#71,.T.);
#443=EDGE_CURVE('',#535,#535,#565,.F.);
#444=EDGE_CURVE('',#536,#534,#72,.T.);
#445=EDGE_CURVE('',#537,#536,#73,.T.);
#446=EDGE_CURVE('',#537,#531,#74,.T.);
#447=EDGE_CURVE('',#538,#497,#75,.T.);
#448=EDGE_CURVE('',#539,#538,#76,.T.);
#449=EDGE_CURVE('',#539,#537,#77,.T.);
#450=EDGE_CURVE('',#536,#496,#78,.T.);
#451=EDGE_CURVE('',#540,#540,#566,.T.);
#452=EDGE_CURVE('',#541,#541,#567,.T.);
#453=EDGE_CURVE('',#542,#538,#79,.T.);
#454=EDGE_CURVE('',#543,#542,#80,.T.);
#455=EDGE_CURVE('',#543,#539,#81,.T.);
#456=EDGE_CURVE('',#544,#542,#82,.T.);
#457=EDGE_CURVE('',#545,#544,#83,.T.);
#458=EDGE_CURVE('',#545,#543,#84,.T.);
#459=EDGE_CURVE('',#546,#544,#85,.T.);
#460=EDGE_CURVE('',#547,#546,#86,.T.);
#461=EDGE_CURVE('',#547,#545,#87,.T.);
#462=EDGE_CURVE('',#548,#546,#88,.T.);
#463=EDGE_CURVE('',#549,#548,#89,.T.);
#464=EDGE_CURVE('',#549,#547,#90,.T.);
#465=EDGE_CURVE('',#550,#548,#91,.T.);
#466=EDGE_CURVE('',#551,#550,#92,.T.);
#467=EDGE_CURVE('',#551,#549,#93,.T.);
#468=EDGE_CURVE('',#510,#550,#94,.T.);
#469=EDGE_CURVE('',#513,#551,#95,.T.);
#470=EDGE_CURVE('',#552,#552,#568,.T.);
#471=EDGE_CURVE('',#553,#553,#569,.T.);
#472=EDGE_CURVE('',#530,#505,#570,.F.);
#473=EDGE_CURVE('',#504,#532,#571,.F.);
#474=EDGE_CURVE('',#493,#499,#572,.T.);
#475=EDGE_CURVE('',#498,#489,#573,.T.);
#476=EDGE_CURVE('',#496,#501,#96,.T.);
#477=EDGE_CURVE('',#536,#502,#97,.T.);
#478=EDGE_CURVE('',#533,#503,#574,.T.);
#479=EDGE_CURVE('',#500,#492,#575,.F.);
#480=EDGE_CURVE('',#485,#508,#98,.T.);
#481=EDGE_CURVE('',#524,#507,#99,.T.);
#482=EDGE_CURVE('',#506,#529,#576,.T.);
#483=EDGE_CURVE('',#490,#509,#577,.F.);
#484=VERTEX_POINT('',#1039);
#485=VERTEX_POINT('',#1041);
#486=VERTEX_POINT('',#1042);
#487=VERTEX_POINT('',#1044);
#488=VERTEX_POINT('',#1046);
#489=VERTEX_POINT('',#1050);
#490=VERTEX_POINT('',#1052);
#491=VERTEX_POINT('',#1056);
#492=VERTEX_POINT('',#1057);
#493=VERTEX_POINT('',#1059);
#494=VERTEX_POINT('',#1061);
#495=VERTEX_POINT('',#1065);
#496=VERTEX_POINT('',#1067);
#497=VERTEX_POINT('',#1068);
#498=VERTEX_POINT('',#1073);
#499=VERTEX_POINT('',#1074);
#500=VERTEX_POINT('',#1076);
#501=VERTEX_POINT('',#1078);
#502=VERTEX_POINT('',#1080);
#503=VERTEX_POINT('',#1082);
#504=VERTEX_POINT('',#1084);
#505=VERTEX_POINT('',#1086);
#506=VERTEX_POINT('',#1088);
#507=VERTEX_POINT('',#1090);
#508=VERTEX_POINT('',#1092);
#509=VERTEX_POINT('',#1094);
#510=VERTEX_POINT('',#1098);
#511=VERTEX_POINT('',#1099);
#512=VERTEX_POINT('',#1101);
#513=VERTEX_POINT('',#1103);
#514=VERTEX_POINT('',#1107);
#515=VERTEX_POINT('',#1109);
#516=VERTEX_POINT('',#1113);
#517=VERTEX_POINT('',#1115);
#518=VERTEX_POINT('',#1119);
#519=VERTEX_POINT('',#1121);
#520=VERTEX_POINT('',#1125);
#521=VERTEX_POINT('',#1127);
#522=VERTEX_POINT('',#1129);
#523=VERTEX_POINT('',#1131);
#524=VERTEX_POINT('',#1136);
#525=VERTEX_POINT('',#1138);
#526=VERTEX_POINT('',#1142);
#527=VERTEX_POINT('',#1144);
#528=VERTEX_POINT('',#1146);
#529=VERTEX_POINT('',#1150);
#530=VERTEX_POINT('',#1152);
#531=VERTEX_POINT('',#1156);
#532=VERTEX_POINT('',#1157);
#533=VERTEX_POINT('',#1159);
#534=VERTEX_POINT('',#1161);
#535=VERTEX_POINT('',#1165);
#536=VERTEX_POINT('',#1167);
#537=VERTEX_POINT('',#1169);
#538=VERTEX_POINT('',#1173);
#539=VERTEX_POINT('',#1175);
#540=VERTEX_POINT('',#1180);
#541=VERTEX_POINT('',#1182);
#542=VERTEX_POINT('',#1184);
#543=VERTEX_POINT('',#1186);
#544=VERTEX_POINT('',#1190);
#545=VERTEX_POINT('',#1192);
#546=VERTEX_POINT('',#1196);
#547=VERTEX_POINT('',#1198);
#548=VERTEX_POINT('',#1202);
#549=VERTEX_POINT('',#1204);
#550=VERTEX_POINT('',#1208);
#551=VERTEX_POINT('',#1210);
#552=VERTEX_POINT('',#1217);
#553=VERTEX_POINT('',#1219);
#554=CIRCLE('',#768,0.0075);
#555=CIRCLE('',#772,0.0075);
#556=CIRCLE('',#774,0.0375);
#557=CIRCLE('',#775,0.0375);
#558=CIRCLE('',#776,0.0375);
#559=CIRCLE('',#777,0.0375);
#560=CIRCLE('',#778,0.0375);
#561=CIRCLE('',#779,0.0375);
#562=CIRCLE('',#785,0.0075);
#563=CIRCLE('',#786,0.0075);
#564=CIRCLE('',#789,0.0075);
#565=CIRCLE('',#793,0.0075);
#566=CIRCLE('',#796,0.0075);
#567=CIRCLE('',#797,0.0075);
#568=CIRCLE('',#804,0.0175);
#569=CIRCLE('',#805,0.0175);
#570=CIRCLE('',#807,0.01);
#571=CIRCLE('',#808,0.01);
#572=CIRCLE('',#810,0.01);
#573=CIRCLE('',#811,0.01);
#574=CIRCLE('',#814,0.01);
#575=CIRCLE('',#816,0.01);
#576=CIRCLE('',#819,0.01);
#577=CIRCLE('',#821,0.01);
#578=EDGE_LOOP('',(#178));
#579=EDGE_LOOP('',(#179,#180,#181,#182));
#580=EDGE_LOOP('',(#183,#184,#185,#186));
#581=EDGE_LOOP('',(#187,#188,#189,#190));
#582=EDGE_LOOP('',(#191));
#583=EDGE_LOOP('',(#192,#193,#194,#195));
#584=EDGE_LOOP('',(#196,#197,#198,#199,#200,#201,#202,#203,#204,#205,#206,
#207));
#585=EDGE_LOOP('',(#208,#209,#210,#211));
#586=EDGE_LOOP('',(#212,#213,#214,#215));
#587=EDGE_LOOP('',(#216,#217,#218,#219));
#588=EDGE_LOOP('',(#220,#221,#222,#223));
#589=EDGE_LOOP('',(#224));
#590=EDGE_LOOP('',(#225));
#591=EDGE_LOOP('',(#226,#227,#228,#229));
#592=EDGE_LOOP('',(#230,#231,#232,#233,#234,#235));
#593=EDGE_LOOP('',(#236));
#594=EDGE_LOOP('',(#237,#238,#239,#240));
#595=EDGE_LOOP('',(#241,#242,#243,#244));
#596=EDGE_LOOP('',(#245,#246,#247,#248));
#597=EDGE_LOOP('',(#249));
#598=EDGE_LOOP('',(#250,#251,#252,#253));
#599=EDGE_LOOP('',(#254,#255,#256,#257,#258,#259));
#600=EDGE_LOOP('',(#260));
#601=EDGE_LOOP('',(#261));
#602=EDGE_LOOP('',(#262,#263,#264,#265));
#603=EDGE_LOOP('',(#266,#267,#268,#269));
#604=EDGE_LOOP('',(#270,#271,#272,#273));
#605=EDGE_LOOP('',(#274,#275,#276,#277));
#606=EDGE_LOOP('',(#278,#279,#280,#281));
#607=EDGE_LOOP('',(#282,#283,#284,#285));
#608=EDGE_LOOP('',(#286));
#609=EDGE_LOOP('',(#287));
#610=EDGE_LOOP('',(#288,#289,#290,#291,#292,#293,#294,#295,#296,#297,#298,
#299,#300,#301,#302,#303,#304,#305,#306,#307));
#611=EDGE_LOOP('',(#308));
#612=EDGE_LOOP('',(#309,#310,#311,#312,#313,#314,#315,#316,#317,#318,#319,
#320,#321,#322,#323,#324,#325,#326,#327,#328));
#613=EDGE_LOOP('',(#329));
#614=EDGE_LOOP('',(#330,#331,#332,#333));
#615=EDGE_LOOP('',(#334,#335,#336,#337,#338));
#616=EDGE_LOOP('',(#339,#340,#341,#342,#343));
#617=EDGE_LOOP('',(#344,#345,#346,#347));
#618=EDGE_LOOP('',(#348,#349,#350,#351,#352));
#619=EDGE_LOOP('',(#353,#354,#355,#356,#357));
#620=EDGE_LOOP('',(#358,#359,#360,#361));
#621=EDGE_LOOP('',(#362,#363,#364,#365));
#622=EDGE_LOOP('',(#366,#367,#368,#369));
#623=EDGE_LOOP('',(#370,#371,#372,#373));
#624=EDGE_LOOP('',(#374));
#625=EDGE_LOOP('',(#375));
#626=EDGE_LOOP('',(#376));
#627=EDGE_LOOP('',(#377));
#628=EDGE_LOOP('',(#378));
#629=EDGE_LOOP('',(#379));
#630=EDGE_LOOP('',(#380));
#631=EDGE_LOOP('',(#381));
#632=FACE_BOUND('',#578,.T.);
#633=FACE_BOUND('',#579,.T.);
#634=FACE_BOUND('',#580,.T.);
#635=FACE_BOUND('',#581,.T.);
#636=FACE_BOUND('',#582,.T.);
#637=FACE_BOUND('',#583,.T.);
#638=FACE_BOUND('',#584,.T.);
#639=FACE_BOUND('',#585,.T.);
#640=FACE_BOUND('',#586,.T.);
#641=FACE_BOUND('',#587,.T.);
#642=FACE_BOUND('',#588,.T.);
#643=FACE_BOUND('',#589,.T.);
#644=FACE_BOUND('',#590,.T.);
#645=FACE_BOUND('',#591,.T.);
#646=FACE_BOUND('',#592,.T.);
#647=FACE_BOUND('',#593,.T.);
#648=FACE_BOUND('',#594,.T.);
#649=FACE_BOUND('',#595,.T.);
#650=FACE_BOUND('',#596,.T.);
#651=FACE_BOUND('',#597,.T.);
#652=FACE_BOUND('',#598,.T.);
#653=FACE_BOUND('',#599,.T.);
#654=FACE_BOUND('',#600,.T.);
#655=FACE_BOUND('',#601,.T.);
#656=FACE_BOUND('',#602,.T.);
#657=FACE_BOUND('',#603,.T.);
#658=FACE_BOUND('',#604,.T.);
#659=FACE_BOUND('',#605,.T.);
#660=FACE_BOUND('',#606,.T.);
#661=FACE_BOUND('',#607,.T.);
#662=FACE_BOUND('',#608,.T.);
#663=FACE_BOUND('',#609,.T.);
#664=FACE_BOUND('',#610,.T.);
#665=FACE_BOUND('',#611,.T.);
#666=FACE_BOUND('',#612,.T.);
#667=FACE_BOUND('',#613,.T.);
#668=FACE_BOUND('',#614,.T.);
#669=FACE_BOUND('',#615,.T.);
#670=FACE_BOUND('',#616,.T.);
#671=FACE_BOUND('',#617,.T.);
#672=FACE_BOUND('',#618,.T.);
#673=FACE_BOUND('',#619,.T.);
#674=FACE_BOUND('',#620,.T.);
#675=FACE_BOUND('',#621,.T.);
#676=FACE_BOUND('',#622,.T.);
#677=FACE_BOUND('',#623,.T.);
#678=FACE_BOUND('',#624,.T.);
#679=FACE_BOUND('',#625,.T.);
#680=FACE_BOUND('',#626,.T.);
#681=FACE_BOUND('',#627,.T.);
#682=FACE_BOUND('',#628,.T.);
#683=FACE_BOUND('',#629,.T.);
#684=FACE_BOUND('',#630,.T.);
#685=FACE_BOUND('',#631,.T.);
#686=PLANE('',#767);
#687=PLANE('',#769);
#688=PLANE('',#770);
#689=PLANE('',#771);
#690=PLANE('',#780);
#691=PLANE('',#781);
#692=PLANE('',#782);
#693=PLANE('',#783);
#694=PLANE('',#784);
#695=PLANE('',#787);
#696=PLANE('',#788);
#697=PLANE('',#790);
#698=PLANE('',#791);
#699=PLANE('',#792);
#700=PLANE('',#794);
#701=PLANE('',#795);
#702=PLANE('',#798);
#703=PLANE('',#799);
#704=PLANE('',#800);
#705=PLANE('',#801);
#706=PLANE('',#802);
#707=PLANE('',#806);
#708=PLANE('',#809);
#709=PLANE('',#812);
#710=PLANE('',#813);
#711=PLANE('',#815);
#712=PLANE('',#817);
#713=PLANE('',#818);
#714=PLANE('',#820);
#715=ADVANCED_FACE('',(#632,#633),#686,.F.);
#716=ADVANCED_FACE('',(#634),#687,.F.);
#717=ADVANCED_FACE('',(#635),#688,.T.);
#718=ADVANCED_FACE('',(#636,#637),#689,.T.);
#719=ADVANCED_FACE('',(#638),#12,.T.);
#720=ADVANCED_FACE('',(#639),#690,.F.);
#721=ADVANCED_FACE('',(#640),#691,.F.);
#722=ADVANCED_FACE('',(#641),#692,.F.);
#723=ADVANCED_FACE('',(#642),#693,.F.);
#724=ADVANCED_FACE('',(#643,#644,#645),#694,.F.);
#725=ADVANCED_FACE('',(#646),#695,.F.);
#726=ADVANCED_FACE('',(#647,#648),#696,.F.);
#727=ADVANCED_FACE('',(#649),#697,.F.);
#728=ADVANCED_FACE('',(#650),#698,.T.);
#729=ADVANCED_FACE('',(#651,#652),#699,.T.);
#730=ADVANCED_FACE('',(#653),#700,.T.);
#731=ADVANCED_FACE('',(#654,#655,#656),#701,.T.);
#732=ADVANCED_FACE('',(#657),#702,.T.);
#733=ADVANCED_FACE('',(#658),#703,.T.);
#734=ADVANCED_FACE('',(#659),#704,.T.);
#735=ADVANCED_FACE('',(#660),#705,.T.);
#736=ADVANCED_FACE('',(#661),#706,.T.);
#737=ADVANCED_FACE('',(#662,#663),#13,.F.);
#738=ADVANCED_FACE('',(#664,#665),#707,.T.);
#739=ADVANCED_FACE('',(#666,#667),#708,.F.);
#740=ADVANCED_FACE('',(#668),#709,.T.);
#741=ADVANCED_FACE('',(#669),#710,.T.);
#742=ADVANCED_FACE('',(#670),#711,.F.);
#743=ADVANCED_FACE('',(#671),#712,.F.);
#744=ADVANCED_FACE('',(#672),#713,.T.);
#745=ADVANCED_FACE('',(#673),#714,.F.);
#746=ADVANCED_FACE('',(#674),#14,.F.);
#747=ADVANCED_FACE('',(#675),#15,.F.);
#748=ADVANCED_FACE('',(#676),#16,.F.);
#749=ADVANCED_FACE('',(#677),#17,.F.);
#750=ADVANCED_FACE('',(#678,#679),#18,.F.);
#751=ADVANCED_FACE('',(#680,#681),#19,.F.);
#752=ADVANCED_FACE('',(#682,#683),#20,.F.);
#753=ADVANCED_FACE('',(#684,#685),#21,.F.);
#754=CLOSED_SHELL('',(#715,#716,#717,#718,#719,#720,#721,#722,#723,#724,
#725,#726,#727,#728,#729,#730,#731,#732,#733,#734,#735,#736,#737,#738,#739,
#740,#741,#742,#743,#744,#745,#746,#747,#748,#749,#750,#751,#752,#753));
#755=STYLED_ITEM('',(#756),#763);
#756=PRESENTATION_STYLE_ASSIGNMENT((#757));
#757=SURFACE_STYLE_USAGE(.BOTH.,#758);
#758=SURFACE_SIDE_STYLE('',(#759));
#759=SURFACE_STYLE_FILL_AREA(#760);
#760=FILL_AREA_STYLE('',(#761));
#761=FILL_AREA_STYLE_COLOUR('',#762);
#762=COLOUR_RGB('',0.615686274509804,0.811764705882353,0.929411764705882);
#763=MANIFOLD_SOLID_BREP('Part 1',#754);
#764=SHAPE_DEFINITION_REPRESENTATION(#1254,#765);
#765=SHAPE_REPRESENTATION('Part 1',(#766),#1249);
#766=AXIS2_PLACEMENT_3D('',#1036,#830,#831);
#767=AXIS2_PLACEMENT_3D('',#1037,#832,#833);
#768=AXIS2_PLACEMENT_3D('',#1038,#834,#835);
#769=AXIS2_PLACEMENT_3D('',#1048,#840,#841);
#770=AXIS2_PLACEMENT_3D('',#1054,#845,#846);
#771=AXIS2_PLACEMENT_3D('',#1063,#851,#852);
#772=AXIS2_PLACEMENT_3D('',#1064,#853,#854);
#773=AXIS2_PLACEMENT_3D('',#1071,#858,#859);
#774=AXIS2_PLACEMENT_3D('',#1072,#860,#861);
#775=AXIS2_PLACEMENT_3D('',#1077,#863,#864);
#776=AXIS2_PLACEMENT_3D('',#1081,#866,#867);
#777=AXIS2_PLACEMENT_3D('',#1085,#869,#870);
#778=AXIS2_PLACEMENT_3D('',#1089,#872,#873);
#779=AXIS2_PLACEMENT_3D('',#1093,#875,#876);
#780=AXIS2_PLACEMENT_3D('',#1096,#878,#879);
#781=AXIS2_PLACEMENT_3D('',#1105,#884,#885);
#782=AXIS2_PLACEMENT_3D('',#1111,#889,#890);
#783=AXIS2_PLACEMENT_3D('',#1117,#894,#895);
#784=AXIS2_PLACEMENT_3D('',#1123,#899,#900);
#785=AXIS2_PLACEMENT_3D('',#1124,#901,#902);
#786=AXIS2_PLACEMENT_3D('',#1126,#903,#904);
#787=AXIS2_PLACEMENT_3D('',#1133,#908,#909);
#788=AXIS2_PLACEMENT_3D('',#1140,#914,#915);
#789=AXIS2_PLACEMENT_3D('',#1141,#916,#917);
#790=AXIS2_PLACEMENT_3D('',#1148,#921,#922);
#791=AXIS2_PLACEMENT_3D('',#1154,#926,#927);
#792=AXIS2_PLACEMENT_3D('',#1163,#932,#933);
#793=AXIS2_PLACEMENT_3D('',#1164,#934,#935);
#794=AXIS2_PLACEMENT_3D('',#1171,#939,#940);
#795=AXIS2_PLACEMENT_3D('',#1178,#945,#946);
#796=AXIS2_PLACEMENT_3D('',#1179,#947,#948);
#797=AXIS2_PLACEMENT_3D('',#1181,#949,#950);
#798=AXIS2_PLACEMENT_3D('',#1188,#954,#955);
#799=AXIS2_PLACEMENT_3D('',#1194,#959,#960);
#800=AXIS2_PLACEMENT_3D('',#1200,#964,#965);
#801=AXIS2_PLACEMENT_3D('',#1206,#969,#970);
#802=AXIS2_PLACEMENT_3D('',#1212,#974,#975);
#803=AXIS2_PLACEMENT_3D('',#1215,#978,#979);
#804=AXIS2_PLACEMENT_3D('',#1216,#980,#981);
#805=AXIS2_PLACEMENT_3D('',#1218,#982,#983);
#806=AXIS2_PLACEMENT_3D('',#1220,#984,#985);
#807=AXIS2_PLACEMENT_3D('',#1221,#986,#987);
#808=AXIS2_PLACEMENT_3D('',#1222,#988,#989);
#809=AXIS2_PLACEMENT_3D('',#1223,#990,#991);
#810=AXIS2_PLACEMENT_3D('',#1224,#992,#993);
#811=AXIS2_PLACEMENT_3D('',#1225,#994,#995);
#812=AXIS2_PLACEMENT_3D('',#1226,#996,#997);
#813=AXIS2_PLACEMENT_3D('',#1229,#1000,#1001);
#814=AXIS2_PLACEMENT_3D('',#1230,#1002,#1003);
#815=AXIS2_PLACEMENT_3D('',#1231,#1004,#1005);
#816=AXIS2_PLACEMENT_3D('',#1232,#1006,#1007);
#817=AXIS2_PLACEMENT_3D('',#1233,#1008,#1009);
#818=AXIS2_PLACEMENT_3D('',#1236,#1012,#1013);
#819=AXIS2_PLACEMENT_3D('',#1237,#1014,#1015);
#820=AXIS2_PLACEMENT_3D('',#1238,#1016,#1017);
#821=AXIS2_PLACEMENT_3D('',#1239,#1018,#1019);
#822=AXIS2_PLACEMENT_3D('',#1240,#1020,#1021);
#823=AXIS2_PLACEMENT_3D('',#1241,#1022,#1023);
#824=AXIS2_PLACEMENT_3D('',#1242,#1024,#1025);
#825=AXIS2_PLACEMENT_3D('',#1243,#1026,#1027);
#826=AXIS2_PLACEMENT_3D('',#1244,#1028,#1029);
#827=AXIS2_PLACEMENT_3D('',#1245,#1030,#1031);
#828=AXIS2_PLACEMENT_3D('',#1246,#1032,#1033);
#829=AXIS2_PLACEMENT_3D('',#1247,#1034,#1035);
#830=DIRECTION('',(0.,0.,1.));
#831=DIRECTION('',(1.,0.,0.));
#832=DIRECTION('',(1.,0.,0.));
#833=DIRECTION('',(0.,0.,-1.));
#834=DIRECTION('',(1.,0.,0.));
#835=DIRECTION('',(0.,0.,-1.));
#836=DIRECTION('',(0.,0.,-1.));
#837=DIRECTION('',(0.,1.,0.));
#838=DIRECTION('',(0.,0.,-1.));
#839=DIRECTION('',(0.,1.,0.));
#840=DIRECTION('',(0.,0.,-1.));
#841=DIRECTION('',(-1.,0.,0.));
#842=DIRECTION('',(-1.,0.,0.));
#843=DIRECTION('',(0.,-1.,0.));
#844=DIRECTION('',(-1.,0.,0.));
#845=DIRECTION('',(0.,0.,1.));
#846=DIRECTION('',(1.,0.,0.));
#847=DIRECTION('',(1.,0.,0.));
#848=DIRECTION('',(0.,1.,0.));
#849=DIRECTION('',(1.,0.,0.));
#850=DIRECTION('',(0.,1.,0.));
#851=DIRECTION('',(1.,0.,0.));
#852=DIRECTION('',(0.,0.,-1.));
#853=DIRECTION('',(1.,0.,0.));
#854=DIRECTION('',(0.,0.,-1.));
#855=DIRECTION('',(0.,1.,0.));
#856=DIRECTION('',(0.,0.,-1.));
#857=DIRECTION('',(0.,0.,-1.));
#858=DIRECTION('',(0.,1.,0.));
#859=DIRECTION('',(0.,0.,1.));
#860=DIRECTION('',(0.,-1.,0.));
#861=DIRECTION('',(0.,0.,-1.));
#862=DIRECTION('',(0.,1.,0.));
#863=DIRECTION('',(0.,-1.,0.));
#864=DIRECTION('',(0.,0.,-1.));
#865=DIRECTION('',(0.,1.,0.));
#866=DIRECTION('',(0.,-1.,0.));
#867=DIRECTION('',(0.,0.,-1.));
#868=DIRECTION('',(0.,1.,0.));
#869=DIRECTION('',(0.,-1.,0.));
#870=DIRECTION('',(0.,0.,-1.));
#871=DIRECTION('',(0.,1.,0.));
#872=DIRECTION('',(0.,-1.,0.));
#873=DIRECTION('',(0.,0.,-1.));
#874=DIRECTION('',(0.,1.,0.));
#875=DIRECTION('',(0.,-1.,0.));
#876=DIRECTION('',(0.,0.,-1.));
#877=DIRECTION('',(0.,1.,0.));
#878=DIRECTION('',(-1.,0.,0.));
#879=DIRECTION('',(0.,0.,1.));
#880=DIRECTION('',(0.,0.,1.));
#881=DIRECTION('',(0.,1.,0.));
#882=DIRECTION('',(0.,0.,1.));
#883=DIRECTION('',(0.,1.,0.));
#884=DIRECTION('',(-6.93889390390722E-16,0.,-1.));
#885=DIRECTION('',(-1.,0.,6.93889390390722E-16));
#886=DIRECTION('',(-1.,0.,6.93889390390722E-16));
#887=DIRECTION('',(0.,1.,0.));
#888=DIRECTION('',(-1.,0.,6.93889390390722E-16));
#889=DIRECTION('',(-1.,0.,0.));
#890=DIRECTION('',(0.,0.,1.));
#891=DIRECTION('',(0.,0.,1.));
#892=DIRECTION('',(0.,1.,0.));
#893=DIRECTION('',(0.,0.,1.));
#894=DIRECTION('',(0.,0.,1.));
#895=DIRECTION('',(1.,0.,0.));
#896=DIRECTION('',(1.,0.,0.));
#897=DIRECTION('',(0.,1.,0.));
#898=DIRECTION('',(1.,0.,0.));
#899=DIRECTION('',(-1.,0.,0.));
#900=DIRECTION('',(0.,0.,1.));
#901=DIRECTION('',(1.,0.,0.));
#902=DIRECTION('',(0.,0.,-1.));
#903=DIRECTION('',(1.,0.,0.));
#904=DIRECTION('',(0.,0.,-1.));
#905=DIRECTION('',(0.,0.,1.));
#906=DIRECTION('',(0.,1.,0.));
#907=DIRECTION('',(0.,0.,1.));
#908=DIRECTION('',(0.,0.,-1.));
#909=DIRECTION('',(-1.,0.,0.));
#910=DIRECTION('',(-1.,0.,0.));
#911=DIRECTION('',(0.,1.,0.));
#912=DIRECTION('',(0.,1.,0.));
#913=DIRECTION('',(-1.,0.,0.));
#914=DIRECTION('',(1.,0.,0.));
#915=DIRECTION('',(0.,0.,-1.));
#916=DIRECTION('',(1.,0.,0.));
#917=DIRECTION('',(0.,0.,-1.));
#918=DIRECTION('',(0.,0.,-1.));
#919=DIRECTION('',(0.,1.,0.));
#920=DIRECTION('',(0.,0.,-1.));
#921=DIRECTION('',(0.,0.,-1.));
#922=DIRECTION('',(-1.,0.,0.));
#923=DIRECTION('',(-1.,0.,0.));
#924=DIRECTION('',(0.,-1.,0.));
#925=DIRECTION('',(-1.,0.,0.));
#926=DIRECTION('',(0.,0.,1.));
#927=DIRECTION('',(1.,0.,0.));
#928=DIRECTION('',(1.,0.,0.));
#929=DIRECTION('',(0.,1.,0.));
#930=DIRECTION('',(1.,0.,0.));
#931=DIRECTION('',(0.,1.,0.));
#932=DIRECTION('',(1.,0.,0.));
#933=DIRECTION('',(0.,0.,-1.));
#934=DIRECTION('',(1.,0.,0.));
#935=DIRECTION('',(0.,0.,-1.));
#936=DIRECTION('',(0.,0.,-1.));
#937=DIRECTION('',(0.,1.,0.));
#938=DIRECTION('',(0.,0.,-1.));
#939=DIRECTION('',(0.,0.,1.));
#940=DIRECTION('',(1.,0.,0.));
#941=DIRECTION('',(1.,0.,0.));
#942=DIRECTION('',(0.,1.,0.));
#943=DIRECTION('',(1.,0.,0.));
#944=DIRECTION('',(0.,1.,0.));
#945=DIRECTION('',(-1.,0.,0.));
#946=DIRECTION('',(0.,0.,1.));
#947=DIRECTION('',(-1.,0.,0.));
#948=DIRECTION('',(0.,0.,1.));
#949=DIRECTION('',(-1.,0.,0.));
#950=DIRECTION('',(0.,0.,1.));
#951=DIRECTION('',(0.,0.,1.));
#952=DIRECTION('',(0.,1.,0.));
#953=DIRECTION('',(0.,0.,1.));
#954=DIRECTION('',(0.,0.,-1.));
#955=DIRECTION('',(-1.,0.,0.));
#956=DIRECTION('',(-1.,0.,0.));
#957=DIRECTION('',(0.,1.,0.));
#958=DIRECTION('',(-1.,0.,0.));
#959=DIRECTION('',(-1.,0.,0.));
#960=DIRECTION('',(0.,0.,1.));
#961=DIRECTION('',(0.,0.,1.));
#962=DIRECTION('',(0.,1.,0.));
#963=DIRECTION('',(0.,0.,1.));
#964=DIRECTION('',(-6.93889390390722E-16,0.,1.));
#965=DIRECTION('',(1.,0.,6.93889390390722E-16));
#966=DIRECTION('',(1.,0.,6.93889390390722E-16));
#967=DIRECTION('',(0.,1.,0.));
#968=DIRECTION('',(1.,0.,6.93889390390722E-16));
#969=DIRECTION('',(-1.,0.,0.));
#970=DIRECTION('',(0.,0.,1.));
#971=DIRECTION('',(0.,0.,1.));
#972=DIRECTION('',(0.,1.,0.));
#973=DIRECTION('',(0.,0.,1.));
#974=DIRECTION('',(1.06752213906265E-16,0.,-1.));
#975=DIRECTION('',(-1.,0.,-1.06752213906265E-16));
#976=DIRECTION('',(-1.,0.,-1.06752213906265E-16));
#977=DIRECTION('',(-1.,0.,-1.06752213906265E-16));
#978=DIRECTION('',(0.,1.,0.));
#979=DIRECTION('',(0.,0.,1.));
#980=DIRECTION('',(0.,-1.,0.));
#981=DIRECTION('',(0.,0.,-1.));
#982=DIRECTION('',(0.,-1.,0.));
#983=DIRECTION('',(0.,0.,-1.));
#984=DIRECTION('',(0.,-1.,0.));
#985=DIRECTION('',(1.,0.,0.));
#986=DIRECTION('',(0.,-1.,0.));
#987=DIRECTION('',(0.,0.,-1.));
#988=DIRECTION('',(0.,-1.,0.));
#989=DIRECTION('',(0.,0.,-1.));
#990=DIRECTION('',(0.,-1.,0.));
#991=DIRECTION('',(1.,0.,0.));
#992=DIRECTION('',(0.,-1.,0.));
#993=DIRECTION('',(0.,0.,-1.));
#994=DIRECTION('',(0.,-1.,0.));
#995=DIRECTION('',(0.,0.,-1.));
#996=DIRECTION('',(-0.178201185207782,0.,0.983994073961089));
#997=DIRECTION('',(0.983994073961089,0.,0.178201185207782));
#998=DIRECTION('',(0.983994073961089,0.,0.178201185207782));
#999=DIRECTION('',(0.983994073961089,0.,0.178201185207782));
#1000=DIRECTION('',(0.,-1.,0.));
#1001=DIRECTION('',(1.,0.,0.));
#1002=DIRECTION('',(0.,-1.,0.));
#1003=DIRECTION('',(0.,0.,-1.));
#1004=DIRECTION('',(0.,-1.,0.));
#1005=DIRECTION('',(1.,0.,0.));
#1006=DIRECTION('',(0.,-1.,0.));
#1007=DIRECTION('',(0.,0.,-1.));
#1008=DIRECTION('',(-0.178201185207782,0.,-0.983994073961089));
#1009=DIRECTION('',(-0.983994073961089,0.,0.178201185207782));
#1010=DIRECTION('',(-0.983994073961089,0.,0.178201185207782));
#1011=DIRECTION('',(-0.983994073961089,0.,0.178201185207782));
#1012=DIRECTION('',(0.,-1.,0.));
#1013=DIRECTION('',(1.,0.,0.));
#1014=DIRECTION('',(0.,-1.,0.));
#1015=DIRECTION('',(0.,0.,-1.));
#1016=DIRECTION('',(0.,-1.,0.));
#1017=DIRECTION('',(1.,0.,0.));
#1018=DIRECTION('',(0.,-1.,0.));
#1019=DIRECTION('',(0.,0.,-1.));
#1020=DIRECTION('',(0.,1.,0.));
#1021=DIRECTION('',(0.,0.,1.));
#1022=DIRECTION('',(0.,1.,0.));
#1023=DIRECTION('',(0.,0.,1.));
#1024=DIRECTION('',(0.,1.,0.));
#1025=DIRECTION('',(0.,0.,1.));
#1026=DIRECTION('',(0.,1.,0.));
#1027=DIRECTION('',(0.,0.,1.));
#1028=DIRECTION('',(1.,0.,0.));
#1029=DIRECTION('',(0.,0.,-1.));
#1030=DIRECTION('',(1.,0.,0.));
#1031=DIRECTION('',(0.,0.,-1.));
#1032=DIRECTION('',(-1.,0.,0.));
#1033=DIRECTION('',(0.,0.,1.));
#1034=DIRECTION('',(-1.,0.,0.));
#1035=DIRECTION('',(0.,0.,1.));
#1036=CARTESIAN_POINT('',(0.,0.,0.));
#1037=CARTESIAN_POINT('',(0.1,-0.035,-0.0075));
#1038=CARTESIAN_POINT('',(0.1,0.02,1.76028515666286E-18));
#1039=CARTESIAN_POINT('',(0.1,0.02,-0.0075));
#1040=CARTESIAN_POINT('',(0.1,0.01,-0.0075));
#1041=CARTESIAN_POINT('',(0.1,0.01,0.02));
#1042=CARTESIAN_POINT('',(0.1,0.01,-0.035));
#1043=CARTESIAN_POINT('',(0.1,-0.035,0.02));
#1044=CARTESIAN_POINT('',(0.1,0.035,0.02));
#1045=CARTESIAN_POINT('',(0.1,0.035,-0.0075));
#1046=CARTESIAN_POINT('',(0.1,0.035,-0.035));
#1047=CARTESIAN_POINT('',(0.1,-0.035,-0.035));
#1048=CARTESIAN_POINT('',(0.0567314560089181,-0.035,-0.035));
#1049=CARTESIAN_POINT('',(0.0567314560089181,0.035,-0.035));
#1050=CARTESIAN_POINT('',(0.0403887360535088,0.035,-0.035));
#1051=CARTESIAN_POINT('',(0.0403887360535088,0.01,-0.035));
#1052=CARTESIAN_POINT('',(0.0403887360535088,0.01,-0.035));
#1053=CARTESIAN_POINT('',(0.0567314560089181,0.01,-0.035));
#1054=CARTESIAN_POINT('',(-0.0567314560089181,-0.035,-0.035));
#1055=CARTESIAN_POINT('',(-0.0567314560089181,0.01,-0.035));
#1056=CARTESIAN_POINT('',(-0.1,0.01,-0.035));
#1057=CARTESIAN_POINT('',(-0.0403887360535088,0.01,-0.035));
#1058=CARTESIAN_POINT('',(-0.0403887360535088,-0.035,-0.035));
#1059=CARTESIAN_POINT('',(-0.0403887360535088,0.035,-0.035));
#1060=CARTESIAN_POINT('',(-0.0567314560089181,0.035,-0.035));
#1061=CARTESIAN_POINT('',(-0.1,0.035,-0.035));
#1062=CARTESIAN_POINT('',(-0.1,-0.035,-0.035));
#1063=CARTESIAN_POINT('',(-0.1,-0.035,-0.0075));
#1064=CARTESIAN_POINT('',(-0.1,0.02,1.7347234759768E-18));
#1065=CARTESIAN_POINT('',(-0.1,0.02,-0.0075));
#1066=CARTESIAN_POINT('',(-0.1,-0.035,0.02));
#1067=CARTESIAN_POINT('',(-0.1,0.01,0.02));
#1068=CARTESIAN_POINT('',(-0.1,0.035,0.02));
#1069=CARTESIAN_POINT('',(-0.1,0.01,-0.0075));
#1070=CARTESIAN_POINT('',(-0.1,0.035,-0.0075));
#1071=CARTESIAN_POINT('',(6.07153216591882E-18,-0.035,4.85722573273506E-17));
#1072=CARTESIAN_POINT('',(6.07153216591882E-18,0.035,4.85722573273506E-17));
#1073=CARTESIAN_POINT('',(0.0318858442527701,0.035,-0.0197368421052631));
#1074=CARTESIAN_POINT('',(-0.0318858442527701,0.035,-0.0197368421052631));
#1075=CARTESIAN_POINT('',(-0.0318858442527701,-0.035,-0.0197368421052631));
#1076=CARTESIAN_POINT('',(-0.0318858442527701,0.01,-0.0197368421052631));
#1077=CARTESIAN_POINT('',(6.07153216591882E-18,0.01,4.85722573273506E-17));
#1078=CARTESIAN_POINT('',(-0.00668254444529184,0.01,0.0368997777735409));
#1079=CARTESIAN_POINT('',(-0.00668254444529183,-0.01,0.0368997777735408));
#1080=CARTESIAN_POINT('',(-0.00668254444529184,-0.01,0.0368997777735409));
#1081=CARTESIAN_POINT('',(6.07153216591882E-18,-0.01,4.85722573273506E-17));
#1082=CARTESIAN_POINT('',(-0.0318858442527701,-0.01,-0.0197368421052631));
#1083=CARTESIAN_POINT('',(-0.0318858442527701,-0.035,-0.0197368421052631));
#1084=CARTESIAN_POINT('',(-0.0318858442527701,-0.035,-0.0197368421052631));
#1085=CARTESIAN_POINT('',(6.07153216591882E-18,-0.035,4.85722573273506E-17));
#1086=CARTESIAN_POINT('',(0.0318858442527701,-0.035,-0.0197368421052631));
#1087=CARTESIAN_POINT('',(0.0318858442527701,-0.035,-0.0197368421052631));
#1088=CARTESIAN_POINT('',(0.0318858442527701,-0.01,-0.0197368421052631));
#1089=CARTESIAN_POINT('',(-9.10729824887824E-18,-0.01,6.59194920871187E-17));
#1090=CARTESIAN_POINT('',(0.00668254444529182,-0.01,0.0368997777735408));
#1091=CARTESIAN_POINT('',(0.00668254444529182,-0.01,0.0368997777735408));
#1092=CARTESIAN_POINT('',(0.00668254444529183,0.01,0.0368997777735409));
#1093=CARTESIAN_POINT('',(-9.10729824887824E-18,0.01,6.59194920871187E-17));
#1094=CARTESIAN_POINT('',(0.0318858442527701,0.01,-0.0197368421052631));
#1095=CARTESIAN_POINT('',(0.0318858442527701,-0.035,-0.0197368421052631));
#1096=CARTESIAN_POINT('',(0.13,-0.035,-0.04375));
#1097=CARTESIAN_POINT('',(0.13,0.035,-0.04375));
#1098=CARTESIAN_POINT('',(0.13,0.035,-0.0525));
#1099=CARTESIAN_POINT('',(0.13,0.035,-0.035));
#1100=CARTESIAN_POINT('',(0.13,-0.035,-0.035));
#1101=CARTESIAN_POINT('',(0.13,-0.035,-0.035));
#1102=CARTESIAN_POINT('',(0.13,-0.035,-0.04375));
#1103=CARTESIAN_POINT('',(0.13,-0.035,-0.0525));
#1104=CARTESIAN_POINT('',(0.13,-0.035,-0.0525));
#1105=CARTESIAN_POINT('',(0.125,-0.035,-0.035));
#1106=CARTESIAN_POINT('',(0.125,0.035,-0.035));
#1107=CARTESIAN_POINT('',(0.12,0.035,-0.035));
#1108=CARTESIAN_POINT('',(0.12,-0.035,-0.035));
#1109=CARTESIAN_POINT('',(0.12,-0.035,-0.035));
#1110=CARTESIAN_POINT('',(0.125,-0.035,-0.035));
#1111=CARTESIAN_POINT('',(0.12,-0.035,-0.025));
#1112=CARTESIAN_POINT('',(0.12,0.035,-0.025));
#1113=CARTESIAN_POINT('',(0.12,0.035,-0.015));
#1114=CARTESIAN_POINT('',(0.12,-0.035,-0.015));
#1115=CARTESIAN_POINT('',(0.12,-0.035,-0.015));
#1116=CARTESIAN_POINT('',(0.12,-0.035,-0.025));
#1117=CARTESIAN_POINT('',(0.125,-0.035,-0.015));
#1118=CARTESIAN_POINT('',(0.125,0.035,-0.015));
#1119=CARTESIAN_POINT('',(0.13,0.035,-0.015));
#1120=CARTESIAN_POINT('',(0.13,-0.035,-0.015));
#1121=CARTESIAN_POINT('',(0.13,-0.035,-0.015));
#1122=CARTESIAN_POINT('',(0.125,-0.035,-0.015));
#1123=CARTESIAN_POINT('',(0.13,-0.035,0.0025));
#1124=CARTESIAN_POINT('',(0.13,-0.02,-3.01020440227335E-18));
#1125=CARTESIAN_POINT('',(0.13,-0.02,-0.0075));
#1126=CARTESIAN_POINT('',(0.13,0.02,1.76028515666286E-18));
#1127=CARTESIAN_POINT('',(0.13,0.02,-0.0075));
#1128=CARTESIAN_POINT('',(0.13,0.035,0.0025));
#1129=CARTESIAN_POINT('',(0.13,0.035,0.02));
#1130=CARTESIAN_POINT('',(0.13,-0.035,0.02));
#1131=CARTESIAN_POINT('',(0.13,-0.035,0.02));
#1132=CARTESIAN_POINT('',(0.13,-0.035,0.0025));
#1133=CARTESIAN_POINT('',(0.115,-0.035,0.02));
#1134=CARTESIAN_POINT('',(0.115,0.035,0.02));
#1135=CARTESIAN_POINT('',(0.1,-0.01,0.02));
#1136=CARTESIAN_POINT('',(0.1,-0.01,0.02));
#1137=CARTESIAN_POINT('',(0.1,-0.035,0.02));
#1138=CARTESIAN_POINT('',(0.1,-0.035,0.02));
#1139=CARTESIAN_POINT('',(0.115,-0.035,0.02));
#1140=CARTESIAN_POINT('',(0.1,-0.035,-0.0075));
#1141=CARTESIAN_POINT('',(0.1,-0.02,-3.01020440227335E-18));
#1142=CARTESIAN_POINT('',(0.1,-0.02,-0.0075));
#1143=CARTESIAN_POINT('',(0.1,-0.01,-0.0075));
#1144=CARTESIAN_POINT('',(0.1,-0.01,-0.035));
#1145=CARTESIAN_POINT('',(0.1,-0.035,-0.035));
#1146=CARTESIAN_POINT('',(0.1,-0.035,-0.035));
#1147=CARTESIAN_POINT('',(0.1,-0.035,-0.0075));
#1148=CARTESIAN_POINT('',(0.0567314560089181,-0.035,-0.035));
#1149=CARTESIAN_POINT('',(0.0567314560089181,-0.01,-0.035));
#1150=CARTESIAN_POINT('',(0.0403887360535088,-0.01,-0.035));
#1151=CARTESIAN_POINT('',(0.0403887360535088,-0.035,-0.035));
#1152=CARTESIAN_POINT('',(0.0403887360535088,-0.035,-0.035));
#1153=CARTESIAN_POINT('',(0.0567314560089181,-0.035,-0.035));
#1154=CARTESIAN_POINT('',(-0.0567314560089181,-0.035,-0.035));
#1155=CARTESIAN_POINT('',(-0.0567314560089181,-0.035,-0.035));
#1156=CARTESIAN_POINT('',(-0.1,-0.035,-0.035));
#1157=CARTESIAN_POINT('',(-0.0403887360535088,-0.035,-0.035));
#1158=CARTESIAN_POINT('',(-0.0403887360535088,-0.035,-0.035));
#1159=CARTESIAN_POINT('',(-0.0403887360535088,-0.01,-0.035));
#1160=CARTESIAN_POINT('',(-0.0567314560089181,-0.01,-0.035));
#1161=CARTESIAN_POINT('',(-0.1,-0.01,-0.035));
#1162=CARTESIAN_POINT('',(-0.1,-0.035,-0.035));
#1163=CARTESIAN_POINT('',(-0.1,-0.035,-0.0075));
#1164=CARTESIAN_POINT('',(-0.1,-0.02,-3.46944695195361E-18));
#1165=CARTESIAN_POINT('',(-0.1,-0.02,-0.0075));
#1166=CARTESIAN_POINT('',(-0.1,-0.01,-0.0075));
#1167=CARTESIAN_POINT('',(-0.1,-0.01,0.02));
#1168=CARTESIAN_POINT('',(-0.1,-0.035,0.02));
#1169=CARTESIAN_POINT('',(-0.1,-0.035,0.02));
#1170=CARTESIAN_POINT('',(-0.1,-0.035,-0.0075));
#1171=CARTESIAN_POINT('',(-0.115,-0.035,0.02));
#1172=CARTESIAN_POINT('',(-0.115,0.035,0.02));
#1173=CARTESIAN_POINT('',(-0.13,0.035,0.02));
#1174=CARTESIAN_POINT('',(-0.13,-0.035,0.02));
#1175=CARTESIAN_POINT('',(-0.13,-0.035,0.02));
#1176=CARTESIAN_POINT('',(-0.115,-0.035,0.02));
#1177=CARTESIAN_POINT('',(-0.1,-0.01,0.02));
#1178=CARTESIAN_POINT('',(-0.13,-0.035,0.0025));
#1179=CARTESIAN_POINT('',(-0.13,-0.02,-3.46944695195361E-18));
#1180=CARTESIAN_POINT('',(-0.13,-0.02,0.0075));
#1181=CARTESIAN_POINT('',(-0.13,0.02,1.7347234759768E-18));
#1182=CARTESIAN_POINT('',(-0.13,0.02,0.0075));
#1183=CARTESIAN_POINT('',(-0.13,0.035,0.0025));
#1184=CARTESIAN_POINT('',(-0.13,0.035,-0.015));
#1185=CARTESIAN_POINT('',(-0.13,-0.035,-0.015));
#1186=CARTESIAN_POINT('',(-0.13,-0.035,-0.015));
#1187=CARTESIAN_POINT('',(-0.13,-0.035,0.0025));
#1188=CARTESIAN_POINT('',(-0.125,-0.035,-0.015));
#1189=CARTESIAN_POINT('',(-0.125,0.035,-0.015));
#1190=CARTESIAN_POINT('',(-0.12,0.035,-0.015));
#1191=CARTESIAN_POINT('',(-0.12,-0.035,-0.015));
#1192=CARTESIAN_POINT('',(-0.12,-0.035,-0.015));
#1193=CARTESIAN_POINT('',(-0.125,-0.035,-0.015));
#1194=CARTESIAN_POINT('',(-0.12,-0.035,-0.025));
#1195=CARTESIAN_POINT('',(-0.12,0.035,-0.025));
#1196=CARTESIAN_POINT('',(-0.12,0.035,-0.035));
#1197=CARTESIAN_POINT('',(-0.12,-0.035,-0.035));
#1198=CARTESIAN_POINT('',(-0.12,-0.035,-0.035));
#1199=CARTESIAN_POINT('',(-0.12,-0.035,-0.025));
#1200=CARTESIAN_POINT('',(-0.125,-0.035,-0.035));
#1201=CARTESIAN_POINT('',(-0.125,0.035,-0.035));
#1202=CARTESIAN_POINT('',(-0.13,0.035,-0.035));
#1203=CARTESIAN_POINT('',(-0.13,-0.035,-0.035));
#1204=CARTESIAN_POINT('',(-0.13,-0.035,-0.035));
#1205=CARTESIAN_POINT('',(-0.125,-0.035,-0.035));
#1206=CARTESIAN_POINT('',(-0.13,-0.035,-0.04375));
#1207=CARTESIAN_POINT('',(-0.13,0.035,-0.04375));
#1208=CARTESIAN_POINT('',(-0.13,0.035,-0.0525));
#1209=CARTESIAN_POINT('',(-0.13,-0.035,-0.0525));
#1210=CARTESIAN_POINT('',(-0.13,-0.035,-0.0525));
#1211=CARTESIAN_POINT('',(-0.13,-0.035,-0.04375));
#1212=CARTESIAN_POINT('',(-0.065,-0.035,-0.0525));
#1213=CARTESIAN_POINT('',(-0.065,0.035,-0.0525));
#1214=CARTESIAN_POINT('',(-0.065,-0.035,-0.0525));
#1215=CARTESIAN_POINT('',(0.,-0.035,1.07156594925393E-18));
#1216=CARTESIAN_POINT('',(0.,-0.035,1.07156594925393E-18));
#1217=CARTESIAN_POINT('',(0.,-0.035,-0.0175));
#1218=CARTESIAN_POINT('',(0.,0.035,1.07156594925393E-18));
#1219=CARTESIAN_POINT('',(0.,0.035,-0.0175));
#1220=CARTESIAN_POINT('',(0.,-0.035,0.0145451138913631));
#1221=CARTESIAN_POINT('',(0.0403887360535088,-0.035,-0.025));
#1222=CARTESIAN_POINT('',(-0.0403887360535088,-0.035,-0.025));
#1223=CARTESIAN_POINT('',(0.,0.035,0.0145451138913631));
#1224=CARTESIAN_POINT('',(-0.0403887360535088,0.035,-0.025));
#1225=CARTESIAN_POINT('',(0.0403887360535088,0.035,-0.025));
#1226=CARTESIAN_POINT('',(-0.053341272222646,-0.01,0.0284498888867704));
#1227=CARTESIAN_POINT('',(-0.053341272222646,0.01,0.0284498888867704));
#1228=CARTESIAN_POINT('',(-0.053341272222646,-0.01,0.0284498888867704));
#1229=CARTESIAN_POINT('',(0.,-0.01,0.0145451138913631));
#1230=CARTESIAN_POINT('',(-0.0403887360535088,-0.01,-0.025));
#1231=CARTESIAN_POINT('',(0.,0.01,0.0145451138913631));
#1232=CARTESIAN_POINT('',(-0.0403887360535088,0.01,-0.025));
#1233=CARTESIAN_POINT('',(0.0533412722226459,-0.01,0.0284498888867704));
#1234=CARTESIAN_POINT('',(0.0533412722226459,0.01,0.0284498888867704));
#1235=CARTESIAN_POINT('',(0.0533412722226459,-0.01,0.0284498888867704));
#1236=CARTESIAN_POINT('',(0.,-0.01,0.0145451138913631));
#1237=CARTESIAN_POINT('',(0.0403887360535088,-0.01,-0.025));
#1238=CARTESIAN_POINT('',(0.,0.01,0.0145451138913631));
#1239=CARTESIAN_POINT('',(0.0403887360535088,0.01,-0.025));
#1240=CARTESIAN_POINT('',(-0.0403887360535088,-0.035,-0.025));
#1241=CARTESIAN_POINT('',(0.0403887360535088,-0.035,-0.025));
#1242=CARTESIAN_POINT('',(0.0403887360535088,-0.035,-0.025));
#1243=CARTESIAN_POINT('',(-0.0403887360535088,-0.035,-0.025));
#1244=CARTESIAN_POINT('',(0.099998,-0.02,-3.01020440227335E-18));
#1245=CARTESIAN_POINT('',(0.099998,0.02,1.76028515666286E-18));
#1246=CARTESIAN_POINT('',(-0.099998,0.02,1.7347234759768E-18));
#1247=CARTESIAN_POINT('',(-0.099998,-0.02,-3.46944695195361E-18));
#1248=MECHANICAL_DESIGN_GEOMETRIC_PRESENTATION_REPRESENTATION('',(#755),
#1249);
#1249=(
GEOMETRIC_REPRESENTATION_CONTEXT(3)
GLOBAL_UNCERTAINTY_ASSIGNED_CONTEXT((#1250))
GLOBAL_UNIT_ASSIGNED_CONTEXT((#1253,#1252,#1251))
REPRESENTATION_CONTEXT('Part 1','TOP_LEVEL_ASSEMBLY_PART')
);
#1250=UNCERTAINTY_MEASURE_WITH_UNIT(LENGTH_MEASURE(1.E-8),#1253,
'DISTANCE_ACCURACY_VALUE','Maximum Tolerance applied to model');
#1251=(
NAMED_UNIT(*)
SI_UNIT($,.STERADIAN.)
SOLID_ANGLE_UNIT()
);
#1252=(
NAMED_UNIT(*)
PLANE_ANGLE_UNIT()
SI_UNIT($,.RADIAN.)
);
#1253=(
LENGTH_UNIT()
NAMED_UNIT(*)
SI_UNIT($,.METRE.)
);
#1254=PRODUCT_DEFINITION_SHAPE('','',#1255);
#1255=PRODUCT_DEFINITION('','',#1257,#1256);
#1256=PRODUCT_DEFINITION_CONTEXT('',#1263,'design');
#1257=PRODUCT_DEFINITION_FORMATION_WITH_SPECIFIED_SOURCE('','',#1259,
 .NOT_KNOWN.);
#1258=PRODUCT_RELATED_PRODUCT_CATEGORY('','',(#1259));
#1259=PRODUCT('Part 1','Part 1','Part 1',(#1261));
#1260=PRODUCT_CATEGORY('','');
#1261=PRODUCT_CONTEXT('',#1263,'mechanical');
#1262=APPLICATION_PROTOCOL_DEFINITION('international standard',
'ap242_managed_model_based_3d_engineering',2020,#1263);
#1263=APPLICATION_CONTEXT('managed model based 3d engineering');
ENDSEC;
END-ISO-10303-21;
