ISO-10303-21;
HEADER;
/* Generated by software containing ST-Developer
 * from STEP Tools, Inc. (www.steptools.com) 
 */
/* OPTION: using custom renumber hook */

FILE_DESCRIPTION(
/* description */ ('STEP AP242 Edition 2',
'CAx-IF Rec.Pracs.---Representation and Presentation of Product Manufa
cturing Information (PMI)---4.0---2014-10-13',
'CAx-IF Rec.Pracs.---3D Tessellated Geometry---0.4---2014-09-14','2;1',
'CAx-IF Rec.Pracs.---User Defined Attributes---1.5---2016-08-15'),
/* implementation_level */ '2;1');

FILE_NAME(
/* name */ 'Part Studio 1',
/* time_stamp */ '2026-08-07T03:22:31Z',
/* author */ (''),
/* organization */ (''),
/* preprocessor_version */ 'ST-DEVELOPER v20',
/* originating_system */ 'ONSHAPE BY PTC INC, 1.218',
/* authorisation */ '  ');

FILE_SCHEMA (('AP242_MANAGED_MODEL_BASED_3D_ENGINEERING_MIM_LF { 1 0 10303 442 3 1 4 }'));
ENDSEC;

DATA;
#10=SHAPE_REPRESENTATION_RELATIONSHIP('','',#585,#11);
#11=ADVANCED_BREP_SHAPE_REPRESENTATION('',(#583),#950);
#12=CONICAL_SURFACE('',#615,0.00475,0.785398163397448);
#13=ELLIPSE('',#594,0.0325269119345812,0.023);
#14=ELLIPSE('',#623,0.0325269119345812,0.023);
#15=CYLINDRICAL_SURFACE('',#592,0.023);
#16=CYLINDRICAL_SURFACE('',#604,0.004);
#17=CYLINDRICAL_SURFACE('',#609,0.0065);
#18=CYLINDRICAL_SURFACE('',#613,0.0025);
#19=CYLINDRICAL_SURFACE('',#620,0.023);
#20=CYLINDRICAL_SURFACE('',#625,0.004);
#21=CIRCLE('',#588,0.004);
#22=CIRCLE('',#593,0.023);
#23=CIRCLE('',#595,0.023);
#24=CIRCLE('',#597,0.0065);
#25=CIRCLE('',#601,0.0025);
#26=CIRCLE('',#605,0.004);
#27=CIRCLE('',#610,0.0065);
#28=CIRCLE('',#612,0.00475);
#29=CIRCLE('',#614,0.0025);
#30=CIRCLE('',#619,0.004);
#31=CIRCLE('',#621,0.023);
#32=CIRCLE('',#622,0.023);
#33=CIRCLE('',#626,0.004);
#34=ORIENTED_EDGE('',*,*,#194,.F.);
#35=ORIENTED_EDGE('',*,*,#195,.T.);
#36=ORIENTED_EDGE('',*,*,#196,.T.);
#37=ORIENTED_EDGE('',*,*,#197,.F.);
#38=ORIENTED_EDGE('',*,*,#198,.T.);
#39=ORIENTED_EDGE('',*,*,#199,.F.);
#40=ORIENTED_EDGE('',*,*,#200,.F.);
#41=ORIENTED_EDGE('',*,*,#201,.F.);
#42=ORIENTED_EDGE('',*,*,#202,.F.);
#43=ORIENTED_EDGE('',*,*,#203,.T.);
#44=ORIENTED_EDGE('',*,*,#204,.T.);
#45=ORIENTED_EDGE('',*,*,#205,.F.);
#46=ORIENTED_EDGE('',*,*,#206,.T.);
#47=ORIENTED_EDGE('',*,*,#199,.T.);
#48=ORIENTED_EDGE('',*,*,#207,.T.);
#49=ORIENTED_EDGE('',*,*,#194,.T.);
#50=ORIENTED_EDGE('',*,*,#206,.F.);
#51=ORIENTED_EDGE('',*,*,#208,.F.);
#52=ORIENTED_EDGE('',*,*,#209,.T.);
#53=ORIENTED_EDGE('',*,*,#210,.T.);
#54=ORIENTED_EDGE('',*,*,#202,.T.);
#55=ORIENTED_EDGE('',*,*,#211,.F.);
#56=ORIENTED_EDGE('',*,*,#212,.F.);
#57=ORIENTED_EDGE('',*,*,#213,.F.);
#58=ORIENTED_EDGE('',*,*,#214,.T.);
#59=ORIENTED_EDGE('',*,*,#215,.T.);
#60=ORIENTED_EDGE('',*,*,#216,.T.);
#61=ORIENTED_EDGE('',*,*,#217,.F.);
#62=ORIENTED_EDGE('',*,*,#218,.F.);
#63=ORIENTED_EDGE('',*,*,#219,.F.);
#64=ORIENTED_EDGE('',*,*,#209,.F.);
#65=ORIENTED_EDGE('',*,*,#220,.T.);
#66=ORIENTED_EDGE('',*,*,#221,.T.);
#67=ORIENTED_EDGE('',*,*,#222,.T.);
#68=ORIENTED_EDGE('',*,*,#223,.T.);
#69=ORIENTED_EDGE('',*,*,#224,.F.);
#70=ORIENTED_EDGE('',*,*,#216,.F.);
#71=ORIENTED_EDGE('',*,*,#225,.T.);
#72=ORIENTED_EDGE('',*,*,#226,.T.);
#73=ORIENTED_EDGE('',*,*,#227,.F.);
#74=ORIENTED_EDGE('',*,*,#228,.T.);
#75=ORIENTED_EDGE('',*,*,#229,.T.);
#76=ORIENTED_EDGE('',*,*,#230,.F.);
#77=ORIENTED_EDGE('',*,*,#231,.F.);
#78=ORIENTED_EDGE('',*,*,#223,.F.);
#79=ORIENTED_EDGE('',*,*,#205,.T.);
#80=ORIENTED_EDGE('',*,*,#232,.T.);
#81=ORIENTED_EDGE('',*,*,#221,.F.);
#82=ORIENTED_EDGE('',*,*,#220,.F.);
#83=ORIENTED_EDGE('',*,*,#208,.T.);
#84=ORIENTED_EDGE('',*,*,#233,.F.);
#85=ORIENTED_EDGE('',*,*,#234,.T.);
#86=ORIENTED_EDGE('',*,*,#235,.T.);
#87=ORIENTED_EDGE('',*,*,#236,.F.);
#88=ORIENTED_EDGE('',*,*,#237,.T.);
#89=ORIENTED_EDGE('',*,*,#235,.F.);
#90=ORIENTED_EDGE('',*,*,#238,.F.);
#91=ORIENTED_EDGE('',*,*,#239,.T.);
#92=ORIENTED_EDGE('',*,*,#240,.T.);
#93=ORIENTED_EDGE('',*,*,#200,.T.);
#94=ORIENTED_EDGE('',*,*,#198,.F.);
#95=ORIENTED_EDGE('',*,*,#241,.F.);
#96=ORIENTED_EDGE('',*,*,#242,.T.);
#97=ORIENTED_EDGE('',*,*,#243,.F.);
#98=ORIENTED_EDGE('',*,*,#244,.F.);
#99=ORIENTED_EDGE('',*,*,#245,.T.);
#100=ORIENTED_EDGE('',*,*,#217,.T.);
#101=ORIENTED_EDGE('',*,*,#246,.F.);
#102=ORIENTED_EDGE('',*,*,#214,.F.);
#103=ORIENTED_EDGE('',*,*,#247,.T.);
#104=ORIENTED_EDGE('',*,*,#244,.T.);
#105=ORIENTED_EDGE('',*,*,#197,.T.);
#106=ORIENTED_EDGE('',*,*,#248,.F.);
#107=ORIENTED_EDGE('',*,*,#249,.F.);
#108=ORIENTED_EDGE('',*,*,#241,.T.);
#109=ORIENTED_EDGE('',*,*,#196,.F.);
#110=ORIENTED_EDGE('',*,*,#250,.F.);
#111=ORIENTED_EDGE('',*,*,#251,.T.);
#112=ORIENTED_EDGE('',*,*,#248,.T.);
#113=ORIENTED_EDGE('',*,*,#195,.F.);
#114=ORIENTED_EDGE('',*,*,#207,.F.);
#115=ORIENTED_EDGE('',*,*,#252,.T.);
#116=ORIENTED_EDGE('',*,*,#250,.T.);
#117=ORIENTED_EDGE('',*,*,#215,.F.);
#118=ORIENTED_EDGE('',*,*,#246,.T.);
#119=ORIENTED_EDGE('',*,*,#243,.T.);
#120=ORIENTED_EDGE('',*,*,#224,.T.);
#121=ORIENTED_EDGE('',*,*,#231,.T.);
#122=ORIENTED_EDGE('',*,*,#253,.F.);
#123=ORIENTED_EDGE('',*,*,#254,.F.);
#124=ORIENTED_EDGE('',*,*,#236,.T.);
#125=ORIENTED_EDGE('',*,*,#242,.F.);
#126=ORIENTED_EDGE('',*,*,#249,.T.);
#127=ORIENTED_EDGE('',*,*,#251,.F.);
#128=ORIENTED_EDGE('',*,*,#252,.F.);
#129=ORIENTED_EDGE('',*,*,#230,.T.);
#130=ORIENTED_EDGE('',*,*,#255,.F.);
#131=ORIENTED_EDGE('',*,*,#256,.F.);
#132=ORIENTED_EDGE('',*,*,#253,.T.);
#133=ORIENTED_EDGE('',*,*,#257,.T.);
#134=ORIENTED_EDGE('',*,*,#256,.T.);
#135=ORIENTED_EDGE('',*,*,#258,.F.);
#136=ORIENTED_EDGE('',*,*,#233,.T.);
#137=ORIENTED_EDGE('',*,*,#254,.T.);
#138=ORIENTED_EDGE('',*,*,#237,.F.);
#139=ORIENTED_EDGE('',*,*,#259,.F.);
#140=ORIENTED_EDGE('',*,*,#259,.T.);
#141=ORIENTED_EDGE('',*,*,#257,.F.);
#142=ORIENTED_EDGE('',*,*,#222,.F.);
#143=ORIENTED_EDGE('',*,*,#232,.F.);
#144=ORIENTED_EDGE('',*,*,#260,.F.);
#145=ORIENTED_EDGE('',*,*,#225,.F.);
#146=ORIENTED_EDGE('',*,*,#260,.T.);
#147=ORIENTED_EDGE('',*,*,#204,.F.);
#148=ORIENTED_EDGE('',*,*,#261,.F.);
#149=ORIENTED_EDGE('',*,*,#226,.F.);
#150=ORIENTED_EDGE('',*,*,#211,.T.);
#151=ORIENTED_EDGE('',*,*,#201,.T.);
#152=ORIENTED_EDGE('',*,*,#240,.F.);
#153=ORIENTED_EDGE('',*,*,#262,.T.);
#154=ORIENTED_EDGE('',*,*,#263,.F.);
#155=ORIENTED_EDGE('',*,*,#264,.F.);
#156=ORIENTED_EDGE('',*,*,#265,.F.);
#157=ORIENTED_EDGE('',*,*,#218,.T.);
#158=ORIENTED_EDGE('',*,*,#266,.T.);
#159=ORIENTED_EDGE('',*,*,#228,.F.);
#160=ORIENTED_EDGE('',*,*,#267,.F.);
#161=ORIENTED_EDGE('',*,*,#203,.F.);
#162=ORIENTED_EDGE('',*,*,#210,.F.);
#163=ORIENTED_EDGE('',*,*,#219,.T.);
#164=ORIENTED_EDGE('',*,*,#265,.T.);
#165=ORIENTED_EDGE('',*,*,#268,.F.);
#166=ORIENTED_EDGE('',*,*,#262,.F.);
#167=ORIENTED_EDGE('',*,*,#239,.F.);
#168=ORIENTED_EDGE('',*,*,#269,.T.);
#169=ORIENTED_EDGE('',*,*,#270,.T.);
#170=ORIENTED_EDGE('',*,*,#263,.T.);
#171=ORIENTED_EDGE('',*,*,#270,.F.);
#172=ORIENTED_EDGE('',*,*,#271,.F.);
#173=ORIENTED_EDGE('',*,*,#272,.T.);
#174=ORIENTED_EDGE('',*,*,#264,.T.);
#175=ORIENTED_EDGE('',*,*,#272,.F.);
#176=ORIENTED_EDGE('',*,*,#273,.F.);
#177=ORIENTED_EDGE('',*,*,#212,.T.);
#178=ORIENTED_EDGE('',*,*,#213,.T.);
#179=ORIENTED_EDGE('',*,*,#273,.T.);
#180=ORIENTED_EDGE('',*,*,#271,.T.);
#181=ORIENTED_EDGE('',*,*,#269,.F.);
#182=ORIENTED_EDGE('',*,*,#238,.T.);
#183=ORIENTED_EDGE('',*,*,#234,.F.);
#184=ORIENTED_EDGE('',*,*,#258,.T.);
#185=ORIENTED_EDGE('',*,*,#255,.T.);
#186=ORIENTED_EDGE('',*,*,#229,.F.);
#187=ORIENTED_EDGE('',*,*,#266,.F.);
#188=ORIENTED_EDGE('',*,*,#245,.F.);
#189=ORIENTED_EDGE('',*,*,#247,.F.);
#190=ORIENTED_EDGE('',*,*,#267,.T.);
#191=ORIENTED_EDGE('',*,*,#227,.T.);
#192=ORIENTED_EDGE('',*,*,#261,.T.);
#193=ORIENTED_EDGE('',*,*,#268,.T.);
#194=EDGE_CURVE('',#274,#275,#327,.T.);
#195=EDGE_CURVE('',#274,#276,#328,.T.);
#196=EDGE_CURVE('',#276,#277,#329,.T.);
#197=EDGE_CURVE('',#278,#277,#21,.T.);
#198=EDGE_CURVE('',#278,#279,#330,.T.);
#199=EDGE_CURVE('',#275,#279,#331,.T.);
#200=EDGE_CURVE('',#280,#279,#332,.T.);
#201=EDGE_CURVE('',#281,#280,#333,.T.);
#202=EDGE_CURVE('',#282,#281,#334,.T.);
#203=EDGE_CURVE('',#282,#283,#335,.T.);
#204=EDGE_CURVE('',#283,#284,#336,.T.);
#205=EDGE_CURVE('',#285,#284,#337,.T.);
#206=EDGE_CURVE('',#285,#275,#338,.T.);
#207=EDGE_CURVE('',#286,#274,#339,.T.);
#208=EDGE_CURVE('',#287,#285,#340,.T.);
#209=EDGE_CURVE('',#287,#288,#341,.T.);
#210=EDGE_CURVE('',#288,#282,#342,.T.);
#211=EDGE_CURVE('',#289,#281,#343,.T.);
#212=EDGE_CURVE('',#290,#289,#344,.T.);
#213=EDGE_CURVE('',#291,#290,#345,.T.);
#214=EDGE_CURVE('',#291,#292,#346,.T.);
#215=EDGE_CURVE('',#292,#286,#347,.T.);
#216=EDGE_CURVE('',#293,#294,#348,.T.);
#217=EDGE_CURVE('',#295,#294,#349,.T.);
#218=EDGE_CURVE('',#296,#295,#350,.T.);
#219=EDGE_CURVE('',#288,#296,#351,.T.);
#220=EDGE_CURVE('',#287,#293,#352,.T.);
#221=EDGE_CURVE('',#293,#297,#22,.T.);
#222=EDGE_CURVE('',#297,#298,#13,.F.);
#223=EDGE_CURVE('',#298,#299,#353,.T.);
#224=EDGE_CURVE('',#294,#299,#23,.T.);
#225=EDGE_CURVE('',#298,#300,#354,.T.);
#226=EDGE_CURVE('',#300,#301,#355,.T.);
#227=EDGE_CURVE('',#302,#301,#356,.T.);
#228=EDGE_CURVE('',#302,#303,#357,.T.);
#229=EDGE_CURVE('',#303,#304,#358,.T.);
#230=EDGE_CURVE('',#305,#304,#24,.T.);
#231=EDGE_CURVE('',#299,#305,#359,.T.);
#232=EDGE_CURVE('',#284,#297,#360,.T.);
#233=EDGE_CURVE('',#306,#307,#361,.T.);
#234=EDGE_CURVE('',#306,#308,#362,.T.);
#235=EDGE_CURVE('',#308,#309,#363,.T.);
#236=EDGE_CURVE('',#307,#309,#364,.T.);
#237=EDGE_CURVE('',#310,#310,#25,.F.);
#238=EDGE_CURVE('',#311,#308,#365,.T.);
#239=EDGE_CURVE('',#311,#312,#366,.T.);
#240=EDGE_CURVE('',#312,#280,#367,.T.);
#241=EDGE_CURVE('',#313,#278,#368,.T.);
#242=EDGE_CURVE('',#313,#309,#369,.T.);
#243=EDGE_CURVE('',#314,#294,#370,.T.);
#244=EDGE_CURVE('',#315,#314,#371,.T.);
#245=EDGE_CURVE('',#315,#295,#372,.T.);
#246=EDGE_CURVE('',#292,#314,#373,.T.);
#247=EDGE_CURVE('',#291,#315,#374,.T.);
#248=EDGE_CURVE('',#316,#277,#375,.T.);
#249=EDGE_CURVE('',#313,#316,#26,.T.);
#250=EDGE_CURVE('',#317,#276,#376,.T.);
#251=EDGE_CURVE('',#317,#316,#377,.T.);
#252=EDGE_CURVE('',#286,#317,#378,.T.);
#253=EDGE_CURVE('',#318,#305,#379,.T.);
#254=EDGE_CURVE('',#307,#318,#380,.T.);
#255=EDGE_CURVE('',#319,#304,#381,.T.);
#256=EDGE_CURVE('',#318,#319,#27,.T.);
#257=EDGE_CURVE('',#320,#320,#28,.T.);
#258=EDGE_CURVE('',#306,#319,#382,.T.);
#259=EDGE_CURVE('',#321,#321,#29,.T.);
#260=EDGE_CURVE('',#300,#284,#383,.F.);
#261=EDGE_CURVE('',#301,#283,#384,.F.);
#262=EDGE_CURVE('',#312,#322,#30,.T.);
#263=EDGE_CURVE('',#323,#322,#385,.T.);
#264=EDGE_CURVE('',#289,#323,#386,.T.);
#265=EDGE_CURVE('',#296,#324,#31,.T.);
#266=EDGE_CURVE('',#295,#303,#32,.T.);
#267=EDGE_CURVE('',#324,#302,#14,.F.);
#268=EDGE_CURVE('',#283,#324,#387,.T.);
#269=EDGE_CURVE('',#311,#325,#33,.T.);
#270=EDGE_CURVE('',#325,#322,#388,.T.);
#271=EDGE_CURVE('',#326,#325,#389,.T.);
#272=EDGE_CURVE('',#326,#323,#390,.T.);
#273=EDGE_CURVE('',#290,#326,#391,.T.);
#274=VERTEX_POINT('',#789);
#275=VERTEX_POINT('',#790);
#276=VERTEX_POINT('',#792);
#277=VERTEX_POINT('',#794);
#278=VERTEX_POINT('',#796);
#279=VERTEX_POINT('',#798);
#280=VERTEX_POINT('',#802);
#281=VERTEX_POINT('',#804);
#282=VERTEX_POINT('',#806);
#283=VERTEX_POINT('',#808);
#284=VERTEX_POINT('',#810);
#285=VERTEX_POINT('',#812);
#286=VERTEX_POINT('',#816);
#287=VERTEX_POINT('',#818);
#288=VERTEX_POINT('',#820);
#289=VERTEX_POINT('',#823);
#290=VERTEX_POINT('',#825);
#291=VERTEX_POINT('',#827);
#292=VERTEX_POINT('',#829);
#293=VERTEX_POINT('',#833);
#294=VERTEX_POINT('',#834);
#295=VERTEX_POINT('',#836);
#296=VERTEX_POINT('',#838);
#297=VERTEX_POINT('',#843);
#298=VERTEX_POINT('',#845);
#299=VERTEX_POINT('',#847);
#300=VERTEX_POINT('',#851);
#301=VERTEX_POINT('',#853);
#302=VERTEX_POINT('',#855);
#303=VERTEX_POINT('',#857);
#304=VERTEX_POINT('',#859);
#305=VERTEX_POINT('',#861);
#306=VERTEX_POINT('',#867);
#307=VERTEX_POINT('',#868);
#308=VERTEX_POINT('',#870);
#309=VERTEX_POINT('',#872);
#310=VERTEX_POINT('',#876);
#311=VERTEX_POINT('',#878);
#312=VERTEX_POINT('',#880);
#313=VERTEX_POINT('',#883);
#314=VERTEX_POINT('',#887);
#315=VERTEX_POINT('',#889);
#316=VERTEX_POINT('',#896);
#317=VERTEX_POINT('',#900);
#318=VERTEX_POINT('',#906);
#319=VERTEX_POINT('',#910);
#320=VERTEX_POINT('',#914);
#321=VERTEX_POINT('',#918);
#322=VERTEX_POINT('',#926);
#323=VERTEX_POINT('',#928);
#324=VERTEX_POINT('',#932);
#325=VERTEX_POINT('',#939);
#326=VERTEX_POINT('',#943);
#327=LINE('',#788,#392);
#328=LINE('',#791,#393);
#329=LINE('',#793,#394);
#330=LINE('',#797,#395);
#331=LINE('',#799,#396);
#332=LINE('',#801,#397);
#333=LINE('',#803,#398);
#334=LINE('',#805,#399);
#335=LINE('',#807,#400);
#336=LINE('',#809,#401);
#337=LINE('',#811,#402);
#338=LINE('',#813,#403);
#339=LINE('',#815,#404);
#340=LINE('',#817,#405);
#341=LINE('',#819,#406);
#342=LINE('',#821,#407);
#343=LINE('',#822,#408);
#344=LINE('',#824,#409);
#345=LINE('',#826,#410);
#346=LINE('',#828,#411);
#347=LINE('',#830,#412);
#348=LINE('',#832,#413);
#349=LINE('',#835,#414);
#350=LINE('',#837,#415);
#351=LINE('',#839,#416);
#352=LINE('',#840,#417);
#353=LINE('',#846,#418);
#354=LINE('',#850,#419);
#355=LINE('',#852,#420);
#356=LINE('',#854,#421);
#357=LINE('',#856,#422);
#358=LINE('',#858,#423);
#359=LINE('',#862,#424);
#360=LINE('',#864,#425);
#361=LINE('',#866,#426);
#362=LINE('',#869,#427);
#363=LINE('',#871,#428);
#364=LINE('',#873,#429);
#365=LINE('',#877,#430);
#366=LINE('',#879,#431);
#367=LINE('',#881,#432);
#368=LINE('',#882,#433);
#369=LINE('',#884,#434);
#370=LINE('',#886,#435);
#371=LINE('',#888,#436);
#372=LINE('',#890,#437);
#373=LINE('',#892,#438);
#374=LINE('',#893,#439);
#375=LINE('',#895,#440);
#376=LINE('',#899,#441);
#377=LINE('',#901,#442);
#378=LINE('',#903,#443);
#379=LINE('',#905,#444);
#380=LINE('',#907,#445);
#381=LINE('',#909,#446);
#382=LINE('',#915,#447);
#383=LINE('',#921,#448);
#384=LINE('',#923,#449);
#385=LINE('',#927,#450);
#386=LINE('',#929,#451);
#387=LINE('',#936,#452);
#388=LINE('',#940,#453);
#389=LINE('',#942,#454);
#390=LINE('',#944,#455);
#391=LINE('',#946,#456);
#392=VECTOR('',#635,1.);
#393=VECTOR('',#636,1.);
#394=VECTOR('',#637,1.);
#395=VECTOR('',#640,1.);
#396=VECTOR('',#641,1.);
#397=VECTOR('',#644,1.);
#398=VECTOR('',#645,1.);
#399=VECTOR('',#646,1.);
#400=VECTOR('',#647,1.);
#401=VECTOR('',#648,1.);
#402=VECTOR('',#649,1.);
#403=VECTOR('',#650,1.);
#404=VECTOR('',#653,1.);
#405=VECTOR('',#654,1.);
#406=VECTOR('',#655,1.);
#407=VECTOR('',#656,1.);
#408=VECTOR('',#657,1.);
#409=VECTOR('',#658,1.);
#410=VECTOR('',#659,1.);
#411=VECTOR('',#660,1.);
#412=VECTOR('',#661,1.);
#413=VECTOR('',#664,1.);
#414=VECTOR('',#665,1.);
#415=VECTOR('',#666,1.);
#416=VECTOR('',#667,1.);
#417=VECTOR('',#668,1.);
#418=VECTOR('',#675,1.);
#419=VECTOR('',#680,1.);
#420=VECTOR('',#681,1.);
#421=VECTOR('',#682,1.);
#422=VECTOR('',#683,1.);
#423=VECTOR('',#684,1.);
#424=VECTOR('',#687,1.);
#425=VECTOR('',#690,1.);
#426=VECTOR('',#693,1.);
#427=VECTOR('',#694,1.);
#428=VECTOR('',#695,1.);
#429=VECTOR('',#696,1.);
#430=VECTOR('',#701,1.);
#431=VECTOR('',#702,1.);
#432=VECTOR('',#703,1.);
#433=VECTOR('',#704,1.);
#434=VECTOR('',#705,1.);
#435=VECTOR('',#708,1.);
#436=VECTOR('',#709,1.);
#437=VECTOR('',#710,1.);
#438=VECTOR('',#713,1.);
#439=VECTOR('',#714,1.);
#440=VECTOR('',#717,1.);
#441=VECTOR('',#722,1.);
#442=VECTOR('',#723,1.);
#443=VECTOR('',#726,1.);
#444=VECTOR('',#729,1.);
#445=VECTOR('',#730,1.);
#446=VECTOR('',#733,1.);
#447=VECTOR('',#740,1.);
#448=VECTOR('',#749,1.);
#449=VECTOR('',#752,1.);
#450=VECTOR('',#757,1.);
#451=VECTOR('',#758,1.);
#452=VECTOR('',#769,1.);
#453=VECTOR('',#774,1.);
#454=VECTOR('',#777,1.);
#455=VECTOR('',#778,1.);
#456=VECTOR('',#781,1.);
#457=EDGE_LOOP('',(#34,#35,#36,#37,#38,#39));
#458=EDGE_LOOP('',(#40,#41,#42,#43,#44,#45,#46,#47));
#459=EDGE_LOOP('',(#48,#49,#50,#51,#52,#53,#54,#55,#56,#57,#58,#59));
#460=EDGE_LOOP('',(#60,#61,#62,#63,#64,#65));
#461=EDGE_LOOP('',(#66,#67,#68,#69,#70));
#462=EDGE_LOOP('',(#71,#72,#73,#74,#75,#76,#77,#78));
#463=EDGE_LOOP('',(#79,#80,#81,#82,#83));
#464=EDGE_LOOP('',(#84,#85,#86,#87));
#465=EDGE_LOOP('',(#88));
#466=EDGE_LOOP('',(#89,#90,#91,#92,#93,#94,#95,#96));
#467=EDGE_LOOP('',(#97,#98,#99,#100));
#468=EDGE_LOOP('',(#101,#102,#103,#104));
#469=EDGE_LOOP('',(#105,#106,#107,#108));
#470=EDGE_LOOP('',(#109,#110,#111,#112));
#471=EDGE_LOOP('',(#113,#114,#115,#116));
#472=EDGE_LOOP('',(#117,#118,#119,#120,#121,#122,#123,#124,#125,#126,#127,
#128));
#473=EDGE_LOOP('',(#129,#130,#131,#132));
#474=EDGE_LOOP('',(#133));
#475=EDGE_LOOP('',(#134,#135,#136,#137));
#476=EDGE_LOOP('',(#138));
#477=EDGE_LOOP('',(#139));
#478=EDGE_LOOP('',(#140));
#479=EDGE_LOOP('',(#141));
#480=EDGE_LOOP('',(#142,#143,#144,#145));
#481=EDGE_LOOP('',(#146,#147,#148,#149));
#482=EDGE_LOOP('',(#150,#151,#152,#153,#154,#155));
#483=EDGE_LOOP('',(#156,#157,#158,#159,#160));
#484=EDGE_LOOP('',(#161,#162,#163,#164,#165));
#485=EDGE_LOOP('',(#166,#167,#168,#169));
#486=EDGE_LOOP('',(#170,#171,#172,#173));
#487=EDGE_LOOP('',(#174,#175,#176,#177));
#488=EDGE_LOOP('',(#178,#179,#180,#181,#182,#183,#184,#185,#186,#187,#188,
#189));
#489=EDGE_LOOP('',(#190,#191,#192,#193));
#490=FACE_BOUND('',#457,.T.);
#491=FACE_BOUND('',#458,.T.);
#492=FACE_BOUND('',#459,.T.);
#493=FACE_BOUND('',#460,.T.);
#494=FACE_BOUND('',#461,.T.);
#495=FACE_BOUND('',#462,.T.);
#496=FACE_BOUND('',#463,.T.);
#497=FACE_BOUND('',#464,.T.);
#498=FACE_BOUND('',#465,.T.);
#499=FACE_BOUND('',#466,.T.);
#500=FACE_BOUND('',#467,.T.);
#501=FACE_BOUND('',#468,.T.);
#502=FACE_BOUND('',#469,.T.);
#503=FACE_BOUND('',#470,.T.);
#504=FACE_BOUND('',#471,.T.);
#505=FACE_BOUND('',#472,.T.);
#506=FACE_BOUND('',#473,.T.);
#507=FACE_BOUND('',#474,.T.);
#508=FACE_BOUND('',#475,.T.);
#509=FACE_BOUND('',#476,.T.);
#510=FACE_BOUND('',#477,.T.);
#511=FACE_BOUND('',#478,.T.);
#512=FACE_BOUND('',#479,.T.);
#513=FACE_BOUND('',#480,.T.);
#514=FACE_BOUND('',#481,.T.);
#515=FACE_BOUND('',#482,.T.);
#516=FACE_BOUND('',#483,.T.);
#517=FACE_BOUND('',#484,.T.);
#518=FACE_BOUND('',#485,.T.);
#519=FACE_BOUND('',#486,.T.);
#520=FACE_BOUND('',#487,.T.);
#521=FACE_BOUND('',#488,.T.);
#522=FACE_BOUND('',#489,.T.);
#523=PLANE('',#587);
#524=PLANE('',#589);
#525=PLANE('',#590);
#526=PLANE('',#591);
#527=PLANE('',#596);
#528=PLANE('',#598);
#529=PLANE('',#599);
#530=PLANE('',#600);
#531=PLANE('',#602);
#532=PLANE('',#603);
#533=PLANE('',#606);
#534=PLANE('',#607);
#535=PLANE('',#608);
#536=PLANE('',#611);
#537=PLANE('',#616);
#538=PLANE('',#617);
#539=PLANE('',#618);
#540=PLANE('',#624);
#541=PLANE('',#627);
#542=PLANE('',#628);
#543=PLANE('',#629);
#544=PLANE('',#630);
#545=ADVANCED_FACE('',(#490),#523,.T.);
#546=ADVANCED_FACE('',(#491),#524,.F.);
#547=ADVANCED_FACE('',(#492),#525,.F.);
#548=ADVANCED_FACE('',(#493),#526,.T.);
#549=ADVANCED_FACE('',(#494),#15,.T.);
#550=ADVANCED_FACE('',(#495),#527,.T.);
#551=ADVANCED_FACE('',(#496),#528,.F.);
#552=ADVANCED_FACE('',(#497),#529,.T.);
#553=ADVANCED_FACE('',(#498,#499),#530,.T.);
#554=ADVANCED_FACE('',(#500),#531,.T.);
#555=ADVANCED_FACE('',(#501),#532,.T.);
#556=ADVANCED_FACE('',(#502),#16,.F.);
#557=ADVANCED_FACE('',(#503),#533,.T.);
#558=ADVANCED_FACE('',(#504),#534,.T.);
#559=ADVANCED_FACE('',(#505),#535,.T.);
#560=ADVANCED_FACE('',(#506),#17,.F.);
#561=ADVANCED_FACE('',(#507,#508),#536,.T.);
#562=ADVANCED_FACE('',(#509,#510),#18,.F.);
#563=ADVANCED_FACE('',(#511,#512),#12,.F.);
#564=ADVANCED_FACE('',(#513),#537,.T.);
#565=ADVANCED_FACE('',(#514),#538,.T.);
#566=ADVANCED_FACE('',(#515),#539,.T.);
#567=ADVANCED_FACE('',(#516),#19,.T.);
#568=ADVANCED_FACE('',(#517),#540,.F.);
#569=ADVANCED_FACE('',(#518),#20,.F.);
#570=ADVANCED_FACE('',(#519),#541,.T.);
#571=ADVANCED_FACE('',(#520),#542,.T.);
#572=ADVANCED_FACE('',(#521),#543,.T.);
#573=ADVANCED_FACE('',(#522),#544,.T.);
#574=CLOSED_SHELL('',(#545,#546,#547,#548,#549,#550,#551,#552,#553,#554,
#555,#556,#557,#558,#559,#560,#561,#562,#563,#564,#565,#566,#567,#568,#569,
#570,#571,#572,#573));
#575=STYLED_ITEM('',(#576),#583);
#576=PRESENTATION_STYLE_ASSIGNMENT((#577));
#577=SURFACE_STYLE_USAGE(.BOTH.,#578);
#578=SURFACE_SIDE_STYLE('',(#579));
#579=SURFACE_STYLE_FILL_AREA(#580);
#580=FILL_AREA_STYLE('',(#581));
#581=FILL_AREA_STYLE_COLOUR('',#582);
#582=COLOUR_RGB('',0.615686274509804,0.811764705882353,0.929411764705882);
#583=MANIFOLD_SOLID_BREP('Part 1',#574);
#584=SHAPE_DEFINITION_REPRESENTATION(#955,#585);
#585=SHAPE_REPRESENTATION('Part 1',(#586),#950);
#586=AXIS2_PLACEMENT_3D('',#786,#631,#632);
#587=AXIS2_PLACEMENT_3D('',#787,#633,#634);
#588=AXIS2_PLACEMENT_3D('',#795,#638,#639);
#589=AXIS2_PLACEMENT_3D('',#800,#642,#643);
#590=AXIS2_PLACEMENT_3D('',#814,#651,#652);
#591=AXIS2_PLACEMENT_3D('',#831,#662,#663);
#592=AXIS2_PLACEMENT_3D('',#841,#669,#670);
#593=AXIS2_PLACEMENT_3D('',#842,#671,#672);
#594=AXIS2_PLACEMENT_3D('',#844,#673,#674);
#595=AXIS2_PLACEMENT_3D('',#848,#676,#677);
#596=AXIS2_PLACEMENT_3D('',#849,#678,#679);
#597=AXIS2_PLACEMENT_3D('',#860,#685,#686);
#598=AXIS2_PLACEMENT_3D('',#863,#688,#689);
#599=AXIS2_PLACEMENT_3D('',#865,#691,#692);
#600=AXIS2_PLACEMENT_3D('',#874,#697,#698);
#601=AXIS2_PLACEMENT_3D('',#875,#699,#700);
#602=AXIS2_PLACEMENT_3D('',#885,#706,#707);
#603=AXIS2_PLACEMENT_3D('',#891,#711,#712);
#604=AXIS2_PLACEMENT_3D('',#894,#715,#716);
#605=AXIS2_PLACEMENT_3D('',#897,#718,#719);
#606=AXIS2_PLACEMENT_3D('',#898,#720,#721);
#607=AXIS2_PLACEMENT_3D('',#902,#724,#725);
#608=AXIS2_PLACEMENT_3D('',#904,#727,#728);
#609=AXIS2_PLACEMENT_3D('',#908,#731,#732);
#610=AXIS2_PLACEMENT_3D('',#911,#734,#735);
#611=AXIS2_PLACEMENT_3D('',#912,#736,#737);
#612=AXIS2_PLACEMENT_3D('',#913,#738,#739);
#613=AXIS2_PLACEMENT_3D('',#916,#741,#742);
#614=AXIS2_PLACEMENT_3D('',#917,#743,#744);
#615=AXIS2_PLACEMENT_3D('',#919,#745,#746);
#616=AXIS2_PLACEMENT_3D('',#920,#747,#748);
#617=AXIS2_PLACEMENT_3D('',#922,#750,#751);
#618=AXIS2_PLACEMENT_3D('',#924,#753,#754);
#619=AXIS2_PLACEMENT_3D('',#925,#755,#756);
#620=AXIS2_PLACEMENT_3D('',#930,#759,#760);
#621=AXIS2_PLACEMENT_3D('',#931,#761,#762);
#622=AXIS2_PLACEMENT_3D('',#933,#763,#764);
#623=AXIS2_PLACEMENT_3D('',#934,#765,#766);
#624=AXIS2_PLACEMENT_3D('',#935,#767,#768);
#625=AXIS2_PLACEMENT_3D('',#937,#770,#771);
#626=AXIS2_PLACEMENT_3D('',#938,#772,#773);
#627=AXIS2_PLACEMENT_3D('',#941,#775,#776);
#628=AXIS2_PLACEMENT_3D('',#945,#779,#780);
#629=AXIS2_PLACEMENT_3D('',#947,#782,#783);
#630=AXIS2_PLACEMENT_3D('',#948,#784,#785);
#631=DIRECTION('',(0.,0.,1.));
#632=DIRECTION('',(1.,0.,0.));
#633=DIRECTION('',(0.,-1.,0.));
#634=DIRECTION('',(1.,0.,0.));
#635=DIRECTION('',(-1.,0.,0.));
#636=DIRECTION('',(7.60843629814389E-17,0.,1.));
#637=DIRECTION('',(1.,0.,2.47817639425258E-16));
#638=DIRECTION('',(0.,1.,0.));
#639=DIRECTION('',(0.,0.,-1.));
#640=DIRECTION('',(-1.,0.,-3.64686185290579E-16));
#641=DIRECTION('',(0.,0.,1.));
#642=DIRECTION('',(1.,0.,0.));
#643=DIRECTION('',(0.,0.,-1.));
#644=DIRECTION('',(0.,1.,0.));
#645=DIRECTION('',(0.,0.,1.));
#646=DIRECTION('',(0.,1.,0.));
#647=DIRECTION('',(0.,0.,1.));
#648=DIRECTION('',(0.,1.,0.));
#649=DIRECTION('',(0.,0.,1.));
#650=DIRECTION('',(0.,-1.,0.));
#651=DIRECTION('',(0.,0.,1.));
#652=DIRECTION('',(1.,0.,0.));
#653=DIRECTION('',(0.,1.,0.));
#654=DIRECTION('',(-1.,0.,0.));
#655=DIRECTION('',(0.,-1.,0.));
#656=DIRECTION('',(-1.,0.,0.));
#657=DIRECTION('',(-1.,0.,0.));
#658=DIRECTION('',(0.,-1.,0.));
#659=DIRECTION('',(-1.,0.,-1.65211759616839E-16));
#660=DIRECTION('',(0.,1.,0.));
#661=DIRECTION('',(-1.,0.,-1.65211759616839E-16));
#662=DIRECTION('',(1.,0.,0.));
#663=DIRECTION('',(0.,0.,-1.));
#664=DIRECTION('',(0.,-1.,0.));
#665=DIRECTION('',(0.,1.,0.));
#666=DIRECTION('',(0.,1.,0.));
#667=DIRECTION('',(0.,0.,1.));
#668=DIRECTION('',(0.,0.,1.));
#669=DIRECTION('',(0.,-1.,0.));
#670=DIRECTION('',(0.,0.,-1.));
#671=DIRECTION('',(0.,-1.,0.));
#672=DIRECTION('',(0.,0.,-1.));
#673=DIRECTION('',(-1.11512248486064E-16,0.707106781186548,0.707106781186548));
#674=DIRECTION('',(-1.11512248486064E-16,-0.707106781186548,0.707106781186548));
#675=DIRECTION('',(0.,-1.,0.));
#676=DIRECTION('',(0.,-1.,0.));
#677=DIRECTION('',(0.,0.,-1.));
#678=DIRECTION('',(-1.57702134179709E-16,0.,1.));
#679=DIRECTION('',(1.,0.,1.57702134179709E-16));
#680=DIRECTION('',(-1.,0.,-1.57702134179709E-16));
#681=DIRECTION('',(0.,-1.,0.));
#682=DIRECTION('',(-1.,0.,-1.57702134179709E-16));
#683=DIRECTION('',(0.,1.,0.));
#684=DIRECTION('',(-1.,0.,-7.88774355728843E-17));
#685=DIRECTION('',(-1.57702134179709E-16,0.,1.));
#686=DIRECTION('',(1.,0.,1.57702134179709E-16));
#687=DIRECTION('',(-1.,0.,-7.88774355728843E-17));
#688=DIRECTION('',(0.,-1.,0.));
#689=DIRECTION('',(1.,0.,0.));
#690=DIRECTION('',(1.,0.,1.57702134179709E-16));
#691=DIRECTION('',(1.,0.,1.4954512723938E-16));
#692=DIRECTION('',(1.4954512723938E-16,0.,-1.));
#693=DIRECTION('',(0.,1.,0.));
#694=DIRECTION('',(1.4954512723938E-16,0.,-1.));
#695=DIRECTION('',(0.,1.,0.));
#696=DIRECTION('',(1.4954512723938E-16,0.,-1.));
#697=DIRECTION('',(3.64686185290579E-16,0.,-1.));
#698=DIRECTION('',(-1.,0.,-3.64686185290579E-16));
#699=DIRECTION('',(3.64686185290579E-16,0.,-1.));
#700=DIRECTION('',(-1.,0.,-3.64686185290579E-16));
#701=DIRECTION('',(-1.,0.,-3.79470760369927E-16));
#702=DIRECTION('',(0.,-1.,0.));
#703=DIRECTION('',(-1.,0.,-3.64686185290579E-16));
#704=DIRECTION('',(0.,1.,0.));
#705=DIRECTION('',(-1.,0.,-3.79470760369927E-16));
#706=DIRECTION('',(0.,0.,1.));
#707=DIRECTION('',(1.,0.,0.));
#708=DIRECTION('',(1.,0.,0.));
#709=DIRECTION('',(0.,1.,0.));
#710=DIRECTION('',(1.,0.,0.));
#711=DIRECTION('',(-0.94299033358289,0.,0.332820117735138));
#712=DIRECTION('',(0.332820117735138,0.,0.94299033358289));
#713=DIRECTION('',(0.332820117735138,0.,0.94299033358289));
#714=DIRECTION('',(0.332820117735138,0.,0.94299033358289));
#715=DIRECTION('',(0.,1.,0.));
#716=DIRECTION('',(0.,0.,1.));
#717=DIRECTION('',(0.,1.,0.));
#718=DIRECTION('',(0.,1.,0.));
#719=DIRECTION('',(0.,0.,-1.));
#720=DIRECTION('',(-2.47817639425258E-16,0.,1.));
#721=DIRECTION('',(1.,0.,2.47817639425258E-16));
#722=DIRECTION('',(0.,1.,0.));
#723=DIRECTION('',(1.,0.,2.47817639425258E-16));
#724=DIRECTION('',(-1.,0.,7.60843629814389E-17));
#725=DIRECTION('',(7.60843629814389E-17,0.,1.));
#726=DIRECTION('',(7.60843629814389E-17,0.,1.));
#727=DIRECTION('',(0.,-1.,0.));
#728=DIRECTION('',(1.,0.,0.));
#729=DIRECTION('',(-1.57702134179709E-16,0.,1.));
#730=DIRECTION('',(-1.,0.,-1.57702134179709E-16));
#731=DIRECTION('',(-1.57702134179709E-16,0.,1.));
#732=DIRECTION('',(1.,0.,1.57702134179709E-16));
#733=DIRECTION('',(-1.57702134179709E-16,0.,1.));
#734=DIRECTION('',(-1.57702134179709E-16,0.,1.));
#735=DIRECTION('',(1.,0.,1.57702134179709E-16));
#736=DIRECTION('',(-1.57702134179709E-16,0.,1.));
#737=DIRECTION('',(1.,0.,1.57702134179709E-16));
#738=DIRECTION('',(1.57702134179709E-16,0.,-1.));
#739=DIRECTION('',(-1.,0.,-1.57702134179709E-16));
#740=DIRECTION('',(-1.,0.,-1.57702134179709E-16));
#741=DIRECTION('',(1.57702134179709E-16,0.,-1.));
#742=DIRECTION('',(-1.,0.,-1.57702134179709E-16));
#743=DIRECTION('',(1.57702134179709E-16,0.,-1.));
#744=DIRECTION('',(-1.,0.,-1.57702134179709E-16));
#745=DIRECTION('',(-1.57702134179709E-16,0.,1.));
#746=DIRECTION('',(1.,0.,1.57702134179709E-16));
#747=DIRECTION('',(-1.11512248486064E-16,0.707106781186548,0.707106781186548));
#748=DIRECTION('',(1.,0.,1.57702134179709E-16));
#749=DIRECTION('',(0.577350269189626,-0.577350269189626,0.577350269189626));
#750=DIRECTION('',(-0.707106781186548,0.,0.707106781186548));
#751=DIRECTION('',(0.,1.,0.));
#752=DIRECTION('',(0.577350269189626,0.577350269189626,0.577350269189626));
#753=DIRECTION('',(0.,1.,0.));
#754=DIRECTION('',(1.,0.,0.));
#755=DIRECTION('',(0.,1.,0.));
#756=DIRECTION('',(0.,0.,-1.));
#757=DIRECTION('',(1.,0.,2.47817639425258E-16));
#758=DIRECTION('',(7.60843629814389E-17,0.,1.));
#759=DIRECTION('',(0.,1.,0.));
#760=DIRECTION('',(0.,0.,-1.));
#761=DIRECTION('',(0.,-1.,0.));
#762=DIRECTION('',(0.,0.,-1.));
#763=DIRECTION('',(0.,-1.,0.));
#764=DIRECTION('',(0.,0.,-1.));
#765=DIRECTION('',(1.11512248486064E-16,0.707106781186548,-0.707106781186548));
#766=DIRECTION('',(-1.11512248486064E-16,0.707106781186548,0.707106781186548));
#767=DIRECTION('',(0.,1.,0.));
#768=DIRECTION('',(1.,0.,0.));
#769=DIRECTION('',(1.,0.,1.57702134179709E-16));
#770=DIRECTION('',(0.,-1.,0.));
#771=DIRECTION('',(0.,0.,1.));
#772=DIRECTION('',(0.,1.,0.));
#773=DIRECTION('',(0.,0.,-1.));
#774=DIRECTION('',(0.,-1.,0.));
#775=DIRECTION('',(-2.47817639425258E-16,0.,1.));
#776=DIRECTION('',(1.,0.,2.47817639425258E-16));
#777=DIRECTION('',(1.,0.,2.47817639425258E-16));
#778=DIRECTION('',(0.,-1.,0.));
#779=DIRECTION('',(-1.,0.,7.60843629814389E-17));
#780=DIRECTION('',(7.60843629814389E-17,0.,1.));
#781=DIRECTION('',(7.60843629814389E-17,0.,1.));
#782=DIRECTION('',(0.,1.,0.));
#783=DIRECTION('',(1.,0.,0.));
#784=DIRECTION('',(-1.11512248486064E-16,-0.707106781186548,0.707106781186548));
#785=DIRECTION('',(1.,0.,1.57702134179709E-16));
#786=CARTESIAN_POINT('',(0.,0.,0.));
#787=CARTESIAN_POINT('',(0.,0.0155,3.46944695195361E-18));
#788=CARTESIAN_POINT('',(0.0225,0.0155,-0.012));
#789=CARTESIAN_POINT('',(-0.001,0.0155,-0.012));
#790=CARTESIAN_POINT('',(-0.025,0.0155,-0.012));
#791=CARTESIAN_POINT('',(-0.001,0.0155,-0.00915));
#792=CARTESIAN_POINT('',(-0.001,0.0155,-0.0063));
#793=CARTESIAN_POINT('',(0.006,0.0155,-0.0063));
#794=CARTESIAN_POINT('',(0.013,0.0155,-0.0063));
#795=CARTESIAN_POINT('',(0.013,0.0155,-0.0023));
#796=CARTESIAN_POINT('',(0.013,0.0155,0.0017));
#797=CARTESIAN_POINT('',(-0.014,0.0155,0.0017));
#798=CARTESIAN_POINT('',(-0.025,0.0155,0.0017));
#799=CARTESIAN_POINT('',(-0.025,0.0155,0.00685));
#800=CARTESIAN_POINT('',(-0.025,0.0195,0.00685));
#801=CARTESIAN_POINT('',(-0.025,0.,0.0017));
#802=CARTESIAN_POINT('',(-0.025,-0.0155,0.0017));
#803=CARTESIAN_POINT('',(-0.025,-0.0155,0.00685));
#804=CARTESIAN_POINT('',(-0.025,-0.0155,-0.012));
#805=CARTESIAN_POINT('',(-0.025,-0.0195,-0.012));
#806=CARTESIAN_POINT('',(-0.025,-0.0195,-0.012));
#807=CARTESIAN_POINT('',(-0.025,-0.0195,0.00685));
#808=CARTESIAN_POINT('',(-0.025,-0.0195,0.008));
#809=CARTESIAN_POINT('',(-0.025,0.0195,0.008));
#810=CARTESIAN_POINT('',(-0.025,0.0195,0.008));
#811=CARTESIAN_POINT('',(-0.025,0.0195,0.00685));
#812=CARTESIAN_POINT('',(-0.025,0.0195,-0.012));
#813=CARTESIAN_POINT('',(-0.025,0.0195,-0.012));
#814=CARTESIAN_POINT('',(0.0225,0.0195,-0.012));
#815=CARTESIAN_POINT('',(-0.001,0.0065,-0.012));
#816=CARTESIAN_POINT('',(-0.001,0.0065,-0.012));
#817=CARTESIAN_POINT('',(0.0225,0.0195,-0.012));
#818=CARTESIAN_POINT('',(0.025,0.0195,-0.012));
#819=CARTESIAN_POINT('',(0.025,0.0195,-0.012));
#820=CARTESIAN_POINT('',(0.025,-0.0195,-0.012));
#821=CARTESIAN_POINT('',(0.0225,-0.0195,-0.012));
#822=CARTESIAN_POINT('',(0.0225,-0.0155,-0.012));
#823=CARTESIAN_POINT('',(-0.001,-0.0155,-0.012));
#824=CARTESIAN_POINT('',(-0.001,-0.0065,-0.012));
#825=CARTESIAN_POINT('',(-0.001,-0.0065,-0.012));
#826=CARTESIAN_POINT('',(0.0095,-0.0065,-0.012));
#827=CARTESIAN_POINT('',(0.02,-0.0065,-0.012));
#828=CARTESIAN_POINT('',(0.02,0.,-0.012));
#829=CARTESIAN_POINT('',(0.02,0.0065,-0.012));
#830=CARTESIAN_POINT('',(0.0095,0.0065,-0.012));
#831=CARTESIAN_POINT('',(0.025,0.0195,-0.00775));
#832=CARTESIAN_POINT('',(0.025,0.0195,-0.0035));
#833=CARTESIAN_POINT('',(0.025,0.0195,-0.0035));
#834=CARTESIAN_POINT('',(0.025,0.0065,-0.0035));
#835=CARTESIAN_POINT('',(0.025,0.,-0.0035));
#836=CARTESIAN_POINT('',(0.025,-0.0065,-0.0035));
#837=CARTESIAN_POINT('',(0.025,-0.0195,-0.0035));
#838=CARTESIAN_POINT('',(0.025,-0.0195,-0.0035));
#839=CARTESIAN_POINT('',(0.025,-0.0195,-0.00775));
#840=CARTESIAN_POINT('',(0.025,0.0195,-0.00775));
#841=CARTESIAN_POINT('',(0.002,0.0195,-0.0035));
#842=CARTESIAN_POINT('',(0.002,0.0195,-0.0035));
#843=CARTESIAN_POINT('',(0.0219185842870421,0.0195,0.008));
#844=CARTESIAN_POINT('',(0.002,0.031,-0.0035));
#845=CARTESIAN_POINT('',(0.0189926454679664,0.0155,0.012));
#846=CARTESIAN_POINT('',(0.0189926454679664,0.0195,0.012));
#847=CARTESIAN_POINT('',(0.0189926454679664,0.0065,0.012));
#848=CARTESIAN_POINT('',(0.002,0.0065,-0.0035));
#849=CARTESIAN_POINT('',(-0.014,0.0195,0.012));
#850=CARTESIAN_POINT('',(-0.025,0.0155,0.012));
#851=CARTESIAN_POINT('',(-0.021,0.0155,0.012));
#852=CARTESIAN_POINT('',(-0.021,0.,0.012));
#853=CARTESIAN_POINT('',(-0.021,-0.0155,0.012));
#854=CARTESIAN_POINT('',(-0.025,-0.0155,0.012));
#855=CARTESIAN_POINT('',(0.0189926454679664,-0.0155,0.012));
#856=CARTESIAN_POINT('',(0.0189926454679664,-0.0195,0.012));
#857=CARTESIAN_POINT('',(0.0189926454679664,-0.0065,0.012));
#858=CARTESIAN_POINT('',(0.00799632273398321,-0.0065,0.012));
#859=CARTESIAN_POINT('',(-0.0105,-0.0065,0.012));
#860=CARTESIAN_POINT('',(-0.0105,1.99005104861445E-19,0.012));
#861=CARTESIAN_POINT('',(-0.0105,0.0065,0.012));
#862=CARTESIAN_POINT('',(0.00799632273398321,0.0065,0.012));
#863=CARTESIAN_POINT('',(0.,0.0195,3.46944695195361E-18));
#864=CARTESIAN_POINT('',(0.0189926454679664,0.0195,0.008));
#865=CARTESIAN_POINT('',(-0.003,0.,0.0091));
#866=CARTESIAN_POINT('',(-0.003,0.,0.0062));
#867=CARTESIAN_POINT('',(-0.003,-0.0065,0.0062));
#868=CARTESIAN_POINT('',(-0.003,0.0065,0.0062));
#869=CARTESIAN_POINT('',(-0.003,-0.0065,0.0091));
#870=CARTESIAN_POINT('',(-0.003,-0.0065,0.0017));
#871=CARTESIAN_POINT('',(-0.003,0.,0.0017));
#872=CARTESIAN_POINT('',(-0.003,0.0065,0.0017));
#873=CARTESIAN_POINT('',(-0.003,0.0065,0.0091));
#874=CARTESIAN_POINT('',(-0.014,0.,0.0017));
#875=CARTESIAN_POINT('',(-0.0105,0.,0.0017));
#876=CARTESIAN_POINT('',(-0.013,0.,0.0017));
#877=CARTESIAN_POINT('',(0.005,-0.0065,0.0017));
#878=CARTESIAN_POINT('',(0.013,-0.0065,0.0017));
#879=CARTESIAN_POINT('',(0.013,-0.0065,0.0017));
#880=CARTESIAN_POINT('',(0.013,-0.0155,0.0017));
#881=CARTESIAN_POINT('',(-0.014,-0.0155,0.0017));
#882=CARTESIAN_POINT('',(0.013,0.0065,0.0017));
#883=CARTESIAN_POINT('',(0.013,0.0065,0.0017));
#884=CARTESIAN_POINT('',(0.005,0.0065,0.0017));
#885=CARTESIAN_POINT('',(0.024,0.,-0.0035));
#886=CARTESIAN_POINT('',(0.024,0.0065,-0.0035));
#887=CARTESIAN_POINT('',(0.023,0.0065,-0.0035));
#888=CARTESIAN_POINT('',(0.023,0.,-0.0035));
#889=CARTESIAN_POINT('',(0.023,-0.0065,-0.0035));
#890=CARTESIAN_POINT('',(0.024,-0.0065,-0.0035));
#891=CARTESIAN_POINT('',(0.0215,0.,-0.00775));
#892=CARTESIAN_POINT('',(0.0215,0.0065,-0.00775));
#893=CARTESIAN_POINT('',(0.0215,-0.0065,-0.00775));
#894=CARTESIAN_POINT('',(0.013,0.0065,-0.0023));
#895=CARTESIAN_POINT('',(0.013,0.0065,-0.0063));
#896=CARTESIAN_POINT('',(0.013,0.0065,-0.0063));
#897=CARTESIAN_POINT('',(0.013,0.0065,-0.0023));
#898=CARTESIAN_POINT('',(0.006,0.0065,-0.0063));
#899=CARTESIAN_POINT('',(-0.001,0.0065,-0.0063));
#900=CARTESIAN_POINT('',(-0.001,0.0065,-0.0063));
#901=CARTESIAN_POINT('',(0.006,0.0065,-0.0063));
#902=CARTESIAN_POINT('',(-0.001,0.0065,-0.00915));
#903=CARTESIAN_POINT('',(-0.001,0.0065,-0.00915));
#904=CARTESIAN_POINT('',(0.,0.0065,3.46944695195361E-18));
#905=CARTESIAN_POINT('',(-0.0105,0.0065,0.0062));
#906=CARTESIAN_POINT('',(-0.0105,0.0065,0.0062));
#907=CARTESIAN_POINT('',(-0.00675,0.0065,0.0062));
#908=CARTESIAN_POINT('',(-0.0105,1.99005104861445E-19,0.0062));
#909=CARTESIAN_POINT('',(-0.0105,-0.0065,0.0062));
#910=CARTESIAN_POINT('',(-0.0105,-0.0065,0.0062));
#911=CARTESIAN_POINT('',(-0.0105,1.99005104861445E-19,0.0062));
#912=CARTESIAN_POINT('',(-0.00300367726601679,0.00975,0.0062));
#913=CARTESIAN_POINT('',(-0.0105,0.,0.0062));
#914=CARTESIAN_POINT('',(-0.01525,0.,0.0062));
#915=CARTESIAN_POINT('',(-0.00675,-0.0065,0.0062));
#916=CARTESIAN_POINT('',(-0.0105,0.,0.0062));
#917=CARTESIAN_POINT('',(-0.0105,0.,0.00395));
#918=CARTESIAN_POINT('',(-0.013,0.,0.00395));
#919=CARTESIAN_POINT('',(-0.0105,0.,0.0062));
#920=CARTESIAN_POINT('',(-0.014,0.0155,0.012));
#921=CARTESIAN_POINT('',(-0.0186666666666667,0.0131666666666667,0.0143333333333333));
#922=CARTESIAN_POINT('',(-0.021,0.0195,0.012));
#923=CARTESIAN_POINT('',(-0.0186666666666667,-0.0131666666666667,0.0143333333333333));
#924=CARTESIAN_POINT('',(0.,-0.0155,3.46944695195361E-18));
#925=CARTESIAN_POINT('',(0.013,-0.0155,-0.0023));
#926=CARTESIAN_POINT('',(0.013,-0.0155,-0.0063));
#927=CARTESIAN_POINT('',(0.006,-0.0155,-0.0063));
#928=CARTESIAN_POINT('',(-0.001,-0.0155,-0.0063));
#929=CARTESIAN_POINT('',(-0.001,-0.0155,-0.00915));
#930=CARTESIAN_POINT('',(0.002,-0.0195,-0.0035));
#931=CARTESIAN_POINT('',(0.002,-0.0195,-0.0035));
#932=CARTESIAN_POINT('',(0.0219185842870421,-0.0195,0.008));
#933=CARTESIAN_POINT('',(0.002,-0.0065,-0.0035));
#934=CARTESIAN_POINT('',(0.002,-0.031,-0.0035));
#935=CARTESIAN_POINT('',(0.,-0.0195,3.46944695195361E-18));
#936=CARTESIAN_POINT('',(0.0189926454679664,-0.0195,0.008));
#937=CARTESIAN_POINT('',(0.013,-0.0065,-0.0023));
#938=CARTESIAN_POINT('',(0.013,-0.0065,-0.0023));
#939=CARTESIAN_POINT('',(0.013,-0.0065,-0.0063));
#940=CARTESIAN_POINT('',(0.013,-0.0065,-0.0063));
#941=CARTESIAN_POINT('',(0.006,-0.0065,-0.0063));
#942=CARTESIAN_POINT('',(0.006,-0.0065,-0.0063));
#943=CARTESIAN_POINT('',(-0.001,-0.0065,-0.0063));
#944=CARTESIAN_POINT('',(-0.001,-0.0065,-0.0063));
#945=CARTESIAN_POINT('',(-0.001,-0.0065,-0.00915));
#946=CARTESIAN_POINT('',(-0.001,-0.0065,-0.00915));
#947=CARTESIAN_POINT('',(0.,-0.0065,3.46944695195361E-18));
#948=CARTESIAN_POINT('',(-0.014,-0.0155,0.012));
#949=MECHANICAL_DESIGN_GEOMETRIC_PRESENTATION_REPRESENTATION('',(#575),
#950);
#950=(
GEOMETRIC_REPRESENTATION_CONTEXT(3)
GLOBAL_UNCERTAINTY_ASSIGNED_CONTEXT((#951))
GLOBAL_UNIT_ASSIGNED_CONTEXT((#954,#953,#952))
REPRESENTATION_CONTEXT('Part 1','TOP_LEVEL_ASSEMBLY_PART')
);
#951=UNCERTAINTY_MEASURE_WITH_UNIT(LENGTH_MEASURE(1.E-8),#954,
'DISTANCE_ACCURACY_VALUE','Maximum Tolerance applied to model');
#952=(
NAMED_UNIT(*)
SI_UNIT($,.STERADIAN.)
SOLID_ANGLE_UNIT()
);
#953=(
NAMED_UNIT(*)
PLANE_ANGLE_UNIT()
SI_UNIT($,.RADIAN.)
);
#954=(
LENGTH_UNIT()
NAMED_UNIT(*)
SI_UNIT($,.METRE.)
);
#955=PRODUCT_DEFINITION_SHAPE('','',#956);
#956=PRODUCT_DEFINITION('','',#958,#957);
#957=PRODUCT_DEFINITION_CONTEXT('',#964,'design');
#958=PRODUCT_DEFINITION_FORMATION_WITH_SPECIFIED_SOURCE('','',#960,
 .NOT_KNOWN.);
#959=PRODUCT_RELATED_PRODUCT_CATEGORY('','',(#960));
#960=PRODUCT('Part 1','Part 1','Part 1',(#962));
#961=PRODUCT_CATEGORY('','');
#962=PRODUCT_CONTEXT('',#964,'mechanical');
#963=APPLICATION_PROTOCOL_DEFINITION('international standard',
'ap242_managed_model_based_3d_engineering',2020,#964);
#964=APPLICATION_CONTEXT('managed model based 3d engineering');
ENDSEC;
END-ISO-10303-21;
