ISO-10303-21;
HEADER;
/* Generated by software containing ST-Developer
 * from STEP Tools, Inc. (www.steptools.com) 
 */
/* OPTION: using custom renumber hook */

FILE_DESCRIPTION(
/* description */ ('STEP AP242 Edition 2',
'CAx-IF Rec.Pracs.---Representation and Presentation of Product Manufa
cturing Information (PMI)---4.0---2014-10-13',
'CAx-IF Rec.Pracs.---3D Tessellated Geometry---0.4---2014-09-14','2;1',
'CAx-IF Rec.Pracs.---User Defined Attributes---1.5---2016-08-15'),
/* implementation_level */ '2;1');

FILE_NAME(
/* name */ 'Part Studio 1',
/* time_stamp */ '2026-07-03T15:58:27Z',
/* author */ (''),
/* organization */ (''),
/* preprocessor_version */ 'ST-DEVELOPER v20',
/* originating_system */ 'ONSHAPE BY PTC INC, 1.217',
/* authorisation */ '  ');

FILE_SCHEMA (('AP242_MANAGED_MODEL_BASED_3D_ENGINEERING_MIM_LF { 1 0 10303 442 3 1 4 }'));
ENDSEC;

DATA;
#10=SHAPE_REPRESENTATION_RELATIONSHIP('','',#473,#11);
#11=ADVANCED_BREP_SHAPE_REPRESENTATION('',(#471),#761);
#12=CYLINDRICAL_SURFACE('',#484,0.005);
#13=CYLINDRICAL_SURFACE('',#489,0.004);
#14=CYLINDRICAL_SURFACE('',#492,0.004);
#15=CYLINDRICAL_SURFACE('',#506,0.003);
#16=CYLINDRICAL_SURFACE('',#509,0.003);
#17=CIRCLE('',#476,0.005);
#18=CIRCLE('',#485,0.005);
#19=CIRCLE('',#487,0.004);
#20=CIRCLE('',#488,0.004);
#21=CIRCLE('',#490,0.004);
#22=CIRCLE('',#493,0.004);
#23=CIRCLE('',#500,0.003);
#24=CIRCLE('',#503,0.003);
#25=CIRCLE('',#505,0.003);
#26=CIRCLE('',#508,0.003);
#27=ORIENTED_EDGE('',*,*,#147,.F.);
#28=ORIENTED_EDGE('',*,*,#148,.T.);
#29=ORIENTED_EDGE('',*,*,#149,.T.);
#30=ORIENTED_EDGE('',*,*,#150,.F.);
#31=ORIENTED_EDGE('',*,*,#151,.F.);
#32=ORIENTED_EDGE('',*,*,#152,.F.);
#33=ORIENTED_EDGE('',*,*,#153,.F.);
#34=ORIENTED_EDGE('',*,*,#154,.F.);
#35=ORIENTED_EDGE('',*,*,#155,.T.);
#36=ORIENTED_EDGE('',*,*,#148,.F.);
#37=ORIENTED_EDGE('',*,*,#156,.F.);
#38=ORIENTED_EDGE('',*,*,#157,.F.);
#39=ORIENTED_EDGE('',*,*,#158,.T.);
#40=ORIENTED_EDGE('',*,*,#159,.T.);
#41=ORIENTED_EDGE('',*,*,#160,.F.);
#42=ORIENTED_EDGE('',*,*,#161,.F.);
#43=ORIENTED_EDGE('',*,*,#162,.T.);
#44=ORIENTED_EDGE('',*,*,#163,.T.);
#45=ORIENTED_EDGE('',*,*,#164,.T.);
#46=ORIENTED_EDGE('',*,*,#165,.T.);
#47=ORIENTED_EDGE('',*,*,#150,.T.);
#48=ORIENTED_EDGE('',*,*,#166,.F.);
#49=ORIENTED_EDGE('',*,*,#167,.T.);
#50=ORIENTED_EDGE('',*,*,#168,.T.);
#51=ORIENTED_EDGE('',*,*,#169,.T.);
#52=ORIENTED_EDGE('',*,*,#170,.T.);
#53=ORIENTED_EDGE('',*,*,#171,.F.);
#54=ORIENTED_EDGE('',*,*,#162,.F.);
#55=ORIENTED_EDGE('',*,*,#172,.F.);
#56=ORIENTED_EDGE('',*,*,#173,.T.);
#57=ORIENTED_EDGE('',*,*,#174,.T.);
#58=ORIENTED_EDGE('',*,*,#158,.F.);
#59=ORIENTED_EDGE('',*,*,#175,.T.);
#60=ORIENTED_EDGE('',*,*,#163,.F.);
#61=ORIENTED_EDGE('',*,*,#176,.F.);
#62=ORIENTED_EDGE('',*,*,#161,.T.);
#63=ORIENTED_EDGE('',*,*,#177,.T.);
#64=ORIENTED_EDGE('',*,*,#176,.T.);
#65=ORIENTED_EDGE('',*,*,#172,.T.);
#66=ORIENTED_EDGE('',*,*,#160,.T.);
#67=ORIENTED_EDGE('',*,*,#178,.F.);
#68=ORIENTED_EDGE('',*,*,#179,.F.);
#69=ORIENTED_EDGE('',*,*,#180,.T.);
#70=ORIENTED_EDGE('',*,*,#181,.F.);
#71=ORIENTED_EDGE('',*,*,#182,.T.);
#72=ORIENTED_EDGE('',*,*,#173,.F.);
#73=ORIENTED_EDGE('',*,*,#177,.F.);
#74=ORIENTED_EDGE('',*,*,#181,.T.);
#75=ORIENTED_EDGE('',*,*,#183,.T.);
#76=ORIENTED_EDGE('',*,*,#168,.F.);
#77=ORIENTED_EDGE('',*,*,#184,.F.);
#78=ORIENTED_EDGE('',*,*,#153,.T.);
#79=ORIENTED_EDGE('',*,*,#185,.F.);
#80=ORIENTED_EDGE('',*,*,#151,.T.);
#81=ORIENTED_EDGE('',*,*,#186,.F.);
#82=ORIENTED_EDGE('',*,*,#171,.T.);
#83=ORIENTED_EDGE('',*,*,#187,.T.);
#84=ORIENTED_EDGE('',*,*,#178,.T.);
#85=ORIENTED_EDGE('',*,*,#159,.F.);
#86=ORIENTED_EDGE('',*,*,#186,.T.);
#87=ORIENTED_EDGE('',*,*,#188,.T.);
#88=ORIENTED_EDGE('',*,*,#189,.T.);
#89=ORIENTED_EDGE('',*,*,#190,.F.);
#90=ORIENTED_EDGE('',*,*,#191,.F.);
#91=ORIENTED_EDGE('',*,*,#188,.F.);
#92=ORIENTED_EDGE('',*,*,#192,.F.);
#93=ORIENTED_EDGE('',*,*,#193,.T.);
#94=ORIENTED_EDGE('',*,*,#194,.T.);
#95=ORIENTED_EDGE('',*,*,#191,.T.);
#96=ORIENTED_EDGE('',*,*,#195,.F.);
#97=ORIENTED_EDGE('',*,*,#196,.F.);
#98=ORIENTED_EDGE('',*,*,#192,.T.);
#99=ORIENTED_EDGE('',*,*,#190,.T.);
#100=ORIENTED_EDGE('',*,*,#197,.F.);
#101=ORIENTED_EDGE('',*,*,#198,.F.);
#102=ORIENTED_EDGE('',*,*,#195,.T.);
#103=ORIENTED_EDGE('',*,*,#189,.F.);
#104=ORIENTED_EDGE('',*,*,#194,.F.);
#105=ORIENTED_EDGE('',*,*,#199,.T.);
#106=ORIENTED_EDGE('',*,*,#197,.T.);
#107=ORIENTED_EDGE('',*,*,#193,.F.);
#108=ORIENTED_EDGE('',*,*,#196,.T.);
#109=ORIENTED_EDGE('',*,*,#198,.T.);
#110=ORIENTED_EDGE('',*,*,#199,.F.);
#111=ORIENTED_EDGE('',*,*,#152,.T.);
#112=ORIENTED_EDGE('',*,*,#174,.F.);
#113=ORIENTED_EDGE('',*,*,#182,.F.);
#114=ORIENTED_EDGE('',*,*,#185,.T.);
#115=ORIENTED_EDGE('',*,*,#187,.F.);
#116=ORIENTED_EDGE('',*,*,#170,.F.);
#117=ORIENTED_EDGE('',*,*,#200,.T.);
#118=ORIENTED_EDGE('',*,*,#179,.T.);
#119=ORIENTED_EDGE('',*,*,#200,.F.);
#120=ORIENTED_EDGE('',*,*,#169,.F.);
#121=ORIENTED_EDGE('',*,*,#183,.F.);
#122=ORIENTED_EDGE('',*,*,#180,.F.);
#123=ORIENTED_EDGE('',*,*,#149,.F.);
#124=ORIENTED_EDGE('',*,*,#155,.F.);
#125=ORIENTED_EDGE('',*,*,#201,.T.);
#126=ORIENTED_EDGE('',*,*,#166,.T.);
#127=ORIENTED_EDGE('',*,*,#202,.T.);
#128=ORIENTED_EDGE('',*,*,#201,.F.);
#129=ORIENTED_EDGE('',*,*,#154,.T.);
#130=ORIENTED_EDGE('',*,*,#184,.T.);
#131=ORIENTED_EDGE('',*,*,#167,.F.);
#132=ORIENTED_EDGE('',*,*,#147,.T.);
#133=ORIENTED_EDGE('',*,*,#165,.F.);
#134=ORIENTED_EDGE('',*,*,#203,.F.);
#135=ORIENTED_EDGE('',*,*,#156,.T.);
#136=ORIENTED_EDGE('',*,*,#204,.T.);
#137=ORIENTED_EDGE('',*,*,#157,.T.);
#138=ORIENTED_EDGE('',*,*,#203,.T.);
#139=ORIENTED_EDGE('',*,*,#164,.F.);
#140=ORIENTED_EDGE('',*,*,#175,.F.);
#141=ORIENTED_EDGE('',*,*,#205,.F.);
#142=ORIENTED_EDGE('',*,*,#205,.T.);
#143=ORIENTED_EDGE('',*,*,#204,.F.);
#144=ORIENTED_EDGE('',*,*,#206,.F.);
#145=ORIENTED_EDGE('',*,*,#206,.T.);
#146=ORIENTED_EDGE('',*,*,#202,.F.);
#147=EDGE_CURVE('',#207,#208,#249,.T.);
#148=EDGE_CURVE('',#207,#209,#250,.T.);
#149=EDGE_CURVE('',#209,#210,#251,.T.);
#150=EDGE_CURVE('',#208,#210,#252,.T.);
#151=EDGE_CURVE('',#211,#211,#17,.T.);
#152=EDGE_CURVE('',#212,#213,#253,.T.);
#153=EDGE_CURVE('',#214,#212,#254,.T.);
#154=EDGE_CURVE('',#215,#214,#255,.T.);
#155=EDGE_CURVE('',#215,#209,#256,.T.);
#156=EDGE_CURVE('',#216,#207,#257,.T.);
#157=EDGE_CURVE('',#217,#216,#258,.T.);
#158=EDGE_CURVE('',#217,#213,#259,.T.);
#159=EDGE_CURVE('',#218,#219,#260,.T.);
#160=EDGE_CURVE('',#220,#219,#261,.T.);
#161=EDGE_CURVE('',#221,#220,#262,.T.);
#162=EDGE_CURVE('',#221,#218,#263,.T.);
#163=EDGE_CURVE('',#222,#223,#264,.T.);
#164=EDGE_CURVE('',#223,#224,#265,.T.);
#165=EDGE_CURVE('',#224,#208,#266,.T.);
#166=EDGE_CURVE('',#225,#210,#267,.T.);
#167=EDGE_CURVE('',#225,#226,#268,.T.);
#168=EDGE_CURVE('',#226,#227,#269,.T.);
#169=EDGE_CURVE('',#227,#228,#270,.T.);
#170=EDGE_CURVE('',#228,#229,#271,.T.);
#171=EDGE_CURVE('',#218,#229,#272,.T.);
#172=EDGE_CURVE('',#222,#221,#273,.T.);
#173=EDGE_CURVE('',#230,#231,#274,.T.);
#174=EDGE_CURVE('',#231,#213,#275,.T.);
#175=EDGE_CURVE('',#217,#223,#276,.T.);
#176=EDGE_CURVE('',#230,#222,#277,.T.);
#177=EDGE_CURVE('',#220,#230,#278,.T.);
#178=EDGE_CURVE('',#232,#219,#279,.T.);
#179=EDGE_CURVE('',#233,#232,#280,.T.);
#180=EDGE_CURVE('',#233,#234,#281,.T.);
#181=EDGE_CURVE('',#235,#234,#282,.T.);
#182=EDGE_CURVE('',#235,#231,#283,.T.);
#183=EDGE_CURVE('',#234,#227,#284,.T.);
#184=EDGE_CURVE('',#214,#226,#285,.T.);
#185=EDGE_CURVE('',#235,#212,#286,.T.);
#186=EDGE_CURVE('',#236,#236,#18,.T.);
#187=EDGE_CURVE('',#229,#232,#287,.T.);
#188=EDGE_CURVE('',#237,#238,#19,.T.);
#189=EDGE_CURVE('',#238,#239,#288,.T.);
#190=EDGE_CURVE('',#240,#239,#20,.T.);
#191=EDGE_CURVE('',#237,#240,#289,.T.);
#192=EDGE_CURVE('',#241,#237,#290,.T.);
#193=EDGE_CURVE('',#241,#242,#21,.T.);
#194=EDGE_CURVE('',#242,#238,#291,.T.);
#195=EDGE_CURVE('',#243,#240,#292,.T.);
#196=EDGE_CURVE('',#241,#243,#293,.T.);
#197=EDGE_CURVE('',#244,#239,#294,.T.);
#198=EDGE_CURVE('',#243,#244,#22,.T.);
#199=EDGE_CURVE('',#242,#244,#295,.T.);
#200=EDGE_CURVE('',#228,#233,#296,.T.);
#201=EDGE_CURVE('',#215,#225,#297,.T.);
#202=EDGE_CURVE('',#245,#245,#23,.T.);
#203=EDGE_CURVE('',#216,#224,#298,.T.);
#204=EDGE_CURVE('',#246,#246,#24,.T.);
#205=EDGE_CURVE('',#247,#247,#25,.T.);
#206=EDGE_CURVE('',#248,#248,#26,.T.);
#207=VERTEX_POINT('',#635);
#208=VERTEX_POINT('',#636);
#209=VERTEX_POINT('',#638);
#210=VERTEX_POINT('',#640);
#211=VERTEX_POINT('',#643);
#212=VERTEX_POINT('',#646);
#213=VERTEX_POINT('',#647);
#214=VERTEX_POINT('',#649);
#215=VERTEX_POINT('',#651);
#216=VERTEX_POINT('',#654);
#217=VERTEX_POINT('',#656);
#218=VERTEX_POINT('',#660);
#219=VERTEX_POINT('',#661);
#220=VERTEX_POINT('',#663);
#221=VERTEX_POINT('',#665);
#222=VERTEX_POINT('',#669);
#223=VERTEX_POINT('',#670);
#224=VERTEX_POINT('',#672);
#225=VERTEX_POINT('',#675);
#226=VERTEX_POINT('',#677);
#227=VERTEX_POINT('',#679);
#228=VERTEX_POINT('',#681);
#229=VERTEX_POINT('',#683);
#230=VERTEX_POINT('',#688);
#231=VERTEX_POINT('',#689);
#232=VERTEX_POINT('',#697);
#233=VERTEX_POINT('',#699);
#234=VERTEX_POINT('',#701);
#235=VERTEX_POINT('',#703);
#236=VERTEX_POINT('',#711);
#237=VERTEX_POINT('',#715);
#238=VERTEX_POINT('',#716);
#239=VERTEX_POINT('',#718);
#240=VERTEX_POINT('',#720);
#241=VERTEX_POINT('',#724);
#242=VERTEX_POINT('',#726);
#243=VERTEX_POINT('',#730);
#244=VERTEX_POINT('',#734);
#245=VERTEX_POINT('',#746);
#246=VERTEX_POINT('',#751);
#247=VERTEX_POINT('',#754);
#248=VERTEX_POINT('',#758);
#249=LINE('',#634,#299);
#250=LINE('',#637,#300);
#251=LINE('',#639,#301);
#252=LINE('',#641,#302);
#253=LINE('',#645,#303);
#254=LINE('',#648,#304);
#255=LINE('',#650,#305);
#256=LINE('',#652,#306);
#257=LINE('',#653,#307);
#258=LINE('',#655,#308);
#259=LINE('',#657,#309);
#260=LINE('',#659,#310);
#261=LINE('',#662,#311);
#262=LINE('',#664,#312);
#263=LINE('',#666,#313);
#264=LINE('',#668,#314);
#265=LINE('',#671,#315);
#266=LINE('',#673,#316);
#267=LINE('',#674,#317);
#268=LINE('',#676,#318);
#269=LINE('',#678,#319);
#270=LINE('',#680,#320);
#271=LINE('',#682,#321);
#272=LINE('',#684,#322);
#273=LINE('',#685,#323);
#274=LINE('',#687,#324);
#275=LINE('',#690,#325);
#276=LINE('',#691,#326);
#277=LINE('',#692,#327);
#278=LINE('',#694,#328);
#279=LINE('',#696,#329);
#280=LINE('',#698,#330);
#281=LINE('',#700,#331);
#282=LINE('',#702,#332);
#283=LINE('',#704,#333);
#284=LINE('',#706,#334);
#285=LINE('',#707,#335);
#286=LINE('',#708,#336);
#287=LINE('',#713,#337);
#288=LINE('',#717,#338);
#289=LINE('',#721,#339);
#290=LINE('',#723,#340);
#291=LINE('',#727,#341);
#292=LINE('',#729,#342);
#293=LINE('',#731,#343);
#294=LINE('',#733,#344);
#295=LINE('',#737,#345);
#296=LINE('',#740,#346);
#297=LINE('',#743,#347);
#298=LINE('',#748,#348);
#299=VECTOR('',#514,1.);
#300=VECTOR('',#515,1.);
#301=VECTOR('',#516,1.);
#302=VECTOR('',#517,1.);
#303=VECTOR('',#522,1.);
#304=VECTOR('',#523,1.);
#305=VECTOR('',#524,1.);
#306=VECTOR('',#525,1.);
#307=VECTOR('',#526,1.);
#308=VECTOR('',#527,1.);
#309=VECTOR('',#528,1.);
#310=VECTOR('',#531,1.);
#311=VECTOR('',#532,1.);
#312=VECTOR('',#533,1.);
#313=VECTOR('',#534,1.);
#314=VECTOR('',#537,1.);
#315=VECTOR('',#538,1.);
#316=VECTOR('',#539,1.);
#317=VECTOR('',#540,1.);
#318=VECTOR('',#541,1.);
#319=VECTOR('',#542,1.);
#320=VECTOR('',#543,1.);
#321=VECTOR('',#544,1.);
#322=VECTOR('',#545,1.);
#323=VECTOR('',#546,1.);
#324=VECTOR('',#549,1.);
#325=VECTOR('',#550,1.);
#326=VECTOR('',#551,1.);
#327=VECTOR('',#552,1.);
#328=VECTOR('',#555,1.);
#329=VECTOR('',#558,1.);
#330=VECTOR('',#559,1.);
#331=VECTOR('',#560,1.);
#332=VECTOR('',#561,1.);
#333=VECTOR('',#562,1.);
#334=VECTOR('',#565,1.);
#335=VECTOR('',#566,1.);
#336=VECTOR('',#567,1.);
#337=VECTOR('',#574,1.);
#338=VECTOR('',#577,1.);
#339=VECTOR('',#580,1.);
#340=VECTOR('',#583,1.);
#341=VECTOR('',#586,1.);
#342=VECTOR('',#589,1.);
#343=VECTOR('',#590,1.);
#344=VECTOR('',#593,1.);
#345=VECTOR('',#598,1.);
#346=VECTOR('',#603,1.);
#347=VECTOR('',#608,1.);
#348=VECTOR('',#615,1.);
#349=EDGE_LOOP('',(#27,#28,#29,#30));
#350=EDGE_LOOP('',(#31));
#351=EDGE_LOOP('',(#32,#33,#34,#35,#36,#37,#38,#39));
#352=EDGE_LOOP('',(#40,#41,#42,#43));
#353=EDGE_LOOP('',(#44,#45,#46,#47,#48,#49,#50,#51,#52,#53,#54,#55));
#354=EDGE_LOOP('',(#56,#57,#58,#59,#60,#61));
#355=EDGE_LOOP('',(#62,#63,#64,#65));
#356=EDGE_LOOP('',(#66,#67,#68,#69,#70,#71,#72,#73));
#357=EDGE_LOOP('',(#74,#75,#76,#77,#78,#79));
#358=EDGE_LOOP('',(#80));
#359=EDGE_LOOP('',(#81));
#360=EDGE_LOOP('',(#82,#83,#84,#85));
#361=EDGE_LOOP('',(#86));
#362=EDGE_LOOP('',(#87,#88,#89,#90));
#363=EDGE_LOOP('',(#91,#92,#93,#94));
#364=EDGE_LOOP('',(#95,#96,#97,#98));
#365=EDGE_LOOP('',(#99,#100,#101,#102));
#366=EDGE_LOOP('',(#103,#104,#105,#106));
#367=EDGE_LOOP('',(#107,#108,#109,#110));
#368=EDGE_LOOP('',(#111,#112,#113,#114));
#369=EDGE_LOOP('',(#115,#116,#117,#118));
#370=EDGE_LOOP('',(#119,#120,#121,#122));
#371=EDGE_LOOP('',(#123,#124,#125,#126));
#372=EDGE_LOOP('',(#127));
#373=EDGE_LOOP('',(#128,#129,#130,#131));
#374=EDGE_LOOP('',(#132,#133,#134,#135));
#375=EDGE_LOOP('',(#136));
#376=EDGE_LOOP('',(#137,#138,#139,#140));
#377=EDGE_LOOP('',(#141));
#378=EDGE_LOOP('',(#142));
#379=EDGE_LOOP('',(#143));
#380=EDGE_LOOP('',(#144));
#381=EDGE_LOOP('',(#145));
#382=EDGE_LOOP('',(#146));
#383=FACE_BOUND('',#349,.T.);
#384=FACE_BOUND('',#350,.T.);
#385=FACE_BOUND('',#351,.T.);
#386=FACE_BOUND('',#352,.T.);
#387=FACE_BOUND('',#353,.T.);
#388=FACE_BOUND('',#354,.T.);
#389=FACE_BOUND('',#355,.T.);
#390=FACE_BOUND('',#356,.T.);
#391=FACE_BOUND('',#357,.T.);
#392=FACE_BOUND('',#358,.T.);
#393=FACE_BOUND('',#359,.T.);
#394=FACE_BOUND('',#360,.T.);
#395=FACE_BOUND('',#361,.T.);
#396=FACE_BOUND('',#362,.T.);
#397=FACE_BOUND('',#363,.T.);
#398=FACE_BOUND('',#364,.T.);
#399=FACE_BOUND('',#365,.T.);
#400=FACE_BOUND('',#366,.T.);
#401=FACE_BOUND('',#367,.T.);
#402=FACE_BOUND('',#368,.T.);
#403=FACE_BOUND('',#369,.T.);
#404=FACE_BOUND('',#370,.T.);
#405=FACE_BOUND('',#371,.T.);
#406=FACE_BOUND('',#372,.T.);
#407=FACE_BOUND('',#373,.T.);
#408=FACE_BOUND('',#374,.T.);
#409=FACE_BOUND('',#375,.T.);
#410=FACE_BOUND('',#376,.T.);
#411=FACE_BOUND('',#377,.T.);
#412=FACE_BOUND('',#378,.T.);
#413=FACE_BOUND('',#379,.T.);
#414=FACE_BOUND('',#380,.T.);
#415=FACE_BOUND('',#381,.T.);
#416=FACE_BOUND('',#382,.T.);
#417=PLANE('',#475);
#418=PLANE('',#477);
#419=PLANE('',#478);
#420=PLANE('',#479);
#421=PLANE('',#480);
#422=PLANE('',#481);
#423=PLANE('',#482);
#424=PLANE('',#483);
#425=PLANE('',#486);
#426=PLANE('',#491);
#427=PLANE('',#494);
#428=PLANE('',#495);
#429=PLANE('',#496);
#430=PLANE('',#497);
#431=PLANE('',#498);
#432=PLANE('',#499);
#433=PLANE('',#501);
#434=PLANE('',#502);
#435=PLANE('',#504);
#436=PLANE('',#507);
#437=ADVANCED_FACE('',(#383,#384),#417,.T.);
#438=ADVANCED_FACE('',(#385),#418,.F.);
#439=ADVANCED_FACE('',(#386),#419,.F.);
#440=ADVANCED_FACE('',(#387),#420,.F.);
#441=ADVANCED_FACE('',(#388),#421,.F.);
#442=ADVANCED_FACE('',(#389),#422,.F.);
#443=ADVANCED_FACE('',(#390),#423,.F.);
#444=ADVANCED_FACE('',(#391),#424,.F.);
#445=ADVANCED_FACE('',(#392,#393),#12,.F.);
#446=ADVANCED_FACE('',(#394,#395,#396),#425,.F.);
#447=ADVANCED_FACE('',(#397),#13,.F.);
#448=ADVANCED_FACE('',(#398),#426,.F.);
#449=ADVANCED_FACE('',(#399),#14,.F.);
#450=ADVANCED_FACE('',(#400),#427,.T.);
#451=ADVANCED_FACE('',(#401,#402),#428,.T.);
#452=ADVANCED_FACE('',(#403),#429,.T.);
#453=ADVANCED_FACE('',(#404),#430,.F.);
#454=ADVANCED_FACE('',(#405),#431,.T.);
#455=ADVANCED_FACE('',(#406,#407),#432,.T.);
#456=ADVANCED_FACE('',(#408),#433,.F.);
#457=ADVANCED_FACE('',(#409,#410),#434,.T.);
#458=ADVANCED_FACE('',(#411),#435,.T.);
#459=ADVANCED_FACE('',(#412,#413),#15,.F.);
#460=ADVANCED_FACE('',(#414),#436,.T.);
#461=ADVANCED_FACE('',(#415,#416),#16,.F.);
#462=CLOSED_SHELL('',(#437,#438,#439,#440,#441,#442,#443,#444,#445,#446,
#447,#448,#449,#450,#451,#452,#453,#454,#455,#456,#457,#458,#459,#460,#461));
#463=STYLED_ITEM('',(#464),#471);
#464=PRESENTATION_STYLE_ASSIGNMENT((#465));
#465=SURFACE_STYLE_USAGE(.BOTH.,#466);
#466=SURFACE_SIDE_STYLE('',(#467));
#467=SURFACE_STYLE_FILL_AREA(#468);
#468=FILL_AREA_STYLE('',(#469));
#469=FILL_AREA_STYLE_COLOUR('',#470);
#470=COLOUR_RGB('',0.615686274509804,0.811764705882353,0.929411764705882);
#471=MANIFOLD_SOLID_BREP('Part 1',#462);
#472=SHAPE_DEFINITION_REPRESENTATION(#766,#473);
#473=SHAPE_REPRESENTATION('Part 1',(#474),#761);
#474=AXIS2_PLACEMENT_3D('',#632,#510,#511);
#475=AXIS2_PLACEMENT_3D('',#633,#512,#513);
#476=AXIS2_PLACEMENT_3D('',#642,#518,#519);
#477=AXIS2_PLACEMENT_3D('',#644,#520,#521);
#478=AXIS2_PLACEMENT_3D('',#658,#529,#530);
#479=AXIS2_PLACEMENT_3D('',#667,#535,#536);
#480=AXIS2_PLACEMENT_3D('',#686,#547,#548);
#481=AXIS2_PLACEMENT_3D('',#693,#553,#554);
#482=AXIS2_PLACEMENT_3D('',#695,#556,#557);
#483=AXIS2_PLACEMENT_3D('',#705,#563,#564);
#484=AXIS2_PLACEMENT_3D('',#709,#568,#569);
#485=AXIS2_PLACEMENT_3D('',#710,#570,#571);
#486=AXIS2_PLACEMENT_3D('',#712,#572,#573);
#487=AXIS2_PLACEMENT_3D('',#714,#575,#576);
#488=AXIS2_PLACEMENT_3D('',#719,#578,#579);
#489=AXIS2_PLACEMENT_3D('',#722,#581,#582);
#490=AXIS2_PLACEMENT_3D('',#725,#584,#585);
#491=AXIS2_PLACEMENT_3D('',#728,#587,#588);
#492=AXIS2_PLACEMENT_3D('',#732,#591,#592);
#493=AXIS2_PLACEMENT_3D('',#735,#594,#595);
#494=AXIS2_PLACEMENT_3D('',#736,#596,#597);
#495=AXIS2_PLACEMENT_3D('',#738,#599,#600);
#496=AXIS2_PLACEMENT_3D('',#739,#601,#602);
#497=AXIS2_PLACEMENT_3D('',#741,#604,#605);
#498=AXIS2_PLACEMENT_3D('',#742,#606,#607);
#499=AXIS2_PLACEMENT_3D('',#744,#609,#610);
#500=AXIS2_PLACEMENT_3D('',#745,#611,#612);
#501=AXIS2_PLACEMENT_3D('',#747,#613,#614);
#502=AXIS2_PLACEMENT_3D('',#749,#616,#617);
#503=AXIS2_PLACEMENT_3D('',#750,#618,#619);
#504=AXIS2_PLACEMENT_3D('',#752,#620,#621);
#505=AXIS2_PLACEMENT_3D('',#753,#622,#623);
#506=AXIS2_PLACEMENT_3D('',#755,#624,#625);
#507=AXIS2_PLACEMENT_3D('',#756,#626,#627);
#508=AXIS2_PLACEMENT_3D('',#757,#628,#629);
#509=AXIS2_PLACEMENT_3D('',#759,#630,#631);
#510=DIRECTION('',(0.,0.,1.));
#511=DIRECTION('',(1.,0.,0.));
#512=DIRECTION('',(0.,0.,1.));
#513=DIRECTION('',(1.,0.,0.));
#514=DIRECTION('',(-0.984917256307087,0.173026004486381,0.));
#515=DIRECTION('',(2.89120579329468E-16,1.,0.));
#516=DIRECTION('',(-0.984917256307087,-0.173026004486381,0.));
#517=DIRECTION('',(0.,1.,0.));
#518=DIRECTION('',(0.,0.,1.));
#519=DIRECTION('',(1.,0.,0.));
#520=DIRECTION('',(-1.,2.89120579329468E-16,0.));
#521=DIRECTION('',(-2.89120579329468E-16,-1.,0.));
#522=DIRECTION('',(2.66880534765662E-16,-1.,0.));
#523=DIRECTION('',(0.,0.,-1.));
#524=DIRECTION('',(2.89120579329468E-16,1.,0.));
#525=DIRECTION('',(0.,0.,-1.));
#526=DIRECTION('',(0.,0.,-1.));
#527=DIRECTION('',(2.89120579329468E-16,1.,0.));
#528=DIRECTION('',(0.,0.,-1.));
#529=DIRECTION('',(-2.81306509617861E-16,-1.,0.));
#530=DIRECTION('',(1.,-2.81306509617861E-16,0.));
#531=DIRECTION('',(1.,-2.81306509617861E-16,0.));
#532=DIRECTION('',(0.,0.,1.));
#533=DIRECTION('',(1.,-2.81306509617861E-16,0.));
#534=DIRECTION('',(0.,0.,1.));
#535=DIRECTION('',(1.,0.,0.));
#536=DIRECTION('',(0.,0.,-1.));
#537=DIRECTION('',(0.,0.,1.));
#538=DIRECTION('',(0.,1.,0.));
#539=DIRECTION('',(0.,0.,-1.));
#540=DIRECTION('',(0.,0.,-1.));
#541=DIRECTION('',(0.,1.,0.));
#542=DIRECTION('',(0.,0.,-1.));
#543=DIRECTION('',(0.,-1.,0.));
#544=DIRECTION('',(0.,0.,1.));
#545=DIRECTION('',(0.,1.,0.));
#546=DIRECTION('',(0.,1.,0.));
#547=DIRECTION('',(1.87537673078573E-16,1.,0.));
#548=DIRECTION('',(-1.,1.87537673078573E-16,0.));
#549=DIRECTION('',(0.,0.,1.));
#550=DIRECTION('',(-1.,1.10141173077892E-16,0.));
#551=DIRECTION('',(-1.,1.87537673078573E-16,0.));
#552=DIRECTION('',(-1.,1.87537673078573E-16,0.));
#553=DIRECTION('',(0.,0.,1.));
#554=DIRECTION('',(1.,0.,0.));
#555=DIRECTION('',(0.,-1.,0.));
#556=DIRECTION('',(-1.,0.,0.));
#557=DIRECTION('',(0.,0.,1.));
#558=DIRECTION('',(-2.77555756156289E-16,-1.,0.));
#559=DIRECTION('',(0.,0.,1.));
#560=DIRECTION('',(0.,1.,0.));
#561=DIRECTION('',(0.,0.,-1.));
#562=DIRECTION('',(-2.77555756156289E-16,-1.,0.));
#563=DIRECTION('',(1.87537673078573E-16,-1.,0.));
#564=DIRECTION('',(1.,1.87537673078573E-16,0.));
#565=DIRECTION('',(-1.,-1.10141173077892E-16,0.));
#566=DIRECTION('',(-1.,-1.87537673078573E-16,0.));
#567=DIRECTION('',(-1.,-1.10141173077892E-16,0.));
#568=DIRECTION('',(0.,0.,-1.));
#569=DIRECTION('',(-1.,0.,0.));
#570=DIRECTION('',(0.,0.,1.));
#571=DIRECTION('',(1.,0.,0.));
#572=DIRECTION('',(0.,0.,1.));
#573=DIRECTION('',(1.,0.,0.));
#574=DIRECTION('',(1.,2.75352932694731E-16,0.));
#575=DIRECTION('',(0.,0.,1.));
#576=DIRECTION('',(1.,0.,0.));
#577=DIRECTION('',(1.,-2.16840434497101E-16,0.));
#578=DIRECTION('',(0.,0.,-1.));
#579=DIRECTION('',(1.,0.,0.));
#580=DIRECTION('',(1.,2.16840434497101E-16,0.));
#581=DIRECTION('',(0.,0.,-1.));
#582=DIRECTION('',(-1.,0.,0.));
#583=DIRECTION('',(0.,0.,-1.));
#584=DIRECTION('',(0.,0.,1.));
#585=DIRECTION('',(1.,0.,0.));
#586=DIRECTION('',(0.,0.,-1.));
#587=DIRECTION('',(-2.16840434497101E-16,1.,0.));
#588=DIRECTION('',(-1.,-2.16840434497101E-16,0.));
#589=DIRECTION('',(0.,0.,-1.));
#590=DIRECTION('',(1.,2.16840434497101E-16,0.));
#591=DIRECTION('',(0.,0.,-1.));
#592=DIRECTION('',(-1.,0.,0.));
#593=DIRECTION('',(0.,0.,-1.));
#594=DIRECTION('',(0.,0.,-1.));
#595=DIRECTION('',(1.,0.,0.));
#596=DIRECTION('',(2.16840434497101E-16,1.,0.));
#597=DIRECTION('',(-1.,2.16840434497101E-16,0.));
#598=DIRECTION('',(1.,-2.16840434497101E-16,0.));
#599=DIRECTION('',(0.,0.,1.));
#600=DIRECTION('',(1.,0.,0.));
#601=DIRECTION('',(2.75352932694731E-16,-1.,0.));
#602=DIRECTION('',(1.,2.75352932694731E-16,0.));
#603=DIRECTION('',(1.,2.75352932694731E-16,0.));
#604=DIRECTION('',(0.,0.,1.));
#605=DIRECTION('',(1.,0.,0.));
#606=DIRECTION('',(0.173026004486381,-0.984917256307087,0.));
#607=DIRECTION('',(0.984917256307087,0.173026004486381,0.));
#608=DIRECTION('',(-0.984917256307087,-0.173026004486381,0.));
#609=DIRECTION('',(0.,0.,1.));
#610=DIRECTION('',(1.,0.,0.));
#611=DIRECTION('',(0.,0.,-1.));
#612=DIRECTION('',(-1.,0.,0.));
#613=DIRECTION('',(-0.173026004486381,-0.984917256307087,0.));
#614=DIRECTION('',(0.984917256307087,-0.173026004486381,0.));
#615=DIRECTION('',(-0.984917256307087,0.173026004486381,0.));
#616=DIRECTION('',(0.,0.,1.));
#617=DIRECTION('',(1.,0.,0.));
#618=DIRECTION('',(0.,0.,-1.));
#619=DIRECTION('',(-1.,0.,0.));
#620=DIRECTION('',(0.,0.,1.));
#621=DIRECTION('',(1.,0.,0.));
#622=DIRECTION('',(0.,0.,-1.));
#623=DIRECTION('',(-1.,0.,0.));
#624=DIRECTION('',(0.,0.,-1.));
#625=DIRECTION('',(-1.,0.,0.));
#626=DIRECTION('',(0.,0.,1.));
#627=DIRECTION('',(1.,0.,0.));
#628=DIRECTION('',(0.,0.,-1.));
#629=DIRECTION('',(-1.,0.,0.));
#630=DIRECTION('',(0.,0.,-1.));
#631=DIRECTION('',(-1.,0.,0.));
#632=CARTESIAN_POINT('',(0.,0.,0.));
#633=CARTESIAN_POINT('',(0.,0.,0.028));
#634=CARTESIAN_POINT('',(-0.0315,-0.01525,0.028));
#635=CARTESIAN_POINT('',(-0.013,-0.0185,0.028));
#636=CARTESIAN_POINT('',(-0.05,-0.012,0.028));
#637=CARTESIAN_POINT('',(-0.013,-0.028,0.028));
#638=CARTESIAN_POINT('',(-0.013,0.0185,0.028));
#639=CARTESIAN_POINT('',(-0.0315,0.01525,0.028));
#640=CARTESIAN_POINT('',(-0.05,0.012,0.028));
#641=CARTESIAN_POINT('',(-0.05,-0.028,0.028));
#642=CARTESIAN_POINT('',(-0.033,3.26042825463539E-19,0.028));
#643=CARTESIAN_POINT('',(-0.028,3.26042825463539E-19,0.028));
#644=CARTESIAN_POINT('',(-0.013,-0.028,0.028));
#645=CARTESIAN_POINT('',(-0.013,0.02175,0.014));
#646=CARTESIAN_POINT('',(-0.013,0.031,0.014));
#647=CARTESIAN_POINT('',(-0.013,-0.031,0.014));
#648=CARTESIAN_POINT('',(-0.013,0.031,0.028));
#649=CARTESIAN_POINT('',(-0.013,0.031,0.038));
#650=CARTESIAN_POINT('',(-0.013,-0.028,0.038));
#651=CARTESIAN_POINT('',(-0.013,0.0185,0.038));
#652=CARTESIAN_POINT('',(-0.013,0.0185,0.038));
#653=CARTESIAN_POINT('',(-0.013,-0.0185,0.038));
#654=CARTESIAN_POINT('',(-0.013,-0.0185,0.038));
#655=CARTESIAN_POINT('',(-0.013,-0.028,0.038));
#656=CARTESIAN_POINT('',(-0.013,-0.031,0.038));
#657=CARTESIAN_POINT('',(-0.013,-0.031,0.028));
#658=CARTESIAN_POINT('',(-0.0315,-0.025,-0.006));
#659=CARTESIAN_POINT('',(-0.0315,-0.025,0.));
#660=CARTESIAN_POINT('',(-0.05,-0.025,0.));
#661=CARTESIAN_POINT('',(0.05,-0.025,0.));
#662=CARTESIAN_POINT('',(0.05,-0.025,-0.006));
#663=CARTESIAN_POINT('',(0.05,-0.025,-0.006));
#664=CARTESIAN_POINT('',(-0.0315,-0.025,-0.006));
#665=CARTESIAN_POINT('',(-0.05,-0.025,-0.006));
#666=CARTESIAN_POINT('',(-0.05,-0.025,-0.006));
#667=CARTESIAN_POINT('',(-0.05,-0.028,-0.006));
#668=CARTESIAN_POINT('',(-0.05,-0.031,-0.006));
#669=CARTESIAN_POINT('',(-0.05,-0.031,-0.006));
#670=CARTESIAN_POINT('',(-0.05,-0.031,0.038));
#671=CARTESIAN_POINT('',(-0.05,-0.028,0.038));
#672=CARTESIAN_POINT('',(-0.05,-0.012,0.038));
#673=CARTESIAN_POINT('',(-0.05,-0.012,0.038));
#674=CARTESIAN_POINT('',(-0.05,0.012,0.038));
#675=CARTESIAN_POINT('',(-0.05,0.012,0.038));
#676=CARTESIAN_POINT('',(-0.05,-0.028,0.038));
#677=CARTESIAN_POINT('',(-0.05,0.031,0.038));
#678=CARTESIAN_POINT('',(-0.05,0.031,0.028));
#679=CARTESIAN_POINT('',(-0.05,0.031,-0.006));
#680=CARTESIAN_POINT('',(-0.05,0.028,-0.006));
#681=CARTESIAN_POINT('',(-0.05,0.025,-0.006));
#682=CARTESIAN_POINT('',(-0.05,0.025,-0.006));
#683=CARTESIAN_POINT('',(-0.05,0.025,0.));
#684=CARTESIAN_POINT('',(-0.05,-0.028,0.));
#685=CARTESIAN_POINT('',(-0.05,-0.028,-0.006));
#686=CARTESIAN_POINT('',(-0.0315,-0.031,-0.006));
#687=CARTESIAN_POINT('',(0.05,-0.031,-0.006));
#688=CARTESIAN_POINT('',(0.05,-0.031,-0.006));
#689=CARTESIAN_POINT('',(0.05,-0.031,0.014));
#690=CARTESIAN_POINT('',(0.0185,-0.031,0.014));
#691=CARTESIAN_POINT('',(-0.0315,-0.031,0.038));
#692=CARTESIAN_POINT('',(-0.0315,-0.031,-0.006));
#693=CARTESIAN_POINT('',(0.,0.,-0.006));
#694=CARTESIAN_POINT('',(0.05,-0.028,-0.006));
#695=CARTESIAN_POINT('',(0.05,-0.028,-0.006));
#696=CARTESIAN_POINT('',(0.05,-0.0125,0.));
#697=CARTESIAN_POINT('',(0.05,0.025,0.));
#698=CARTESIAN_POINT('',(0.05,0.025,-0.006));
#699=CARTESIAN_POINT('',(0.05,0.025,-0.006));
#700=CARTESIAN_POINT('',(0.05,0.028,-0.006));
#701=CARTESIAN_POINT('',(0.05,0.031,-0.006));
#702=CARTESIAN_POINT('',(0.05,0.031,0.014));
#703=CARTESIAN_POINT('',(0.05,0.031,0.014));
#704=CARTESIAN_POINT('',(0.05,-0.0125,0.014));
#705=CARTESIAN_POINT('',(-0.0315,0.031,0.028));
#706=CARTESIAN_POINT('',(0.0185,0.031,-0.006));
#707=CARTESIAN_POINT('',(-0.0315,0.031,0.038));
#708=CARTESIAN_POINT('',(0.0185,0.031,0.014));
#709=CARTESIAN_POINT('',(-0.033,3.26042825463539E-19,0.028));
#710=CARTESIAN_POINT('',(-0.033,3.26042825463539E-19,0.));
#711=CARTESIAN_POINT('',(-0.028,3.26042825463539E-19,0.));
#712=CARTESIAN_POINT('',(0.,0.,0.));
#713=CARTESIAN_POINT('',(0.0185,0.025,0.));
#714=CARTESIAN_POINT('',(0.007,-1.57453508444031E-19,0.));
#715=CARTESIAN_POINT('',(0.007,0.004,0.));
#716=CARTESIAN_POINT('',(0.007,-0.004,0.));
#717=CARTESIAN_POINT('',(0.017,-0.004,0.));
#718=CARTESIAN_POINT('',(0.027,-0.004,0.));
#719=CARTESIAN_POINT('',(0.027,1.20334465376337E-17,0.));
#720=CARTESIAN_POINT('',(0.027,0.004,0.));
#721=CARTESIAN_POINT('',(0.017,0.004,0.));
#722=CARTESIAN_POINT('',(0.007,-1.57453508444031E-19,0.014));
#723=CARTESIAN_POINT('',(0.007,0.004,0.014));
#724=CARTESIAN_POINT('',(0.007,0.004,0.014));
#725=CARTESIAN_POINT('',(0.007,-1.57453508444031E-19,0.014));
#726=CARTESIAN_POINT('',(0.007,-0.004,0.014));
#727=CARTESIAN_POINT('',(0.007,-0.004,0.014));
#728=CARTESIAN_POINT('',(0.017,0.004,0.014));
#729=CARTESIAN_POINT('',(0.027,0.004,0.014));
#730=CARTESIAN_POINT('',(0.027,0.004,0.014));
#731=CARTESIAN_POINT('',(0.017,0.004,0.014));
#732=CARTESIAN_POINT('',(0.027,1.20334465376337E-17,0.014));
#733=CARTESIAN_POINT('',(0.027,-0.004,0.014));
#734=CARTESIAN_POINT('',(0.027,-0.004,0.014));
#735=CARTESIAN_POINT('',(0.027,1.20334465376337E-17,0.014));
#736=CARTESIAN_POINT('',(0.017,-0.004,0.014));
#737=CARTESIAN_POINT('',(0.017,-0.004,0.014));
#738=CARTESIAN_POINT('',(0.,0.,0.014));
#739=CARTESIAN_POINT('',(0.0185,0.025,-0.006));
#740=CARTESIAN_POINT('',(0.0185,0.025,-0.006));
#741=CARTESIAN_POINT('',(0.,0.,-0.006));
#742=CARTESIAN_POINT('',(-0.0315,0.01525,0.038));
#743=CARTESIAN_POINT('',(-0.0315,0.01525,0.038));
#744=CARTESIAN_POINT('',(0.,0.,0.038));
#745=CARTESIAN_POINT('',(-0.038,0.022,0.038));
#746=CARTESIAN_POINT('',(-0.041,0.022,0.038));
#747=CARTESIAN_POINT('',(-0.0315,-0.01525,0.038));
#748=CARTESIAN_POINT('',(-0.0315,-0.01525,0.038));
#749=CARTESIAN_POINT('',(0.,0.,0.038));
#750=CARTESIAN_POINT('',(-0.038,-0.022,0.038));
#751=CARTESIAN_POINT('',(-0.041,-0.022,0.038));
#752=CARTESIAN_POINT('',(-0.035,-0.022,0.018));
#753=CARTESIAN_POINT('',(-0.038,-0.022,0.018));
#754=CARTESIAN_POINT('',(-0.041,-0.022,0.018));
#755=CARTESIAN_POINT('',(-0.038,-0.022,0.038));
#756=CARTESIAN_POINT('',(-0.035,0.022,0.018));
#757=CARTESIAN_POINT('',(-0.038,0.022,0.018));
#758=CARTESIAN_POINT('',(-0.041,0.022,0.018));
#759=CARTESIAN_POINT('',(-0.038,0.022,0.038));
#760=MECHANICAL_DESIGN_GEOMETRIC_PRESENTATION_REPRESENTATION('',(#463),
#761);
#761=(
GEOMETRIC_REPRESENTATION_CONTEXT(3)
GLOBAL_UNCERTAINTY_ASSIGNED_CONTEXT((#762))
GLOBAL_UNIT_ASSIGNED_CONTEXT((#765,#764,#763))
REPRESENTATION_CONTEXT('Part 1','TOP_LEVEL_ASSEMBLY_PART')
);
#762=UNCERTAINTY_MEASURE_WITH_UNIT(LENGTH_MEASURE(1.E-8),#765,
'DISTANCE_ACCURACY_VALUE','Maximum Tolerance applied to model');
#763=(
NAMED_UNIT(*)
SI_UNIT($,.STERADIAN.)
SOLID_ANGLE_UNIT()
);
#764=(
NAMED_UNIT(*)
PLANE_ANGLE_UNIT()
SI_UNIT($,.RADIAN.)
);
#765=(
LENGTH_UNIT()
NAMED_UNIT(*)
SI_UNIT($,.METRE.)
);
#766=PRODUCT_DEFINITION_SHAPE('','',#767);
#767=PRODUCT_DEFINITION('','',#769,#768);
#768=PRODUCT_DEFINITION_CONTEXT('',#775,'design');
#769=PRODUCT_DEFINITION_FORMATION_WITH_SPECIFIED_SOURCE('','',#771,
 .NOT_KNOWN.);
#770=PRODUCT_RELATED_PRODUCT_CATEGORY('','',(#771));
#771=PRODUCT('Part 1','Part 1','Part 1',(#773));
#772=PRODUCT_CATEGORY('','');
#773=PRODUCT_CONTEXT('',#775,'mechanical');
#774=APPLICATION_PROTOCOL_DEFINITION('international standard',
'ap242_managed_model_based_3d_engineering',2020,#775);
#775=APPLICATION_CONTEXT('managed model based 3d engineering');
ENDSEC;
END-ISO-10303-21;
