ISO-10303-21;
HEADER;
/* Generated by software containing ST-Developer
 * from STEP Tools, Inc. (www.steptools.com) 
 */
/* OPTION: using custom renumber hook */

FILE_DESCRIPTION(
/* description */ ('STEP AP242 Edition 2',
'CAx-IF Rec.Pracs.---Representation and Presentation of Product Manufa
cturing Information (PMI)---4.0---2014-10-13',
'CAx-IF Rec.Pracs.---3D Tessellated Geometry---0.4---2014-09-14','2;1',
'CAx-IF Rec.Pracs.---User Defined Attributes---1.5---2016-08-15'),
/* implementation_level */ '2;1');

FILE_NAME(
/* name */ 'Part Studio 1',
/* time_stamp */ '2026-08-17T12:03:31Z',
/* author */ (''),
/* organization */ (''),
/* preprocessor_version */ 'ST-DEVELOPER v20',
/* originating_system */ 'ONSHAPE BY PTC INC, 1.219',
/* authorisation */ '  ');

FILE_SCHEMA (('AP242_MANAGED_MODEL_BASED_3D_ENGINEERING_MIM_LF { 1 0 10303 442 3 1 4 }'));
ENDSEC;

DATA;
#10=SHAPE_REPRESENTATION_RELATIONSHIP('','',#581,#11);
#11=ADVANCED_BREP_SHAPE_REPRESENTATION('',(#579),#1007);
#12=PLANE('',#589);
#13=PLANE('',#596);
#14=PLANE('',#598);
#15=PLANE('',#615);
#16=PLANE('',#617);
#17=PLANE('',#625);
#18=PLANE('',#634);
#19=PLANE('',#637);
#20=PLANE('',#650);
#21=PLANE('',#651);
#22=CIRCLE('',#584,0.01);
#23=CIRCLE('',#585,0.01);
#24=CIRCLE('',#587,0.01);
#25=CIRCLE('',#588,0.01);
#26=CIRCLE('',#590,0.019);
#27=CIRCLE('',#591,0.029);
#28=CIRCLE('',#592,0.019);
#29=CIRCLE('',#593,0.017);
#30=CIRCLE('',#594,0.027);
#31=CIRCLE('',#595,0.017);
#32=CIRCLE('',#597,0.01);
#33=CIRCLE('',#599,0.0075);
#34=CIRCLE('',#601,0.015);
#35=CIRCLE('',#602,0.015);
#36=CIRCLE('',#604,0.004);
#37=CIRCLE('',#605,0.004);
#38=CIRCLE('',#607,0.025);
#39=CIRCLE('',#608,0.025);
#40=CIRCLE('',#610,0.004);
#41=CIRCLE('',#611,0.004);
#42=CIRCLE('',#613,0.015);
#43=CIRCLE('',#614,0.015);
#44=CIRCLE('',#616,0.0075);
#45=CIRCLE('',#618,0.01);
#46=CIRCLE('',#620,0.017);
#47=CIRCLE('',#622,0.027);
#48=CIRCLE('',#624,0.017);
#49=CIRCLE('',#626,0.01);
#50=CIRCLE('',#627,0.0075);
#51=CIRCLE('',#629,0.019);
#52=CIRCLE('',#631,0.029);
#53=CIRCLE('',#633,0.019);
#54=CIRCLE('',#635,0.01);
#55=CIRCLE('',#636,0.0075);
#56=CIRCLE('',#642,0.019);
#57=CIRCLE('',#643,0.019);
#58=CIRCLE('',#645,0.029);
#59=CIRCLE('',#646,0.029);
#60=CIRCLE('',#648,0.019);
#61=CIRCLE('',#649,0.019);
#62=ORIENTED_EDGE('',*,*,#226,.F.);
#63=ORIENTED_EDGE('',*,*,#227,.F.);
#64=ORIENTED_EDGE('',*,*,#228,.F.);
#65=ORIENTED_EDGE('',*,*,#229,.F.);
#66=ORIENTED_EDGE('',*,*,#230,.F.);
#67=ORIENTED_EDGE('',*,*,#231,.F.);
#68=ORIENTED_EDGE('',*,*,#232,.F.);
#69=ORIENTED_EDGE('',*,*,#233,.F.);
#70=ORIENTED_EDGE('',*,*,#234,.F.);
#71=ORIENTED_EDGE('',*,*,#235,.T.);
#72=ORIENTED_EDGE('',*,*,#236,.F.);
#73=ORIENTED_EDGE('',*,*,#237,.F.);
#74=ORIENTED_EDGE('',*,*,#238,.F.);
#75=ORIENTED_EDGE('',*,*,#239,.F.);
#76=ORIENTED_EDGE('',*,*,#240,.T.);
#77=ORIENTED_EDGE('',*,*,#241,.F.);
#78=ORIENTED_EDGE('',*,*,#242,.F.);
#79=ORIENTED_EDGE('',*,*,#243,.F.);
#80=ORIENTED_EDGE('',*,*,#244,.F.);
#81=ORIENTED_EDGE('',*,*,#245,.T.);
#82=ORIENTED_EDGE('',*,*,#246,.F.);
#83=ORIENTED_EDGE('',*,*,#247,.F.);
#84=ORIENTED_EDGE('',*,*,#248,.T.);
#85=ORIENTED_EDGE('',*,*,#241,.T.);
#86=ORIENTED_EDGE('',*,*,#249,.T.);
#87=ORIENTED_EDGE('',*,*,#250,.F.);
#88=ORIENTED_EDGE('',*,*,#233,.T.);
#89=ORIENTED_EDGE('',*,*,#251,.T.);
#90=ORIENTED_EDGE('',*,*,#252,.F.);
#91=ORIENTED_EDGE('',*,*,#253,.F.);
#92=ORIENTED_EDGE('',*,*,#254,.F.);
#93=ORIENTED_EDGE('',*,*,#255,.T.);
#94=ORIENTED_EDGE('',*,*,#252,.T.);
#95=ORIENTED_EDGE('',*,*,#256,.T.);
#96=ORIENTED_EDGE('',*,*,#257,.F.);
#97=ORIENTED_EDGE('',*,*,#258,.F.);
#98=ORIENTED_EDGE('',*,*,#254,.T.);
#99=ORIENTED_EDGE('',*,*,#259,.F.);
#100=ORIENTED_EDGE('',*,*,#260,.F.);
#101=ORIENTED_EDGE('',*,*,#261,.T.);
#102=ORIENTED_EDGE('',*,*,#257,.T.);
#103=ORIENTED_EDGE('',*,*,#262,.T.);
#104=ORIENTED_EDGE('',*,*,#263,.F.);
#105=ORIENTED_EDGE('',*,*,#264,.F.);
#106=ORIENTED_EDGE('',*,*,#260,.T.);
#107=ORIENTED_EDGE('',*,*,#265,.F.);
#108=ORIENTED_EDGE('',*,*,#266,.F.);
#109=ORIENTED_EDGE('',*,*,#267,.T.);
#110=ORIENTED_EDGE('',*,*,#263,.T.);
#111=ORIENTED_EDGE('',*,*,#268,.F.);
#112=ORIENTED_EDGE('',*,*,#229,.T.);
#113=ORIENTED_EDGE('',*,*,#269,.T.);
#114=ORIENTED_EDGE('',*,*,#266,.T.);
#115=ORIENTED_EDGE('',*,*,#270,.F.);
#116=ORIENTED_EDGE('',*,*,#271,.F.);
#117=ORIENTED_EDGE('',*,*,#245,.F.);
#118=ORIENTED_EDGE('',*,*,#272,.F.);
#119=ORIENTED_EDGE('',*,*,#273,.T.);
#120=ORIENTED_EDGE('',*,*,#244,.T.);
#121=ORIENTED_EDGE('',*,*,#274,.F.);
#122=ORIENTED_EDGE('',*,*,#275,.F.);
#123=ORIENTED_EDGE('',*,*,#272,.T.);
#124=ORIENTED_EDGE('',*,*,#243,.T.);
#125=ORIENTED_EDGE('',*,*,#276,.F.);
#126=ORIENTED_EDGE('',*,*,#277,.F.);
#127=ORIENTED_EDGE('',*,*,#274,.T.);
#128=ORIENTED_EDGE('',*,*,#242,.T.);
#129=ORIENTED_EDGE('',*,*,#248,.F.);
#130=ORIENTED_EDGE('',*,*,#278,.F.);
#131=ORIENTED_EDGE('',*,*,#276,.T.);
#132=ORIENTED_EDGE('',*,*,#279,.F.);
#133=ORIENTED_EDGE('',*,*,#231,.T.);
#134=ORIENTED_EDGE('',*,*,#280,.T.);
#135=ORIENTED_EDGE('',*,*,#281,.T.);
#136=ORIENTED_EDGE('',*,*,#282,.F.);
#137=ORIENTED_EDGE('',*,*,#283,.T.);
#138=ORIENTED_EDGE('',*,*,#239,.T.);
#139=ORIENTED_EDGE('',*,*,#284,.F.);
#140=ORIENTED_EDGE('',*,*,#285,.F.);
#141=ORIENTED_EDGE('',*,*,#238,.T.);
#142=ORIENTED_EDGE('',*,*,#286,.F.);
#143=ORIENTED_EDGE('',*,*,#287,.F.);
#144=ORIENTED_EDGE('',*,*,#284,.T.);
#145=ORIENTED_EDGE('',*,*,#237,.T.);
#146=ORIENTED_EDGE('',*,*,#288,.F.);
#147=ORIENTED_EDGE('',*,*,#289,.F.);
#148=ORIENTED_EDGE('',*,*,#286,.T.);
#149=ORIENTED_EDGE('',*,*,#236,.T.);
#150=ORIENTED_EDGE('',*,*,#290,.F.);
#151=ORIENTED_EDGE('',*,*,#291,.F.);
#152=ORIENTED_EDGE('',*,*,#288,.T.);
#153=ORIENTED_EDGE('',*,*,#292,.F.);
#154=ORIENTED_EDGE('',*,*,#227,.T.);
#155=ORIENTED_EDGE('',*,*,#293,.T.);
#156=ORIENTED_EDGE('',*,*,#290,.T.);
#157=ORIENTED_EDGE('',*,*,#235,.F.);
#158=ORIENTED_EDGE('',*,*,#294,.T.);
#159=ORIENTED_EDGE('',*,*,#295,.T.);
#160=ORIENTED_EDGE('',*,*,#296,.F.);
#161=ORIENTED_EDGE('',*,*,#297,.F.);
#162=ORIENTED_EDGE('',*,*,#293,.F.);
#163=ORIENTED_EDGE('',*,*,#226,.T.);
#164=ORIENTED_EDGE('',*,*,#268,.T.);
#165=ORIENTED_EDGE('',*,*,#265,.T.);
#166=ORIENTED_EDGE('',*,*,#262,.F.);
#167=ORIENTED_EDGE('',*,*,#259,.T.);
#168=ORIENTED_EDGE('',*,*,#256,.F.);
#169=ORIENTED_EDGE('',*,*,#253,.T.);
#170=ORIENTED_EDGE('',*,*,#251,.F.);
#171=ORIENTED_EDGE('',*,*,#232,.T.);
#172=ORIENTED_EDGE('',*,*,#279,.T.);
#173=ORIENTED_EDGE('',*,*,#287,.T.);
#174=ORIENTED_EDGE('',*,*,#289,.T.);
#175=ORIENTED_EDGE('',*,*,#291,.T.);
#176=ORIENTED_EDGE('',*,*,#246,.T.);
#177=ORIENTED_EDGE('',*,*,#240,.F.);
#178=ORIENTED_EDGE('',*,*,#283,.F.);
#179=ORIENTED_EDGE('',*,*,#298,.T.);
#180=ORIENTED_EDGE('',*,*,#285,.T.);
#181=ORIENTED_EDGE('',*,*,#249,.F.);
#182=ORIENTED_EDGE('',*,*,#270,.T.);
#183=ORIENTED_EDGE('',*,*,#297,.T.);
#184=ORIENTED_EDGE('',*,*,#299,.F.);
#185=ORIENTED_EDGE('',*,*,#281,.F.);
#186=ORIENTED_EDGE('',*,*,#300,.T.);
#187=ORIENTED_EDGE('',*,*,#301,.T.);
#188=ORIENTED_EDGE('',*,*,#302,.F.);
#189=ORIENTED_EDGE('',*,*,#301,.F.);
#190=ORIENTED_EDGE('',*,*,#303,.T.);
#191=ORIENTED_EDGE('',*,*,#304,.T.);
#192=ORIENTED_EDGE('',*,*,#305,.F.);
#193=ORIENTED_EDGE('',*,*,#304,.F.);
#194=ORIENTED_EDGE('',*,*,#306,.T.);
#195=ORIENTED_EDGE('',*,*,#296,.T.);
#196=ORIENTED_EDGE('',*,*,#269,.F.);
#197=ORIENTED_EDGE('',*,*,#228,.T.);
#198=ORIENTED_EDGE('',*,*,#292,.T.);
#199=ORIENTED_EDGE('',*,*,#306,.F.);
#200=ORIENTED_EDGE('',*,*,#303,.F.);
#201=ORIENTED_EDGE('',*,*,#300,.F.);
#202=ORIENTED_EDGE('',*,*,#280,.F.);
#203=ORIENTED_EDGE('',*,*,#230,.T.);
#204=ORIENTED_EDGE('',*,*,#250,.T.);
#205=ORIENTED_EDGE('',*,*,#255,.F.);
#206=ORIENTED_EDGE('',*,*,#258,.T.);
#207=ORIENTED_EDGE('',*,*,#261,.F.);
#208=ORIENTED_EDGE('',*,*,#264,.T.);
#209=ORIENTED_EDGE('',*,*,#267,.F.);
#210=ORIENTED_EDGE('',*,*,#295,.F.);
#211=ORIENTED_EDGE('',*,*,#307,.T.);
#212=ORIENTED_EDGE('',*,*,#273,.F.);
#213=ORIENTED_EDGE('',*,*,#275,.T.);
#214=ORIENTED_EDGE('',*,*,#277,.T.);
#215=ORIENTED_EDGE('',*,*,#278,.T.);
#216=ORIENTED_EDGE('',*,*,#247,.T.);
#217=ORIENTED_EDGE('',*,*,#298,.F.);
#218=ORIENTED_EDGE('',*,*,#282,.T.);
#219=ORIENTED_EDGE('',*,*,#299,.T.);
#220=ORIENTED_EDGE('',*,*,#302,.T.);
#221=ORIENTED_EDGE('',*,*,#305,.T.);
#222=ORIENTED_EDGE('',*,*,#271,.T.);
#223=ORIENTED_EDGE('',*,*,#307,.F.);
#224=ORIENTED_EDGE('',*,*,#294,.F.);
#225=ORIENTED_EDGE('',*,*,#234,.T.);
#226=EDGE_CURVE('',#308,#309,#364,.T.);
#227=EDGE_CURVE('',#310,#308,#22,.T.);
#228=EDGE_CURVE('',#311,#310,#365,.F.);
#229=EDGE_CURVE('',#309,#311,#23,.T.);
#230=EDGE_CURVE('',#312,#313,#366,.F.);
#231=EDGE_CURVE('',#314,#312,#24,.F.);
#232=EDGE_CURVE('',#315,#314,#367,.T.);
#233=EDGE_CURVE('',#313,#315,#25,.F.);
#234=EDGE_CURVE('',#316,#317,#368,.T.);
#235=EDGE_CURVE('',#316,#318,#369,.T.);
#236=EDGE_CURVE('',#319,#318,#26,.T.);
#237=EDGE_CURVE('',#320,#319,#27,.T.);
#238=EDGE_CURVE('',#321,#320,#28,.T.);
#239=EDGE_CURVE('',#322,#321,#370,.T.);
#240=EDGE_CURVE('',#322,#323,#371,.T.);
#241=EDGE_CURVE('',#324,#323,#372,.T.);
#242=EDGE_CURVE('',#325,#324,#29,.T.);
#243=EDGE_CURVE('',#326,#325,#30,.T.);
#244=EDGE_CURVE('',#327,#326,#31,.T.);
#245=EDGE_CURVE('',#327,#317,#373,.T.);
#246=EDGE_CURVE('',#328,#323,#32,.T.);
#247=EDGE_CURVE('',#329,#328,#374,.T.);
#248=EDGE_CURVE('',#329,#324,#375,.T.);
#249=EDGE_CURVE('',#330,#330,#33,.T.);
#250=EDGE_CURVE('',#313,#331,#376,.T.);
#251=EDGE_CURVE('',#315,#332,#377,.T.);
#252=EDGE_CURVE('',#331,#332,#378,.T.);
#253=EDGE_CURVE('',#333,#332,#34,.T.);
#254=EDGE_CURVE('',#334,#333,#379,.T.);
#255=EDGE_CURVE('',#334,#331,#35,.T.);
#256=EDGE_CURVE('',#333,#335,#36,.T.);
#257=EDGE_CURVE('',#336,#335,#380,.T.);
#258=EDGE_CURVE('',#334,#336,#37,.T.);
#259=EDGE_CURVE('',#337,#335,#38,.T.);
#260=EDGE_CURVE('',#338,#337,#381,.T.);
#261=EDGE_CURVE('',#338,#336,#39,.T.);
#262=EDGE_CURVE('',#337,#339,#40,.T.);
#263=EDGE_CURVE('',#340,#339,#382,.T.);
#264=EDGE_CURVE('',#338,#340,#41,.T.);
#265=EDGE_CURVE('',#341,#339,#42,.T.);
#266=EDGE_CURVE('',#342,#341,#383,.T.);
#267=EDGE_CURVE('',#342,#340,#43,.T.);
#268=EDGE_CURVE('',#309,#341,#384,.T.);
#269=EDGE_CURVE('',#311,#342,#385,.T.);
#270=EDGE_CURVE('',#343,#343,#44,.T.);
#271=EDGE_CURVE('',#317,#344,#45,.T.);
#272=EDGE_CURVE('',#345,#327,#386,.T.);
#273=EDGE_CURVE('',#345,#344,#387,.T.);
#274=EDGE_CURVE('',#346,#326,#388,.T.);
#275=EDGE_CURVE('',#345,#346,#46,.T.);
#276=EDGE_CURVE('',#347,#325,#389,.T.);
#277=EDGE_CURVE('',#346,#347,#47,.T.);
#278=EDGE_CURVE('',#347,#329,#48,.T.);
#279=EDGE_CURVE('',#314,#348,#390,.T.);
#280=EDGE_CURVE('',#312,#349,#391,.T.);
#281=EDGE_CURVE('',#349,#350,#392,.T.);
#282=EDGE_CURVE('',#351,#350,#393,.T.);
#283=EDGE_CURVE('',#351,#322,#49,.T.);
#284=EDGE_CURVE('',#348,#321,#394,.T.);
#285=EDGE_CURVE('',#352,#352,#50,.T.);
#286=EDGE_CURVE('',#353,#320,#395,.T.);
#287=EDGE_CURVE('',#348,#353,#51,.T.);
#288=EDGE_CURVE('',#354,#319,#396,.T.);
#289=EDGE_CURVE('',#353,#354,#52,.T.);
#290=EDGE_CURVE('',#355,#318,#397,.T.);
#291=EDGE_CURVE('',#354,#355,#53,.T.);
#292=EDGE_CURVE('',#310,#356,#398,.T.);
#293=EDGE_CURVE('',#308,#355,#399,.T.);
#294=EDGE_CURVE('',#316,#357,#54,.T.);
#295=EDGE_CURVE('',#357,#358,#400,.T.);
#296=EDGE_CURVE('',#356,#358,#401,.T.);
#297=EDGE_CURVE('',#359,#359,#55,.T.);
#298=EDGE_CURVE('',#351,#328,#402,.T.);
#299=EDGE_CURVE('',#350,#360,#56,.T.);
#300=EDGE_CURVE('',#349,#361,#57,.T.);
#301=EDGE_CURVE('',#361,#360,#403,.T.);
#302=EDGE_CURVE('',#360,#362,#58,.T.);
#303=EDGE_CURVE('',#361,#363,#59,.T.);
#304=EDGE_CURVE('',#363,#362,#404,.T.);
#305=EDGE_CURVE('',#362,#358,#60,.T.);
#306=EDGE_CURVE('',#363,#356,#61,.T.);
#307=EDGE_CURVE('',#357,#344,#405,.T.);
#308=VERTEX_POINT('',#840);
#309=VERTEX_POINT('',#841);
#310=VERTEX_POINT('',#843);
#311=VERTEX_POINT('',#845);
#312=VERTEX_POINT('',#849);
#313=VERTEX_POINT('',#850);
#314=VERTEX_POINT('',#852);
#315=VERTEX_POINT('',#854);
#316=VERTEX_POINT('',#858);
#317=VERTEX_POINT('',#859);
#318=VERTEX_POINT('',#861);
#319=VERTEX_POINT('',#863);
#320=VERTEX_POINT('',#865);
#321=VERTEX_POINT('',#867);
#322=VERTEX_POINT('',#869);
#323=VERTEX_POINT('',#871);
#324=VERTEX_POINT('',#873);
#325=VERTEX_POINT('',#875);
#326=VERTEX_POINT('',#877);
#327=VERTEX_POINT('',#879);
#328=VERTEX_POINT('',#883);
#329=VERTEX_POINT('',#885);
#330=VERTEX_POINT('',#889);
#331=VERTEX_POINT('',#891);
#332=VERTEX_POINT('',#893);
#333=VERTEX_POINT('',#897);
#334=VERTEX_POINT('',#899);
#335=VERTEX_POINT('',#903);
#336=VERTEX_POINT('',#905);
#337=VERTEX_POINT('',#909);
#338=VERTEX_POINT('',#911);
#339=VERTEX_POINT('',#915);
#340=VERTEX_POINT('',#917);
#341=VERTEX_POINT('',#921);
#342=VERTEX_POINT('',#923);
#343=VERTEX_POINT('',#929);
#344=VERTEX_POINT('',#932);
#345=VERTEX_POINT('',#934);
#346=VERTEX_POINT('',#938);
#347=VERTEX_POINT('',#942);
#348=VERTEX_POINT('',#948);
#349=VERTEX_POINT('',#950);
#350=VERTEX_POINT('',#952);
#351=VERTEX_POINT('',#954);
#352=VERTEX_POINT('',#958);
#353=VERTEX_POINT('',#961);
#354=VERTEX_POINT('',#965);
#355=VERTEX_POINT('',#969);
#356=VERTEX_POINT('',#973);
#357=VERTEX_POINT('',#976);
#358=VERTEX_POINT('',#978);
#359=VERTEX_POINT('',#981);
#360=VERTEX_POINT('',#989);
#361=VERTEX_POINT('',#991);
#362=VERTEX_POINT('',#995);
#363=VERTEX_POINT('',#997);
#364=LINE('',#839,#406);
#365=LINE('',#844,#407);
#366=LINE('',#848,#408);
#367=LINE('',#853,#409);
#368=LINE('',#857,#410);
#369=LINE('',#860,#411);
#370=LINE('',#868,#412);
#371=LINE('',#870,#413);
#372=LINE('',#872,#414);
#373=LINE('',#880,#415);
#374=LINE('',#884,#416);
#375=LINE('',#886,#417);
#376=LINE('',#890,#418);
#377=LINE('',#892,#419);
#378=LINE('',#894,#420);
#379=LINE('',#898,#421);
#380=LINE('',#904,#422);
#381=LINE('',#910,#423);
#382=LINE('',#916,#424);
#383=LINE('',#922,#425);
#384=LINE('',#926,#426);
#385=LINE('',#927,#427);
#386=LINE('',#933,#428);
#387=LINE('',#935,#429);
#388=LINE('',#937,#430);
#389=LINE('',#941,#431);
#390=LINE('',#947,#432);
#391=LINE('',#949,#433);
#392=LINE('',#951,#434);
#393=LINE('',#953,#435);
#394=LINE('',#956,#436);
#395=LINE('',#960,#437);
#396=LINE('',#964,#438);
#397=LINE('',#968,#439);
#398=LINE('',#972,#440);
#399=LINE('',#974,#441);
#400=LINE('',#977,#442);
#401=LINE('',#979,#443);
#402=LINE('',#984,#444);
#403=LINE('',#992,#445);
#404=LINE('',#998,#446);
#405=LINE('',#1004,#447);
#406=VECTOR('',#657,1.);
#407=VECTOR('',#660,1.);
#408=VECTOR('',#665,1.);
#409=VECTOR('',#668,1.);
#410=VECTOR('',#673,1.);
#411=VECTOR('',#674,1.);
#412=VECTOR('',#681,1.);
#413=VECTOR('',#682,1.);
#414=VECTOR('',#683,1.);
#415=VECTOR('',#690,1.);
#416=VECTOR('',#695,1.);
#417=VECTOR('',#696,1.);
#418=VECTOR('',#701,1.);
#419=VECTOR('',#702,1.);
#420=VECTOR('',#703,1.);
#421=VECTOR('',#708,1.);
#422=VECTOR('',#715,1.);
#423=VECTOR('',#722,1.);
#424=VECTOR('',#729,1.);
#425=VECTOR('',#736,1.);
#426=VECTOR('',#741,1.);
#427=VECTOR('',#742,1.);
#428=VECTOR('',#749,1.);
#429=VECTOR('',#750,1.);
#430=VECTOR('',#753,1.);
#431=VECTOR('',#758,1.);
#432=VECTOR('',#767,1.);
#433=VECTOR('',#768,1.);
#434=VECTOR('',#769,1.);
#435=VECTOR('',#770,1.);
#436=VECTOR('',#773,1.);
#437=VECTOR('',#778,1.);
#438=VECTOR('',#783,1.);
#439=VECTOR('',#788,1.);
#440=VECTOR('',#793,1.);
#441=VECTOR('',#794,1.);
#442=VECTOR('',#797,1.);
#443=VECTOR('',#798,1.);
#444=VECTOR('',#805,1.);
#445=VECTOR('',#816,1.);
#446=VECTOR('',#823,1.);
#447=VECTOR('',#834,1.);
#448=EDGE_LOOP('',(#62,#63,#64,#65));
#449=EDGE_LOOP('',(#66,#67,#68,#69));
#450=EDGE_LOOP('',(#70,#71,#72,#73,#74,#75,#76,#77,#78,#79,#80,#81));
#451=EDGE_LOOP('',(#82,#83,#84,#85));
#452=EDGE_LOOP('',(#86));
#453=EDGE_LOOP('',(#87,#88,#89,#90));
#454=EDGE_LOOP('',(#91,#92,#93,#94));
#455=EDGE_LOOP('',(#95,#96,#97,#98));
#456=EDGE_LOOP('',(#99,#100,#101,#102));
#457=EDGE_LOOP('',(#103,#104,#105,#106));
#458=EDGE_LOOP('',(#107,#108,#109,#110));
#459=EDGE_LOOP('',(#111,#112,#113,#114));
#460=EDGE_LOOP('',(#115));
#461=EDGE_LOOP('',(#116,#117,#118,#119));
#462=EDGE_LOOP('',(#120,#121,#122,#123));
#463=EDGE_LOOP('',(#124,#125,#126,#127));
#464=EDGE_LOOP('',(#128,#129,#130,#131));
#465=EDGE_LOOP('',(#132,#133,#134,#135,#136,#137,#138,#139));
#466=EDGE_LOOP('',(#140));
#467=EDGE_LOOP('',(#141,#142,#143,#144));
#468=EDGE_LOOP('',(#145,#146,#147,#148));
#469=EDGE_LOOP('',(#149,#150,#151,#152));
#470=EDGE_LOOP('',(#153,#154,#155,#156,#157,#158,#159,#160));
#471=EDGE_LOOP('',(#161));
#472=EDGE_LOOP('',(#162,#163,#164,#165,#166,#167,#168,#169,#170,#171,#172,
#173,#174,#175));
#473=EDGE_LOOP('',(#176,#177,#178,#179));
#474=EDGE_LOOP('',(#180));
#475=EDGE_LOOP('',(#181));
#476=EDGE_LOOP('',(#182));
#477=EDGE_LOOP('',(#183));
#478=EDGE_LOOP('',(#184,#185,#186,#187));
#479=EDGE_LOOP('',(#188,#189,#190,#191));
#480=EDGE_LOOP('',(#192,#193,#194,#195));
#481=EDGE_LOOP('',(#196,#197,#198,#199,#200,#201,#202,#203,#204,#205,#206,
#207,#208,#209));
#482=EDGE_LOOP('',(#210,#211,#212,#213,#214,#215,#216,#217,#218,#219,#220,
#221));
#483=EDGE_LOOP('',(#222,#223,#224,#225));
#484=FACE_BOUND('',#448,.T.);
#485=FACE_BOUND('',#449,.T.);
#486=FACE_BOUND('',#450,.T.);
#487=FACE_BOUND('',#451,.T.);
#488=FACE_BOUND('',#452,.T.);
#489=FACE_BOUND('',#453,.T.);
#490=FACE_BOUND('',#454,.T.);
#491=FACE_BOUND('',#455,.T.);
#492=FACE_BOUND('',#456,.T.);
#493=FACE_BOUND('',#457,.T.);
#494=FACE_BOUND('',#458,.T.);
#495=FACE_BOUND('',#459,.T.);
#496=FACE_BOUND('',#460,.T.);
#497=FACE_BOUND('',#461,.T.);
#498=FACE_BOUND('',#462,.T.);
#499=FACE_BOUND('',#463,.T.);
#500=FACE_BOUND('',#464,.T.);
#501=FACE_BOUND('',#465,.T.);
#502=FACE_BOUND('',#466,.T.);
#503=FACE_BOUND('',#467,.T.);
#504=FACE_BOUND('',#468,.T.);
#505=FACE_BOUND('',#469,.T.);
#506=FACE_BOUND('',#470,.T.);
#507=FACE_BOUND('',#471,.T.);
#508=FACE_BOUND('',#472,.T.);
#509=FACE_BOUND('',#473,.T.);
#510=FACE_BOUND('',#474,.T.);
#511=FACE_BOUND('',#475,.T.);
#512=FACE_BOUND('',#476,.T.);
#513=FACE_BOUND('',#477,.T.);
#514=FACE_BOUND('',#478,.T.);
#515=FACE_BOUND('',#479,.T.);
#516=FACE_BOUND('',#480,.T.);
#517=FACE_BOUND('',#481,.T.);
#518=FACE_BOUND('',#482,.T.);
#519=FACE_BOUND('',#483,.T.);
#520=CYLINDRICAL_SURFACE('',#583,0.01);
#521=CYLINDRICAL_SURFACE('',#586,0.01);
#522=CYLINDRICAL_SURFACE('',#600,0.015);
#523=CYLINDRICAL_SURFACE('',#603,0.004);
#524=CYLINDRICAL_SURFACE('',#606,0.025);
#525=CYLINDRICAL_SURFACE('',#609,0.004);
#526=CYLINDRICAL_SURFACE('',#612,0.015);
#527=CYLINDRICAL_SURFACE('',#619,0.017);
#528=CYLINDRICAL_SURFACE('',#621,0.027);
#529=CYLINDRICAL_SURFACE('',#623,0.017);
#530=CYLINDRICAL_SURFACE('',#628,0.019);
#531=CYLINDRICAL_SURFACE('',#630,0.029);
#532=CYLINDRICAL_SURFACE('',#632,0.019);
#533=CYLINDRICAL_SURFACE('',#638,0.01);
#534=CYLINDRICAL_SURFACE('',#639,0.0075);
#535=CYLINDRICAL_SURFACE('',#640,0.0075);
#536=CYLINDRICAL_SURFACE('',#641,0.019);
#537=CYLINDRICAL_SURFACE('',#644,0.029);
#538=CYLINDRICAL_SURFACE('',#647,0.019);
#539=CYLINDRICAL_SURFACE('',#652,0.01);
#540=ADVANCED_FACE('',(#484),#520,.T.);
#541=ADVANCED_FACE('',(#485),#521,.T.);
#542=ADVANCED_FACE('',(#486),#12,.F.);
#543=ADVANCED_FACE('',(#487),#13,.F.);
#544=ADVANCED_FACE('',(#488,#489),#14,.F.);
#545=ADVANCED_FACE('',(#490),#522,.F.);
#546=ADVANCED_FACE('',(#491),#523,.T.);
#547=ADVANCED_FACE('',(#492),#524,.F.);
#548=ADVANCED_FACE('',(#493),#525,.T.);
#549=ADVANCED_FACE('',(#494),#526,.F.);
#550=ADVANCED_FACE('',(#495,#496),#15,.T.);
#551=ADVANCED_FACE('',(#497),#16,.T.);
#552=ADVANCED_FACE('',(#498),#527,.T.);
#553=ADVANCED_FACE('',(#499),#528,.T.);
#554=ADVANCED_FACE('',(#500),#529,.T.);
#555=ADVANCED_FACE('',(#501,#502),#17,.F.);
#556=ADVANCED_FACE('',(#503),#530,.T.);
#557=ADVANCED_FACE('',(#504),#531,.T.);
#558=ADVANCED_FACE('',(#505),#532,.T.);
#559=ADVANCED_FACE('',(#506,#507),#18,.T.);
#560=ADVANCED_FACE('',(#508),#19,.T.);
#561=ADVANCED_FACE('',(#509),#533,.T.);
#562=ADVANCED_FACE('',(#510,#511),#534,.F.);
#563=ADVANCED_FACE('',(#512,#513),#535,.F.);
#564=ADVANCED_FACE('',(#514),#536,.T.);
#565=ADVANCED_FACE('',(#515),#537,.T.);
#566=ADVANCED_FACE('',(#516),#538,.T.);
#567=ADVANCED_FACE('',(#517),#20,.T.);
#568=ADVANCED_FACE('',(#518),#21,.F.);
#569=ADVANCED_FACE('',(#519),#539,.T.);
#570=CLOSED_SHELL('',(#540,#541,#542,#543,#544,#545,#546,#547,#548,#549,
#550,#551,#552,#553,#554,#555,#556,#557,#558,#559,#560,#561,#562,#563,#564,
#565,#566,#567,#568,#569));
#571=STYLED_ITEM('',(#572),#579);
#572=PRESENTATION_STYLE_ASSIGNMENT((#573));
#573=SURFACE_STYLE_USAGE(.BOTH.,#574);
#574=SURFACE_SIDE_STYLE('',(#575));
#575=SURFACE_STYLE_FILL_AREA(#576);
#576=FILL_AREA_STYLE('',(#577));
#577=FILL_AREA_STYLE_COLOUR('',#578);
#578=COLOUR_RGB('',0.615686274509804,0.811764705882353,0.929411764705882);
#579=MANIFOLD_SOLID_BREP('Part 1',#570);
#580=SHAPE_DEFINITION_REPRESENTATION(#1012,#581);
#581=SHAPE_REPRESENTATION('Part 1',(#582),#1007);
#582=AXIS2_PLACEMENT_3D('',#837,#653,#654);
#583=AXIS2_PLACEMENT_3D('',#838,#655,#656);
#584=AXIS2_PLACEMENT_3D('',#842,#658,#659);
#585=AXIS2_PLACEMENT_3D('',#846,#661,#662);
#586=AXIS2_PLACEMENT_3D('',#847,#663,#664);
#587=AXIS2_PLACEMENT_3D('',#851,#666,#667);
#588=AXIS2_PLACEMENT_3D('',#855,#669,#670);
#589=AXIS2_PLACEMENT_3D('',#856,#671,#672);
#590=AXIS2_PLACEMENT_3D('',#862,#675,#676);
#591=AXIS2_PLACEMENT_3D('',#864,#677,#678);
#592=AXIS2_PLACEMENT_3D('',#866,#679,#680);
#593=AXIS2_PLACEMENT_3D('',#874,#684,#685);
#594=AXIS2_PLACEMENT_3D('',#876,#686,#687);
#595=AXIS2_PLACEMENT_3D('',#878,#688,#689);
#596=AXIS2_PLACEMENT_3D('',#881,#691,#692);
#597=AXIS2_PLACEMENT_3D('',#882,#693,#694);
#598=AXIS2_PLACEMENT_3D('',#887,#697,#698);
#599=AXIS2_PLACEMENT_3D('',#888,#699,#700);
#600=AXIS2_PLACEMENT_3D('',#895,#704,#705);
#601=AXIS2_PLACEMENT_3D('',#896,#706,#707);
#602=AXIS2_PLACEMENT_3D('',#900,#709,#710);
#603=AXIS2_PLACEMENT_3D('',#901,#711,#712);
#604=AXIS2_PLACEMENT_3D('',#902,#713,#714);
#605=AXIS2_PLACEMENT_3D('',#906,#716,#717);
#606=AXIS2_PLACEMENT_3D('',#907,#718,#719);
#607=AXIS2_PLACEMENT_3D('',#908,#720,#721);
#608=AXIS2_PLACEMENT_3D('',#912,#723,#724);
#609=AXIS2_PLACEMENT_3D('',#913,#725,#726);
#610=AXIS2_PLACEMENT_3D('',#914,#727,#728);
#611=AXIS2_PLACEMENT_3D('',#918,#730,#731);
#612=AXIS2_PLACEMENT_3D('',#919,#732,#733);
#613=AXIS2_PLACEMENT_3D('',#920,#734,#735);
#614=AXIS2_PLACEMENT_3D('',#924,#737,#738);
#615=AXIS2_PLACEMENT_3D('',#925,#739,#740);
#616=AXIS2_PLACEMENT_3D('',#928,#743,#744);
#617=AXIS2_PLACEMENT_3D('',#930,#745,#746);
#618=AXIS2_PLACEMENT_3D('',#931,#747,#748);
#619=AXIS2_PLACEMENT_3D('',#936,#751,#752);
#620=AXIS2_PLACEMENT_3D('',#939,#754,#755);
#621=AXIS2_PLACEMENT_3D('',#940,#756,#757);
#622=AXIS2_PLACEMENT_3D('',#943,#759,#760);
#623=AXIS2_PLACEMENT_3D('',#944,#761,#762);
#624=AXIS2_PLACEMENT_3D('',#945,#763,#764);
#625=AXIS2_PLACEMENT_3D('',#946,#765,#766);
#626=AXIS2_PLACEMENT_3D('',#955,#771,#772);
#627=AXIS2_PLACEMENT_3D('',#957,#774,#775);
#628=AXIS2_PLACEMENT_3D('',#959,#776,#777);
#629=AXIS2_PLACEMENT_3D('',#962,#779,#780);
#630=AXIS2_PLACEMENT_3D('',#963,#781,#782);
#631=AXIS2_PLACEMENT_3D('',#966,#784,#785);
#632=AXIS2_PLACEMENT_3D('',#967,#786,#787);
#633=AXIS2_PLACEMENT_3D('',#970,#789,#790);
#634=AXIS2_PLACEMENT_3D('',#971,#791,#792);
#635=AXIS2_PLACEMENT_3D('',#975,#795,#796);
#636=AXIS2_PLACEMENT_3D('',#980,#799,#800);
#637=AXIS2_PLACEMENT_3D('',#982,#801,#802);
#638=AXIS2_PLACEMENT_3D('',#983,#803,#804);
#639=AXIS2_PLACEMENT_3D('',#985,#806,#807);
#640=AXIS2_PLACEMENT_3D('',#986,#808,#809);
#641=AXIS2_PLACEMENT_3D('',#987,#810,#811);
#642=AXIS2_PLACEMENT_3D('',#988,#812,#813);
#643=AXIS2_PLACEMENT_3D('',#990,#814,#815);
#644=AXIS2_PLACEMENT_3D('',#993,#817,#818);
#645=AXIS2_PLACEMENT_3D('',#994,#819,#820);
#646=AXIS2_PLACEMENT_3D('',#996,#821,#822);
#647=AXIS2_PLACEMENT_3D('',#999,#824,#825);
#648=AXIS2_PLACEMENT_3D('',#1000,#826,#827);
#649=AXIS2_PLACEMENT_3D('',#1001,#828,#829);
#650=AXIS2_PLACEMENT_3D('',#1002,#830,#831);
#651=AXIS2_PLACEMENT_3D('',#1003,#832,#833);
#652=AXIS2_PLACEMENT_3D('',#1005,#835,#836);
#653=DIRECTION('',(0.,0.,1.));
#654=DIRECTION('',(1.,0.,0.));
#655=DIRECTION('',(1.,-2.16840434497101E-16,3.46944695195361E-15));
#656=DIRECTION('',(3.46944695195361E-15,0.,-1.));
#657=DIRECTION('',(1.,0.,3.46944695195361E-15));
#658=DIRECTION('',(-1.,0.,-1.56659430878557E-16));
#659=DIRECTION('',(-1.56659430878557E-16,0.,1.));
#660=DIRECTION('',(1.,0.,3.46944695195361E-15));
#661=DIRECTION('',(1.,0.,1.37622943352484E-16));
#662=DIRECTION('',(1.37622943352484E-16,0.,-1.));
#663=DIRECTION('',(-1.,0.,0.));
#664=DIRECTION('',(0.,0.,1.));
#665=DIRECTION('',(1.,0.,0.));
#666=DIRECTION('',(-1.,0.,-3.52483719476755E-16));
#667=DIRECTION('',(-3.52483719476755E-16,0.,1.));
#668=DIRECTION('',(1.,0.,0.));
#669=DIRECTION('',(1.,0.,3.7846309421933E-16));
#670=DIRECTION('',(3.7846309421933E-16,0.,-1.));
#671=DIRECTION('',(0.,1.,0.));
#672=DIRECTION('',(-1.,0.,0.));
#673=DIRECTION('',(1.,0.,2.57198523156875E-16));
#674=DIRECTION('',(1.56659430878557E-16,0.,-1.));
#675=DIRECTION('',(0.,1.,0.));
#676=DIRECTION('',(0.,0.,1.));
#677=DIRECTION('',(0.,1.,0.));
#678=DIRECTION('',(0.,0.,1.));
#679=DIRECTION('',(0.,1.,0.));
#680=DIRECTION('',(0.,0.,1.));
#681=DIRECTION('',(3.52483719476755E-16,0.,-1.));
#682=DIRECTION('',(-1.,0.,-2.57198523156875E-16));
#683=DIRECTION('',(-2.57198523156875E-16,0.,1.));
#684=DIRECTION('',(0.,-1.,0.));
#685=DIRECTION('',(0.,0.,-1.));
#686=DIRECTION('',(0.,-1.,0.));
#687=DIRECTION('',(0.,0.,-1.));
#688=DIRECTION('',(0.,-1.,0.));
#689=DIRECTION('',(0.,0.,-1.));
#690=DIRECTION('',(-2.57198523156875E-16,0.,1.));
#691=DIRECTION('',(-1.,0.,-2.57198523156875E-16));
#692=DIRECTION('',(-2.57198523156875E-16,0.,1.));
#693=DIRECTION('',(1.,0.,2.57198523156875E-16));
#694=DIRECTION('',(2.57198523156875E-16,0.,-1.));
#695=DIRECTION('',(-2.57198523156875E-16,0.,1.));
#696=DIRECTION('',(0.,1.,0.));
#697=DIRECTION('',(1.,0.,3.7846309421933E-16));
#698=DIRECTION('',(3.7846309421933E-16,0.,-1.));
#699=DIRECTION('',(1.,0.,3.7846309421933E-16));
#700=DIRECTION('',(3.7846309421933E-16,0.,-1.));
#701=DIRECTION('',(3.7846309421933E-16,0.,-1.));
#702=DIRECTION('',(3.7846309421933E-16,0.,-1.));
#703=DIRECTION('',(0.,1.,0.));
#704=DIRECTION('',(0.,1.,0.));
#705=DIRECTION('',(0.,0.,1.));
#706=DIRECTION('',(0.,-1.,0.));
#707=DIRECTION('',(0.,0.,-1.));
#708=DIRECTION('',(0.,1.,0.));
#709=DIRECTION('',(0.,-1.,0.));
#710=DIRECTION('',(0.,0.,-1.));
#711=DIRECTION('',(0.,1.,0.));
#712=DIRECTION('',(0.,0.,1.));
#713=DIRECTION('',(0.,-1.,0.));
#714=DIRECTION('',(0.,0.,-1.));
#715=DIRECTION('',(0.,1.,0.));
#716=DIRECTION('',(0.,-1.,0.));
#717=DIRECTION('',(0.,0.,-1.));
#718=DIRECTION('',(0.,1.,0.));
#719=DIRECTION('',(0.,0.,1.));
#720=DIRECTION('',(0.,-1.,0.));
#721=DIRECTION('',(0.,0.,-1.));
#722=DIRECTION('',(0.,1.,0.));
#723=DIRECTION('',(0.,-1.,0.));
#724=DIRECTION('',(0.,0.,-1.));
#725=DIRECTION('',(0.,1.,0.));
#726=DIRECTION('',(0.,0.,1.));
#727=DIRECTION('',(0.,-1.,0.));
#728=DIRECTION('',(0.,0.,-1.));
#729=DIRECTION('',(0.,1.,0.));
#730=DIRECTION('',(0.,-1.,0.));
#731=DIRECTION('',(0.,0.,-1.));
#732=DIRECTION('',(0.,1.,0.));
#733=DIRECTION('',(0.,0.,1.));
#734=DIRECTION('',(0.,-1.,0.));
#735=DIRECTION('',(0.,0.,-1.));
#736=DIRECTION('',(0.,1.,0.));
#737=DIRECTION('',(0.,-1.,0.));
#738=DIRECTION('',(0.,0.,-1.));
#739=DIRECTION('',(1.,0.,1.37622943352484E-16));
#740=DIRECTION('',(1.37622943352484E-16,0.,-1.));
#741=DIRECTION('',(1.37622943352484E-16,0.,-1.));
#742=DIRECTION('',(1.37622943352484E-16,0.,-1.));
#743=DIRECTION('',(1.,0.,1.37622943352484E-16));
#744=DIRECTION('',(1.37622943352484E-16,0.,-1.));
#745=DIRECTION('',(-1.,0.,-2.57198523156875E-16));
#746=DIRECTION('',(-2.57198523156875E-16,0.,1.));
#747=DIRECTION('',(-1.,0.,-2.57198523156875E-16));
#748=DIRECTION('',(-2.57198523156875E-16,0.,1.));
#749=DIRECTION('',(0.,1.,0.));
#750=DIRECTION('',(-2.57198523156875E-16,0.,1.));
#751=DIRECTION('',(0.,1.,0.));
#752=DIRECTION('',(0.,0.,1.));
#753=DIRECTION('',(0.,1.,0.));
#754=DIRECTION('',(0.,-1.,0.));
#755=DIRECTION('',(0.,0.,-1.));
#756=DIRECTION('',(0.,1.,0.));
#757=DIRECTION('',(0.,0.,1.));
#758=DIRECTION('',(0.,1.,0.));
#759=DIRECTION('',(0.,-1.,0.));
#760=DIRECTION('',(0.,0.,-1.));
#761=DIRECTION('',(0.,1.,0.));
#762=DIRECTION('',(0.,0.,1.));
#763=DIRECTION('',(0.,-1.,0.));
#764=DIRECTION('',(0.,0.,-1.));
#765=DIRECTION('',(-1.,0.,-3.52483719476755E-16));
#766=DIRECTION('',(-3.52483719476755E-16,0.,1.));
#767=DIRECTION('',(3.52483719476755E-16,0.,-1.));
#768=DIRECTION('',(3.52483719476755E-16,0.,-1.));
#769=DIRECTION('',(0.,1.,0.));
#770=DIRECTION('',(3.52483719476755E-16,0.,-1.));
#771=DIRECTION('',(1.,0.,2.57198523156875E-16));
#772=DIRECTION('',(2.57198523156875E-16,0.,-1.));
#773=DIRECTION('',(0.,-1.,0.));
#774=DIRECTION('',(1.,0.,2.57198523156875E-16));
#775=DIRECTION('',(2.57198523156875E-16,0.,-1.));
#776=DIRECTION('',(0.,-1.,0.));
#777=DIRECTION('',(0.,0.,-1.));
#778=DIRECTION('',(0.,-1.,0.));
#779=DIRECTION('',(0.,1.,0.));
#780=DIRECTION('',(0.,0.,1.));
#781=DIRECTION('',(0.,-1.,0.));
#782=DIRECTION('',(0.,0.,-1.));
#783=DIRECTION('',(0.,-1.,0.));
#784=DIRECTION('',(0.,1.,0.));
#785=DIRECTION('',(0.,0.,1.));
#786=DIRECTION('',(0.,-1.,0.));
#787=DIRECTION('',(0.,0.,-1.));
#788=DIRECTION('',(0.,-1.,0.));
#789=DIRECTION('',(0.,1.,0.));
#790=DIRECTION('',(0.,0.,1.));
#791=DIRECTION('',(-1.,0.,-1.56659430878557E-16));
#792=DIRECTION('',(-1.56659430878557E-16,0.,1.));
#793=DIRECTION('',(1.56659430878557E-16,0.,-1.));
#794=DIRECTION('',(1.56659430878557E-16,0.,-1.));
#795=DIRECTION('',(-1.,0.,-2.57198523156875E-16));
#796=DIRECTION('',(-2.57198523156875E-16,0.,1.));
#797=DIRECTION('',(1.56659430878557E-16,0.,-1.));
#798=DIRECTION('',(0.,1.,0.));
#799=DIRECTION('',(-1.,0.,-2.57198523156875E-16));
#800=DIRECTION('',(-2.57198523156875E-16,0.,1.));
#801=DIRECTION('',(0.,1.,0.));
#802=DIRECTION('',(-1.,0.,0.));
#803=DIRECTION('',(-1.,0.,-2.57198523156875E-16));
#804=DIRECTION('',(-2.57198523156875E-16,0.,1.));
#805=DIRECTION('',(-1.,0.,-2.57198523156875E-16));
#806=DIRECTION('',(-1.,0.,-2.57198523156875E-16));
#807=DIRECTION('',(-2.57198523156875E-16,0.,1.));
#808=DIRECTION('',(1.,0.,2.57198523156875E-16));
#809=DIRECTION('',(2.57198523156875E-16,0.,-1.));
#810=DIRECTION('',(0.,1.,0.));
#811=DIRECTION('',(0.,0.,-1.));
#812=DIRECTION('',(0.,1.,0.));
#813=DIRECTION('',(0.,0.,1.));
#814=DIRECTION('',(0.,1.,0.));
#815=DIRECTION('',(0.,0.,1.));
#816=DIRECTION('',(0.,1.,0.));
#817=DIRECTION('',(0.,1.,0.));
#818=DIRECTION('',(0.,0.,-1.));
#819=DIRECTION('',(0.,1.,0.));
#820=DIRECTION('',(0.,0.,1.));
#821=DIRECTION('',(0.,1.,0.));
#822=DIRECTION('',(0.,0.,1.));
#823=DIRECTION('',(0.,1.,0.));
#824=DIRECTION('',(0.,1.,0.));
#825=DIRECTION('',(0.,0.,-1.));
#826=DIRECTION('',(0.,1.,0.));
#827=DIRECTION('',(0.,0.,1.));
#828=DIRECTION('',(0.,1.,0.));
#829=DIRECTION('',(0.,0.,1.));
#830=DIRECTION('',(0.,-1.,0.));
#831=DIRECTION('',(-1.,0.,0.));
#832=DIRECTION('',(0.,-1.,0.));
#833=DIRECTION('',(-1.,0.,0.));
#834=DIRECTION('',(1.,0.,2.57198523156875E-16));
#835=DIRECTION('',(1.,0.,2.57198523156875E-16));
#836=DIRECTION('',(2.57198523156875E-16,0.,-1.));
#837=CARTESIAN_POINT('',(0.,0.,0.));
#838=CARTESIAN_POINT('',(-0.0065,0.,0.055));
#839=CARTESIAN_POINT('',(-1.28369537222284E-16,0.01,0.055));
#840=CARTESIAN_POINT('',(-0.0065,0.01,0.055));
#841=CARTESIAN_POINT('',(-0.0025,0.01,0.055));
#842=CARTESIAN_POINT('',(-0.0065,3.64572016653826E-35,0.055));
#843=CARTESIAN_POINT('',(-0.0065,-0.01,0.055));
#844=CARTESIAN_POINT('',(-1.28369537222284E-16,-0.01,0.055));
#845=CARTESIAN_POINT('',(-0.0025,-0.01,0.055));
#846=CARTESIAN_POINT('',(-0.0025,-8.67361737988404E-19,0.055));
#847=CARTESIAN_POINT('',(0.0065,0.,0.055));
#848=CARTESIAN_POINT('',(0.0065,-0.01,0.055));
#849=CARTESIAN_POINT('',(0.0065,-0.01,0.055));
#850=CARTESIAN_POINT('',(0.0025,-0.01,0.055));
#851=CARTESIAN_POINT('',(0.0065,0.,0.055));
#852=CARTESIAN_POINT('',(0.0065,0.01,0.055));
#853=CARTESIAN_POINT('',(0.0065,0.01,0.055));
#854=CARTESIAN_POINT('',(0.0025,0.01,0.055));
#855=CARTESIAN_POINT('',(0.0025,0.,0.055));
#856=CARTESIAN_POINT('',(0.,0.008,0.018));
#857=CARTESIAN_POINT('',(-0.0065,0.008,0.049));
#858=CARTESIAN_POINT('',(-0.0065,0.008,0.049));
#859=CARTESIAN_POINT('',(-0.0045,0.008,0.049));
#860=CARTESIAN_POINT('',(-0.0065,0.008,0.0539267855356786));
#861=CARTESIAN_POINT('',(-0.0065,0.008,0.0428535710713571));
#862=CARTESIAN_POINT('',(8.67361737988404E-18,0.008,0.025));
#863=CARTESIAN_POINT('',(-0.0187773800089363,0.008,0.0221));
#864=CARTESIAN_POINT('',(-3.03642609034259E-18,0.008,0.));
#865=CARTESIAN_POINT('',(0.0187773800089363,0.008,0.0221));
#866=CARTESIAN_POINT('',(-2.34187669256869E-17,0.008,0.025));
#867=CARTESIAN_POINT('',(0.0065,0.008,0.0428535710713571));
#868=CARTESIAN_POINT('',(0.0065,0.008,0.0539267855356786));
#869=CARTESIAN_POINT('',(0.0065,0.008,0.049));
#870=CARTESIAN_POINT('',(0.0065,0.008,0.049));
#871=CARTESIAN_POINT('',(0.0045,0.008,0.049));
#872=CARTESIAN_POINT('',(0.0045,0.008,0.0531967981553775));
#873=CARTESIAN_POINT('',(0.0045,0.008,0.041393596310755));
#874=CARTESIAN_POINT('',(-7.80625564189563E-18,0.008,0.025));
#875=CARTESIAN_POINT('',(0.0165924681708298,0.008,0.0213));
#876=CARTESIAN_POINT('',(-4.98248993166629E-18,0.008,0.));
#877=CARTESIAN_POINT('',(-0.0165924681708298,0.008,0.0213));
#878=CARTESIAN_POINT('',(-1.3010426069826E-18,0.008,0.025));
#879=CARTESIAN_POINT('',(-0.0045,0.008,0.041393596310755));
#880=CARTESIAN_POINT('',(-0.0045,0.008,0.0531967981553775));
#881=CARTESIAN_POINT('',(0.0045,-0.008,0.0531967981553775));
#882=CARTESIAN_POINT('',(0.0045,2.84793185752785E-19,0.055));
#883=CARTESIAN_POINT('',(0.0045,-0.008,0.049));
#884=CARTESIAN_POINT('',(0.0045,-0.008,0.0531967981553775));
#885=CARTESIAN_POINT('',(0.0045,-0.008,0.041393596310755));
#886=CARTESIAN_POINT('',(0.0045,-0.008,0.041393596310755));
#887=CARTESIAN_POINT('',(0.0025,-0.008,0.0523950997288745));
#888=CARTESIAN_POINT('',(0.0025,0.,0.055));
#889=CARTESIAN_POINT('',(0.0025,0.,0.0475));
#890=CARTESIAN_POINT('',(0.0025,-0.01,0.0523950997288745));
#891=CARTESIAN_POINT('',(0.0025,-0.01,0.039790199457749));
#892=CARTESIAN_POINT('',(0.0025,0.01,0.0523950997288745));
#893=CARTESIAN_POINT('',(0.0025,0.01,0.039790199457749));
#894=CARTESIAN_POINT('',(0.0025,-0.008,0.039790199457749));
#895=CARTESIAN_POINT('',(-4.33680868994202E-19,-0.008,0.025));
#896=CARTESIAN_POINT('',(-4.33680868994202E-19,0.01,0.025));
#897=CARTESIAN_POINT('',(0.014824247375476,0.01,0.0227105263157894));
#898=CARTESIAN_POINT('',(0.014824247375476,-0.008,0.0227105263157894));
#899=CARTESIAN_POINT('',(0.014824247375476,-0.01,0.0227105263157894));
#900=CARTESIAN_POINT('',(-4.33680868994202E-19,-0.01,0.025));
#901=CARTESIAN_POINT('',(0.0187773800089363,-0.008,0.0221));
#902=CARTESIAN_POINT('',(0.0187773800089363,0.01,0.0221));
#903=CARTESIAN_POINT('',(0.0161873965594279,0.01,0.0190517241379311));
#904=CARTESIAN_POINT('',(0.0161873965594279,-0.008,0.0190517241379311));
#905=CARTESIAN_POINT('',(0.0161873965594279,-0.01,0.0190517241379311));
#906=CARTESIAN_POINT('',(0.0187773800089363,-0.01,0.0221));
#907=CARTESIAN_POINT('',(-1.90793182062122E-18,-0.008,0.));
#908=CARTESIAN_POINT('',(-1.90793182062122E-18,0.01,0.));
#909=CARTESIAN_POINT('',(-0.0161873965594278,0.01,0.0190517241379311));
#910=CARTESIAN_POINT('',(-0.0161873965594278,-0.008,0.0190517241379311));
#911=CARTESIAN_POINT('',(-0.0161873965594278,-0.01,0.0190517241379311));
#912=CARTESIAN_POINT('',(-1.90793182062122E-18,-0.01,0.));
#913=CARTESIAN_POINT('',(-0.0187773800089363,-0.008,0.0221));
#914=CARTESIAN_POINT('',(-0.0187773800089363,0.01,0.0221));
#915=CARTESIAN_POINT('',(-0.014824247375476,0.01,0.0227105263157894));
#916=CARTESIAN_POINT('',(-0.014824247375476,-0.008,0.0227105263157894));
#917=CARTESIAN_POINT('',(-0.014824247375476,-0.01,0.0227105263157894));
#918=CARTESIAN_POINT('',(-0.0187773800089363,-0.01,0.0221));
#919=CARTESIAN_POINT('',(1.3010426069826E-18,-0.008,0.025));
#920=CARTESIAN_POINT('',(1.3010426069826E-18,0.01,0.025));
#921=CARTESIAN_POINT('',(-0.0025,0.01,0.039790199457749));
#922=CARTESIAN_POINT('',(-0.0025,-0.008,0.039790199457749));
#923=CARTESIAN_POINT('',(-0.0025,-0.01,0.039790199457749));
#924=CARTESIAN_POINT('',(1.3010426069826E-18,-0.01,0.025));
#925=CARTESIAN_POINT('',(-0.0025,-0.008,0.0523950997288745));
#926=CARTESIAN_POINT('',(-0.0025,0.01,0.0523950997288745));
#927=CARTESIAN_POINT('',(-0.0025,-0.01,0.0523950997288745));
#928=CARTESIAN_POINT('',(-0.0025,0.,0.055));
#929=CARTESIAN_POINT('',(-0.0025,0.,0.0475));
#930=CARTESIAN_POINT('',(-0.0045,-0.008,0.0531967981553775));
#931=CARTESIAN_POINT('',(-0.0045,1.72254642419883E-18,0.055));
#932=CARTESIAN_POINT('',(-0.0045,-0.008,0.049));
#933=CARTESIAN_POINT('',(-0.0045,-0.008,0.041393596310755));
#934=CARTESIAN_POINT('',(-0.0045,-0.008,0.041393596310755));
#935=CARTESIAN_POINT('',(-0.0045,-0.008,0.0531967981553775));
#936=CARTESIAN_POINT('',(-1.3010426069826E-18,-0.008,0.025));
#937=CARTESIAN_POINT('',(-0.0165924681708298,-0.008,0.0213));
#938=CARTESIAN_POINT('',(-0.0165924681708298,-0.008,0.0213));
#939=CARTESIAN_POINT('',(-1.3010426069826E-18,-0.008,0.025));
#940=CARTESIAN_POINT('',(-4.98248993166629E-18,-0.008,0.));
#941=CARTESIAN_POINT('',(0.0165924681708298,-0.008,0.0213));
#942=CARTESIAN_POINT('',(0.0165924681708298,-0.008,0.0213));
#943=CARTESIAN_POINT('',(-4.98248993166629E-18,-0.008,0.));
#944=CARTESIAN_POINT('',(-7.80625564189563E-18,-0.008,0.025));
#945=CARTESIAN_POINT('',(-7.80625564189563E-18,-0.008,0.025));
#946=CARTESIAN_POINT('',(0.0065,0.01,0.0539267855356786));
#947=CARTESIAN_POINT('',(0.0065,0.01,0.0539267855356786));
#948=CARTESIAN_POINT('',(0.0065,0.01,0.0428535710713571));
#949=CARTESIAN_POINT('',(0.0065,-0.01,0.0539267855356786));
#950=CARTESIAN_POINT('',(0.0065,-0.01,0.0428535710713571));
#951=CARTESIAN_POINT('',(0.0065,-0.01,0.0428535710713571));
#952=CARTESIAN_POINT('',(0.0065,-0.008,0.0428535710713571));
#953=CARTESIAN_POINT('',(0.0065,-0.008,0.0539267855356786));
#954=CARTESIAN_POINT('',(0.0065,-0.008,0.049));
#955=CARTESIAN_POINT('',(0.0065,2.84793185752785E-19,0.055));
#956=CARTESIAN_POINT('',(0.0065,0.01,0.0428535710713571));
#957=CARTESIAN_POINT('',(0.0065,0.,0.055));
#958=CARTESIAN_POINT('',(0.0065,0.,0.0475));
#959=CARTESIAN_POINT('',(-2.34187669256869E-17,0.01,0.025));
#960=CARTESIAN_POINT('',(0.0187773800089363,0.01,0.0221));
#961=CARTESIAN_POINT('',(0.0187773800089363,0.01,0.0221));
#962=CARTESIAN_POINT('',(-2.34187669256869E-17,0.01,0.025));
#963=CARTESIAN_POINT('',(-3.03642609034259E-18,0.01,0.));
#964=CARTESIAN_POINT('',(-0.0187773800089363,0.01,0.0221));
#965=CARTESIAN_POINT('',(-0.0187773800089363,0.01,0.0221));
#966=CARTESIAN_POINT('',(-3.03642609034259E-18,0.01,0.));
#967=CARTESIAN_POINT('',(8.67361737988404E-18,0.01,0.025));
#968=CARTESIAN_POINT('',(-0.0065,0.01,0.0428535710713571));
#969=CARTESIAN_POINT('',(-0.0065,0.01,0.0428535710713571));
#970=CARTESIAN_POINT('',(8.67361737988404E-18,0.01,0.025));
#971=CARTESIAN_POINT('',(-0.0065,0.01,0.0539267855356786));
#972=CARTESIAN_POINT('',(-0.0065,-0.01,0.0539267855356786));
#973=CARTESIAN_POINT('',(-0.0065,-0.01,0.0428535710713571));
#974=CARTESIAN_POINT('',(-0.0065,0.01,0.0539267855356786));
#975=CARTESIAN_POINT('',(-0.0065,1.72254642419883E-18,0.055));
#976=CARTESIAN_POINT('',(-0.0065,-0.008,0.049));
#977=CARTESIAN_POINT('',(-0.0065,-0.008,0.0539267855356786));
#978=CARTESIAN_POINT('',(-0.0065,-0.008,0.0428535710713571));
#979=CARTESIAN_POINT('',(-0.0065,-0.01,0.0428535710713571));
#980=CARTESIAN_POINT('',(-0.0065,0.,0.055));
#981=CARTESIAN_POINT('',(-0.0065,0.,0.0625));
#982=CARTESIAN_POINT('',(0.,0.01,0.018));
#983=CARTESIAN_POINT('',(0.0065,2.84793185752785E-19,0.055));
#984=CARTESIAN_POINT('',(0.0065,-0.008,0.049));
#985=CARTESIAN_POINT('',(0.0065,0.,0.055));
#986=CARTESIAN_POINT('',(-0.107420678668302,0.,0.055));
#987=CARTESIAN_POINT('',(-2.34187669256869E-17,-0.01,0.025));
#988=CARTESIAN_POINT('',(-2.34187669256869E-17,-0.008,0.025));
#989=CARTESIAN_POINT('',(0.0187773800089363,-0.008,0.0221));
#990=CARTESIAN_POINT('',(-2.34187669256869E-17,-0.01,0.025));
#991=CARTESIAN_POINT('',(0.0187773800089363,-0.01,0.0221));
#992=CARTESIAN_POINT('',(0.0187773800089363,-0.01,0.0221));
#993=CARTESIAN_POINT('',(-3.03642609034259E-18,-0.01,0.));
#994=CARTESIAN_POINT('',(-3.03642609034259E-18,-0.008,0.));
#995=CARTESIAN_POINT('',(-0.0187773800089363,-0.008,0.0221));
#996=CARTESIAN_POINT('',(-3.03642609034259E-18,-0.01,0.));
#997=CARTESIAN_POINT('',(-0.0187773800089363,-0.01,0.0221));
#998=CARTESIAN_POINT('',(-0.0187773800089363,-0.01,0.0221));
#999=CARTESIAN_POINT('',(8.67361737988404E-18,-0.01,0.025));
#1000=CARTESIAN_POINT('',(8.67361737988404E-18,-0.008,0.025));
#1001=CARTESIAN_POINT('',(8.67361737988404E-18,-0.01,0.025));
#1002=CARTESIAN_POINT('',(0.,-0.01,0.018));
#1003=CARTESIAN_POINT('',(0.,-0.008,0.018));
#1004=CARTESIAN_POINT('',(-0.0065,-0.008,0.049));
#1005=CARTESIAN_POINT('',(-0.0065,1.72254642419883E-18,0.055));
#1006=MECHANICAL_DESIGN_GEOMETRIC_PRESENTATION_REPRESENTATION('',(#571),
#1007);
#1007=(
GEOMETRIC_REPRESENTATION_CONTEXT(3)
GLOBAL_UNCERTAINTY_ASSIGNED_CONTEXT((#1008))
GLOBAL_UNIT_ASSIGNED_CONTEXT((#1011,#1010,#1009))
REPRESENTATION_CONTEXT('Part 1','TOP_LEVEL_ASSEMBLY_PART')
);
#1008=UNCERTAINTY_MEASURE_WITH_UNIT(LENGTH_MEASURE(1.E-8),#1011,
'DISTANCE_ACCURACY_VALUE','Maximum Tolerance applied to model');
#1009=(
NAMED_UNIT(*)
SI_UNIT($,.STERADIAN.)
SOLID_ANGLE_UNIT()
);
#1010=(
NAMED_UNIT(*)
PLANE_ANGLE_UNIT()
SI_UNIT($,.RADIAN.)
);
#1011=(
LENGTH_UNIT()
NAMED_UNIT(*)
SI_UNIT($,.METRE.)
);
#1012=PRODUCT_DEFINITION_SHAPE('','',#1013);
#1013=PRODUCT_DEFINITION('','',#1015,#1014);
#1014=PRODUCT_DEFINITION_CONTEXT('',#1021,'design');
#1015=PRODUCT_DEFINITION_FORMATION_WITH_SPECIFIED_SOURCE('','',#1017,
 .NOT_KNOWN.);
#1016=PRODUCT_RELATED_PRODUCT_CATEGORY('','',(#1017));
#1017=PRODUCT('Part 1','Part 1','Part 1',(#1019));
#1018=PRODUCT_CATEGORY('','');
#1019=PRODUCT_CONTEXT('',#1021,'mechanical');
#1020=APPLICATION_PROTOCOL_DEFINITION('international standard',
'ap242_managed_model_based_3d_engineering',2020,#1021);
#1021=APPLICATION_CONTEXT('managed model based 3d engineering');
ENDSEC;
END-ISO-10303-21;
