ISO-10303-21;
HEADER;
/* Generated by software containing ST-Developer
 * from STEP Tools, Inc. (www.steptools.com) 
 */
/* OPTION: using custom renumber hook */

FILE_DESCRIPTION(
/* description */ ('STEP AP242 Edition 2',
'CAx-IF Rec.Pracs.---Representation and Presentation of Product Manufa
cturing Information (PMI)---4.0---2014-10-13',
'CAx-IF Rec.Pracs.---3D Tessellated Geometry---0.4---2014-09-14','2;1',
'CAx-IF Rec.Pracs.---User Defined Attributes---1.5---2016-08-15'),
/* implementation_level */ '2;1');

FILE_NAME(
/* name */ 'Part Studio 1',
/* time_stamp */ '2026-08-14T12:46:07Z',
/* author */ (''),
/* organization */ (''),
/* preprocessor_version */ 'ST-DEVELOPER v20',
/* originating_system */ 'ONSHAPE BY PTC INC, 1.219',
/* authorisation */ '  ');

FILE_SCHEMA (('AP242_MANAGED_MODEL_BASED_3D_ENGINEERING_MIM_LF { 1 0 10303 442 3 1 4 }'));
ENDSEC;

DATA;
#10=SHAPE_REPRESENTATION_RELATIONSHIP('','',#639,#11);
#11=ADVANCED_BREP_SHAPE_REPRESENTATION('',(#637),#1057);
#12=CONICAL_SURFACE('',#697,0.02,1.0471975511966);
#13=CIRCLE('',#643,0.01);
#14=CIRCLE('',#644,0.01);
#15=CIRCLE('',#650,0.012);
#16=CIRCLE('',#651,0.012);
#17=CIRCLE('',#656,0.004);
#18=CIRCLE('',#657,0.004);
#19=CIRCLE('',#659,0.004);
#20=CIRCLE('',#660,0.004);
#21=CIRCLE('',#662,0.004);
#22=CIRCLE('',#663,0.004);
#23=CIRCLE('',#665,0.012);
#24=CIRCLE('',#666,0.012);
#25=CIRCLE('',#668,0.004);
#26=CIRCLE('',#669,0.004);
#27=CIRCLE('',#670,0.004);
#28=CIRCLE('',#671,0.004);
#29=CIRCLE('',#674,0.004);
#30=CIRCLE('',#675,0.004);
#31=CIRCLE('',#677,0.004);
#32=CIRCLE('',#678,0.004);
#33=CIRCLE('',#680,0.02);
#34=CIRCLE('',#681,0.004);
#35=CIRCLE('',#682,0.004);
#36=CIRCLE('',#684,0.004);
#37=CIRCLE('',#685,0.004);
#38=CIRCLE('',#695,0.0303923048454132);
#39=CYLINDRICAL_SURFACE('',#642,0.01);
#40=CYLINDRICAL_SURFACE('',#649,0.012);
#41=CYLINDRICAL_SURFACE('',#655,0.004);
#42=CYLINDRICAL_SURFACE('',#658,0.004);
#43=CYLINDRICAL_SURFACE('',#661,0.004);
#44=CYLINDRICAL_SURFACE('',#664,0.012);
#45=CYLINDRICAL_SURFACE('',#686,0.004);
#46=CYLINDRICAL_SURFACE('',#687,0.004);
#47=CYLINDRICAL_SURFACE('',#688,0.004);
#48=CYLINDRICAL_SURFACE('',#689,0.004);
#49=CYLINDRICAL_SURFACE('',#690,0.004);
#50=CYLINDRICAL_SURFACE('',#691,0.004);
#51=ORIENTED_EDGE('',*,*,#223,.T.);
#52=ORIENTED_EDGE('',*,*,#224,.T.);
#53=ORIENTED_EDGE('',*,*,#225,.T.);
#54=ORIENTED_EDGE('',*,*,#226,.F.);
#55=ORIENTED_EDGE('',*,*,#227,.T.);
#56=ORIENTED_EDGE('',*,*,#228,.T.);
#57=ORIENTED_EDGE('',*,*,#229,.T.);
#58=ORIENTED_EDGE('',*,*,#230,.T.);
#59=ORIENTED_EDGE('',*,*,#231,.F.);
#60=ORIENTED_EDGE('',*,*,#232,.F.);
#61=ORIENTED_EDGE('',*,*,#233,.T.);
#62=ORIENTED_EDGE('',*,*,#234,.T.);
#63=ORIENTED_EDGE('',*,*,#235,.F.);
#64=ORIENTED_EDGE('',*,*,#236,.T.);
#65=ORIENTED_EDGE('',*,*,#237,.F.);
#66=ORIENTED_EDGE('',*,*,#238,.T.);
#67=ORIENTED_EDGE('',*,*,#239,.T.);
#68=ORIENTED_EDGE('',*,*,#240,.F.);
#69=ORIENTED_EDGE('',*,*,#241,.T.);
#70=ORIENTED_EDGE('',*,*,#242,.T.);
#71=ORIENTED_EDGE('',*,*,#243,.F.);
#72=ORIENTED_EDGE('',*,*,#244,.T.);
#73=ORIENTED_EDGE('',*,*,#245,.F.);
#74=ORIENTED_EDGE('',*,*,#246,.T.);
#75=ORIENTED_EDGE('',*,*,#247,.T.);
#76=ORIENTED_EDGE('',*,*,#248,.T.);
#77=ORIENTED_EDGE('',*,*,#249,.T.);
#78=ORIENTED_EDGE('',*,*,#250,.F.);
#79=ORIENTED_EDGE('',*,*,#251,.T.);
#80=ORIENTED_EDGE('',*,*,#252,.T.);
#81=ORIENTED_EDGE('',*,*,#253,.F.);
#82=ORIENTED_EDGE('',*,*,#254,.T.);
#83=ORIENTED_EDGE('',*,*,#255,.T.);
#84=ORIENTED_EDGE('',*,*,#256,.F.);
#85=ORIENTED_EDGE('',*,*,#257,.F.);
#86=ORIENTED_EDGE('',*,*,#258,.F.);
#87=ORIENTED_EDGE('',*,*,#259,.T.);
#88=ORIENTED_EDGE('',*,*,#256,.T.);
#89=ORIENTED_EDGE('',*,*,#260,.T.);
#90=ORIENTED_EDGE('',*,*,#261,.T.);
#91=ORIENTED_EDGE('',*,*,#262,.F.);
#92=ORIENTED_EDGE('',*,*,#258,.T.);
#93=ORIENTED_EDGE('',*,*,#263,.T.);
#94=ORIENTED_EDGE('',*,*,#264,.T.);
#95=ORIENTED_EDGE('',*,*,#265,.F.);
#96=ORIENTED_EDGE('',*,*,#266,.T.);
#97=ORIENTED_EDGE('',*,*,#267,.T.);
#98=ORIENTED_EDGE('',*,*,#268,.T.);
#99=ORIENTED_EDGE('',*,*,#269,.T.);
#100=ORIENTED_EDGE('',*,*,#270,.T.);
#101=ORIENTED_EDGE('',*,*,#271,.F.);
#102=ORIENTED_EDGE('',*,*,#272,.T.);
#103=ORIENTED_EDGE('',*,*,#273,.T.);
#104=ORIENTED_EDGE('',*,*,#274,.F.);
#105=ORIENTED_EDGE('',*,*,#275,.T.);
#106=ORIENTED_EDGE('',*,*,#276,.F.);
#107=ORIENTED_EDGE('',*,*,#277,.T.);
#108=ORIENTED_EDGE('',*,*,#278,.F.);
#109=ORIENTED_EDGE('',*,*,#279,.T.);
#110=ORIENTED_EDGE('',*,*,#280,.F.);
#111=ORIENTED_EDGE('',*,*,#281,.F.);
#112=ORIENTED_EDGE('',*,*,#236,.F.);
#113=ORIENTED_EDGE('',*,*,#282,.T.);
#114=ORIENTED_EDGE('',*,*,#274,.T.);
#115=ORIENTED_EDGE('',*,*,#279,.F.);
#116=ORIENTED_EDGE('',*,*,#277,.F.);
#117=ORIENTED_EDGE('',*,*,#275,.F.);
#118=ORIENTED_EDGE('',*,*,#262,.T.);
#119=ORIENTED_EDGE('',*,*,#283,.T.);
#120=ORIENTED_EDGE('',*,*,#269,.F.);
#121=ORIENTED_EDGE('',*,*,#284,.T.);
#122=ORIENTED_EDGE('',*,*,#271,.T.);
#123=ORIENTED_EDGE('',*,*,#282,.F.);
#124=ORIENTED_EDGE('',*,*,#235,.T.);
#125=ORIENTED_EDGE('',*,*,#285,.T.);
#126=ORIENTED_EDGE('',*,*,#243,.T.);
#127=ORIENTED_EDGE('',*,*,#286,.F.);
#128=ORIENTED_EDGE('',*,*,#249,.F.);
#129=ORIENTED_EDGE('',*,*,#287,.T.);
#130=ORIENTED_EDGE('',*,*,#253,.T.);
#131=ORIENTED_EDGE('',*,*,#259,.F.);
#132=ORIENTED_EDGE('',*,*,#265,.T.);
#133=ORIENTED_EDGE('',*,*,#288,.T.);
#134=ORIENTED_EDGE('',*,*,#245,.T.);
#135=ORIENTED_EDGE('',*,*,#289,.F.);
#136=ORIENTED_EDGE('',*,*,#239,.F.);
#137=ORIENTED_EDGE('',*,*,#290,.T.);
#138=ORIENTED_EDGE('',*,*,#280,.T.);
#139=ORIENTED_EDGE('',*,*,#278,.T.);
#140=ORIENTED_EDGE('',*,*,#276,.T.);
#141=ORIENTED_EDGE('',*,*,#267,.F.);
#142=ORIENTED_EDGE('',*,*,#291,.T.);
#143=ORIENTED_EDGE('',*,*,#237,.T.);
#144=ORIENTED_EDGE('',*,*,#292,.T.);
#145=ORIENTED_EDGE('',*,*,#233,.F.);
#146=ORIENTED_EDGE('',*,*,#281,.T.);
#147=ORIENTED_EDGE('',*,*,#273,.F.);
#148=ORIENTED_EDGE('',*,*,#293,.T.);
#149=ORIENTED_EDGE('',*,*,#247,.F.);
#150=ORIENTED_EDGE('',*,*,#294,.T.);
#151=ORIENTED_EDGE('',*,*,#263,.F.);
#152=ORIENTED_EDGE('',*,*,#295,.T.);
#153=ORIENTED_EDGE('',*,*,#260,.F.);
#154=ORIENTED_EDGE('',*,*,#257,.T.);
#155=ORIENTED_EDGE('',*,*,#255,.F.);
#156=ORIENTED_EDGE('',*,*,#296,.T.);
#157=ORIENTED_EDGE('',*,*,#297,.F.);
#158=ORIENTED_EDGE('',*,*,#298,.T.);
#159=ORIENTED_EDGE('',*,*,#223,.F.);
#160=ORIENTED_EDGE('',*,*,#299,.T.);
#161=ORIENTED_EDGE('',*,*,#250,.T.);
#162=ORIENTED_EDGE('',*,*,#286,.T.);
#163=ORIENTED_EDGE('',*,*,#242,.F.);
#164=ORIENTED_EDGE('',*,*,#300,.T.);
#165=ORIENTED_EDGE('',*,*,#227,.F.);
#166=ORIENTED_EDGE('',*,*,#301,.F.);
#167=ORIENTED_EDGE('',*,*,#231,.T.);
#168=ORIENTED_EDGE('',*,*,#252,.F.);
#169=ORIENTED_EDGE('',*,*,#302,.T.);
#170=ORIENTED_EDGE('',*,*,#229,.F.);
#171=ORIENTED_EDGE('',*,*,#303,.T.);
#172=ORIENTED_EDGE('',*,*,#240,.T.);
#173=ORIENTED_EDGE('',*,*,#289,.T.);
#174=ORIENTED_EDGE('',*,*,#299,.F.);
#175=ORIENTED_EDGE('',*,*,#230,.F.);
#176=ORIENTED_EDGE('',*,*,#302,.F.);
#177=ORIENTED_EDGE('',*,*,#251,.F.);
#178=ORIENTED_EDGE('',*,*,#300,.F.);
#179=ORIENTED_EDGE('',*,*,#241,.F.);
#180=ORIENTED_EDGE('',*,*,#303,.F.);
#181=ORIENTED_EDGE('',*,*,#228,.F.);
#182=ORIENTED_EDGE('',*,*,#283,.F.);
#183=ORIENTED_EDGE('',*,*,#261,.F.);
#184=ORIENTED_EDGE('',*,*,#295,.F.);
#185=ORIENTED_EDGE('',*,*,#270,.F.);
#186=ORIENTED_EDGE('',*,*,#284,.F.);
#187=ORIENTED_EDGE('',*,*,#268,.F.);
#188=ORIENTED_EDGE('',*,*,#293,.F.);
#189=ORIENTED_EDGE('',*,*,#272,.F.);
#190=ORIENTED_EDGE('',*,*,#287,.F.);
#191=ORIENTED_EDGE('',*,*,#248,.F.);
#192=ORIENTED_EDGE('',*,*,#296,.F.);
#193=ORIENTED_EDGE('',*,*,#254,.F.);
#194=ORIENTED_EDGE('',*,*,#285,.F.);
#195=ORIENTED_EDGE('',*,*,#234,.F.);
#196=ORIENTED_EDGE('',*,*,#292,.F.);
#197=ORIENTED_EDGE('',*,*,#244,.F.);
#198=ORIENTED_EDGE('',*,*,#294,.F.);
#199=ORIENTED_EDGE('',*,*,#246,.F.);
#200=ORIENTED_EDGE('',*,*,#288,.F.);
#201=ORIENTED_EDGE('',*,*,#264,.F.);
#202=ORIENTED_EDGE('',*,*,#291,.F.);
#203=ORIENTED_EDGE('',*,*,#266,.F.);
#204=ORIENTED_EDGE('',*,*,#290,.F.);
#205=ORIENTED_EDGE('',*,*,#238,.F.);
#206=ORIENTED_EDGE('',*,*,#304,.F.);
#207=ORIENTED_EDGE('',*,*,#305,.T.);
#208=ORIENTED_EDGE('',*,*,#306,.T.);
#209=ORIENTED_EDGE('',*,*,#225,.F.);
#210=ORIENTED_EDGE('',*,*,#232,.T.);
#211=ORIENTED_EDGE('',*,*,#298,.F.);
#212=ORIENTED_EDGE('',*,*,#307,.F.);
#213=ORIENTED_EDGE('',*,*,#304,.T.);
#214=ORIENTED_EDGE('',*,*,#224,.F.);
#215=ORIENTED_EDGE('',*,*,#297,.T.);
#216=ORIENTED_EDGE('',*,*,#308,.F.);
#217=ORIENTED_EDGE('',*,*,#305,.F.);
#218=ORIENTED_EDGE('',*,*,#307,.T.);
#219=ORIENTED_EDGE('',*,*,#226,.T.);
#220=ORIENTED_EDGE('',*,*,#306,.F.);
#221=ORIENTED_EDGE('',*,*,#308,.T.);
#222=ORIENTED_EDGE('',*,*,#301,.T.);
#223=EDGE_CURVE('',#309,#310,#369,.T.);
#224=EDGE_CURVE('',#310,#311,#370,.F.);
#225=EDGE_CURVE('',#311,#312,#371,.T.);
#226=EDGE_CURVE('',#313,#312,#372,.T.);
#227=EDGE_CURVE('',#313,#314,#373,.T.);
#228=EDGE_CURVE('',#314,#315,#374,.T.);
#229=EDGE_CURVE('',#315,#316,#375,.T.);
#230=EDGE_CURVE('',#316,#309,#376,.F.);
#231=EDGE_CURVE('',#317,#317,#13,.T.);
#232=EDGE_CURVE('',#318,#318,#14,.F.);
#233=EDGE_CURVE('',#319,#320,#377,.T.);
#234=EDGE_CURVE('',#320,#321,#378,.F.);
#235=EDGE_CURVE('',#322,#321,#379,.T.);
#236=EDGE_CURVE('',#322,#319,#380,.T.);
#237=EDGE_CURVE('',#323,#324,#381,.T.);
#238=EDGE_CURVE('',#323,#325,#382,.T.);
#239=EDGE_CURVE('',#325,#326,#383,.T.);
#240=EDGE_CURVE('',#327,#326,#384,.T.);
#241=EDGE_CURVE('',#327,#328,#385,.F.);
#242=EDGE_CURVE('',#328,#329,#386,.T.);
#243=EDGE_CURVE('',#330,#329,#387,.T.);
#244=EDGE_CURVE('',#330,#324,#388,.T.);
#245=EDGE_CURVE('',#331,#332,#389,.T.);
#246=EDGE_CURVE('',#331,#333,#390,.T.);
#247=EDGE_CURVE('',#333,#334,#391,.T.);
#248=EDGE_CURVE('',#334,#335,#392,.F.);
#249=EDGE_CURVE('',#335,#336,#393,.T.);
#250=EDGE_CURVE('',#337,#336,#394,.T.);
#251=EDGE_CURVE('',#337,#338,#395,.T.);
#252=EDGE_CURVE('',#338,#332,#396,.T.);
#253=EDGE_CURVE('',#339,#340,#397,.T.);
#254=EDGE_CURVE('',#339,#341,#398,.T.);
#255=EDGE_CURVE('',#341,#342,#399,.T.);
#256=EDGE_CURVE('',#340,#342,#400,.T.);
#257=EDGE_CURVE('',#343,#342,#15,.T.);
#258=EDGE_CURVE('',#344,#343,#401,.T.);
#259=EDGE_CURVE('',#344,#340,#16,.T.);
#260=EDGE_CURVE('',#343,#345,#402,.T.);
#261=EDGE_CURVE('',#345,#346,#403,.F.);
#262=EDGE_CURVE('',#344,#346,#404,.T.);
#263=EDGE_CURVE('',#347,#348,#405,.T.);
#264=EDGE_CURVE('',#348,#349,#406,.T.);
#265=EDGE_CURVE('',#350,#349,#407,.T.);
#266=EDGE_CURVE('',#350,#351,#408,.T.);
#267=EDGE_CURVE('',#351,#352,#409,.T.);
#268=EDGE_CURVE('',#352,#353,#410,.F.);
#269=EDGE_CURVE('',#353,#354,#411,.T.);
#270=EDGE_CURVE('',#354,#347,#412,.T.);
#271=EDGE_CURVE('',#355,#356,#413,.T.);
#272=EDGE_CURVE('',#355,#357,#414,.T.);
#273=EDGE_CURVE('',#357,#358,#415,.T.);
#274=EDGE_CURVE('',#356,#358,#416,.T.);
#275=EDGE_CURVE('',#359,#359,#17,.T.);
#276=EDGE_CURVE('',#360,#360,#18,.T.);
#277=EDGE_CURVE('',#361,#361,#19,.T.);
#278=EDGE_CURVE('',#362,#362,#20,.T.);
#279=EDGE_CURVE('',#363,#363,#21,.T.);
#280=EDGE_CURVE('',#364,#364,#22,.T.);
#281=EDGE_CURVE('',#319,#358,#23,.T.);
#282=EDGE_CURVE('',#322,#356,#24,.T.);
#283=EDGE_CURVE('',#346,#354,#25,.T.);
#284=EDGE_CURVE('',#353,#355,#26,.T.);
#285=EDGE_CURVE('',#321,#330,#27,.T.);
#286=EDGE_CURVE('',#336,#329,#417,.T.);
#287=EDGE_CURVE('',#335,#339,#28,.T.);
#288=EDGE_CURVE('',#349,#331,#418,.F.);
#289=EDGE_CURVE('',#326,#332,#419,.T.);
#290=EDGE_CURVE('',#325,#350,#420,.T.);
#291=EDGE_CURVE('',#351,#323,#421,.T.);
#292=EDGE_CURVE('',#324,#320,#29,.F.);
#293=EDGE_CURVE('',#357,#352,#30,.F.);
#294=EDGE_CURVE('',#333,#348,#422,.F.);
#295=EDGE_CURVE('',#347,#345,#31,.F.);
#296=EDGE_CURVE('',#341,#334,#32,.F.);
#297=EDGE_CURVE('',#365,#366,#33,.T.);
#298=EDGE_CURVE('',#365,#310,#423,.F.);
#299=EDGE_CURVE('',#309,#337,#34,.F.);
#300=EDGE_CURVE('',#328,#314,#35,.F.);
#301=EDGE_CURVE('',#366,#313,#424,.T.);
#302=EDGE_CURVE('',#338,#316,#36,.F.);
#303=EDGE_CURVE('',#315,#327,#37,.F.);
#304=EDGE_CURVE('',#367,#311,#425,.F.);
#305=EDGE_CURVE('',#367,#368,#38,.T.);
#306=EDGE_CURVE('',#368,#312,#426,.T.);
#307=EDGE_CURVE('',#367,#365,#427,.F.);
#308=EDGE_CURVE('',#368,#366,#428,.F.);
#309=VERTEX_POINT('',#880);
#310=VERTEX_POINT('',#881);
#311=VERTEX_POINT('',#883);
#312=VERTEX_POINT('',#885);
#313=VERTEX_POINT('',#887);
#314=VERTEX_POINT('',#889);
#315=VERTEX_POINT('',#891);
#316=VERTEX_POINT('',#893);
#317=VERTEX_POINT('',#897);
#318=VERTEX_POINT('',#899);
#319=VERTEX_POINT('',#902);
#320=VERTEX_POINT('',#903);
#321=VERTEX_POINT('',#905);
#322=VERTEX_POINT('',#907);
#323=VERTEX_POINT('',#911);
#324=VERTEX_POINT('',#912);
#325=VERTEX_POINT('',#914);
#326=VERTEX_POINT('',#916);
#327=VERTEX_POINT('',#918);
#328=VERTEX_POINT('',#920);
#329=VERTEX_POINT('',#922);
#330=VERTEX_POINT('',#924);
#331=VERTEX_POINT('',#928);
#332=VERTEX_POINT('',#929);
#333=VERTEX_POINT('',#931);
#334=VERTEX_POINT('',#933);
#335=VERTEX_POINT('',#935);
#336=VERTEX_POINT('',#937);
#337=VERTEX_POINT('',#939);
#338=VERTEX_POINT('',#941);
#339=VERTEX_POINT('',#945);
#340=VERTEX_POINT('',#946);
#341=VERTEX_POINT('',#948);
#342=VERTEX_POINT('',#950);
#343=VERTEX_POINT('',#954);
#344=VERTEX_POINT('',#956);
#345=VERTEX_POINT('',#960);
#346=VERTEX_POINT('',#962);
#347=VERTEX_POINT('',#966);
#348=VERTEX_POINT('',#967);
#349=VERTEX_POINT('',#969);
#350=VERTEX_POINT('',#971);
#351=VERTEX_POINT('',#973);
#352=VERTEX_POINT('',#975);
#353=VERTEX_POINT('',#977);
#354=VERTEX_POINT('',#979);
#355=VERTEX_POINT('',#983);
#356=VERTEX_POINT('',#984);
#357=VERTEX_POINT('',#986);
#358=VERTEX_POINT('',#988);
#359=VERTEX_POINT('',#992);
#360=VERTEX_POINT('',#994);
#361=VERTEX_POINT('',#997);
#362=VERTEX_POINT('',#999);
#363=VERTEX_POINT('',#1002);
#364=VERTEX_POINT('',#1004);
#365=VERTEX_POINT('',#1028);
#366=VERTEX_POINT('',#1029);
#367=VERTEX_POINT('',#1047);
#368=VERTEX_POINT('',#1049);
#369=LINE('',#879,#429);
#370=LINE('',#882,#430);
#371=LINE('',#884,#431);
#372=LINE('',#886,#432);
#373=LINE('',#888,#433);
#374=LINE('',#890,#434);
#375=LINE('',#892,#435);
#376=LINE('',#894,#436);
#377=LINE('',#901,#437);
#378=LINE('',#904,#438);
#379=LINE('',#906,#439);
#380=LINE('',#908,#440);
#381=LINE('',#910,#441);
#382=LINE('',#913,#442);
#383=LINE('',#915,#443);
#384=LINE('',#917,#444);
#385=LINE('',#919,#445);
#386=LINE('',#921,#446);
#387=LINE('',#923,#447);
#388=LINE('',#925,#448);
#389=LINE('',#927,#449);
#390=LINE('',#930,#450);
#391=LINE('',#932,#451);
#392=LINE('',#934,#452);
#393=LINE('',#936,#453);
#394=LINE('',#938,#454);
#395=LINE('',#940,#455);
#396=LINE('',#942,#456);
#397=LINE('',#944,#457);
#398=LINE('',#947,#458);
#399=LINE('',#949,#459);
#400=LINE('',#951,#460);
#401=LINE('',#955,#461);
#402=LINE('',#959,#462);
#403=LINE('',#961,#463);
#404=LINE('',#963,#464);
#405=LINE('',#965,#465);
#406=LINE('',#968,#466);
#407=LINE('',#970,#467);
#408=LINE('',#972,#468);
#409=LINE('',#974,#469);
#410=LINE('',#976,#470);
#411=LINE('',#978,#471);
#412=LINE('',#980,#472);
#413=LINE('',#982,#473);
#414=LINE('',#985,#474);
#415=LINE('',#987,#475);
#416=LINE('',#989,#476);
#417=LINE('',#1012,#477);
#418=LINE('',#1015,#478);
#419=LINE('',#1016,#479);
#420=LINE('',#1017,#480);
#421=LINE('',#1019,#481);
#422=LINE('',#1023,#482);
#423=LINE('',#1030,#483);
#424=LINE('',#1033,#484);
#425=LINE('',#1046,#485);
#426=LINE('',#1050,#486);
#427=LINE('',#1052,#487);
#428=LINE('',#1054,#488);
#429=VECTOR('',#703,1.);
#430=VECTOR('',#704,1.);
#431=VECTOR('',#705,1.);
#432=VECTOR('',#706,1.);
#433=VECTOR('',#707,1.);
#434=VECTOR('',#708,1.);
#435=VECTOR('',#709,1.);
#436=VECTOR('',#710,1.);
#437=VECTOR('',#719,1.);
#438=VECTOR('',#720,1.);
#439=VECTOR('',#721,1.);
#440=VECTOR('',#722,1.);
#441=VECTOR('',#725,1.);
#442=VECTOR('',#726,1.);
#443=VECTOR('',#727,1.);
#444=VECTOR('',#728,1.);
#445=VECTOR('',#729,1.);
#446=VECTOR('',#730,1.);
#447=VECTOR('',#731,1.);
#448=VECTOR('',#732,1.);
#449=VECTOR('',#735,1.);
#450=VECTOR('',#736,1.);
#451=VECTOR('',#737,1.);
#452=VECTOR('',#738,1.);
#453=VECTOR('',#739,1.);
#454=VECTOR('',#740,1.);
#455=VECTOR('',#741,1.);
#456=VECTOR('',#742,1.);
#457=VECTOR('',#745,1.);
#458=VECTOR('',#746,1.);
#459=VECTOR('',#747,1.);
#460=VECTOR('',#748,1.);
#461=VECTOR('',#753,1.);
#462=VECTOR('',#758,1.);
#463=VECTOR('',#759,1.);
#464=VECTOR('',#760,1.);
#465=VECTOR('',#763,1.);
#466=VECTOR('',#764,1.);
#467=VECTOR('',#765,1.);
#468=VECTOR('',#766,1.);
#469=VECTOR('',#767,1.);
#470=VECTOR('',#768,1.);
#471=VECTOR('',#769,1.);
#472=VECTOR('',#770,1.);
#473=VECTOR('',#773,1.);
#474=VECTOR('',#774,1.);
#475=VECTOR('',#775,1.);
#476=VECTOR('',#776,1.);
#477=VECTOR('',#809,1.);
#478=VECTOR('',#814,1.);
#479=VECTOR('',#815,1.);
#480=VECTOR('',#816,1.);
#481=VECTOR('',#819,1.);
#482=VECTOR('',#826,1.);
#483=VECTOR('',#835,1.);
#484=VECTOR('',#840,1.);
#485=VECTOR('',#865,1.);
#486=VECTOR('',#868,1.);
#487=VECTOR('',#871,1.);
#488=VECTOR('',#874,1.);
#489=EDGE_LOOP('',(#51,#52,#53,#54,#55,#56,#57,#58));
#490=EDGE_LOOP('',(#59));
#491=EDGE_LOOP('',(#60));
#492=EDGE_LOOP('',(#61,#62,#63,#64));
#493=EDGE_LOOP('',(#65,#66,#67,#68,#69,#70,#71,#72));
#494=EDGE_LOOP('',(#73,#74,#75,#76,#77,#78,#79,#80));
#495=EDGE_LOOP('',(#81,#82,#83,#84));
#496=EDGE_LOOP('',(#85,#86,#87,#88));
#497=EDGE_LOOP('',(#89,#90,#91,#92));
#498=EDGE_LOOP('',(#93,#94,#95,#96,#97,#98,#99,#100));
#499=EDGE_LOOP('',(#101,#102,#103,#104));
#500=EDGE_LOOP('',(#105));
#501=EDGE_LOOP('',(#106));
#502=EDGE_LOOP('',(#107));
#503=EDGE_LOOP('',(#108));
#504=EDGE_LOOP('',(#109));
#505=EDGE_LOOP('',(#110));
#506=EDGE_LOOP('',(#111,#112,#113,#114));
#507=EDGE_LOOP('',(#115));
#508=EDGE_LOOP('',(#116));
#509=EDGE_LOOP('',(#117));
#510=EDGE_LOOP('',(#118,#119,#120,#121,#122,#123,#124,#125,#126,#127,#128,
#129,#130,#131));
#511=EDGE_LOOP('',(#132,#133,#134,#135,#136,#137));
#512=EDGE_LOOP('',(#138));
#513=EDGE_LOOP('',(#139));
#514=EDGE_LOOP('',(#140));
#515=EDGE_LOOP('',(#141,#142,#143,#144,#145,#146,#147,#148));
#516=EDGE_LOOP('',(#149,#150,#151,#152,#153,#154,#155,#156));
#517=EDGE_LOOP('',(#157,#158,#159,#160,#161,#162,#163,#164,#165,#166));
#518=EDGE_LOOP('',(#167));
#519=EDGE_LOOP('',(#168,#169,#170,#171,#172,#173));
#520=EDGE_LOOP('',(#174,#175,#176,#177));
#521=EDGE_LOOP('',(#178,#179,#180,#181));
#522=EDGE_LOOP('',(#182,#183,#184,#185));
#523=EDGE_LOOP('',(#186,#187,#188,#189));
#524=EDGE_LOOP('',(#190,#191,#192,#193));
#525=EDGE_LOOP('',(#194,#195,#196,#197));
#526=EDGE_LOOP('',(#198,#199,#200,#201));
#527=EDGE_LOOP('',(#202,#203,#204,#205));
#528=EDGE_LOOP('',(#206,#207,#208,#209));
#529=EDGE_LOOP('',(#210));
#530=EDGE_LOOP('',(#211,#212,#213,#214));
#531=EDGE_LOOP('',(#215,#216,#217,#218));
#532=EDGE_LOOP('',(#219,#220,#221,#222));
#533=FACE_BOUND('',#489,.T.);
#534=FACE_BOUND('',#490,.T.);
#535=FACE_BOUND('',#491,.T.);
#536=FACE_BOUND('',#492,.T.);
#537=FACE_BOUND('',#493,.T.);
#538=FACE_BOUND('',#494,.T.);
#539=FACE_BOUND('',#495,.T.);
#540=FACE_BOUND('',#496,.T.);
#541=FACE_BOUND('',#497,.T.);
#542=FACE_BOUND('',#498,.T.);
#543=FACE_BOUND('',#499,.T.);
#544=FACE_BOUND('',#500,.T.);
#545=FACE_BOUND('',#501,.T.);
#546=FACE_BOUND('',#502,.T.);
#547=FACE_BOUND('',#503,.T.);
#548=FACE_BOUND('',#504,.T.);
#549=FACE_BOUND('',#505,.T.);
#550=FACE_BOUND('',#506,.T.);
#551=FACE_BOUND('',#507,.T.);
#552=FACE_BOUND('',#508,.T.);
#553=FACE_BOUND('',#509,.T.);
#554=FACE_BOUND('',#510,.T.);
#555=FACE_BOUND('',#511,.T.);
#556=FACE_BOUND('',#512,.T.);
#557=FACE_BOUND('',#513,.T.);
#558=FACE_BOUND('',#514,.T.);
#559=FACE_BOUND('',#515,.T.);
#560=FACE_BOUND('',#516,.T.);
#561=FACE_BOUND('',#517,.T.);
#562=FACE_BOUND('',#518,.T.);
#563=FACE_BOUND('',#519,.T.);
#564=FACE_BOUND('',#520,.T.);
#565=FACE_BOUND('',#521,.T.);
#566=FACE_BOUND('',#522,.T.);
#567=FACE_BOUND('',#523,.T.);
#568=FACE_BOUND('',#524,.T.);
#569=FACE_BOUND('',#525,.T.);
#570=FACE_BOUND('',#526,.T.);
#571=FACE_BOUND('',#527,.T.);
#572=FACE_BOUND('',#528,.T.);
#573=FACE_BOUND('',#529,.T.);
#574=FACE_BOUND('',#530,.T.);
#575=FACE_BOUND('',#531,.T.);
#576=FACE_BOUND('',#532,.T.);
#577=PLANE('',#641);
#578=PLANE('',#645);
#579=PLANE('',#646);
#580=PLANE('',#647);
#581=PLANE('',#648);
#582=PLANE('',#652);
#583=PLANE('',#653);
#584=PLANE('',#654);
#585=PLANE('',#667);
#586=PLANE('',#672);
#587=PLANE('',#673);
#588=PLANE('',#676);
#589=PLANE('',#679);
#590=PLANE('',#683);
#591=PLANE('',#692);
#592=PLANE('',#693);
#593=PLANE('',#694);
#594=PLANE('',#696);
#595=PLANE('',#698);
#596=ADVANCED_FACE('',(#533),#577,.T.);
#597=ADVANCED_FACE('',(#534,#535),#39,.F.);
#598=ADVANCED_FACE('',(#536),#578,.F.);
#599=ADVANCED_FACE('',(#537),#579,.F.);
#600=ADVANCED_FACE('',(#538),#580,.T.);
#601=ADVANCED_FACE('',(#539),#581,.F.);
#602=ADVANCED_FACE('',(#540),#40,.F.);
#603=ADVANCED_FACE('',(#541),#582,.F.);
#604=ADVANCED_FACE('',(#542),#583,.T.);
#605=ADVANCED_FACE('',(#543),#584,.F.);
#606=ADVANCED_FACE('',(#544,#545),#41,.F.);
#607=ADVANCED_FACE('',(#546,#547),#42,.F.);
#608=ADVANCED_FACE('',(#548,#549),#43,.F.);
#609=ADVANCED_FACE('',(#550),#44,.F.);
#610=ADVANCED_FACE('',(#551,#552,#553,#554),#585,.T.);
#611=ADVANCED_FACE('',(#555,#556,#557,#558),#586,.F.);
#612=ADVANCED_FACE('',(#559),#587,.T.);
#613=ADVANCED_FACE('',(#560),#588,.T.);
#614=ADVANCED_FACE('',(#561),#589,.F.);
#615=ADVANCED_FACE('',(#562,#563),#590,.F.);
#616=ADVANCED_FACE('',(#564),#45,.T.);
#617=ADVANCED_FACE('',(#565),#46,.T.);
#618=ADVANCED_FACE('',(#566),#47,.T.);
#619=ADVANCED_FACE('',(#567),#48,.T.);
#620=ADVANCED_FACE('',(#568),#49,.T.);
#621=ADVANCED_FACE('',(#569),#50,.T.);
#622=ADVANCED_FACE('',(#570),#591,.F.);
#623=ADVANCED_FACE('',(#571),#592,.T.);
#624=ADVANCED_FACE('',(#572,#573),#593,.T.);
#625=ADVANCED_FACE('',(#574),#594,.F.);
#626=ADVANCED_FACE('',(#575),#12,.F.);
#627=ADVANCED_FACE('',(#576),#595,.F.);
#628=CLOSED_SHELL('',(#596,#597,#598,#599,#600,#601,#602,#603,#604,#605,
#606,#607,#608,#609,#610,#611,#612,#613,#614,#615,#616,#617,#618,#619,#620,
#621,#622,#623,#624,#625,#626,#627));
#629=STYLED_ITEM('',(#630),#637);
#630=PRESENTATION_STYLE_ASSIGNMENT((#631));
#631=SURFACE_STYLE_USAGE(.BOTH.,#632);
#632=SURFACE_SIDE_STYLE('',(#633));
#633=SURFACE_STYLE_FILL_AREA(#634);
#634=FILL_AREA_STYLE('',(#635));
#635=FILL_AREA_STYLE_COLOUR('',#636);
#636=COLOUR_RGB('',0.615686274509804,0.811764705882353,0.929411764705882);
#637=MANIFOLD_SOLID_BREP('Part 1',#628);
#638=SHAPE_DEFINITION_REPRESENTATION(#1062,#639);
#639=SHAPE_REPRESENTATION('Part 1',(#640),#1057);
#640=AXIS2_PLACEMENT_3D('',#877,#699,#700);
#641=AXIS2_PLACEMENT_3D('',#878,#701,#702);
#642=AXIS2_PLACEMENT_3D('',#895,#711,#712);
#643=AXIS2_PLACEMENT_3D('',#896,#713,#714);
#644=AXIS2_PLACEMENT_3D('',#898,#715,#716);
#645=AXIS2_PLACEMENT_3D('',#900,#717,#718);
#646=AXIS2_PLACEMENT_3D('',#909,#723,#724);
#647=AXIS2_PLACEMENT_3D('',#926,#733,#734);
#648=AXIS2_PLACEMENT_3D('',#943,#743,#744);
#649=AXIS2_PLACEMENT_3D('',#952,#749,#750);
#650=AXIS2_PLACEMENT_3D('',#953,#751,#752);
#651=AXIS2_PLACEMENT_3D('',#957,#754,#755);
#652=AXIS2_PLACEMENT_3D('',#958,#756,#757);
#653=AXIS2_PLACEMENT_3D('',#964,#761,#762);
#654=AXIS2_PLACEMENT_3D('',#981,#771,#772);
#655=AXIS2_PLACEMENT_3D('',#990,#777,#778);
#656=AXIS2_PLACEMENT_3D('',#991,#779,#780);
#657=AXIS2_PLACEMENT_3D('',#993,#781,#782);
#658=AXIS2_PLACEMENT_3D('',#995,#783,#784);
#659=AXIS2_PLACEMENT_3D('',#996,#785,#786);
#660=AXIS2_PLACEMENT_3D('',#998,#787,#788);
#661=AXIS2_PLACEMENT_3D('',#1000,#789,#790);
#662=AXIS2_PLACEMENT_3D('',#1001,#791,#792);
#663=AXIS2_PLACEMENT_3D('',#1003,#793,#794);
#664=AXIS2_PLACEMENT_3D('',#1005,#795,#796);
#665=AXIS2_PLACEMENT_3D('',#1006,#797,#798);
#666=AXIS2_PLACEMENT_3D('',#1007,#799,#800);
#667=AXIS2_PLACEMENT_3D('',#1008,#801,#802);
#668=AXIS2_PLACEMENT_3D('',#1009,#803,#804);
#669=AXIS2_PLACEMENT_3D('',#1010,#805,#806);
#670=AXIS2_PLACEMENT_3D('',#1011,#807,#808);
#671=AXIS2_PLACEMENT_3D('',#1013,#810,#811);
#672=AXIS2_PLACEMENT_3D('',#1014,#812,#813);
#673=AXIS2_PLACEMENT_3D('',#1018,#817,#818);
#674=AXIS2_PLACEMENT_3D('',#1020,#820,#821);
#675=AXIS2_PLACEMENT_3D('',#1021,#822,#823);
#676=AXIS2_PLACEMENT_3D('',#1022,#824,#825);
#677=AXIS2_PLACEMENT_3D('',#1024,#827,#828);
#678=AXIS2_PLACEMENT_3D('',#1025,#829,#830);
#679=AXIS2_PLACEMENT_3D('',#1026,#831,#832);
#680=AXIS2_PLACEMENT_3D('',#1027,#833,#834);
#681=AXIS2_PLACEMENT_3D('',#1031,#836,#837);
#682=AXIS2_PLACEMENT_3D('',#1032,#838,#839);
#683=AXIS2_PLACEMENT_3D('',#1034,#841,#842);
#684=AXIS2_PLACEMENT_3D('',#1035,#843,#844);
#685=AXIS2_PLACEMENT_3D('',#1036,#845,#846);
#686=AXIS2_PLACEMENT_3D('',#1037,#847,#848);
#687=AXIS2_PLACEMENT_3D('',#1038,#849,#850);
#688=AXIS2_PLACEMENT_3D('',#1039,#851,#852);
#689=AXIS2_PLACEMENT_3D('',#1040,#853,#854);
#690=AXIS2_PLACEMENT_3D('',#1041,#855,#856);
#691=AXIS2_PLACEMENT_3D('',#1042,#857,#858);
#692=AXIS2_PLACEMENT_3D('',#1043,#859,#860);
#693=AXIS2_PLACEMENT_3D('',#1044,#861,#862);
#694=AXIS2_PLACEMENT_3D('',#1045,#863,#864);
#695=AXIS2_PLACEMENT_3D('',#1048,#866,#867);
#696=AXIS2_PLACEMENT_3D('',#1051,#869,#870);
#697=AXIS2_PLACEMENT_3D('',#1053,#872,#873);
#698=AXIS2_PLACEMENT_3D('',#1055,#875,#876);
#699=DIRECTION('',(0.,0.,1.));
#700=DIRECTION('',(1.,0.,0.));
#701=DIRECTION('',(0.,0.,1.));
#702=DIRECTION('',(1.,0.,0.));
#703=DIRECTION('',(1.,0.,0.));
#704=DIRECTION('',(0.866025403784439,-0.5,0.));
#705=DIRECTION('',(1.,0.,0.));
#706=DIRECTION('',(0.866025403784439,0.5,0.));
#707=DIRECTION('',(1.,0.,0.));
#708=DIRECTION('',(0.,1.,0.));
#709=DIRECTION('',(-1.,-1.15648231731787E-16,0.));
#710=DIRECTION('',(0.,1.,0.));
#711=DIRECTION('',(0.,-1.,0.));
#712=DIRECTION('',(0.,0.,-1.));
#713=DIRECTION('',(1.15648231731787E-16,-1.,0.));
#714=DIRECTION('',(1.,1.15648231731787E-16,0.));
#715=DIRECTION('',(0.,-1.,0.));
#716=DIRECTION('',(0.,0.,-1.));
#717=DIRECTION('',(-2.49366499671666E-16,1.,0.));
#718=DIRECTION('',(-1.,-2.49366499671666E-16,0.));
#719=DIRECTION('',(1.,2.49366499671666E-16,0.));
#720=DIRECTION('',(0.,0.,-1.));
#721=DIRECTION('',(1.,2.49366499671666E-16,0.));
#722=DIRECTION('',(0.,0.,-1.));
#723=DIRECTION('',(-1.,0.,0.));
#724=DIRECTION('',(0.,0.,1.));
#725=DIRECTION('',(1.82602471155453E-16,1.,0.));
#726=DIRECTION('',(0.,0.,-1.));
#727=DIRECTION('',(0.,1.,0.));
#728=DIRECTION('',(0.,0.,-1.));
#729=DIRECTION('',(0.,1.,0.));
#730=DIRECTION('',(0.,0.,-1.));
#731=DIRECTION('',(0.,1.,0.));
#732=DIRECTION('',(0.,0.,-1.));
#733=DIRECTION('',(-1.,0.,0.));
#734=DIRECTION('',(0.,0.,1.));
#735=DIRECTION('',(0.,1.,0.));
#736=DIRECTION('',(0.,0.,1.));
#737=DIRECTION('',(1.82602471155453E-16,1.,0.));
#738=DIRECTION('',(0.,0.,-1.));
#739=DIRECTION('',(0.,1.,0.));
#740=DIRECTION('',(0.,0.,-1.));
#741=DIRECTION('',(0.,1.,0.));
#742=DIRECTION('',(0.,0.,-1.));
#743=DIRECTION('',(-2.43945488809238E-16,1.,0.));
#744=DIRECTION('',(-1.,-2.43945488809238E-16,0.));
#745=DIRECTION('',(1.,2.43945488809238E-16,0.));
#746=DIRECTION('',(0.,0.,-1.));
#747=DIRECTION('',(1.,2.43945488809238E-16,0.));
#748=DIRECTION('',(0.,0.,-1.));
#749=DIRECTION('',(0.,0.,-1.));
#750=DIRECTION('',(-1.,0.,0.));
#751=DIRECTION('',(0.,0.,1.));
#752=DIRECTION('',(1.,0.,0.));
#753=DIRECTION('',(0.,0.,-1.));
#754=DIRECTION('',(0.,0.,1.));
#755=DIRECTION('',(1.,0.,0.));
#756=DIRECTION('',(1.,6.67201336914157E-17,0.));
#757=DIRECTION('',(-6.67201336914157E-17,1.,0.));
#758=DIRECTION('',(6.67201336914157E-17,-1.,0.));
#759=DIRECTION('',(0.,0.,-1.));
#760=DIRECTION('',(6.67201336914157E-17,-1.,0.));
#761=DIRECTION('',(4.33680868994202E-16,-1.,0.));
#762=DIRECTION('',(1.,4.33680868994202E-16,0.));
#763=DIRECTION('',(-1.,-1.33440267382831E-16,0.));
#764=DIRECTION('',(0.,0.,-1.));
#765=DIRECTION('',(-1.,-4.33680868994202E-16,0.));
#766=DIRECTION('',(0.,0.,1.));
#767=DIRECTION('',(-1.,0.,0.));
#768=DIRECTION('',(0.,0.,-1.));
#769=DIRECTION('',(-1.,-4.33680868994202E-16,0.));
#770=DIRECTION('',(0.,0.,-1.));
#771=DIRECTION('',(-1.,0.,0.));
#772=DIRECTION('',(0.,0.,1.));
#773=DIRECTION('',(0.,1.,0.));
#774=DIRECTION('',(0.,0.,-1.));
#775=DIRECTION('',(0.,1.,0.));
#776=DIRECTION('',(0.,0.,-1.));
#777=DIRECTION('',(0.,0.,-1.));
#778=DIRECTION('',(-1.,0.,0.));
#779=DIRECTION('',(0.,0.,1.));
#780=DIRECTION('',(1.,0.,0.));
#781=DIRECTION('',(0.,0.,1.));
#782=DIRECTION('',(1.,0.,0.));
#783=DIRECTION('',(0.,0.,-1.));
#784=DIRECTION('',(-1.,0.,0.));
#785=DIRECTION('',(0.,0.,1.));
#786=DIRECTION('',(1.,0.,0.));
#787=DIRECTION('',(0.,0.,1.));
#788=DIRECTION('',(1.,0.,0.));
#789=DIRECTION('',(0.,0.,-1.));
#790=DIRECTION('',(-1.,0.,0.));
#791=DIRECTION('',(0.,0.,1.));
#792=DIRECTION('',(1.,0.,0.));
#793=DIRECTION('',(0.,0.,1.));
#794=DIRECTION('',(1.,0.,0.));
#795=DIRECTION('',(0.,0.,-1.));
#796=DIRECTION('',(-1.,0.,0.));
#797=DIRECTION('',(0.,0.,1.));
#798=DIRECTION('',(1.,0.,0.));
#799=DIRECTION('',(0.,0.,1.));
#800=DIRECTION('',(1.,0.,0.));
#801=DIRECTION('',(0.,0.,1.));
#802=DIRECTION('',(1.,0.,0.));
#803=DIRECTION('',(0.,0.,1.));
#804=DIRECTION('',(1.,0.,0.));
#805=DIRECTION('',(0.,0.,1.));
#806=DIRECTION('',(1.,0.,0.));
#807=DIRECTION('',(0.,0.,1.));
#808=DIRECTION('',(1.,0.,0.));
#809=DIRECTION('',(1.,0.,0.));
#810=DIRECTION('',(0.,0.,1.));
#811=DIRECTION('',(1.,0.,0.));
#812=DIRECTION('',(0.,0.,1.));
#813=DIRECTION('',(1.,0.,0.));
#814=DIRECTION('',(0.707106781186547,-0.707106781186548,0.));
#815=DIRECTION('',(-1.,-1.15648231731787E-16,0.));
#816=DIRECTION('',(-0.707106781186548,-0.707106781186547,0.));
#817=DIRECTION('',(0.,0.,1.));
#818=DIRECTION('',(1.,0.,0.));
#819=DIRECTION('',(0.707106781186548,0.707106781186547,0.));
#820=DIRECTION('',(0.,0.,1.));
#821=DIRECTION('',(1.,0.,0.));
#822=DIRECTION('',(0.,0.,1.));
#823=DIRECTION('',(1.,0.,0.));
#824=DIRECTION('',(0.,0.,1.));
#825=DIRECTION('',(1.,0.,0.));
#826=DIRECTION('',(-0.707106781186547,0.707106781186548,0.));
#827=DIRECTION('',(0.,0.,1.));
#828=DIRECTION('',(1.,0.,0.));
#829=DIRECTION('',(0.,0.,1.));
#830=DIRECTION('',(1.,0.,0.));
#831=DIRECTION('',(0.,1.,0.));
#832=DIRECTION('',(0.,0.,1.));
#833=DIRECTION('',(0.,-1.,0.));
#834=DIRECTION('',(0.,0.,-1.));
#835=DIRECTION('',(0.,0.,-1.));
#836=DIRECTION('',(0.,1.,0.));
#837=DIRECTION('',(0.,0.,1.));
#838=DIRECTION('',(0.,1.,0.));
#839=DIRECTION('',(0.,0.,1.));
#840=DIRECTION('',(0.,0.,1.));
#841=DIRECTION('',(1.15648231731787E-16,-1.,0.));
#842=DIRECTION('',(1.,1.15648231731787E-16,0.));
#843=DIRECTION('',(1.15648231731787E-16,-1.,0.));
#844=DIRECTION('',(1.,1.15648231731787E-16,0.));
#845=DIRECTION('',(1.15648231731787E-16,-1.,0.));
#846=DIRECTION('',(1.,1.15648231731787E-16,0.));
#847=DIRECTION('',(0.,1.,0.));
#848=DIRECTION('',(0.,0.,1.));
#849=DIRECTION('',(0.,-1.,0.));
#850=DIRECTION('',(0.,0.,-1.));
#851=DIRECTION('',(0.,0.,1.));
#852=DIRECTION('',(1.,0.,0.));
#853=DIRECTION('',(0.,0.,1.));
#854=DIRECTION('',(1.,0.,0.));
#855=DIRECTION('',(0.,0.,1.));
#856=DIRECTION('',(1.,0.,0.));
#857=DIRECTION('',(0.,0.,-1.));
#858=DIRECTION('',(-1.,0.,0.));
#859=DIRECTION('',(0.707106781186548,0.707106781186547,0.));
#860=DIRECTION('',(0.,0.,-1.));
#861=DIRECTION('',(0.707106781186547,-0.707106781186548,0.));
#862=DIRECTION('',(0.,0.,1.));
#863=DIRECTION('',(0.,-1.,0.));
#864=DIRECTION('',(1.,0.,0.));
#865=DIRECTION('',(0.,0.,-1.));
#866=DIRECTION('',(0.,-1.,0.));
#867=DIRECTION('',(0.,0.,-1.));
#868=DIRECTION('',(0.,0.,1.));
#869=DIRECTION('',(-0.5,-0.866025403784439,0.));
#870=DIRECTION('',(0.866025403784439,-0.5,0.));
#871=DIRECTION('',(-0.866025403784439,0.5,0.));
#872=DIRECTION('',(0.,1.,0.));
#873=DIRECTION('',(0.,0.,1.));
#874=DIRECTION('',(0.866025403784439,0.5,0.));
#875=DIRECTION('',(0.5,-0.866025403784439,0.));
#876=DIRECTION('',(-0.866025403784439,-0.5,0.));
#877=CARTESIAN_POINT('',(0.,0.,0.));
#878=CARTESIAN_POINT('',(0.,0.,0.088));
#879=CARTESIAN_POINT('',(0.,0.013,0.088));
#880=CARTESIAN_POINT('',(-0.056,0.013,0.088));
#881=CARTESIAN_POINT('',(-0.02,0.013,0.088));
#882=CARTESIAN_POINT('',(0.000629165124598852,0.00108974596215561,0.088));
#883=CARTESIAN_POINT('',(-0.0303923048454132,0.019,0.088));
#884=CARTESIAN_POINT('',(0.,0.019,0.088));
#885=CARTESIAN_POINT('',(0.0303923048454132,0.019,0.088));
#886=CARTESIAN_POINT('',(-0.000629165124598852,0.00108974596215561,0.088));
#887=CARTESIAN_POINT('',(0.02,0.013,0.088));
#888=CARTESIAN_POINT('',(0.,0.013,0.088));
#889=CARTESIAN_POINT('',(0.056,0.013,0.088));
#890=CARTESIAN_POINT('',(0.056,0.037,0.088));
#891=CARTESIAN_POINT('',(0.056,0.037,0.088));
#892=CARTESIAN_POINT('',(0.,0.037,0.088));
#893=CARTESIAN_POINT('',(-0.056,0.037,0.088));
#894=CARTESIAN_POINT('',(-0.056,0.,0.088));
#895=CARTESIAN_POINT('',(-1.7347234759768E-18,0.179202659284338,0.055));
#896=CARTESIAN_POINT('',(-1.7347234759768E-18,0.037,0.055));
#897=CARTESIAN_POINT('',(0.01,0.037,0.055));
#898=CARTESIAN_POINT('',(-1.7347234759768E-18,0.019,0.055));
#899=CARTESIAN_POINT('',(-1.7347234759768E-18,0.019,0.045));
#900=CARTESIAN_POINT('',(0.04,0.00100000000000003,0.022));
#901=CARTESIAN_POINT('',(0.04,0.00100000000000003,0.008));
#902=CARTESIAN_POINT('',(0.02,0.00100000000000002,0.008));
#903=CARTESIAN_POINT('',(0.056,0.00100000000000003,0.008));
#904=CARTESIAN_POINT('',(0.056,0.00100000000000003,0.022));
#905=CARTESIAN_POINT('',(0.056,0.00100000000000003,0.022));
#906=CARTESIAN_POINT('',(0.04,0.00100000000000003,0.022));
#907=CARTESIAN_POINT('',(0.02,0.00100000000000002,0.022));
#908=CARTESIAN_POINT('',(0.02,0.00100000000000002,0.022));
#909=CARTESIAN_POINT('',(0.06,0.007,0.022));
#910=CARTESIAN_POINT('',(0.06,-0.018,0.008));
#911=CARTESIAN_POINT('',(0.06,-0.027,0.008));
#912=CARTESIAN_POINT('',(0.06,0.005,0.008));
#913=CARTESIAN_POINT('',(0.06,-0.027,0.));
#914=CARTESIAN_POINT('',(0.06,-0.027,0.));
#915=CARTESIAN_POINT('',(0.06,0.007,0.));
#916=CARTESIAN_POINT('',(0.06,0.037,0.));
#917=CARTESIAN_POINT('',(0.06,0.037,0.088));
#918=CARTESIAN_POINT('',(0.06,0.037,0.084));
#919=CARTESIAN_POINT('',(0.06,0.013,0.084));
#920=CARTESIAN_POINT('',(0.06,0.013,0.084));
#921=CARTESIAN_POINT('',(0.06,0.013,0.088));
#922=CARTESIAN_POINT('',(0.06,0.013,0.022));
#923=CARTESIAN_POINT('',(0.06,0.007,0.022));
#924=CARTESIAN_POINT('',(0.06,0.005,0.022));
#925=CARTESIAN_POINT('',(0.06,0.005,0.022));
#926=CARTESIAN_POINT('',(-0.06,0.007,0.022));
#927=CARTESIAN_POINT('',(-0.06,0.007,0.));
#928=CARTESIAN_POINT('',(-0.06,-0.027,0.));
#929=CARTESIAN_POINT('',(-0.06,0.037,0.));
#930=CARTESIAN_POINT('',(-0.06,-0.027,0.022));
#931=CARTESIAN_POINT('',(-0.06,-0.027,0.008));
#932=CARTESIAN_POINT('',(-0.06,-0.018,0.008));
#933=CARTESIAN_POINT('',(-0.06,0.005,0.008));
#934=CARTESIAN_POINT('',(-0.06,0.005,0.022));
#935=CARTESIAN_POINT('',(-0.06,0.005,0.022));
#936=CARTESIAN_POINT('',(-0.06,0.007,0.022));
#937=CARTESIAN_POINT('',(-0.06,0.013,0.022));
#938=CARTESIAN_POINT('',(-0.06,0.013,0.088));
#939=CARTESIAN_POINT('',(-0.06,0.013,0.084));
#940=CARTESIAN_POINT('',(-0.06,0.007,0.084));
#941=CARTESIAN_POINT('',(-0.06,0.037,0.084));
#942=CARTESIAN_POINT('',(-0.06,0.037,0.088));
#943=CARTESIAN_POINT('',(-0.04,0.00100000000000001,0.022));
#944=CARTESIAN_POINT('',(-0.04,0.00100000000000001,0.022));
#945=CARTESIAN_POINT('',(-0.056,0.001,0.022));
#946=CARTESIAN_POINT('',(-0.02,0.00100000000000002,0.022));
#947=CARTESIAN_POINT('',(-0.056,0.001,0.008));
#948=CARTESIAN_POINT('',(-0.056,0.001,0.008));
#949=CARTESIAN_POINT('',(-0.04,0.00100000000000001,0.008));
#950=CARTESIAN_POINT('',(-0.02,0.00100000000000002,0.008));
#951=CARTESIAN_POINT('',(-0.02,0.00100000000000002,0.022));
#952=CARTESIAN_POINT('',(-0.02,-0.011,0.022));
#953=CARTESIAN_POINT('',(-0.02,-0.011,0.008));
#954=CARTESIAN_POINT('',(-0.008,-0.011,0.008));
#955=CARTESIAN_POINT('',(-0.008,-0.011,0.022));
#956=CARTESIAN_POINT('',(-0.008,-0.011,0.022));
#957=CARTESIAN_POINT('',(-0.02,-0.011,0.022));
#958=CARTESIAN_POINT('',(-0.008,-0.024,0.022));
#959=CARTESIAN_POINT('',(-0.008,-0.024,0.008));
#960=CARTESIAN_POINT('',(-0.008,-0.033,0.008));
#961=CARTESIAN_POINT('',(-0.008,-0.033,0.022));
#962=CARTESIAN_POINT('',(-0.008,-0.033,0.022));
#963=CARTESIAN_POINT('',(-0.008,-0.024,0.022));
#964=CARTESIAN_POINT('',(0.,-0.037,0.022));
#965=CARTESIAN_POINT('',(-0.034,-0.037,0.008));
#966=CARTESIAN_POINT('',(-0.004,-0.037,0.008));
#967=CARTESIAN_POINT('',(-0.05,-0.037,0.008));
#968=CARTESIAN_POINT('',(-0.05,-0.037,0.022));
#969=CARTESIAN_POINT('',(-0.05,-0.037,0.));
#970=CARTESIAN_POINT('',(0.,-0.037,0.));
#971=CARTESIAN_POINT('',(0.05,-0.037,0.));
#972=CARTESIAN_POINT('',(0.05,-0.037,0.008));
#973=CARTESIAN_POINT('',(0.05,-0.037,0.008));
#974=CARTESIAN_POINT('',(0.034,-0.037,0.008));
#975=CARTESIAN_POINT('',(0.004,-0.037,0.008));
#976=CARTESIAN_POINT('',(0.004,-0.037,0.022));
#977=CARTESIAN_POINT('',(0.004,-0.037,0.022));
#978=CARTESIAN_POINT('',(0.,-0.037,0.022));
#979=CARTESIAN_POINT('',(-0.004,-0.037,0.022));
#980=CARTESIAN_POINT('',(-0.004,-0.037,0.008));
#981=CARTESIAN_POINT('',(0.008,-0.024,0.022));
#982=CARTESIAN_POINT('',(0.008,-0.024,0.022));
#983=CARTESIAN_POINT('',(0.008,-0.033,0.022));
#984=CARTESIAN_POINT('',(0.008,-0.011,0.022));
#985=CARTESIAN_POINT('',(0.008,-0.033,0.008));
#986=CARTESIAN_POINT('',(0.008,-0.033,0.008));
#987=CARTESIAN_POINT('',(0.008,-0.024,0.008));
#988=CARTESIAN_POINT('',(0.008,-0.011,0.008));
#989=CARTESIAN_POINT('',(0.008,-0.011,0.022));
#990=CARTESIAN_POINT('',(0.,-0.025,0.022));
#991=CARTESIAN_POINT('',(0.,-0.025,0.022));
#992=CARTESIAN_POINT('',(0.004,-0.025,0.022));
#993=CARTESIAN_POINT('',(0.,-0.025,0.));
#994=CARTESIAN_POINT('',(0.004,-0.025,0.));
#995=CARTESIAN_POINT('',(-0.048,0.007,0.022));
#996=CARTESIAN_POINT('',(-0.048,0.007,0.022));
#997=CARTESIAN_POINT('',(-0.044,0.007,0.022));
#998=CARTESIAN_POINT('',(-0.048,0.007,0.));
#999=CARTESIAN_POINT('',(-0.044,0.007,0.));
#1000=CARTESIAN_POINT('',(0.048,0.007,0.022));
#1001=CARTESIAN_POINT('',(0.048,0.007,0.022));
#1002=CARTESIAN_POINT('',(0.052,0.007,0.022));
#1003=CARTESIAN_POINT('',(0.048,0.007,0.));
#1004=CARTESIAN_POINT('',(0.052,0.007,0.));
#1005=CARTESIAN_POINT('',(0.02,-0.011,0.022));
#1006=CARTESIAN_POINT('',(0.02,-0.011,0.008));
#1007=CARTESIAN_POINT('',(0.02,-0.011,0.022));
#1008=CARTESIAN_POINT('',(0.,0.,0.022));
#1009=CARTESIAN_POINT('',(-0.004,-0.033,0.022));
#1010=CARTESIAN_POINT('',(0.004,-0.033,0.022));
#1011=CARTESIAN_POINT('',(0.056,0.005,0.022));
#1012=CARTESIAN_POINT('',(0.,0.013,0.022));
#1013=CARTESIAN_POINT('',(-0.056,0.005,0.022));
#1014=CARTESIAN_POINT('',(0.,0.,0.));
#1015=CARTESIAN_POINT('',(-0.05,-0.037,0.));
#1016=CARTESIAN_POINT('',(0.,0.037,0.));
#1017=CARTESIAN_POINT('',(0.06,-0.027,0.));
#1018=CARTESIAN_POINT('',(0.,0.,0.008));
#1019=CARTESIAN_POINT('',(0.0435,-0.0435,0.008));
#1020=CARTESIAN_POINT('',(0.056,0.005,0.008));
#1021=CARTESIAN_POINT('',(0.004,-0.033,0.008));
#1022=CARTESIAN_POINT('',(0.,0.,0.008));
#1023=CARTESIAN_POINT('',(-0.0435,-0.0435,0.008));
#1024=CARTESIAN_POINT('',(-0.004,-0.033,0.008));
#1025=CARTESIAN_POINT('',(-0.056,0.005,0.008));
#1026=CARTESIAN_POINT('',(0.,0.013,0.088));
#1027=CARTESIAN_POINT('',(0.,0.013,0.055));
#1028=CARTESIAN_POINT('',(-0.02,0.013,0.055));
#1029=CARTESIAN_POINT('',(0.02,0.013,0.055));
#1030=CARTESIAN_POINT('',(-0.02,0.013,0.055));
#1031=CARTESIAN_POINT('',(-0.056,0.013,0.084));
#1032=CARTESIAN_POINT('',(0.056,0.013,0.084));
#1033=CARTESIAN_POINT('',(0.02,0.013,0.055));
#1034=CARTESIAN_POINT('',(0.,0.037,0.088));
#1035=CARTESIAN_POINT('',(-0.056,0.037,0.084));
#1036=CARTESIAN_POINT('',(0.056,0.037,0.084));
#1037=CARTESIAN_POINT('',(-0.056,0.007,0.084));
#1038=CARTESIAN_POINT('',(0.056,0.,0.084));
#1039=CARTESIAN_POINT('',(-0.004,-0.033,0.022));
#1040=CARTESIAN_POINT('',(0.004,-0.033,0.022));
#1041=CARTESIAN_POINT('',(-0.056,0.005,0.022));
#1042=CARTESIAN_POINT('',(0.056,0.005,0.022));
#1043=CARTESIAN_POINT('',(-0.05,-0.037,0.022));
#1044=CARTESIAN_POINT('',(0.06,-0.027,0.022));
#1045=CARTESIAN_POINT('',(0.,0.019,0.055));
#1046=CARTESIAN_POINT('',(-0.0303923048454132,0.019,0.055));
#1047=CARTESIAN_POINT('',(-0.0303923048454132,0.019,0.055));
#1048=CARTESIAN_POINT('',(0.,0.019,0.055));
#1049=CARTESIAN_POINT('',(0.0303923048454132,0.019,0.055));
#1050=CARTESIAN_POINT('',(0.0303923048454132,0.019,0.055));
#1051=CARTESIAN_POINT('',(-0.02,0.013,0.035));
#1052=CARTESIAN_POINT('',(-0.02,0.013,0.055));
#1053=CARTESIAN_POINT('',(0.,0.013,0.055));
#1054=CARTESIAN_POINT('',(0.02,0.013,0.055));
#1055=CARTESIAN_POINT('',(0.02,0.013,0.035));
#1056=MECHANICAL_DESIGN_GEOMETRIC_PRESENTATION_REPRESENTATION('',(#629),
#1057);
#1057=(
GEOMETRIC_REPRESENTATION_CONTEXT(3)
GLOBAL_UNCERTAINTY_ASSIGNED_CONTEXT((#1058))
GLOBAL_UNIT_ASSIGNED_CONTEXT((#1061,#1060,#1059))
REPRESENTATION_CONTEXT('Part 1','TOP_LEVEL_ASSEMBLY_PART')
);
#1058=UNCERTAINTY_MEASURE_WITH_UNIT(LENGTH_MEASURE(1.E-8),#1061,
'DISTANCE_ACCURACY_VALUE','Maximum Tolerance applied to model');
#1059=(
NAMED_UNIT(*)
SI_UNIT($,.STERADIAN.)
SOLID_ANGLE_UNIT()
);
#1060=(
NAMED_UNIT(*)
PLANE_ANGLE_UNIT()
SI_UNIT($,.RADIAN.)
);
#1061=(
LENGTH_UNIT()
NAMED_UNIT(*)
SI_UNIT($,.METRE.)
);
#1062=PRODUCT_DEFINITION_SHAPE('','',#1063);
#1063=PRODUCT_DEFINITION('','',#1065,#1064);
#1064=PRODUCT_DEFINITION_CONTEXT('',#1071,'design');
#1065=PRODUCT_DEFINITION_FORMATION_WITH_SPECIFIED_SOURCE('','',#1067,
 .NOT_KNOWN.);
#1066=PRODUCT_RELATED_PRODUCT_CATEGORY('','',(#1067));
#1067=PRODUCT('Part 1','Part 1','Part 1',(#1069));
#1068=PRODUCT_CATEGORY('','');
#1069=PRODUCT_CONTEXT('',#1071,'mechanical');
#1070=APPLICATION_PROTOCOL_DEFINITION('international standard',
'ap242_managed_model_based_3d_engineering',2020,#1071);
#1071=APPLICATION_CONTEXT('managed model based 3d engineering');
ENDSEC;
END-ISO-10303-21;
