ISO-10303-21;
HEADER;
/* Generated by software containing ST-Developer
 * from STEP Tools, Inc. (www.steptools.com) 
 */
/* OPTION: using custom renumber hook */

FILE_DESCRIPTION(
/* description */ ('STEP AP242 Edition 2',
'CAx-IF Rec.Pracs.---Representation and Presentation of Product Manufa
cturing Information (PMI)---4.0---2014-10-13',
'CAx-IF Rec.Pracs.---3D Tessellated Geometry---0.4---2014-09-14','2;1',
'CAx-IF Rec.Pracs.---User Defined Attributes---1.5---2016-08-15'),
/* implementation_level */ '2;1');

FILE_NAME(
/* name */ 'Part Studio 1',
/* time_stamp */ '2026-07-01T15:48:10Z',
/* author */ (''),
/* organization */ (''),
/* preprocessor_version */ 'ST-DEVELOPER v20',
/* originating_system */ 'ONSHAPE BY PTC INC, 1.217',
/* authorisation */ '  ');

FILE_SCHEMA (('AP242_MANAGED_MODEL_BASED_3D_ENGINEERING_MIM_LF { 1 0 10303 442 3 1 4 }'));
ENDSEC;

DATA;
#10=SHAPE_REPRESENTATION_RELATIONSHIP('','',#791,#11);
#11=ADVANCED_BREP_SHAPE_REPRESENTATION('',(#789),#1301);
#12=CYLINDRICAL_SURFACE('',#812,0.024);
#13=CYLINDRICAL_SURFACE('',#823,0.018);
#14=CYLINDRICAL_SURFACE('',#839,0.018);
#15=CYLINDRICAL_SURFACE('',#843,0.009);
#16=CYLINDRICAL_SURFACE('',#849,0.01);
#17=CYLINDRICAL_SURFACE('',#850,0.01);
#18=CYLINDRICAL_SURFACE('',#851,0.01);
#19=CYLINDRICAL_SURFACE('',#852,0.01);
#20=CYLINDRICAL_SURFACE('',#858,0.006);
#21=CYLINDRICAL_SURFACE('',#859,0.006);
#22=CIRCLE('',#795,0.01);
#23=CIRCLE('',#796,0.01);
#24=CIRCLE('',#798,0.006);
#25=CIRCLE('',#800,0.006);
#26=CIRCLE('',#802,0.01);
#27=CIRCLE('',#804,0.01);
#28=CIRCLE('',#807,0.024);
#29=CIRCLE('',#808,0.018);
#30=CIRCLE('',#810,0.024);
#31=CIRCLE('',#811,0.018);
#32=CIRCLE('',#813,0.024);
#33=CIRCLE('',#814,0.024);
#34=CIRCLE('',#817,0.006);
#35=CIRCLE('',#818,0.006);
#36=CIRCLE('',#819,0.01);
#37=CIRCLE('',#820,0.01);
#38=CIRCLE('',#824,0.018);
#39=CIRCLE('',#825,0.018);
#40=CIRCLE('',#827,0.01);
#41=CIRCLE('',#828,0.01);
#42=CIRCLE('',#834,0.018);
#43=CIRCLE('',#836,0.018);
#44=CIRCLE('',#840,0.018);
#45=CIRCLE('',#841,0.018);
#46=CIRCLE('',#844,0.009);
#47=CIRCLE('',#845,0.009);
#48=ORIENTED_EDGE('',*,*,#264,.F.);
#49=ORIENTED_EDGE('',*,*,#265,.T.);
#50=ORIENTED_EDGE('',*,*,#266,.T.);
#51=ORIENTED_EDGE('',*,*,#267,.F.);
#52=ORIENTED_EDGE('',*,*,#268,.F.);
#53=ORIENTED_EDGE('',*,*,#267,.T.);
#54=ORIENTED_EDGE('',*,*,#269,.T.);
#55=ORIENTED_EDGE('',*,*,#270,.T.);
#56=ORIENTED_EDGE('',*,*,#271,.F.);
#57=ORIENTED_EDGE('',*,*,#272,.F.);
#58=ORIENTED_EDGE('',*,*,#273,.T.);
#59=ORIENTED_EDGE('',*,*,#274,.T.);
#60=ORIENTED_EDGE('',*,*,#275,.T.);
#61=ORIENTED_EDGE('',*,*,#276,.T.);
#62=ORIENTED_EDGE('',*,*,#277,.F.);
#63=ORIENTED_EDGE('',*,*,#278,.F.);
#64=ORIENTED_EDGE('',*,*,#279,.F.);
#65=ORIENTED_EDGE('',*,*,#280,.T.);
#66=ORIENTED_EDGE('',*,*,#281,.T.);
#67=ORIENTED_EDGE('',*,*,#282,.F.);
#68=ORIENTED_EDGE('',*,*,#283,.F.);
#69=ORIENTED_EDGE('',*,*,#284,.T.);
#70=ORIENTED_EDGE('',*,*,#285,.T.);
#71=ORIENTED_EDGE('',*,*,#286,.F.);
#72=ORIENTED_EDGE('',*,*,#287,.T.);
#73=ORIENTED_EDGE('',*,*,#288,.T.);
#74=ORIENTED_EDGE('',*,*,#289,.F.);
#75=ORIENTED_EDGE('',*,*,#290,.F.);
#76=ORIENTED_EDGE('',*,*,#291,.T.);
#77=ORIENTED_EDGE('',*,*,#292,.T.);
#78=ORIENTED_EDGE('',*,*,#293,.F.);
#79=ORIENTED_EDGE('',*,*,#294,.T.);
#80=ORIENTED_EDGE('',*,*,#295,.F.);
#81=ORIENTED_EDGE('',*,*,#296,.T.);
#82=ORIENTED_EDGE('',*,*,#297,.F.);
#83=ORIENTED_EDGE('',*,*,#298,.F.);
#84=ORIENTED_EDGE('',*,*,#299,.T.);
#85=ORIENTED_EDGE('',*,*,#300,.T.);
#86=ORIENTED_EDGE('',*,*,#301,.F.);
#87=ORIENTED_EDGE('',*,*,#299,.F.);
#88=ORIENTED_EDGE('',*,*,#302,.F.);
#89=ORIENTED_EDGE('',*,*,#303,.T.);
#90=ORIENTED_EDGE('',*,*,#286,.T.);
#91=ORIENTED_EDGE('',*,*,#304,.T.);
#92=ORIENTED_EDGE('',*,*,#280,.F.);
#93=ORIENTED_EDGE('',*,*,#305,.F.);
#94=ORIENTED_EDGE('',*,*,#306,.T.);
#95=ORIENTED_EDGE('',*,*,#297,.T.);
#96=ORIENTED_EDGE('',*,*,#304,.F.);
#97=ORIENTED_EDGE('',*,*,#300,.F.);
#98=ORIENTED_EDGE('',*,*,#301,.T.);
#99=ORIENTED_EDGE('',*,*,#285,.F.);
#100=ORIENTED_EDGE('',*,*,#307,.F.);
#101=ORIENTED_EDGE('',*,*,#271,.T.);
#102=ORIENTED_EDGE('',*,*,#308,.T.);
#103=ORIENTED_EDGE('',*,*,#281,.F.);
#104=ORIENTED_EDGE('',*,*,#295,.T.);
#105=ORIENTED_EDGE('',*,*,#309,.T.);
#106=ORIENTED_EDGE('',*,*,#310,.F.);
#107=ORIENTED_EDGE('',*,*,#311,.T.);
#108=ORIENTED_EDGE('',*,*,#290,.T.);
#109=ORIENTED_EDGE('',*,*,#312,.T.);
#110=ORIENTED_EDGE('',*,*,#313,.T.);
#111=ORIENTED_EDGE('',*,*,#314,.T.);
#112=ORIENTED_EDGE('',*,*,#310,.T.);
#113=ORIENTED_EDGE('',*,*,#315,.T.);
#114=ORIENTED_EDGE('',*,*,#316,.F.);
#115=ORIENTED_EDGE('',*,*,#317,.F.);
#116=ORIENTED_EDGE('',*,*,#318,.T.);
#117=ORIENTED_EDGE('',*,*,#319,.T.);
#118=ORIENTED_EDGE('',*,*,#320,.F.);
#119=ORIENTED_EDGE('',*,*,#321,.F.);
#120=ORIENTED_EDGE('',*,*,#322,.T.);
#121=ORIENTED_EDGE('',*,*,#317,.T.);
#122=ORIENTED_EDGE('',*,*,#323,.F.);
#123=ORIENTED_EDGE('',*,*,#324,.F.);
#124=ORIENTED_EDGE('',*,*,#325,.T.);
#125=ORIENTED_EDGE('',*,*,#321,.T.);
#126=ORIENTED_EDGE('',*,*,#326,.F.);
#127=ORIENTED_EDGE('',*,*,#327,.F.);
#128=ORIENTED_EDGE('',*,*,#328,.T.);
#129=ORIENTED_EDGE('',*,*,#324,.T.);
#130=ORIENTED_EDGE('',*,*,#329,.T.);
#131=ORIENTED_EDGE('',*,*,#330,.T.);
#132=ORIENTED_EDGE('',*,*,#331,.F.);
#133=ORIENTED_EDGE('',*,*,#332,.T.);
#134=ORIENTED_EDGE('',*,*,#333,.F.);
#135=ORIENTED_EDGE('',*,*,#327,.T.);
#136=ORIENTED_EDGE('',*,*,#334,.T.);
#137=ORIENTED_EDGE('',*,*,#335,.T.);
#138=ORIENTED_EDGE('',*,*,#265,.F.);
#139=ORIENTED_EDGE('',*,*,#336,.F.);
#140=ORIENTED_EDGE('',*,*,#331,.T.);
#141=ORIENTED_EDGE('',*,*,#337,.T.);
#142=ORIENTED_EDGE('',*,*,#274,.F.);
#143=ORIENTED_EDGE('',*,*,#338,.T.);
#144=ORIENTED_EDGE('',*,*,#333,.T.);
#145=ORIENTED_EDGE('',*,*,#339,.T.);
#146=ORIENTED_EDGE('',*,*,#272,.T.);
#147=ORIENTED_EDGE('',*,*,#307,.T.);
#148=ORIENTED_EDGE('',*,*,#284,.F.);
#149=ORIENTED_EDGE('',*,*,#340,.F.);
#150=ORIENTED_EDGE('',*,*,#287,.F.);
#151=ORIENTED_EDGE('',*,*,#341,.T.);
#152=ORIENTED_EDGE('',*,*,#318,.F.);
#153=ORIENTED_EDGE('',*,*,#322,.F.);
#154=ORIENTED_EDGE('',*,*,#325,.F.);
#155=ORIENTED_EDGE('',*,*,#328,.F.);
#156=ORIENTED_EDGE('',*,*,#316,.T.);
#157=ORIENTED_EDGE('',*,*,#342,.T.);
#158=ORIENTED_EDGE('',*,*,#293,.T.);
#159=ORIENTED_EDGE('',*,*,#343,.T.);
#160=ORIENTED_EDGE('',*,*,#278,.T.);
#161=ORIENTED_EDGE('',*,*,#308,.F.);
#162=ORIENTED_EDGE('',*,*,#270,.F.);
#163=ORIENTED_EDGE('',*,*,#344,.T.);
#164=ORIENTED_EDGE('',*,*,#334,.F.);
#165=ORIENTED_EDGE('',*,*,#326,.T.);
#166=ORIENTED_EDGE('',*,*,#323,.T.);
#167=ORIENTED_EDGE('',*,*,#320,.T.);
#168=ORIENTED_EDGE('',*,*,#345,.T.);
#169=ORIENTED_EDGE('',*,*,#312,.F.);
#170=ORIENTED_EDGE('',*,*,#346,.F.);
#171=ORIENTED_EDGE('',*,*,#347,.T.);
#172=ORIENTED_EDGE('',*,*,#346,.T.);
#173=ORIENTED_EDGE('',*,*,#289,.T.);
#174=ORIENTED_EDGE('',*,*,#348,.F.);
#175=ORIENTED_EDGE('',*,*,#349,.F.);
#176=ORIENTED_EDGE('',*,*,#345,.F.);
#177=ORIENTED_EDGE('',*,*,#350,.T.);
#178=ORIENTED_EDGE('',*,*,#351,.T.);
#179=ORIENTED_EDGE('',*,*,#296,.F.);
#180=ORIENTED_EDGE('',*,*,#303,.F.);
#181=ORIENTED_EDGE('',*,*,#352,.F.);
#182=ORIENTED_EDGE('',*,*,#353,.T.);
#183=ORIENTED_EDGE('',*,*,#354,.T.);
#184=ORIENTED_EDGE('',*,*,#283,.T.);
#185=ORIENTED_EDGE('',*,*,#355,.T.);
#186=ORIENTED_EDGE('',*,*,#348,.T.);
#187=ORIENTED_EDGE('',*,*,#288,.F.);
#188=ORIENTED_EDGE('',*,*,#356,.T.);
#189=ORIENTED_EDGE('',*,*,#357,.F.);
#190=ORIENTED_EDGE('',*,*,#350,.F.);
#191=ORIENTED_EDGE('',*,*,#347,.F.);
#192=ORIENTED_EDGE('',*,*,#349,.T.);
#193=ORIENTED_EDGE('',*,*,#355,.F.);
#194=ORIENTED_EDGE('',*,*,#358,.F.);
#195=ORIENTED_EDGE('',*,*,#352,.T.);
#196=ORIENTED_EDGE('',*,*,#302,.T.);
#197=ORIENTED_EDGE('',*,*,#298,.T.);
#198=ORIENTED_EDGE('',*,*,#306,.F.);
#199=ORIENTED_EDGE('',*,*,#359,.T.);
#200=ORIENTED_EDGE('',*,*,#360,.T.);
#201=ORIENTED_EDGE('',*,*,#361,.F.);
#202=ORIENTED_EDGE('',*,*,#351,.F.);
#203=ORIENTED_EDGE('',*,*,#361,.T.);
#204=ORIENTED_EDGE('',*,*,#362,.T.);
#205=ORIENTED_EDGE('',*,*,#363,.T.);
#206=ORIENTED_EDGE('',*,*,#292,.F.);
#207=ORIENTED_EDGE('',*,*,#364,.T.);
#208=ORIENTED_EDGE('',*,*,#365,.F.);
#209=ORIENTED_EDGE('',*,*,#359,.F.);
#210=ORIENTED_EDGE('',*,*,#305,.T.);
#211=ORIENTED_EDGE('',*,*,#279,.T.);
#212=ORIENTED_EDGE('',*,*,#366,.T.);
#213=ORIENTED_EDGE('',*,*,#367,.F.);
#214=ORIENTED_EDGE('',*,*,#364,.F.);
#215=ORIENTED_EDGE('',*,*,#357,.T.);
#216=ORIENTED_EDGE('',*,*,#368,.T.);
#217=ORIENTED_EDGE('',*,*,#353,.F.);
#218=ORIENTED_EDGE('',*,*,#358,.T.);
#219=ORIENTED_EDGE('',*,*,#365,.T.);
#220=ORIENTED_EDGE('',*,*,#367,.T.);
#221=ORIENTED_EDGE('',*,*,#369,.T.);
#222=ORIENTED_EDGE('',*,*,#362,.F.);
#223=ORIENTED_EDGE('',*,*,#360,.F.);
#224=ORIENTED_EDGE('',*,*,#315,.F.);
#225=ORIENTED_EDGE('',*,*,#309,.F.);
#226=ORIENTED_EDGE('',*,*,#294,.F.);
#227=ORIENTED_EDGE('',*,*,#342,.F.);
#228=ORIENTED_EDGE('',*,*,#335,.F.);
#229=ORIENTED_EDGE('',*,*,#344,.F.);
#230=ORIENTED_EDGE('',*,*,#269,.F.);
#231=ORIENTED_EDGE('',*,*,#266,.F.);
#232=ORIENTED_EDGE('',*,*,#332,.F.);
#233=ORIENTED_EDGE('',*,*,#338,.F.);
#234=ORIENTED_EDGE('',*,*,#273,.F.);
#235=ORIENTED_EDGE('',*,*,#339,.F.);
#236=ORIENTED_EDGE('',*,*,#319,.F.);
#237=ORIENTED_EDGE('',*,*,#341,.F.);
#238=ORIENTED_EDGE('',*,*,#291,.F.);
#239=ORIENTED_EDGE('',*,*,#311,.F.);
#240=ORIENTED_EDGE('',*,*,#356,.F.);
#241=ORIENTED_EDGE('',*,*,#340,.T.);
#242=ORIENTED_EDGE('',*,*,#354,.F.);
#243=ORIENTED_EDGE('',*,*,#368,.F.);
#244=ORIENTED_EDGE('',*,*,#363,.F.);
#245=ORIENTED_EDGE('',*,*,#369,.F.);
#246=ORIENTED_EDGE('',*,*,#366,.F.);
#247=ORIENTED_EDGE('',*,*,#343,.F.);
#248=ORIENTED_EDGE('',*,*,#370,.T.);
#249=ORIENTED_EDGE('',*,*,#275,.F.);
#250=ORIENTED_EDGE('',*,*,#337,.F.);
#251=ORIENTED_EDGE('',*,*,#330,.F.);
#252=ORIENTED_EDGE('',*,*,#371,.T.);
#253=ORIENTED_EDGE('',*,*,#276,.F.);
#254=ORIENTED_EDGE('',*,*,#370,.F.);
#255=ORIENTED_EDGE('',*,*,#329,.F.);
#256=ORIENTED_EDGE('',*,*,#336,.T.);
#257=ORIENTED_EDGE('',*,*,#264,.T.);
#258=ORIENTED_EDGE('',*,*,#268,.T.);
#259=ORIENTED_EDGE('',*,*,#371,.F.);
#260=ORIENTED_EDGE('',*,*,#282,.T.);
#261=ORIENTED_EDGE('',*,*,#314,.F.);
#262=ORIENTED_EDGE('',*,*,#277,.T.);
#263=ORIENTED_EDGE('',*,*,#313,.F.);
#264=EDGE_CURVE('',#372,#373,#444,.T.);
#265=EDGE_CURVE('',#372,#374,#445,.T.);
#266=EDGE_CURVE('',#374,#375,#446,.T.);
#267=EDGE_CURVE('',#373,#375,#447,.T.);
#268=EDGE_CURVE('',#373,#376,#448,.T.);
#269=EDGE_CURVE('',#375,#377,#22,.F.);
#270=EDGE_CURVE('',#377,#378,#449,.T.);
#271=EDGE_CURVE('',#379,#378,#450,.T.);
#272=EDGE_CURVE('',#380,#379,#451,.T.);
#273=EDGE_CURVE('',#380,#381,#23,.F.);
#274=EDGE_CURVE('',#381,#382,#452,.T.);
#275=EDGE_CURVE('',#382,#383,#453,.T.);
#276=EDGE_CURVE('',#383,#376,#454,.T.);
#277=EDGE_CURVE('',#384,#384,#24,.T.);
#278=EDGE_CURVE('',#385,#386,#455,.T.);
#279=EDGE_CURVE('',#387,#385,#456,.T.);
#280=EDGE_CURVE('',#387,#388,#457,.T.);
#281=EDGE_CURVE('',#388,#386,#458,.T.);
#282=EDGE_CURVE('',#389,#389,#25,.T.);
#283=EDGE_CURVE('',#390,#391,#459,.T.);
#284=EDGE_CURVE('',#390,#392,#460,.T.);
#285=EDGE_CURVE('',#392,#393,#461,.T.);
#286=EDGE_CURVE('',#391,#393,#462,.T.);
#287=EDGE_CURVE('',#394,#395,#463,.T.);
#288=EDGE_CURVE('',#395,#396,#464,.T.);
#289=EDGE_CURVE('',#397,#396,#465,.T.);
#290=EDGE_CURVE('',#398,#397,#466,.T.);
#291=EDGE_CURVE('',#398,#394,#26,.T.);
#292=EDGE_CURVE('',#399,#400,#467,.T.);
#293=EDGE_CURVE('',#401,#400,#468,.T.);
#294=EDGE_CURVE('',#401,#402,#27,.T.);
#295=EDGE_CURVE('',#403,#402,#469,.T.);
#296=EDGE_CURVE('',#403,#399,#470,.T.);
#297=EDGE_CURVE('',#404,#405,#471,.T.);
#298=EDGE_CURVE('',#406,#404,#472,.T.);
#299=EDGE_CURVE('',#406,#407,#473,.T.);
#300=EDGE_CURVE('',#407,#405,#474,.T.);
#301=EDGE_CURVE('',#407,#393,#28,.T.);
#302=EDGE_CURVE('',#408,#406,#29,.T.);
#303=EDGE_CURVE('',#408,#391,#475,.T.);
#304=EDGE_CURVE('',#405,#388,#30,.T.);
#305=EDGE_CURVE('',#409,#387,#476,.T.);
#306=EDGE_CURVE('',#409,#404,#31,.T.);
#307=EDGE_CURVE('',#379,#392,#32,.T.);
#308=EDGE_CURVE('',#378,#386,#33,.T.);
#309=EDGE_CURVE('',#402,#410,#477,.F.);
#310=EDGE_CURVE('',#411,#410,#478,.T.);
#311=EDGE_CURVE('',#411,#398,#479,.T.);
#312=EDGE_CURVE('',#397,#403,#480,.T.);
#313=EDGE_CURVE('',#412,#412,#34,.F.);
#314=EDGE_CURVE('',#413,#413,#35,.F.);
#315=EDGE_CURVE('',#410,#414,#36,.T.);
#316=EDGE_CURVE('',#415,#414,#481,.T.);
#317=EDGE_CURVE('',#416,#415,#482,.T.);
#318=EDGE_CURVE('',#416,#417,#483,.T.);
#319=EDGE_CURVE('',#417,#411,#37,.T.);
#320=EDGE_CURVE('',#418,#415,#484,.T.);
#321=EDGE_CURVE('',#419,#418,#485,.T.);
#322=EDGE_CURVE('',#419,#416,#486,.T.);
#323=EDGE_CURVE('',#420,#418,#487,.T.);
#324=EDGE_CURVE('',#421,#420,#488,.T.);
#325=EDGE_CURVE('',#421,#419,#489,.T.);
#326=EDGE_CURVE('',#422,#420,#38,.T.);
#327=EDGE_CURVE('',#423,#422,#490,.T.);
#328=EDGE_CURVE('',#423,#421,#39,.T.);
#329=EDGE_CURVE('',#424,#425,#491,.T.);
#330=EDGE_CURVE('',#425,#426,#492,.T.);
#331=EDGE_CURVE('',#427,#426,#493,.T.);
#332=EDGE_CURVE('',#427,#428,#40,.F.);
#333=EDGE_CURVE('',#423,#428,#494,.T.);
#334=EDGE_CURVE('',#422,#429,#495,.T.);
#335=EDGE_CURVE('',#429,#374,#41,.F.);
#336=EDGE_CURVE('',#424,#372,#496,.T.);
#337=EDGE_CURVE('',#426,#382,#497,.T.);
#338=EDGE_CURVE('',#381,#427,#498,.F.);
#339=EDGE_CURVE('',#428,#380,#499,.T.);
#340=EDGE_CURVE('',#395,#390,#500,.T.);
#341=EDGE_CURVE('',#394,#417,#501,.F.);
#342=EDGE_CURVE('',#414,#401,#502,.T.);
#343=EDGE_CURVE('',#400,#385,#503,.T.);
#344=EDGE_CURVE('',#377,#429,#504,.F.);
#345=EDGE_CURVE('',#430,#403,#505,.T.);
#346=EDGE_CURVE('',#431,#397,#506,.T.);
#347=EDGE_CURVE('',#431,#430,#507,.T.);
#348=EDGE_CURVE('',#432,#396,#508,.T.);
#349=EDGE_CURVE('',#431,#432,#42,.T.);
#350=EDGE_CURVE('',#430,#433,#43,.T.);
#351=EDGE_CURVE('',#433,#399,#509,.T.);
#352=EDGE_CURVE('',#434,#408,#510,.T.);
#353=EDGE_CURVE('',#434,#435,#511,.T.);
#354=EDGE_CURVE('',#435,#390,#512,.F.);
#355=EDGE_CURVE('',#436,#432,#513,.T.);
#356=EDGE_CURVE('',#395,#437,#514,.F.);
#357=EDGE_CURVE('',#436,#437,#515,.T.);
#358=EDGE_CURVE('',#434,#436,#44,.T.);
#359=EDGE_CURVE('',#409,#438,#516,.T.);
#360=EDGE_CURVE('',#438,#439,#45,.T.);
#361=EDGE_CURVE('',#433,#439,#517,.T.);
#362=EDGE_CURVE('',#439,#440,#518,.T.);
#363=EDGE_CURVE('',#440,#400,#519,.T.);
#364=EDGE_CURVE('',#441,#441,#46,.T.);
#365=EDGE_CURVE('',#442,#442,#47,.T.);
#366=EDGE_CURVE('',#385,#443,#520,.T.);
#367=EDGE_CURVE('',#438,#443,#521,.T.);
#368=EDGE_CURVE('',#437,#435,#522,.T.);
#369=EDGE_CURVE('',#443,#440,#523,.T.);
#370=EDGE_CURVE('',#425,#383,#524,.T.);
#371=EDGE_CURVE('',#424,#376,#525,.T.);
#372=VERTEX_POINT('',#1081);
#373=VERTEX_POINT('',#1082);
#374=VERTEX_POINT('',#1084);
#375=VERTEX_POINT('',#1086);
#376=VERTEX_POINT('',#1090);
#377=VERTEX_POINT('',#1092);
#378=VERTEX_POINT('',#1094);
#379=VERTEX_POINT('',#1096);
#380=VERTEX_POINT('',#1098);
#381=VERTEX_POINT('',#1100);
#382=VERTEX_POINT('',#1102);
#383=VERTEX_POINT('',#1104);
#384=VERTEX_POINT('',#1108);
#385=VERTEX_POINT('',#1110);
#386=VERTEX_POINT('',#1111);
#387=VERTEX_POINT('',#1113);
#388=VERTEX_POINT('',#1115);
#389=VERTEX_POINT('',#1119);
#390=VERTEX_POINT('',#1121);
#391=VERTEX_POINT('',#1122);
#392=VERTEX_POINT('',#1124);
#393=VERTEX_POINT('',#1126);
#394=VERTEX_POINT('',#1130);
#395=VERTEX_POINT('',#1131);
#396=VERTEX_POINT('',#1133);
#397=VERTEX_POINT('',#1135);
#398=VERTEX_POINT('',#1137);
#399=VERTEX_POINT('',#1141);
#400=VERTEX_POINT('',#1142);
#401=VERTEX_POINT('',#1144);
#402=VERTEX_POINT('',#1146);
#403=VERTEX_POINT('',#1148);
#404=VERTEX_POINT('',#1152);
#405=VERTEX_POINT('',#1153);
#406=VERTEX_POINT('',#1155);
#407=VERTEX_POINT('',#1157);
#408=VERTEX_POINT('',#1162);
#409=VERTEX_POINT('',#1167);
#410=VERTEX_POINT('',#1174);
#411=VERTEX_POINT('',#1176);
#412=VERTEX_POINT('',#1181);
#413=VERTEX_POINT('',#1183);
#414=VERTEX_POINT('',#1185);
#415=VERTEX_POINT('',#1187);
#416=VERTEX_POINT('',#1189);
#417=VERTEX_POINT('',#1191);
#418=VERTEX_POINT('',#1195);
#419=VERTEX_POINT('',#1197);
#420=VERTEX_POINT('',#1201);
#421=VERTEX_POINT('',#1203);
#422=VERTEX_POINT('',#1207);
#423=VERTEX_POINT('',#1209);
#424=VERTEX_POINT('',#1213);
#425=VERTEX_POINT('',#1214);
#426=VERTEX_POINT('',#1216);
#427=VERTEX_POINT('',#1218);
#428=VERTEX_POINT('',#1220);
#429=VERTEX_POINT('',#1223);
#430=VERTEX_POINT('',#1239);
#431=VERTEX_POINT('',#1241);
#432=VERTEX_POINT('',#1245);
#433=VERTEX_POINT('',#1249);
#434=VERTEX_POINT('',#1253);
#435=VERTEX_POINT('',#1255);
#436=VERTEX_POINT('',#1259);
#437=VERTEX_POINT('',#1261);
#438=VERTEX_POINT('',#1266);
#439=VERTEX_POINT('',#1268);
#440=VERTEX_POINT('',#1272);
#441=VERTEX_POINT('',#1276);
#442=VERTEX_POINT('',#1278);
#443=VERTEX_POINT('',#1281);
#444=LINE('',#1080,#526);
#445=LINE('',#1083,#527);
#446=LINE('',#1085,#528);
#447=LINE('',#1087,#529);
#448=LINE('',#1089,#530);
#449=LINE('',#1093,#531);
#450=LINE('',#1095,#532);
#451=LINE('',#1097,#533);
#452=LINE('',#1101,#534);
#453=LINE('',#1103,#535);
#454=LINE('',#1105,#536);
#455=LINE('',#1109,#537);
#456=LINE('',#1112,#538);
#457=LINE('',#1114,#539);
#458=LINE('',#1116,#540);
#459=LINE('',#1120,#541);
#460=LINE('',#1123,#542);
#461=LINE('',#1125,#543);
#462=LINE('',#1127,#544);
#463=LINE('',#1129,#545);
#464=LINE('',#1132,#546);
#465=LINE('',#1134,#547);
#466=LINE('',#1136,#548);
#467=LINE('',#1140,#549);
#468=LINE('',#1143,#550);
#469=LINE('',#1147,#551);
#470=LINE('',#1149,#552);
#471=LINE('',#1151,#553);
#472=LINE('',#1154,#554);
#473=LINE('',#1156,#555);
#474=LINE('',#1158,#556);
#475=LINE('',#1163,#557);
#476=LINE('',#1166,#558);
#477=LINE('',#1173,#559);
#478=LINE('',#1175,#560);
#479=LINE('',#1177,#561);
#480=LINE('',#1178,#562);
#481=LINE('',#1186,#563);
#482=LINE('',#1188,#564);
#483=LINE('',#1190,#565);
#484=LINE('',#1194,#566);
#485=LINE('',#1196,#567);
#486=LINE('',#1198,#568);
#487=LINE('',#1200,#569);
#488=LINE('',#1202,#570);
#489=LINE('',#1204,#571);
#490=LINE('',#1208,#572);
#491=LINE('',#1212,#573);
#492=LINE('',#1215,#574);
#493=LINE('',#1217,#575);
#494=LINE('',#1221,#576);
#495=LINE('',#1222,#577);
#496=LINE('',#1225,#578);
#497=LINE('',#1227,#579);
#498=LINE('',#1228,#580);
#499=LINE('',#1230,#581);
#500=LINE('',#1231,#582);
#501=LINE('',#1232,#583);
#502=LINE('',#1234,#584);
#503=LINE('',#1235,#585);
#504=LINE('',#1236,#586);
#505=LINE('',#1238,#587);
#506=LINE('',#1240,#588);
#507=LINE('',#1242,#589);
#508=LINE('',#1244,#590);
#509=LINE('',#1250,#591);
#510=LINE('',#1252,#592);
#511=LINE('',#1254,#593);
#512=LINE('',#1256,#594);
#513=LINE('',#1258,#595);
#514=LINE('',#1260,#596);
#515=LINE('',#1262,#597);
#516=LINE('',#1265,#598);
#517=LINE('',#1269,#599);
#518=LINE('',#1271,#600);
#519=LINE('',#1273,#601);
#520=LINE('',#1280,#602);
#521=LINE('',#1282,#603);
#522=LINE('',#1284,#604);
#523=LINE('',#1286,#605);
#524=LINE('',#1294,#606);
#525=LINE('',#1296,#607);
#526=VECTOR('',#864,1.);
#527=VECTOR('',#865,1.);
#528=VECTOR('',#866,1.);
#529=VECTOR('',#867,1.);
#530=VECTOR('',#870,1.);
#531=VECTOR('',#873,1.);
#532=VECTOR('',#874,1.);
#533=VECTOR('',#875,1.);
#534=VECTOR('',#878,1.);
#535=VECTOR('',#879,1.);
#536=VECTOR('',#880,1.);
#537=VECTOR('',#885,1.);
#538=VECTOR('',#886,1.);
#539=VECTOR('',#887,1.);
#540=VECTOR('',#888,1.);
#541=VECTOR('',#893,1.);
#542=VECTOR('',#894,1.);
#543=VECTOR('',#895,1.);
#544=VECTOR('',#896,1.);
#545=VECTOR('',#899,1.);
#546=VECTOR('',#900,1.);
#547=VECTOR('',#901,1.);
#548=VECTOR('',#902,1.);
#549=VECTOR('',#907,1.);
#550=VECTOR('',#908,1.);
#551=VECTOR('',#911,1.);
#552=VECTOR('',#912,1.);
#553=VECTOR('',#915,1.);
#554=VECTOR('',#916,1.);
#555=VECTOR('',#917,1.);
#556=VECTOR('',#918,1.);
#557=VECTOR('',#925,1.);
#558=VECTOR('',#930,1.);
#559=VECTOR('',#941,1.);
#560=VECTOR('',#942,1.);
#561=VECTOR('',#943,1.);
#562=VECTOR('',#944,1.);
#563=VECTOR('',#953,1.);
#564=VECTOR('',#954,1.);
#565=VECTOR('',#955,1.);
#566=VECTOR('',#960,1.);
#567=VECTOR('',#961,1.);
#568=VECTOR('',#962,1.);
#569=VECTOR('',#965,1.);
#570=VECTOR('',#966,1.);
#571=VECTOR('',#967,1.);
#572=VECTOR('',#972,1.);
#573=VECTOR('',#977,1.);
#574=VECTOR('',#978,1.);
#575=VECTOR('',#979,1.);
#576=VECTOR('',#982,1.);
#577=VECTOR('',#983,1.);
#578=VECTOR('',#986,1.);
#579=VECTOR('',#989,1.);
#580=VECTOR('',#990,1.);
#581=VECTOR('',#993,1.);
#582=VECTOR('',#994,1.);
#583=VECTOR('',#995,1.);
#584=VECTOR('',#998,1.);
#585=VECTOR('',#999,1.);
#586=VECTOR('',#1000,1.);
#587=VECTOR('',#1003,1.);
#588=VECTOR('',#1004,1.);
#589=VECTOR('',#1005,1.);
#590=VECTOR('',#1008,1.);
#591=VECTOR('',#1015,1.);
#592=VECTOR('',#1018,1.);
#593=VECTOR('',#1019,1.);
#594=VECTOR('',#1020,1.);
#595=VECTOR('',#1023,1.);
#596=VECTOR('',#1024,1.);
#597=VECTOR('',#1025,1.);
#598=VECTOR('',#1030,1.);
#599=VECTOR('',#1033,1.);
#600=VECTOR('',#1036,1.);
#601=VECTOR('',#1037,1.);
#602=VECTOR('',#1046,1.);
#603=VECTOR('',#1047,1.);
#604=VECTOR('',#1050,1.);
#605=VECTOR('',#1053,1.);
#606=VECTOR('',#1068,1.);
#607=VECTOR('',#1071,1.);
#608=EDGE_LOOP('',(#48,#49,#50,#51));
#609=EDGE_LOOP('',(#52,#53,#54,#55,#56,#57,#58,#59,#60,#61));
#610=EDGE_LOOP('',(#62));
#611=EDGE_LOOP('',(#63,#64,#65,#66));
#612=EDGE_LOOP('',(#67));
#613=EDGE_LOOP('',(#68,#69,#70,#71));
#614=EDGE_LOOP('',(#72,#73,#74,#75,#76));
#615=EDGE_LOOP('',(#77,#78,#79,#80,#81));
#616=EDGE_LOOP('',(#82,#83,#84,#85));
#617=EDGE_LOOP('',(#86,#87,#88,#89,#90));
#618=EDGE_LOOP('',(#91,#92,#93,#94,#95));
#619=EDGE_LOOP('',(#96,#97,#98,#99,#100,#101,#102,#103));
#620=EDGE_LOOP('',(#104,#105,#106,#107,#108,#109));
#621=EDGE_LOOP('',(#110));
#622=EDGE_LOOP('',(#111));
#623=EDGE_LOOP('',(#112,#113,#114,#115,#116,#117));
#624=EDGE_LOOP('',(#118,#119,#120,#121));
#625=EDGE_LOOP('',(#122,#123,#124,#125));
#626=EDGE_LOOP('',(#126,#127,#128,#129));
#627=EDGE_LOOP('',(#130,#131,#132,#133,#134,#135,#136,#137,#138,#139));
#628=EDGE_LOOP('',(#140,#141,#142,#143));
#629=EDGE_LOOP('',(#144,#145,#146,#147,#148,#149,#150,#151,#152,#153,#154,
#155));
#630=EDGE_LOOP('',(#156,#157,#158,#159,#160,#161,#162,#163,#164,#165,#166,
#167));
#631=EDGE_LOOP('',(#168,#169,#170,#171));
#632=EDGE_LOOP('',(#172,#173,#174,#175));
#633=EDGE_LOOP('',(#176,#177,#178,#179));
#634=EDGE_LOOP('',(#180,#181,#182,#183,#184));
#635=EDGE_LOOP('',(#185,#186,#187,#188,#189));
#636=EDGE_LOOP('',(#190,#191,#192,#193,#194,#195,#196,#197,#198,#199,#200,
#201));
#637=EDGE_LOOP('',(#202,#203,#204,#205,#206));
#638=EDGE_LOOP('',(#207));
#639=EDGE_LOOP('',(#208));
#640=EDGE_LOOP('',(#209,#210,#211,#212,#213));
#641=EDGE_LOOP('',(#214));
#642=EDGE_LOOP('',(#215,#216,#217,#218));
#643=EDGE_LOOP('',(#219));
#644=EDGE_LOOP('',(#220,#221,#222,#223));
#645=EDGE_LOOP('',(#224,#225,#226,#227));
#646=EDGE_LOOP('',(#228,#229,#230,#231));
#647=EDGE_LOOP('',(#232,#233,#234,#235));
#648=EDGE_LOOP('',(#236,#237,#238,#239));
#649=EDGE_LOOP('',(#240,#241,#242,#243));
#650=EDGE_LOOP('',(#244,#245,#246,#247));
#651=EDGE_LOOP('',(#248,#249,#250,#251));
#652=EDGE_LOOP('',(#252,#253,#254,#255));
#653=EDGE_LOOP('',(#256,#257,#258,#259));
#654=EDGE_LOOP('',(#260));
#655=EDGE_LOOP('',(#261));
#656=EDGE_LOOP('',(#262));
#657=EDGE_LOOP('',(#263));
#658=FACE_BOUND('',#608,.T.);
#659=FACE_BOUND('',#609,.T.);
#660=FACE_BOUND('',#610,.T.);
#661=FACE_BOUND('',#611,.T.);
#662=FACE_BOUND('',#612,.T.);
#663=FACE_BOUND('',#613,.T.);
#664=FACE_BOUND('',#614,.T.);
#665=FACE_BOUND('',#615,.T.);
#666=FACE_BOUND('',#616,.T.);
#667=FACE_BOUND('',#617,.T.);
#668=FACE_BOUND('',#618,.T.);
#669=FACE_BOUND('',#619,.T.);
#670=FACE_BOUND('',#620,.T.);
#671=FACE_BOUND('',#621,.T.);
#672=FACE_BOUND('',#622,.T.);
#673=FACE_BOUND('',#623,.T.);
#674=FACE_BOUND('',#624,.T.);
#675=FACE_BOUND('',#625,.T.);
#676=FACE_BOUND('',#626,.T.);
#677=FACE_BOUND('',#627,.T.);
#678=FACE_BOUND('',#628,.T.);
#679=FACE_BOUND('',#629,.T.);
#680=FACE_BOUND('',#630,.T.);
#681=FACE_BOUND('',#631,.T.);
#682=FACE_BOUND('',#632,.T.);
#683=FACE_BOUND('',#633,.T.);
#684=FACE_BOUND('',#634,.T.);
#685=FACE_BOUND('',#635,.T.);
#686=FACE_BOUND('',#636,.T.);
#687=FACE_BOUND('',#637,.T.);
#688=FACE_BOUND('',#638,.T.);
#689=FACE_BOUND('',#639,.T.);
#690=FACE_BOUND('',#640,.T.);
#691=FACE_BOUND('',#641,.T.);
#692=FACE_BOUND('',#642,.T.);
#693=FACE_BOUND('',#643,.T.);
#694=FACE_BOUND('',#644,.T.);
#695=FACE_BOUND('',#645,.T.);
#696=FACE_BOUND('',#646,.T.);
#697=FACE_BOUND('',#647,.T.);
#698=FACE_BOUND('',#648,.T.);
#699=FACE_BOUND('',#649,.T.);
#700=FACE_BOUND('',#650,.T.);
#701=FACE_BOUND('',#651,.T.);
#702=FACE_BOUND('',#652,.T.);
#703=FACE_BOUND('',#653,.T.);
#704=FACE_BOUND('',#654,.T.);
#705=FACE_BOUND('',#655,.T.);
#706=FACE_BOUND('',#656,.T.);
#707=FACE_BOUND('',#657,.T.);
#708=PLANE('',#793);
#709=PLANE('',#794);
#710=PLANE('',#797);
#711=PLANE('',#799);
#712=PLANE('',#801);
#713=PLANE('',#803);
#714=PLANE('',#805);
#715=PLANE('',#806);
#716=PLANE('',#809);
#717=PLANE('',#815);
#718=PLANE('',#816);
#719=PLANE('',#821);
#720=PLANE('',#822);
#721=PLANE('',#826);
#722=PLANE('',#829);
#723=PLANE('',#830);
#724=PLANE('',#831);
#725=PLANE('',#832);
#726=PLANE('',#833);
#727=PLANE('',#835);
#728=PLANE('',#837);
#729=PLANE('',#838);
#730=PLANE('',#842);
#731=PLANE('',#846);
#732=PLANE('',#847);
#733=PLANE('',#848);
#734=PLANE('',#853);
#735=PLANE('',#854);
#736=PLANE('',#855);
#737=PLANE('',#856);
#738=PLANE('',#857);
#739=ADVANCED_FACE('',(#658),#708,.F.);
#740=ADVANCED_FACE('',(#659),#709,.F.);
#741=ADVANCED_FACE('',(#660,#661),#710,.T.);
#742=ADVANCED_FACE('',(#662,#663),#711,.T.);
#743=ADVANCED_FACE('',(#664),#712,.T.);
#744=ADVANCED_FACE('',(#665),#713,.T.);
#745=ADVANCED_FACE('',(#666),#714,.T.);
#746=ADVANCED_FACE('',(#667),#715,.T.);
#747=ADVANCED_FACE('',(#668),#716,.F.);
#748=ADVANCED_FACE('',(#669),#12,.T.);
#749=ADVANCED_FACE('',(#670),#717,.T.);
#750=ADVANCED_FACE('',(#671,#672,#673),#718,.T.);
#751=ADVANCED_FACE('',(#674),#719,.T.);
#752=ADVANCED_FACE('',(#675),#720,.T.);
#753=ADVANCED_FACE('',(#676),#13,.F.);
#754=ADVANCED_FACE('',(#677),#721,.F.);
#755=ADVANCED_FACE('',(#678),#722,.F.);
#756=ADVANCED_FACE('',(#679),#723,.T.);
#757=ADVANCED_FACE('',(#680),#724,.F.);
#758=ADVANCED_FACE('',(#681),#725,.F.);
#759=ADVANCED_FACE('',(#682),#726,.T.);
#760=ADVANCED_FACE('',(#683),#727,.F.);
#761=ADVANCED_FACE('',(#684),#728,.T.);
#762=ADVANCED_FACE('',(#685),#729,.F.);
#763=ADVANCED_FACE('',(#686),#14,.T.);
#764=ADVANCED_FACE('',(#687),#730,.F.);
#765=ADVANCED_FACE('',(#688,#689),#15,.F.);
#766=ADVANCED_FACE('',(#690),#731,.T.);
#767=ADVANCED_FACE('',(#691,#692),#732,.T.);
#768=ADVANCED_FACE('',(#693,#694),#733,.F.);
#769=ADVANCED_FACE('',(#695),#16,.T.);
#770=ADVANCED_FACE('',(#696),#17,.T.);
#771=ADVANCED_FACE('',(#697),#18,.T.);
#772=ADVANCED_FACE('',(#698),#19,.T.);
#773=ADVANCED_FACE('',(#699),#734,.T.);
#774=ADVANCED_FACE('',(#700),#735,.F.);
#775=ADVANCED_FACE('',(#701),#736,.T.);
#776=ADVANCED_FACE('',(#702),#737,.T.);
#777=ADVANCED_FACE('',(#703),#738,.F.);
#778=ADVANCED_FACE('',(#704,#705),#20,.F.);
#779=ADVANCED_FACE('',(#706,#707),#21,.F.);
#780=CLOSED_SHELL('',(#739,#740,#741,#742,#743,#744,#745,#746,#747,#748,
#749,#750,#751,#752,#753,#754,#755,#756,#757,#758,#759,#760,#761,#762,#763,
#764,#765,#766,#767,#768,#769,#770,#771,#772,#773,#774,#775,#776,#777,#778,
#779));
#781=STYLED_ITEM('',(#782),#789);
#782=PRESENTATION_STYLE_ASSIGNMENT((#783));
#783=SURFACE_STYLE_USAGE(.BOTH.,#784);
#784=SURFACE_SIDE_STYLE('',(#785));
#785=SURFACE_STYLE_FILL_AREA(#786);
#786=FILL_AREA_STYLE('',(#787));
#787=FILL_AREA_STYLE_COLOUR('',#788);
#788=COLOUR_RGB('',0.615686274509804,0.811764705882353,0.929411764705882);
#789=MANIFOLD_SOLID_BREP('Part 1',#780);
#790=SHAPE_DEFINITION_REPRESENTATION(#1306,#791);
#791=SHAPE_REPRESENTATION('Part 1',(#792),#1301);
#792=AXIS2_PLACEMENT_3D('',#1078,#860,#861);
#793=AXIS2_PLACEMENT_3D('',#1079,#862,#863);
#794=AXIS2_PLACEMENT_3D('',#1088,#868,#869);
#795=AXIS2_PLACEMENT_3D('',#1091,#871,#872);
#796=AXIS2_PLACEMENT_3D('',#1099,#876,#877);
#797=AXIS2_PLACEMENT_3D('',#1106,#881,#882);
#798=AXIS2_PLACEMENT_3D('',#1107,#883,#884);
#799=AXIS2_PLACEMENT_3D('',#1117,#889,#890);
#800=AXIS2_PLACEMENT_3D('',#1118,#891,#892);
#801=AXIS2_PLACEMENT_3D('',#1128,#897,#898);
#802=AXIS2_PLACEMENT_3D('',#1138,#903,#904);
#803=AXIS2_PLACEMENT_3D('',#1139,#905,#906);
#804=AXIS2_PLACEMENT_3D('',#1145,#909,#910);
#805=AXIS2_PLACEMENT_3D('',#1150,#913,#914);
#806=AXIS2_PLACEMENT_3D('',#1159,#919,#920);
#807=AXIS2_PLACEMENT_3D('',#1160,#921,#922);
#808=AXIS2_PLACEMENT_3D('',#1161,#923,#924);
#809=AXIS2_PLACEMENT_3D('',#1164,#926,#927);
#810=AXIS2_PLACEMENT_3D('',#1165,#928,#929);
#811=AXIS2_PLACEMENT_3D('',#1168,#931,#932);
#812=AXIS2_PLACEMENT_3D('',#1169,#933,#934);
#813=AXIS2_PLACEMENT_3D('',#1170,#935,#936);
#814=AXIS2_PLACEMENT_3D('',#1171,#937,#938);
#815=AXIS2_PLACEMENT_3D('',#1172,#939,#940);
#816=AXIS2_PLACEMENT_3D('',#1179,#945,#946);
#817=AXIS2_PLACEMENT_3D('',#1180,#947,#948);
#818=AXIS2_PLACEMENT_3D('',#1182,#949,#950);
#819=AXIS2_PLACEMENT_3D('',#1184,#951,#952);
#820=AXIS2_PLACEMENT_3D('',#1192,#956,#957);
#821=AXIS2_PLACEMENT_3D('',#1193,#958,#959);
#822=AXIS2_PLACEMENT_3D('',#1199,#963,#964);
#823=AXIS2_PLACEMENT_3D('',#1205,#968,#969);
#824=AXIS2_PLACEMENT_3D('',#1206,#970,#971);
#825=AXIS2_PLACEMENT_3D('',#1210,#973,#974);
#826=AXIS2_PLACEMENT_3D('',#1211,#975,#976);
#827=AXIS2_PLACEMENT_3D('',#1219,#980,#981);
#828=AXIS2_PLACEMENT_3D('',#1224,#984,#985);
#829=AXIS2_PLACEMENT_3D('',#1226,#987,#988);
#830=AXIS2_PLACEMENT_3D('',#1229,#991,#992);
#831=AXIS2_PLACEMENT_3D('',#1233,#996,#997);
#832=AXIS2_PLACEMENT_3D('',#1237,#1001,#1002);
#833=AXIS2_PLACEMENT_3D('',#1243,#1006,#1007);
#834=AXIS2_PLACEMENT_3D('',#1246,#1009,#1010);
#835=AXIS2_PLACEMENT_3D('',#1247,#1011,#1012);
#836=AXIS2_PLACEMENT_3D('',#1248,#1013,#1014);
#837=AXIS2_PLACEMENT_3D('',#1251,#1016,#1017);
#838=AXIS2_PLACEMENT_3D('',#1257,#1021,#1022);
#839=AXIS2_PLACEMENT_3D('',#1263,#1026,#1027);
#840=AXIS2_PLACEMENT_3D('',#1264,#1028,#1029);
#841=AXIS2_PLACEMENT_3D('',#1267,#1031,#1032);
#842=AXIS2_PLACEMENT_3D('',#1270,#1034,#1035);
#843=AXIS2_PLACEMENT_3D('',#1274,#1038,#1039);
#844=AXIS2_PLACEMENT_3D('',#1275,#1040,#1041);
#845=AXIS2_PLACEMENT_3D('',#1277,#1042,#1043);
#846=AXIS2_PLACEMENT_3D('',#1279,#1044,#1045);
#847=AXIS2_PLACEMENT_3D('',#1283,#1048,#1049);
#848=AXIS2_PLACEMENT_3D('',#1285,#1051,#1052);
#849=AXIS2_PLACEMENT_3D('',#1287,#1054,#1055);
#850=AXIS2_PLACEMENT_3D('',#1288,#1056,#1057);
#851=AXIS2_PLACEMENT_3D('',#1289,#1058,#1059);
#852=AXIS2_PLACEMENT_3D('',#1290,#1060,#1061);
#853=AXIS2_PLACEMENT_3D('',#1291,#1062,#1063);
#854=AXIS2_PLACEMENT_3D('',#1292,#1064,#1065);
#855=AXIS2_PLACEMENT_3D('',#1293,#1066,#1067);
#856=AXIS2_PLACEMENT_3D('',#1295,#1069,#1070);
#857=AXIS2_PLACEMENT_3D('',#1297,#1072,#1073);
#858=AXIS2_PLACEMENT_3D('',#1298,#1074,#1075);
#859=AXIS2_PLACEMENT_3D('',#1299,#1076,#1077);
#860=DIRECTION('',(0.,0.,1.));
#861=DIRECTION('',(1.,0.,0.));
#862=DIRECTION('',(-1.,0.,0.));
#863=DIRECTION('',(0.,0.,1.));
#864=DIRECTION('',(-1.07805135818533E-16,0.,1.));
#865=DIRECTION('',(0.,1.,0.));
#866=DIRECTION('',(0.,0.,1.));
#867=DIRECTION('',(0.,1.,0.));
#868=DIRECTION('',(1.07805135818533E-16,0.,-1.));
#869=DIRECTION('',(-1.,0.,-1.07805135818533E-16));
#870=DIRECTION('',(-1.,0.,-1.07805135818533E-16));
#871=DIRECTION('',(1.07805135818533E-16,0.,-1.));
#872=DIRECTION('',(-1.,0.,-1.07805135818533E-16));
#873=DIRECTION('',(-1.,0.,-1.07805135818533E-16));
#874=DIRECTION('',(0.,1.,0.));
#875=DIRECTION('',(-1.,0.,-1.07805135818533E-16));
#876=DIRECTION('',(1.07805135818533E-16,0.,-1.));
#877=DIRECTION('',(-1.,0.,-1.07805135818533E-16));
#878=DIRECTION('',(0.,1.,0.));
#879=DIRECTION('',(-1.,0.,-1.07805135818533E-16));
#880=DIRECTION('',(0.,1.,0.));
#881=DIRECTION('',(0.,0.,1.));
#882=DIRECTION('',(1.,0.,0.));
#883=DIRECTION('',(0.,0.,1.));
#884=DIRECTION('',(1.,0.,0.));
#885=DIRECTION('',(1.,0.,0.));
#886=DIRECTION('',(0.,1.,0.));
#887=DIRECTION('',(1.,0.,0.));
#888=DIRECTION('',(0.,1.,0.));
#889=DIRECTION('',(0.,0.,1.));
#890=DIRECTION('',(1.,0.,0.));
#891=DIRECTION('',(0.,0.,1.));
#892=DIRECTION('',(1.,0.,0.));
#893=DIRECTION('',(0.,1.,0.));
#894=DIRECTION('',(1.,0.,0.));
#895=DIRECTION('',(0.,1.,0.));
#896=DIRECTION('',(1.,0.,0.));
#897=DIRECTION('',(0.,0.,1.));
#898=DIRECTION('',(1.,0.,0.));
#899=DIRECTION('',(1.,0.,0.));
#900=DIRECTION('',(0.,1.,0.));
#901=DIRECTION('',(1.,0.,0.));
#902=DIRECTION('',(0.,1.,0.));
#903=DIRECTION('',(0.,0.,1.));
#904=DIRECTION('',(1.,0.,0.));
#905=DIRECTION('',(0.,0.,1.));
#906=DIRECTION('',(1.,0.,0.));
#907=DIRECTION('',(0.,1.,0.));
#908=DIRECTION('',(1.,0.,0.));
#909=DIRECTION('',(0.,0.,1.));
#910=DIRECTION('',(1.,0.,0.));
#911=DIRECTION('',(0.,1.,0.));
#912=DIRECTION('',(1.,0.,0.));
#913=DIRECTION('',(0.657534246575343,0.,0.753424657534247));
#914=DIRECTION('',(0.753424657534247,0.,-0.657534246575343));
#915=DIRECTION('',(0.753424657534247,0.,-0.657534246575343));
#916=DIRECTION('',(0.,1.,0.));
#917=DIRECTION('',(0.753424657534247,0.,-0.657534246575343));
#918=DIRECTION('',(0.,1.,0.));
#919=DIRECTION('',(0.,-1.,0.));
#920=DIRECTION('',(1.,0.,0.));
#921=DIRECTION('',(0.,-1.,0.));
#922=DIRECTION('',(0.,0.,-1.));
#923=DIRECTION('',(0.,-1.,0.));
#924=DIRECTION('',(0.,0.,-1.));
#925=DIRECTION('',(0.,0.,-1.));
#926=DIRECTION('',(0.,-1.,0.));
#927=DIRECTION('',(1.,0.,0.));
#928=DIRECTION('',(0.,-1.,0.));
#929=DIRECTION('',(0.,0.,-1.));
#930=DIRECTION('',(0.,0.,-1.));
#931=DIRECTION('',(0.,-1.,0.));
#932=DIRECTION('',(0.,0.,-1.));
#933=DIRECTION('',(0.,1.,0.));
#934=DIRECTION('',(0.,0.,1.));
#935=DIRECTION('',(0.,-1.,0.));
#936=DIRECTION('',(0.,0.,-1.));
#937=DIRECTION('',(0.,-1.,0.));
#938=DIRECTION('',(0.,0.,-1.));
#939=DIRECTION('',(-1.,0.,0.));
#940=DIRECTION('',(0.,0.,1.));
#941=DIRECTION('',(0.,0.,1.));
#942=DIRECTION('',(0.,1.,0.));
#943=DIRECTION('',(0.,0.,1.));
#944=DIRECTION('',(0.,1.,0.));
#945=DIRECTION('',(1.14126544472158E-16,0.,-1.));
#946=DIRECTION('',(-1.,0.,-1.14126544472158E-16));
#947=DIRECTION('',(1.14126544472158E-16,0.,-1.));
#948=DIRECTION('',(-1.,0.,-1.14126544472158E-16));
#949=DIRECTION('',(1.14126544472158E-16,0.,-1.));
#950=DIRECTION('',(-1.,0.,-1.14126544472158E-16));
#951=DIRECTION('',(1.14126544472158E-16,0.,-1.));
#952=DIRECTION('',(-1.,0.,-1.14126544472158E-16));
#953=DIRECTION('',(-1.,0.,-1.14126544472158E-16));
#954=DIRECTION('',(0.,1.,0.));
#955=DIRECTION('',(-1.,0.,-1.14126544472158E-16));
#956=DIRECTION('',(1.14126544472158E-16,0.,-1.));
#957=DIRECTION('',(-1.,0.,-1.14126544472158E-16));
#958=DIRECTION('',(1.,0.,0.));
#959=DIRECTION('',(0.,0.,-1.));
#960=DIRECTION('',(0.,0.,-1.));
#961=DIRECTION('',(0.,1.,0.));
#962=DIRECTION('',(0.,0.,-1.));
#963=DIRECTION('',(0.,0.,-1.));
#964=DIRECTION('',(-1.,0.,0.));
#965=DIRECTION('',(-1.,0.,0.));
#966=DIRECTION('',(0.,1.,0.));
#967=DIRECTION('',(-1.,0.,0.));
#968=DIRECTION('',(0.,1.,0.));
#969=DIRECTION('',(0.,0.,1.));
#970=DIRECTION('',(0.,-1.,0.));
#971=DIRECTION('',(0.,0.,-1.));
#972=DIRECTION('',(0.,1.,0.));
#973=DIRECTION('',(0.,-1.,0.));
#974=DIRECTION('',(0.,0.,-1.));
#975=DIRECTION('',(0.,0.,1.));
#976=DIRECTION('',(1.,0.,0.));
#977=DIRECTION('',(0.,-1.,0.));
#978=DIRECTION('',(1.,0.,0.));
#979=DIRECTION('',(0.,1.,0.));
#980=DIRECTION('',(0.,0.,1.));
#981=DIRECTION('',(1.,0.,0.));
#982=DIRECTION('',(1.,0.,0.));
#983=DIRECTION('',(1.,0.,0.));
#984=DIRECTION('',(0.,0.,1.));
#985=DIRECTION('',(1.,0.,0.));
#986=DIRECTION('',(1.,0.,0.));
#987=DIRECTION('',(-1.,0.,0.));
#988=DIRECTION('',(0.,0.,1.));
#989=DIRECTION('',(-1.07805135818533E-16,0.,1.));
#990=DIRECTION('',(0.,0.,1.));
#991=DIRECTION('',(0.,-1.,0.));
#992=DIRECTION('',(1.,0.,0.));
#993=DIRECTION('',(0.,0.,1.));
#994=DIRECTION('',(1.,0.,0.));
#995=DIRECTION('',(0.,0.,1.));
#996=DIRECTION('',(0.,-1.,0.));
#997=DIRECTION('',(1.,0.,0.));
#998=DIRECTION('',(0.,0.,1.));
#999=DIRECTION('',(1.,0.,0.));
#1000=DIRECTION('',(0.,0.,1.));
#1001=DIRECTION('',(0.960346226753624,0.,-0.278810194863956));
#1002=DIRECTION('',(-0.278810194863956,0.,-0.960346226753624));
#1003=DIRECTION('',(-0.278810194863956,0.,-0.960346226753624));
#1004=DIRECTION('',(-0.278810194863956,0.,-0.960346226753624));
#1005=DIRECTION('',(0.,1.,0.));
#1006=DIRECTION('',(0.,-1.,0.));
#1007=DIRECTION('',(1.,0.,0.));
#1008=DIRECTION('',(0.,0.,-1.));
#1009=DIRECTION('',(0.,-1.,0.));
#1010=DIRECTION('',(0.,0.,-1.));
#1011=DIRECTION('',(0.,-1.,0.));
#1012=DIRECTION('',(1.,0.,0.));
#1013=DIRECTION('',(0.,-1.,0.));
#1014=DIRECTION('',(0.,0.,-1.));
#1015=DIRECTION('',(0.,0.,-1.));
#1016=DIRECTION('',(1.,0.,0.));
#1017=DIRECTION('',(0.,0.,-1.));
#1018=DIRECTION('',(0.,1.,0.));
#1019=DIRECTION('',(0.,0.,-1.));
#1020=DIRECTION('',(0.,0.467887720419033,0.883787916347062));
#1021=DIRECTION('',(1.,0.,0.));
#1022=DIRECTION('',(0.,0.,-1.));
#1023=DIRECTION('',(0.,1.,0.));
#1024=DIRECTION('',(0.,-0.467887720419033,-0.883787916347062));
#1025=DIRECTION('',(0.,0.,-1.));
#1026=DIRECTION('',(0.,1.,0.));
#1027=DIRECTION('',(0.,0.,1.));
#1028=DIRECTION('',(0.,-1.,0.));
#1029=DIRECTION('',(0.,0.,-1.));
#1030=DIRECTION('',(0.,1.,0.));
#1031=DIRECTION('',(0.,-1.,0.));
#1032=DIRECTION('',(0.,0.,-1.));
#1033=DIRECTION('',(0.,1.,0.));
#1034=DIRECTION('',(1.,0.,0.));
#1035=DIRECTION('',(0.,0.,-1.));
#1036=DIRECTION('',(0.,0.,-1.));
#1037=DIRECTION('',(0.,0.467887720419033,-0.883787916347062));
#1038=DIRECTION('',(0.,1.,0.));
#1039=DIRECTION('',(0.,0.,1.));
#1040=DIRECTION('',(0.,-1.,0.));
#1041=DIRECTION('',(0.,0.,-1.));
#1042=DIRECTION('',(0.,-1.,0.));
#1043=DIRECTION('',(0.,0.,-1.));
#1044=DIRECTION('',(1.,0.,0.));
#1045=DIRECTION('',(0.,0.,-1.));
#1046=DIRECTION('',(0.,-0.467887720419033,0.883787916347062));
#1047=DIRECTION('',(0.,0.,-1.));
#1048=DIRECTION('',(0.,-1.,0.));
#1049=DIRECTION('',(1.,0.,0.));
#1050=DIRECTION('',(1.,0.,0.));
#1051=DIRECTION('',(0.,-1.,0.));
#1052=DIRECTION('',(1.,0.,0.));
#1053=DIRECTION('',(-1.,0.,0.));
#1054=DIRECTION('',(0.,0.,-1.));
#1055=DIRECTION('',(-1.,0.,0.));
#1056=DIRECTION('',(0.,0.,1.));
#1057=DIRECTION('',(1.,0.,0.));
#1058=DIRECTION('',(0.,0.,-1.));
#1059=DIRECTION('',(-1.,0.,0.));
#1060=DIRECTION('',(0.,0.,1.));
#1061=DIRECTION('',(1.,0.,0.));
#1062=DIRECTION('',(0.,-0.883787916347062,0.467887720419033));
#1063=DIRECTION('',(-1.,0.,0.));
#1064=DIRECTION('',(0.,-0.883787916347062,-0.467887720419033));
#1065=DIRECTION('',(1.,0.,0.));
#1066=DIRECTION('',(0.,1.,0.));
#1067=DIRECTION('',(0.,0.,1.));
#1068=DIRECTION('',(-1.07805135818533E-16,0.,1.));
#1069=DIRECTION('',(1.,0.,1.07805135818533E-16));
#1070=DIRECTION('',(1.07805135818533E-16,0.,-1.));
#1071=DIRECTION('',(-1.07805135818533E-16,0.,1.));
#1072=DIRECTION('',(0.,1.,0.));
#1073=DIRECTION('',(0.,0.,1.));
#1074=DIRECTION('',(0.,0.,1.));
#1075=DIRECTION('',(1.,0.,0.));
#1076=DIRECTION('',(0.,0.,1.));
#1077=DIRECTION('',(1.,0.,0.));
#1078=CARTESIAN_POINT('',(0.,0.,0.));
#1079=CARTESIAN_POINT('',(0.054,-0.036,0.005));
#1080=CARTESIAN_POINT('',(0.054,0.01,-1.9999999999968E-6));
#1081=CARTESIAN_POINT('',(0.054,0.01,0.));
#1082=CARTESIAN_POINT('',(0.054,0.01,0.01));
#1083=CARTESIAN_POINT('',(0.054,-0.036,1.7347234759768E-18));
#1084=CARTESIAN_POINT('',(0.054,0.026,1.7347234759768E-18));
#1085=CARTESIAN_POINT('',(0.054,0.026,0.005));
#1086=CARTESIAN_POINT('',(0.054,0.026,0.01));
#1087=CARTESIAN_POINT('',(0.054,-0.036,0.01));
#1088=CARTESIAN_POINT('',(0.0379087121146357,-0.036,0.01));
#1089=CARTESIAN_POINT('',(0.049,0.01,0.01));
#1090=CARTESIAN_POINT('',(0.044,0.01,0.01));
#1091=CARTESIAN_POINT('',(0.044,0.026,0.01));
#1092=CARTESIAN_POINT('',(0.044,0.036,0.01));
#1093=CARTESIAN_POINT('',(0.0379087121146357,0.036,0.01));
#1094=CARTESIAN_POINT('',(0.0218174242292715,0.036,0.01));
#1095=CARTESIAN_POINT('',(0.0218174242292715,-0.036,0.01));
#1096=CARTESIAN_POINT('',(0.0218174242292715,-0.036,0.01));
#1097=CARTESIAN_POINT('',(0.0379087121146357,-0.036,0.01));
#1098=CARTESIAN_POINT('',(0.044,-0.036,0.01));
#1099=CARTESIAN_POINT('',(0.044,-0.026,0.01));
#1100=CARTESIAN_POINT('',(0.054,-0.026,0.01));
#1101=CARTESIAN_POINT('',(0.054,-0.036,0.01));
#1102=CARTESIAN_POINT('',(0.054,-0.01,0.01));
#1103=CARTESIAN_POINT('',(0.049,-0.01,0.01));
#1104=CARTESIAN_POINT('',(0.044,-0.01,0.01));
#1105=CARTESIAN_POINT('',(0.044,0.005,0.01));
#1106=CARTESIAN_POINT('',(-0.0404087121146357,-0.036,0.01));
#1107=CARTESIAN_POINT('',(-0.036,0.018,0.01));
#1108=CARTESIAN_POINT('',(-0.03,0.018,0.01));
#1109=CARTESIAN_POINT('',(-0.0404087121146357,0.036,0.01));
#1110=CARTESIAN_POINT('',(-0.059,0.036,0.01));
#1111=CARTESIAN_POINT('',(-0.0218174242292715,0.036,0.01));
#1112=CARTESIAN_POINT('',(-0.059,-0.018,0.01));
#1113=CARTESIAN_POINT('',(-0.059,0.005,0.01));
#1114=CARTESIAN_POINT('',(-0.0404087121146357,0.005,0.01));
#1115=CARTESIAN_POINT('',(-0.0218174242292715,0.005,0.01));
#1116=CARTESIAN_POINT('',(-0.0218174242292715,-0.036,0.01));
#1117=CARTESIAN_POINT('',(-0.0404087121146357,-0.036,0.01));
#1118=CARTESIAN_POINT('',(-0.036,-0.018,0.01));
#1119=CARTESIAN_POINT('',(-0.03,-0.018,0.01));
#1120=CARTESIAN_POINT('',(-0.059,-0.018,0.01));
#1121=CARTESIAN_POINT('',(-0.059,-0.036,0.01));
#1122=CARTESIAN_POINT('',(-0.059,-0.005,0.01));
#1123=CARTESIAN_POINT('',(-0.0404087121146357,-0.036,0.01));
#1124=CARTESIAN_POINT('',(-0.0218174242292715,-0.036,0.01));
#1125=CARTESIAN_POINT('',(-0.0218174242292715,-0.036,0.01));
#1126=CARTESIAN_POINT('',(-0.0218174242292715,-0.005,0.01));
#1127=CARTESIAN_POINT('',(-0.0404087121146357,-0.005,0.01));
#1128=CARTESIAN_POINT('',(-0.0404087121146357,-0.036,0.01));
#1129=CARTESIAN_POINT('',(-0.0404087121146357,-0.036,0.01));
#1130=CARTESIAN_POINT('',(-0.09,-0.036,0.01));
#1131=CARTESIAN_POINT('',(-0.069,-0.036,0.01));
#1132=CARTESIAN_POINT('',(-0.069,-0.018,0.01));
#1133=CARTESIAN_POINT('',(-0.069,-0.005,0.01));
#1134=CARTESIAN_POINT('',(-0.0845,-0.005,0.01));
#1135=CARTESIAN_POINT('',(-0.1,-0.005,0.01));
#1136=CARTESIAN_POINT('',(-0.1,-0.036,0.01));
#1137=CARTESIAN_POINT('',(-0.1,-0.026,0.01));
#1138=CARTESIAN_POINT('',(-0.09,-0.026,0.01));
#1139=CARTESIAN_POINT('',(-0.0404087121146357,-0.036,0.01));
#1140=CARTESIAN_POINT('',(-0.069,-0.018,0.01));
#1141=CARTESIAN_POINT('',(-0.069,0.005,0.01));
#1142=CARTESIAN_POINT('',(-0.069,0.036,0.01));
#1143=CARTESIAN_POINT('',(-0.0404087121146357,0.036,0.01));
#1144=CARTESIAN_POINT('',(-0.09,0.036,0.01));
#1145=CARTESIAN_POINT('',(-0.09,0.026,0.01));
#1146=CARTESIAN_POINT('',(-0.1,0.026,0.01));
#1147=CARTESIAN_POINT('',(-0.1,-0.036,0.01));
#1148=CARTESIAN_POINT('',(-0.1,0.005,0.01));
#1149=CARTESIAN_POINT('',(-0.0845,0.005,0.01));
#1150=CARTESIAN_POINT('',(-0.0151095890410959,-0.005,0.045041095890411));
#1151=CARTESIAN_POINT('',(-0.0151095890410959,0.005,0.045041095890411));
#1152=CARTESIAN_POINT('',(-0.046,0.005,0.072));
#1153=CARTESIAN_POINT('',(0.0157808219178082,0.005,0.0180821917808219));
#1154=CARTESIAN_POINT('',(-0.046,-0.005,0.072));
#1155=CARTESIAN_POINT('',(-0.046,-0.005,0.072));
#1156=CARTESIAN_POINT('',(-0.0151095890410959,-0.005,0.045041095890411));
#1157=CARTESIAN_POINT('',(0.0157808219178082,-0.005,0.0180821917808219));
#1158=CARTESIAN_POINT('',(0.0157808219178082,-0.005,0.0180821917808219));
#1159=CARTESIAN_POINT('',(-0.023,-0.005,0.04));
#1160=CARTESIAN_POINT('',(0.,-0.005,-8.67361737988404E-19));
#1161=CARTESIAN_POINT('',(-0.064,-0.005,0.072));
#1162=CARTESIAN_POINT('',(-0.059,-0.005,0.0547083835342094));
#1163=CARTESIAN_POINT('',(-0.059,-0.005,0.0493541917671047));
#1164=CARTESIAN_POINT('',(-0.023,0.005,0.04));
#1165=CARTESIAN_POINT('',(0.,0.005,-8.67361737988404E-19));
#1166=CARTESIAN_POINT('',(-0.059,0.005,0.0493541917671047));
#1167=CARTESIAN_POINT('',(-0.059,0.005,0.0547083835342094));
#1168=CARTESIAN_POINT('',(-0.064,0.005,0.072));
#1169=CARTESIAN_POINT('',(8.50014503228636E-17,-0.036,5.29090660172926E-17));
#1170=CARTESIAN_POINT('',(8.50014503228636E-17,-0.036,5.29090660172926E-17));
#1171=CARTESIAN_POINT('',(8.50014503228636E-17,0.036,5.29090660172926E-17));
#1172=CARTESIAN_POINT('',(-0.1,-0.036,-1.04083408558608E-17));
#1173=CARTESIAN_POINT('',(-0.1,0.026,-0.01));
#1174=CARTESIAN_POINT('',(-0.1,0.026,-0.01));
#1175=CARTESIAN_POINT('',(-0.1,-0.036,-0.01));
#1176=CARTESIAN_POINT('',(-0.1,-0.026,-0.01));
#1177=CARTESIAN_POINT('',(-0.1,-0.026,-1.04083408558608E-17));
#1178=CARTESIAN_POINT('',(-0.1,-0.005,0.01));
#1179=CARTESIAN_POINT('',(-0.062,-0.036,-0.01));
#1180=CARTESIAN_POINT('',(-0.036,0.018,-0.01));
#1181=CARTESIAN_POINT('',(-0.042,0.018,-0.01));
#1182=CARTESIAN_POINT('',(-0.036,-0.018,-0.01));
#1183=CARTESIAN_POINT('',(-0.042,-0.018,-0.01));
#1184=CARTESIAN_POINT('',(-0.09,0.026,-0.01));
#1185=CARTESIAN_POINT('',(-0.09,0.036,-0.01));
#1186=CARTESIAN_POINT('',(-0.062,0.036,-0.01));
#1187=CARTESIAN_POINT('',(-0.024,0.036,-0.01));
#1188=CARTESIAN_POINT('',(-0.024,-0.036,-0.01));
#1189=CARTESIAN_POINT('',(-0.024,-0.036,-0.01));
#1190=CARTESIAN_POINT('',(-0.062,-0.036,-0.01));
#1191=CARTESIAN_POINT('',(-0.09,-0.036,-0.01));
#1192=CARTESIAN_POINT('',(-0.09,-0.026,-0.01));
#1193=CARTESIAN_POINT('',(-0.024,-0.036,-0.005));
#1194=CARTESIAN_POINT('',(-0.024,0.036,-0.005));
#1195=CARTESIAN_POINT('',(-0.024,0.036,0.));
#1196=CARTESIAN_POINT('',(-0.024,-0.036,0.));
#1197=CARTESIAN_POINT('',(-0.024,-0.036,0.));
#1198=CARTESIAN_POINT('',(-0.024,-0.036,-0.005));
#1199=CARTESIAN_POINT('',(-0.021,-0.036,0.));
#1200=CARTESIAN_POINT('',(-0.021,0.036,0.));
#1201=CARTESIAN_POINT('',(-0.018,0.036,2.20436423846524E-18));
#1202=CARTESIAN_POINT('',(-0.018,-0.036,2.20436423846524E-18));
#1203=CARTESIAN_POINT('',(-0.018,-0.036,2.20436423846524E-18));
#1204=CARTESIAN_POINT('',(-0.021,-0.036,0.));
#1205=CARTESIAN_POINT('',(0.,-0.036,1.10218211923262E-18));
#1206=CARTESIAN_POINT('',(0.,0.036,1.10218211923262E-18));
#1207=CARTESIAN_POINT('',(0.018,0.036,0.));
#1208=CARTESIAN_POINT('',(0.018,-0.036,0.));
#1209=CARTESIAN_POINT('',(0.018,-0.036,0.));
#1210=CARTESIAN_POINT('',(0.,-0.036,1.10218211923262E-18));
#1211=CARTESIAN_POINT('',(0.036,-0.036,0.));
#1212=CARTESIAN_POINT('',(0.044,0.005,0.));
#1213=CARTESIAN_POINT('',(0.044,0.01,0.));
#1214=CARTESIAN_POINT('',(0.044,-0.01,0.));
#1215=CARTESIAN_POINT('',(0.049,-0.01,0.));
#1216=CARTESIAN_POINT('',(0.054,-0.01,0.));
#1217=CARTESIAN_POINT('',(0.054,-0.036,1.7347234759768E-18));
#1218=CARTESIAN_POINT('',(0.054,-0.026,1.7347234759768E-18));
#1219=CARTESIAN_POINT('',(0.044,-0.026,0.));
#1220=CARTESIAN_POINT('',(0.044,-0.036,0.));
#1221=CARTESIAN_POINT('',(0.036,-0.036,0.));
#1222=CARTESIAN_POINT('',(0.036,0.036,0.));
#1223=CARTESIAN_POINT('',(0.044,0.036,0.));
#1224=CARTESIAN_POINT('',(0.044,0.026,0.));
#1225=CARTESIAN_POINT('',(0.049,0.01,0.));
#1226=CARTESIAN_POINT('',(0.054,-0.036,0.005));
#1227=CARTESIAN_POINT('',(0.054,-0.01,-1.9999999999968E-6));
#1228=CARTESIAN_POINT('',(0.054,-0.026,0.));
#1229=CARTESIAN_POINT('',(-0.023,-0.036,0.04));
#1230=CARTESIAN_POINT('',(0.044,-0.036,0.01));
#1231=CARTESIAN_POINT('',(-0.0404087121146357,-0.036,0.01));
#1232=CARTESIAN_POINT('',(-0.09,-0.036,0.04));
#1233=CARTESIAN_POINT('',(-0.023,0.036,0.04));
#1234=CARTESIAN_POINT('',(-0.09,0.036,0.01));
#1235=CARTESIAN_POINT('',(-0.0404087121146357,0.036,0.01));
#1236=CARTESIAN_POINT('',(0.044,0.036,0.04));
#1237=CARTESIAN_POINT('',(-0.091,-0.005,0.041));
#1238=CARTESIAN_POINT('',(-0.091,0.005,0.041));
#1239=CARTESIAN_POINT('',(-0.082,0.005,0.072));
#1240=CARTESIAN_POINT('',(-0.091,-0.005,0.041));
#1241=CARTESIAN_POINT('',(-0.082,-0.005,0.072));
#1242=CARTESIAN_POINT('',(-0.082,-0.005,0.072));
#1243=CARTESIAN_POINT('',(-0.023,-0.005,0.04));
#1244=CARTESIAN_POINT('',(-0.069,-0.005,0.027));
#1245=CARTESIAN_POINT('',(-0.069,-0.005,0.0547083835342094));
#1246=CARTESIAN_POINT('',(-0.064,-0.005,0.072));
#1247=CARTESIAN_POINT('',(-0.023,0.005,0.04));
#1248=CARTESIAN_POINT('',(-0.064,0.005,0.072));
#1249=CARTESIAN_POINT('',(-0.069,0.005,0.0547083835342094));
#1250=CARTESIAN_POINT('',(-0.069,0.005,0.027));
#1251=CARTESIAN_POINT('',(-0.059,-0.018,0.0493541917671047));
#1252=CARTESIAN_POINT('',(-0.059,-0.018,0.0547083835342094));
#1253=CARTESIAN_POINT('',(-0.059,-0.018,0.0547083835342094));
#1254=CARTESIAN_POINT('',(-0.059,-0.018,0.0493541917671047));
#1255=CARTESIAN_POINT('',(-0.059,-0.018,0.044));
#1256=CARTESIAN_POINT('',(-0.059,-0.018,0.044));
#1257=CARTESIAN_POINT('',(-0.069,-0.018,0.0493541917671047));
#1258=CARTESIAN_POINT('',(-0.069,-0.018,0.0547083835342094));
#1259=CARTESIAN_POINT('',(-0.069,-0.018,0.0547083835342094));
#1260=CARTESIAN_POINT('',(-0.069,-0.0157859693503594,0.0481820578937656));
#1261=CARTESIAN_POINT('',(-0.069,-0.018,0.044));
#1262=CARTESIAN_POINT('',(-0.069,-0.018,0.0493541917671047));
#1263=CARTESIAN_POINT('',(-0.064,-0.018,0.072));
#1264=CARTESIAN_POINT('',(-0.064,-0.018,0.072));
#1265=CARTESIAN_POINT('',(-0.059,-0.018,0.0547083835342094));
#1266=CARTESIAN_POINT('',(-0.059,0.018,0.0547083835342094));
#1267=CARTESIAN_POINT('',(-0.064,0.018,0.072));
#1268=CARTESIAN_POINT('',(-0.069,0.018,0.0547083835342094));
#1269=CARTESIAN_POINT('',(-0.069,-0.018,0.0547083835342094));
#1270=CARTESIAN_POINT('',(-0.069,-0.018,0.0493541917671047));
#1271=CARTESIAN_POINT('',(-0.069,0.018,0.0493541917671047));
#1272=CARTESIAN_POINT('',(-0.069,0.018,0.044));
#1273=CARTESIAN_POINT('',(-0.069,0.00790488826927832,0.0630685443802521));
#1274=CARTESIAN_POINT('',(-0.064,-0.018,0.072));
#1275=CARTESIAN_POINT('',(-0.064,-0.018,0.072));
#1276=CARTESIAN_POINT('',(-0.064,-0.018,0.063));
#1277=CARTESIAN_POINT('',(-0.064,0.018,0.072));
#1278=CARTESIAN_POINT('',(-0.064,0.018,0.063));
#1279=CARTESIAN_POINT('',(-0.059,-0.018,0.0493541917671047));
#1280=CARTESIAN_POINT('',(-0.059,0.036,0.01));
#1281=CARTESIAN_POINT('',(-0.059,0.018,0.044));
#1282=CARTESIAN_POINT('',(-0.059,0.018,0.0493541917671047));
#1283=CARTESIAN_POINT('',(-0.023,-0.018,0.04));
#1284=CARTESIAN_POINT('',(-0.059,-0.018,0.044));
#1285=CARTESIAN_POINT('',(-0.023,0.018,0.04));
#1286=CARTESIAN_POINT('',(-0.023,0.018,0.044));
#1287=CARTESIAN_POINT('',(-0.09,0.026,0.04));
#1288=CARTESIAN_POINT('',(0.044,0.026,0.005));
#1289=CARTESIAN_POINT('',(0.044,-0.026,0.04));
#1290=CARTESIAN_POINT('',(-0.09,-0.026,-1.04083408558608E-17));
#1291=CARTESIAN_POINT('',(-0.023,-0.018,0.044));
#1292=CARTESIAN_POINT('',(-0.0404087121146357,0.036,0.01));
#1293=CARTESIAN_POINT('',(0.049,-0.01,-1.9999999999968E-6));
#1294=CARTESIAN_POINT('',(0.044,-0.01,-1.99999999999853E-6));
#1295=CARTESIAN_POINT('',(0.044,0.005,-1.99999999999853E-6));
#1296=CARTESIAN_POINT('',(0.044,0.01,-1.99999999999853E-6));
#1297=CARTESIAN_POINT('',(0.049,0.01,-1.9999999999968E-6));
#1298=CARTESIAN_POINT('',(-0.036,-0.018,-0.010002));
#1299=CARTESIAN_POINT('',(-0.036,0.018,-0.010002));
#1300=MECHANICAL_DESIGN_GEOMETRIC_PRESENTATION_REPRESENTATION('',(#781),
#1301);
#1301=(
GEOMETRIC_REPRESENTATION_CONTEXT(3)
GLOBAL_UNCERTAINTY_ASSIGNED_CONTEXT((#1302))
GLOBAL_UNIT_ASSIGNED_CONTEXT((#1305,#1304,#1303))
REPRESENTATION_CONTEXT('Part 1','TOP_LEVEL_ASSEMBLY_PART')
);
#1302=UNCERTAINTY_MEASURE_WITH_UNIT(LENGTH_MEASURE(1.E-8),#1305,
'DISTANCE_ACCURACY_VALUE','Maximum Tolerance applied to model');
#1303=(
NAMED_UNIT(*)
SI_UNIT($,.STERADIAN.)
SOLID_ANGLE_UNIT()
);
#1304=(
NAMED_UNIT(*)
PLANE_ANGLE_UNIT()
SI_UNIT($,.RADIAN.)
);
#1305=(
LENGTH_UNIT()
NAMED_UNIT(*)
SI_UNIT($,.METRE.)
);
#1306=PRODUCT_DEFINITION_SHAPE('','',#1307);
#1307=PRODUCT_DEFINITION('','',#1309,#1308);
#1308=PRODUCT_DEFINITION_CONTEXT('',#1315,'design');
#1309=PRODUCT_DEFINITION_FORMATION_WITH_SPECIFIED_SOURCE('','',#1311,
 .NOT_KNOWN.);
#1310=PRODUCT_RELATED_PRODUCT_CATEGORY('','',(#1311));
#1311=PRODUCT('Part 1','Part 1','Part 1',(#1313));
#1312=PRODUCT_CATEGORY('','');
#1313=PRODUCT_CONTEXT('',#1315,'mechanical');
#1314=APPLICATION_PROTOCOL_DEFINITION('international standard',
'ap242_managed_model_based_3d_engineering',2020,#1315);
#1315=APPLICATION_CONTEXT('managed model based 3d engineering');
ENDSEC;
END-ISO-10303-21;
