ISO-10303-21;
HEADER;
/* Generated by software containing ST-Developer
 * from STEP Tools, Inc. (www.steptools.com) 
 */
/* OPTION: using custom renumber hook */

FILE_DESCRIPTION(
/* description */ ('STEP AP242 Edition 2',
'CAx-IF Rec.Pracs.---Representation and Presentation of Product Manufa
cturing Information (PMI)---4.0---2014-10-13',
'CAx-IF Rec.Pracs.---3D Tessellated Geometry---0.4---2014-09-14','2;1',
'CAx-IF Rec.Pracs.---User Defined Attributes---1.5---2016-08-15'),
/* implementation_level */ '2;1');

FILE_NAME(
/* name */ 'Part Studio 1',
/* time_stamp */ '2026-07-31T17:30:50Z',
/* author */ (''),
/* organization */ (''),
/* preprocessor_version */ 'ST-DEVELOPER v20',
/* originating_system */ 'ONSHAPE BY PTC INC, 1.218',
/* authorisation */ '  ');

FILE_SCHEMA (('AP242_MANAGED_MODEL_BASED_3D_ENGINEERING_MIM_LF { 1 0 10303 442 3 1 4 }'));
ENDSEC;

DATA;
#10=SHAPE_REPRESENTATION_RELATIONSHIP('','',#591,#11);
#11=ADVANCED_BREP_SHAPE_REPRESENTATION('',(#589),#1123);
#12=PLANE('',#610);
#13=PLANE('',#613);
#14=PLANE('',#620);
#15=PLANE('',#623);
#16=PLANE('',#624);
#17=PLANE('',#633);
#18=PLANE('',#636);
#19=PLANE('',#638);
#20=PLANE('',#639);
#21=PLANE('',#640);
#22=PLANE('',#641);
#23=PLANE('',#643);
#24=PLANE('',#645);
#25=PLANE('',#650);
#26=PLANE('',#653);
#27=PLANE('',#654);
#28=SPHERICAL_SURFACE('',#607,0.028);
#29=SPHERICAL_SURFACE('',#647,0.028);
#30=LINE('',#904,#74);
#31=LINE('',#908,#75);
#32=LINE('',#997,#76);
#33=LINE('',#1001,#77);
#34=LINE('',#1006,#78);
#35=LINE('',#1011,#79);
#36=LINE('',#1014,#80);
#37=LINE('',#1017,#81);
#38=LINE('',#1019,#82);
#39=LINE('',#1021,#83);
#40=LINE('',#1023,#84);
#41=LINE('',#1026,#85);
#42=LINE('',#1027,#86);
#43=LINE('',#1034,#87);
#44=LINE('',#1041,#88);
#45=LINE('',#1045,#89);
#46=LINE('',#1046,#90);
#47=LINE('',#1048,#91);
#48=LINE('',#1050,#92);
#49=LINE('',#1052,#93);
#50=LINE('',#1054,#94);
#51=LINE('',#1056,#95);
#52=LINE('',#1058,#96);
#53=LINE('',#1063,#97);
#54=LINE('',#1066,#98);
#55=LINE('',#1068,#99);
#56=LINE('',#1070,#100);
#57=LINE('',#1077,#101);
#58=LINE('',#1084,#102);
#59=LINE('',#1088,#103);
#60=LINE('',#1089,#104);
#61=LINE('',#1090,#105);
#62=LINE('',#1093,#106);
#63=LINE('',#1094,#107);
#64=LINE('',#1096,#108);
#65=LINE('',#1098,#109);
#66=LINE('',#1100,#110);
#67=LINE('',#1101,#111);
#68=LINE('',#1103,#112);
#69=LINE('',#1104,#113);
#70=LINE('',#1107,#114);
#71=LINE('',#1109,#115);
#72=LINE('',#1111,#116);
#73=LINE('',#1113,#117);
#74=VECTOR('',#669,1.);
#75=VECTOR('',#672,1.);
#76=VECTOR('',#685,1.);
#77=VECTOR('',#688,1.);
#78=VECTOR('',#697,1.);
#79=VECTOR('',#700,1.);
#80=VECTOR('',#703,1.);
#81=VECTOR('',#704,1.);
#82=VECTOR('',#705,1.);
#83=VECTOR('',#706,1.);
#84=VECTOR('',#709,1.);
#85=VECTOR('',#710,1.);
#86=VECTOR('',#711,1.);
#87=VECTOR('',#722,1.);
#88=VECTOR('',#729,1.);
#89=VECTOR('',#732,1.);
#90=VECTOR('',#733,1.);
#91=VECTOR('',#734,1.);
#92=VECTOR('',#735,1.);
#93=VECTOR('',#738,1.);
#94=VECTOR('',#739,1.);
#95=VECTOR('',#740,1.);
#96=VECTOR('',#743,1.);
#97=VECTOR('',#746,1.);
#98=VECTOR('',#749,1.);
#99=VECTOR('',#750,1.);
#100=VECTOR('',#751,1.);
#101=VECTOR('',#762,1.);
#102=VECTOR('',#769,1.);
#103=VECTOR('',#772,1.);
#104=VECTOR('',#773,1.);
#105=VECTOR('',#774,1.);
#106=VECTOR('',#779,1.);
#107=VECTOR('',#780,1.);
#108=VECTOR('',#783,1.);
#109=VECTOR('',#786,1.);
#110=VECTOR('',#789,1.);
#111=VECTOR('',#790,1.);
#112=VECTOR('',#793,1.);
#113=VECTOR('',#794,1.);
#114=VECTOR('',#799,1.);
#115=VECTOR('',#802,1.);
#116=VECTOR('',#805,1.);
#117=VECTOR('',#808,1.);
#118=CIRCLE('',#594,0.029);
#119=CIRCLE('',#595,0.029);
#120=CIRCLE('',#596,0.029);
#121=CIRCLE('',#597,0.029);
#122=CIRCLE('',#598,0.029);
#123=CIRCLE('',#599,0.029);
#124=CIRCLE('',#601,0.045);
#125=CIRCLE('',#602,0.045);
#126=CIRCLE('',#603,0.045);
#127=CIRCLE('',#604,0.045);
#128=CIRCLE('',#605,0.045);
#129=CIRCLE('',#606,0.045);
#130=CIRCLE('',#608,0.0277128129211021);
#131=CIRCLE('',#609,0.0277128129211021);
#132=CIRCLE('',#611,0.006);
#133=CIRCLE('',#612,0.006);
#134=CIRCLE('',#615,0.028);
#135=CIRCLE('',#616,0.028);
#136=CIRCLE('',#618,0.028);
#137=CIRCLE('',#619,0.028);
#138=CIRCLE('',#621,0.006);
#139=CIRCLE('',#622,0.006);
#140=CIRCLE('',#625,0.006);
#141=CIRCLE('',#626,0.006);
#142=CIRCLE('',#628,0.012);
#143=CIRCLE('',#629,0.012);
#144=CIRCLE('',#631,0.012);
#145=CIRCLE('',#632,0.012);
#146=CIRCLE('',#634,0.006);
#147=CIRCLE('',#635,0.006);
#148=CIRCLE('',#648,0.0277128129211021);
#149=CIRCLE('',#649,0.0277128129211021);
#150=ORIENTED_EDGE('',*,*,#318,.F.);
#151=ORIENTED_EDGE('',*,*,#319,.F.);
#152=ORIENTED_EDGE('',*,*,#320,.T.);
#153=ORIENTED_EDGE('',*,*,#321,.F.);
#154=ORIENTED_EDGE('',*,*,#322,.F.);
#155=ORIENTED_EDGE('',*,*,#323,.T.);
#156=ORIENTED_EDGE('',*,*,#324,.F.);
#157=ORIENTED_EDGE('',*,*,#325,.T.);
#158=ORIENTED_EDGE('',*,*,#326,.F.);
#159=ORIENTED_EDGE('',*,*,#327,.F.);
#160=ORIENTED_EDGE('',*,*,#328,.T.);
#161=ORIENTED_EDGE('',*,*,#329,.T.);
#162=ORIENTED_EDGE('',*,*,#330,.F.);
#163=ORIENTED_EDGE('',*,*,#331,.F.);
#164=ORIENTED_EDGE('',*,*,#332,.T.);
#165=ORIENTED_EDGE('',*,*,#333,.F.);
#166=ORIENTED_EDGE('',*,*,#334,.F.);
#167=ORIENTED_EDGE('',*,*,#335,.T.);
#168=ORIENTED_EDGE('',*,*,#336,.F.);
#169=ORIENTED_EDGE('',*,*,#337,.T.);
#170=ORIENTED_EDGE('',*,*,#338,.F.);
#171=ORIENTED_EDGE('',*,*,#339,.F.);
#172=ORIENTED_EDGE('',*,*,#340,.T.);
#173=ORIENTED_EDGE('',*,*,#341,.T.);
#174=ORIENTED_EDGE('',*,*,#342,.F.);
#175=ORIENTED_EDGE('',*,*,#336,.T.);
#176=ORIENTED_EDGE('',*,*,#343,.F.);
#177=ORIENTED_EDGE('',*,*,#324,.T.);
#178=ORIENTED_EDGE('',*,*,#344,.T.);
#179=ORIENTED_EDGE('',*,*,#345,.T.);
#180=ORIENTED_EDGE('',*,*,#346,.F.);
#181=ORIENTED_EDGE('',*,*,#347,.F.);
#182=ORIENTED_EDGE('',*,*,#348,.F.);
#183=ORIENTED_EDGE('',*,*,#349,.F.);
#184=ORIENTED_EDGE('',*,*,#350,.T.);
#185=ORIENTED_EDGE('',*,*,#351,.T.);
#186=ORIENTED_EDGE('',*,*,#352,.T.);
#187=ORIENTED_EDGE('',*,*,#353,.F.);
#188=ORIENTED_EDGE('',*,*,#351,.F.);
#189=ORIENTED_EDGE('',*,*,#354,.T.);
#190=ORIENTED_EDGE('',*,*,#349,.T.);
#191=ORIENTED_EDGE('',*,*,#355,.T.);
#192=ORIENTED_EDGE('',*,*,#329,.F.);
#193=ORIENTED_EDGE('',*,*,#356,.F.);
#194=ORIENTED_EDGE('',*,*,#327,.T.);
#195=ORIENTED_EDGE('',*,*,#357,.F.);
#196=ORIENTED_EDGE('',*,*,#358,.F.);
#197=ORIENTED_EDGE('',*,*,#359,.T.);
#198=ORIENTED_EDGE('',*,*,#360,.T.);
#199=ORIENTED_EDGE('',*,*,#361,.T.);
#200=ORIENTED_EDGE('',*,*,#362,.F.);
#201=ORIENTED_EDGE('',*,*,#363,.F.);
#202=ORIENTED_EDGE('',*,*,#358,.T.);
#203=ORIENTED_EDGE('',*,*,#364,.T.);
#204=ORIENTED_EDGE('',*,*,#365,.F.);
#205=ORIENTED_EDGE('',*,*,#366,.F.);
#206=ORIENTED_EDGE('',*,*,#365,.T.);
#207=ORIENTED_EDGE('',*,*,#367,.T.);
#208=ORIENTED_EDGE('',*,*,#368,.F.);
#209=ORIENTED_EDGE('',*,*,#369,.F.);
#210=ORIENTED_EDGE('',*,*,#370,.F.);
#211=ORIENTED_EDGE('',*,*,#371,.F.);
#212=ORIENTED_EDGE('',*,*,#372,.T.);
#213=ORIENTED_EDGE('',*,*,#373,.T.);
#214=ORIENTED_EDGE('',*,*,#368,.T.);
#215=ORIENTED_EDGE('',*,*,#374,.F.);
#216=ORIENTED_EDGE('',*,*,#375,.F.);
#217=ORIENTED_EDGE('',*,*,#376,.T.);
#218=ORIENTED_EDGE('',*,*,#375,.T.);
#219=ORIENTED_EDGE('',*,*,#377,.T.);
#220=ORIENTED_EDGE('',*,*,#341,.F.);
#221=ORIENTED_EDGE('',*,*,#378,.F.);
#222=ORIENTED_EDGE('',*,*,#339,.T.);
#223=ORIENTED_EDGE('',*,*,#379,.F.);
#224=ORIENTED_EDGE('',*,*,#380,.F.);
#225=ORIENTED_EDGE('',*,*,#381,.T.);
#226=ORIENTED_EDGE('',*,*,#382,.T.);
#227=ORIENTED_EDGE('',*,*,#383,.T.);
#228=ORIENTED_EDGE('',*,*,#384,.F.);
#229=ORIENTED_EDGE('',*,*,#385,.F.);
#230=ORIENTED_EDGE('',*,*,#380,.T.);
#231=ORIENTED_EDGE('',*,*,#386,.T.);
#232=ORIENTED_EDGE('',*,*,#352,.F.);
#233=ORIENTED_EDGE('',*,*,#387,.F.);
#234=ORIENTED_EDGE('',*,*,#354,.F.);
#235=ORIENTED_EDGE('',*,*,#350,.F.);
#236=ORIENTED_EDGE('',*,*,#356,.T.);
#237=ORIENTED_EDGE('',*,*,#328,.F.);
#238=ORIENTED_EDGE('',*,*,#359,.F.);
#239=ORIENTED_EDGE('',*,*,#366,.T.);
#240=ORIENTED_EDGE('',*,*,#369,.T.);
#241=ORIENTED_EDGE('',*,*,#376,.F.);
#242=ORIENTED_EDGE('',*,*,#378,.T.);
#243=ORIENTED_EDGE('',*,*,#340,.F.);
#244=ORIENTED_EDGE('',*,*,#381,.F.);
#245=ORIENTED_EDGE('',*,*,#387,.T.);
#246=ORIENTED_EDGE('',*,*,#362,.T.);
#247=ORIENTED_EDGE('',*,*,#388,.T.);
#248=ORIENTED_EDGE('',*,*,#373,.F.);
#249=ORIENTED_EDGE('',*,*,#389,.F.);
#250=ORIENTED_EDGE('',*,*,#363,.T.);
#251=ORIENTED_EDGE('',*,*,#389,.T.);
#252=ORIENTED_EDGE('',*,*,#372,.F.);
#253=ORIENTED_EDGE('',*,*,#390,.F.);
#254=ORIENTED_EDGE('',*,*,#361,.F.);
#255=ORIENTED_EDGE('',*,*,#391,.T.);
#256=ORIENTED_EDGE('',*,*,#370,.T.);
#257=ORIENTED_EDGE('',*,*,#388,.F.);
#258=ORIENTED_EDGE('',*,*,#392,.T.);
#259=ORIENTED_EDGE('',*,*,#383,.F.);
#260=ORIENTED_EDGE('',*,*,#393,.F.);
#261=ORIENTED_EDGE('',*,*,#344,.F.);
#262=ORIENTED_EDGE('',*,*,#346,.T.);
#263=ORIENTED_EDGE('',*,*,#394,.T.);
#264=ORIENTED_EDGE('',*,*,#385,.T.);
#265=ORIENTED_EDGE('',*,*,#395,.F.);
#266=ORIENTED_EDGE('',*,*,#347,.T.);
#267=ORIENTED_EDGE('',*,*,#395,.T.);
#268=ORIENTED_EDGE('',*,*,#384,.T.);
#269=ORIENTED_EDGE('',*,*,#392,.F.);
#270=ORIENTED_EDGE('',*,*,#343,.T.);
#271=ORIENTED_EDGE('',*,*,#335,.F.);
#272=ORIENTED_EDGE('',*,*,#396,.F.);
#273=ORIENTED_EDGE('',*,*,#325,.F.);
#274=ORIENTED_EDGE('',*,*,#318,.T.);
#275=ORIENTED_EDGE('',*,*,#396,.T.);
#276=ORIENTED_EDGE('',*,*,#334,.T.);
#277=ORIENTED_EDGE('',*,*,#397,.F.);
#278=ORIENTED_EDGE('',*,*,#398,.F.);
#279=ORIENTED_EDGE('',*,*,#337,.F.);
#280=ORIENTED_EDGE('',*,*,#342,.T.);
#281=ORIENTED_EDGE('',*,*,#323,.F.);
#282=ORIENTED_EDGE('',*,*,#322,.T.);
#283=ORIENTED_EDGE('',*,*,#399,.F.);
#284=ORIENTED_EDGE('',*,*,#330,.T.);
#285=ORIENTED_EDGE('',*,*,#398,.T.);
#286=ORIENTED_EDGE('',*,*,#400,.T.);
#287=ORIENTED_EDGE('',*,*,#320,.F.);
#288=ORIENTED_EDGE('',*,*,#401,.T.);
#289=ORIENTED_EDGE('',*,*,#332,.F.);
#290=ORIENTED_EDGE('',*,*,#353,.T.);
#291=ORIENTED_EDGE('',*,*,#386,.F.);
#292=ORIENTED_EDGE('',*,*,#379,.T.);
#293=ORIENTED_EDGE('',*,*,#338,.T.);
#294=ORIENTED_EDGE('',*,*,#377,.F.);
#295=ORIENTED_EDGE('',*,*,#374,.T.);
#296=ORIENTED_EDGE('',*,*,#367,.F.);
#297=ORIENTED_EDGE('',*,*,#364,.F.);
#298=ORIENTED_EDGE('',*,*,#357,.T.);
#299=ORIENTED_EDGE('',*,*,#326,.T.);
#300=ORIENTED_EDGE('',*,*,#355,.F.);
#301=ORIENTED_EDGE('',*,*,#348,.T.);
#302=ORIENTED_EDGE('',*,*,#360,.F.);
#303=ORIENTED_EDGE('',*,*,#390,.T.);
#304=ORIENTED_EDGE('',*,*,#371,.T.);
#305=ORIENTED_EDGE('',*,*,#391,.F.);
#306=ORIENTED_EDGE('',*,*,#345,.F.);
#307=ORIENTED_EDGE('',*,*,#393,.T.);
#308=ORIENTED_EDGE('',*,*,#382,.F.);
#309=ORIENTED_EDGE('',*,*,#394,.F.);
#310=ORIENTED_EDGE('',*,*,#401,.F.);
#311=ORIENTED_EDGE('',*,*,#319,.T.);
#312=ORIENTED_EDGE('',*,*,#397,.T.);
#313=ORIENTED_EDGE('',*,*,#333,.T.);
#314=ORIENTED_EDGE('',*,*,#399,.T.);
#315=ORIENTED_EDGE('',*,*,#321,.T.);
#316=ORIENTED_EDGE('',*,*,#400,.F.);
#317=ORIENTED_EDGE('',*,*,#331,.T.);
#318=EDGE_CURVE('',#402,#403,#458,.T.);
#319=EDGE_CURVE('',#404,#402,#118,.T.);
#320=EDGE_CURVE('',#404,#405,#459,.T.);
#321=EDGE_CURVE('',#406,#405,#119,.T.);
#322=EDGE_CURVE('',#407,#406,#460,.T.);
#323=EDGE_CURVE('',#407,#408,#120,.T.);
#324=EDGE_CURVE('',#409,#408,#461,.T.);
#325=EDGE_CURVE('',#409,#403,#121,.T.);
#326=EDGE_CURVE('',#410,#411,#122,.T.);
#327=EDGE_CURVE('',#412,#410,#30,.T.);
#328=EDGE_CURVE('',#412,#413,#123,.T.);
#329=EDGE_CURVE('',#413,#411,#31,.T.);
#330=EDGE_CURVE('',#414,#415,#462,.T.);
#331=EDGE_CURVE('',#416,#414,#124,.F.);
#332=EDGE_CURVE('',#416,#417,#463,.T.);
#333=EDGE_CURVE('',#418,#417,#125,.F.);
#334=EDGE_CURVE('',#419,#418,#464,.T.);
#335=EDGE_CURVE('',#419,#420,#126,.F.);
#336=EDGE_CURVE('',#421,#420,#465,.T.);
#337=EDGE_CURVE('',#421,#415,#127,.F.);
#338=EDGE_CURVE('',#422,#423,#128,.T.);
#339=EDGE_CURVE('',#424,#422,#32,.T.);
#340=EDGE_CURVE('',#424,#425,#129,.T.);
#341=EDGE_CURVE('',#425,#423,#33,.T.);
#342=EDGE_CURVE('',#421,#408,#130,.F.);
#343=EDGE_CURVE('',#409,#420,#131,.F.);
#344=EDGE_CURVE('',#426,#427,#34,.T.);
#345=EDGE_CURVE('',#427,#428,#132,.T.);
#346=EDGE_CURVE('',#429,#428,#35,.T.);
#347=EDGE_CURVE('',#426,#429,#133,.T.);
#348=EDGE_CURVE('',#430,#431,#36,.T.);
#349=EDGE_CURVE('',#432,#430,#37,.T.);
#350=EDGE_CURVE('',#432,#433,#38,.T.);
#351=EDGE_CURVE('',#433,#431,#39,.T.);
#352=EDGE_CURVE('',#434,#435,#40,.T.);
#353=EDGE_CURVE('',#431,#435,#41,.T.);
#354=EDGE_CURVE('',#433,#434,#42,.T.);
#355=EDGE_CURVE('',#430,#411,#134,.T.);
#356=EDGE_CURVE('',#432,#413,#135,.T.);
#357=EDGE_CURVE('',#436,#410,#136,.T.);
#358=EDGE_CURVE('',#437,#436,#43,.T.);
#359=EDGE_CURVE('',#437,#412,#137,.T.);
#360=EDGE_CURVE('',#438,#439,#138,.F.);
#361=EDGE_CURVE('',#439,#440,#44,.T.);
#362=EDGE_CURVE('',#441,#440,#139,.F.);
#363=EDGE_CURVE('',#438,#441,#45,.T.);
#364=EDGE_CURVE('',#436,#442,#46,.T.);
#365=EDGE_CURVE('',#443,#442,#47,.T.);
#366=EDGE_CURVE('',#437,#443,#48,.T.);
#367=EDGE_CURVE('',#442,#444,#49,.T.);
#368=EDGE_CURVE('',#445,#444,#50,.T.);
#369=EDGE_CURVE('',#443,#445,#51,.T.);
#370=EDGE_CURVE('',#446,#447,#52,.T.);
#371=EDGE_CURVE('',#448,#446,#140,.T.);
#372=EDGE_CURVE('',#448,#449,#53,.T.);
#373=EDGE_CURVE('',#449,#447,#141,.T.);
#374=EDGE_CURVE('',#450,#444,#54,.T.);
#375=EDGE_CURVE('',#451,#450,#55,.T.);
#376=EDGE_CURVE('',#451,#445,#56,.T.);
#377=EDGE_CURVE('',#450,#423,#142,.T.);
#378=EDGE_CURVE('',#451,#425,#143,.T.);
#379=EDGE_CURVE('',#452,#422,#144,.T.);
#380=EDGE_CURVE('',#453,#452,#57,.T.);
#381=EDGE_CURVE('',#453,#424,#145,.T.);
#382=EDGE_CURVE('',#454,#455,#146,.T.);
#383=EDGE_CURVE('',#455,#456,#58,.T.);
#384=EDGE_CURVE('',#457,#456,#147,.T.);
#385=EDGE_CURVE('',#454,#457,#59,.T.);
#386=EDGE_CURVE('',#452,#435,#60,.T.);
#387=EDGE_CURVE('',#453,#434,#61,.T.);
#388=EDGE_CURVE('',#440,#447,#62,.T.);
#389=EDGE_CURVE('',#441,#449,#63,.T.);
#390=EDGE_CURVE('',#438,#448,#64,.T.);
#391=EDGE_CURVE('',#439,#446,#65,.T.);
#392=EDGE_CURVE('',#426,#456,#66,.T.);
#393=EDGE_CURVE('',#427,#455,#67,.T.);
#394=EDGE_CURVE('',#428,#454,#68,.T.);
#395=EDGE_CURVE('',#429,#457,#69,.T.);
#396=EDGE_CURVE('',#403,#419,#70,.T.);
#397=EDGE_CURVE('',#402,#418,#71,.T.);
#398=EDGE_CURVE('',#415,#407,#72,.T.);
#399=EDGE_CURVE('',#414,#406,#73,.T.);
#400=EDGE_CURVE('',#416,#405,#148,.F.);
#401=EDGE_CURVE('',#404,#417,#149,.F.);
#402=VERTEX_POINT('',#841);
#403=VERTEX_POINT('',#842);
#404=VERTEX_POINT('',#844);
#405=VERTEX_POINT('',#862);
#406=VERTEX_POINT('',#864);
#407=VERTEX_POINT('',#879);
#408=VERTEX_POINT('',#881);
#409=VERTEX_POINT('',#899);
#410=VERTEX_POINT('',#902);
#411=VERTEX_POINT('',#903);
#412=VERTEX_POINT('',#905);
#413=VERTEX_POINT('',#907);
#414=VERTEX_POINT('',#923);
#415=VERTEX_POINT('',#924);
#416=VERTEX_POINT('',#926);
#417=VERTEX_POINT('',#950);
#418=VERTEX_POINT('',#952);
#419=VERTEX_POINT('',#966);
#420=VERTEX_POINT('',#968);
#421=VERTEX_POINT('',#992);
#422=VERTEX_POINT('',#995);
#423=VERTEX_POINT('',#996);
#424=VERTEX_POINT('',#998);
#425=VERTEX_POINT('',#1000);
#426=VERTEX_POINT('',#1007);
#427=VERTEX_POINT('',#1008);
#428=VERTEX_POINT('',#1010);
#429=VERTEX_POINT('',#1012);
#430=VERTEX_POINT('',#1015);
#431=VERTEX_POINT('',#1016);
#432=VERTEX_POINT('',#1018);
#433=VERTEX_POINT('',#1020);
#434=VERTEX_POINT('',#1024);
#435=VERTEX_POINT('',#1025);
#436=VERTEX_POINT('',#1033);
#437=VERTEX_POINT('',#1035);
#438=VERTEX_POINT('',#1039);
#439=VERTEX_POINT('',#1040);
#440=VERTEX_POINT('',#1042);
#441=VERTEX_POINT('',#1044);
#442=VERTEX_POINT('',#1047);
#443=VERTEX_POINT('',#1049);
#444=VERTEX_POINT('',#1053);
#445=VERTEX_POINT('',#1055);
#446=VERTEX_POINT('',#1059);
#447=VERTEX_POINT('',#1060);
#448=VERTEX_POINT('',#1062);
#449=VERTEX_POINT('',#1064);
#450=VERTEX_POINT('',#1067);
#451=VERTEX_POINT('',#1069);
#452=VERTEX_POINT('',#1076);
#453=VERTEX_POINT('',#1078);
#454=VERTEX_POINT('',#1082);
#455=VERTEX_POINT('',#1083);
#456=VERTEX_POINT('',#1085);
#457=VERTEX_POINT('',#1087);
#458=B_SPLINE_CURVE_WITH_KNOTS('',3,(#827,#828,#829,#830,#831,#832,#833,
#834,#835,#836,#837,#838,#839,#840),.UNSPECIFIED.,.F.,.F.,(4,1,1,1,1,1,
1,1,1,1,1,4),(-0.0193313429054203,-0.0169150229797041,-0.0144987030539879,
-0.0120823831282717,-0.00966606320255552,-0.00483342335112316,-0.00241710342540698,
-7.83499690798148E-7,0.00483185635174156,0.00966449620317393,0.0144971360546063,
0.0193297759060387),.UNSPECIFIED.);
#459=B_SPLINE_CURVE_WITH_KNOTS('',3,(#845,#846,#847,#848,#849,#850,#851,
#852,#853,#854,#855,#856,#857,#858,#859,#860,#861),.UNSPECIFIED.,.F.,.F.,
(4,1,1,1,1,1,1,1,1,1,1,1,1,1,4),(0.00399554177117509,0.00756800630950936,
0.0111404708478436,0.0147129353861779,0.0182853999245122,0.0218578644628465,
0.0254303290011807,0.0325752580778493,0.0361477226161836,0.0397201871545178,
0.0432926516928521,0.0468651162311864,0.0504375807695207,0.0540100453078549,
0.0611549743845235),.UNSPECIFIED.);
#460=B_SPLINE_CURVE_WITH_KNOTS('',3,(#865,#866,#867,#868,#869,#870,#871,
#872,#873,#874,#875,#876,#877,#878),.UNSPECIFIED.,.F.,.F.,(4,1,1,1,1,1,
1,1,1,1,1,4),(0.,0.00241619068110736,0.00483238136221471,0.00724857204332207,
0.00966476272442943,0.0144971440866441,0.0169133347677515,0.0193295254488589,
0.0241619068110736,0.0289942881732883,0.033826669535503,0.0386590508977177),
 .UNSPECIFIED.);
#461=B_SPLINE_CURVE_WITH_KNOTS('',3,(#882,#883,#884,#885,#886,#887,#888,
#889,#890,#891,#892,#893,#894,#895,#896,#897,#898),.UNSPECIFIED.,.F.,.F.,
(4,1,1,1,1,1,1,1,1,1,1,1,1,1,4),(0.00399554177117509,0.00756800630950936,
0.0111404708478436,0.0147129353861779,0.0182853999245122,0.0218578644628465,
0.0254303290011807,0.0325752580778493,0.0361477226161836,0.0397201871545178,
0.0432926516928521,0.0468651162311864,0.0504375807695207,0.0540100453078549,
0.0611549743845235),.UNSPECIFIED.);
#462=B_SPLINE_CURVE_WITH_KNOTS('',3,(#910,#911,#912,#913,#914,#915,#916,
#917,#918,#919,#920,#921,#922),.UNSPECIFIED.,.F.,.F.,(4,1,1,1,1,1,1,1,1,
1,4),(-0.0192785181342005,-0.0168687384233998,-0.0144589587125992,-0.00963939929099782,
-0.00481983986939647,-0.0024100601585958,-2.80447795132643E-7,0.00481927897380621,
0.00963883839540755,0.0144583978170089,0.0192779572386102),
 .UNSPECIFIED.);
#463=B_SPLINE_CURVE_WITH_KNOTS('',3,(#927,#928,#929,#930,#931,#932,#933,
#934,#935,#936,#937,#938,#939,#940,#941,#942,#943,#944,#945,#946,#947,#948,
#949),.UNSPECIFIED.,.F.,.F.,(4,1,1,1,1,1,1,1,1,1,1,1,1,1,1,1,1,1,1,1,4),
(0.00399301163385446,0.00899619067808745,0.0139993697223204,0.0165009592444369,
0.0190025487665534,0.0240057278107864,0.0265073173329029,0.0290089068550194,
0.0340120858992524,0.0390152649434854,0.0440184439877184,0.0465200335098349,
0.0490216230319513,0.0515232125540678,0.0540248020761843,0.0590279811204173,
0.0640311601646503,0.0690343392088833,0.0740375182531163,0.0790406972973493,
0.0840438763415823),.UNSPECIFIED.);
#464=B_SPLINE_CURVE_WITH_KNOTS('',3,(#953,#954,#955,#956,#957,#958,#959,
#960,#961,#962,#963,#964,#965),.UNSPECIFIED.,.F.,.F.,(4,1,1,1,1,1,1,1,1,
1,4),(0.,0.00240974529788887,0.00481949059577774,0.00963898119155549,0.0144584717873332,
0.0168682170852221,0.019277962383111,0.0240974529788887,0.0289169435746665,
0.0337364341704442,0.038555924766222),.UNSPECIFIED.);
#465=B_SPLINE_CURVE_WITH_KNOTS('',3,(#969,#970,#971,#972,#973,#974,#975,
#976,#977,#978,#979,#980,#981,#982,#983,#984,#985,#986,#987,#988,#989,#990,
#991),.UNSPECIFIED.,.F.,.F.,(4,1,1,1,1,1,1,1,1,1,1,1,1,1,1,1,1,1,1,1,4),
(0.00399301163385446,0.00899619067808745,0.0139993697223204,0.0165009592444369,
0.0190025487665534,0.0240057278107864,0.0265073173329029,0.0290089068550194,
0.0340120858992524,0.0390152649434854,0.0440184439877184,0.0465200335098349,
0.0490216230319513,0.0515232125540678,0.0540248020761843,0.0590279811204173,
0.0640311601646503,0.0690343392088833,0.0740375182531163,0.0790406972973493,
0.0840438763415823),.UNSPECIFIED.);
#466=EDGE_LOOP('',(#150,#151,#152,#153,#154,#155,#156,#157));
#467=EDGE_LOOP('',(#158,#159,#160,#161));
#468=EDGE_LOOP('',(#162,#163,#164,#165,#166,#167,#168,#169));
#469=EDGE_LOOP('',(#170,#171,#172,#173));
#470=EDGE_LOOP('',(#174,#175,#176,#177));
#471=EDGE_LOOP('',(#178,#179,#180,#181));
#472=EDGE_LOOP('',(#182,#183,#184,#185));
#473=EDGE_LOOP('',(#186,#187,#188,#189));
#474=EDGE_LOOP('',(#190,#191,#192,#193));
#475=EDGE_LOOP('',(#194,#195,#196,#197));
#476=EDGE_LOOP('',(#198,#199,#200,#201));
#477=EDGE_LOOP('',(#202,#203,#204,#205));
#478=EDGE_LOOP('',(#206,#207,#208,#209));
#479=EDGE_LOOP('',(#210,#211,#212,#213));
#480=EDGE_LOOP('',(#214,#215,#216,#217));
#481=EDGE_LOOP('',(#218,#219,#220,#221));
#482=EDGE_LOOP('',(#222,#223,#224,#225));
#483=EDGE_LOOP('',(#226,#227,#228,#229));
#484=EDGE_LOOP('',(#230,#231,#232,#233));
#485=EDGE_LOOP('',(#234,#235,#236,#237,#238,#239,#240,#241,#242,#243,#244,
#245));
#486=EDGE_LOOP('',(#246,#247,#248,#249));
#487=EDGE_LOOP('',(#250,#251,#252,#253));
#488=EDGE_LOOP('',(#254,#255,#256,#257));
#489=EDGE_LOOP('',(#258,#259,#260,#261));
#490=EDGE_LOOP('',(#262,#263,#264,#265));
#491=EDGE_LOOP('',(#266,#267,#268,#269));
#492=EDGE_LOOP('',(#270,#271,#272,#273));
#493=EDGE_LOOP('',(#274,#275,#276,#277));
#494=EDGE_LOOP('',(#278,#279,#280,#281));
#495=EDGE_LOOP('',(#282,#283,#284,#285));
#496=EDGE_LOOP('',(#286,#287,#288,#289));
#497=EDGE_LOOP('',(#290,#291,#292,#293,#294,#295,#296,#297,#298,#299,#300,
#301));
#498=EDGE_LOOP('',(#302,#303,#304,#305));
#499=EDGE_LOOP('',(#306,#307,#308,#309));
#500=EDGE_LOOP('',(#310,#311,#312,#313));
#501=EDGE_LOOP('',(#314,#315,#316,#317));
#502=FACE_BOUND('',#466,.T.);
#503=FACE_BOUND('',#467,.T.);
#504=FACE_BOUND('',#468,.T.);
#505=FACE_BOUND('',#469,.T.);
#506=FACE_BOUND('',#470,.T.);
#507=FACE_BOUND('',#471,.T.);
#508=FACE_BOUND('',#472,.T.);
#509=FACE_BOUND('',#473,.T.);
#510=FACE_BOUND('',#474,.T.);
#511=FACE_BOUND('',#475,.T.);
#512=FACE_BOUND('',#476,.T.);
#513=FACE_BOUND('',#477,.T.);
#514=FACE_BOUND('',#478,.T.);
#515=FACE_BOUND('',#479,.T.);
#516=FACE_BOUND('',#480,.T.);
#517=FACE_BOUND('',#481,.T.);
#518=FACE_BOUND('',#482,.T.);
#519=FACE_BOUND('',#483,.T.);
#520=FACE_BOUND('',#484,.T.);
#521=FACE_BOUND('',#485,.T.);
#522=FACE_BOUND('',#486,.T.);
#523=FACE_BOUND('',#487,.T.);
#524=FACE_BOUND('',#488,.T.);
#525=FACE_BOUND('',#489,.T.);
#526=FACE_BOUND('',#490,.T.);
#527=FACE_BOUND('',#491,.T.);
#528=FACE_BOUND('',#492,.T.);
#529=FACE_BOUND('',#493,.T.);
#530=FACE_BOUND('',#494,.T.);
#531=FACE_BOUND('',#495,.T.);
#532=FACE_BOUND('',#496,.T.);
#533=FACE_BOUND('',#497,.T.);
#534=FACE_BOUND('',#498,.T.);
#535=FACE_BOUND('',#499,.T.);
#536=FACE_BOUND('',#500,.T.);
#537=FACE_BOUND('',#501,.T.);
#538=CYLINDRICAL_SURFACE('',#593,0.029);
#539=CYLINDRICAL_SURFACE('',#600,0.045);
#540=CYLINDRICAL_SURFACE('',#614,0.028);
#541=CYLINDRICAL_SURFACE('',#617,0.028);
#542=CYLINDRICAL_SURFACE('',#627,0.012);
#543=CYLINDRICAL_SURFACE('',#630,0.012);
#544=CYLINDRICAL_SURFACE('',#637,0.006);
#545=CYLINDRICAL_SURFACE('',#642,0.006);
#546=CYLINDRICAL_SURFACE('',#644,0.0075);
#547=CYLINDRICAL_SURFACE('',#646,0.0075);
#548=CYLINDRICAL_SURFACE('',#651,0.006);
#549=CYLINDRICAL_SURFACE('',#652,0.006);
#550=ADVANCED_FACE('',(#502,#503),#538,.F.);
#551=ADVANCED_FACE('',(#504,#505),#539,.T.);
#552=ADVANCED_FACE('',(#506),#28,.F.);
#553=ADVANCED_FACE('',(#507,#508),#12,.T.);
#554=ADVANCED_FACE('',(#509),#13,.T.);
#555=ADVANCED_FACE('',(#510),#540,.T.);
#556=ADVANCED_FACE('',(#511),#541,.T.);
#557=ADVANCED_FACE('',(#512,#513),#14,.F.);
#558=ADVANCED_FACE('',(#514),#15,.F.);
#559=ADVANCED_FACE('',(#515,#516),#16,.T.);
#560=ADVANCED_FACE('',(#517),#542,.F.);
#561=ADVANCED_FACE('',(#518),#543,.F.);
#562=ADVANCED_FACE('',(#519,#520),#17,.F.);
#563=ADVANCED_FACE('',(#521),#18,.T.);
#564=ADVANCED_FACE('',(#522),#544,.F.);
#565=ADVANCED_FACE('',(#523),#19,.T.);
#566=ADVANCED_FACE('',(#524),#20,.F.);
#567=ADVANCED_FACE('',(#525),#21,.T.);
#568=ADVANCED_FACE('',(#526),#22,.F.);
#569=ADVANCED_FACE('',(#527),#545,.F.);
#570=ADVANCED_FACE('',(#528),#23,.T.);
#571=ADVANCED_FACE('',(#529),#546,.F.);
#572=ADVANCED_FACE('',(#530),#24,.T.);
#573=ADVANCED_FACE('',(#531),#547,.F.);
#574=ADVANCED_FACE('',(#532),#29,.F.);
#575=ADVANCED_FACE('',(#533),#25,.T.);
#576=ADVANCED_FACE('',(#534),#548,.F.);
#577=ADVANCED_FACE('',(#535),#549,.F.);
#578=ADVANCED_FACE('',(#536),#26,.T.);
#579=ADVANCED_FACE('',(#537),#27,.T.);
#580=CLOSED_SHELL('',(#550,#551,#552,#553,#554,#555,#556,#557,#558,#559,
#560,#561,#562,#563,#564,#565,#566,#567,#568,#569,#570,#571,#572,#573,#574,
#575,#576,#577,#578,#579));
#581=STYLED_ITEM('',(#582),#589);
#582=PRESENTATION_STYLE_ASSIGNMENT((#583));
#583=SURFACE_STYLE_USAGE(.BOTH.,#584);
#584=SURFACE_SIDE_STYLE('',(#585));
#585=SURFACE_STYLE_FILL_AREA(#586);
#586=FILL_AREA_STYLE('',(#587));
#587=FILL_AREA_STYLE_COLOUR('',#588);
#588=COLOUR_RGB('',0.615686274509804,0.811764705882353,0.929411764705882);
#589=MANIFOLD_SOLID_BREP('Part 1',#580);
#590=SHAPE_DEFINITION_REPRESENTATION(#1128,#591);
#591=SHAPE_REPRESENTATION('Part 1',(#592),#1123);
#592=AXIS2_PLACEMENT_3D('',#825,#655,#656);
#593=AXIS2_PLACEMENT_3D('',#826,#657,#658);
#594=AXIS2_PLACEMENT_3D('',#843,#659,#660);
#595=AXIS2_PLACEMENT_3D('',#863,#661,#662);
#596=AXIS2_PLACEMENT_3D('',#880,#663,#664);
#597=AXIS2_PLACEMENT_3D('',#900,#665,#666);
#598=AXIS2_PLACEMENT_3D('',#901,#667,#668);
#599=AXIS2_PLACEMENT_3D('',#906,#670,#671);
#600=AXIS2_PLACEMENT_3D('',#909,#673,#674);
#601=AXIS2_PLACEMENT_3D('',#925,#675,#676);
#602=AXIS2_PLACEMENT_3D('',#951,#677,#678);
#603=AXIS2_PLACEMENT_3D('',#967,#679,#680);
#604=AXIS2_PLACEMENT_3D('',#993,#681,#682);
#605=AXIS2_PLACEMENT_3D('',#994,#683,#684);
#606=AXIS2_PLACEMENT_3D('',#999,#686,#687);
#607=AXIS2_PLACEMENT_3D('',#1002,#689,#690);
#608=AXIS2_PLACEMENT_3D('',#1003,#691,#692);
#609=AXIS2_PLACEMENT_3D('',#1004,#693,#694);
#610=AXIS2_PLACEMENT_3D('',#1005,#695,#696);
#611=AXIS2_PLACEMENT_3D('',#1009,#698,#699);
#612=AXIS2_PLACEMENT_3D('',#1013,#701,#702);
#613=AXIS2_PLACEMENT_3D('',#1022,#707,#708);
#614=AXIS2_PLACEMENT_3D('',#1028,#712,#713);
#615=AXIS2_PLACEMENT_3D('',#1029,#714,#715);
#616=AXIS2_PLACEMENT_3D('',#1030,#716,#717);
#617=AXIS2_PLACEMENT_3D('',#1031,#718,#719);
#618=AXIS2_PLACEMENT_3D('',#1032,#720,#721);
#619=AXIS2_PLACEMENT_3D('',#1036,#723,#724);
#620=AXIS2_PLACEMENT_3D('',#1037,#725,#726);
#621=AXIS2_PLACEMENT_3D('',#1038,#727,#728);
#622=AXIS2_PLACEMENT_3D('',#1043,#730,#731);
#623=AXIS2_PLACEMENT_3D('',#1051,#736,#737);
#624=AXIS2_PLACEMENT_3D('',#1057,#741,#742);
#625=AXIS2_PLACEMENT_3D('',#1061,#744,#745);
#626=AXIS2_PLACEMENT_3D('',#1065,#747,#748);
#627=AXIS2_PLACEMENT_3D('',#1071,#752,#753);
#628=AXIS2_PLACEMENT_3D('',#1072,#754,#755);
#629=AXIS2_PLACEMENT_3D('',#1073,#756,#757);
#630=AXIS2_PLACEMENT_3D('',#1074,#758,#759);
#631=AXIS2_PLACEMENT_3D('',#1075,#760,#761);
#632=AXIS2_PLACEMENT_3D('',#1079,#763,#764);
#633=AXIS2_PLACEMENT_3D('',#1080,#765,#766);
#634=AXIS2_PLACEMENT_3D('',#1081,#767,#768);
#635=AXIS2_PLACEMENT_3D('',#1086,#770,#771);
#636=AXIS2_PLACEMENT_3D('',#1091,#775,#776);
#637=AXIS2_PLACEMENT_3D('',#1092,#777,#778);
#638=AXIS2_PLACEMENT_3D('',#1095,#781,#782);
#639=AXIS2_PLACEMENT_3D('',#1097,#784,#785);
#640=AXIS2_PLACEMENT_3D('',#1099,#787,#788);
#641=AXIS2_PLACEMENT_3D('',#1102,#791,#792);
#642=AXIS2_PLACEMENT_3D('',#1105,#795,#796);
#643=AXIS2_PLACEMENT_3D('',#1106,#797,#798);
#644=AXIS2_PLACEMENT_3D('',#1108,#800,#801);
#645=AXIS2_PLACEMENT_3D('',#1110,#803,#804);
#646=AXIS2_PLACEMENT_3D('',#1112,#806,#807);
#647=AXIS2_PLACEMENT_3D('',#1114,#809,#810);
#648=AXIS2_PLACEMENT_3D('',#1115,#811,#812);
#649=AXIS2_PLACEMENT_3D('',#1116,#813,#814);
#650=AXIS2_PLACEMENT_3D('',#1117,#815,#816);
#651=AXIS2_PLACEMENT_3D('',#1118,#817,#818);
#652=AXIS2_PLACEMENT_3D('',#1119,#819,#820);
#653=AXIS2_PLACEMENT_3D('',#1120,#821,#822);
#654=AXIS2_PLACEMENT_3D('',#1121,#823,#824);
#655=DIRECTION('',(0.,0.,1.));
#656=DIRECTION('',(1.,0.,0.));
#657=DIRECTION('',(0.,1.,0.));
#658=DIRECTION('',(0.,0.,1.));
#659=DIRECTION('',(0.,1.,0.));
#660=DIRECTION('',(0.,0.,1.));
#661=DIRECTION('',(0.,1.,0.));
#662=DIRECTION('',(0.,0.,1.));
#663=DIRECTION('',(0.,1.,0.));
#664=DIRECTION('',(0.,0.,1.));
#665=DIRECTION('',(0.,1.,0.));
#666=DIRECTION('',(0.,0.,1.));
#667=DIRECTION('',(0.,-1.,0.));
#668=DIRECTION('',(0.,0.,-1.));
#669=DIRECTION('',(0.,1.,0.));
#670=DIRECTION('',(0.,-1.,0.));
#671=DIRECTION('',(0.,0.,-1.));
#672=DIRECTION('',(0.,1.,0.));
#673=DIRECTION('',(0.,1.,0.));
#674=DIRECTION('',(0.,0.,1.));
#675=DIRECTION('',(0.,1.,0.));
#676=DIRECTION('',(0.,0.,1.));
#677=DIRECTION('',(0.,1.,0.));
#678=DIRECTION('',(0.,0.,1.));
#679=DIRECTION('',(0.,1.,0.));
#680=DIRECTION('',(0.,0.,1.));
#681=DIRECTION('',(0.,1.,0.));
#682=DIRECTION('',(0.,0.,1.));
#683=DIRECTION('',(0.,1.,0.));
#684=DIRECTION('',(0.,0.,-1.));
#685=DIRECTION('',(0.,1.,0.));
#686=DIRECTION('',(0.,1.,0.));
#687=DIRECTION('',(0.,0.,-1.));
#688=DIRECTION('',(0.,1.,0.));
#689=DIRECTION('',(0.,0.,-1.));
#690=DIRECTION('',(1.,0.,0.));
#691=DIRECTION('',(0.,1.,0.));
#692=DIRECTION('',(0.,0.,1.));
#693=DIRECTION('',(0.,1.,0.));
#694=DIRECTION('',(0.,0.,1.));
#695=DIRECTION('',(0.,0.,-1.));
#696=DIRECTION('',(-1.,0.,0.));
#697=DIRECTION('',(0.,1.,0.));
#698=DIRECTION('',(0.,0.,1.));
#699=DIRECTION('',(-1.,0.,0.));
#700=DIRECTION('',(0.,1.,0.));
#701=DIRECTION('',(0.,0.,-1.));
#702=DIRECTION('',(-1.,0.,0.));
#703=DIRECTION('',(-1.,0.,0.));
#704=DIRECTION('',(0.,1.,0.));
#705=DIRECTION('',(-1.,0.,0.));
#706=DIRECTION('',(0.,1.,0.));
#707=DIRECTION('',(-1.,0.,0.));
#708=DIRECTION('',(0.,0.,1.));
#709=DIRECTION('',(0.,1.,0.));
#710=DIRECTION('',(0.,0.,1.));
#711=DIRECTION('',(0.,0.,1.));
#712=DIRECTION('',(0.,1.,0.));
#713=DIRECTION('',(0.,0.,1.));
#714=DIRECTION('',(0.,-1.,0.));
#715=DIRECTION('',(0.,0.,-1.));
#716=DIRECTION('',(0.,-1.,0.));
#717=DIRECTION('',(0.,0.,-1.));
#718=DIRECTION('',(0.,1.,0.));
#719=DIRECTION('',(0.,0.,1.));
#720=DIRECTION('',(0.,1.,0.));
#721=DIRECTION('',(0.,0.,-1.));
#722=DIRECTION('',(0.,1.,0.));
#723=DIRECTION('',(0.,1.,0.));
#724=DIRECTION('',(0.,0.,-1.));
#725=DIRECTION('',(0.,0.,1.));
#726=DIRECTION('',(1.,0.,0.));
#727=DIRECTION('',(0.,0.,-1.));
#728=DIRECTION('',(1.,0.,0.));
#729=DIRECTION('',(0.,-1.,0.));
#730=DIRECTION('',(0.,0.,1.));
#731=DIRECTION('',(1.,0.,0.));
#732=DIRECTION('',(0.,-1.,0.));
#733=DIRECTION('',(1.,0.,0.));
#734=DIRECTION('',(0.,1.,0.));
#735=DIRECTION('',(1.,0.,0.));
#736=DIRECTION('',(-1.,0.,0.));
#737=DIRECTION('',(0.,0.,1.));
#738=DIRECTION('',(0.,0.,1.));
#739=DIRECTION('',(0.,1.,0.));
#740=DIRECTION('',(0.,0.,1.));
#741=DIRECTION('',(0.,0.,1.));
#742=DIRECTION('',(1.,0.,0.));
#743=DIRECTION('',(0.,-1.,0.));
#744=DIRECTION('',(0.,0.,1.));
#745=DIRECTION('',(1.,0.,0.));
#746=DIRECTION('',(0.,-1.,0.));
#747=DIRECTION('',(0.,0.,-1.));
#748=DIRECTION('',(1.,0.,0.));
#749=DIRECTION('',(1.,0.,0.));
#750=DIRECTION('',(0.,1.,0.));
#751=DIRECTION('',(1.,0.,0.));
#752=DIRECTION('',(0.,1.,0.));
#753=DIRECTION('',(0.,0.,1.));
#754=DIRECTION('',(0.,1.,0.));
#755=DIRECTION('',(0.,0.,-1.));
#756=DIRECTION('',(0.,1.,0.));
#757=DIRECTION('',(0.,0.,-1.));
#758=DIRECTION('',(0.,1.,0.));
#759=DIRECTION('',(0.,0.,1.));
#760=DIRECTION('',(0.,-1.,0.));
#761=DIRECTION('',(0.,0.,-1.));
#762=DIRECTION('',(0.,1.,0.));
#763=DIRECTION('',(0.,-1.,0.));
#764=DIRECTION('',(0.,0.,-1.));
#765=DIRECTION('',(0.,0.,-1.));
#766=DIRECTION('',(-1.,0.,0.));
#767=DIRECTION('',(0.,0.,-1.));
#768=DIRECTION('',(1.,0.,0.));
#769=DIRECTION('',(0.,-1.,0.));
#770=DIRECTION('',(0.,0.,1.));
#771=DIRECTION('',(1.,0.,0.));
#772=DIRECTION('',(0.,-1.,0.));
#773=DIRECTION('',(-1.,0.,0.));
#774=DIRECTION('',(-1.,0.,0.));
#775=DIRECTION('',(0.,-1.,0.));
#776=DIRECTION('',(1.,0.,0.));
#777=DIRECTION('',(0.,0.,1.));
#778=DIRECTION('',(1.,0.,0.));
#779=DIRECTION('',(0.,0.,1.));
#780=DIRECTION('',(0.,0.,1.));
#781=DIRECTION('',(-1.,0.,0.));
#782=DIRECTION('',(0.,0.,1.));
#783=DIRECTION('',(0.,0.,1.));
#784=DIRECTION('',(-1.,0.,0.));
#785=DIRECTION('',(0.,0.,1.));
#786=DIRECTION('',(0.,0.,1.));
#787=DIRECTION('',(-1.,0.,0.));
#788=DIRECTION('',(0.,0.,1.));
#789=DIRECTION('',(0.,0.,1.));
#790=DIRECTION('',(0.,0.,1.));
#791=DIRECTION('',(-1.,0.,0.));
#792=DIRECTION('',(0.,0.,1.));
#793=DIRECTION('',(0.,0.,1.));
#794=DIRECTION('',(0.,0.,1.));
#795=DIRECTION('',(0.,0.,1.));
#796=DIRECTION('',(1.,0.,0.));
#797=DIRECTION('',(0.,1.,0.));
#798=DIRECTION('',(0.,0.,1.));
#799=DIRECTION('',(1.,0.,0.));
#800=DIRECTION('',(1.,0.,0.));
#801=DIRECTION('',(0.,0.,-1.));
#802=DIRECTION('',(1.,0.,0.));
#803=DIRECTION('',(0.,1.,0.));
#804=DIRECTION('',(0.,0.,1.));
#805=DIRECTION('',(1.,0.,0.));
#806=DIRECTION('',(1.,0.,0.));
#807=DIRECTION('',(0.,0.,-1.));
#808=DIRECTION('',(1.,0.,0.));
#809=DIRECTION('',(0.,0.,-1.));
#810=DIRECTION('',(1.,0.,0.));
#811=DIRECTION('',(0.,1.,0.));
#812=DIRECTION('',(0.,0.,1.));
#813=DIRECTION('',(0.,1.,0.));
#814=DIRECTION('',(0.,0.,1.));
#815=DIRECTION('',(0.,1.,0.));
#816=DIRECTION('',(1.,0.,0.));
#817=DIRECTION('',(0.,0.,1.));
#818=DIRECTION('',(1.,0.,0.));
#819=DIRECTION('',(0.,0.,1.));
#820=DIRECTION('',(1.,0.,0.));
#821=DIRECTION('',(0.,-1.,0.));
#822=DIRECTION('',(0.,0.,1.));
#823=DIRECTION('',(0.,-1.,0.));
#824=DIRECTION('',(0.,0.,1.));
#825=CARTESIAN_POINT('',(0.,0.,0.));
#826=CARTESIAN_POINT('',(-5.99578643603846E-18,-0.035,-1.04083408558608E-17));
#827=CARTESIAN_POINT('',(0.0282975263936621,0.004,0.00634428877022476));
#828=CARTESIAN_POINT('',(0.0283945239059737,0.00468619741618948,0.00591164931067811));
#829=CARTESIAN_POINT('',(0.0286136462453399,0.00589318440499505,0.00484384259674807));
#830=CARTESIAN_POINT('',(0.0289017900001405,0.0071260019813634,0.00273168079242752));
#831=CARTESIAN_POINT('',(0.0290328780478271,0.00762469626765141,0.000327908653463389));
#832=CARTESIAN_POINT('',(0.0289304448133323,0.00723714912780262,-0.00293420394711474));
#833=CARTESIAN_POINT('',(0.0284606343297081,0.00531695763696151,-0.00571089843996463));
#834=CARTESIAN_POINT('',(0.0280878134160009,0.00244247109708676,-0.0072299125039519));
#835=CARTESIAN_POINT('',(0.0279365485669659,-0.000818865562677731,-0.007770559582888));
#836=CARTESIAN_POINT('',(0.0283328408214797,-0.00483063962342908,-0.00641540060213897));
#837=CARTESIAN_POINT('',(0.0290556545118322,-0.00771872772915422,-0.00225338590161455));
#838=CARTESIAN_POINT('',(0.0289908920422621,-0.00750713179452441,0.00287250819149788));
#839=CARTESIAN_POINT('',(0.0284915217751552,-0.00537239735701259,0.00547900825937943));
#840=CARTESIAN_POINT('',(0.0282975263936621,-0.004,0.00634428877022476));
#841=CARTESIAN_POINT('',(0.0282975263936621,0.004,0.00634428877022476));
#842=CARTESIAN_POINT('',(0.0282975263936621,-0.004,0.00634428877022476));
#843=CARTESIAN_POINT('',(-5.99578643603846E-18,0.004,-1.04083408558608E-17));
#844=CARTESIAN_POINT('',(0.0172508579138961,0.004,0.0233111111111111));
#845=CARTESIAN_POINT('',(0.0172508579138961,0.004,0.0233111111111111));
#846=CARTESIAN_POINT('',(0.0171093778710359,0.00517786476096121,0.0234158102009743));
#847=CARTESIAN_POINT('',(0.0167010746274919,0.00750963698094376,0.0237151176354909));
#848=CARTESIAN_POINT('',(0.0156666812305848,0.0109189304292244,0.0244182842025274));
#849=CARTESIAN_POINT('',(0.0142322402934436,0.0140466784279523,0.025291780123994));
#850=CARTESIAN_POINT('',(0.0122980745760987,0.0169533017587763,0.0262996071270286));
#851=CARTESIAN_POINT('',(0.00989429076131084,0.0194276277311347,0.0273082364217133));
#852=CARTESIAN_POINT('',(0.00599380756679463,0.0220634302630428,0.028517674183005));
#853=CARTESIAN_POINT('',(0.00124620898804468,0.0232743911573186,0.0291543813913377));
#854=CARTESIAN_POINT('',(-0.00358147603869985,0.0226886019232343,0.0288503590022916));
#855=CARTESIAN_POINT('',(-0.00693727138258148,0.0214187982964286,0.0282209310625521));
#856=CARTESIAN_POINT('',(-0.0098707448187354,0.0194480908705445,0.0273175430394166));
#857=CARTESIAN_POINT('',(-0.0122756047071214,0.016980867807235,0.0263099851858501));
#858=CARTESIAN_POINT('',(-0.0142199140869982,0.0140714216587101,0.025299329094526));
#859=CARTESIAN_POINT('',(-0.0161473667900502,0.00987377701785981,0.0241248407164207));
#860=CARTESIAN_POINT('',(-0.0169673519538484,0.00636027409316383,0.0235209132527257));
#861=CARTESIAN_POINT('',(-0.0172508579138961,0.004,0.0233111111111111));
#862=CARTESIAN_POINT('',(-0.0172508579138961,0.004,0.0233111111111111));
#863=CARTESIAN_POINT('',(-5.99578643603846E-18,0.004,-1.04083408558608E-17));
#864=CARTESIAN_POINT('',(-0.0282975263936621,0.004,0.00634428877022476));
#865=CARTESIAN_POINT('',(-0.0282975263936621,-0.004,0.00634428877022476));
#866=CARTESIAN_POINT('',(-0.0283945239059737,-0.00468619741618948,0.00591164931067811));
#867=CARTESIAN_POINT('',(-0.0286136462453399,-0.00589318440499506,0.00484384259674806));
#868=CARTESIAN_POINT('',(-0.0289017900001405,-0.00712600198136339,0.00273168079242753));
#869=CARTESIAN_POINT('',(-0.0290328780478271,-0.0076246962676514,0.000327908653463398));
#870=CARTESIAN_POINT('',(-0.0289304448133324,-0.00723714912780262,-0.00293420394711473));
#871=CARTESIAN_POINT('',(-0.0284606343297081,-0.00531695763696151,-0.00571089843996462));
#872=CARTESIAN_POINT('',(-0.028087813416001,-0.00244247109708678,-0.0072299125039519));
#873=CARTESIAN_POINT('',(-0.0279365485669659,0.000818865562677738,-0.007770559582888));
#874=CARTESIAN_POINT('',(-0.0283328408214798,0.00483063962342909,-0.00641540060213896));
#875=CARTESIAN_POINT('',(-0.0290556545118322,0.00771872772915422,-0.00225338590161455));
#876=CARTESIAN_POINT('',(-0.0289908920422621,0.00750713179452443,0.00287250819149785));
#877=CARTESIAN_POINT('',(-0.0284915217751552,0.00537239735701259,0.00547900825937943));
#878=CARTESIAN_POINT('',(-0.0282975263936621,0.004,0.00634428877022476));
#879=CARTESIAN_POINT('',(-0.0282975263936621,-0.004,0.00634428877022476));
#880=CARTESIAN_POINT('',(-5.99578643603846E-18,-0.004,-1.04083408558608E-17));
#881=CARTESIAN_POINT('',(-0.0172508579138961,-0.004,0.0233111111111111));
#882=CARTESIAN_POINT('',(0.0172508579138961,-0.004,0.0233111111111111));
#883=CARTESIAN_POINT('',(0.0171093778710359,-0.00517786476096121,0.0234158102009743));
#884=CARTESIAN_POINT('',(0.0167010746274919,-0.00750963698094376,0.0237151176354909));
#885=CARTESIAN_POINT('',(0.0156666812305848,-0.0109189304292244,0.0244182842025274));
#886=CARTESIAN_POINT('',(0.0142322402934436,-0.0140466784279523,0.025291780123994));
#887=CARTESIAN_POINT('',(0.0122980745760987,-0.0169533017587763,0.0262996071270286));
#888=CARTESIAN_POINT('',(0.00989429076131084,-0.0194276277311347,0.0273082364217133));
#889=CARTESIAN_POINT('',(0.00599380756679463,-0.0220634302630428,0.028517674183005));
#890=CARTESIAN_POINT('',(0.00124620898804468,-0.0232743911573186,0.0291543813913377));
#891=CARTESIAN_POINT('',(-0.00358147603869985,-0.0226886019232343,0.0288503590022916));
#892=CARTESIAN_POINT('',(-0.00693727138258148,-0.0214187982964286,0.0282209310625521));
#893=CARTESIAN_POINT('',(-0.0098707448187354,-0.0194480908705445,0.0273175430394166));
#894=CARTESIAN_POINT('',(-0.0122756047071214,-0.016980867807235,0.0263099851858501));
#895=CARTESIAN_POINT('',(-0.0142199140869982,-0.0140714216587101,0.025299329094526));
#896=CARTESIAN_POINT('',(-0.0161473667900502,-0.00987377701785981,0.0241248407164207));
#897=CARTESIAN_POINT('',(-0.0169673519538484,-0.00636027409316383,0.0235209132527257));
#898=CARTESIAN_POINT('',(-0.0172508579138961,-0.004,0.0233111111111111));
#899=CARTESIAN_POINT('',(0.0172508579138961,-0.004,0.0233111111111111));
#900=CARTESIAN_POINT('',(-5.99578643603846E-18,-0.004,-1.04083408558608E-17));
#901=CARTESIAN_POINT('',(-5.99578643603846E-18,0.035,-1.04083408558608E-17));
#902=CARTESIAN_POINT('',(0.02364558253474,0.035,-0.0167894736842105));
#903=CARTESIAN_POINT('',(-0.02364558253474,0.035,-0.0167894736842105));
#904=CARTESIAN_POINT('',(0.02364558253474,-0.035,-0.0167894736842105));
#905=CARTESIAN_POINT('',(0.02364558253474,-0.035,-0.0167894736842105));
#906=CARTESIAN_POINT('',(-5.99578643603846E-18,-0.035,-1.04083408558608E-17));
#907=CARTESIAN_POINT('',(-0.02364558253474,-0.035,-0.0167894736842105));
#908=CARTESIAN_POINT('',(-0.02364558253474,-0.035,-0.0167894736842105));
#909=CARTESIAN_POINT('',(-3.08024556490619E-18,-0.035,1.21430643318376E-17));
#910=CARTESIAN_POINT('',(-0.0445505331056767,0.004,0.00634428877022476));
#911=CARTESIAN_POINT('',(-0.0446122402837445,0.00468727191984158,0.0059109718486703));
#912=CARTESIAN_POINT('',(-0.0447518337365141,0.00589696732628311,0.00483932994557257));
#913=CARTESIAN_POINT('',(-0.045001261492509,0.00754316600390292,0.00201827922010372));
#914=CARTESIAN_POINT('',(-0.0450353834954398,0.00772494922285024,-0.0022288619487966));
#915=CARTESIAN_POINT('',(-0.0446529265919401,0.0053161339440298,-0.00571389957246976));
#916=CARTESIAN_POINT('',(-0.0444172764437833,0.00243545546643109,-0.00723198706290318));
#917=CARTESIAN_POINT('',(-0.0443223740572429,-0.000816291995631882,-0.00776868452305505));
#918=CARTESIAN_POINT('',(-0.0445712268782882,-0.00482638150312124,-0.00642190389703452));
#919=CARTESIAN_POINT('',(-0.0450357558015144,-0.00772010449412684,-0.00224438072747822));
#920=CARTESIAN_POINT('',(-0.044994343911464,-0.00751039241429959,0.0028585207470414));
#921=CARTESIAN_POINT('',(-0.0446739442397598,-0.00537450795364366,0.00547767755284478));
#922=CARTESIAN_POINT('',(-0.0445505331056767,-0.004,0.00634428877022476));
#923=CARTESIAN_POINT('',(-0.0445505331056767,0.004,0.00634428877022476));
#924=CARTESIAN_POINT('',(-0.0445505331056767,-0.004,0.00634428877022476));
#925=CARTESIAN_POINT('',(-3.08024556490619E-18,0.004,1.21430643318376E-17));
#926=CARTESIAN_POINT('',(-0.0263663084678576,0.004,0.0364666666666667));
#927=CARTESIAN_POINT('',(-0.0263663084678577,0.004,0.0364666666666667));
#928=CARTESIAN_POINT('',(-0.0261635519905436,0.00564922732252493,0.0366132646508911));
#929=CARTESIAN_POINT('',(-0.0255031659275728,0.00891787818551751,0.0370875978113059));
#930=CARTESIAN_POINT('',(-0.024041278896747,0.0127541263340827,0.0380559032611637));
#931=CARTESIAN_POINT('',(-0.0225184223452171,0.015577952607242,0.0389693293245311));
#932=CARTESIAN_POINT('',(-0.0207275780685554,0.0182767462661806,0.0399668686731474));
#933=CARTESIAN_POINT('',(-0.0186141588151205,0.0206491393577913,0.041004638701803));
#934=CARTESIAN_POINT('',(-0.0161751459678084,0.0227062155226762,0.0420094433934661));
#935=CARTESIAN_POINT('',(-0.0134943743569063,0.0245506266894022,0.0429712098888818));
#936=CARTESIAN_POINT('',(-0.00988784872706142,0.0263376310992316,0.0439853834931374));
#937=CARTESIAN_POINT('',(-0.00503104405135951,0.0276974360130437,0.0448100735317478));
#938=CARTESIAN_POINT('',(-0.000893992425403246,0.0280741746038587,0.045046411828706));
#939=CARTESIAN_POINT('',(0.00249815326878901,0.027926916690957,0.0449543930921005));
#940=CARTESIAN_POINT('',(0.00497904480368962,0.0275901247257089,0.044746155609399));
#941=CARTESIAN_POINT('',(0.00739862480763752,0.0270379054779782,0.0444099877804592));
#942=CARTESIAN_POINT('',(0.0105670057986936,0.0259974103366367,0.0437923974849293));
#943=CARTESIAN_POINT('',(0.0142078178220094,0.024200862012077,0.0427723070969156));
#944=CARTESIAN_POINT('',(0.0180808503067466,0.0212526268375269,0.0412681622112601));
#945=CARTESIAN_POINT('',(0.0212541600290595,0.0176839745691685,0.0397076890792595));
#946=CARTESIAN_POINT('',(0.0237550383091708,0.0135122322411306,0.0382462848097549));
#947=CARTESIAN_POINT('',(0.0254957382884296,0.00893942662672217,0.037092402891926));
#948=CARTESIAN_POINT('',(0.0261631971794706,0.00565211336653098,0.0366135211881361));
#949=CARTESIAN_POINT('',(0.0263663084678577,0.00399999999999998,0.0364666666666667));
#950=CARTESIAN_POINT('',(0.0263663084678576,0.004,0.0364666666666667));
#951=CARTESIAN_POINT('',(-3.08024556490619E-18,0.004,1.21430643318376E-17));
#952=CARTESIAN_POINT('',(0.0445505331056767,0.004,0.00634428877022476));
#953=CARTESIAN_POINT('',(0.0445505331056767,-0.004,0.00634428877022476));
#954=CARTESIAN_POINT('',(0.0446122402837445,-0.00468727191984158,0.0059109718486703));
#955=CARTESIAN_POINT('',(0.0447518337365141,-0.00589696732628311,0.00483932994557257));
#956=CARTESIAN_POINT('',(0.045001261492509,-0.00754316600390291,0.00201827922010372));
#957=CARTESIAN_POINT('',(0.0450353834954398,-0.00772494922285023,-0.0022288619487966));
#958=CARTESIAN_POINT('',(0.0446529265919401,-0.0053161339440298,-0.00571389957246976));
#959=CARTESIAN_POINT('',(0.0444172764437833,-0.00243545546643109,-0.00723198706290318));
#960=CARTESIAN_POINT('',(0.0443223740572429,0.000816291995631881,-0.00776868452305505));
#961=CARTESIAN_POINT('',(0.0445712268782882,0.00482638150312125,-0.00642190389703452));
#962=CARTESIAN_POINT('',(0.0450357558015144,0.00772010449412684,-0.00224438072747823));
#963=CARTESIAN_POINT('',(0.044994343911464,0.00751039241429959,0.0028585207470414));
#964=CARTESIAN_POINT('',(0.0446739442397598,0.00537450795364366,0.00547767755284478));
#965=CARTESIAN_POINT('',(0.0445505331056767,0.004,0.00634428877022476));
#966=CARTESIAN_POINT('',(0.0445505331056767,-0.004,0.00634428877022476));
#967=CARTESIAN_POINT('',(-3.08024556490619E-18,-0.004,1.21430643318376E-17));
#968=CARTESIAN_POINT('',(0.0263663084678576,-0.004,0.0364666666666667));
#969=CARTESIAN_POINT('',(-0.0263663084678577,-0.004,0.0364666666666667));
#970=CARTESIAN_POINT('',(-0.0261635519905436,-0.00564922732252493,0.0366132646508911));
#971=CARTESIAN_POINT('',(-0.0255031659275728,-0.00891787818551751,0.0370875978113059));
#972=CARTESIAN_POINT('',(-0.024041278896747,-0.0127541263340827,0.0380559032611637));
#973=CARTESIAN_POINT('',(-0.0225184223452171,-0.015577952607242,0.0389693293245311));
#974=CARTESIAN_POINT('',(-0.0207275780685554,-0.0182767462661806,0.0399668686731474));
#975=CARTESIAN_POINT('',(-0.0186141588151205,-0.0206491393577913,0.041004638701803));
#976=CARTESIAN_POINT('',(-0.0161751459678084,-0.0227062155226762,0.0420094433934661));
#977=CARTESIAN_POINT('',(-0.0134943743569063,-0.0245506266894022,0.0429712098888818));
#978=CARTESIAN_POINT('',(-0.00988784872706142,-0.0263376310992316,0.0439853834931374));
#979=CARTESIAN_POINT('',(-0.00503104405135951,-0.0276974360130437,0.0448100735317478));
#980=CARTESIAN_POINT('',(-0.000893992425403246,-0.0280741746038587,0.045046411828706));
#981=CARTESIAN_POINT('',(0.00249815326878901,-0.027926916690957,0.0449543930921005));
#982=CARTESIAN_POINT('',(0.00497904480368962,-0.0275901247257089,0.044746155609399));
#983=CARTESIAN_POINT('',(0.00739862480763752,-0.0270379054779782,0.0444099877804592));
#984=CARTESIAN_POINT('',(0.0105670057986936,-0.0259974103366367,0.0437923974849293));
#985=CARTESIAN_POINT('',(0.0142078178220094,-0.024200862012077,0.0427723070969156));
#986=CARTESIAN_POINT('',(0.0180808503067466,-0.0212526268375269,0.0412681622112601));
#987=CARTESIAN_POINT('',(0.0212541600290595,-0.0176839745691685,0.0397076890792595));
#988=CARTESIAN_POINT('',(0.0237550383091708,-0.0135122322411306,0.0382462848097549));
#989=CARTESIAN_POINT('',(0.0254957382884296,-0.00893942662672217,0.037092402891926));
#990=CARTESIAN_POINT('',(0.0261631971794706,-0.00565211336653098,0.0366135211881361));
#991=CARTESIAN_POINT('',(0.0263663084678577,-0.00399999999999998,0.0364666666666667));
#992=CARTESIAN_POINT('',(-0.0263663084678576,-0.004,0.0364666666666667));
#993=CARTESIAN_POINT('',(-3.08024556490619E-18,-0.004,1.21430643318376E-17));
#994=CARTESIAN_POINT('',(-3.08024556490619E-18,0.035,1.21430643318376E-17));
#995=CARTESIAN_POINT('',(-0.0366914211745966,0.035,-0.0260526315789474));
#996=CARTESIAN_POINT('',(0.0366914211745966,0.035,-0.0260526315789474));
#997=CARTESIAN_POINT('',(-0.0366914211745966,-0.035,-0.0260526315789474));
#998=CARTESIAN_POINT('',(-0.0366914211745966,-0.035,-0.0260526315789474));
#999=CARTESIAN_POINT('',(-3.08024556490619E-18,-0.035,1.21430643318376E-17));
#1000=CARTESIAN_POINT('',(0.0366914211745966,-0.035,-0.0260526315789474));
#1001=CARTESIAN_POINT('',(0.0366914211745966,-0.035,-0.0260526315789474));
#1002=CARTESIAN_POINT('',(-1.3657400460999E-18,0.,0.045));
#1003=CARTESIAN_POINT('',(-1.3657400460999E-18,-0.004,0.045));
#1004=CARTESIAN_POINT('',(-1.3657400460999E-18,-0.004,0.045));
#1005=CARTESIAN_POINT('',(-0.0662379000772445,-0.035,-0.061));
#1006=CARTESIAN_POINT('',(-0.059,-0.035,-0.061));
#1007=CARTESIAN_POINT('',(-0.059,-0.016,-0.061));
#1008=CARTESIAN_POINT('',(-0.059,0.016,-0.061));
#1009=CARTESIAN_POINT('',(-0.065,0.016,-0.061));
#1010=CARTESIAN_POINT('',(-0.071,0.016,-0.061));
#1011=CARTESIAN_POINT('',(-0.071,-0.035,-0.061));
#1012=CARTESIAN_POINT('',(-0.071,-0.016,-0.061));
#1013=CARTESIAN_POINT('',(-0.065,-0.016,-0.061));
#1014=CARTESIAN_POINT('',(-0.0662379000772445,0.035,-0.061));
#1015=CARTESIAN_POINT('',(-0.046475800154489,0.035,-0.061));
#1016=CARTESIAN_POINT('',(-0.086,0.035,-0.061));
#1017=CARTESIAN_POINT('',(-0.046475800154489,-0.035,-0.061));
#1018=CARTESIAN_POINT('',(-0.046475800154489,-0.035,-0.061));
#1019=CARTESIAN_POINT('',(-0.0662379000772445,-0.035,-0.061));
#1020=CARTESIAN_POINT('',(-0.086,-0.035,-0.061));
#1021=CARTESIAN_POINT('',(-0.086,-0.035,-0.061));
#1022=CARTESIAN_POINT('',(-0.086,-0.035,-0.053));
#1023=CARTESIAN_POINT('',(-0.086,-0.035,-0.045));
#1024=CARTESIAN_POINT('',(-0.086,-0.035,-0.045));
#1025=CARTESIAN_POINT('',(-0.086,0.035,-0.045));
#1026=CARTESIAN_POINT('',(-0.086,0.035,-0.053));
#1027=CARTESIAN_POINT('',(-0.086,-0.035,-0.053));
#1028=CARTESIAN_POINT('',(-0.046475800154489,-0.035,-0.033));
#1029=CARTESIAN_POINT('',(-0.046475800154489,0.035,-0.033));
#1030=CARTESIAN_POINT('',(-0.046475800154489,-0.035,-0.033));
#1031=CARTESIAN_POINT('',(0.046475800154489,-0.035,-0.033));
#1032=CARTESIAN_POINT('',(0.046475800154489,0.035,-0.033));
#1033=CARTESIAN_POINT('',(0.046475800154489,0.035,-0.061));
#1034=CARTESIAN_POINT('',(0.046475800154489,-0.035,-0.061));
#1035=CARTESIAN_POINT('',(0.046475800154489,-0.035,-0.061));
#1036=CARTESIAN_POINT('',(0.046475800154489,-0.035,-0.033));
#1037=CARTESIAN_POINT('',(0.0662379000772445,-0.035,-0.061));
#1038=CARTESIAN_POINT('',(0.065,0.016,-0.061));
#1039=CARTESIAN_POINT('',(0.071,0.016,-0.061));
#1040=CARTESIAN_POINT('',(0.059,0.016,-0.061));
#1041=CARTESIAN_POINT('',(0.059,-0.035,-0.061));
#1042=CARTESIAN_POINT('',(0.059,-0.016,-0.061));
#1043=CARTESIAN_POINT('',(0.065,-0.016,-0.061));
#1044=CARTESIAN_POINT('',(0.071,-0.016,-0.061));
#1045=CARTESIAN_POINT('',(0.071,-0.035,-0.061));
#1046=CARTESIAN_POINT('',(0.0662379000772445,0.035,-0.061));
#1047=CARTESIAN_POINT('',(0.086,0.035,-0.061));
#1048=CARTESIAN_POINT('',(0.086,-0.035,-0.061));
#1049=CARTESIAN_POINT('',(0.086,-0.035,-0.061));
#1050=CARTESIAN_POINT('',(0.0662379000772445,-0.035,-0.061));
#1051=CARTESIAN_POINT('',(0.086,-0.035,-0.053));
#1052=CARTESIAN_POINT('',(0.086,0.035,-0.053));
#1053=CARTESIAN_POINT('',(0.086,0.035,-0.045));
#1054=CARTESIAN_POINT('',(0.086,-0.035,-0.045));
#1055=CARTESIAN_POINT('',(0.086,-0.035,-0.045));
#1056=CARTESIAN_POINT('',(0.086,-0.035,-0.053));
#1057=CARTESIAN_POINT('',(0.0662379000772445,-0.035,-0.045));
#1058=CARTESIAN_POINT('',(0.059,0.,-0.045));
#1059=CARTESIAN_POINT('',(0.059,0.016,-0.045));
#1060=CARTESIAN_POINT('',(0.059,-0.016,-0.045));
#1061=CARTESIAN_POINT('',(0.065,0.016,-0.045));
#1062=CARTESIAN_POINT('',(0.071,0.016,-0.045));
#1063=CARTESIAN_POINT('',(0.071,0.,-0.045));
#1064=CARTESIAN_POINT('',(0.071,-0.016,-0.045));
#1065=CARTESIAN_POINT('',(0.065,-0.016,-0.045));
#1066=CARTESIAN_POINT('',(0.0662379000772445,0.035,-0.045));
#1067=CARTESIAN_POINT('',(0.046475800154489,0.035,-0.045));
#1068=CARTESIAN_POINT('',(0.046475800154489,-0.035,-0.045));
#1069=CARTESIAN_POINT('',(0.046475800154489,-0.035,-0.045));
#1070=CARTESIAN_POINT('',(0.0662379000772445,-0.035,-0.045));
#1071=CARTESIAN_POINT('',(0.046475800154489,-0.035,-0.033));
#1072=CARTESIAN_POINT('',(0.046475800154489,0.035,-0.033));
#1073=CARTESIAN_POINT('',(0.046475800154489,-0.035,-0.033));
#1074=CARTESIAN_POINT('',(-0.046475800154489,-0.035,-0.033));
#1075=CARTESIAN_POINT('',(-0.046475800154489,0.035,-0.033));
#1076=CARTESIAN_POINT('',(-0.046475800154489,0.035,-0.045));
#1077=CARTESIAN_POINT('',(-0.046475800154489,-0.035,-0.045));
#1078=CARTESIAN_POINT('',(-0.046475800154489,-0.035,-0.045));
#1079=CARTESIAN_POINT('',(-0.046475800154489,-0.035,-0.033));
#1080=CARTESIAN_POINT('',(-0.0662379000772445,-0.035,-0.045));
#1081=CARTESIAN_POINT('',(-0.065,0.016,-0.045));
#1082=CARTESIAN_POINT('',(-0.071,0.016,-0.045));
#1083=CARTESIAN_POINT('',(-0.059,0.016,-0.045));
#1084=CARTESIAN_POINT('',(-0.059,0.,-0.045));
#1085=CARTESIAN_POINT('',(-0.059,-0.016,-0.045));
#1086=CARTESIAN_POINT('',(-0.065,-0.016,-0.045));
#1087=CARTESIAN_POINT('',(-0.071,-0.016,-0.045));
#1088=CARTESIAN_POINT('',(-0.071,0.,-0.045));
#1089=CARTESIAN_POINT('',(-0.0662379000772445,0.035,-0.045));
#1090=CARTESIAN_POINT('',(-0.0662379000772445,-0.035,-0.045));
#1091=CARTESIAN_POINT('',(0.,-0.035,0.));
#1092=CARTESIAN_POINT('',(0.065,-0.016,-0.254936177500568));
#1093=CARTESIAN_POINT('',(0.059,-0.016,-0.254936177500568));
#1094=CARTESIAN_POINT('',(0.071,-0.016,-0.254936177500568));
#1095=CARTESIAN_POINT('',(0.071,0.,-0.254936177500568));
#1096=CARTESIAN_POINT('',(0.071,0.016,-0.254936177500568));
#1097=CARTESIAN_POINT('',(0.059,0.,-0.254936177500568));
#1098=CARTESIAN_POINT('',(0.059,0.016,-0.254936177500568));
#1099=CARTESIAN_POINT('',(-0.059,0.,-0.254936177500568));
#1100=CARTESIAN_POINT('',(-0.059,-0.016,-0.254936177500568));
#1101=CARTESIAN_POINT('',(-0.059,0.016,-0.254936177500568));
#1102=CARTESIAN_POINT('',(-0.071,0.,-0.254936177500568));
#1103=CARTESIAN_POINT('',(-0.071,0.016,-0.254936177500568));
#1104=CARTESIAN_POINT('',(-0.071,-0.016,-0.254936177500568));
#1105=CARTESIAN_POINT('',(-0.065,-0.016,-0.254936177500568));
#1106=CARTESIAN_POINT('',(-0.20535647363585,-0.004,0.0214056660711901));
#1107=CARTESIAN_POINT('',(-0.20535647363585,-0.004,0.00634428877022476));
#1108=CARTESIAN_POINT('',(-0.20535647363585,1.40404937829702E-18,-4.33680868994202E-18));
#1109=CARTESIAN_POINT('',(-0.20535647363585,0.004,0.00634428877022476));
#1110=CARTESIAN_POINT('',(-0.20535647363585,-0.004,0.0214056660711901));
#1111=CARTESIAN_POINT('',(-0.20535647363585,-0.004,0.00634428877022476));
#1112=CARTESIAN_POINT('',(-0.20535647363585,1.40404937829702E-18,-4.33680868994202E-18));
#1113=CARTESIAN_POINT('',(-0.20535647363585,0.004,0.00634428877022476));
#1114=CARTESIAN_POINT('',(-1.3657400460999E-18,0.,0.045));
#1115=CARTESIAN_POINT('',(-1.3657400460999E-18,0.004,0.045));
#1116=CARTESIAN_POINT('',(-1.3657400460999E-18,0.004,0.045));
#1117=CARTESIAN_POINT('',(0.,0.035,0.));
#1118=CARTESIAN_POINT('',(0.065,0.016,-0.254936177500568));
#1119=CARTESIAN_POINT('',(-0.065,0.016,-0.254936177500568));
#1120=CARTESIAN_POINT('',(-0.20535647363585,0.004,0.0214056660711901));
#1121=CARTESIAN_POINT('',(-0.20535647363585,0.004,0.0214056660711901));
#1122=MECHANICAL_DESIGN_GEOMETRIC_PRESENTATION_REPRESENTATION('',(#581),
#1123);
#1123=(
GEOMETRIC_REPRESENTATION_CONTEXT(3)
GLOBAL_UNCERTAINTY_ASSIGNED_CONTEXT((#1124))
GLOBAL_UNIT_ASSIGNED_CONTEXT((#1127,#1126,#1125))
REPRESENTATION_CONTEXT('Part 1','TOP_LEVEL_ASSEMBLY_PART')
);
#1124=UNCERTAINTY_MEASURE_WITH_UNIT(LENGTH_MEASURE(2.E-5),#1127,
'DISTANCE_ACCURACY_VALUE','Maximum Tolerance applied to model');
#1125=(
NAMED_UNIT(*)
SI_UNIT($,.STERADIAN.)
SOLID_ANGLE_UNIT()
);
#1126=(
NAMED_UNIT(*)
PLANE_ANGLE_UNIT()
SI_UNIT($,.RADIAN.)
);
#1127=(
LENGTH_UNIT()
NAMED_UNIT(*)
SI_UNIT($,.METRE.)
);
#1128=PRODUCT_DEFINITION_SHAPE('','',#1129);
#1129=PRODUCT_DEFINITION('','',#1131,#1130);
#1130=PRODUCT_DEFINITION_CONTEXT('',#1137,'design');
#1131=PRODUCT_DEFINITION_FORMATION_WITH_SPECIFIED_SOURCE('','',#1133,
 .NOT_KNOWN.);
#1132=PRODUCT_RELATED_PRODUCT_CATEGORY('','',(#1133));
#1133=PRODUCT('Part 1','Part 1','Part 1',(#1135));
#1134=PRODUCT_CATEGORY('','');
#1135=PRODUCT_CONTEXT('',#1137,'mechanical');
#1136=APPLICATION_PROTOCOL_DEFINITION('international standard',
'ap242_managed_model_based_3d_engineering',2020,#1137);
#1137=APPLICATION_CONTEXT('managed model based 3d engineering');
ENDSEC;
END-ISO-10303-21;
