ISO-10303-21;
HEADER;
/* Generated by software containing ST-Developer
 * from STEP Tools, Inc. (www.steptools.com) 
 */
/* OPTION: using custom renumber hook */

FILE_DESCRIPTION(
/* description */ ('STEP AP242 Edition 2',
'CAx-IF Rec.Pracs.---Representation and Presentation of Product Manufa
cturing Information (PMI)---4.0---2014-10-13',
'CAx-IF Rec.Pracs.---3D Tessellated Geometry---0.4---2014-09-14','2;1',
'CAx-IF Rec.Pracs.---User Defined Attributes---1.5---2016-08-15'),
/* implementation_level */ '2;1');

FILE_NAME(
/* name */ 'Part Studio 1',
/* time_stamp */ '2026-07-18T17:14:05Z',
/* author */ (''),
/* organization */ (''),
/* preprocessor_version */ 'ST-DEVELOPER v20',
/* originating_system */ 'ONSHAPE BY PTC INC, 1.218',
/* authorisation */ '  ');

FILE_SCHEMA (('AP242_MANAGED_MODEL_BASED_3D_ENGINEERING_MIM_LF { 1 0 10303 442 3 1 4 }'));
ENDSEC;

DATA;
#10=SHAPE_REPRESENTATION_RELATIONSHIP('','',#307,#11);
#11=ADVANCED_BREP_SHAPE_REPRESENTATION('',(#305),#556);
#12=B_SPLINE_CURVE_WITH_KNOTS('',3,(#528,#529,#530,#531,#532,#533,#534),
 .UNSPECIFIED.,.F.,.F.,(4,1,1,1,4),(2.0531678758139E-7,0.00160674893676267,
0.00321329255673776,0.00481983617671285,0.00642637979668795),
 .UNSPECIFIED.);
#13=B_SPLINE_CURVE_WITH_KNOTS('',3,(#535,#536,#537,#538,#539,#540,#541),
 .UNSPECIFIED.,.F.,.F.,(4,1,1,1,4),(2.04817672051564E-7,0.0016067484361612,
0.00321329205465035,0.0048198356731395,0.00642637929162864),
 .UNSPECIFIED.);
#14=TOROIDAL_SURFACE('',#346,0.0295,0.003);
#15=CONICAL_SURFACE('',#319,0.019,1.0471975511966);
#16=CONICAL_SURFACE('',#334,0.0257071067811865,0.785398163397456);
#17=CONICAL_SURFACE('',#336,0.025,0.785398163397448);
#18=CONICAL_SURFACE('',#338,0.0242928932188135,0.785398163397456);
#19=CONICAL_SURFACE('',#347,0.0248,0.785398163397449);
#20=CONICAL_SURFACE('',#348,0.02,0.785398163397438);
#21=PLANE('',#313);
#22=PLANE('',#321);
#23=PLANE('',#325);
#24=PLANE('',#331);
#25=PLANE('',#342);
#26=PLANE('',#355);
#27=LINE('',#464,#34);
#28=LINE('',#468,#35);
#29=LINE('',#472,#36);
#30=LINE('',#500,#37);
#31=LINE('',#504,#38);
#32=LINE('',#545,#39);
#33=LINE('',#549,#40);
#34=VECTOR('',#362,1.);
#35=VECTOR('',#365,1.);
#36=VECTOR('',#368,1.);
#37=VECTOR('',#403,1.);
#38=VECTOR('',#406,1.);
#39=VECTOR('',#445,1.);
#40=VECTOR('',#450,1.);
#41=ORIENTED_EDGE('',*,*,#111,.T.);
#42=ORIENTED_EDGE('',*,*,#112,.T.);
#43=ORIENTED_EDGE('',*,*,#113,.T.);
#44=ORIENTED_EDGE('',*,*,#114,.F.);
#45=ORIENTED_EDGE('',*,*,#115,.F.);
#46=ORIENTED_EDGE('',*,*,#116,.F.);
#47=ORIENTED_EDGE('',*,*,#117,.T.);
#48=ORIENTED_EDGE('',*,*,#118,.T.);
#49=ORIENTED_EDGE('',*,*,#119,.T.);
#50=ORIENTED_EDGE('',*,*,#120,.T.);
#51=ORIENTED_EDGE('',*,*,#121,.T.);
#52=ORIENTED_EDGE('',*,*,#120,.F.);
#53=ORIENTED_EDGE('',*,*,#122,.F.);
#54=ORIENTED_EDGE('',*,*,#123,.T.);
#55=ORIENTED_EDGE('',*,*,#124,.T.);
#56=ORIENTED_EDGE('',*,*,#121,.F.);
#57=ORIENTED_EDGE('',*,*,#125,.F.);
#58=ORIENTED_EDGE('',*,*,#111,.F.);
#59=ORIENTED_EDGE('',*,*,#126,.F.);
#60=ORIENTED_EDGE('',*,*,#127,.T.);
#61=ORIENTED_EDGE('',*,*,#128,.F.);
#62=ORIENTED_EDGE('',*,*,#129,.T.);
#63=ORIENTED_EDGE('',*,*,#130,.F.);
#64=ORIENTED_EDGE('',*,*,#127,.F.);
#65=ORIENTED_EDGE('',*,*,#131,.F.);
#66=ORIENTED_EDGE('',*,*,#129,.F.);
#67=ORIENTED_EDGE('',*,*,#132,.T.);
#68=ORIENTED_EDGE('',*,*,#133,.T.);
#69=ORIENTED_EDGE('',*,*,#132,.F.);
#70=ORIENTED_EDGE('',*,*,#134,.T.);
#71=ORIENTED_EDGE('',*,*,#133,.F.);
#72=ORIENTED_EDGE('',*,*,#135,.T.);
#73=ORIENTED_EDGE('',*,*,#134,.F.);
#74=ORIENTED_EDGE('',*,*,#136,.T.);
#75=ORIENTED_EDGE('',*,*,#135,.F.);
#76=ORIENTED_EDGE('',*,*,#137,.T.);
#77=ORIENTED_EDGE('',*,*,#136,.F.);
#78=ORIENTED_EDGE('',*,*,#138,.T.);
#79=ORIENTED_EDGE('',*,*,#137,.F.);
#80=ORIENTED_EDGE('',*,*,#124,.F.);
#81=ORIENTED_EDGE('',*,*,#139,.T.);
#82=ORIENTED_EDGE('',*,*,#113,.F.);
#83=ORIENTED_EDGE('',*,*,#140,.F.);
#84=ORIENTED_EDGE('',*,*,#118,.F.);
#85=ORIENTED_EDGE('',*,*,#138,.F.);
#86=ORIENTED_EDGE('',*,*,#119,.F.);
#87=ORIENTED_EDGE('',*,*,#117,.F.);
#88=ORIENTED_EDGE('',*,*,#141,.F.);
#89=ORIENTED_EDGE('',*,*,#142,.T.);
#90=ORIENTED_EDGE('',*,*,#114,.T.);
#91=ORIENTED_EDGE('',*,*,#139,.F.);
#92=ORIENTED_EDGE('',*,*,#143,.F.);
#93=ORIENTED_EDGE('',*,*,#144,.T.);
#94=ORIENTED_EDGE('',*,*,#141,.T.);
#95=ORIENTED_EDGE('',*,*,#123,.F.);
#96=ORIENTED_EDGE('',*,*,#112,.F.);
#97=ORIENTED_EDGE('',*,*,#125,.T.);
#98=ORIENTED_EDGE('',*,*,#130,.T.);
#99=ORIENTED_EDGE('',*,*,#131,.T.);
#100=ORIENTED_EDGE('',*,*,#128,.T.);
#101=ORIENTED_EDGE('',*,*,#126,.T.);
#102=ORIENTED_EDGE('',*,*,#116,.T.);
#103=ORIENTED_EDGE('',*,*,#145,.T.);
#104=ORIENTED_EDGE('',*,*,#143,.T.);
#105=ORIENTED_EDGE('',*,*,#122,.T.);
#106=ORIENTED_EDGE('',*,*,#140,.T.);
#107=ORIENTED_EDGE('',*,*,#145,.F.);
#108=ORIENTED_EDGE('',*,*,#115,.T.);
#109=ORIENTED_EDGE('',*,*,#142,.F.);
#110=ORIENTED_EDGE('',*,*,#144,.F.);
#111=EDGE_CURVE('',#146,#147,#173,.T.);
#112=EDGE_CURVE('',#147,#148,#27,.T.);
#113=EDGE_CURVE('',#148,#149,#174,.F.);
#114=EDGE_CURVE('',#150,#149,#28,.T.);
#115=EDGE_CURVE('',#151,#150,#175,.T.);
#116=EDGE_CURVE('',#146,#151,#29,.T.);
#117=EDGE_CURVE('',#152,#152,#176,.F.);
#118=EDGE_CURVE('',#153,#153,#177,.T.);
#119=EDGE_CURVE('',#154,#154,#178,.T.);
#120=EDGE_CURVE('',#155,#155,#179,.T.);
#121=EDGE_CURVE('',#156,#156,#180,.T.);
#122=EDGE_CURVE('',#157,#158,#181,.T.);
#123=EDGE_CURVE('',#157,#159,#182,.T.);
#124=EDGE_CURVE('',#159,#158,#183,.T.);
#125=EDGE_CURVE('',#147,#160,#184,.T.);
#126=EDGE_CURVE('',#161,#146,#185,.T.);
#127=EDGE_CURVE('',#161,#160,#186,.T.);
#128=EDGE_CURVE('',#162,#161,#30,.T.);
#129=EDGE_CURVE('',#162,#163,#187,.T.);
#130=EDGE_CURVE('',#160,#163,#31,.F.);
#131=EDGE_CURVE('',#163,#162,#188,.T.);
#132=EDGE_CURVE('',#164,#164,#189,.T.);
#133=EDGE_CURVE('',#165,#165,#190,.T.);
#134=EDGE_CURVE('',#166,#166,#191,.T.);
#135=EDGE_CURVE('',#167,#167,#192,.T.);
#136=EDGE_CURVE('',#168,#168,#193,.T.);
#137=EDGE_CURVE('',#169,#169,#194,.T.);
#138=EDGE_CURVE('',#170,#170,#195,.F.);
#139=EDGE_CURVE('',#159,#149,#12,.T.);
#140=EDGE_CURVE('',#158,#148,#13,.T.);
#141=EDGE_CURVE('',#171,#159,#32,.T.);
#142=EDGE_CURVE('',#171,#150,#196,.T.);
#143=EDGE_CURVE('',#172,#157,#33,.T.);
#144=EDGE_CURVE('',#172,#171,#197,.T.);
#145=EDGE_CURVE('',#151,#172,#198,.T.);
#146=VERTEX_POINT('',#462);
#147=VERTEX_POINT('',#463);
#148=VERTEX_POINT('',#465);
#149=VERTEX_POINT('',#467);
#150=VERTEX_POINT('',#469);
#151=VERTEX_POINT('',#471);
#152=VERTEX_POINT('',#475);
#153=VERTEX_POINT('',#477);
#154=VERTEX_POINT('',#480);
#155=VERTEX_POINT('',#482);
#156=VERTEX_POINT('',#485);
#157=VERTEX_POINT('',#488);
#158=VERTEX_POINT('',#489);
#159=VERTEX_POINT('',#491);
#160=VERTEX_POINT('',#495);
#161=VERTEX_POINT('',#497);
#162=VERTEX_POINT('',#501);
#163=VERTEX_POINT('',#503);
#164=VERTEX_POINT('',#508);
#165=VERTEX_POINT('',#511);
#166=VERTEX_POINT('',#514);
#167=VERTEX_POINT('',#517);
#168=VERTEX_POINT('',#520);
#169=VERTEX_POINT('',#523);
#170=VERTEX_POINT('',#526);
#171=VERTEX_POINT('',#546);
#172=VERTEX_POINT('',#550);
#173=CIRCLE('',#310,0.0325);
#174=CIRCLE('',#311,0.0325);
#175=CIRCLE('',#312,0.0325);
#176=CIRCLE('',#314,0.02);
#177=CIRCLE('',#315,0.0243);
#178=CIRCLE('',#317,0.019);
#179=CIRCLE('',#318,0.019);
#180=CIRCLE('',#320,0.0235);
#181=CIRCLE('',#322,0.0105);
#182=CIRCLE('',#323,0.0295);
#183=CIRCLE('',#324,0.0295);
#184=CIRCLE('',#326,0.0105);
#185=CIRCLE('',#327,0.0105);
#186=CIRCLE('',#328,0.03);
#187=CIRCLE('',#330,0.03);
#188=CIRCLE('',#332,0.0105);
#189=CIRCLE('',#333,0.0257071067811865);
#190=CIRCLE('',#335,0.025);
#191=CIRCLE('',#337,0.0242928932188135);
#192=CIRCLE('',#339,0.025);
#193=CIRCLE('',#341,0.025);
#194=CIRCLE('',#343,0.0248);
#195=CIRCLE('',#345,0.0248);
#196=CIRCLE('',#350,0.0105);
#197=CIRCLE('',#352,0.0295);
#198=CIRCLE('',#354,0.0105);
#199=EDGE_LOOP('',(#41,#42,#43,#44,#45,#46));
#200=EDGE_LOOP('',(#47));
#201=EDGE_LOOP('',(#48));
#202=EDGE_LOOP('',(#49));
#203=EDGE_LOOP('',(#50));
#204=EDGE_LOOP('',(#51));
#205=EDGE_LOOP('',(#52));
#206=EDGE_LOOP('',(#53,#54,#55));
#207=EDGE_LOOP('',(#56));
#208=EDGE_LOOP('',(#57,#58,#59,#60));
#209=EDGE_LOOP('',(#61,#62,#63,#64));
#210=EDGE_LOOP('',(#65,#66));
#211=EDGE_LOOP('',(#67));
#212=EDGE_LOOP('',(#68));
#213=EDGE_LOOP('',(#69));
#214=EDGE_LOOP('',(#70));
#215=EDGE_LOOP('',(#71));
#216=EDGE_LOOP('',(#72));
#217=EDGE_LOOP('',(#73));
#218=EDGE_LOOP('',(#74));
#219=EDGE_LOOP('',(#75));
#220=EDGE_LOOP('',(#76));
#221=EDGE_LOOP('',(#77));
#222=EDGE_LOOP('',(#78));
#223=EDGE_LOOP('',(#79));
#224=EDGE_LOOP('',(#80,#81,#82,#83));
#225=EDGE_LOOP('',(#84));
#226=EDGE_LOOP('',(#85));
#227=EDGE_LOOP('',(#86));
#228=EDGE_LOOP('',(#87));
#229=EDGE_LOOP('',(#88,#89,#90,#91));
#230=EDGE_LOOP('',(#92,#93,#94,#95));
#231=EDGE_LOOP('',(#96,#97,#98,#99,#100,#101,#102,#103,#104,#105,#106));
#232=EDGE_LOOP('',(#107,#108,#109,#110));
#233=FACE_BOUND('',#199,.T.);
#234=FACE_BOUND('',#200,.T.);
#235=FACE_BOUND('',#201,.T.);
#236=FACE_BOUND('',#202,.T.);
#237=FACE_BOUND('',#203,.T.);
#238=FACE_BOUND('',#204,.T.);
#239=FACE_BOUND('',#205,.T.);
#240=FACE_BOUND('',#206,.T.);
#241=FACE_BOUND('',#207,.T.);
#242=FACE_BOUND('',#208,.T.);
#243=FACE_BOUND('',#209,.T.);
#244=FACE_BOUND('',#210,.T.);
#245=FACE_BOUND('',#211,.T.);
#246=FACE_BOUND('',#212,.T.);
#247=FACE_BOUND('',#213,.T.);
#248=FACE_BOUND('',#214,.T.);
#249=FACE_BOUND('',#215,.T.);
#250=FACE_BOUND('',#216,.T.);
#251=FACE_BOUND('',#217,.T.);
#252=FACE_BOUND('',#218,.T.);
#253=FACE_BOUND('',#219,.T.);
#254=FACE_BOUND('',#220,.T.);
#255=FACE_BOUND('',#221,.T.);
#256=FACE_BOUND('',#222,.T.);
#257=FACE_BOUND('',#223,.T.);
#258=FACE_BOUND('',#224,.T.);
#259=FACE_BOUND('',#225,.T.);
#260=FACE_BOUND('',#226,.T.);
#261=FACE_BOUND('',#227,.T.);
#262=FACE_BOUND('',#228,.T.);
#263=FACE_BOUND('',#229,.T.);
#264=FACE_BOUND('',#230,.T.);
#265=FACE_BOUND('',#231,.T.);
#266=FACE_BOUND('',#232,.T.);
#267=CYLINDRICAL_SURFACE('',#309,0.0325);
#268=CYLINDRICAL_SURFACE('',#316,0.019);
#269=CYLINDRICAL_SURFACE('',#329,0.03);
#270=CYLINDRICAL_SURFACE('',#340,0.025);
#271=CYLINDRICAL_SURFACE('',#344,0.0248);
#272=CYLINDRICAL_SURFACE('',#349,0.0105);
#273=CYLINDRICAL_SURFACE('',#351,0.0295);
#274=CYLINDRICAL_SURFACE('',#353,0.0105);
#275=ADVANCED_FACE('',(#233),#267,.T.);
#276=ADVANCED_FACE('',(#234,#235),#21,.T.);
#277=ADVANCED_FACE('',(#236,#237),#268,.F.);
#278=ADVANCED_FACE('',(#238,#239),#15,.F.);
#279=ADVANCED_FACE('',(#240,#241),#22,.T.);
#280=ADVANCED_FACE('',(#242),#23,.T.);
#281=ADVANCED_FACE('',(#243),#269,.T.);
#282=ADVANCED_FACE('',(#244,#245),#24,.T.);
#283=ADVANCED_FACE('',(#246,#247),#16,.F.);
#284=ADVANCED_FACE('',(#248,#249),#17,.T.);
#285=ADVANCED_FACE('',(#250,#251),#18,.T.);
#286=ADVANCED_FACE('',(#252,#253),#270,.T.);
#287=ADVANCED_FACE('',(#254,#255),#25,.T.);
#288=ADVANCED_FACE('',(#256,#257),#271,.T.);
#289=ADVANCED_FACE('',(#258),#14,.T.);
#290=ADVANCED_FACE('',(#259,#260),#19,.T.);
#291=ADVANCED_FACE('',(#261,#262),#20,.F.);
#292=ADVANCED_FACE('',(#263),#272,.F.);
#293=ADVANCED_FACE('',(#264),#273,.T.);
#294=ADVANCED_FACE('',(#265),#274,.F.);
#295=ADVANCED_FACE('',(#266),#26,.T.);
#296=CLOSED_SHELL('',(#275,#276,#277,#278,#279,#280,#281,#282,#283,#284,
#285,#286,#287,#288,#289,#290,#291,#292,#293,#294,#295));
#297=STYLED_ITEM('',(#298),#305);
#298=PRESENTATION_STYLE_ASSIGNMENT((#299));
#299=SURFACE_STYLE_USAGE(.BOTH.,#300);
#300=SURFACE_SIDE_STYLE('',(#301));
#301=SURFACE_STYLE_FILL_AREA(#302);
#302=FILL_AREA_STYLE('',(#303));
#303=FILL_AREA_STYLE_COLOUR('',#304);
#304=COLOUR_RGB('',0.615686274509804,0.811764705882353,0.929411764705882);
#305=MANIFOLD_SOLID_BREP('Part 1',#296);
#306=SHAPE_DEFINITION_REPRESENTATION(#561,#307);
#307=SHAPE_REPRESENTATION('Part 1',(#308),#556);
#308=AXIS2_PLACEMENT_3D('',#459,#356,#357);
#309=AXIS2_PLACEMENT_3D('',#460,#358,#359);
#310=AXIS2_PLACEMENT_3D('',#461,#360,#361);
#311=AXIS2_PLACEMENT_3D('',#466,#363,#364);
#312=AXIS2_PLACEMENT_3D('',#470,#366,#367);
#313=AXIS2_PLACEMENT_3D('',#473,#369,#370);
#314=AXIS2_PLACEMENT_3D('',#474,#371,#372);
#315=AXIS2_PLACEMENT_3D('',#476,#373,#374);
#316=AXIS2_PLACEMENT_3D('',#478,#375,#376);
#317=AXIS2_PLACEMENT_3D('',#479,#377,#378);
#318=AXIS2_PLACEMENT_3D('',#481,#379,#380);
#319=AXIS2_PLACEMENT_3D('',#483,#381,#382);
#320=AXIS2_PLACEMENT_3D('',#484,#383,#384);
#321=AXIS2_PLACEMENT_3D('',#486,#385,#386);
#322=AXIS2_PLACEMENT_3D('',#487,#387,#388);
#323=AXIS2_PLACEMENT_3D('',#490,#389,#390);
#324=AXIS2_PLACEMENT_3D('',#492,#391,#392);
#325=AXIS2_PLACEMENT_3D('',#493,#393,#394);
#326=AXIS2_PLACEMENT_3D('',#494,#395,#396);
#327=AXIS2_PLACEMENT_3D('',#496,#397,#398);
#328=AXIS2_PLACEMENT_3D('',#498,#399,#400);
#329=AXIS2_PLACEMENT_3D('',#499,#401,#402);
#330=AXIS2_PLACEMENT_3D('',#502,#404,#405);
#331=AXIS2_PLACEMENT_3D('',#505,#407,#408);
#332=AXIS2_PLACEMENT_3D('',#506,#409,#410);
#333=AXIS2_PLACEMENT_3D('',#507,#411,#412);
#334=AXIS2_PLACEMENT_3D('',#509,#413,#414);
#335=AXIS2_PLACEMENT_3D('',#510,#415,#416);
#336=AXIS2_PLACEMENT_3D('',#512,#417,#418);
#337=AXIS2_PLACEMENT_3D('',#513,#419,#420);
#338=AXIS2_PLACEMENT_3D('',#515,#421,#422);
#339=AXIS2_PLACEMENT_3D('',#516,#423,#424);
#340=AXIS2_PLACEMENT_3D('',#518,#425,#426);
#341=AXIS2_PLACEMENT_3D('',#519,#427,#428);
#342=AXIS2_PLACEMENT_3D('',#521,#429,#430);
#343=AXIS2_PLACEMENT_3D('',#522,#431,#432);
#344=AXIS2_PLACEMENT_3D('',#524,#433,#434);
#345=AXIS2_PLACEMENT_3D('',#525,#435,#436);
#346=AXIS2_PLACEMENT_3D('',#527,#437,#438);
#347=AXIS2_PLACEMENT_3D('',#542,#439,#440);
#348=AXIS2_PLACEMENT_3D('',#543,#441,#442);
#349=AXIS2_PLACEMENT_3D('',#544,#443,#444);
#350=AXIS2_PLACEMENT_3D('',#547,#446,#447);
#351=AXIS2_PLACEMENT_3D('',#548,#448,#449);
#352=AXIS2_PLACEMENT_3D('',#551,#451,#452);
#353=AXIS2_PLACEMENT_3D('',#552,#453,#454);
#354=AXIS2_PLACEMENT_3D('',#553,#455,#456);
#355=AXIS2_PLACEMENT_3D('',#554,#457,#458);
#356=DIRECTION('',(0.,0.,1.));
#357=DIRECTION('',(1.,0.,0.));
#358=DIRECTION('',(0.,1.,0.));
#359=DIRECTION('',(0.,0.,1.));
#360=DIRECTION('',(0.,1.,0.));
#361=DIRECTION('',(0.,0.,1.));
#362=DIRECTION('',(0.,1.,0.));
#363=DIRECTION('',(0.,1.,0.));
#364=DIRECTION('',(0.,0.,1.));
#365=DIRECTION('',(0.,1.,0.));
#366=DIRECTION('',(0.,1.,0.));
#367=DIRECTION('',(0.,0.,1.));
#368=DIRECTION('',(0.,1.,0.));
#369=DIRECTION('',(0.,-1.,0.));
#370=DIRECTION('',(0.,0.,-1.));
#371=DIRECTION('',(0.,-1.,0.));
#372=DIRECTION('',(0.,0.,-1.));
#373=DIRECTION('',(0.,-1.,0.));
#374=DIRECTION('',(0.,0.,-1.));
#375=DIRECTION('',(0.,1.,0.));
#376=DIRECTION('',(0.,0.,1.));
#377=DIRECTION('',(0.,-1.,0.));
#378=DIRECTION('',(0.,0.,-1.));
#379=DIRECTION('',(0.,1.,0.));
#380=DIRECTION('',(0.,0.,1.));
#381=DIRECTION('',(0.,1.,0.));
#382=DIRECTION('',(0.,0.,1.));
#383=DIRECTION('',(0.,1.,0.));
#384=DIRECTION('',(0.,0.,1.));
#385=DIRECTION('',(0.,1.,0.));
#386=DIRECTION('',(0.,0.,1.));
#387=DIRECTION('',(0.,1.,0.));
#388=DIRECTION('',(0.,0.,1.));
#389=DIRECTION('',(0.,1.,0.));
#390=DIRECTION('',(0.,0.,1.));
#391=DIRECTION('',(0.,1.,0.));
#392=DIRECTION('',(0.,0.,1.));
#393=DIRECTION('',(0.,-1.,0.));
#394=DIRECTION('',(0.,0.,-1.));
#395=DIRECTION('',(0.,-1.,0.));
#396=DIRECTION('',(0.,0.,-1.));
#397=DIRECTION('',(0.,-1.,0.));
#398=DIRECTION('',(0.,0.,-1.));
#399=DIRECTION('',(0.,1.,0.));
#400=DIRECTION('',(0.,0.,1.));
#401=DIRECTION('',(0.,1.,0.));
#402=DIRECTION('',(0.,0.,1.));
#403=DIRECTION('',(0.,1.,0.));
#404=DIRECTION('',(0.,1.,0.));
#405=DIRECTION('',(0.,0.,1.));
#406=DIRECTION('',(0.,1.,0.));
#407=DIRECTION('',(0.,-1.,0.));
#408=DIRECTION('',(0.,0.,-1.));
#409=DIRECTION('',(0.,-1.,0.));
#410=DIRECTION('',(0.,0.,-1.));
#411=DIRECTION('',(0.,1.,0.));
#412=DIRECTION('',(0.,0.,1.));
#413=DIRECTION('',(0.,-1.,0.));
#414=DIRECTION('',(0.,0.,-1.));
#415=DIRECTION('',(0.,1.,0.));
#416=DIRECTION('',(0.,0.,1.));
#417=DIRECTION('',(0.,1.,0.));
#418=DIRECTION('',(0.,0.,1.));
#419=DIRECTION('',(0.,1.,0.));
#420=DIRECTION('',(0.,0.,1.));
#421=DIRECTION('',(0.,-1.,0.));
#422=DIRECTION('',(0.,0.,-1.));
#423=DIRECTION('',(0.,1.,0.));
#424=DIRECTION('',(0.,0.,1.));
#425=DIRECTION('',(0.,1.,0.));
#426=DIRECTION('',(0.,0.,1.));
#427=DIRECTION('',(0.,1.,0.));
#428=DIRECTION('',(0.,0.,1.));
#429=DIRECTION('',(0.,-1.,0.));
#430=DIRECTION('',(0.,0.,-1.));
#431=DIRECTION('',(0.,1.,0.));
#432=DIRECTION('',(0.,0.,1.));
#433=DIRECTION('',(0.,1.,0.));
#434=DIRECTION('',(0.,0.,1.));
#435=DIRECTION('',(0.,-1.,0.));
#436=DIRECTION('',(0.,0.,-1.));
#437=DIRECTION('',(0.,1.,0.));
#438=DIRECTION('',(0.,0.,1.));
#439=DIRECTION('',(0.,1.,0.));
#440=DIRECTION('',(0.,0.,1.));
#441=DIRECTION('',(0.,-1.,0.));
#442=DIRECTION('',(0.,0.,-1.));
#443=DIRECTION('',(0.,1.,0.));
#444=DIRECTION('',(0.,0.,1.));
#445=DIRECTION('',(0.,1.,0.));
#446=DIRECTION('',(0.,-1.,0.));
#447=DIRECTION('',(0.,0.,1.));
#448=DIRECTION('',(0.,1.,0.));
#449=DIRECTION('',(0.,0.,1.));
#450=DIRECTION('',(0.,1.,0.));
#451=DIRECTION('',(0.,1.,0.));
#452=DIRECTION('',(0.,0.,1.));
#453=DIRECTION('',(0.,1.,0.));
#454=DIRECTION('',(0.,0.,1.));
#455=DIRECTION('',(0.,1.,0.));
#456=DIRECTION('',(0.,0.,1.));
#457=DIRECTION('',(0.,1.,0.));
#458=DIRECTION('',(-1.,0.,0.));
#459=CARTESIAN_POINT('',(0.,0.,0.));
#460=CARTESIAN_POINT('',(0.,-2.77555756156289E-17,0.));
#461=CARTESIAN_POINT('',(0.,0.042,0.));
#462=CARTESIAN_POINT('',(-0.0310026411502302,0.042,-0.00975121744758323));
#463=CARTESIAN_POINT('',(-0.0239461226025483,0.042,-0.0219734660967206));
#464=CARTESIAN_POINT('',(-0.0239461226025482,0.045,-0.0219734660967204));
#465=CARTESIAN_POINT('',(-0.0239461226025482,0.053,-0.0219734660967204));
#466=CARTESIAN_POINT('',(0.,0.053,0.));
#467=CARTESIAN_POINT('',(-0.0317246835443038,0.053,0.00705651854768197));
#468=CARTESIAN_POINT('',(-0.0317246835443038,0.045,0.00705651854768197));
#469=CARTESIAN_POINT('',(-0.0317246835443038,0.045,0.00705651854768197));
#470=CARTESIAN_POINT('',(-5.20417042793042E-18,0.045,8.23993651088983E-18));
#471=CARTESIAN_POINT('',(-0.0310026411502302,0.045,-0.00975121744758322));
#472=CARTESIAN_POINT('',(-0.0310026411502302,-0.0516482831524174,-0.00975121744758323));
#473=CARTESIAN_POINT('',(-0.0219,0.,0.));
#474=CARTESIAN_POINT('',(0.,0.,0.));
#475=CARTESIAN_POINT('',(0.,0.,-0.02));
#476=CARTESIAN_POINT('',(0.,0.,0.));
#477=CARTESIAN_POINT('',(0.,0.,-0.0243));
#478=CARTESIAN_POINT('',(0.,-2.77555756156289E-17,0.));
#479=CARTESIAN_POINT('',(0.,0.001,0.));
#480=CARTESIAN_POINT('',(0.,0.001,-0.019));
#481=CARTESIAN_POINT('',(0.,0.0534019237886467,0.));
#482=CARTESIAN_POINT('',(0.,0.0534019237886467,0.019));
#483=CARTESIAN_POINT('',(0.,0.0534019237886467,0.));
#484=CARTESIAN_POINT('',(0.,0.056,0.));
#485=CARTESIAN_POINT('',(0.,0.056,0.0235));
#486=CARTESIAN_POINT('',(-0.028,0.056,0.));
#487=CARTESIAN_POINT('',(-0.0342080034494854,0.056,-0.01975));
#488=CARTESIAN_POINT('',(-0.0268172526660907,0.056,-0.0122916621920329));
#489=CARTESIAN_POINT('',(-0.0240535180460826,0.056,-0.0170785909725241));
#490=CARTESIAN_POINT('',(0.,0.056,0.));
#491=CARTESIAN_POINT('',(-0.029370253164557,0.056,0.00276373462000814));
#492=CARTESIAN_POINT('',(0.,0.056,0.));
#493=CARTESIAN_POINT('',(-0.03125,0.042,0.));
#494=CARTESIAN_POINT('',(-0.0342080034494854,0.042,-0.01975));
#495=CARTESIAN_POINT('',(-0.0238169213156463,0.042,-0.0182415530875063));
#496=CARTESIAN_POINT('',(-0.0342080034494854,0.042,-0.01975));
#497=CARTESIAN_POINT('',(-0.0277061090360861,0.042,-0.0115052823555316));
#498=CARTESIAN_POINT('',(0.,0.042,0.));
#499=CARTESIAN_POINT('',(0.,-2.77555756156289E-17,0.));
#500=CARTESIAN_POINT('',(-0.0277061090360861,0.00217585842379128,-0.0115052823555316));
#501=CARTESIAN_POINT('',(-0.0277061090360861,0.04,-0.0115052823555316));
#502=CARTESIAN_POINT('',(0.,0.04,0.));
#503=CARTESIAN_POINT('',(-0.0238169213156463,0.04,-0.0182415530875063));
#504=CARTESIAN_POINT('',(-0.0238169213156463,0.00217585842379128,-0.0182415530875063));
#505=CARTESIAN_POINT('',(-0.0278535533905933,0.04,0.));
#506=CARTESIAN_POINT('',(-0.0342080034494854,0.04,-0.01975));
#507=CARTESIAN_POINT('',(0.,0.04,0.));
#508=CARTESIAN_POINT('',(0.,0.04,0.0257071067811865));
#509=CARTESIAN_POINT('',(0.,0.04,0.));
#510=CARTESIAN_POINT('',(0.,0.0407071067811865,0.));
#511=CARTESIAN_POINT('',(0.,0.0407071067811865,0.025));
#512=CARTESIAN_POINT('',(0.,0.0407071067811865,0.));
#513=CARTESIAN_POINT('',(0.,0.04,0.));
#514=CARTESIAN_POINT('',(0.,0.04,0.0242928932188135));
#515=CARTESIAN_POINT('',(0.,0.04,0.));
#516=CARTESIAN_POINT('',(0.,0.0392928932188134,0.));
#517=CARTESIAN_POINT('',(0.,0.0392928932188134,0.025));
#518=CARTESIAN_POINT('',(0.,-2.77555756156289E-17,0.));
#519=CARTESIAN_POINT('',(0.,0.004,0.));
#520=CARTESIAN_POINT('',(0.,0.004,0.025));
#521=CARTESIAN_POINT('',(-0.0249,0.004,0.));
#522=CARTESIAN_POINT('',(0.,0.004,0.));
#523=CARTESIAN_POINT('',(0.,0.004,0.0248));
#524=CARTESIAN_POINT('',(0.,-2.77555756156289E-17,0.));
#525=CARTESIAN_POINT('',(0.,0.0005,0.));
#526=CARTESIAN_POINT('',(0.,0.0005,-0.0248));
#527=CARTESIAN_POINT('',(0.,0.053,0.));
#528=CARTESIAN_POINT('',(-0.0293702531645563,0.0560000000000003,0.00276373462000844));
#529=CARTESIAN_POINT('',(-0.0295125753988143,0.0560000000000004,0.00328537956798997));
#530=CARTESIAN_POINT('',(-0.029872824701656,0.0559661878672971,0.00429360408998149));
#531=CARTESIAN_POINT('',(-0.030637467523309,0.0556006229433031,0.00570144906020751));
#532=CARTESIAN_POINT('',(-0.0314645916701238,0.0546094166477397,0.00678333363430275));
#533=CARTESIAN_POINT('',(-0.0317246835443038,0.0535472162521096,0.00705651854768198));
#534=CARTESIAN_POINT('',(-0.0317246835443038,0.053,0.00705651854768198));
#535=CARTESIAN_POINT('',(-0.0240535180460818,0.0560000000000003,-0.017078590972524));
#536=CARTESIAN_POINT('',(-0.023915950241584,0.0560000000000004,-0.0176015098697739));
#537=CARTESIAN_POINT('',(-0.0237238230293881,0.0559661878666267,-0.0186547825699025));
#538=CARTESIAN_POINT('',(-0.0236821006526969,0.0556006229437117,-0.0202563334840711));
#539=CARTESIAN_POINT('',(-0.0238574688887152,0.0546094166492614,-0.0216068350843143));
#540=CARTESIAN_POINT('',(-0.0239461226025483,0.0535472162514677,-0.0219734660967205));
#541=CARTESIAN_POINT('',(-0.0239461226025483,0.053,-0.0219734660967205));
#542=CARTESIAN_POINT('',(0.,0.0005,0.));
#543=CARTESIAN_POINT('',(0.,0.,0.));
#544=CARTESIAN_POINT('',(-0.0395,0.045,2.09258700558159E-19));
#545=CARTESIAN_POINT('',(-0.029370253164557,0.045,0.00276373462000814));
#546=CARTESIAN_POINT('',(-0.029370253164557,0.045,0.00276373462000814));
#547=CARTESIAN_POINT('',(-0.0395,0.045,2.09258700558159E-19));
#548=CARTESIAN_POINT('',(0.,0.045,0.));
#549=CARTESIAN_POINT('',(-0.0268172526660907,0.00217585842379128,-0.0122916621920329));
#550=CARTESIAN_POINT('',(-0.0268172526660907,0.045,-0.0122916621920329));
#551=CARTESIAN_POINT('',(0.,0.045,0.));
#552=CARTESIAN_POINT('',(-0.0342080034494854,0.045,-0.01975));
#553=CARTESIAN_POINT('',(-0.0342080034494854,0.045,-0.01975));
#554=CARTESIAN_POINT('',(-0.00690063509461097,0.045,-0.01025));
#555=MECHANICAL_DESIGN_GEOMETRIC_PRESENTATION_REPRESENTATION('',(#297),
#556);
#556=(
GEOMETRIC_REPRESENTATION_CONTEXT(3)
GLOBAL_UNCERTAINTY_ASSIGNED_CONTEXT((#557))
GLOBAL_UNIT_ASSIGNED_CONTEXT((#560,#559,#558))
REPRESENTATION_CONTEXT('Part 1','TOP_LEVEL_ASSEMBLY_PART')
);
#557=UNCERTAINTY_MEASURE_WITH_UNIT(LENGTH_MEASURE(2.E-5),#560,
'DISTANCE_ACCURACY_VALUE','Maximum Tolerance applied to model');
#558=(
NAMED_UNIT(*)
SI_UNIT($,.STERADIAN.)
SOLID_ANGLE_UNIT()
);
#559=(
NAMED_UNIT(*)
PLANE_ANGLE_UNIT()
SI_UNIT($,.RADIAN.)
);
#560=(
LENGTH_UNIT()
NAMED_UNIT(*)
SI_UNIT($,.METRE.)
);
#561=PRODUCT_DEFINITION_SHAPE('','',#562);
#562=PRODUCT_DEFINITION('','',#564,#563);
#563=PRODUCT_DEFINITION_CONTEXT('',#570,'design');
#564=PRODUCT_DEFINITION_FORMATION_WITH_SPECIFIED_SOURCE('','',#566,
 .NOT_KNOWN.);
#565=PRODUCT_RELATED_PRODUCT_CATEGORY('','',(#566));
#566=PRODUCT('Part 1','Part 1','Part 1',(#568));
#567=PRODUCT_CATEGORY('','');
#568=PRODUCT_CONTEXT('',#570,'mechanical');
#569=APPLICATION_PROTOCOL_DEFINITION('international standard',
'ap242_managed_model_based_3d_engineering',2020,#570);
#570=APPLICATION_CONTEXT('managed model based 3d engineering');
ENDSEC;
END-ISO-10303-21;
