ISO-10303-21;
HEADER;
/* Generated by software containing ST-Developer
 * from STEP Tools, Inc. (www.steptools.com) 
 */
/* OPTION: using custom renumber hook */

FILE_DESCRIPTION(
/* description */ ('STEP AP242 Edition 2',
'CAx-IF Rec.Pracs.---Representation and Presentation of Product Manufa
cturing Information (PMI)---4.0---2014-10-13',
'CAx-IF Rec.Pracs.---3D Tessellated Geometry---0.4---2014-09-14','2;1',
'CAx-IF Rec.Pracs.---User Defined Attributes---1.5---2016-08-15'),
/* implementation_level */ '2;1');

FILE_NAME(
/* name */ 'Part Studio 1',
/* time_stamp */ '2026-07-19T16:55:11Z',
/* author */ (''),
/* organization */ (''),
/* preprocessor_version */ 'ST-DEVELOPER v20',
/* originating_system */ 'ONSHAPE BY PTC INC, 1.218',
/* authorisation */ '  ');

FILE_SCHEMA (('AP242_MANAGED_MODEL_BASED_3D_ENGINEERING_MIM_LF { 1 0 10303 442 3 1 4 }'));
ENDSEC;

DATA;
#10=SHAPE_REPRESENTATION_RELATIONSHIP('','',#568,#11);
#11=ADVANCED_BREP_SHAPE_REPRESENTATION('',(#566),#1059);
#12=TOROIDAL_SURFACE('',#631,0.033,0.003);
#13=ELLIPSE('',#628,0.00424264068711928,0.003);
#14=ELLIPSE('',#634,0.00424264068711928,0.003);
#15=SPHERICAL_SURFACE('',#624,0.003);
#16=SPHERICAL_SURFACE('',#635,0.003);
#17=(
BOUNDED_SURFACE()
B_SPLINE_SURFACE(3,2,((#998,#999,#1000),(#1001,#1002,#1003),(#1004,#1005,
#1006),(#1007,#1008,#1009),(#1010,#1011,#1012),(#1013,#1014,#1015),(#1016,
#1017,#1018),(#1019,#1020,#1021),(#1022,#1023,#1024),(#1025,#1026,#1027),
(#1028,#1029,#1030),(#1031,#1032,#1033),(#1034,#1035,#1036),(#1037,#1038,
#1039),(#1040,#1041,#1042)),.UNSPECIFIED.,.F.,.F.,.F.)
B_SPLINE_SURFACE_WITH_KNOTS((4,1,1,1,1,1,1,1,1,1,1,1,4),(3,3),(3.46944695195361E-18,
0.00358934578243214,0.00717869156486428,0.0143573831297286,0.0179467289121607,
0.0215360746945928,0.025125420477025,0.0287147662594571,0.0323041120418893,
0.0358934578243214,0.0430721493891857,0.0502508409540499,0.0574295325189142),
(0.,1.),.UNSPECIFIED.)
GEOMETRIC_REPRESENTATION_ITEM()
RATIONAL_B_SPLINE_SURFACE(((1.,0.879049072991532,1.),(1.,0.879049072977624,
1.),(1.,0.874861013580034,1.),(1.,0.850972892725541,1.),(1.,0.809511936820559,
1.),(1.,0.764405949646619,1.),(1.,0.734305348966873,1.),(1.,0.712408879930512,
1.),(1.,0.704489811984574,1.),(1.,0.712275794412856,1.),(1.,0.741260397463052,
1.),(1.,0.799019194710304,1.),(1.,0.861345218514307,1.),(1.,0.879049072968555,
1.),(1.,0.879049072991533,1.)))
REPRESENTATION_ITEM('')
SURFACE()
);
#18=PLANE('',#573);
#19=PLANE('',#577);
#20=PLANE('',#581);
#21=PLANE('',#585);
#22=PLANE('',#589);
#23=PLANE('',#602);
#24=PLANE('',#604);
#25=PLANE('',#609);
#26=PLANE('',#612);
#27=PLANE('',#617);
#28=PLANE('',#618);
#29=PLANE('',#619);
#30=CIRCLE('',#571,0.03);
#31=CIRCLE('',#572,0.03);
#32=CIRCLE('',#575,0.015);
#33=CIRCLE('',#576,0.015);
#34=CIRCLE('',#579,0.015);
#35=CIRCLE('',#580,0.015);
#36=CIRCLE('',#583,0.015);
#37=CIRCLE('',#584,0.015);
#38=CIRCLE('',#587,0.015);
#39=CIRCLE('',#588,0.015);
#40=CIRCLE('',#591,0.0075);
#41=CIRCLE('',#592,0.0075);
#42=CIRCLE('',#594,0.0075);
#43=CIRCLE('',#595,0.0075);
#44=CIRCLE('',#597,0.015);
#45=CIRCLE('',#598,0.015);
#46=CIRCLE('',#600,0.0075);
#47=CIRCLE('',#601,0.0075);
#48=CIRCLE('',#603,0.033);
#49=CIRCLE('',#605,0.015);
#50=CIRCLE('',#607,0.02);
#51=CIRCLE('',#608,0.02);
#52=CIRCLE('',#611,0.015);
#53=CIRCLE('',#614,0.015);
#54=CIRCLE('',#616,0.008);
#55=CIRCLE('',#621,0.003);
#56=CIRCLE('',#622,0.003);
#57=CIRCLE('',#623,0.003);
#58=CIRCLE('',#625,0.003);
#59=CIRCLE('',#626,0.003);
#60=CIRCLE('',#630,0.003);
#61=CIRCLE('',#632,0.003);
#62=CIRCLE('',#636,0.003);
#63=LINE('',#830,#97);
#64=LINE('',#834,#98);
#65=LINE('',#838,#99);
#66=LINE('',#841,#100);
#67=LINE('',#843,#101);
#68=LINE('',#845,#102);
#69=LINE('',#849,#103);
#70=LINE('',#853,#104);
#71=LINE('',#855,#105);
#72=LINE('',#857,#106);
#73=LINE('',#861,#107);
#74=LINE('',#865,#108);
#75=LINE('',#867,#109);
#76=LINE('',#869,#110);
#77=LINE('',#873,#111);
#78=LINE('',#877,#112);
#79=LINE('',#879,#113);
#80=LINE('',#881,#114);
#81=LINE('',#885,#115);
#82=LINE('',#889,#116);
#83=LINE('',#891,#117);
#84=LINE('',#893,#118);
#85=LINE('',#916,#119);
#86=LINE('',#918,#120);
#87=LINE('',#920,#121);
#88=LINE('',#956,#122);
#89=LINE('',#975,#123);
#90=LINE('',#982,#124);
#91=LINE('',#984,#125);
#92=LINE('',#986,#126);
#93=LINE('',#988,#127);
#94=LINE('',#990,#128);
#95=LINE('',#992,#129);
#96=LINE('',#994,#130);
#97=VECTOR('',#642,1.);
#98=VECTOR('',#645,1.);
#99=VECTOR('',#650,1.);
#100=VECTOR('',#651,1.);
#101=VECTOR('',#652,1.);
#102=VECTOR('',#653,1.);
#103=VECTOR('',#658,1.);
#104=VECTOR('',#663,1.);
#105=VECTOR('',#664,1.);
#106=VECTOR('',#665,1.);
#107=VECTOR('',#670,1.);
#108=VECTOR('',#675,1.);
#109=VECTOR('',#676,1.);
#110=VECTOR('',#677,1.);
#111=VECTOR('',#682,1.);
#112=VECTOR('',#687,1.);
#113=VECTOR('',#688,1.);
#114=VECTOR('',#689,1.);
#115=VECTOR('',#694,1.);
#116=VECTOR('',#699,1.);
#117=VECTOR('',#700,1.);
#118=VECTOR('',#701,1.);
#119=VECTOR('',#730,1.);
#120=VECTOR('',#731,1.);
#121=VECTOR('',#732,1.);
#122=VECTOR('',#753,1.);
#123=VECTOR('',#754,1.);
#124=VECTOR('',#763,1.);
#125=VECTOR('',#764,1.);
#126=VECTOR('',#765,1.);
#127=VECTOR('',#768,1.);
#128=VECTOR('',#769,1.);
#129=VECTOR('',#770,1.);
#130=VECTOR('',#773,1.);
#131=ORIENTED_EDGE('',*,*,#275,.T.);
#132=ORIENTED_EDGE('',*,*,#276,.T.);
#133=ORIENTED_EDGE('',*,*,#277,.T.);
#134=ORIENTED_EDGE('',*,*,#278,.T.);
#135=ORIENTED_EDGE('',*,*,#279,.F.);
#136=ORIENTED_EDGE('',*,*,#280,.F.);
#137=ORIENTED_EDGE('',*,*,#281,.F.);
#138=ORIENTED_EDGE('',*,*,#282,.T.);
#139=ORIENTED_EDGE('',*,*,#283,.T.);
#140=ORIENTED_EDGE('',*,*,#284,.T.);
#141=ORIENTED_EDGE('',*,*,#285,.F.);
#142=ORIENTED_EDGE('',*,*,#286,.F.);
#143=ORIENTED_EDGE('',*,*,#281,.T.);
#144=ORIENTED_EDGE('',*,*,#287,.T.);
#145=ORIENTED_EDGE('',*,*,#288,.F.);
#146=ORIENTED_EDGE('',*,*,#289,.F.);
#147=ORIENTED_EDGE('',*,*,#285,.T.);
#148=ORIENTED_EDGE('',*,*,#290,.T.);
#149=ORIENTED_EDGE('',*,*,#291,.F.);
#150=ORIENTED_EDGE('',*,*,#292,.F.);
#151=ORIENTED_EDGE('',*,*,#288,.T.);
#152=ORIENTED_EDGE('',*,*,#293,.F.);
#153=ORIENTED_EDGE('',*,*,#294,.F.);
#154=ORIENTED_EDGE('',*,*,#295,.T.);
#155=ORIENTED_EDGE('',*,*,#291,.T.);
#156=ORIENTED_EDGE('',*,*,#296,.T.);
#157=ORIENTED_EDGE('',*,*,#297,.F.);
#158=ORIENTED_EDGE('',*,*,#298,.F.);
#159=ORIENTED_EDGE('',*,*,#294,.T.);
#160=ORIENTED_EDGE('',*,*,#299,.F.);
#161=ORIENTED_EDGE('',*,*,#300,.F.);
#162=ORIENTED_EDGE('',*,*,#301,.T.);
#163=ORIENTED_EDGE('',*,*,#297,.T.);
#164=ORIENTED_EDGE('',*,*,#302,.T.);
#165=ORIENTED_EDGE('',*,*,#303,.F.);
#166=ORIENTED_EDGE('',*,*,#304,.F.);
#167=ORIENTED_EDGE('',*,*,#300,.T.);
#168=ORIENTED_EDGE('',*,*,#305,.F.);
#169=ORIENTED_EDGE('',*,*,#306,.F.);
#170=ORIENTED_EDGE('',*,*,#307,.T.);
#171=ORIENTED_EDGE('',*,*,#303,.T.);
#172=ORIENTED_EDGE('',*,*,#308,.T.);
#173=ORIENTED_EDGE('',*,*,#309,.F.);
#174=ORIENTED_EDGE('',*,*,#310,.T.);
#175=ORIENTED_EDGE('',*,*,#311,.F.);
#176=ORIENTED_EDGE('',*,*,#312,.T.);
#177=ORIENTED_EDGE('',*,*,#283,.F.);
#178=ORIENTED_EDGE('',*,*,#313,.F.);
#179=ORIENTED_EDGE('',*,*,#306,.T.);
#180=ORIENTED_EDGE('',*,*,#314,.T.);
#181=ORIENTED_EDGE('',*,*,#315,.F.);
#182=ORIENTED_EDGE('',*,*,#316,.T.);
#183=ORIENTED_EDGE('',*,*,#317,.T.);
#184=ORIENTED_EDGE('',*,*,#318,.T.);
#185=ORIENTED_EDGE('',*,*,#319,.T.);
#186=ORIENTED_EDGE('',*,*,#282,.F.);
#187=ORIENTED_EDGE('',*,*,#286,.T.);
#188=ORIENTED_EDGE('',*,*,#289,.T.);
#189=ORIENTED_EDGE('',*,*,#292,.T.);
#190=ORIENTED_EDGE('',*,*,#295,.F.);
#191=ORIENTED_EDGE('',*,*,#298,.T.);
#192=ORIENTED_EDGE('',*,*,#301,.F.);
#193=ORIENTED_EDGE('',*,*,#304,.T.);
#194=ORIENTED_EDGE('',*,*,#307,.F.);
#195=ORIENTED_EDGE('',*,*,#313,.T.);
#196=ORIENTED_EDGE('',*,*,#310,.F.);
#197=ORIENTED_EDGE('',*,*,#308,.F.);
#198=ORIENTED_EDGE('',*,*,#314,.F.);
#199=ORIENTED_EDGE('',*,*,#320,.T.);
#200=ORIENTED_EDGE('',*,*,#280,.T.);
#201=ORIENTED_EDGE('',*,*,#312,.F.);
#202=ORIENTED_EDGE('',*,*,#305,.T.);
#203=ORIENTED_EDGE('',*,*,#302,.F.);
#204=ORIENTED_EDGE('',*,*,#299,.T.);
#205=ORIENTED_EDGE('',*,*,#296,.F.);
#206=ORIENTED_EDGE('',*,*,#293,.T.);
#207=ORIENTED_EDGE('',*,*,#290,.F.);
#208=ORIENTED_EDGE('',*,*,#287,.F.);
#209=ORIENTED_EDGE('',*,*,#284,.F.);
#210=ORIENTED_EDGE('',*,*,#311,.T.);
#211=ORIENTED_EDGE('',*,*,#309,.T.);
#212=ORIENTED_EDGE('',*,*,#315,.T.);
#213=ORIENTED_EDGE('',*,*,#321,.F.);
#214=ORIENTED_EDGE('',*,*,#322,.T.);
#215=ORIENTED_EDGE('',*,*,#322,.F.);
#216=ORIENTED_EDGE('',*,*,#279,.T.);
#217=ORIENTED_EDGE('',*,*,#323,.F.);
#218=ORIENTED_EDGE('',*,*,#324,.T.);
#219=ORIENTED_EDGE('',*,*,#320,.F.);
#220=ORIENTED_EDGE('',*,*,#324,.F.);
#221=ORIENTED_EDGE('',*,*,#321,.T.);
#222=ORIENTED_EDGE('',*,*,#325,.T.);
#223=ORIENTED_EDGE('',*,*,#326,.T.);
#224=ORIENTED_EDGE('',*,*,#327,.F.);
#225=ORIENTED_EDGE('',*,*,#328,.F.);
#226=ORIENTED_EDGE('',*,*,#329,.T.);
#227=ORIENTED_EDGE('',*,*,#323,.T.);
#228=ORIENTED_EDGE('',*,*,#330,.T.);
#229=ORIENTED_EDGE('',*,*,#331,.T.);
#230=ORIENTED_EDGE('',*,*,#332,.T.);
#231=ORIENTED_EDGE('',*,*,#325,.F.);
#232=ORIENTED_EDGE('',*,*,#333,.T.);
#233=ORIENTED_EDGE('',*,*,#334,.T.);
#234=ORIENTED_EDGE('',*,*,#335,.F.);
#235=ORIENTED_EDGE('',*,*,#327,.T.);
#236=ORIENTED_EDGE('',*,*,#329,.F.);
#237=ORIENTED_EDGE('',*,*,#335,.T.);
#238=ORIENTED_EDGE('',*,*,#336,.T.);
#239=ORIENTED_EDGE('',*,*,#330,.F.);
#240=ORIENTED_EDGE('',*,*,#328,.T.);
#241=ORIENTED_EDGE('',*,*,#337,.F.);
#242=ORIENTED_EDGE('',*,*,#333,.F.);
#243=ORIENTED_EDGE('',*,*,#338,.F.);
#244=ORIENTED_EDGE('',*,*,#278,.F.);
#245=ORIENTED_EDGE('',*,*,#338,.T.);
#246=ORIENTED_EDGE('',*,*,#326,.F.);
#247=ORIENTED_EDGE('',*,*,#339,.F.);
#248=ORIENTED_EDGE('',*,*,#275,.F.);
#249=ORIENTED_EDGE('',*,*,#340,.F.);
#250=ORIENTED_EDGE('',*,*,#341,.F.);
#251=ORIENTED_EDGE('',*,*,#337,.T.);
#252=ORIENTED_EDGE('',*,*,#341,.T.);
#253=ORIENTED_EDGE('',*,*,#319,.F.);
#254=ORIENTED_EDGE('',*,*,#342,.F.);
#255=ORIENTED_EDGE('',*,*,#334,.F.);
#256=ORIENTED_EDGE('',*,*,#339,.T.);
#257=ORIENTED_EDGE('',*,*,#332,.F.);
#258=ORIENTED_EDGE('',*,*,#343,.F.);
#259=ORIENTED_EDGE('',*,*,#276,.F.);
#260=ORIENTED_EDGE('',*,*,#340,.T.);
#261=ORIENTED_EDGE('',*,*,#277,.F.);
#262=ORIENTED_EDGE('',*,*,#344,.F.);
#263=ORIENTED_EDGE('',*,*,#316,.F.);
#264=ORIENTED_EDGE('',*,*,#342,.T.);
#265=ORIENTED_EDGE('',*,*,#318,.F.);
#266=ORIENTED_EDGE('',*,*,#345,.F.);
#267=ORIENTED_EDGE('',*,*,#336,.F.);
#268=ORIENTED_EDGE('',*,*,#344,.T.);
#269=ORIENTED_EDGE('',*,*,#343,.T.);
#270=ORIENTED_EDGE('',*,*,#346,.F.);
#271=ORIENTED_EDGE('',*,*,#345,.T.);
#272=ORIENTED_EDGE('',*,*,#317,.F.);
#273=ORIENTED_EDGE('',*,*,#346,.T.);
#274=ORIENTED_EDGE('',*,*,#331,.F.);
#275=EDGE_CURVE('',#347,#348,#396,.T.);
#276=EDGE_CURVE('',#348,#349,#63,.T.);
#277=EDGE_CURVE('',#349,#350,#30,.T.);
#278=EDGE_CURVE('',#350,#347,#64,.F.);
#279=EDGE_CURVE('',#351,#351,#31,.T.);
#280=EDGE_CURVE('',#352,#353,#65,.T.);
#281=EDGE_CURVE('',#354,#352,#66,.T.);
#282=EDGE_CURVE('',#354,#355,#67,.T.);
#283=EDGE_CURVE('',#355,#353,#68,.T.);
#284=EDGE_CURVE('',#352,#356,#32,.T.);
#285=EDGE_CURVE('',#357,#356,#69,.T.);
#286=EDGE_CURVE('',#354,#357,#33,.T.);
#287=EDGE_CURVE('',#356,#358,#70,.T.);
#288=EDGE_CURVE('',#359,#358,#71,.T.);
#289=EDGE_CURVE('',#357,#359,#72,.T.);
#290=EDGE_CURVE('',#358,#360,#34,.T.);
#291=EDGE_CURVE('',#361,#360,#73,.T.);
#292=EDGE_CURVE('',#359,#361,#35,.T.);
#293=EDGE_CURVE('',#362,#360,#74,.T.);
#294=EDGE_CURVE('',#363,#362,#75,.T.);
#295=EDGE_CURVE('',#363,#361,#76,.T.);
#296=EDGE_CURVE('',#362,#364,#36,.T.);
#297=EDGE_CURVE('',#365,#364,#77,.T.);
#298=EDGE_CURVE('',#363,#365,#37,.T.);
#299=EDGE_CURVE('',#366,#364,#78,.T.);
#300=EDGE_CURVE('',#367,#366,#79,.T.);
#301=EDGE_CURVE('',#367,#365,#80,.T.);
#302=EDGE_CURVE('',#366,#368,#38,.T.);
#303=EDGE_CURVE('',#369,#368,#81,.T.);
#304=EDGE_CURVE('',#367,#369,#39,.T.);
#305=EDGE_CURVE('',#370,#368,#82,.T.);
#306=EDGE_CURVE('',#371,#370,#83,.T.);
#307=EDGE_CURVE('',#371,#369,#84,.T.);
#308=EDGE_CURVE('',#372,#372,#40,.T.);
#309=EDGE_CURVE('',#373,#373,#41,.T.);
#310=EDGE_CURVE('',#374,#374,#42,.T.);
#311=EDGE_CURVE('',#375,#375,#43,.T.);
#312=EDGE_CURVE('',#370,#353,#44,.T.);
#313=EDGE_CURVE('',#371,#355,#45,.T.);
#314=EDGE_CURVE('',#376,#376,#46,.T.);
#315=EDGE_CURVE('',#377,#377,#47,.T.);
#316=EDGE_CURVE('',#378,#379,#48,.F.);
#317=EDGE_CURVE('',#379,#380,#85,.F.);
#318=EDGE_CURVE('',#380,#381,#86,.F.);
#319=EDGE_CURVE('',#381,#378,#87,.T.);
#320=EDGE_CURVE('',#382,#382,#49,.T.);
#321=EDGE_CURVE('',#383,#383,#50,.T.);
#322=EDGE_CURVE('',#384,#384,#51,.T.);
#323=EDGE_CURVE('',#385,#385,#397,.T.);
#324=EDGE_CURVE('',#386,#386,#52,.T.);
#325=EDGE_CURVE('',#387,#388,#88,.T.);
#326=EDGE_CURVE('',#388,#389,#398,.T.);
#327=EDGE_CURVE('',#390,#389,#89,.T.);
#328=EDGE_CURVE('',#387,#390,#53,.T.);
#329=EDGE_CURVE('',#391,#391,#54,.T.);
#330=EDGE_CURVE('',#387,#392,#90,.T.);
#331=EDGE_CURVE('',#392,#393,#91,.T.);
#332=EDGE_CURVE('',#393,#388,#92,.F.);
#333=EDGE_CURVE('',#389,#394,#93,.F.);
#334=EDGE_CURVE('',#394,#395,#94,.F.);
#335=EDGE_CURVE('',#390,#395,#95,.T.);
#336=EDGE_CURVE('',#395,#392,#96,.T.);
#337=EDGE_CURVE('',#394,#350,#55,.T.);
#338=EDGE_CURVE('',#347,#389,#56,.T.);
#339=EDGE_CURVE('',#348,#388,#57,.T.);
#340=EDGE_CURVE('',#378,#350,#58,.F.);
#341=EDGE_CURVE('',#394,#378,#59,.F.);
#342=EDGE_CURVE('',#395,#381,#13,.T.);
#343=EDGE_CURVE('',#349,#393,#60,.T.);
#344=EDGE_CURVE('',#379,#349,#61,.T.);
#345=EDGE_CURVE('',#392,#380,#14,.T.);
#346=EDGE_CURVE('',#379,#393,#62,.F.);
#347=VERTEX_POINT('',#828);
#348=VERTEX_POINT('',#829);
#349=VERTEX_POINT('',#831);
#350=VERTEX_POINT('',#833);
#351=VERTEX_POINT('',#836);
#352=VERTEX_POINT('',#839);
#353=VERTEX_POINT('',#840);
#354=VERTEX_POINT('',#842);
#355=VERTEX_POINT('',#844);
#356=VERTEX_POINT('',#848);
#357=VERTEX_POINT('',#850);
#358=VERTEX_POINT('',#854);
#359=VERTEX_POINT('',#856);
#360=VERTEX_POINT('',#860);
#361=VERTEX_POINT('',#862);
#362=VERTEX_POINT('',#866);
#363=VERTEX_POINT('',#868);
#364=VERTEX_POINT('',#872);
#365=VERTEX_POINT('',#874);
#366=VERTEX_POINT('',#878);
#367=VERTEX_POINT('',#880);
#368=VERTEX_POINT('',#884);
#369=VERTEX_POINT('',#886);
#370=VERTEX_POINT('',#890);
#371=VERTEX_POINT('',#892);
#372=VERTEX_POINT('',#896);
#373=VERTEX_POINT('',#898);
#374=VERTEX_POINT('',#901);
#375=VERTEX_POINT('',#903);
#376=VERTEX_POINT('',#909);
#377=VERTEX_POINT('',#911);
#378=VERTEX_POINT('',#914);
#379=VERTEX_POINT('',#915);
#380=VERTEX_POINT('',#917);
#381=VERTEX_POINT('',#919);
#382=VERTEX_POINT('',#923);
#383=VERTEX_POINT('',#926);
#384=VERTEX_POINT('',#928);
#385=VERTEX_POINT('',#951);
#386=VERTEX_POINT('',#953);
#387=VERTEX_POINT('',#957);
#388=VERTEX_POINT('',#958);
#389=VERTEX_POINT('',#974);
#390=VERTEX_POINT('',#976);
#391=VERTEX_POINT('',#980);
#392=VERTEX_POINT('',#983);
#393=VERTEX_POINT('',#985);
#394=VERTEX_POINT('',#989);
#395=VERTEX_POINT('',#991);
#396=B_SPLINE_CURVE_WITH_KNOTS('',3,(#812,#813,#814,#815,#816,#817,#818,
#819,#820,#821,#822,#823,#824,#825,#826,#827),.UNSPECIFIED.,.F.,.F.,(4,
1,1,1,1,1,1,1,1,1,1,1,1,4),(6.93889390390723E-18,0.00342397457165184,0.00684794914330367,
0.0136958982866073,0.0171198728582592,0.020543847429911,0.0239678220015628,
0.0273917965732147,0.0291037838590406,0.0308157711448665,0.0342397457165183,
0.041087694859822,0.0479356440031257,0.0547835931464293),.UNSPECIFIED.);
#397=B_SPLINE_CURVE_WITH_KNOTS('',3,(#931,#932,#933,#934,#935,#936,#937,
#938,#939,#940,#941,#942,#943,#944,#945,#946,#947,#948,#949,#950),
 .UNSPECIFIED.,.T.,.F.,(1,1,1,1,1,1,1,1,1,1,1,1,1,1,1,1,1,1,1,1,1,1,1,1),
(-0.0063720833452687,-0.00318604167263435,-0.00159302083631718,2.63119268370796E-19,
0.00318604167263435,0.0063720833452687,0.00955812501790305,0.0127441666905374,
0.0159302083631718,0.0191162500358061,0.0223022917084405,0.0254883333810748,
0.0286743750537092,0.0318604167263435,0.0350464583989779,0.0382325000716122,
0.0414185417442466,0.0446045834168809,0.0477906250895153,0.0493836459258324,
0.0509766667621496,0.054162708434784,0.0573487501074183,0.0605347917800527),
 .UNSPECIFIED.);
#398=B_SPLINE_CURVE_WITH_KNOTS('',3,(#959,#960,#961,#962,#963,#964,#965,
#966,#967,#968,#969,#970,#971,#972,#973),.UNSPECIFIED.,.F.,.F.,(4,1,1,1,
1,1,1,1,1,1,1,1,4),(0.,0.00607622220795412,0.0121524444159082,0.0182286666238624,
0.0212667777278394,0.0243048888318165,0.0273429999357935,0.0303811110397706,
0.0334192221437477,0.0364573332477247,0.0425335554556789,0.0455716665596559,
0.048609777663633),.UNSPECIFIED.);
#399=EDGE_LOOP('',(#131,#132,#133,#134));
#400=EDGE_LOOP('',(#135));
#401=EDGE_LOOP('',(#136,#137,#138,#139));
#402=EDGE_LOOP('',(#140,#141,#142,#143));
#403=EDGE_LOOP('',(#144,#145,#146,#147));
#404=EDGE_LOOP('',(#148,#149,#150,#151));
#405=EDGE_LOOP('',(#152,#153,#154,#155));
#406=EDGE_LOOP('',(#156,#157,#158,#159));
#407=EDGE_LOOP('',(#160,#161,#162,#163));
#408=EDGE_LOOP('',(#164,#165,#166,#167));
#409=EDGE_LOOP('',(#168,#169,#170,#171));
#410=EDGE_LOOP('',(#172));
#411=EDGE_LOOP('',(#173));
#412=EDGE_LOOP('',(#174));
#413=EDGE_LOOP('',(#175));
#414=EDGE_LOOP('',(#176,#177,#178,#179));
#415=EDGE_LOOP('',(#180));
#416=EDGE_LOOP('',(#181));
#417=EDGE_LOOP('',(#182,#183,#184,#185));
#418=EDGE_LOOP('',(#186,#187,#188,#189,#190,#191,#192,#193,#194,#195));
#419=EDGE_LOOP('',(#196));
#420=EDGE_LOOP('',(#197));
#421=EDGE_LOOP('',(#198));
#422=EDGE_LOOP('',(#199));
#423=EDGE_LOOP('',(#200,#201,#202,#203,#204,#205,#206,#207,#208,#209));
#424=EDGE_LOOP('',(#210));
#425=EDGE_LOOP('',(#211));
#426=EDGE_LOOP('',(#212));
#427=EDGE_LOOP('',(#213));
#428=EDGE_LOOP('',(#214));
#429=EDGE_LOOP('',(#215));
#430=EDGE_LOOP('',(#216));
#431=EDGE_LOOP('',(#217));
#432=EDGE_LOOP('',(#218));
#433=EDGE_LOOP('',(#219));
#434=EDGE_LOOP('',(#220));
#435=EDGE_LOOP('',(#221));
#436=EDGE_LOOP('',(#222,#223,#224,#225));
#437=EDGE_LOOP('',(#226));
#438=EDGE_LOOP('',(#227));
#439=EDGE_LOOP('',(#228,#229,#230,#231));
#440=EDGE_LOOP('',(#232,#233,#234,#235));
#441=EDGE_LOOP('',(#236));
#442=EDGE_LOOP('',(#237,#238,#239,#240));
#443=EDGE_LOOP('',(#241,#242,#243,#244));
#444=EDGE_LOOP('',(#245,#246,#247,#248));
#445=EDGE_LOOP('',(#249,#250,#251));
#446=EDGE_LOOP('',(#252,#253,#254,#255));
#447=EDGE_LOOP('',(#256,#257,#258,#259));
#448=EDGE_LOOP('',(#260,#261,#262,#263));
#449=EDGE_LOOP('',(#264,#265,#266,#267));
#450=EDGE_LOOP('',(#268,#269,#270));
#451=EDGE_LOOP('',(#271,#272,#273,#274));
#452=FACE_BOUND('',#399,.T.);
#453=FACE_BOUND('',#400,.T.);
#454=FACE_BOUND('',#401,.T.);
#455=FACE_BOUND('',#402,.T.);
#456=FACE_BOUND('',#403,.T.);
#457=FACE_BOUND('',#404,.T.);
#458=FACE_BOUND('',#405,.T.);
#459=FACE_BOUND('',#406,.T.);
#460=FACE_BOUND('',#407,.T.);
#461=FACE_BOUND('',#408,.T.);
#462=FACE_BOUND('',#409,.T.);
#463=FACE_BOUND('',#410,.T.);
#464=FACE_BOUND('',#411,.T.);
#465=FACE_BOUND('',#412,.T.);
#466=FACE_BOUND('',#413,.T.);
#467=FACE_BOUND('',#414,.T.);
#468=FACE_BOUND('',#415,.T.);
#469=FACE_BOUND('',#416,.T.);
#470=FACE_BOUND('',#417,.T.);
#471=FACE_BOUND('',#418,.T.);
#472=FACE_BOUND('',#419,.T.);
#473=FACE_BOUND('',#420,.T.);
#474=FACE_BOUND('',#421,.T.);
#475=FACE_BOUND('',#422,.T.);
#476=FACE_BOUND('',#423,.T.);
#477=FACE_BOUND('',#424,.T.);
#478=FACE_BOUND('',#425,.T.);
#479=FACE_BOUND('',#426,.T.);
#480=FACE_BOUND('',#427,.T.);
#481=FACE_BOUND('',#428,.T.);
#482=FACE_BOUND('',#429,.T.);
#483=FACE_BOUND('',#430,.T.);
#484=FACE_BOUND('',#431,.T.);
#485=FACE_BOUND('',#432,.T.);
#486=FACE_BOUND('',#433,.T.);
#487=FACE_BOUND('',#434,.T.);
#488=FACE_BOUND('',#435,.T.);
#489=FACE_BOUND('',#436,.T.);
#490=FACE_BOUND('',#437,.T.);
#491=FACE_BOUND('',#438,.T.);
#492=FACE_BOUND('',#439,.T.);
#493=FACE_BOUND('',#440,.T.);
#494=FACE_BOUND('',#441,.T.);
#495=FACE_BOUND('',#442,.T.);
#496=FACE_BOUND('',#443,.T.);
#497=FACE_BOUND('',#444,.T.);
#498=FACE_BOUND('',#445,.T.);
#499=FACE_BOUND('',#446,.T.);
#500=FACE_BOUND('',#447,.T.);
#501=FACE_BOUND('',#448,.T.);
#502=FACE_BOUND('',#449,.T.);
#503=FACE_BOUND('',#450,.T.);
#504=FACE_BOUND('',#451,.T.);
#505=CYLINDRICAL_SURFACE('',#570,0.03);
#506=CYLINDRICAL_SURFACE('',#574,0.015);
#507=CYLINDRICAL_SURFACE('',#578,0.015);
#508=CYLINDRICAL_SURFACE('',#582,0.015);
#509=CYLINDRICAL_SURFACE('',#586,0.015);
#510=CYLINDRICAL_SURFACE('',#590,0.0075);
#511=CYLINDRICAL_SURFACE('',#593,0.0075);
#512=CYLINDRICAL_SURFACE('',#596,0.015);
#513=CYLINDRICAL_SURFACE('',#599,0.0075);
#514=CYLINDRICAL_SURFACE('',#606,0.02);
#515=CYLINDRICAL_SURFACE('',#610,0.015);
#516=CYLINDRICAL_SURFACE('',#613,0.015);
#517=CYLINDRICAL_SURFACE('',#615,0.008);
#518=CYLINDRICAL_SURFACE('',#620,0.003);
#519=CYLINDRICAL_SURFACE('',#627,0.003);
#520=CYLINDRICAL_SURFACE('',#629,0.003);
#521=CYLINDRICAL_SURFACE('',#633,0.003);
#522=CYLINDRICAL_SURFACE('',#637,0.003);
#523=ADVANCED_FACE('',(#452,#453),#505,.T.);
#524=ADVANCED_FACE('',(#454),#18,.T.);
#525=ADVANCED_FACE('',(#455),#506,.T.);
#526=ADVANCED_FACE('',(#456),#19,.F.);
#527=ADVANCED_FACE('',(#457),#507,.T.);
#528=ADVANCED_FACE('',(#458),#20,.T.);
#529=ADVANCED_FACE('',(#459),#508,.T.);
#530=ADVANCED_FACE('',(#460),#21,.T.);
#531=ADVANCED_FACE('',(#461),#509,.T.);
#532=ADVANCED_FACE('',(#462),#22,.T.);
#533=ADVANCED_FACE('',(#463,#464),#510,.F.);
#534=ADVANCED_FACE('',(#465,#466),#511,.F.);
#535=ADVANCED_FACE('',(#467),#512,.T.);
#536=ADVANCED_FACE('',(#468,#469),#513,.F.);
#537=ADVANCED_FACE('',(#470,#471,#472,#473,#474),#23,.T.);
#538=ADVANCED_FACE('',(#475,#476,#477,#478,#479),#24,.F.);
#539=ADVANCED_FACE('',(#480,#481),#514,.F.);
#540=ADVANCED_FACE('',(#482,#483),#25,.T.);
#541=ADVANCED_FACE('',(#484,#485,#486),#515,.F.);
#542=ADVANCED_FACE('',(#487,#488),#26,.T.);
#543=ADVANCED_FACE('',(#489),#516,.T.);
#544=ADVANCED_FACE('',(#490,#491),#517,.F.);
#545=ADVANCED_FACE('',(#492),#27,.T.);
#546=ADVANCED_FACE('',(#493),#28,.F.);
#547=ADVANCED_FACE('',(#494,#495),#29,.T.);
#548=ADVANCED_FACE('',(#496),#518,.F.);
#549=ADVANCED_FACE('',(#497),#17,.F.);
#550=ADVANCED_FACE('',(#498),#15,.F.);
#551=ADVANCED_FACE('',(#499),#519,.F.);
#552=ADVANCED_FACE('',(#500),#520,.F.);
#553=ADVANCED_FACE('',(#501),#12,.F.);
#554=ADVANCED_FACE('',(#502),#521,.F.);
#555=ADVANCED_FACE('',(#503),#16,.F.);
#556=ADVANCED_FACE('',(#504),#522,.F.);
#557=CLOSED_SHELL('',(#523,#524,#525,#526,#527,#528,#529,#530,#531,#532,
#533,#534,#535,#536,#537,#538,#539,#540,#541,#542,#543,#544,#545,#546,#547,
#548,#549,#550,#551,#552,#553,#554,#555,#556));
#558=STYLED_ITEM('',(#559),#566);
#559=PRESENTATION_STYLE_ASSIGNMENT((#560));
#560=SURFACE_STYLE_USAGE(.BOTH.,#561);
#561=SURFACE_SIDE_STYLE('',(#562));
#562=SURFACE_STYLE_FILL_AREA(#563);
#563=FILL_AREA_STYLE('',(#564));
#564=FILL_AREA_STYLE_COLOUR('',#565);
#565=COLOUR_RGB('',0.615686274509804,0.811764705882353,0.929411764705882);
#566=MANIFOLD_SOLID_BREP('Part 1',#557);
#567=SHAPE_DEFINITION_REPRESENTATION(#1064,#568);
#568=SHAPE_REPRESENTATION('Part 1',(#569),#1059);
#569=AXIS2_PLACEMENT_3D('',#810,#638,#639);
#570=AXIS2_PLACEMENT_3D('',#811,#640,#641);
#571=AXIS2_PLACEMENT_3D('',#832,#643,#644);
#572=AXIS2_PLACEMENT_3D('',#835,#646,#647);
#573=AXIS2_PLACEMENT_3D('',#837,#648,#649);
#574=AXIS2_PLACEMENT_3D('',#846,#654,#655);
#575=AXIS2_PLACEMENT_3D('',#847,#656,#657);
#576=AXIS2_PLACEMENT_3D('',#851,#659,#660);
#577=AXIS2_PLACEMENT_3D('',#852,#661,#662);
#578=AXIS2_PLACEMENT_3D('',#858,#666,#667);
#579=AXIS2_PLACEMENT_3D('',#859,#668,#669);
#580=AXIS2_PLACEMENT_3D('',#863,#671,#672);
#581=AXIS2_PLACEMENT_3D('',#864,#673,#674);
#582=AXIS2_PLACEMENT_3D('',#870,#678,#679);
#583=AXIS2_PLACEMENT_3D('',#871,#680,#681);
#584=AXIS2_PLACEMENT_3D('',#875,#683,#684);
#585=AXIS2_PLACEMENT_3D('',#876,#685,#686);
#586=AXIS2_PLACEMENT_3D('',#882,#690,#691);
#587=AXIS2_PLACEMENT_3D('',#883,#692,#693);
#588=AXIS2_PLACEMENT_3D('',#887,#695,#696);
#589=AXIS2_PLACEMENT_3D('',#888,#697,#698);
#590=AXIS2_PLACEMENT_3D('',#894,#702,#703);
#591=AXIS2_PLACEMENT_3D('',#895,#704,#705);
#592=AXIS2_PLACEMENT_3D('',#897,#706,#707);
#593=AXIS2_PLACEMENT_3D('',#899,#708,#709);
#594=AXIS2_PLACEMENT_3D('',#900,#710,#711);
#595=AXIS2_PLACEMENT_3D('',#902,#712,#713);
#596=AXIS2_PLACEMENT_3D('',#904,#714,#715);
#597=AXIS2_PLACEMENT_3D('',#905,#716,#717);
#598=AXIS2_PLACEMENT_3D('',#906,#718,#719);
#599=AXIS2_PLACEMENT_3D('',#907,#720,#721);
#600=AXIS2_PLACEMENT_3D('',#908,#722,#723);
#601=AXIS2_PLACEMENT_3D('',#910,#724,#725);
#602=AXIS2_PLACEMENT_3D('',#912,#726,#727);
#603=AXIS2_PLACEMENT_3D('',#913,#728,#729);
#604=AXIS2_PLACEMENT_3D('',#921,#733,#734);
#605=AXIS2_PLACEMENT_3D('',#922,#735,#736);
#606=AXIS2_PLACEMENT_3D('',#924,#737,#738);
#607=AXIS2_PLACEMENT_3D('',#925,#739,#740);
#608=AXIS2_PLACEMENT_3D('',#927,#741,#742);
#609=AXIS2_PLACEMENT_3D('',#929,#743,#744);
#610=AXIS2_PLACEMENT_3D('',#930,#745,#746);
#611=AXIS2_PLACEMENT_3D('',#952,#747,#748);
#612=AXIS2_PLACEMENT_3D('',#954,#749,#750);
#613=AXIS2_PLACEMENT_3D('',#955,#751,#752);
#614=AXIS2_PLACEMENT_3D('',#977,#755,#756);
#615=AXIS2_PLACEMENT_3D('',#978,#757,#758);
#616=AXIS2_PLACEMENT_3D('',#979,#759,#760);
#617=AXIS2_PLACEMENT_3D('',#981,#761,#762);
#618=AXIS2_PLACEMENT_3D('',#987,#766,#767);
#619=AXIS2_PLACEMENT_3D('',#993,#771,#772);
#620=AXIS2_PLACEMENT_3D('',#995,#774,#775);
#621=AXIS2_PLACEMENT_3D('',#996,#776,#777);
#622=AXIS2_PLACEMENT_3D('',#997,#778,#779);
#623=AXIS2_PLACEMENT_3D('',#1043,#780,#781);
#624=AXIS2_PLACEMENT_3D('',#1044,#782,#783);
#625=AXIS2_PLACEMENT_3D('',#1045,#784,#785);
#626=AXIS2_PLACEMENT_3D('',#1046,#786,#787);
#627=AXIS2_PLACEMENT_3D('',#1047,#788,#789);
#628=AXIS2_PLACEMENT_3D('',#1048,#790,#791);
#629=AXIS2_PLACEMENT_3D('',#1049,#792,#793);
#630=AXIS2_PLACEMENT_3D('',#1050,#794,#795);
#631=AXIS2_PLACEMENT_3D('',#1051,#796,#797);
#632=AXIS2_PLACEMENT_3D('',#1052,#798,#799);
#633=AXIS2_PLACEMENT_3D('',#1053,#800,#801);
#634=AXIS2_PLACEMENT_3D('',#1054,#802,#803);
#635=AXIS2_PLACEMENT_3D('',#1055,#804,#805);
#636=AXIS2_PLACEMENT_3D('',#1056,#806,#807);
#637=AXIS2_PLACEMENT_3D('',#1057,#808,#809);
#638=DIRECTION('',(0.,0.,1.));
#639=DIRECTION('',(1.,0.,0.));
#640=DIRECTION('',(0.,0.,-1.));
#641=DIRECTION('',(-1.,0.,0.));
#642=DIRECTION('',(0.,0.,-1.));
#643=DIRECTION('',(0.,0.,1.));
#644=DIRECTION('',(1.,0.,0.));
#645=DIRECTION('',(0.,0.,-1.));
#646=DIRECTION('',(0.,0.,1.));
#647=DIRECTION('',(1.,0.,0.));
#648=DIRECTION('',(0.707106781186548,-0.707106781186547,0.));
#649=DIRECTION('',(0.707106781186547,0.707106781186548,0.));
#650=DIRECTION('',(-0.707106781186547,-0.707106781186548,0.));
#651=DIRECTION('',(0.,0.,-1.));
#652=DIRECTION('',(-0.707106781186547,-0.707106781186548,0.));
#653=DIRECTION('',(0.,0.,-1.));
#654=DIRECTION('',(0.,0.,-1.));
#655=DIRECTION('',(-1.,0.,0.));
#656=DIRECTION('',(0.,0.,1.));
#657=DIRECTION('',(1.,0.,0.));
#658=DIRECTION('',(0.,0.,-1.));
#659=DIRECTION('',(0.,0.,1.));
#660=DIRECTION('',(1.,0.,0.));
#661=DIRECTION('',(-0.5,-0.866025403784439,0.));
#662=DIRECTION('',(0.866025403784439,-0.5,0.));
#663=DIRECTION('',(-0.866025403784439,0.5,0.));
#664=DIRECTION('',(0.,0.,-1.));
#665=DIRECTION('',(-0.866025403784439,0.5,0.));
#666=DIRECTION('',(0.,0.,-1.));
#667=DIRECTION('',(-1.,0.,0.));
#668=DIRECTION('',(0.,0.,1.));
#669=DIRECTION('',(1.,0.,0.));
#670=DIRECTION('',(0.,0.,-1.));
#671=DIRECTION('',(0.,0.,1.));
#672=DIRECTION('',(1.,0.,0.));
#673=DIRECTION('',(-3.38122812776531E-16,1.,0.));
#674=DIRECTION('',(-1.,-3.38122812776531E-16,0.));
#675=DIRECTION('',(1.,3.38122812776531E-16,0.));
#676=DIRECTION('',(0.,0.,-1.));
#677=DIRECTION('',(1.,3.38122812776531E-16,0.));
#678=DIRECTION('',(0.,0.,-1.));
#679=DIRECTION('',(-1.,0.,0.));
#680=DIRECTION('',(0.,0.,1.));
#681=DIRECTION('',(1.,0.,0.));
#682=DIRECTION('',(0.,0.,-1.));
#683=DIRECTION('',(0.,0.,1.));
#684=DIRECTION('',(1.,0.,0.));
#685=DIRECTION('',(-1.,0.,0.));
#686=DIRECTION('',(0.,0.,1.));
#687=DIRECTION('',(0.,1.,0.));
#688=DIRECTION('',(0.,0.,-1.));
#689=DIRECTION('',(0.,1.,0.));
#690=DIRECTION('',(0.,0.,-1.));
#691=DIRECTION('',(-1.,0.,0.));
#692=DIRECTION('',(0.,0.,1.));
#693=DIRECTION('',(1.,0.,0.));
#694=DIRECTION('',(0.,0.,-1.));
#695=DIRECTION('',(0.,0.,1.));
#696=DIRECTION('',(1.,0.,0.));
#697=DIRECTION('',(1.98254111540206E-16,-1.,0.));
#698=DIRECTION('',(1.,1.98254111540206E-16,0.));
#699=DIRECTION('',(-1.,-1.98254111540206E-16,0.));
#700=DIRECTION('',(0.,0.,-1.));
#701=DIRECTION('',(-1.,-1.98254111540206E-16,0.));
#702=DIRECTION('',(0.,0.,-1.));
#703=DIRECTION('',(-1.,0.,0.));
#704=DIRECTION('',(0.,0.,1.));
#705=DIRECTION('',(1.,0.,0.));
#706=DIRECTION('',(0.,0.,1.));
#707=DIRECTION('',(1.,0.,0.));
#708=DIRECTION('',(0.,0.,-1.));
#709=DIRECTION('',(-1.,0.,0.));
#710=DIRECTION('',(0.,0.,1.));
#711=DIRECTION('',(1.,0.,0.));
#712=DIRECTION('',(0.,0.,1.));
#713=DIRECTION('',(1.,0.,0.));
#714=DIRECTION('',(0.,0.,-1.));
#715=DIRECTION('',(-1.,0.,0.));
#716=DIRECTION('',(0.,0.,1.));
#717=DIRECTION('',(1.,0.,0.));
#718=DIRECTION('',(0.,0.,1.));
#719=DIRECTION('',(1.,0.,0.));
#720=DIRECTION('',(0.,0.,-1.));
#721=DIRECTION('',(-1.,0.,0.));
#722=DIRECTION('',(0.,0.,1.));
#723=DIRECTION('',(1.,0.,0.));
#724=DIRECTION('',(0.,0.,1.));
#725=DIRECTION('',(1.,0.,0.));
#726=DIRECTION('',(0.,0.,1.));
#727=DIRECTION('',(1.,0.,0.));
#728=DIRECTION('',(0.,0.,1.));
#729=DIRECTION('',(1.,0.,0.));
#730=DIRECTION('',(-1.,0.,0.));
#731=DIRECTION('',(0.,1.,0.));
#732=DIRECTION('',(-1.,0.,0.));
#733=DIRECTION('',(0.,0.,1.));
#734=DIRECTION('',(1.,0.,0.));
#735=DIRECTION('',(0.,0.,1.));
#736=DIRECTION('',(1.,0.,0.));
#737=DIRECTION('',(0.,0.,-1.));
#738=DIRECTION('',(-1.,0.,0.));
#739=DIRECTION('',(0.,0.,1.));
#740=DIRECTION('',(1.,0.,0.));
#741=DIRECTION('',(0.,0.,1.));
#742=DIRECTION('',(1.,0.,0.));
#743=DIRECTION('',(0.,0.,1.));
#744=DIRECTION('',(1.,0.,0.));
#745=DIRECTION('',(0.,0.,-1.));
#746=DIRECTION('',(-1.,0.,0.));
#747=DIRECTION('',(0.,0.,1.));
#748=DIRECTION('',(1.,0.,0.));
#749=DIRECTION('',(0.,0.,1.));
#750=DIRECTION('',(1.,0.,0.));
#751=DIRECTION('',(-1.,0.,0.));
#752=DIRECTION('',(0.,0.,1.));
#753=DIRECTION('',(-1.,0.,0.));
#754=DIRECTION('',(-1.,0.,0.));
#755=DIRECTION('',(1.,0.,0.));
#756=DIRECTION('',(0.,0.,-1.));
#757=DIRECTION('',(-1.,0.,0.));
#758=DIRECTION('',(0.,0.,1.));
#759=DIRECTION('',(1.,0.,0.));
#760=DIRECTION('',(0.,0.,-1.));
#761=DIRECTION('',(0.,1.,0.));
#762=DIRECTION('',(0.,0.,1.));
#763=DIRECTION('',(0.,0.,-1.));
#764=DIRECTION('',(-1.,0.,0.));
#765=DIRECTION('',(0.,0.,-1.));
#766=DIRECTION('',(0.,1.,8.26058798084194E-17));
#767=DIRECTION('',(0.,-8.26058798084194E-17,1.));
#768=DIRECTION('',(0.,-8.26058798084194E-17,1.));
#769=DIRECTION('',(-1.,0.,0.));
#770=DIRECTION('',(0.,8.26058798084194E-17,-1.));
#771=DIRECTION('',(1.,0.,0.));
#772=DIRECTION('',(0.,1.,0.));
#773=DIRECTION('',(0.,1.,0.));
#774=DIRECTION('',(0.,0.,-1.));
#775=DIRECTION('',(-1.,0.,0.));
#776=DIRECTION('',(0.,0.,1.));
#777=DIRECTION('',(1.,0.,0.));
#778=DIRECTION('',(0.,0.,-1.));
#779=DIRECTION('',(-1.,0.,0.));
#780=DIRECTION('',(0.,0.,1.));
#781=DIRECTION('',(1.,0.,0.));
#782=DIRECTION('',(1.15648231731787E-15,0.,-1.));
#783=DIRECTION('',(-1.,0.,-1.15648231731787E-15));
#784=DIRECTION('',(-0.545454545454546,-0.838140405208444,-1.60010309477204E-15));
#785=DIRECTION('',(0.838140405208444,-0.545454545454546,0.));
#786=DIRECTION('',(1.,1.15648231731787E-15,0.));
#787=DIRECTION('',(-1.15648231731787E-15,1.,0.));
#788=DIRECTION('',(-1.,0.,0.));
#789=DIRECTION('',(0.,0.,1.));
#790=DIRECTION('',(-0.707106781186548,-0.707106781186548,0.));
#791=DIRECTION('',(-0.707106781186548,0.707106781186548,0.));
#792=DIRECTION('',(0.,0.,-1.));
#793=DIRECTION('',(-1.,0.,0.));
#794=DIRECTION('',(0.,0.,1.));
#795=DIRECTION('',(1.,0.,0.));
#796=DIRECTION('',(0.,0.,1.));
#797=DIRECTION('',(1.,0.,0.));
#798=DIRECTION('',(-0.545454545454545,0.838140405208445,0.));
#799=DIRECTION('',(-0.838140405208445,-0.545454545454545,0.));
#800=DIRECTION('',(0.,-1.,0.));
#801=DIRECTION('',(0.,0.,-1.));
#802=DIRECTION('',(0.707106781186548,-0.707106781186548,0.));
#803=DIRECTION('',(-0.707106781186548,-0.707106781186548,0.));
#804=DIRECTION('',(0.,0.,-1.));
#805=DIRECTION('',(-1.,0.,0.));
#806=DIRECTION('',(1.,0.,0.));
#807=DIRECTION('',(0.,0.,-1.));
#808=DIRECTION('',(1.,0.,0.));
#809=DIRECTION('',(0.,0.,-1.));
#810=CARTESIAN_POINT('',(0.,0.,0.));
#811=CARTESIAN_POINT('',(0.,1.83697019872103E-18,0.08));
#812=CARTESIAN_POINT('',(0.0251442121562533,-0.0163636363636364,0.042));
#813=CARTESIAN_POINT('',(0.0251442121562533,-0.0163636363636364,0.0431569381795124));
#814=CARTESIAN_POINT('',(0.0252752880653199,-0.0161651088872956,0.0454274271780275));
#815=CARTESIAN_POINT('',(0.0260138789903444,-0.0149824965861579,0.0498472381388602));
#816=CARTESIAN_POINT('',(0.0272501556245427,-0.0127304431863677,0.0537193073511821));
#817=CARTESIAN_POINT('',(0.0284984950384684,-0.00950647282723789,0.0567918109772723));
#818=CARTESIAN_POINT('',(0.0292999778276758,-0.00669027468664722,0.0585616879135541));
#819=CARTESIAN_POINT('',(0.0298642331839283,-0.00345345057025735,0.0597283897553968));
#820=CARTESIAN_POINT('',(0.0300334392344685,-0.000605858045810425,0.0600670982848035));
#821=CARTESIAN_POINT('',(0.0299669432923153,0.00172206709140613,0.0599335059144052));
#822=CARTESIAN_POINT('',(0.029774390605503,0.00395894038349714,0.0595428158071842));
#823=CARTESIAN_POINT('',(0.0291208424053218,0.00774241581268349,0.0581913548547712));
#824=CARTESIAN_POINT('',(0.0275640536780151,0.0121574348932183,0.0546959906619479));
#825=CARTESIAN_POINT('',(0.0257031623109024,0.0155434198325543,0.0488829184758036));
#826=CARTESIAN_POINT('',(0.0251442121562533,0.0163636363636364,0.0443160045212205));
#827=CARTESIAN_POINT('',(0.0251442121562533,0.0163636363636364,0.042));
#828=CARTESIAN_POINT('',(0.0251442121562533,-0.0163636363636364,0.042));
#829=CARTESIAN_POINT('',(0.0251442121562533,0.0163636363636364,0.042));
#830=CARTESIAN_POINT('',(0.0251442121562533,0.0163636363636364,0.08));
#831=CARTESIAN_POINT('',(0.0251442121562533,0.0163636363636364,0.015));
#832=CARTESIAN_POINT('',(0.,1.83697019872103E-18,0.015));
#833=CARTESIAN_POINT('',(0.0251442121562533,-0.0163636363636364,0.015));
#834=CARTESIAN_POINT('',(0.0251442121562533,-0.0163636363636364,0.08));
#835=CARTESIAN_POINT('',(0.,1.83697019872103E-18,0.08));
#836=CARTESIAN_POINT('',(0.03,1.83697019872103E-18,0.08));
#837=CARTESIAN_POINT('',(0.0921066017177982,-0.0321066017177982,0.012));
#838=CARTESIAN_POINT('',(0.0921066017177982,-0.0321066017177982,0.));
#839=CARTESIAN_POINT('',(0.105606601717798,-0.0186066017177982,0.));
#840=CARTESIAN_POINT('',(0.0786066017177982,-0.0456066017177982,0.));
#841=CARTESIAN_POINT('',(0.105606601717798,-0.0186066017177982,0.012));
#842=CARTESIAN_POINT('',(0.105606601717798,-0.0186066017177982,0.012));
#843=CARTESIAN_POINT('',(0.0921066017177982,-0.0321066017177982,0.012));
#844=CARTESIAN_POINT('',(0.0786066017177982,-0.0456066017177982,0.012));
#845=CARTESIAN_POINT('',(0.0786066017177982,-0.0456066017177982,0.012));
#846=CARTESIAN_POINT('',(0.095,-0.008,0.012));
#847=CARTESIAN_POINT('',(0.095,-0.008,0.));
#848=CARTESIAN_POINT('',(0.1025,0.00499038105676659,0.));
#849=CARTESIAN_POINT('',(0.1025,0.00499038105676659,0.012));
#850=CARTESIAN_POINT('',(0.1025,0.00499038105676659,0.012));
#851=CARTESIAN_POINT('',(0.095,-0.008,0.012));
#852=CARTESIAN_POINT('',(0.0652609076372691,0.0264903810567666,0.012));
#853=CARTESIAN_POINT('',(0.0652609076372691,0.0264903810567666,0.));
#854=CARTESIAN_POINT('',(0.0280218152745382,0.0479903810567666,0.));
#855=CARTESIAN_POINT('',(0.0280218152745382,0.0479903810567666,0.012));
#856=CARTESIAN_POINT('',(0.0280218152745382,0.0479903810567666,0.012));
#857=CARTESIAN_POINT('',(0.0652609076372691,0.0264903810567666,0.012));
#858=CARTESIAN_POINT('',(0.0205218152745383,0.035,0.012));
#859=CARTESIAN_POINT('',(0.0205218152745383,0.035,0.));
#860=CARTESIAN_POINT('',(0.0205218152745382,0.05,0.));
#861=CARTESIAN_POINT('',(0.0205218152745382,0.05,0.012));
#862=CARTESIAN_POINT('',(0.0205218152745382,0.05,0.012));
#863=CARTESIAN_POINT('',(0.0205218152745383,0.035,0.012));
#864=CARTESIAN_POINT('',(0.0102609076372691,0.05,0.012));
#865=CARTESIAN_POINT('',(0.0102609076372691,0.05,0.));
#866=CARTESIAN_POINT('',(-0.035,0.05,0.));
#867=CARTESIAN_POINT('',(-0.035,0.05,0.012));
#868=CARTESIAN_POINT('',(-0.035,0.05,0.012));
#869=CARTESIAN_POINT('',(0.0102609076372691,0.05,0.012));
#870=CARTESIAN_POINT('',(-0.035,0.035,0.012));
#871=CARTESIAN_POINT('',(-0.035,0.035,0.));
#872=CARTESIAN_POINT('',(-0.05,0.035,0.));
#873=CARTESIAN_POINT('',(-0.05,0.035,0.012));
#874=CARTESIAN_POINT('',(-0.05,0.035,0.012));
#875=CARTESIAN_POINT('',(-0.035,0.035,0.012));
#876=CARTESIAN_POINT('',(-0.05,-6.93889390390723E-18,0.012));
#877=CARTESIAN_POINT('',(-0.05,-6.93889390390723E-18,0.));
#878=CARTESIAN_POINT('',(-0.05,-0.035,0.));
#879=CARTESIAN_POINT('',(-0.05,-0.035,0.012));
#880=CARTESIAN_POINT('',(-0.05,-0.035,0.012));
#881=CARTESIAN_POINT('',(-0.05,-6.93889390390723E-18,0.012));
#882=CARTESIAN_POINT('',(-0.035,-0.035,0.012));
#883=CARTESIAN_POINT('',(-0.035,-0.035,0.));
#884=CARTESIAN_POINT('',(-0.035,-0.05,0.));
#885=CARTESIAN_POINT('',(-0.035,-0.05,0.012));
#886=CARTESIAN_POINT('',(-0.035,-0.05,0.012));
#887=CARTESIAN_POINT('',(-0.035,-0.035,0.012));
#888=CARTESIAN_POINT('',(-0.0175,-0.05,0.012));
#889=CARTESIAN_POINT('',(-0.0175,-0.05,0.));
#890=CARTESIAN_POINT('',(0.068,-0.05,0.));
#891=CARTESIAN_POINT('',(0.068,-0.05,0.012));
#892=CARTESIAN_POINT('',(0.068,-0.05,0.012));
#893=CARTESIAN_POINT('',(-0.0175,-0.05,0.012));
#894=CARTESIAN_POINT('',(-0.035,0.035,0.012));
#895=CARTESIAN_POINT('',(-0.035,0.035,0.012));
#896=CARTESIAN_POINT('',(-0.0275,0.035,0.012));
#897=CARTESIAN_POINT('',(-0.035,0.035,0.));
#898=CARTESIAN_POINT('',(-0.0275,0.035,0.));
#899=CARTESIAN_POINT('',(0.095,-0.008,0.012));
#900=CARTESIAN_POINT('',(0.095,-0.008,0.012));
#901=CARTESIAN_POINT('',(0.1025,-0.008,0.012));
#902=CARTESIAN_POINT('',(0.095,-0.008,0.));
#903=CARTESIAN_POINT('',(0.1025,-0.008,0.));
#904=CARTESIAN_POINT('',(0.068,-0.035,0.012));
#905=CARTESIAN_POINT('',(0.068,-0.035,0.));
#906=CARTESIAN_POINT('',(0.068,-0.035,0.012));
#907=CARTESIAN_POINT('',(-0.035,-0.035,0.012));
#908=CARTESIAN_POINT('',(-0.035,-0.035,0.012));
#909=CARTESIAN_POINT('',(-0.0275,-0.035,0.012));
#910=CARTESIAN_POINT('',(-0.035,-0.035,0.));
#911=CARTESIAN_POINT('',(-0.0275,-0.035,0.));
#912=CARTESIAN_POINT('',(0.03,0.0124155730009079,0.012));
#913=CARTESIAN_POINT('',(0.,1.83697019872103E-18,0.012));
#914=CARTESIAN_POINT('',(0.0276586333718786,-0.018,0.012));
#915=CARTESIAN_POINT('',(0.0276586333718786,0.018,0.012));
#916=CARTESIAN_POINT('',(0.045,0.018,0.012));
#917=CARTESIAN_POINT('',(0.048,0.018,0.012));
#918=CARTESIAN_POINT('',(0.048,-0.015,0.012));
#919=CARTESIAN_POINT('',(0.048,-0.018,0.012));
#920=CARTESIAN_POINT('',(0.03,-0.018,0.012));
#921=CARTESIAN_POINT('',(0.03,0.0124155730009079,0.));
#922=CARTESIAN_POINT('',(0.,9.18485099360515E-19,0.));
#923=CARTESIAN_POINT('',(0.015,9.18485099360515E-19,0.));
#924=CARTESIAN_POINT('',(0.,1.22464679914735E-18,0.08));
#925=CARTESIAN_POINT('',(0.,1.22464679914735E-18,0.064));
#926=CARTESIAN_POINT('',(0.02,1.22464679914735E-18,0.064));
#927=CARTESIAN_POINT('',(0.,1.22464679914735E-18,0.08));
#928=CARTESIAN_POINT('',(0.02,1.22464679914735E-18,0.08));
#929=CARTESIAN_POINT('',(0.03,0.,0.08));
#930=CARTESIAN_POINT('',(0.,9.18485099360515E-19,0.064));
#931=CARTESIAN_POINT('',(0.0149398985630015,0.00162327051011672,0.0341116390225361));
#932=CARTESIAN_POINT('',(0.0150601835436636,-0.000546812165654278,0.0338890613122925));
#933=CARTESIAN_POINT('',(0.01475885529202,-0.00319504305969508,0.0344402530766871));
#934=CARTESIAN_POINT('',(0.0139010957630757,-0.00580294985909142,0.0362105400668932));
#935=CARTESIAN_POINT('',(0.0129840347766653,-0.00755242815711113,0.0387946160207171));
#936=CARTESIAN_POINT('',(0.0125430196478052,-0.00822008219064663,0.0419706015884553));
#937=CARTESIAN_POINT('',(0.012975482618632,-0.00756703571053719,0.0451818838465317));
#938=CARTESIAN_POINT('',(0.0138962072669163,-0.00581372818501211,0.047777169276931));
#939=CARTESIAN_POINT('',(0.0147535033404067,-0.00321932393597732,0.0495501212833092));
#940=CARTESIAN_POINT('',(0.0151205859753397,-3.26799960439623E-5,0.0502198897674248));
#941=CARTESIAN_POINT('',(0.0147639938526634,0.003180919771897,0.0495700216983842));
#942=CARTESIAN_POINT('',(0.013904602628941,0.00579436121801503,0.0477977824593974));
#943=CARTESIAN_POINT('',(0.0129852179100333,0.00755091956606288,0.0452117854045395));
#944=CARTESIAN_POINT('',(0.0125430707226027,0.00822001128987666,0.0420302997741729));
#945=CARTESIAN_POINT('',(0.0129741233064764,0.00756878330337904,0.0388225441374507));
#946=CARTESIAN_POINT('',(0.0138987400412167,0.00581185413128624,0.0362163204873424));
#947=CARTESIAN_POINT('',(0.014612971057337,0.00363358267472798,0.0347395604886221));
#948=CARTESIAN_POINT('',(0.0149398985630015,0.00162327051011672,0.0341116390225361));
#949=CARTESIAN_POINT('',(0.0150601835436636,-0.000546812165654278,0.0338890613122925));
#950=CARTESIAN_POINT('',(0.01475885529202,-0.00319504305969508,0.0344402530766871));
#951=CARTESIAN_POINT('',(0.015,-2.71410366254949E-19,0.034));
#952=CARTESIAN_POINT('',(0.,9.18485099360515E-19,0.064));
#953=CARTESIAN_POINT('',(0.015,9.18485099360515E-19,0.064));
#954=CARTESIAN_POINT('',(0.03,0.,0.064));
#955=CARTESIAN_POINT('',(0.045,0.,0.042));
#956=CARTESIAN_POINT('',(0.045,0.015,0.042));
#957=CARTESIAN_POINT('',(0.045,0.015,0.042));
#958=CARTESIAN_POINT('',(0.0276586333718786,0.015,0.042));
#959=CARTESIAN_POINT('',(0.0276586333718786,0.015,0.042));
#960=CARTESIAN_POINT('',(0.0276586333718786,0.015,0.0440500776900167));
#961=CARTESIAN_POINT('',(0.0283592198480742,0.0141419924449927,0.0480482833283871));
#962=CARTESIAN_POINT('',(0.0304643454174126,0.010882142193607,0.0528422448936881));
#963=CARTESIAN_POINT('',(0.0321024968281471,0.00684321420577952,0.0556036229598468));
#964=CARTESIAN_POINT('',(0.0328674367373377,0.00301458638502661,0.0567991236862643));
#965=CARTESIAN_POINT('',(0.0330673315039106,-3.9714296611007E-5,0.0571020395900435));
#966=CARTESIAN_POINT('',(0.0328631168574971,-0.00303768278795972,0.0567925340249924));
#967=CARTESIAN_POINT('',(0.0322833679521002,-0.00592403432682557,0.0558860095367209));
#968=CARTESIAN_POINT('',(0.0314459103395907,-0.00846402921671351,0.0544952538602204));
#969=CARTESIAN_POINT('',(0.030106712867945,-0.0114367346642633,0.052031494520622));
#970=CARTESIAN_POINT('',(0.0287106713652066,-0.0136025094688228,0.0488407547120357));
#971=CARTESIAN_POINT('',(0.0278207735191773,-0.0147955666569171,0.0450176497238201));
#972=CARTESIAN_POINT('',(0.0276586333718786,-0.015,0.0430236487129417));
#973=CARTESIAN_POINT('',(0.0276586333718786,-0.015,0.042));
#974=CARTESIAN_POINT('',(0.0276586333718786,-0.015,0.042));
#975=CARTESIAN_POINT('',(0.045,-0.015,0.042));
#976=CARTESIAN_POINT('',(0.045,-0.015,0.042));
#977=CARTESIAN_POINT('',(0.045,0.,0.042));
#978=CARTESIAN_POINT('',(0.045,0.,0.042));
#979=CARTESIAN_POINT('',(0.045,0.,0.042));
#980=CARTESIAN_POINT('',(0.045,0.,0.034));
#981=CARTESIAN_POINT('',(0.045,0.015,0.021));
#982=CARTESIAN_POINT('',(0.045,0.015,0.021));
#983=CARTESIAN_POINT('',(0.045,0.015,0.015));
#984=CARTESIAN_POINT('',(0.0259807621135331,0.015,0.015));
#985=CARTESIAN_POINT('',(0.0276586333718786,0.015,0.015));
#986=CARTESIAN_POINT('',(0.0276586333718786,0.015,0.021));
#987=CARTESIAN_POINT('',(0.045,-0.015,0.021));
#988=CARTESIAN_POINT('',(0.0276586333718786,-0.015,0.012));
#989=CARTESIAN_POINT('',(0.0276586333718786,-0.015,0.015));
#990=CARTESIAN_POINT('',(0.045,-0.015,0.015));
#991=CARTESIAN_POINT('',(0.045,-0.015,0.015));
#992=CARTESIAN_POINT('',(0.045,-0.015,0.021));
#993=CARTESIAN_POINT('',(0.045,-3.46944695195361E-18,0.0285));
#994=CARTESIAN_POINT('',(0.045,0.015,0.015));
#995=CARTESIAN_POINT('',(0.0276586333718786,-0.018,0.08));
#996=CARTESIAN_POINT('',(0.0276586333718786,-0.018,0.015));
#997=CARTESIAN_POINT('',(0.0276586333718786,-0.018,0.042));
#998=CARTESIAN_POINT('',(0.0251442121562533,-0.0163636363636364,0.042));
#999=CARTESIAN_POINT('',(0.0260316549382387,-0.015,0.042));
#1000=CARTESIAN_POINT('',(0.0276586333718786,-0.015,0.042));
#1001=CARTESIAN_POINT('',(0.0251442121567473,-0.0163636363628773,0.0432162251816439));
#1002=CARTESIAN_POINT('',(0.026031654938713,-0.0149999999992149,0.0430850636439376));
#1003=CARTESIAN_POINT('',(0.027658633372442,-0.015,0.0430135209847004));
#1004=CARTESIAN_POINT('',(0.0252888593803458,-0.0161447105638081,0.0455925567490024));
#1005=CARTESIAN_POINT('',(0.0261675392084542,-0.0147677705406092,0.04521943066627));
#1006=CARTESIAN_POINT('',(0.0278177453183713,-0.0147993180165089,0.0449937972908366));
#1007=CARTESIAN_POINT('',(0.0260906565084342,-0.0148561401615394,0.050173285051652));
#1008=CARTESIAN_POINT('',(0.0269167089516937,-0.0134070153480591,0.0493097284638432));
#1009=CARTESIAN_POINT('',(0.0286997221592829,-0.0136181284815954,0.0488110708763759));
#1010=CARTESIAN_POINT('',(0.0273707949363088,-0.0124777253788041,0.0540438287645957));
#1011=CARTESIAN_POINT('',(0.0280605419685132,-0.0109314655659384,0.0526066673139445));
#1012=CARTESIAN_POINT('',(0.0301078744299388,-0.0114379149305409,0.0520365239704965));
#1013=CARTESIAN_POINT('',(0.0285971984528553,-0.0092046075509103,0.0570173262021906));
#1014=CARTESIAN_POINT('',(0.0290255500986701,-0.00784444304635725,0.0549081590734415));
#1015=CARTESIAN_POINT('',(0.031456918298141,-0.00843755692167331,0.0545144385018255));
#1016=CARTESIAN_POINT('',(0.0293578465143415,-0.00642020975243254,0.0586828811761718));
#1017=CARTESIAN_POINT('',(0.0295819295483043,-0.00532631791572992,0.0561248621968417));
#1018=CARTESIAN_POINT('',(0.0322936311657756,-0.00588519227306173,0.0559024009801432));
#1019=CARTESIAN_POINT('',(0.0298783819560425,-0.00328180574597382,0.0597566546199497));
#1020=CARTESIAN_POINT('',(0.0299258642197892,-0.00266108329143387,0.056846917822833));
#1021=CARTESIAN_POINT('',(0.0328662201516468,-0.0030083219338095,0.0567972121832914));
#1022=CARTESIAN_POINT('',(0.0300600784604529,-3.66219830588163E-5,0.0601201862025121));
#1023=CARTESIAN_POINT('',(0.0300371481420666,-3.01676574380519E-5,0.057076588668828));
#1024=CARTESIAN_POINT('',(0.0330660863064982,-3.35701511380336E-5,0.0571001551687601));
#1025=CARTESIAN_POINT('',(0.0298812293350205,0.00326412254943559,0.0597624495878916));
#1026=CARTESIAN_POINT('',(0.0299271342773708,0.00264783177893688,0.0568500072552429));
#1027=CARTESIAN_POINT('',(0.0328693522685227,0.00299211233698592,0.056802041323243));
#1028=CARTESIAN_POINT('',(0.0291940311079887,0.00742710629341337,0.0583449578739367));
#1029=CARTESIAN_POINT('',(0.0294810390614032,0.00613926101122654,0.055910617207509));
#1030=CARTESIAN_POINT('',(0.0321134342187868,0.0068081807689446,0.0556207982282804));
#1031=CARTESIAN_POINT('',(0.0276974733938732,0.0118726098317784,0.055023286302359));
#1032=CARTESIAN_POINT('',(0.0283755639149882,0.010251148101058,0.0534973845769378));
#1033=CARTESIAN_POINT('',(0.0304672207332671,0.0108832256792726,0.0528527385853008));
#1034=CARTESIAN_POINT('',(0.0257672782737422,0.0154498008499011,0.049206512094056));
#1035=CARTESIAN_POINT('',(0.0266407817129918,0.013994600923947,0.0485367539289063));
#1036=CARTESIAN_POINT('',(0.0283440061010924,0.0141623174452227,0.0480054267450407));
#1037=CARTESIAN_POINT('',(0.0251442121570472,0.0163636363624164,0.04443482628496));
#1038=CARTESIAN_POINT('',(0.0260316549390249,0.0149999999987392,0.0441722469827191));
#1039=CARTESIAN_POINT('',(0.0276586333728037,0.015,0.044029021904146));
#1040=CARTESIAN_POINT('',(0.0251442121562533,0.0163636363636364,0.042));
#1041=CARTESIAN_POINT('',(0.0260316549382387,0.015,0.042));
#1042=CARTESIAN_POINT('',(0.0276586333718787,0.015,0.042));
#1043=CARTESIAN_POINT('',(0.0276586333718786,0.018,0.042));
#1044=CARTESIAN_POINT('',(0.0276586333718786,-0.018,0.015));
#1045=CARTESIAN_POINT('',(0.0276586333718786,-0.018,0.015));
#1046=CARTESIAN_POINT('',(0.0276586333718786,-0.018,0.015));
#1047=CARTESIAN_POINT('',(0.03,-0.018,0.015));
#1048=CARTESIAN_POINT('',(0.048,-0.018,0.015));
#1049=CARTESIAN_POINT('',(0.0276586333718786,0.018,0.08));
#1050=CARTESIAN_POINT('',(0.0276586333718786,0.018,0.015));
#1051=CARTESIAN_POINT('',(0.,1.83697019872103E-18,0.015));
#1052=CARTESIAN_POINT('',(0.0276586333718786,0.018,0.015));
#1053=CARTESIAN_POINT('',(0.048,-3.46944695195361E-18,0.015));
#1054=CARTESIAN_POINT('',(0.048,0.018,0.015));
#1055=CARTESIAN_POINT('',(0.0276586333718786,0.018,0.015));
#1056=CARTESIAN_POINT('',(0.0276586333718786,0.018,0.015));
#1057=CARTESIAN_POINT('',(0.045,0.018,0.015));
#1058=MECHANICAL_DESIGN_GEOMETRIC_PRESENTATION_REPRESENTATION('',(#558),
#1059);
#1059=(
GEOMETRIC_REPRESENTATION_CONTEXT(3)
GLOBAL_UNCERTAINTY_ASSIGNED_CONTEXT((#1060))
GLOBAL_UNIT_ASSIGNED_CONTEXT((#1063,#1062,#1061))
REPRESENTATION_CONTEXT('Part 1','TOP_LEVEL_ASSEMBLY_PART')
);
#1060=UNCERTAINTY_MEASURE_WITH_UNIT(LENGTH_MEASURE(2.E-5),#1063,
'DISTANCE_ACCURACY_VALUE','Maximum Tolerance applied to model');
#1061=(
NAMED_UNIT(*)
SI_UNIT($,.STERADIAN.)
SOLID_ANGLE_UNIT()
);
#1062=(
NAMED_UNIT(*)
PLANE_ANGLE_UNIT()
SI_UNIT($,.RADIAN.)
);
#1063=(
LENGTH_UNIT()
NAMED_UNIT(*)
SI_UNIT($,.METRE.)
);
#1064=PRODUCT_DEFINITION_SHAPE('','',#1065);
#1065=PRODUCT_DEFINITION('','',#1067,#1066);
#1066=PRODUCT_DEFINITION_CONTEXT('',#1073,'design');
#1067=PRODUCT_DEFINITION_FORMATION_WITH_SPECIFIED_SOURCE('','',#1069,
 .NOT_KNOWN.);
#1068=PRODUCT_RELATED_PRODUCT_CATEGORY('','',(#1069));
#1069=PRODUCT('Part 1','Part 1','Part 1',(#1071));
#1070=PRODUCT_CATEGORY('','');
#1071=PRODUCT_CONTEXT('',#1073,'mechanical');
#1072=APPLICATION_PROTOCOL_DEFINITION('international standard',
'ap242_managed_model_based_3d_engineering',2020,#1073);
#1073=APPLICATION_CONTEXT('managed model based 3d engineering');
ENDSEC;
END-ISO-10303-21;
