ISO-10303-21;
HEADER;
/* Generated by software containing ST-Developer
 * from STEP Tools, Inc. (www.steptools.com) 
 */
/* OPTION: using custom renumber hook */

FILE_DESCRIPTION(
/* description */ ('STEP AP242 Edition 2',
'CAx-IF Rec.Pracs.---Representation and Presentation of Product Manufa
cturing Information (PMI)---4.0---2014-10-13',
'CAx-IF Rec.Pracs.---3D Tessellated Geometry---0.4---2014-09-14','2;1',
'CAx-IF Rec.Pracs.---User Defined Attributes---1.5---2016-08-15'),
/* implementation_level */ '2;1');

FILE_NAME(
/* name */ 'Part Studio 1',
/* time_stamp */ '2026-07-15T15:18:09Z',
/* author */ (''),
/* organization */ (''),
/* preprocessor_version */ 'ST-DEVELOPER v20',
/* originating_system */ 'ONSHAPE BY PTC INC, 1.217',
/* authorisation */ '  ');

FILE_SCHEMA (('AP242_MANAGED_MODEL_BASED_3D_ENGINEERING_MIM_LF { 1 0 10303 442 3 1 4 }'));
ENDSEC;

DATA;
#10=SHAPE_REPRESENTATION_RELATIONSHIP('','',#358,#11);
#11=ADVANCED_BREP_SHAPE_REPRESENTATION('',(#356),#693);
#12=PLANE('',#373);
#13=PLANE('',#378);
#14=PLANE('',#388);
#15=PLANE('',#389);
#16=PLANE('',#390);
#17=PLANE('',#393);
#18=PLANE('',#395);
#19=VERTEX_LOOP('',#226);
#20=CONICAL_SURFACE('',#370,0.,1.42593399887937);
#21=CONICAL_SURFACE('',#371,0.01775,0.785398163397544);
#22=CONICAL_SURFACE('',#383,0.0182735,0.0296603375120608);
#23=CONICAL_SURFACE('',#387,0.01775,0.785398163397544);
#24=CONICAL_SURFACE('',#391,0.0221995,0.785398163397448);
#25=CONICAL_SURFACE('',#392,0.0221995,0.785398163397448);
#26=B_SPLINE_CURVE_WITH_KNOTS('',3,(#507,#508,#509,#510,#511),
 .UNSPECIFIED.,.F.,.F.,(4,1,4),(0.00740396119384636,0.00891000180358956,
0.0104160424133328),.UNSPECIFIED.);
#27=B_SPLINE_CURVE_WITH_KNOTS('',3,(#515,#516,#517,#518,#519),
 .UNSPECIFIED.,.F.,.F.,(4,1,4),(0.00740396119384584,0.00891000180358905,
0.0104160424133323),.UNSPECIFIED.);
#28=B_SPLINE_CURVE_WITH_KNOTS('',3,(#524,#525,#526,#527,#528),
 .UNSPECIFIED.,.F.,.F.,(4,1,4),(0.0113388233916978,0.0128477513785578,0.0143566793654178),
 .UNSPECIFIED.);
#29=B_SPLINE_CURVE_WITH_KNOTS('',3,(#529,#530,#531,#532,#533),
 .UNSPECIFIED.,.F.,.F.,(4,1,4),(0.011338823391698,0.0128477513785581,0.0143566793654181),
 .UNSPECIFIED.);
#30=B_SPLINE_CURVE_WITH_KNOTS('',3,(#535,#536,#537,#538,#539,#540,#541),
 .UNSPECIFIED.,.F.,.F.,(4,1,1,1,4),(0.0345358919307205,0.0415182294526995,
0.0485005669746786,0.0554829044966577,0.0624652420186367),.UNSPECIFIED.);
#31=B_SPLINE_CURVE_WITH_KNOTS('',3,(#542,#543,#544,#545,#546,#547,#548),
 .UNSPECIFIED.,.F.,.F.,(4,1,1,1,4),(0.0345358919307204,0.0415182294526995,
0.0485005669746785,0.0554829044966576,0.0624652420186366),.UNSPECIFIED.);
#32=B_SPLINE_CURVE_WITH_KNOTS('',3,(#551,#552,#553,#554),.UNSPECIFIED.,
 .F.,.F.,(4,4),(7.88905268445128E-5,0.00085837175799424),.UNSPECIFIED.);
#33=B_SPLINE_CURVE_WITH_KNOTS('',3,(#556,#557,#558,#559),.UNSPECIFIED.,
 .F.,.F.,(4,4),(7.76277493476923E-5,0.000857108980497049),.UNSPECIFIED.);
#34=B_SPLINE_CURVE_WITH_KNOTS('',3,(#591,#592,#593,#594,#595,#596,#597,
#598,#599,#600,#601,#602,#603,#604,#605,#606,#607,#608,#609),
 .UNSPECIFIED.,.F.,.F.,(4,1,1,1,1,1,1,1,1,1,1,1,1,1,1,1,4),(1.97461538750726E-7,
0.00325820600373824,0.00651621454593773,0.00977422308813722,0.0130322316303367,
0.0162902401725362,0.0195482487147357,0.0228062572569352,0.0260642657991347,
0.0293222743413342,0.0325802828835336,0.0358382914257331,0.0390962999679326,
0.0423543085101321,0.0456123170523316,0.0488703255945311,0.0521283341367306),
 .UNSPECIFIED.);
#35=B_SPLINE_CURVE_WITH_KNOTS('',3,(#611,#612,#613,#614,#615,#616,#617,
#618,#619,#620,#621,#622,#623,#624,#625,#626,#627,#628,#629),
 .UNSPECIFIED.,.F.,.F.,(4,1,1,1,1,1,1,1,1,1,1,1,1,1,1,1,4),(1.97461538750726E-7,
0.00325820600373824,0.00651621454593774,0.00977422308813723,0.0130322316303367,
0.0162902401725362,0.0195482487147357,0.0228062572569352,0.0260642657991347,
0.0293222743413342,0.0325802828835337,0.0358382914257332,0.0390962999679327,
0.0423543085101322,0.0456123170523316,0.0488703255945311,0.0521283341367306),
 .UNSPECIFIED.);
#36=B_SPLINE_CURVE_WITH_KNOTS('',3,(#632,#633,#634,#635),.UNSPECIFIED.,
 .F.,.F.,(4,4),(0.0495154711783443,0.0713797513845914),.UNSPECIFIED.);
#37=B_SPLINE_CURVE_WITH_KNOTS('',3,(#637,#638,#639,#640),.UNSPECIFIED.,
 .F.,.F.,(4,4),(0.049518564841522,0.0713828459777272),.UNSPECIFIED.);
#38=B_SPLINE_CURVE_WITH_KNOTS('',3,(#644,#645,#646,#647),.UNSPECIFIED.,
 .F.,.F.,(4,4),(0.0495185648415219,0.0713828459777272),.UNSPECIFIED.);
#39=B_SPLINE_CURVE_WITH_KNOTS('',3,(#648,#649,#650,#651),.UNSPECIFIED.,
 .F.,.F.,(4,4),(0.0495154711783443,0.0713797513845914),.UNSPECIFIED.);
#40=B_SPLINE_CURVE_WITH_KNOTS('',3,(#655,#656,#657,#658),.UNSPECIFIED.,
 .F.,.F.,(4,4),(7.76277493476923E-5,0.000857108980497049),.UNSPECIFIED.);
#41=B_SPLINE_CURVE_WITH_KNOTS('',3,(#659,#660,#661,#662),.UNSPECIFIED.,
 .F.,.F.,(4,4),(7.88905268445128E-5,0.00085837175799424),.UNSPECIFIED.);
#42=B_SPLINE_CURVE_WITH_KNOTS('',3,(#664,#665,#666,#667),.UNSPECIFIED.,
 .F.,.F.,(4,4),(0.,0.0048201967677534),.UNSPECIFIED.);
#43=B_SPLINE_CURVE_WITH_KNOTS('',3,(#668,#669,#670,#671),.UNSPECIFIED.,
 .F.,.F.,(4,4),(0.,0.0048201967677534),.UNSPECIFIED.);
#44=B_SPLINE_CURVE_WITH_KNOTS('',3,(#676,#677,#678,#679),.UNSPECIFIED.,
 .F.,.F.,(4,4),(0.,0.0048201967677534),.UNSPECIFIED.);
#45=B_SPLINE_CURVE_WITH_KNOTS('',3,(#680,#681,#682,#683),.UNSPECIFIED.,
 .F.,.F.,(4,4),(0.,0.0048201967677534),.UNSPECIFIED.);
#46=TOROIDAL_SURFACE('',#366,0.01575,0.002);
#47=TOROIDAL_SURFACE('',#368,0.01575,0.002);
#48=CIRCLE('',#361,0.01775);
#49=CIRCLE('',#362,0.01775);
#50=CIRCLE('',#364,0.01775);
#51=CIRCLE('',#365,0.01775);
#52=CIRCLE('',#367,0.0160387124020019);
#53=CIRCLE('',#369,0.0160387124020019);
#54=CIRCLE('',#372,0.0182735);
#55=CIRCLE('',#374,0.0191995);
#56=CIRCLE('',#376,0.0221995);
#57=CIRCLE('',#377,0.0221995);
#58=CIRCLE('',#379,0.0191995);
#59=CIRCLE('',#381,0.0221995);
#60=CIRCLE('',#382,0.0221995);
#61=CIRCLE('',#384,0.0182735);
#62=CIRCLE('',#385,0.0215512315125844);
#63=CIRCLE('',#386,0.0215512315125844);
#64=ORIENTED_EDGE('',*,*,#164,.F.);
#65=ORIENTED_EDGE('',*,*,#165,.T.);
#66=ORIENTED_EDGE('',*,*,#166,.T.);
#67=ORIENTED_EDGE('',*,*,#167,.F.);
#68=ORIENTED_EDGE('',*,*,#168,.F.);
#69=ORIENTED_EDGE('',*,*,#169,.F.);
#70=ORIENTED_EDGE('',*,*,#170,.T.);
#71=ORIENTED_EDGE('',*,*,#171,.T.);
#72=ORIENTED_EDGE('',*,*,#169,.T.);
#73=ORIENTED_EDGE('',*,*,#172,.T.);
#74=ORIENTED_EDGE('',*,*,#173,.F.);
#75=ORIENTED_EDGE('',*,*,#174,.F.);
#76=ORIENTED_EDGE('',*,*,#175,.F.);
#77=ORIENTED_EDGE('',*,*,#176,.T.);
#78=ORIENTED_EDGE('',*,*,#167,.T.);
#79=ORIENTED_EDGE('',*,*,#177,.F.);
#80=ORIENTED_EDGE('',*,*,#178,.F.);
#81=ORIENTED_EDGE('',*,*,#175,.T.);
#82=ORIENTED_EDGE('',*,*,#179,.T.);
#83=ORIENTED_EDGE('',*,*,#173,.T.);
#84=ORIENTED_EDGE('',*,*,#180,.F.);
#85=ORIENTED_EDGE('',*,*,#171,.F.);
#86=ORIENTED_EDGE('',*,*,#181,.F.);
#87=ORIENTED_EDGE('',*,*,#182,.T.);
#88=ORIENTED_EDGE('',*,*,#183,.T.);
#89=ORIENTED_EDGE('',*,*,#184,.T.);
#90=ORIENTED_EDGE('',*,*,#185,.T.);
#91=ORIENTED_EDGE('',*,*,#186,.T.);
#92=ORIENTED_EDGE('',*,*,#187,.T.);
#93=ORIENTED_EDGE('',*,*,#188,.F.);
#94=ORIENTED_EDGE('',*,*,#189,.F.);
#95=ORIENTED_EDGE('',*,*,#190,.T.);
#96=ORIENTED_EDGE('',*,*,#191,.F.);
#97=ORIENTED_EDGE('',*,*,#192,.T.);
#98=ORIENTED_EDGE('',*,*,#193,.F.);
#99=ORIENTED_EDGE('',*,*,#194,.F.);
#100=ORIENTED_EDGE('',*,*,#195,.F.);
#101=ORIENTED_EDGE('',*,*,#182,.F.);
#102=ORIENTED_EDGE('',*,*,#196,.F.);
#103=ORIENTED_EDGE('',*,*,#197,.F.);
#104=ORIENTED_EDGE('',*,*,#198,.F.);
#105=ORIENTED_EDGE('',*,*,#194,.T.);
#106=ORIENTED_EDGE('',*,*,#199,.F.);
#107=ORIENTED_EDGE('',*,*,#200,.F.);
#108=ORIENTED_EDGE('',*,*,#201,.T.);
#109=ORIENTED_EDGE('',*,*,#188,.T.);
#110=ORIENTED_EDGE('',*,*,#202,.T.);
#111=ORIENTED_EDGE('',*,*,#203,.F.);
#112=ORIENTED_EDGE('',*,*,#204,.F.);
#113=ORIENTED_EDGE('',*,*,#197,.T.);
#114=ORIENTED_EDGE('',*,*,#205,.F.);
#115=ORIENTED_EDGE('',*,*,#165,.F.);
#116=ORIENTED_EDGE('',*,*,#193,.T.);
#117=ORIENTED_EDGE('',*,*,#206,.T.);
#118=ORIENTED_EDGE('',*,*,#189,.T.);
#119=ORIENTED_EDGE('',*,*,#207,.T.);
#120=ORIENTED_EDGE('',*,*,#191,.T.);
#121=ORIENTED_EDGE('',*,*,#198,.T.);
#122=ORIENTED_EDGE('',*,*,#208,.F.);
#123=ORIENTED_EDGE('',*,*,#199,.T.);
#124=ORIENTED_EDGE('',*,*,#200,.T.);
#125=ORIENTED_EDGE('',*,*,#208,.T.);
#126=ORIENTED_EDGE('',*,*,#203,.T.);
#127=ORIENTED_EDGE('',*,*,#209,.F.);
#128=ORIENTED_EDGE('',*,*,#187,.F.);
#129=ORIENTED_EDGE('',*,*,#210,.T.);
#130=ORIENTED_EDGE('',*,*,#183,.F.);
#131=ORIENTED_EDGE('',*,*,#211,.T.);
#132=ORIENTED_EDGE('',*,*,#185,.F.);
#133=ORIENTED_EDGE('',*,*,#201,.F.);
#134=ORIENTED_EDGE('',*,*,#209,.T.);
#135=ORIENTED_EDGE('',*,*,#202,.F.);
#136=ORIENTED_EDGE('',*,*,#211,.F.);
#137=ORIENTED_EDGE('',*,*,#184,.F.);
#138=ORIENTED_EDGE('',*,*,#210,.F.);
#139=ORIENTED_EDGE('',*,*,#186,.F.);
#140=ORIENTED_EDGE('',*,*,#207,.F.);
#141=ORIENTED_EDGE('',*,*,#190,.F.);
#142=ORIENTED_EDGE('',*,*,#206,.F.);
#143=ORIENTED_EDGE('',*,*,#192,.F.);
#144=ORIENTED_EDGE('',*,*,#174,.T.);
#145=ORIENTED_EDGE('',*,*,#179,.F.);
#146=ORIENTED_EDGE('',*,*,#177,.T.);
#147=ORIENTED_EDGE('',*,*,#166,.F.);
#148=ORIENTED_EDGE('',*,*,#212,.T.);
#149=ORIENTED_EDGE('',*,*,#170,.F.);
#150=ORIENTED_EDGE('',*,*,#181,.T.);
#151=ORIENTED_EDGE('',*,*,#212,.F.);
#152=ORIENTED_EDGE('',*,*,#205,.T.);
#153=ORIENTED_EDGE('',*,*,#196,.T.);
#154=ORIENTED_EDGE('',*,*,#168,.T.);
#155=ORIENTED_EDGE('',*,*,#213,.F.);
#156=ORIENTED_EDGE('',*,*,#164,.T.);
#157=ORIENTED_EDGE('',*,*,#176,.F.);
#158=ORIENTED_EDGE('',*,*,#178,.T.);
#159=ORIENTED_EDGE('',*,*,#172,.F.);
#160=ORIENTED_EDGE('',*,*,#204,.T.);
#161=ORIENTED_EDGE('',*,*,#213,.T.);
#162=ORIENTED_EDGE('',*,*,#180,.T.);
#163=ORIENTED_EDGE('',*,*,#195,.T.);
#164=EDGE_CURVE('',#214,#215,#247,.T.);
#165=EDGE_CURVE('',#214,#216,#48,.T.);
#166=EDGE_CURVE('',#216,#217,#248,.T.);
#167=EDGE_CURVE('',#215,#217,#49,.T.);
#168=EDGE_CURVE('',#218,#219,#249,.F.);
#169=EDGE_CURVE('',#220,#218,#50,.T.);
#170=EDGE_CURVE('',#220,#221,#250,.F.);
#171=EDGE_CURVE('',#221,#219,#51,.T.);
#172=EDGE_CURVE('',#218,#222,#26,.T.);
#173=EDGE_CURVE('',#223,#222,#52,.T.);
#174=EDGE_CURVE('',#220,#223,#27,.T.);
#175=EDGE_CURVE('',#224,#225,#53,.T.);
#176=EDGE_CURVE('',#224,#215,#28,.T.);
#177=EDGE_CURVE('',#225,#217,#29,.T.);
#178=EDGE_CURVE('',#224,#222,#30,.T.);
#179=EDGE_CURVE('',#225,#223,#31,.T.);
#180=EDGE_CURVE('',#219,#227,#32,.T.);
#181=EDGE_CURVE('',#228,#221,#33,.T.);
#182=EDGE_CURVE('',#228,#227,#54,.T.);
#183=EDGE_CURVE('',#229,#230,#251,.T.);
#184=EDGE_CURVE('',#230,#229,#55,.T.);
#185=EDGE_CURVE('',#231,#232,#252,.F.);
#186=EDGE_CURVE('',#232,#233,#56,.F.);
#187=EDGE_CURVE('',#233,#234,#253,.T.);
#188=EDGE_CURVE('',#231,#234,#57,.T.);
#189=EDGE_CURVE('',#235,#236,#254,.T.);
#190=EDGE_CURVE('',#235,#236,#58,.T.);
#191=EDGE_CURVE('',#237,#238,#255,.T.);
#192=EDGE_CURVE('',#237,#239,#59,.F.);
#193=EDGE_CURVE('',#240,#239,#256,.F.);
#194=EDGE_CURVE('',#238,#240,#60,.T.);
#195=EDGE_CURVE('',#227,#241,#34,.T.);
#196=EDGE_CURVE('',#242,#228,#35,.T.);
#197=EDGE_CURVE('',#241,#242,#61,.T.);
#198=EDGE_CURVE('',#238,#243,#36,.T.);
#199=EDGE_CURVE('',#244,#240,#37,.T.);
#200=EDGE_CURVE('',#245,#244,#62,.F.);
#201=EDGE_CURVE('',#245,#231,#38,.T.);
#202=EDGE_CURVE('',#234,#246,#39,.T.);
#203=EDGE_CURVE('',#243,#246,#63,.F.);
#204=EDGE_CURVE('',#241,#214,#40,.T.);
#205=EDGE_CURVE('',#216,#242,#41,.T.);
#206=EDGE_CURVE('',#239,#235,#42,.T.);
#207=EDGE_CURVE('',#236,#237,#43,.T.);
#208=EDGE_CURVE('',#244,#243,#257,.T.);
#209=EDGE_CURVE('',#245,#246,#258,.T.);
#210=EDGE_CURVE('',#233,#230,#44,.T.);
#211=EDGE_CURVE('',#229,#232,#45,.T.);
#212=EDGE_CURVE('',#216,#221,#259,.T.);
#213=EDGE_CURVE('',#214,#219,#260,.T.);
#214=VERTEX_POINT('',#490);
#215=VERTEX_POINT('',#491);
#216=VERTEX_POINT('',#493);
#217=VERTEX_POINT('',#495);
#218=VERTEX_POINT('',#499);
#219=VERTEX_POINT('',#500);
#220=VERTEX_POINT('',#502);
#221=VERTEX_POINT('',#504);
#222=VERTEX_POINT('',#512);
#223=VERTEX_POINT('',#514);
#224=VERTEX_POINT('',#522);
#225=VERTEX_POINT('',#523);
#226=VERTEX_POINT('',#549);
#227=VERTEX_POINT('',#555);
#228=VERTEX_POINT('',#560);
#229=VERTEX_POINT('',#564);
#230=VERTEX_POINT('',#565);
#231=VERTEX_POINT('',#569);
#232=VERTEX_POINT('',#570);
#233=VERTEX_POINT('',#572);
#234=VERTEX_POINT('',#574);
#235=VERTEX_POINT('',#578);
#236=VERTEX_POINT('',#579);
#237=VERTEX_POINT('',#583);
#238=VERTEX_POINT('',#584);
#239=VERTEX_POINT('',#586);
#240=VERTEX_POINT('',#588);
#241=VERTEX_POINT('',#610);
#242=VERTEX_POINT('',#630);
#243=VERTEX_POINT('',#636);
#244=VERTEX_POINT('',#641);
#245=VERTEX_POINT('',#643);
#246=VERTEX_POINT('',#652);
#247=LINE('',#489,#261);
#248=LINE('',#494,#262);
#249=LINE('',#498,#263);
#250=LINE('',#503,#264);
#251=LINE('',#563,#265);
#252=LINE('',#568,#266);
#253=LINE('',#573,#267);
#254=LINE('',#577,#268);
#255=LINE('',#582,#269);
#256=LINE('',#587,#270);
#257=LINE('',#672,#271);
#258=LINE('',#674,#272);
#259=LINE('',#687,#273);
#260=LINE('',#690,#274);
#261=VECTOR('',#401,1.);
#262=VECTOR('',#404,1.);
#263=VECTOR('',#409,1.);
#264=VECTOR('',#412,1.);
#265=VECTOR('',#431,1.);
#266=VECTOR('',#436,1.);
#267=VECTOR('',#439,1.);
#268=VECTOR('',#444,1.);
#269=VECTOR('',#449,1.);
#270=VECTOR('',#452,1.);
#271=VECTOR('',#467,1.);
#272=VECTOR('',#470,1.);
#273=VECTOR('',#479,1.);
#274=VECTOR('',#484,1.);
#275=EDGE_LOOP('',(#64,#65,#66,#67));
#276=EDGE_LOOP('',(#68,#69,#70,#71));
#277=EDGE_LOOP('',(#72,#73,#74,#75));
#278=EDGE_LOOP('',(#76,#77,#78,#79));
#279=EDGE_LOOP('',(#80,#81,#82,#83));
#280=EDGE_LOOP('',(#84,#85,#86,#87));
#281=EDGE_LOOP('',(#88,#89));
#282=EDGE_LOOP('',(#90,#91,#92,#93));
#283=EDGE_LOOP('',(#94,#95));
#284=EDGE_LOOP('',(#96,#97,#98,#99));
#285=EDGE_LOOP('',(#100,#101,#102,#103));
#286=EDGE_LOOP('',(#104,#105,#106,#107,#108,#109,#110,#111));
#287=EDGE_LOOP('',(#112,#113,#114,#115));
#288=EDGE_LOOP('',(#116,#117,#118,#119,#120,#121,#122,#123));
#289=EDGE_LOOP('',(#124,#125,#126,#127));
#290=EDGE_LOOP('',(#128,#129,#130,#131,#132,#133,#134,#135));
#291=EDGE_LOOP('',(#136,#137,#138,#139));
#292=EDGE_LOOP('',(#140,#141,#142,#143));
#293=EDGE_LOOP('',(#144,#145,#146,#147,#148,#149));
#294=EDGE_LOOP('',(#150,#151,#152,#153));
#295=EDGE_LOOP('',(#154,#155,#156,#157,#158,#159));
#296=EDGE_LOOP('',(#160,#161,#162,#163));
#297=FACE_BOUND('',#275,.T.);
#298=FACE_BOUND('',#276,.T.);
#299=FACE_BOUND('',#277,.T.);
#300=FACE_BOUND('',#278,.T.);
#301=FACE_BOUND('',#279,.T.);
#302=FACE_BOUND('',#19,.T.);
#303=FACE_BOUND('',#280,.T.);
#304=FACE_BOUND('',#281,.T.);
#305=FACE_BOUND('',#282,.T.);
#306=FACE_BOUND('',#283,.T.);
#307=FACE_BOUND('',#284,.T.);
#308=FACE_BOUND('',#285,.T.);
#309=FACE_BOUND('',#286,.T.);
#310=FACE_BOUND('',#287,.T.);
#311=FACE_BOUND('',#288,.T.);
#312=FACE_BOUND('',#289,.T.);
#313=FACE_BOUND('',#290,.T.);
#314=FACE_BOUND('',#291,.T.);
#315=FACE_BOUND('',#292,.T.);
#316=FACE_BOUND('',#293,.T.);
#317=FACE_BOUND('',#294,.T.);
#318=FACE_BOUND('',#295,.T.);
#319=FACE_BOUND('',#296,.T.);
#320=CYLINDRICAL_SURFACE('',#360,0.01775);
#321=CYLINDRICAL_SURFACE('',#363,0.01775);
#322=CYLINDRICAL_SURFACE('',#375,0.0221995);
#323=CYLINDRICAL_SURFACE('',#380,0.0221995);
#324=CYLINDRICAL_SURFACE('',#394,0.011);
#325=CYLINDRICAL_SURFACE('',#396,0.011);
#326=ADVANCED_FACE('',(#297),#320,.T.);
#327=ADVANCED_FACE('',(#298),#321,.T.);
#328=ADVANCED_FACE('',(#299),#46,.T.);
#329=ADVANCED_FACE('',(#300),#47,.T.);
#330=ADVANCED_FACE('',(#301,#302),#20,.T.);
#331=ADVANCED_FACE('',(#303),#21,.T.);
#332=ADVANCED_FACE('',(#304),#12,.T.);
#333=ADVANCED_FACE('',(#305),#322,.T.);
#334=ADVANCED_FACE('',(#306),#13,.T.);
#335=ADVANCED_FACE('',(#307),#323,.T.);
#336=ADVANCED_FACE('',(#308,#309),#22,.T.);
#337=ADVANCED_FACE('',(#310),#23,.T.);
#338=ADVANCED_FACE('',(#311),#14,.F.);
#339=ADVANCED_FACE('',(#312),#15,.F.);
#340=ADVANCED_FACE('',(#313),#16,.T.);
#341=ADVANCED_FACE('',(#314),#24,.T.);
#342=ADVANCED_FACE('',(#315),#25,.T.);
#343=ADVANCED_FACE('',(#316),#17,.T.);
#344=ADVANCED_FACE('',(#317),#324,.F.);
#345=ADVANCED_FACE('',(#318),#18,.F.);
#346=ADVANCED_FACE('',(#319),#325,.F.);
#347=CLOSED_SHELL('',(#326,#327,#328,#329,#330,#331,#332,#333,#334,#335,
#336,#337,#338,#339,#340,#341,#342,#343,#344,#345,#346));
#348=STYLED_ITEM('',(#349),#356);
#349=PRESENTATION_STYLE_ASSIGNMENT((#350));
#350=SURFACE_STYLE_USAGE(.BOTH.,#351);
#351=SURFACE_SIDE_STYLE('',(#352));
#352=SURFACE_STYLE_FILL_AREA(#353);
#353=FILL_AREA_STYLE('',(#354));
#354=FILL_AREA_STYLE_COLOUR('',#355);
#355=COLOUR_RGB('',0.811764705882353,0.858823529411765,0.898039215686275);
#356=MANIFOLD_SOLID_BREP('Part 1',#347);
#357=SHAPE_DEFINITION_REPRESENTATION(#698,#358);
#358=SHAPE_REPRESENTATION('Part 1',(#359),#693);
#359=AXIS2_PLACEMENT_3D('',#487,#397,#398);
#360=AXIS2_PLACEMENT_3D('',#488,#399,#400);
#361=AXIS2_PLACEMENT_3D('',#492,#402,#403);
#362=AXIS2_PLACEMENT_3D('',#496,#405,#406);
#363=AXIS2_PLACEMENT_3D('',#497,#407,#408);
#364=AXIS2_PLACEMENT_3D('',#501,#410,#411);
#365=AXIS2_PLACEMENT_3D('',#505,#413,#414);
#366=AXIS2_PLACEMENT_3D('',#506,#415,#416);
#367=AXIS2_PLACEMENT_3D('',#513,#417,#418);
#368=AXIS2_PLACEMENT_3D('',#520,#419,#420);
#369=AXIS2_PLACEMENT_3D('',#521,#421,#422);
#370=AXIS2_PLACEMENT_3D('',#534,#423,#424);
#371=AXIS2_PLACEMENT_3D('',#550,#425,#426);
#372=AXIS2_PLACEMENT_3D('',#561,#427,#428);
#373=AXIS2_PLACEMENT_3D('',#562,#429,#430);
#374=AXIS2_PLACEMENT_3D('',#566,#432,#433);
#375=AXIS2_PLACEMENT_3D('',#567,#434,#435);
#376=AXIS2_PLACEMENT_3D('',#571,#437,#438);
#377=AXIS2_PLACEMENT_3D('',#575,#440,#441);
#378=AXIS2_PLACEMENT_3D('',#576,#442,#443);
#379=AXIS2_PLACEMENT_3D('',#580,#445,#446);
#380=AXIS2_PLACEMENT_3D('',#581,#447,#448);
#381=AXIS2_PLACEMENT_3D('',#585,#450,#451);
#382=AXIS2_PLACEMENT_3D('',#589,#453,#454);
#383=AXIS2_PLACEMENT_3D('',#590,#455,#456);
#384=AXIS2_PLACEMENT_3D('',#631,#457,#458);
#385=AXIS2_PLACEMENT_3D('',#642,#459,#460);
#386=AXIS2_PLACEMENT_3D('',#653,#461,#462);
#387=AXIS2_PLACEMENT_3D('',#654,#463,#464);
#388=AXIS2_PLACEMENT_3D('',#663,#465,#466);
#389=AXIS2_PLACEMENT_3D('',#673,#468,#469);
#390=AXIS2_PLACEMENT_3D('',#675,#471,#472);
#391=AXIS2_PLACEMENT_3D('',#684,#473,#474);
#392=AXIS2_PLACEMENT_3D('',#685,#475,#476);
#393=AXIS2_PLACEMENT_3D('',#686,#477,#478);
#394=AXIS2_PLACEMENT_3D('',#688,#480,#481);
#395=AXIS2_PLACEMENT_3D('',#689,#482,#483);
#396=AXIS2_PLACEMENT_3D('',#691,#485,#486);
#397=DIRECTION('',(0.,0.,1.));
#398=DIRECTION('',(1.,0.,0.));
#399=DIRECTION('',(0.,-1.,0.));
#400=DIRECTION('',(0.,0.,-1.));
#401=DIRECTION('',(0.,-1.,0.));
#402=DIRECTION('',(0.,-1.,0.));
#403=DIRECTION('',(0.,0.,-1.));
#404=DIRECTION('',(0.,-1.,0.));
#405=DIRECTION('',(0.,-1.,0.));
#406=DIRECTION('',(0.,0.,-1.));
#407=DIRECTION('',(0.,-1.,0.));
#408=DIRECTION('',(0.,0.,-1.));
#409=DIRECTION('',(0.,-1.,0.));
#410=DIRECTION('',(0.,-1.,0.));
#411=DIRECTION('',(0.,0.,-1.));
#412=DIRECTION('',(0.,-1.,0.));
#413=DIRECTION('',(0.,-1.,0.));
#414=DIRECTION('',(0.,0.,-1.));
#415=DIRECTION('',(0.,-1.,0.));
#416=DIRECTION('',(0.,0.,-1.));
#417=DIRECTION('',(0.,-1.,0.));
#418=DIRECTION('',(0.,0.,-1.));
#419=DIRECTION('',(0.,-1.,0.));
#420=DIRECTION('',(0.,0.,-1.));
#421=DIRECTION('',(0.,-1.,0.));
#422=DIRECTION('',(0.,0.,-1.));
#423=DIRECTION('',(0.,1.,0.));
#424=DIRECTION('',(0.,0.,1.));
#425=DIRECTION('',(0.,1.,0.));
#426=DIRECTION('',(0.,0.,1.));
#427=DIRECTION('',(0.,-1.,0.));
#428=DIRECTION('',(0.,0.,-1.));
#429=DIRECTION('',(0.,1.,0.));
#430=DIRECTION('',(0.,0.,1.));
#431=DIRECTION('',(1.,0.,0.));
#432=DIRECTION('',(0.,1.,0.));
#433=DIRECTION('',(0.,0.,1.));
#434=DIRECTION('',(0.,-1.,0.));
#435=DIRECTION('',(0.,0.,-1.));
#436=DIRECTION('',(0.,-1.,0.));
#437=DIRECTION('',(0.,1.,0.));
#438=DIRECTION('',(0.,0.,1.));
#439=DIRECTION('',(0.,-1.,0.));
#440=DIRECTION('',(0.,-1.,0.));
#441=DIRECTION('',(0.,0.,-1.));
#442=DIRECTION('',(0.,1.,0.));
#443=DIRECTION('',(0.,0.,1.));
#444=DIRECTION('',(1.,0.,0.));
#445=DIRECTION('',(0.,1.,0.));
#446=DIRECTION('',(0.,0.,1.));
#447=DIRECTION('',(0.,-1.,0.));
#448=DIRECTION('',(0.,0.,-1.));
#449=DIRECTION('',(0.,-1.,0.));
#450=DIRECTION('',(0.,1.,0.));
#451=DIRECTION('',(0.,0.,1.));
#452=DIRECTION('',(0.,-1.,0.));
#453=DIRECTION('',(0.,-1.,0.));
#454=DIRECTION('',(0.,0.,-1.));
#455=DIRECTION('',(0.,1.,0.));
#456=DIRECTION('',(0.,0.,1.));
#457=DIRECTION('',(0.,-1.,0.));
#458=DIRECTION('',(0.,0.,-1.));
#459=DIRECTION('',(0.,-1.,0.));
#460=DIRECTION('',(0.,0.,-1.));
#461=DIRECTION('',(0.,-1.,0.));
#462=DIRECTION('',(0.,0.,-1.));
#463=DIRECTION('',(0.,1.,0.));
#464=DIRECTION('',(0.,0.,1.));
#465=DIRECTION('',(0.,-6.93889390390723E-17,1.));
#466=DIRECTION('',(0.,-1.,-6.93889390390723E-17));
#467=DIRECTION('',(1.,0.,0.));
#468=DIRECTION('',(0.,-1.,0.));
#469=DIRECTION('',(0.,0.,-1.));
#470=DIRECTION('',(1.,0.,0.));
#471=DIRECTION('',(0.,6.93889390390723E-17,1.));
#472=DIRECTION('',(0.,-1.,6.93889390390723E-17));
#473=DIRECTION('',(0.,-1.,0.));
#474=DIRECTION('',(0.,0.,-1.));
#475=DIRECTION('',(0.,-1.,0.));
#476=DIRECTION('',(0.,0.,-1.));
#477=DIRECTION('',(1.,0.,0.));
#478=DIRECTION('',(0.,0.,-1.));
#479=DIRECTION('',(0.,0.,1.));
#480=DIRECTION('',(0.,0.,1.));
#481=DIRECTION('',(1.,0.,0.));
#482=DIRECTION('',(1.,0.,0.));
#483=DIRECTION('',(0.,0.,-1.));
#484=DIRECTION('',(0.,0.,1.));
#485=DIRECTION('',(0.,0.,1.));
#486=DIRECTION('',(1.,0.,0.));
#487=CARTESIAN_POINT('',(0.,0.,0.));
#488=CARTESIAN_POINT('',(0.,0.,0.));
#489=CARTESIAN_POINT('',(-0.00795000000000356,0.,-0.0158700976682547));
#490=CARTESIAN_POINT('',(-0.00795000000000356,-0.05825,-0.0158700976682552));
#491=CARTESIAN_POINT('',(-0.00795000000000356,-0.0734311533231627,-0.0158700976682547));
#492=CARTESIAN_POINT('',(0.,-0.05825,0.));
#493=CARTESIAN_POINT('',(0.00795000000000356,-0.05825,-0.0158700976682547));
#494=CARTESIAN_POINT('',(0.00795000000000356,0.,-0.0158700976682547));
#495=CARTESIAN_POINT('',(0.00795000000000356,-0.0734311533231627,-0.0158700976682547));
#496=CARTESIAN_POINT('',(0.,-0.0734311533231627,0.));
#497=CARTESIAN_POINT('',(0.,0.,0.));
#498=CARTESIAN_POINT('',(-0.00795000000000356,0.,0.0158700976682547));
#499=CARTESIAN_POINT('',(-0.00795000000000356,-0.0734311533231627,0.0158700976682547));
#500=CARTESIAN_POINT('',(-0.00795000000000355,-0.05825,0.0158700976682547));
#501=CARTESIAN_POINT('',(0.,-0.0734311533231627,0.));
#502=CARTESIAN_POINT('',(0.00795000000000356,-0.0734311533231627,0.0158700976682547));
#503=CARTESIAN_POINT('',(0.00795000000000356,0.,0.0158700976682547));
#504=CARTESIAN_POINT('',(0.00795000000000356,-0.05825,0.0158700976682552));
#505=CARTESIAN_POINT('',(0.,-0.05825,0.));
#506=CARTESIAN_POINT('',(0.,-0.0734311533231627,0.));
#507=CARTESIAN_POINT('',(-0.00795000000000356,-0.0734311533231627,0.0158700976682547));
#508=CARTESIAN_POINT('',(-0.00795000000000356,-0.0739333146459511,0.0158700976682547));
#509=CARTESIAN_POINT('',(-0.00795000000000356,-0.074924680964255,0.0154089023760742));
#510=CARTESIAN_POINT('',(-0.00795000000000356,-0.0753464569847467,0.0144328793803174));
#511=CARTESIAN_POINT('',(-0.00795000000000356,-0.0754102049013006,0.0139297449909923));
#512=CARTESIAN_POINT('',(-0.00795000000000356,-0.0754102049013006,0.0139297449909923));
#513=CARTESIAN_POINT('',(0.,-0.0754102049013006,0.));
#514=CARTESIAN_POINT('',(0.00795000000000356,-0.0754102049013006,0.0139297449909923));
#515=CARTESIAN_POINT('',(0.00795000000000356,-0.0734311533231627,0.0158700976682547));
#516=CARTESIAN_POINT('',(0.00795000000000356,-0.0739333146459511,0.0158700976682547));
#517=CARTESIAN_POINT('',(0.00795000000000356,-0.074924680964255,0.0154089023760742));
#518=CARTESIAN_POINT('',(0.00795000000000356,-0.0753464569847467,0.0144328793803174));
#519=CARTESIAN_POINT('',(0.00795000000000356,-0.0754102049013006,0.0139297449909923));
#520=CARTESIAN_POINT('',(0.,-0.0734311533231627,0.));
#521=CARTESIAN_POINT('',(0.,-0.0754102049013006,0.));
#522=CARTESIAN_POINT('',(-0.00795000000000356,-0.0754102049013006,-0.0139297449909923));
#523=CARTESIAN_POINT('',(0.00795000000000356,-0.0754102049013006,-0.0139297449909923));
#524=CARTESIAN_POINT('',(-0.00795000000000356,-0.0754102049013006,-0.0139297449909923));
#525=CARTESIAN_POINT('',(-0.00795000000000356,-0.0753468874285157,-0.0144294820761451));
#526=CARTESIAN_POINT('',(-0.00795000000000356,-0.0749285387760927,-0.0154056654233388));
#527=CARTESIAN_POINT('',(-0.00795000000000356,-0.073934710026026,-0.0158700976682547));
#528=CARTESIAN_POINT('',(-0.00795000000000356,-0.0734311533231627,-0.0158700976682547));
#529=CARTESIAN_POINT('',(0.00795000000000356,-0.0754102049013006,-0.0139297449909923));
#530=CARTESIAN_POINT('',(0.00795000000000356,-0.0753468874285158,-0.0144294820761451));
#531=CARTESIAN_POINT('',(0.00795000000000356,-0.0749285387760927,-0.0154056654233389));
#532=CARTESIAN_POINT('',(0.00795000000000356,-0.073934710026026,-0.0158700976682547));
#533=CARTESIAN_POINT('',(0.00795000000000356,-0.0734311533231627,-0.0158700976682547));
#534=CARTESIAN_POINT('',(0.,-0.07775,0.));
#535=CARTESIAN_POINT('',(-0.00795000000000356,-0.0754102049013007,-0.0139297449909923));
#536=CARTESIAN_POINT('',(-0.00795000000000356,-0.0757027586860354,-0.0116207460811576));
#537=CARTESIAN_POINT('',(-0.00795000000000356,-0.0762644200026972,-0.00700516634944151));
#538=CARTESIAN_POINT('',(-0.00795000000000356,-0.0767529508849067,-6.28226428339438E-6));
#539=CARTESIAN_POINT('',(-0.00795000000000356,-0.0762650977481556,0.00700151739468659));
#540=CARTESIAN_POINT('',(-0.00795000000000356,-0.0757029492399129,0.0116192421228488));
#541=CARTESIAN_POINT('',(-0.00795000000000356,-0.0754102049013007,0.0139297449909923));
#542=CARTESIAN_POINT('',(0.00795000000000356,-0.0754102049013007,-0.0139297449909923));
#543=CARTESIAN_POINT('',(0.00795000000000356,-0.0757027586860354,-0.0116207460811576));
#544=CARTESIAN_POINT('',(0.00795000000000356,-0.0762644200026971,-0.0070051663494415));
#545=CARTESIAN_POINT('',(0.00795000000000356,-0.0767529508849067,-6.28226428339123E-6));
#546=CARTESIAN_POINT('',(0.00795000000000356,-0.0762650977481556,0.00700151739468662));
#547=CARTESIAN_POINT('',(0.00795000000000356,-0.0757029492399129,0.0116192421228488));
#548=CARTESIAN_POINT('',(0.00795000000000356,-0.0754102049013007,0.0139297449909923));
#549=CARTESIAN_POINT('',(0.,-0.07775,0.));
#550=CARTESIAN_POINT('',(0.,-0.05825,0.));
#551=CARTESIAN_POINT('',(-0.00795000000000355,-0.05825,0.0158700976682547));
#552=CARTESIAN_POINT('',(-0.00795000000000355,-0.0580767919436168,0.0160638231931424));
#553=CARTESIAN_POINT('',(-0.00795408962485316,-0.0579022660921535,0.0162562656989448));
#554=CARTESIAN_POINT('',(-0.00796246398186008,-0.0577265000000001,0.0164474912855299));
#555=CARTESIAN_POINT('',(-0.00796246398186006,-0.0577265,0.0164474912855299));
#556=CARTESIAN_POINT('',(0.00796246398186008,-0.0577265000000001,0.0164474912855299));
#557=CARTESIAN_POINT('',(0.00795408962485316,-0.0579022660921535,0.0162562656989449));
#558=CARTESIAN_POINT('',(0.00795000000000355,-0.0580767919436166,0.0160638231931426));
#559=CARTESIAN_POINT('',(0.00795000000000355,-0.0582499999999998,0.015870097668255));
#560=CARTESIAN_POINT('',(0.00796246398186006,-0.0577265,0.0164474912855299));
#561=CARTESIAN_POINT('',(0.,-0.0577265,0.));
#562=CARTESIAN_POINT('',(0.,0.07775,0.01109975));
#563=CARTESIAN_POINT('',(-0.167708516397731,0.07775,-0.0125));
#564=CARTESIAN_POINT('',(-0.0145729475484543,0.07775,-0.0125));
#565=CARTESIAN_POINT('',(0.0145729475484543,0.07775,-0.0125));
#566=CARTESIAN_POINT('',(0.,0.07775,0.));
#567=CARTESIAN_POINT('',(0.,0.,0.));
#568=CARTESIAN_POINT('',(-0.018345784263694,-8.67361737988403E-19,-0.0125));
#569=CARTESIAN_POINT('',(-0.018345784263694,0.0746,-0.0125));
#570=CARTESIAN_POINT('',(-0.018345784263694,0.07475,-0.0125));
#571=CARTESIAN_POINT('',(0.,0.07475,0.));
#572=CARTESIAN_POINT('',(0.018345784263694,0.07475,-0.0125));
#573=CARTESIAN_POINT('',(0.018345784263694,-8.67361737988403E-19,-0.0125));
#574=CARTESIAN_POINT('',(0.018345784263694,0.0746,-0.0125));
#575=CARTESIAN_POINT('',(0.,0.0746,0.));
#576=CARTESIAN_POINT('',(0.,0.07775,0.01109975));
#577=CARTESIAN_POINT('',(-0.167708516397731,0.07775,0.0125));
#578=CARTESIAN_POINT('',(-0.0145729475484543,0.07775,0.0125));
#579=CARTESIAN_POINT('',(0.0145729475484543,0.07775,0.0125));
#580=CARTESIAN_POINT('',(0.,0.07775,0.));
#581=CARTESIAN_POINT('',(0.,0.,0.));
#582=CARTESIAN_POINT('',(0.018345784263694,-8.67361737988403E-19,0.0125));
#583=CARTESIAN_POINT('',(0.018345784263694,0.07475,0.0125));
#584=CARTESIAN_POINT('',(0.018345784263694,0.0746,0.0125));
#585=CARTESIAN_POINT('',(0.,0.07475,0.));
#586=CARTESIAN_POINT('',(-0.018345784263694,0.07475,0.0125));
#587=CARTESIAN_POINT('',(-0.018345784263694,-8.67361737988403E-19,0.0125));
#588=CARTESIAN_POINT('',(-0.018345784263694,0.0746,0.0125));
#589=CARTESIAN_POINT('',(0.,0.0746,0.));
#590=CARTESIAN_POINT('',(0.,-0.0577265,0.));
#591=CARTESIAN_POINT('',(-0.00796246398186008,-0.0577265,0.0164474912855299));
#592=CARTESIAN_POINT('',(-0.00801487153802151,-0.0566265383745052,0.0164583779795912));
#593=CARTESIAN_POINT('',(-0.0084471834343398,-0.0544751139478104,0.0163257502551428));
#594=CARTESIAN_POINT('',(-0.00998450730427253,-0.0516238514262561,0.015569832135404));
#595=CARTESIAN_POINT('',(-0.0120896986038358,-0.04950269559473,0.0141232145965168));
#596=CARTESIAN_POINT('',(-0.0142792449974781,-0.0482064576524542,0.0119899041799723));
#597=CARTESIAN_POINT('',(-0.0161448561615654,-0.0475697580628538,0.00937623009072907));
#598=CARTESIAN_POINT('',(-0.0175458298053047,-0.0473209809060224,0.00640237361391568));
#599=CARTESIAN_POINT('',(-0.0183908214595677,-0.0472602220671273,0.00326934804434755));
#600=CARTESIAN_POINT('',(-0.0186800502908071,-0.0472541010693048,-7.93475608297962E-6));
#601=CARTESIAN_POINT('',(-0.0183938592591835,-0.0472598878741405,-0.0032514286517908));
#602=CARTESIAN_POINT('',(-0.0175414422346678,-0.0473218572929968,-0.00641443508193816));
#603=CARTESIAN_POINT('',(-0.0161559792850453,-0.0475670523375183,-0.00935514007890927));
#604=CARTESIAN_POINT('',(-0.0142836784817238,-0.0482043268130369,-0.0119860332013391));
#605=CARTESIAN_POINT('',(-0.0120994640432944,-0.0494955699326378,-0.0141144808668716));
#606=CARTESIAN_POINT('',(-0.00999398273317073,-0.0516124086841475,-0.0155644921848164));
#607=CARTESIAN_POINT('',(-0.00845285399635109,-0.0544553721553716,-0.0163236103658767));
#608=CARTESIAN_POINT('',(-0.0080149111502466,-0.0566257069690611,-0.0164583862082935));
#609=CARTESIAN_POINT('',(-0.00796246398186008,-0.0577265,-0.0164474912855299));
#610=CARTESIAN_POINT('',(-0.00796246398186006,-0.0577265,-0.0164474912855299));
#611=CARTESIAN_POINT('',(0.00796246398186009,-0.0577265,-0.0164474912855299));
#612=CARTESIAN_POINT('',(0.00801487153802151,-0.0566265383745052,-0.0164583779795912));
#613=CARTESIAN_POINT('',(0.0084471834343398,-0.0544751139478104,-0.0163257502551428));
#614=CARTESIAN_POINT('',(0.00998450730427253,-0.0516238514262561,-0.015569832135404));
#615=CARTESIAN_POINT('',(0.0120896986038358,-0.04950269559473,-0.0141232145965167));
#616=CARTESIAN_POINT('',(0.0142792449974781,-0.0482064576524542,-0.0119899041799723));
#617=CARTESIAN_POINT('',(0.0161448561615654,-0.0475697580628538,-0.00937623009072905));
#618=CARTESIAN_POINT('',(0.0175458298053047,-0.0473209809060224,-0.00640237361391568));
#619=CARTESIAN_POINT('',(0.0183908214595677,-0.0472602220671273,-0.00326934804434754));
#620=CARTESIAN_POINT('',(0.0186800502908071,-0.0472541010693048,7.93475608299792E-6));
#621=CARTESIAN_POINT('',(0.0183938592591835,-0.0472598878741406,0.00325142865179082));
#622=CARTESIAN_POINT('',(0.0175414422346678,-0.0473218572929968,0.00641443508193816));
#623=CARTESIAN_POINT('',(0.0161559792850453,-0.0475670523375183,0.00935514007890929));
#624=CARTESIAN_POINT('',(0.0142836784817238,-0.0482043268130369,0.0119860332013391));
#625=CARTESIAN_POINT('',(0.0120994640432944,-0.0494955699326378,0.0141144808668716));
#626=CARTESIAN_POINT('',(0.00999398273317072,-0.0516124086841475,0.0155644921848164));
#627=CARTESIAN_POINT('',(0.00845285399635109,-0.0544553721553716,0.0163236103658767));
#628=CARTESIAN_POINT('',(0.0080149111502466,-0.0566257069690611,0.0164583862082935));
#629=CARTESIAN_POINT('',(0.00796246398186008,-0.0577265,0.0164474912855299));
#630=CARTESIAN_POINT('',(0.00796246398186006,-0.0577265,-0.0164474912855299));
#631=CARTESIAN_POINT('',(0.,-0.0577265,0.));
#632=CARTESIAN_POINT('',(0.0183457842636939,0.0746,0.0125));
#633=CARTESIAN_POINT('',(0.0180843005627555,0.0673165986417817,0.0125));
#634=CARTESIAN_POINT('',(0.0178210505934185,0.0600332622487283,0.0125));
#635=CARTESIAN_POINT('',(0.0175557847933099,0.05275,0.0125));
#636=CARTESIAN_POINT('',(0.0175557847933099,0.05275,0.0125));
#637=CARTESIAN_POINT('',(-0.0175557847933099,0.05275,0.0125));
#638=CARTESIAN_POINT('',(-0.0178210506659379,0.0600332642398552,0.0125));
#639=CARTESIAN_POINT('',(-0.0180843006311639,0.0673166005472393,0.0125));
#640=CARTESIAN_POINT('',(-0.0183457842636939,0.0746,0.0125));
#641=CARTESIAN_POINT('',(-0.0175557847933099,0.05275,0.0125));
#642=CARTESIAN_POINT('',(0.,0.05275,0.));
#643=CARTESIAN_POINT('',(-0.0175557847933099,0.05275,-0.0125));
#644=CARTESIAN_POINT('',(-0.0175557847933099,0.05275,-0.0125));
#645=CARTESIAN_POINT('',(-0.0178210506659379,0.0600332642398552,-0.0125));
#646=CARTESIAN_POINT('',(-0.0180843006311639,0.0673166005472393,-0.0125));
#647=CARTESIAN_POINT('',(-0.0183457842636939,0.0746,-0.0125));
#648=CARTESIAN_POINT('',(0.0183457842636939,0.0746,-0.0125));
#649=CARTESIAN_POINT('',(0.0180843005627555,0.0673165986417817,-0.0125));
#650=CARTESIAN_POINT('',(0.0178210505934185,0.0600332622487283,-0.0125));
#651=CARTESIAN_POINT('',(0.0175557847933099,0.05275,-0.0125));
#652=CARTESIAN_POINT('',(0.0175557847933099,0.05275,-0.0125));
#653=CARTESIAN_POINT('',(0.,0.05275,0.));
#654=CARTESIAN_POINT('',(0.,-0.05825,0.));
#655=CARTESIAN_POINT('',(-0.00796246398186008,-0.0577265000000001,-0.0164474912855299));
#656=CARTESIAN_POINT('',(-0.00795408962485316,-0.0579022660921535,-0.0162562656989449));
#657=CARTESIAN_POINT('',(-0.00795000000000355,-0.0580767919436166,-0.0160638231931426));
#658=CARTESIAN_POINT('',(-0.00795000000000355,-0.0582499999999998,-0.015870097668255));
#659=CARTESIAN_POINT('',(0.00795000000000355,-0.05825,-0.0158700976682547));
#660=CARTESIAN_POINT('',(0.00795000000000355,-0.0580767919436168,-0.0160638231931424));
#661=CARTESIAN_POINT('',(0.00795408962485316,-0.0579022660921535,-0.0162562656989448));
#662=CARTESIAN_POINT('',(0.00796246398186008,-0.0577265000000001,-0.0164474912855299));
#663=CARTESIAN_POINT('',(-0.167708516397731,0.06525,0.0125));
#664=CARTESIAN_POINT('',(-0.018345784263694,0.07475,0.0125));
#665=CARTESIAN_POINT('',(-0.0171070285884521,0.0757737142446187,0.0125));
#666=CARTESIAN_POINT('',(-0.0158530912228849,0.0767783358096845,0.0125));
#667=CARTESIAN_POINT('',(-0.0145729475484543,0.07775,0.0125));
#668=CARTESIAN_POINT('',(0.0145729475484543,0.07775,0.0125));
#669=CARTESIAN_POINT('',(0.0158530912228849,0.0767783358096845,0.0125));
#670=CARTESIAN_POINT('',(0.0171070285884521,0.0757737142446187,0.0125));
#671=CARTESIAN_POINT('',(0.018345784263694,0.07475,0.0125));
#672=CARTESIAN_POINT('',(-0.167708516397731,0.05275,0.0125));
#673=CARTESIAN_POINT('',(-0.167708516397731,0.05275,0.00625));
#674=CARTESIAN_POINT('',(-0.167708516397731,0.05275,-0.0125));
#675=CARTESIAN_POINT('',(-0.167708516397731,0.06525,-0.0125));
#676=CARTESIAN_POINT('',(0.018345784263694,0.07475,-0.0125));
#677=CARTESIAN_POINT('',(0.0171070285884521,0.0757737142446187,-0.0125));
#678=CARTESIAN_POINT('',(0.0158530912228849,0.0767783358096845,-0.0125));
#679=CARTESIAN_POINT('',(0.0145729475484543,0.07775,-0.0125));
#680=CARTESIAN_POINT('',(-0.0145729475484543,0.07775,-0.0125));
#681=CARTESIAN_POINT('',(-0.0158530912228849,0.0767783358096845,-0.0125));
#682=CARTESIAN_POINT('',(-0.0171070285884521,0.0757737142446187,-0.0125));
#683=CARTESIAN_POINT('',(-0.018345784263694,0.07475,-0.0125));
#684=CARTESIAN_POINT('',(0.,0.07475,0.));
#685=CARTESIAN_POINT('',(0.,0.07475,0.));
#686=CARTESIAN_POINT('',(0.00795000000000356,-0.0674201102130757,-0.167369922083622));
#687=CARTESIAN_POINT('',(0.00795000000000356,-0.05825,-0.167369922083622));
#688=CARTESIAN_POINT('',(0.0189500000000036,-0.05825,-0.167369922083622));
#689=CARTESIAN_POINT('',(-0.00795000000000356,-0.0674201102130757,-0.167369922083622));
#690=CARTESIAN_POINT('',(-0.00795000000000356,-0.05825,-0.167369922083622));
#691=CARTESIAN_POINT('',(-0.0189500000000036,-0.05825,-0.167369922083622));
#692=MECHANICAL_DESIGN_GEOMETRIC_PRESENTATION_REPRESENTATION('',(#348),
#693);
#693=(
GEOMETRIC_REPRESENTATION_CONTEXT(3)
GLOBAL_UNCERTAINTY_ASSIGNED_CONTEXT((#694))
GLOBAL_UNIT_ASSIGNED_CONTEXT((#697,#696,#695))
REPRESENTATION_CONTEXT('Part 1','TOP_LEVEL_ASSEMBLY_PART')
);
#694=UNCERTAINTY_MEASURE_WITH_UNIT(LENGTH_MEASURE(2.E-5),#697,
'DISTANCE_ACCURACY_VALUE','Maximum Tolerance applied to model');
#695=(
NAMED_UNIT(*)
SI_UNIT($,.STERADIAN.)
SOLID_ANGLE_UNIT()
);
#696=(
NAMED_UNIT(*)
PLANE_ANGLE_UNIT()
SI_UNIT($,.RADIAN.)
);
#697=(
LENGTH_UNIT()
NAMED_UNIT(*)
SI_UNIT($,.METRE.)
);
#698=PRODUCT_DEFINITION_SHAPE('','',#699);
#699=PRODUCT_DEFINITION('','',#701,#700);
#700=PRODUCT_DEFINITION_CONTEXT('',#707,'design');
#701=PRODUCT_DEFINITION_FORMATION_WITH_SPECIFIED_SOURCE('','',#703,
 .NOT_KNOWN.);
#702=PRODUCT_RELATED_PRODUCT_CATEGORY('','',(#703));
#703=PRODUCT('Part 1','Part 1','Part 1',(#705));
#704=PRODUCT_CATEGORY('','');
#705=PRODUCT_CONTEXT('',#707,'mechanical');
#706=APPLICATION_PROTOCOL_DEFINITION('international standard',
'ap242_managed_model_based_3d_engineering',2020,#707);
#707=APPLICATION_CONTEXT('managed model based 3d engineering');
ENDSEC;
END-ISO-10303-21;
