ISO-10303-21;
HEADER;
/* Generated by software containing ST-Developer
 * from STEP Tools, Inc. (www.steptools.com) 
 */
/* OPTION: using custom renumber hook */

FILE_DESCRIPTION(
/* description */ ('STEP AP242 Edition 2',
'CAx-IF Rec.Pracs.---Representation and Presentation of Product Manufa
cturing Information (PMI)---4.0---2014-10-13',
'CAx-IF Rec.Pracs.---3D Tessellated Geometry---0.4---2014-09-14','2;1',
'CAx-IF Rec.Pracs.---User Defined Attributes---1.5---2016-08-15'),
/* implementation_level */ '2;1');

FILE_NAME(
/* name */ 'Part Studio 1',
/* time_stamp */ '2026-07-29T15:23:29Z',
/* author */ (''),
/* organization */ (''),
/* preprocessor_version */ 'ST-DEVELOPER v20',
/* originating_system */ 'ONSHAPE BY PTC INC, 1.218',
/* authorisation */ '  ');

FILE_SCHEMA (('AP242_MANAGED_MODEL_BASED_3D_ENGINEERING_MIM_LF { 1 0 10303 442 3 1 4 }'));
ENDSEC;

DATA;
#10=SHAPE_REPRESENTATION_RELATIONSHIP('','',#687,#11);
#11=ADVANCED_BREP_SHAPE_REPRESENTATION('',(#685),#1133);
#12=CYLINDRICAL_SURFACE('',#716,0.2);
#13=CYLINDRICAL_SURFACE('',#719,0.2);
#14=CYLINDRICAL_SURFACE('',#728,0.02);
#15=CYLINDRICAL_SURFACE('',#730,0.0075);
#16=CYLINDRICAL_SURFACE('',#733,0.005);
#17=CYLINDRICAL_SURFACE('',#734,0.005);
#18=CYLINDRICAL_SURFACE('',#735,0.01);
#19=CYLINDRICAL_SURFACE('',#736,0.01);
#20=CYLINDRICAL_SURFACE('',#743,0.02);
#21=CYLINDRICAL_SURFACE('',#745,0.0075);
#22=CYLINDRICAL_SURFACE('',#748,0.005);
#23=CYLINDRICAL_SURFACE('',#749,0.005);
#24=CYLINDRICAL_SURFACE('',#750,0.01);
#25=CYLINDRICAL_SURFACE('',#751,0.01);
#26=CIRCLE('',#690,0.005);
#27=CIRCLE('',#691,0.005);
#28=CIRCLE('',#692,0.01);
#29=CIRCLE('',#693,0.01);
#30=CIRCLE('',#694,0.01);
#31=CIRCLE('',#695,0.01);
#32=CIRCLE('',#696,0.005);
#33=CIRCLE('',#697,0.005);
#34=CIRCLE('',#700,0.005);
#35=CIRCLE('',#701,0.01);
#36=CIRCLE('',#702,0.01);
#37=CIRCLE('',#703,0.005);
#38=CIRCLE('',#708,0.005);
#39=CIRCLE('',#709,0.01);
#40=CIRCLE('',#710,0.01);
#41=CIRCLE('',#711,0.005);
#42=CIRCLE('',#717,0.2);
#43=CIRCLE('',#718,0.2);
#44=CIRCLE('',#720,0.2);
#45=CIRCLE('',#721,0.2);
#46=CIRCLE('',#726,0.0075);
#47=CIRCLE('',#727,0.02);
#48=CIRCLE('',#729,0.02);
#49=CIRCLE('',#731,0.0075);
#50=CIRCLE('',#741,0.0075);
#51=CIRCLE('',#742,0.02);
#52=CIRCLE('',#744,0.02);
#53=CIRCLE('',#746,0.0075);
#54=ORIENTED_EDGE('',*,*,#234,.F.);
#55=ORIENTED_EDGE('',*,*,#235,.F.);
#56=ORIENTED_EDGE('',*,*,#236,.T.);
#57=ORIENTED_EDGE('',*,*,#237,.T.);
#58=ORIENTED_EDGE('',*,*,#238,.T.);
#59=ORIENTED_EDGE('',*,*,#239,.T.);
#60=ORIENTED_EDGE('',*,*,#240,.F.);
#61=ORIENTED_EDGE('',*,*,#241,.T.);
#62=ORIENTED_EDGE('',*,*,#242,.T.);
#63=ORIENTED_EDGE('',*,*,#243,.F.);
#64=ORIENTED_EDGE('',*,*,#244,.T.);
#65=ORIENTED_EDGE('',*,*,#245,.F.);
#66=ORIENTED_EDGE('',*,*,#246,.F.);
#67=ORIENTED_EDGE('',*,*,#247,.T.);
#68=ORIENTED_EDGE('',*,*,#248,.F.);
#69=ORIENTED_EDGE('',*,*,#249,.F.);
#70=ORIENTED_EDGE('',*,*,#242,.F.);
#71=ORIENTED_EDGE('',*,*,#250,.T.);
#72=ORIENTED_EDGE('',*,*,#251,.T.);
#73=ORIENTED_EDGE('',*,*,#252,.F.);
#74=ORIENTED_EDGE('',*,*,#253,.F.);
#75=ORIENTED_EDGE('',*,*,#251,.F.);
#76=ORIENTED_EDGE('',*,*,#254,.T.);
#77=ORIENTED_EDGE('',*,*,#255,.F.);
#78=ORIENTED_EDGE('',*,*,#256,.T.);
#79=ORIENTED_EDGE('',*,*,#257,.T.);
#80=ORIENTED_EDGE('',*,*,#258,.F.);
#81=ORIENTED_EDGE('',*,*,#259,.T.);
#82=ORIENTED_EDGE('',*,*,#260,.T.);
#83=ORIENTED_EDGE('',*,*,#261,.T.);
#84=ORIENTED_EDGE('',*,*,#256,.F.);
#85=ORIENTED_EDGE('',*,*,#262,.F.);
#86=ORIENTED_EDGE('',*,*,#263,.T.);
#87=ORIENTED_EDGE('',*,*,#264,.T.);
#88=ORIENTED_EDGE('',*,*,#260,.F.);
#89=ORIENTED_EDGE('',*,*,#265,.F.);
#90=ORIENTED_EDGE('',*,*,#266,.T.);
#91=ORIENTED_EDGE('',*,*,#267,.F.);
#92=ORIENTED_EDGE('',*,*,#263,.F.);
#93=ORIENTED_EDGE('',*,*,#268,.T.);
#94=ORIENTED_EDGE('',*,*,#269,.T.);
#95=ORIENTED_EDGE('',*,*,#270,.T.);
#96=ORIENTED_EDGE('',*,*,#271,.T.);
#97=ORIENTED_EDGE('',*,*,#272,.T.);
#98=ORIENTED_EDGE('',*,*,#273,.F.);
#99=ORIENTED_EDGE('',*,*,#274,.F.);
#100=ORIENTED_EDGE('',*,*,#266,.F.);
#101=ORIENTED_EDGE('',*,*,#275,.F.);
#102=ORIENTED_EDGE('',*,*,#272,.F.);
#103=ORIENTED_EDGE('',*,*,#276,.T.);
#104=ORIENTED_EDGE('',*,*,#246,.T.);
#105=ORIENTED_EDGE('',*,*,#277,.F.);
#106=ORIENTED_EDGE('',*,*,#255,.T.);
#107=ORIENTED_EDGE('',*,*,#278,.T.);
#108=ORIENTED_EDGE('',*,*,#240,.T.);
#109=ORIENTED_EDGE('',*,*,#279,.T.);
#110=ORIENTED_EDGE('',*,*,#270,.F.);
#111=ORIENTED_EDGE('',*,*,#268,.F.);
#112=ORIENTED_EDGE('',*,*,#265,.T.);
#113=ORIENTED_EDGE('',*,*,#262,.T.);
#114=ORIENTED_EDGE('',*,*,#280,.T.);
#115=ORIENTED_EDGE('',*,*,#281,.F.);
#116=ORIENTED_EDGE('',*,*,#282,.F.);
#117=ORIENTED_EDGE('',*,*,#283,.T.);
#118=ORIENTED_EDGE('',*,*,#284,.T.);
#119=ORIENTED_EDGE('',*,*,#285,.T.);
#120=ORIENTED_EDGE('',*,*,#286,.F.);
#121=ORIENTED_EDGE('',*,*,#287,.F.);
#122=ORIENTED_EDGE('',*,*,#288,.F.);
#123=ORIENTED_EDGE('',*,*,#289,.F.);
#124=ORIENTED_EDGE('',*,*,#290,.T.);
#125=ORIENTED_EDGE('',*,*,#291,.T.);
#126=ORIENTED_EDGE('',*,*,#292,.T.);
#127=ORIENTED_EDGE('',*,*,#293,.F.);
#128=ORIENTED_EDGE('',*,*,#294,.F.);
#129=ORIENTED_EDGE('',*,*,#295,.F.);
#130=ORIENTED_EDGE('',*,*,#296,.T.);
#131=ORIENTED_EDGE('',*,*,#297,.T.);
#132=ORIENTED_EDGE('',*,*,#298,.F.);
#133=ORIENTED_EDGE('',*,*,#299,.F.);
#134=ORIENTED_EDGE('',*,*,#300,.F.);
#135=ORIENTED_EDGE('',*,*,#301,.T.);
#136=ORIENTED_EDGE('',*,*,#302,.T.);
#137=ORIENTED_EDGE('',*,*,#303,.T.);
#138=ORIENTED_EDGE('',*,*,#235,.T.);
#139=ORIENTED_EDGE('',*,*,#304,.F.);
#140=ORIENTED_EDGE('',*,*,#292,.F.);
#141=ORIENTED_EDGE('',*,*,#305,.T.);
#142=ORIENTED_EDGE('',*,*,#286,.T.);
#143=ORIENTED_EDGE('',*,*,#306,.T.);
#144=ORIENTED_EDGE('',*,*,#237,.F.);
#145=ORIENTED_EDGE('',*,*,#307,.F.);
#146=ORIENTED_EDGE('',*,*,#287,.T.);
#147=ORIENTED_EDGE('',*,*,#307,.T.);
#148=ORIENTED_EDGE('',*,*,#236,.F.);
#149=ORIENTED_EDGE('',*,*,#305,.F.);
#150=ORIENTED_EDGE('',*,*,#303,.F.);
#151=ORIENTED_EDGE('',*,*,#308,.T.);
#152=ORIENTED_EDGE('',*,*,#298,.T.);
#153=ORIENTED_EDGE('',*,*,#309,.T.);
#154=ORIENTED_EDGE('',*,*,#280,.F.);
#155=ORIENTED_EDGE('',*,*,#310,.F.);
#156=ORIENTED_EDGE('',*,*,#308,.F.);
#157=ORIENTED_EDGE('',*,*,#302,.F.);
#158=ORIENTED_EDGE('',*,*,#311,.F.);
#159=ORIENTED_EDGE('',*,*,#288,.T.);
#160=ORIENTED_EDGE('',*,*,#312,.T.);
#161=ORIENTED_EDGE('',*,*,#299,.T.);
#162=ORIENTED_EDGE('',*,*,#310,.T.);
#163=ORIENTED_EDGE('',*,*,#291,.F.);
#164=ORIENTED_EDGE('',*,*,#313,.F.);
#165=ORIENTED_EDGE('',*,*,#313,.T.);
#166=ORIENTED_EDGE('',*,*,#290,.F.);
#167=ORIENTED_EDGE('',*,*,#314,.F.);
#168=ORIENTED_EDGE('',*,*,#300,.T.);
#169=ORIENTED_EDGE('',*,*,#315,.T.);
#170=ORIENTED_EDGE('',*,*,#312,.F.);
#171=ORIENTED_EDGE('',*,*,#289,.T.);
#172=ORIENTED_EDGE('',*,*,#311,.T.);
#173=ORIENTED_EDGE('',*,*,#301,.F.);
#174=ORIENTED_EDGE('',*,*,#314,.T.);
#175=ORIENTED_EDGE('',*,*,#315,.F.);
#176=ORIENTED_EDGE('',*,*,#269,.F.);
#177=ORIENTED_EDGE('',*,*,#238,.F.);
#178=ORIENTED_EDGE('',*,*,#239,.F.);
#179=ORIENTED_EDGE('',*,*,#253,.T.);
#180=ORIENTED_EDGE('',*,*,#254,.F.);
#181=ORIENTED_EDGE('',*,*,#250,.F.);
#182=ORIENTED_EDGE('',*,*,#241,.F.);
#183=ORIENTED_EDGE('',*,*,#278,.F.);
#184=ORIENTED_EDGE('',*,*,#271,.F.);
#185=ORIENTED_EDGE('',*,*,#279,.F.);
#186=ORIENTED_EDGE('',*,*,#247,.F.);
#187=ORIENTED_EDGE('',*,*,#276,.F.);
#188=ORIENTED_EDGE('',*,*,#257,.F.);
#189=ORIENTED_EDGE('',*,*,#261,.F.);
#190=ORIENTED_EDGE('',*,*,#264,.F.);
#191=ORIENTED_EDGE('',*,*,#267,.T.);
#192=ORIENTED_EDGE('',*,*,#274,.T.);
#193=ORIENTED_EDGE('',*,*,#316,.F.);
#194=ORIENTED_EDGE('',*,*,#244,.F.);
#195=ORIENTED_EDGE('',*,*,#317,.F.);
#196=ORIENTED_EDGE('',*,*,#285,.F.);
#197=ORIENTED_EDGE('',*,*,#318,.F.);
#198=ORIENTED_EDGE('',*,*,#293,.T.);
#199=ORIENTED_EDGE('',*,*,#304,.T.);
#200=ORIENTED_EDGE('',*,*,#234,.T.);
#201=ORIENTED_EDGE('',*,*,#306,.F.);
#202=ORIENTED_EDGE('',*,*,#318,.T.);
#203=ORIENTED_EDGE('',*,*,#284,.F.);
#204=ORIENTED_EDGE('',*,*,#319,.T.);
#205=ORIENTED_EDGE('',*,*,#294,.T.);
#206=ORIENTED_EDGE('',*,*,#320,.F.);
#207=ORIENTED_EDGE('',*,*,#297,.F.);
#208=ORIENTED_EDGE('',*,*,#321,.T.);
#209=ORIENTED_EDGE('',*,*,#281,.T.);
#210=ORIENTED_EDGE('',*,*,#309,.F.);
#211=ORIENTED_EDGE('',*,*,#321,.F.);
#212=ORIENTED_EDGE('',*,*,#296,.F.);
#213=ORIENTED_EDGE('',*,*,#322,.T.);
#214=ORIENTED_EDGE('',*,*,#282,.T.);
#215=ORIENTED_EDGE('',*,*,#323,.F.);
#216=ORIENTED_EDGE('',*,*,#320,.T.);
#217=ORIENTED_EDGE('',*,*,#283,.F.);
#218=ORIENTED_EDGE('',*,*,#322,.F.);
#219=ORIENTED_EDGE('',*,*,#295,.T.);
#220=ORIENTED_EDGE('',*,*,#319,.F.);
#221=ORIENTED_EDGE('',*,*,#323,.T.);
#222=ORIENTED_EDGE('',*,*,#275,.T.);
#223=ORIENTED_EDGE('',*,*,#248,.T.);
#224=ORIENTED_EDGE('',*,*,#249,.T.);
#225=ORIENTED_EDGE('',*,*,#259,.F.);
#226=ORIENTED_EDGE('',*,*,#258,.T.);
#227=ORIENTED_EDGE('',*,*,#317,.T.);
#228=ORIENTED_EDGE('',*,*,#243,.T.);
#229=ORIENTED_EDGE('',*,*,#252,.T.);
#230=ORIENTED_EDGE('',*,*,#273,.T.);
#231=ORIENTED_EDGE('',*,*,#277,.T.);
#232=ORIENTED_EDGE('',*,*,#245,.T.);
#233=ORIENTED_EDGE('',*,*,#316,.T.);
#234=EDGE_CURVE('',#324,#325,#388,.T.);
#235=EDGE_CURVE('',#326,#324,#389,.T.);
#236=EDGE_CURVE('',#326,#327,#390,.T.);
#237=EDGE_CURVE('',#327,#325,#391,.T.);
#238=EDGE_CURVE('',#328,#328,#26,.T.);
#239=EDGE_CURVE('',#329,#329,#27,.T.);
#240=EDGE_CURVE('',#330,#331,#392,.T.);
#241=EDGE_CURVE('',#330,#332,#28,.F.);
#242=EDGE_CURVE('',#332,#333,#393,.T.);
#243=EDGE_CURVE('',#334,#333,#29,.F.);
#244=EDGE_CURVE('',#334,#335,#394,.T.);
#245=EDGE_CURVE('',#336,#335,#30,.F.);
#246=EDGE_CURVE('',#337,#336,#395,.T.);
#247=EDGE_CURVE('',#337,#331,#31,.F.);
#248=EDGE_CURVE('',#338,#338,#32,.T.);
#249=EDGE_CURVE('',#339,#339,#33,.T.);
#250=EDGE_CURVE('',#332,#340,#396,.F.);
#251=EDGE_CURVE('',#340,#341,#397,.T.);
#252=EDGE_CURVE('',#333,#341,#398,.F.);
#253=EDGE_CURVE('',#342,#342,#34,.F.);
#254=EDGE_CURVE('',#340,#343,#35,.F.);
#255=EDGE_CURVE('',#344,#343,#399,.T.);
#256=EDGE_CURVE('',#344,#345,#400,.T.);
#257=EDGE_CURVE('',#345,#346,#401,.T.);
#258=EDGE_CURVE('',#341,#346,#36,.F.);
#259=EDGE_CURVE('',#347,#347,#37,.F.);
#260=EDGE_CURVE('',#348,#349,#402,.T.);
#261=EDGE_CURVE('',#349,#345,#403,.T.);
#262=EDGE_CURVE('',#348,#344,#404,.T.);
#263=EDGE_CURVE('',#350,#351,#405,.T.);
#264=EDGE_CURVE('',#351,#349,#406,.T.);
#265=EDGE_CURVE('',#350,#348,#407,.T.);
#266=EDGE_CURVE('',#352,#353,#408,.T.);
#267=EDGE_CURVE('',#351,#353,#409,.T.);
#268=EDGE_CURVE('',#350,#352,#410,.T.);
#269=EDGE_CURVE('',#354,#354,#38,.F.);
#270=EDGE_CURVE('',#352,#355,#411,.T.);
#271=EDGE_CURVE('',#355,#356,#39,.T.);
#272=EDGE_CURVE('',#356,#357,#412,.T.);
#273=EDGE_CURVE('',#358,#357,#40,.T.);
#274=EDGE_CURVE('',#353,#358,#413,.T.);
#275=EDGE_CURVE('',#359,#359,#41,.F.);
#276=EDGE_CURVE('',#356,#337,#414,.T.);
#277=EDGE_CURVE('',#357,#336,#415,.T.);
#278=EDGE_CURVE('',#343,#330,#416,.T.);
#279=EDGE_CURVE('',#331,#355,#417,.F.);
#280=EDGE_CURVE('',#360,#361,#418,.T.);
#281=EDGE_CURVE('',#362,#361,#419,.T.);
#282=EDGE_CURVE('',#363,#362,#420,.T.);
#283=EDGE_CURVE('',#363,#364,#421,.T.);
#284=EDGE_CURVE('',#364,#365,#422,.T.);
#285=EDGE_CURVE('',#365,#366,#423,.T.);
#286=EDGE_CURVE('',#367,#366,#424,.T.);
#287=EDGE_CURVE('',#368,#367,#425,.T.);
#288=EDGE_CURVE('',#369,#368,#426,.T.);
#289=EDGE_CURVE('',#370,#369,#427,.T.);
#290=EDGE_CURVE('',#370,#371,#428,.T.);
#291=EDGE_CURVE('',#371,#360,#429,.T.);
#292=EDGE_CURVE('',#372,#373,#430,.T.);
#293=EDGE_CURVE('',#374,#373,#431,.T.);
#294=EDGE_CURVE('',#375,#374,#432,.T.);
#295=EDGE_CURVE('',#376,#375,#433,.T.);
#296=EDGE_CURVE('',#376,#377,#434,.T.);
#297=EDGE_CURVE('',#377,#378,#435,.T.);
#298=EDGE_CURVE('',#379,#378,#436,.T.);
#299=EDGE_CURVE('',#380,#379,#437,.T.);
#300=EDGE_CURVE('',#381,#380,#438,.T.);
#301=EDGE_CURVE('',#381,#382,#439,.T.);
#302=EDGE_CURVE('',#382,#383,#440,.T.);
#303=EDGE_CURVE('',#383,#372,#441,.T.);
#304=EDGE_CURVE('',#373,#324,#42,.T.);
#305=EDGE_CURVE('',#372,#326,#43,.T.);
#306=EDGE_CURVE('',#366,#325,#44,.T.);
#307=EDGE_CURVE('',#367,#327,#45,.T.);
#308=EDGE_CURVE('',#383,#368,#442,.T.);
#309=EDGE_CURVE('',#378,#361,#443,.T.);
#310=EDGE_CURVE('',#379,#360,#444,.T.);
#311=EDGE_CURVE('',#369,#382,#445,.T.);
#312=EDGE_CURVE('',#384,#384,#46,.T.);
#313=EDGE_CURVE('',#380,#371,#47,.T.);
#314=EDGE_CURVE('',#381,#370,#48,.T.);
#315=EDGE_CURVE('',#385,#385,#49,.T.);
#316=EDGE_CURVE('',#335,#358,#446,.F.);
#317=EDGE_CURVE('',#346,#334,#447,.T.);
#318=EDGE_CURVE('',#374,#365,#448,.T.);
#319=EDGE_CURVE('',#364,#375,#449,.T.);
#320=EDGE_CURVE('',#386,#386,#50,.T.);
#321=EDGE_CURVE('',#377,#362,#51,.T.);
#322=EDGE_CURVE('',#376,#363,#52,.T.);
#323=EDGE_CURVE('',#387,#387,#53,.T.);
#324=VERTEX_POINT('',#945);
#325=VERTEX_POINT('',#946);
#326=VERTEX_POINT('',#948);
#327=VERTEX_POINT('',#950);
#328=VERTEX_POINT('',#953);
#329=VERTEX_POINT('',#955);
#330=VERTEX_POINT('',#957);
#331=VERTEX_POINT('',#958);
#332=VERTEX_POINT('',#960);
#333=VERTEX_POINT('',#962);
#334=VERTEX_POINT('',#964);
#335=VERTEX_POINT('',#966);
#336=VERTEX_POINT('',#968);
#337=VERTEX_POINT('',#970);
#338=VERTEX_POINT('',#973);
#339=VERTEX_POINT('',#975);
#340=VERTEX_POINT('',#978);
#341=VERTEX_POINT('',#980);
#342=VERTEX_POINT('',#984);
#343=VERTEX_POINT('',#986);
#344=VERTEX_POINT('',#988);
#345=VERTEX_POINT('',#990);
#346=VERTEX_POINT('',#992);
#347=VERTEX_POINT('',#995);
#348=VERTEX_POINT('',#998);
#349=VERTEX_POINT('',#999);
#350=VERTEX_POINT('',#1004);
#351=VERTEX_POINT('',#1005);
#352=VERTEX_POINT('',#1010);
#353=VERTEX_POINT('',#1011);
#354=VERTEX_POINT('',#1016);
#355=VERTEX_POINT('',#1018);
#356=VERTEX_POINT('',#1020);
#357=VERTEX_POINT('',#1022);
#358=VERTEX_POINT('',#1024);
#359=VERTEX_POINT('',#1027);
#360=VERTEX_POINT('',#1036);
#361=VERTEX_POINT('',#1037);
#362=VERTEX_POINT('',#1039);
#363=VERTEX_POINT('',#1041);
#364=VERTEX_POINT('',#1043);
#365=VERTEX_POINT('',#1045);
#366=VERTEX_POINT('',#1047);
#367=VERTEX_POINT('',#1049);
#368=VERTEX_POINT('',#1051);
#369=VERTEX_POINT('',#1053);
#370=VERTEX_POINT('',#1055);
#371=VERTEX_POINT('',#1057);
#372=VERTEX_POINT('',#1061);
#373=VERTEX_POINT('',#1062);
#374=VERTEX_POINT('',#1064);
#375=VERTEX_POINT('',#1066);
#376=VERTEX_POINT('',#1068);
#377=VERTEX_POINT('',#1070);
#378=VERTEX_POINT('',#1072);
#379=VERTEX_POINT('',#1074);
#380=VERTEX_POINT('',#1076);
#381=VERTEX_POINT('',#1078);
#382=VERTEX_POINT('',#1080);
#383=VERTEX_POINT('',#1082);
#384=VERTEX_POINT('',#1099);
#385=VERTEX_POINT('',#1105);
#386=VERTEX_POINT('',#1120);
#387=VERTEX_POINT('',#1126);
#388=LINE('',#944,#450);
#389=LINE('',#947,#451);
#390=LINE('',#949,#452);
#391=LINE('',#951,#453);
#392=LINE('',#956,#454);
#393=LINE('',#961,#455);
#394=LINE('',#965,#456);
#395=LINE('',#969,#457);
#396=LINE('',#977,#458);
#397=LINE('',#979,#459);
#398=LINE('',#981,#460);
#399=LINE('',#987,#461);
#400=LINE('',#989,#462);
#401=LINE('',#991,#463);
#402=LINE('',#997,#464);
#403=LINE('',#1000,#465);
#404=LINE('',#1001,#466);
#405=LINE('',#1003,#467);
#406=LINE('',#1006,#468);
#407=LINE('',#1007,#469);
#408=LINE('',#1009,#470);
#409=LINE('',#1012,#471);
#410=LINE('',#1013,#472);
#411=LINE('',#1017,#473);
#412=LINE('',#1021,#474);
#413=LINE('',#1025,#475);
#414=LINE('',#1029,#476);
#415=LINE('',#1030,#477);
#416=LINE('',#1032,#478);
#417=LINE('',#1033,#479);
#418=LINE('',#1035,#480);
#419=LINE('',#1038,#481);
#420=LINE('',#1040,#482);
#421=LINE('',#1042,#483);
#422=LINE('',#1044,#484);
#423=LINE('',#1046,#485);
#424=LINE('',#1048,#486);
#425=LINE('',#1050,#487);
#426=LINE('',#1052,#488);
#427=LINE('',#1054,#489);
#428=LINE('',#1056,#490);
#429=LINE('',#1058,#491);
#430=LINE('',#1060,#492);
#431=LINE('',#1063,#493);
#432=LINE('',#1065,#494);
#433=LINE('',#1067,#495);
#434=LINE('',#1069,#496);
#435=LINE('',#1071,#497);
#436=LINE('',#1073,#498);
#437=LINE('',#1075,#499);
#438=LINE('',#1077,#500);
#439=LINE('',#1079,#501);
#440=LINE('',#1081,#502);
#441=LINE('',#1083,#503);
#442=LINE('',#1091,#504);
#443=LINE('',#1093,#505);
#444=LINE('',#1094,#506);
#445=LINE('',#1096,#507);
#446=LINE('',#1112,#508);
#447=LINE('',#1113,#509);
#448=LINE('',#1115,#510);
#449=LINE('',#1117,#511);
#450=VECTOR('',#756,1.);
#451=VECTOR('',#757,1.);
#452=VECTOR('',#758,1.);
#453=VECTOR('',#759,1.);
#454=VECTOR('',#764,1.);
#455=VECTOR('',#767,1.);
#456=VECTOR('',#770,1.);
#457=VECTOR('',#773,1.);
#458=VECTOR('',#782,1.);
#459=VECTOR('',#783,1.);
#460=VECTOR('',#784,1.);
#461=VECTOR('',#791,1.);
#462=VECTOR('',#792,1.);
#463=VECTOR('',#793,1.);
#464=VECTOR('',#800,1.);
#465=VECTOR('',#801,1.);
#466=VECTOR('',#802,1.);
#467=VECTOR('',#805,1.);
#468=VECTOR('',#806,1.);
#469=VECTOR('',#807,1.);
#470=VECTOR('',#810,1.);
#471=VECTOR('',#811,1.);
#472=VECTOR('',#812,1.);
#473=VECTOR('',#817,1.);
#474=VECTOR('',#820,1.);
#475=VECTOR('',#823,1.);
#476=VECTOR('',#828,1.);
#477=VECTOR('',#829,1.);
#478=VECTOR('',#832,1.);
#479=VECTOR('',#833,1.);
#480=VECTOR('',#836,1.);
#481=VECTOR('',#837,1.);
#482=VECTOR('',#838,1.);
#483=VECTOR('',#839,1.);
#484=VECTOR('',#840,1.);
#485=VECTOR('',#841,1.);
#486=VECTOR('',#842,1.);
#487=VECTOR('',#843,1.);
#488=VECTOR('',#844,1.);
#489=VECTOR('',#845,1.);
#490=VECTOR('',#846,1.);
#491=VECTOR('',#847,1.);
#492=VECTOR('',#850,1.);
#493=VECTOR('',#851,1.);
#494=VECTOR('',#852,1.);
#495=VECTOR('',#853,1.);
#496=VECTOR('',#854,1.);
#497=VECTOR('',#855,1.);
#498=VECTOR('',#856,1.);
#499=VECTOR('',#857,1.);
#500=VECTOR('',#858,1.);
#501=VECTOR('',#859,1.);
#502=VECTOR('',#860,1.);
#503=VECTOR('',#861,1.);
#504=VECTOR('',#876,1.);
#505=VECTOR('',#879,1.);
#506=VECTOR('',#880,1.);
#507=VECTOR('',#883,1.);
#508=VECTOR('',#910,1.);
#509=VECTOR('',#911,1.);
#510=VECTOR('',#914,1.);
#511=VECTOR('',#917,1.);
#512=EDGE_LOOP('',(#54,#55,#56,#57));
#513=EDGE_LOOP('',(#58));
#514=EDGE_LOOP('',(#59));
#515=EDGE_LOOP('',(#60,#61,#62,#63,#64,#65,#66,#67));
#516=EDGE_LOOP('',(#68));
#517=EDGE_LOOP('',(#69));
#518=EDGE_LOOP('',(#70,#71,#72,#73));
#519=EDGE_LOOP('',(#74));
#520=EDGE_LOOP('',(#75,#76,#77,#78,#79,#80));
#521=EDGE_LOOP('',(#81));
#522=EDGE_LOOP('',(#82,#83,#84,#85));
#523=EDGE_LOOP('',(#86,#87,#88,#89));
#524=EDGE_LOOP('',(#90,#91,#92,#93));
#525=EDGE_LOOP('',(#94));
#526=EDGE_LOOP('',(#95,#96,#97,#98,#99,#100));
#527=EDGE_LOOP('',(#101));
#528=EDGE_LOOP('',(#102,#103,#104,#105));
#529=EDGE_LOOP('',(#106,#107,#108,#109,#110,#111,#112,#113));
#530=EDGE_LOOP('',(#114,#115,#116,#117,#118,#119,#120,#121,#122,#123,#124,
#125));
#531=EDGE_LOOP('',(#126,#127,#128,#129,#130,#131,#132,#133,#134,#135,#136,
#137));
#532=EDGE_LOOP('',(#138,#139,#140,#141));
#533=EDGE_LOOP('',(#142,#143,#144,#145));
#534=EDGE_LOOP('',(#146,#147,#148,#149,#150,#151));
#535=EDGE_LOOP('',(#152,#153,#154,#155));
#536=EDGE_LOOP('',(#156,#157,#158,#159));
#537=EDGE_LOOP('',(#160));
#538=EDGE_LOOP('',(#161,#162,#163,#164));
#539=EDGE_LOOP('',(#165,#166,#167,#168));
#540=EDGE_LOOP('',(#169));
#541=EDGE_LOOP('',(#170));
#542=EDGE_LOOP('',(#171,#172,#173,#174));
#543=EDGE_LOOP('',(#175));
#544=EDGE_LOOP('',(#176));
#545=EDGE_LOOP('',(#177));
#546=EDGE_LOOP('',(#178));
#547=EDGE_LOOP('',(#179));
#548=EDGE_LOOP('',(#180,#181,#182,#183));
#549=EDGE_LOOP('',(#184,#185,#186,#187));
#550=EDGE_LOOP('',(#188,#189,#190,#191,#192,#193,#194,#195));
#551=EDGE_LOOP('',(#196,#197,#198,#199,#200,#201));
#552=EDGE_LOOP('',(#202,#203,#204,#205));
#553=EDGE_LOOP('',(#206));
#554=EDGE_LOOP('',(#207,#208,#209,#210));
#555=EDGE_LOOP('',(#211,#212,#213,#214));
#556=EDGE_LOOP('',(#215));
#557=EDGE_LOOP('',(#216));
#558=EDGE_LOOP('',(#217,#218,#219,#220));
#559=EDGE_LOOP('',(#221));
#560=EDGE_LOOP('',(#222));
#561=EDGE_LOOP('',(#223));
#562=EDGE_LOOP('',(#224));
#563=EDGE_LOOP('',(#225));
#564=EDGE_LOOP('',(#226,#227,#228,#229));
#565=EDGE_LOOP('',(#230,#231,#232,#233));
#566=FACE_BOUND('',#512,.T.);
#567=FACE_BOUND('',#513,.T.);
#568=FACE_BOUND('',#514,.T.);
#569=FACE_BOUND('',#515,.T.);
#570=FACE_BOUND('',#516,.T.);
#571=FACE_BOUND('',#517,.T.);
#572=FACE_BOUND('',#518,.T.);
#573=FACE_BOUND('',#519,.T.);
#574=FACE_BOUND('',#520,.T.);
#575=FACE_BOUND('',#521,.T.);
#576=FACE_BOUND('',#522,.T.);
#577=FACE_BOUND('',#523,.T.);
#578=FACE_BOUND('',#524,.T.);
#579=FACE_BOUND('',#525,.T.);
#580=FACE_BOUND('',#526,.T.);
#581=FACE_BOUND('',#527,.T.);
#582=FACE_BOUND('',#528,.T.);
#583=FACE_BOUND('',#529,.T.);
#584=FACE_BOUND('',#530,.T.);
#585=FACE_BOUND('',#531,.T.);
#586=FACE_BOUND('',#532,.T.);
#587=FACE_BOUND('',#533,.T.);
#588=FACE_BOUND('',#534,.T.);
#589=FACE_BOUND('',#535,.T.);
#590=FACE_BOUND('',#536,.T.);
#591=FACE_BOUND('',#537,.T.);
#592=FACE_BOUND('',#538,.T.);
#593=FACE_BOUND('',#539,.T.);
#594=FACE_BOUND('',#540,.T.);
#595=FACE_BOUND('',#541,.T.);
#596=FACE_BOUND('',#542,.T.);
#597=FACE_BOUND('',#543,.T.);
#598=FACE_BOUND('',#544,.T.);
#599=FACE_BOUND('',#545,.T.);
#600=FACE_BOUND('',#546,.T.);
#601=FACE_BOUND('',#547,.T.);
#602=FACE_BOUND('',#548,.T.);
#603=FACE_BOUND('',#549,.T.);
#604=FACE_BOUND('',#550,.T.);
#605=FACE_BOUND('',#551,.T.);
#606=FACE_BOUND('',#552,.T.);
#607=FACE_BOUND('',#553,.T.);
#608=FACE_BOUND('',#554,.T.);
#609=FACE_BOUND('',#555,.T.);
#610=FACE_BOUND('',#556,.T.);
#611=FACE_BOUND('',#557,.T.);
#612=FACE_BOUND('',#558,.T.);
#613=FACE_BOUND('',#559,.T.);
#614=FACE_BOUND('',#560,.T.);
#615=FACE_BOUND('',#561,.T.);
#616=FACE_BOUND('',#562,.T.);
#617=FACE_BOUND('',#563,.T.);
#618=FACE_BOUND('',#564,.T.);
#619=FACE_BOUND('',#565,.T.);
#620=PLANE('',#689);
#621=PLANE('',#698);
#622=PLANE('',#699);
#623=PLANE('',#704);
#624=PLANE('',#705);
#625=PLANE('',#706);
#626=PLANE('',#707);
#627=PLANE('',#712);
#628=PLANE('',#713);
#629=PLANE('',#714);
#630=PLANE('',#715);
#631=PLANE('',#722);
#632=PLANE('',#723);
#633=PLANE('',#724);
#634=PLANE('',#725);
#635=PLANE('',#732);
#636=PLANE('',#737);
#637=PLANE('',#738);
#638=PLANE('',#739);
#639=PLANE('',#740);
#640=PLANE('',#747);
#641=ADVANCED_FACE('',(#566,#567,#568,#569,#570,#571),#620,.F.);
#642=ADVANCED_FACE('',(#572),#621,.F.);
#643=ADVANCED_FACE('',(#573,#574,#575),#622,.F.);
#644=ADVANCED_FACE('',(#576),#623,.F.);
#645=ADVANCED_FACE('',(#577),#624,.F.);
#646=ADVANCED_FACE('',(#578),#625,.T.);
#647=ADVANCED_FACE('',(#579,#580,#581),#626,.T.);
#648=ADVANCED_FACE('',(#582),#627,.T.);
#649=ADVANCED_FACE('',(#583),#628,.F.);
#650=ADVANCED_FACE('',(#584),#629,.F.);
#651=ADVANCED_FACE('',(#585),#630,.T.);
#652=ADVANCED_FACE('',(#586),#12,.F.);
#653=ADVANCED_FACE('',(#587),#13,.F.);
#654=ADVANCED_FACE('',(#588),#631,.F.);
#655=ADVANCED_FACE('',(#589),#632,.F.);
#656=ADVANCED_FACE('',(#590),#633,.F.);
#657=ADVANCED_FACE('',(#591,#592),#634,.F.);
#658=ADVANCED_FACE('',(#593),#14,.T.);
#659=ADVANCED_FACE('',(#594,#595),#15,.F.);
#660=ADVANCED_FACE('',(#596,#597),#635,.T.);
#661=ADVANCED_FACE('',(#598,#599),#16,.F.);
#662=ADVANCED_FACE('',(#600,#601),#17,.F.);
#663=ADVANCED_FACE('',(#602),#18,.T.);
#664=ADVANCED_FACE('',(#603),#19,.T.);
#665=ADVANCED_FACE('',(#604),#636,.F.);
#666=ADVANCED_FACE('',(#605),#637,.F.);
#667=ADVANCED_FACE('',(#606),#638,.F.);
#668=ADVANCED_FACE('',(#607,#608),#639,.F.);
#669=ADVANCED_FACE('',(#609),#20,.T.);
#670=ADVANCED_FACE('',(#610,#611),#21,.F.);
#671=ADVANCED_FACE('',(#612,#613),#640,.T.);
#672=ADVANCED_FACE('',(#614,#615),#22,.F.);
#673=ADVANCED_FACE('',(#616,#617),#23,.F.);
#674=ADVANCED_FACE('',(#618),#24,.T.);
#675=ADVANCED_FACE('',(#619),#25,.T.);
#676=CLOSED_SHELL('',(#641,#642,#643,#644,#645,#646,#647,#648,#649,#650,
#651,#652,#653,#654,#655,#656,#657,#658,#659,#660,#661,#662,#663,#664,#665,
#666,#667,#668,#669,#670,#671,#672,#673,#674,#675));
#677=STYLED_ITEM('',(#678),#685);
#678=PRESENTATION_STYLE_ASSIGNMENT((#679));
#679=SURFACE_STYLE_USAGE(.BOTH.,#680);
#680=SURFACE_SIDE_STYLE('',(#681));
#681=SURFACE_STYLE_FILL_AREA(#682);
#682=FILL_AREA_STYLE('',(#683));
#683=FILL_AREA_STYLE_COLOUR('',#684);
#684=COLOUR_RGB('',0.615686274509804,0.811764705882353,0.929411764705882);
#685=MANIFOLD_SOLID_BREP('Part 1',#676);
#686=SHAPE_DEFINITION_REPRESENTATION(#1138,#687);
#687=SHAPE_REPRESENTATION('Part 1',(#688),#1133);
#688=AXIS2_PLACEMENT_3D('',#942,#752,#753);
#689=AXIS2_PLACEMENT_3D('',#943,#754,#755);
#690=AXIS2_PLACEMENT_3D('',#952,#760,#761);
#691=AXIS2_PLACEMENT_3D('',#954,#762,#763);
#692=AXIS2_PLACEMENT_3D('',#959,#765,#766);
#693=AXIS2_PLACEMENT_3D('',#963,#768,#769);
#694=AXIS2_PLACEMENT_3D('',#967,#771,#772);
#695=AXIS2_PLACEMENT_3D('',#971,#774,#775);
#696=AXIS2_PLACEMENT_3D('',#972,#776,#777);
#697=AXIS2_PLACEMENT_3D('',#974,#778,#779);
#698=AXIS2_PLACEMENT_3D('',#976,#780,#781);
#699=AXIS2_PLACEMENT_3D('',#982,#785,#786);
#700=AXIS2_PLACEMENT_3D('',#983,#787,#788);
#701=AXIS2_PLACEMENT_3D('',#985,#789,#790);
#702=AXIS2_PLACEMENT_3D('',#993,#794,#795);
#703=AXIS2_PLACEMENT_3D('',#994,#796,#797);
#704=AXIS2_PLACEMENT_3D('',#996,#798,#799);
#705=AXIS2_PLACEMENT_3D('',#1002,#803,#804);
#706=AXIS2_PLACEMENT_3D('',#1008,#808,#809);
#707=AXIS2_PLACEMENT_3D('',#1014,#813,#814);
#708=AXIS2_PLACEMENT_3D('',#1015,#815,#816);
#709=AXIS2_PLACEMENT_3D('',#1019,#818,#819);
#710=AXIS2_PLACEMENT_3D('',#1023,#821,#822);
#711=AXIS2_PLACEMENT_3D('',#1026,#824,#825);
#712=AXIS2_PLACEMENT_3D('',#1028,#826,#827);
#713=AXIS2_PLACEMENT_3D('',#1031,#830,#831);
#714=AXIS2_PLACEMENT_3D('',#1034,#834,#835);
#715=AXIS2_PLACEMENT_3D('',#1059,#848,#849);
#716=AXIS2_PLACEMENT_3D('',#1084,#862,#863);
#717=AXIS2_PLACEMENT_3D('',#1085,#864,#865);
#718=AXIS2_PLACEMENT_3D('',#1086,#866,#867);
#719=AXIS2_PLACEMENT_3D('',#1087,#868,#869);
#720=AXIS2_PLACEMENT_3D('',#1088,#870,#871);
#721=AXIS2_PLACEMENT_3D('',#1089,#872,#873);
#722=AXIS2_PLACEMENT_3D('',#1090,#874,#875);
#723=AXIS2_PLACEMENT_3D('',#1092,#877,#878);
#724=AXIS2_PLACEMENT_3D('',#1095,#881,#882);
#725=AXIS2_PLACEMENT_3D('',#1097,#884,#885);
#726=AXIS2_PLACEMENT_3D('',#1098,#886,#887);
#727=AXIS2_PLACEMENT_3D('',#1100,#888,#889);
#728=AXIS2_PLACEMENT_3D('',#1101,#890,#891);
#729=AXIS2_PLACEMENT_3D('',#1102,#892,#893);
#730=AXIS2_PLACEMENT_3D('',#1103,#894,#895);
#731=AXIS2_PLACEMENT_3D('',#1104,#896,#897);
#732=AXIS2_PLACEMENT_3D('',#1106,#898,#899);
#733=AXIS2_PLACEMENT_3D('',#1107,#900,#901);
#734=AXIS2_PLACEMENT_3D('',#1108,#902,#903);
#735=AXIS2_PLACEMENT_3D('',#1109,#904,#905);
#736=AXIS2_PLACEMENT_3D('',#1110,#906,#907);
#737=AXIS2_PLACEMENT_3D('',#1111,#908,#909);
#738=AXIS2_PLACEMENT_3D('',#1114,#912,#913);
#739=AXIS2_PLACEMENT_3D('',#1116,#915,#916);
#740=AXIS2_PLACEMENT_3D('',#1118,#918,#919);
#741=AXIS2_PLACEMENT_3D('',#1119,#920,#921);
#742=AXIS2_PLACEMENT_3D('',#1121,#922,#923);
#743=AXIS2_PLACEMENT_3D('',#1122,#924,#925);
#744=AXIS2_PLACEMENT_3D('',#1123,#926,#927);
#745=AXIS2_PLACEMENT_3D('',#1124,#928,#929);
#746=AXIS2_PLACEMENT_3D('',#1125,#930,#931);
#747=AXIS2_PLACEMENT_3D('',#1127,#932,#933);
#748=AXIS2_PLACEMENT_3D('',#1128,#934,#935);
#749=AXIS2_PLACEMENT_3D('',#1129,#936,#937);
#750=AXIS2_PLACEMENT_3D('',#1130,#938,#939);
#751=AXIS2_PLACEMENT_3D('',#1131,#940,#941);
#752=DIRECTION('',(0.,0.,1.));
#753=DIRECTION('',(1.,0.,0.));
#754=DIRECTION('',(-1.23908819712629E-16,0.,-1.));
#755=DIRECTION('',(-1.,0.,1.23908819712629E-16));
#756=DIRECTION('',(1.,0.,-1.23908819712629E-16));
#757=DIRECTION('',(0.,-1.,0.));
#758=DIRECTION('',(1.,0.,-1.23908819712629E-16));
#759=DIRECTION('',(0.,-1.,0.));
#760=DIRECTION('',(-1.23908819712629E-16,0.,-1.));
#761=DIRECTION('',(-1.,0.,1.23908819712629E-16));
#762=DIRECTION('',(-1.23908819712629E-16,0.,-1.));
#763=DIRECTION('',(-1.,0.,1.23908819712629E-16));
#764=DIRECTION('',(1.,0.,-1.23908819712629E-16));
#765=DIRECTION('',(-1.23908819712629E-16,0.,-1.));
#766=DIRECTION('',(-1.,0.,1.23908819712629E-16));
#767=DIRECTION('',(0.,-1.,0.));
#768=DIRECTION('',(1.23908819712629E-16,0.,1.));
#769=DIRECTION('',(-1.,0.,1.23908819712629E-16));
#770=DIRECTION('',(1.,0.,-1.23908819712629E-16));
#771=DIRECTION('',(1.23908819712629E-16,0.,1.));
#772=DIRECTION('',(-1.,0.,1.23908819712629E-16));
#773=DIRECTION('',(0.,-1.,0.));
#774=DIRECTION('',(-1.23908819712629E-16,0.,-1.));
#775=DIRECTION('',(-1.,0.,1.23908819712629E-16));
#776=DIRECTION('',(1.23908819712629E-16,0.,1.));
#777=DIRECTION('',(-1.,0.,1.23908819712629E-16));
#778=DIRECTION('',(1.23908819712629E-16,0.,1.));
#779=DIRECTION('',(-1.,0.,1.23908819712629E-16));
#780=DIRECTION('',(1.,0.,0.));
#781=DIRECTION('',(0.,0.,-1.));
#782=DIRECTION('',(0.,0.,1.));
#783=DIRECTION('',(0.,-1.,0.));
#784=DIRECTION('',(0.,0.,1.));
#785=DIRECTION('',(0.,0.,1.));
#786=DIRECTION('',(1.,0.,0.));
#787=DIRECTION('',(0.,0.,1.));
#788=DIRECTION('',(1.,0.,0.));
#789=DIRECTION('',(0.,0.,1.));
#790=DIRECTION('',(1.,0.,0.));
#791=DIRECTION('',(-1.,0.,0.));
#792=DIRECTION('',(0.,-1.,0.));
#793=DIRECTION('',(-1.,0.,0.));
#794=DIRECTION('',(0.,0.,-1.));
#795=DIRECTION('',(1.,0.,0.));
#796=DIRECTION('',(0.,0.,-1.));
#797=DIRECTION('',(1.,0.,0.));
#798=DIRECTION('',(-1.,0.,0.));
#799=DIRECTION('',(0.,0.,1.));
#800=DIRECTION('',(0.,-1.,0.));
#801=DIRECTION('',(0.,0.,-1.));
#802=DIRECTION('',(0.,0.,-1.));
#803=DIRECTION('',(2.47817639425258E-16,0.,1.));
#804=DIRECTION('',(1.,0.,-2.47817639425258E-16));
#805=DIRECTION('',(0.,-1.,0.));
#806=DIRECTION('',(-1.,0.,2.47817639425258E-16));
#807=DIRECTION('',(-1.,0.,2.47817639425258E-16));
#808=DIRECTION('',(-1.,0.,0.));
#809=DIRECTION('',(0.,0.,1.));
#810=DIRECTION('',(0.,-1.,0.));
#811=DIRECTION('',(0.,0.,-1.));
#812=DIRECTION('',(0.,0.,-1.));
#813=DIRECTION('',(0.,0.,-1.));
#814=DIRECTION('',(-1.,0.,0.));
#815=DIRECTION('',(0.,0.,-1.));
#816=DIRECTION('',(-1.,0.,0.));
#817=DIRECTION('',(1.,0.,0.));
#818=DIRECTION('',(0.,0.,-1.));
#819=DIRECTION('',(-1.,0.,0.));
#820=DIRECTION('',(0.,-1.,0.));
#821=DIRECTION('',(0.,0.,1.));
#822=DIRECTION('',(-1.,0.,0.));
#823=DIRECTION('',(1.,0.,0.));
#824=DIRECTION('',(0.,0.,1.));
#825=DIRECTION('',(-1.,0.,0.));
#826=DIRECTION('',(1.,0.,0.));
#827=DIRECTION('',(0.,0.,-1.));
#828=DIRECTION('',(0.,0.,1.));
#829=DIRECTION('',(0.,0.,1.));
#830=DIRECTION('',(0.,-1.,0.));
#831=DIRECTION('',(1.,0.,0.));
#832=DIRECTION('',(0.,0.,1.));
#833=DIRECTION('',(0.,0.,1.));
#834=DIRECTION('',(-1.,0.,0.));
#835=DIRECTION('',(0.,0.,1.));
#836=DIRECTION('',(0.,-1.,0.));
#837=DIRECTION('',(0.,0.,-1.));
#838=DIRECTION('',(0.,1.,0.));
#839=DIRECTION('',(0.,0.,-1.));
#840=DIRECTION('',(0.,1.,0.));
#841=DIRECTION('',(0.,0.,-1.));
#842=DIRECTION('',(0.,-1.,0.));
#843=DIRECTION('',(0.,0.,-1.));
#844=DIRECTION('',(0.,-1.,0.));
#845=DIRECTION('',(0.,0.,-1.));
#846=DIRECTION('',(0.,-1.,0.));
#847=DIRECTION('',(0.,0.,-1.));
#848=DIRECTION('',(-1.,0.,0.));
#849=DIRECTION('',(0.,0.,1.));
#850=DIRECTION('',(0.,-1.,0.));
#851=DIRECTION('',(0.,0.,-1.));
#852=DIRECTION('',(0.,1.,0.));
#853=DIRECTION('',(0.,0.,-1.));
#854=DIRECTION('',(0.,1.,0.));
#855=DIRECTION('',(0.,0.,-1.));
#856=DIRECTION('',(0.,-1.,0.));
#857=DIRECTION('',(0.,0.,-1.));
#858=DIRECTION('',(0.,-1.,0.));
#859=DIRECTION('',(0.,0.,-1.));
#860=DIRECTION('',(0.,-1.,0.));
#861=DIRECTION('',(0.,0.,-1.));
#862=DIRECTION('',(0.,-1.,0.));
#863=DIRECTION('',(0.,0.,-1.));
#864=DIRECTION('',(0.,1.,0.));
#865=DIRECTION('',(0.,0.,-1.));
#866=DIRECTION('',(0.,1.,0.));
#867=DIRECTION('',(0.,0.,-1.));
#868=DIRECTION('',(0.,-1.,0.));
#869=DIRECTION('',(0.,0.,-1.));
#870=DIRECTION('',(0.,-1.,0.));
#871=DIRECTION('',(0.,0.,-1.));
#872=DIRECTION('',(0.,-1.,0.));
#873=DIRECTION('',(0.,0.,-1.));
#874=DIRECTION('',(0.,-1.,0.));
#875=DIRECTION('',(1.,0.,0.));
#876=DIRECTION('',(1.,0.,0.));
#877=DIRECTION('',(0.,0.,-1.));
#878=DIRECTION('',(-1.,0.,0.));
#879=DIRECTION('',(1.,0.,0.));
#880=DIRECTION('',(1.,0.,0.));
#881=DIRECTION('',(0.,0.,1.));
#882=DIRECTION('',(1.,0.,0.));
#883=DIRECTION('',(-1.,0.,0.));
#884=DIRECTION('',(0.,1.,0.));
#885=DIRECTION('',(-1.,0.,0.));
#886=DIRECTION('',(0.,1.,0.));
#887=DIRECTION('',(0.,0.,1.));
#888=DIRECTION('',(0.,1.,0.));
#889=DIRECTION('',(0.,0.,1.));
#890=DIRECTION('',(0.,-1.,0.));
#891=DIRECTION('',(0.,0.,-1.));
#892=DIRECTION('',(0.,1.,0.));
#893=DIRECTION('',(0.,0.,1.));
#894=DIRECTION('',(0.,-1.,0.));
#895=DIRECTION('',(0.,0.,-1.));
#896=DIRECTION('',(0.,1.,0.));
#897=DIRECTION('',(0.,0.,1.));
#898=DIRECTION('',(0.,1.,0.));
#899=DIRECTION('',(-1.,0.,0.));
#900=DIRECTION('',(-1.23908819712629E-16,0.,-1.));
#901=DIRECTION('',(-1.,0.,1.23908819712629E-16));
#902=DIRECTION('',(-1.23908819712629E-16,0.,-1.));
#903=DIRECTION('',(-1.,0.,1.23908819712629E-16));
#904=DIRECTION('',(0.,0.,1.));
#905=DIRECTION('',(1.,0.,0.));
#906=DIRECTION('',(0.,0.,-1.));
#907=DIRECTION('',(-1.,0.,0.));
#908=DIRECTION('',(0.,1.,0.));
#909=DIRECTION('',(1.,0.,0.));
#910=DIRECTION('',(0.,0.,1.));
#911=DIRECTION('',(0.,0.,1.));
#912=DIRECTION('',(0.,1.,0.));
#913=DIRECTION('',(1.,0.,0.));
#914=DIRECTION('',(1.,0.,0.));
#915=DIRECTION('',(0.,0.,1.));
#916=DIRECTION('',(1.,0.,0.));
#917=DIRECTION('',(-1.,0.,0.));
#918=DIRECTION('',(0.,-1.,0.));
#919=DIRECTION('',(-1.,0.,0.));
#920=DIRECTION('',(0.,1.,0.));
#921=DIRECTION('',(0.,0.,1.));
#922=DIRECTION('',(0.,1.,0.));
#923=DIRECTION('',(0.,0.,1.));
#924=DIRECTION('',(0.,1.,0.));
#925=DIRECTION('',(0.,0.,-1.));
#926=DIRECTION('',(0.,1.,0.));
#927=DIRECTION('',(0.,0.,1.));
#928=DIRECTION('',(0.,1.,0.));
#929=DIRECTION('',(0.,0.,-1.));
#930=DIRECTION('',(0.,1.,0.));
#931=DIRECTION('',(0.,0.,1.));
#932=DIRECTION('',(0.,-1.,0.));
#933=DIRECTION('',(-1.,0.,0.));
#934=DIRECTION('',(-1.23908819712629E-16,0.,-1.));
#935=DIRECTION('',(-1.,0.,1.23908819712629E-16));
#936=DIRECTION('',(-1.23908819712629E-16,0.,-1.));
#937=DIRECTION('',(-1.,0.,1.23908819712629E-16));
#938=DIRECTION('',(0.,0.,1.));
#939=DIRECTION('',(1.,0.,0.));
#940=DIRECTION('',(0.,0.,-1.));
#941=DIRECTION('',(-1.,0.,0.));
#942=CARTESIAN_POINT('',(0.,0.,0.));
#943=CARTESIAN_POINT('',(-0.021,0.03,0.015));
#944=CARTESIAN_POINT('',(-0.021,-0.007,0.015));
#945=CARTESIAN_POINT('',(-0.042,-0.007,0.015));
#946=CARTESIAN_POINT('',(0.042,-0.007,0.015));
#947=CARTESIAN_POINT('',(-0.042,0.007,0.015));
#948=CARTESIAN_POINT('',(-0.042,0.007,0.015));
#949=CARTESIAN_POINT('',(-0.021,0.007,0.015));
#950=CARTESIAN_POINT('',(0.042,0.007,0.015));
#951=CARTESIAN_POINT('',(0.042,0.007,0.015));
#952=CARTESIAN_POINT('',(0.04,0.02,0.015));
#953=CARTESIAN_POINT('',(0.035,0.02,0.015));
#954=CARTESIAN_POINT('',(-0.04,0.02,0.015));
#955=CARTESIAN_POINT('',(-0.045,0.02,0.015));
#956=CARTESIAN_POINT('',(-0.021,0.03,0.015));
#957=CARTESIAN_POINT('',(-0.04,0.03,0.015));
#958=CARTESIAN_POINT('',(0.04,0.03,0.015));
#959=CARTESIAN_POINT('',(-0.04,0.02,0.015));
#960=CARTESIAN_POINT('',(-0.05,0.02,0.015));
#961=CARTESIAN_POINT('',(-0.05,0.03,0.015));
#962=CARTESIAN_POINT('',(-0.05,-0.02,0.015));
#963=CARTESIAN_POINT('',(-0.04,-0.02,0.015));
#964=CARTESIAN_POINT('',(-0.04,-0.03,0.015));
#965=CARTESIAN_POINT('',(-0.021,-0.03,0.015));
#966=CARTESIAN_POINT('',(0.04,-0.03,0.015));
#967=CARTESIAN_POINT('',(0.04,-0.02,0.015));
#968=CARTESIAN_POINT('',(0.05,-0.02,0.015));
#969=CARTESIAN_POINT('',(0.05,0.03,0.015));
#970=CARTESIAN_POINT('',(0.05,0.02,0.015));
#971=CARTESIAN_POINT('',(0.04,0.02,0.015));
#972=CARTESIAN_POINT('',(0.04,-0.02,0.015));
#973=CARTESIAN_POINT('',(0.035,-0.02,0.015));
#974=CARTESIAN_POINT('',(-0.04,-0.02,0.015));
#975=CARTESIAN_POINT('',(-0.045,-0.02,0.015));
#976=CARTESIAN_POINT('',(-0.05,0.03,0.0075));
#977=CARTESIAN_POINT('',(-0.05,0.02,0.0075));
#978=CARTESIAN_POINT('',(-0.05,0.02,3.46944695195361E-18));
#979=CARTESIAN_POINT('',(-0.05,0.03,3.46944695195361E-18));
#980=CARTESIAN_POINT('',(-0.05,-0.02,3.46944695195361E-18));
#981=CARTESIAN_POINT('',(-0.05,-0.02,0.0075));
#982=CARTESIAN_POINT('',(-0.0355,0.03,0.));
#983=CARTESIAN_POINT('',(-0.04,0.02,0.));
#984=CARTESIAN_POINT('',(-0.035,0.02,0.));
#985=CARTESIAN_POINT('',(-0.04,0.02,0.));
#986=CARTESIAN_POINT('',(-0.04,0.03,0.));
#987=CARTESIAN_POINT('',(-0.0355,0.03,0.));
#988=CARTESIAN_POINT('',(-0.021,0.03,0.));
#989=CARTESIAN_POINT('',(-0.021,0.03,0.));
#990=CARTESIAN_POINT('',(-0.021,-0.03,0.));
#991=CARTESIAN_POINT('',(-0.0355,-0.03,0.));
#992=CARTESIAN_POINT('',(-0.04,-0.03,0.));
#993=CARTESIAN_POINT('',(-0.04,-0.02,0.));
#994=CARTESIAN_POINT('',(-0.04,-0.02,0.));
#995=CARTESIAN_POINT('',(-0.035,-0.02,0.));
#996=CARTESIAN_POINT('',(-0.021,0.03,0.0025));
#997=CARTESIAN_POINT('',(-0.021,0.03,0.005));
#998=CARTESIAN_POINT('',(-0.021,0.03,0.005));
#999=CARTESIAN_POINT('',(-0.021,-0.03,0.005));
#1000=CARTESIAN_POINT('',(-0.021,-0.03,0.0025));
#1001=CARTESIAN_POINT('',(-0.021,0.03,0.0025));
#1002=CARTESIAN_POINT('',(-0.0105,0.03,0.005));
#1003=CARTESIAN_POINT('',(0.021,0.03,0.005));
#1004=CARTESIAN_POINT('',(0.021,0.03,0.005));
#1005=CARTESIAN_POINT('',(0.021,-0.03,0.005));
#1006=CARTESIAN_POINT('',(-0.0105,-0.03,0.005));
#1007=CARTESIAN_POINT('',(-0.0105,0.03,0.005));
#1008=CARTESIAN_POINT('',(0.021,0.03,0.0025));
#1009=CARTESIAN_POINT('',(0.021,0.03,-4.33680868994202E-18));
#1010=CARTESIAN_POINT('',(0.021,0.03,-4.33680868994202E-18));
#1011=CARTESIAN_POINT('',(0.021,-0.03,-4.33680868994202E-18));
#1012=CARTESIAN_POINT('',(0.021,-0.03,0.0025));
#1013=CARTESIAN_POINT('',(0.021,0.03,0.0025));
#1014=CARTESIAN_POINT('',(0.0355,0.03,0.));
#1015=CARTESIAN_POINT('',(0.04,0.02,0.));
#1016=CARTESIAN_POINT('',(0.035,0.02,0.));
#1017=CARTESIAN_POINT('',(0.0355,0.03,0.));
#1018=CARTESIAN_POINT('',(0.04,0.03,0.));
#1019=CARTESIAN_POINT('',(0.04,0.02,0.));
#1020=CARTESIAN_POINT('',(0.05,0.02,0.));
#1021=CARTESIAN_POINT('',(0.05,0.03,0.));
#1022=CARTESIAN_POINT('',(0.05,-0.02,0.));
#1023=CARTESIAN_POINT('',(0.04,-0.02,0.));
#1024=CARTESIAN_POINT('',(0.04,-0.03,0.));
#1025=CARTESIAN_POINT('',(0.0355,-0.03,0.));
#1026=CARTESIAN_POINT('',(0.04,-0.02,0.));
#1027=CARTESIAN_POINT('',(0.035,-0.02,0.));
#1028=CARTESIAN_POINT('',(0.05,0.03,0.0075));
#1029=CARTESIAN_POINT('',(0.05,0.02,0.015));
#1030=CARTESIAN_POINT('',(0.05,-0.02,0.015));
#1031=CARTESIAN_POINT('',(0.,0.03,0.));
#1032=CARTESIAN_POINT('',(-0.04,0.03,0.));
#1033=CARTESIAN_POINT('',(0.04,0.03,0.));
#1034=CARTESIAN_POINT('',(0.02,0.007,0.114596052460712));
#1035=CARTESIAN_POINT('',(0.02,0.014,0.13));
#1036=CARTESIAN_POINT('',(0.02,0.014,0.13));
#1037=CARTESIAN_POINT('',(0.02,-0.014,0.13));
#1038=CARTESIAN_POINT('',(0.02,-0.014,0.1425));
#1039=CARTESIAN_POINT('',(0.02,-0.014,0.155));
#1040=CARTESIAN_POINT('',(0.02,-0.019,0.155));
#1041=CARTESIAN_POINT('',(0.02,-0.019,0.155));
#1042=CARTESIAN_POINT('',(0.02,-0.019,0.1425));
#1043=CARTESIAN_POINT('',(0.02,-0.019,0.123));
#1044=CARTESIAN_POINT('',(0.02,-0.014,0.123));
#1045=CARTESIAN_POINT('',(0.02,-0.007,0.123));
#1046=CARTESIAN_POINT('',(0.02,-0.007,0.114596052460712));
#1047=CARTESIAN_POINT('',(0.02,-0.007,0.106192104921424));
#1048=CARTESIAN_POINT('',(0.02,0.007,0.106192104921424));
#1049=CARTESIAN_POINT('',(0.02,0.007,0.106192104921424));
#1050=CARTESIAN_POINT('',(0.02,0.007,0.114596052460712));
#1051=CARTESIAN_POINT('',(0.02,0.007,0.123));
#1052=CARTESIAN_POINT('',(0.02,0.014,0.123));
#1053=CARTESIAN_POINT('',(0.02,0.019,0.123));
#1054=CARTESIAN_POINT('',(0.02,0.019,0.1425));
#1055=CARTESIAN_POINT('',(0.02,0.019,0.155));
#1056=CARTESIAN_POINT('',(0.02,0.019,0.155));
#1057=CARTESIAN_POINT('',(0.02,0.014,0.155));
#1058=CARTESIAN_POINT('',(0.02,0.014,0.1425));
#1059=CARTESIAN_POINT('',(-0.02,0.007,0.114596052460712));
#1060=CARTESIAN_POINT('',(-0.02,0.007,0.106192104921424));
#1061=CARTESIAN_POINT('',(-0.02,0.007,0.106192104921424));
#1062=CARTESIAN_POINT('',(-0.02,-0.007,0.106192104921424));
#1063=CARTESIAN_POINT('',(-0.02,-0.007,0.114596052460712));
#1064=CARTESIAN_POINT('',(-0.02,-0.007,0.123));
#1065=CARTESIAN_POINT('',(-0.02,-0.014,0.123));
#1066=CARTESIAN_POINT('',(-0.02,-0.019,0.123));
#1067=CARTESIAN_POINT('',(-0.02,-0.019,0.1425));
#1068=CARTESIAN_POINT('',(-0.02,-0.019,0.155));
#1069=CARTESIAN_POINT('',(-0.02,-0.019,0.155));
#1070=CARTESIAN_POINT('',(-0.02,-0.014,0.155));
#1071=CARTESIAN_POINT('',(-0.02,-0.014,0.1425));
#1072=CARTESIAN_POINT('',(-0.02,-0.014,0.13));
#1073=CARTESIAN_POINT('',(-0.02,0.014,0.13));
#1074=CARTESIAN_POINT('',(-0.02,0.014,0.13));
#1075=CARTESIAN_POINT('',(-0.02,0.014,0.1425));
#1076=CARTESIAN_POINT('',(-0.02,0.014,0.155));
#1077=CARTESIAN_POINT('',(-0.02,0.019,0.155));
#1078=CARTESIAN_POINT('',(-0.02,0.019,0.155));
#1079=CARTESIAN_POINT('',(-0.02,0.019,0.1425));
#1080=CARTESIAN_POINT('',(-0.02,0.019,0.123));
#1081=CARTESIAN_POINT('',(-0.02,0.014,0.123));
#1082=CARTESIAN_POINT('',(-0.02,0.007,0.123));
#1083=CARTESIAN_POINT('',(-0.02,0.007,0.114596052460712));
#1084=CARTESIAN_POINT('',(-0.22,0.007,0.106192104921424));
#1085=CARTESIAN_POINT('',(-0.22,-0.007,0.106192104921424));
#1086=CARTESIAN_POINT('',(-0.22,0.007,0.106192104921424));
#1087=CARTESIAN_POINT('',(0.22,0.007,0.106192104921424));
#1088=CARTESIAN_POINT('',(0.22,-0.007,0.106192104921424));
#1089=CARTESIAN_POINT('',(0.22,0.007,0.106192104921424));
#1090=CARTESIAN_POINT('',(0.,0.007,0.));
#1091=CARTESIAN_POINT('',(0.01,0.007,0.123));
#1092=CARTESIAN_POINT('',(0.01,0.014,0.13));
#1093=CARTESIAN_POINT('',(0.01,-0.014,0.13));
#1094=CARTESIAN_POINT('',(0.01,0.014,0.13));
#1095=CARTESIAN_POINT('',(-0.01,0.014,0.123));
#1096=CARTESIAN_POINT('',(-0.01,0.019,0.123));
#1097=CARTESIAN_POINT('',(0.,0.014,0.149));
#1098=CARTESIAN_POINT('',(4.59242549680257E-19,0.014,0.155));
#1099=CARTESIAN_POINT('',(4.59242549680257E-19,0.014,0.1625));
#1100=CARTESIAN_POINT('',(0.,0.014,0.155));
#1101=CARTESIAN_POINT('',(0.,0.019,0.155));
#1102=CARTESIAN_POINT('',(0.,0.019,0.155));
#1103=CARTESIAN_POINT('',(4.59242549680257E-19,0.019,0.155));
#1104=CARTESIAN_POINT('',(4.59242549680257E-19,0.019,0.155));
#1105=CARTESIAN_POINT('',(4.59242549680257E-19,0.019,0.1625));
#1106=CARTESIAN_POINT('',(0.,0.019,0.149));
#1107=CARTESIAN_POINT('',(0.04,0.02,0.015));
#1108=CARTESIAN_POINT('',(-0.04,0.02,0.015));
#1109=CARTESIAN_POINT('',(-0.04,0.02,0.));
#1110=CARTESIAN_POINT('',(0.04,0.02,0.0075));
#1111=CARTESIAN_POINT('',(0.,-0.03,0.));
#1112=CARTESIAN_POINT('',(0.04,-0.03,0.));
#1113=CARTESIAN_POINT('',(-0.04,-0.03,0.));
#1114=CARTESIAN_POINT('',(0.,-0.007,0.));
#1115=CARTESIAN_POINT('',(0.01,-0.007,0.123));
#1116=CARTESIAN_POINT('',(-0.01,-0.014,0.123));
#1117=CARTESIAN_POINT('',(-0.01,-0.019,0.123));
#1118=CARTESIAN_POINT('',(0.,-0.014,0.149));
#1119=CARTESIAN_POINT('',(4.59242549680257E-19,-0.014,0.155));
#1120=CARTESIAN_POINT('',(4.59242549680257E-19,-0.014,0.1625));
#1121=CARTESIAN_POINT('',(0.,-0.014,0.155));
#1122=CARTESIAN_POINT('',(0.,-0.019,0.155));
#1123=CARTESIAN_POINT('',(0.,-0.019,0.155));
#1124=CARTESIAN_POINT('',(4.59242549680257E-19,-0.019,0.155));
#1125=CARTESIAN_POINT('',(4.59242549680257E-19,-0.019,0.155));
#1126=CARTESIAN_POINT('',(4.59242549680257E-19,-0.019,0.1625));
#1127=CARTESIAN_POINT('',(0.,-0.019,0.149));
#1128=CARTESIAN_POINT('',(0.04,-0.02,0.015));
#1129=CARTESIAN_POINT('',(-0.04,-0.02,0.015));
#1130=CARTESIAN_POINT('',(-0.04,-0.02,0.));
#1131=CARTESIAN_POINT('',(0.04,-0.02,0.0075));
#1132=MECHANICAL_DESIGN_GEOMETRIC_PRESENTATION_REPRESENTATION('',(#677),
#1133);
#1133=(
GEOMETRIC_REPRESENTATION_CONTEXT(3)
GLOBAL_UNCERTAINTY_ASSIGNED_CONTEXT((#1134))
GLOBAL_UNIT_ASSIGNED_CONTEXT((#1137,#1136,#1135))
REPRESENTATION_CONTEXT('Part 1','TOP_LEVEL_ASSEMBLY_PART')
);
#1134=UNCERTAINTY_MEASURE_WITH_UNIT(LENGTH_MEASURE(1.E-8),#1137,
'DISTANCE_ACCURACY_VALUE','Maximum Tolerance applied to model');
#1135=(
NAMED_UNIT(*)
SI_UNIT($,.STERADIAN.)
SOLID_ANGLE_UNIT()
);
#1136=(
NAMED_UNIT(*)
PLANE_ANGLE_UNIT()
SI_UNIT($,.RADIAN.)
);
#1137=(
LENGTH_UNIT()
NAMED_UNIT(*)
SI_UNIT($,.METRE.)
);
#1138=PRODUCT_DEFINITION_SHAPE('','',#1139);
#1139=PRODUCT_DEFINITION('','',#1141,#1140);
#1140=PRODUCT_DEFINITION_CONTEXT('',#1147,'design');
#1141=PRODUCT_DEFINITION_FORMATION_WITH_SPECIFIED_SOURCE('','',#1143,
 .NOT_KNOWN.);
#1142=PRODUCT_RELATED_PRODUCT_CATEGORY('','',(#1143));
#1143=PRODUCT('Part 1','Part 1','Part 1',(#1145));
#1144=PRODUCT_CATEGORY('','');
#1145=PRODUCT_CONTEXT('',#1147,'mechanical');
#1146=APPLICATION_PROTOCOL_DEFINITION('international standard',
'ap242_managed_model_based_3d_engineering',2020,#1147);
#1147=APPLICATION_CONTEXT('managed model based 3d engineering');
ENDSEC;
END-ISO-10303-21;
