ISO-10303-21;
HEADER;
/* Generated by software containing ST-Developer
 * from STEP Tools, Inc. (www.steptools.com) 
 */
/* OPTION: using custom renumber hook */

FILE_DESCRIPTION(
/* description */ ('STEP AP242 Edition 2',
'CAx-IF Rec.Pracs.---Representation and Presentation of Product Manufa
cturing Information (PMI)---4.0---2014-10-13',
'CAx-IF Rec.Pracs.---3D Tessellated Geometry---0.4---2014-09-14','2;1',
'CAx-IF Rec.Pracs.---User Defined Attributes---1.5---2016-08-15'),
/* implementation_level */ '2;1');

FILE_NAME(
/* name */ 'Part Studio 1',
/* time_stamp */ '2026-07-05T15:59:04Z',
/* author */ (''),
/* organization */ (''),
/* preprocessor_version */ 'ST-DEVELOPER v20',
/* originating_system */ 'ONSHAPE BY PTC INC, 1.217',
/* authorisation */ '  ');

FILE_SCHEMA (('AP242_MANAGED_MODEL_BASED_3D_ENGINEERING_MIM_LF { 1 0 10303 442 3 1 4 }'));
ENDSEC;

DATA;
#10=SHAPE_REPRESENTATION_RELATIONSHIP('','',#151,#11);
#11=ADVANCED_BREP_SHAPE_REPRESENTATION('',(#149),#249);
#12=CONICAL_SURFACE('',#165,0.0022,0.523598775598299);
#13=CONICAL_SURFACE('',#166,0.00162264973081037,0.523598775598299);
#14=PLANE('',#156);
#15=PLANE('',#160);
#16=PLANE('',#161);
#17=PLANE('',#163);
#18=LINE('',#214,#30);
#19=LINE('',#218,#31);
#20=LINE('',#220,#32);
#21=LINE('',#222,#33);
#22=LINE('',#224,#34);
#23=LINE('',#226,#35);
#24=LINE('',#228,#36);
#25=LINE('',#232,#37);
#26=LINE('',#236,#38);
#27=LINE('',#238,#39);
#28=LINE('',#239,#40);
#29=LINE('',#241,#41);
#30=VECTOR('',#173,1.);
#31=VECTOR('',#176,1.);
#32=VECTOR('',#179,1.);
#33=VECTOR('',#180,1.);
#34=VECTOR('',#181,1.);
#35=VECTOR('',#182,1.);
#36=VECTOR('',#183,1.);
#37=VECTOR('',#188,1.);
#38=VECTOR('',#193,1.);
#39=VECTOR('',#194,1.);
#40=VECTOR('',#195,1.);
#41=VECTOR('',#196,1.);
#42=ORIENTED_EDGE('',*,*,#78,.T.);
#43=ORIENTED_EDGE('',*,*,#79,.F.);
#44=ORIENTED_EDGE('',*,*,#80,.F.);
#45=ORIENTED_EDGE('',*,*,#81,.T.);
#46=ORIENTED_EDGE('',*,*,#82,.T.);
#47=ORIENTED_EDGE('',*,*,#83,.T.);
#48=ORIENTED_EDGE('',*,*,#84,.T.);
#49=ORIENTED_EDGE('',*,*,#85,.T.);
#50=ORIENTED_EDGE('',*,*,#86,.F.);
#51=ORIENTED_EDGE('',*,*,#81,.F.);
#52=ORIENTED_EDGE('',*,*,#84,.F.);
#53=ORIENTED_EDGE('',*,*,#87,.T.);
#54=ORIENTED_EDGE('',*,*,#88,.T.);
#55=ORIENTED_EDGE('',*,*,#89,.T.);
#56=ORIENTED_EDGE('',*,*,#88,.F.);
#57=ORIENTED_EDGE('',*,*,#90,.T.);
#58=ORIENTED_EDGE('',*,*,#91,.F.);
#59=ORIENTED_EDGE('',*,*,#79,.T.);
#60=ORIENTED_EDGE('',*,*,#92,.T.);
#61=ORIENTED_EDGE('',*,*,#93,.T.);
#62=ORIENTED_EDGE('',*,*,#91,.T.);
#63=ORIENTED_EDGE('',*,*,#94,.T.);
#64=ORIENTED_EDGE('',*,*,#82,.F.);
#65=ORIENTED_EDGE('',*,*,#80,.T.);
#66=ORIENTED_EDGE('',*,*,#86,.T.);
#67=ORIENTED_EDGE('',*,*,#95,.T.);
#68=ORIENTED_EDGE('',*,*,#92,.F.);
#69=ORIENTED_EDGE('',*,*,#78,.F.);
#70=ORIENTED_EDGE('',*,*,#83,.F.);
#71=ORIENTED_EDGE('',*,*,#94,.F.);
#72=ORIENTED_EDGE('',*,*,#90,.F.);
#73=ORIENTED_EDGE('',*,*,#87,.F.);
#74=ORIENTED_EDGE('',*,*,#85,.F.);
#75=ORIENTED_EDGE('',*,*,#89,.F.);
#76=ORIENTED_EDGE('',*,*,#93,.F.);
#77=ORIENTED_EDGE('',*,*,#95,.F.);
#78=EDGE_CURVE('',#96,#97,#108,.T.);
#79=EDGE_CURVE('',#98,#97,#18,.T.);
#80=EDGE_CURVE('',#99,#98,#109,.T.);
#81=EDGE_CURVE('',#99,#96,#19,.T.);
#82=EDGE_CURVE('',#99,#100,#20,.T.);
#83=EDGE_CURVE('',#100,#101,#21,.T.);
#84=EDGE_CURVE('',#101,#102,#22,.T.);
#85=EDGE_CURVE('',#102,#103,#23,.T.);
#86=EDGE_CURVE('',#96,#103,#24,.T.);
#87=EDGE_CURVE('',#101,#104,#110,.T.);
#88=EDGE_CURVE('',#104,#105,#25,.T.);
#89=EDGE_CURVE('',#105,#102,#111,.F.);
#90=EDGE_CURVE('',#104,#106,#26,.F.);
#91=EDGE_CURVE('',#98,#106,#27,.T.);
#92=EDGE_CURVE('',#97,#107,#28,.T.);
#93=EDGE_CURVE('',#107,#105,#29,.F.);
#94=EDGE_CURVE('',#106,#100,#112,.F.);
#95=EDGE_CURVE('',#103,#107,#113,.T.);
#96=VERTEX_POINT('',#212);
#97=VERTEX_POINT('',#213);
#98=VERTEX_POINT('',#215);
#99=VERTEX_POINT('',#217);
#100=VERTEX_POINT('',#221);
#101=VERTEX_POINT('',#223);
#102=VERTEX_POINT('',#225);
#103=VERTEX_POINT('',#227);
#104=VERTEX_POINT('',#231);
#105=VERTEX_POINT('',#233);
#106=VERTEX_POINT('',#237);
#107=VERTEX_POINT('',#240);
#108=CIRCLE('',#154,0.00145);
#109=CIRCLE('',#155,0.00145);
#110=CIRCLE('',#158,0.0022);
#111=CIRCLE('',#159,0.0022);
#112=CIRCLE('',#162,0.00162264973081037);
#113=CIRCLE('',#164,0.00162264973081037);
#114=EDGE_LOOP('',(#42,#43,#44,#45));
#115=EDGE_LOOP('',(#46,#47,#48,#49,#50,#51));
#116=EDGE_LOOP('',(#52,#53,#54,#55));
#117=EDGE_LOOP('',(#56,#57,#58,#59,#60,#61));
#118=EDGE_LOOP('',(#62,#63,#64,#65));
#119=EDGE_LOOP('',(#66,#67,#68,#69));
#120=EDGE_LOOP('',(#70,#71,#72,#73));
#121=EDGE_LOOP('',(#74,#75,#76,#77));
#122=FACE_BOUND('',#114,.T.);
#123=FACE_BOUND('',#115,.T.);
#124=FACE_BOUND('',#116,.T.);
#125=FACE_BOUND('',#117,.T.);
#126=FACE_BOUND('',#118,.T.);
#127=FACE_BOUND('',#119,.T.);
#128=FACE_BOUND('',#120,.T.);
#129=FACE_BOUND('',#121,.T.);
#130=CYLINDRICAL_SURFACE('',#153,0.00145);
#131=CYLINDRICAL_SURFACE('',#157,0.0022);
#132=ADVANCED_FACE('',(#122),#130,.F.);
#133=ADVANCED_FACE('',(#123),#14,.T.);
#134=ADVANCED_FACE('',(#124),#131,.T.);
#135=ADVANCED_FACE('',(#125),#15,.F.);
#136=ADVANCED_FACE('',(#126),#16,.F.);
#137=ADVANCED_FACE('',(#127),#17,.T.);
#138=ADVANCED_FACE('',(#128),#12,.T.);
#139=ADVANCED_FACE('',(#129),#13,.T.);
#140=CLOSED_SHELL('',(#132,#133,#134,#135,#136,#137,#138,#139));
#141=STYLED_ITEM('',(#142),#149);
#142=PRESENTATION_STYLE_ASSIGNMENT((#143));
#143=SURFACE_STYLE_USAGE(.BOTH.,#144);
#144=SURFACE_SIDE_STYLE('',(#145));
#145=SURFACE_STYLE_FILL_AREA(#146);
#146=FILL_AREA_STYLE('',(#147));
#147=FILL_AREA_STYLE_COLOUR('',#148);
#148=COLOUR_RGB('',0.615686274509804,0.811764705882353,0.929411764705882);
#149=MANIFOLD_SOLID_BREP('Part 1',#140);
#150=SHAPE_DEFINITION_REPRESENTATION(#254,#151);
#151=SHAPE_REPRESENTATION('Part 1',(#152),#249);
#152=AXIS2_PLACEMENT_3D('',#209,#167,#168);
#153=AXIS2_PLACEMENT_3D('',#210,#169,#170);
#154=AXIS2_PLACEMENT_3D('',#211,#171,#172);
#155=AXIS2_PLACEMENT_3D('',#216,#174,#175);
#156=AXIS2_PLACEMENT_3D('',#219,#177,#178);
#157=AXIS2_PLACEMENT_3D('',#229,#184,#185);
#158=AXIS2_PLACEMENT_3D('',#230,#186,#187);
#159=AXIS2_PLACEMENT_3D('',#234,#189,#190);
#160=AXIS2_PLACEMENT_3D('',#235,#191,#192);
#161=AXIS2_PLACEMENT_3D('',#242,#197,#198);
#162=AXIS2_PLACEMENT_3D('',#243,#199,#200);
#163=AXIS2_PLACEMENT_3D('',#244,#201,#202);
#164=AXIS2_PLACEMENT_3D('',#245,#203,#204);
#165=AXIS2_PLACEMENT_3D('',#246,#205,#206);
#166=AXIS2_PLACEMENT_3D('',#247,#207,#208);
#167=DIRECTION('',(0.,0.,1.));
#168=DIRECTION('',(1.,0.,0.));
#169=DIRECTION('',(1.,0.,0.));
#170=DIRECTION('',(0.,0.,-1.));
#171=DIRECTION('',(1.,0.,0.));
#172=DIRECTION('',(0.,0.,-1.));
#173=DIRECTION('',(1.,0.,0.));
#174=DIRECTION('',(1.,0.,0.));
#175=DIRECTION('',(0.,0.,-1.));
#176=DIRECTION('',(1.,0.,0.));
#177=DIRECTION('',(0.,0.344827586206897,-0.938666040608014));
#178=DIRECTION('',(0.,0.938666040608014,0.344827586206897));
#179=DIRECTION('',(0.,0.938666040608014,0.344827586206897));
#180=DIRECTION('',(0.866025403784439,0.469333020304007,0.172413793103448));
#181=DIRECTION('',(1.,0.,0.));
#182=DIRECTION('',(0.866025403784439,-0.469333020304006,-0.172413793103448));
#183=DIRECTION('',(0.,0.938666040608014,0.344827586206897));
#184=DIRECTION('',(1.,0.,0.));
#185=DIRECTION('',(0.,0.,-1.));
#186=DIRECTION('',(1.,0.,0.));
#187=DIRECTION('',(0.,0.,-1.));
#188=DIRECTION('',(1.,0.,0.));
#189=DIRECTION('',(1.,0.,0.));
#190=DIRECTION('',(0.,0.,-1.));
#191=DIRECTION('',(0.,-0.344827586206897,-0.938666040608014));
#192=DIRECTION('',(0.,0.938666040608014,-0.344827586206897));
#193=DIRECTION('',(0.866025403784439,0.469333020304007,-0.172413793103448));
#194=DIRECTION('',(0.,0.938666040608014,-0.344827586206897));
#195=DIRECTION('',(0.,0.938666040608014,-0.344827586206897));
#196=DIRECTION('',(0.866025403784439,-0.469333020304007,0.172413793103448));
#197=DIRECTION('',(1.,0.,0.));
#198=DIRECTION('',(0.,1.,0.));
#199=DIRECTION('',(1.,0.,0.));
#200=DIRECTION('',(0.,0.,-1.));
#201=DIRECTION('',(1.,0.,0.));
#202=DIRECTION('',(0.,1.,0.));
#203=DIRECTION('',(1.,0.,0.));
#204=DIRECTION('',(0.,0.,-1.));
#205=DIRECTION('',(1.,0.,0.));
#206=DIRECTION('',(0.,0.,-1.));
#207=DIRECTION('',(-1.,0.,0.));
#208=DIRECTION('',(0.,0.,1.));
#209=CARTESIAN_POINT('',(0.,0.,0.));
#210=CARTESIAN_POINT('',(-0.008,-6.50521303491303E-19,-2.43945488809238E-19));
#211=CARTESIAN_POINT('',(0.008,-6.50521303491303E-19,-2.43945488809238E-19));
#212=CARTESIAN_POINT('',(0.008,0.00136106575888162,0.0005));
#213=CARTESIAN_POINT('',(0.008,0.00136106575888162,-0.0005));
#214=CARTESIAN_POINT('',(-0.008,0.00136106575888162,-0.0005));
#215=CARTESIAN_POINT('',(-0.008,0.00136106575888162,-0.0005));
#216=CARTESIAN_POINT('',(-0.008,-6.50521303491303E-19,-2.43945488809238E-19));
#217=CARTESIAN_POINT('',(-0.008,0.00136106575888162,0.0005));
#218=CARTESIAN_POINT('',(-0.008,0.00136106575888162,0.0005));
#219=CARTESIAN_POINT('',(-0.008,0.00171306552410963,0.000629310344827586));
#220=CARTESIAN_POINT('',(-0.008,0.00171306552410963,0.000629310344827586));
#221=CARTESIAN_POINT('',(-0.008,0.00152312619811344,0.000559534389934613));
#222=CARTESIAN_POINT('',(-0.0108105117766515,1.94408665411194E-18,7.46921129991887E-19));
#223=CARTESIAN_POINT('',(-0.007,0.00206506528933763,0.000758620689655173));
#224=CARTESIAN_POINT('',(-0.008,0.00206506528933763,0.000758620689655173));
#225=CARTESIAN_POINT('',(0.007,0.00206506528933763,0.000758620689655173));
#226=CARTESIAN_POINT('',(0.0108105117766515,1.94408665411194E-18,7.46921129991887E-19));
#227=CARTESIAN_POINT('',(0.008,0.00152312619811344,0.000559534389934613));
#228=CARTESIAN_POINT('',(0.008,0.00171306552410963,0.000629310344827586));
#229=CARTESIAN_POINT('',(-0.008,2.16840434497101E-18,1.36298873712542E-19));
#230=CARTESIAN_POINT('',(-0.007,2.16840434497101E-18,1.36298873712542E-19));
#231=CARTESIAN_POINT('',(-0.007,0.00206506528933763,-0.000758620689655172));
#232=CARTESIAN_POINT('',(-0.008,0.00206506528933763,-0.000758620689655172));
#233=CARTESIAN_POINT('',(0.007,0.00206506528933763,-0.000758620689655172));
#234=CARTESIAN_POINT('',(0.007,2.16840434497101E-18,1.36298873712542E-19));
#235=CARTESIAN_POINT('',(-0.008,0.00171306552410963,-0.000629310344827586));
#236=CARTESIAN_POINT('',(-0.0108105117766515,1.8319278086824E-18,-7.79634510706476E-19));
#237=CARTESIAN_POINT('',(-0.008,0.00152312619811344,-0.000559534389934613));
#238=CARTESIAN_POINT('',(-0.008,0.00171306552410963,-0.000629310344827586));
#239=CARTESIAN_POINT('',(0.008,0.00171306552410963,-0.000629310344827586));
#240=CARTESIAN_POINT('',(0.008,0.00152312619811344,-0.000559534389934613));
#241=CARTESIAN_POINT('',(0.0108105117766515,1.8319278086824E-18,-7.79634510706476E-19));
#242=CARTESIAN_POINT('',(-0.008,-6.74673553311854E-5,0.));
#243=CARTESIAN_POINT('',(-0.008,2.16840434497101E-18,1.36298873712542E-19));
#244=CARTESIAN_POINT('',(0.008,-6.74673553311854E-5,0.));
#245=CARTESIAN_POINT('',(0.008,2.16840434497101E-18,1.36298873712542E-19));
#246=CARTESIAN_POINT('',(-0.007,2.16840434497101E-18,1.36298873712542E-19));
#247=CARTESIAN_POINT('',(0.008,2.16840434497101E-18,1.36298873712542E-19));
#248=MECHANICAL_DESIGN_GEOMETRIC_PRESENTATION_REPRESENTATION('',(#141),
#249);
#249=(
GEOMETRIC_REPRESENTATION_CONTEXT(3)
GLOBAL_UNCERTAINTY_ASSIGNED_CONTEXT((#250))
GLOBAL_UNIT_ASSIGNED_CONTEXT((#253,#252,#251))
REPRESENTATION_CONTEXT('Part 1','TOP_LEVEL_ASSEMBLY_PART')
);
#250=UNCERTAINTY_MEASURE_WITH_UNIT(LENGTH_MEASURE(1.E-8),#253,
'DISTANCE_ACCURACY_VALUE','Maximum Tolerance applied to model');
#251=(
NAMED_UNIT(*)
SI_UNIT($,.STERADIAN.)
SOLID_ANGLE_UNIT()
);
#252=(
NAMED_UNIT(*)
PLANE_ANGLE_UNIT()
SI_UNIT($,.RADIAN.)
);
#253=(
LENGTH_UNIT()
NAMED_UNIT(*)
SI_UNIT($,.METRE.)
);
#254=PRODUCT_DEFINITION_SHAPE('','',#255);
#255=PRODUCT_DEFINITION('','',#257,#256);
#256=PRODUCT_DEFINITION_CONTEXT('',#263,'design');
#257=PRODUCT_DEFINITION_FORMATION_WITH_SPECIFIED_SOURCE('','',#259,
 .NOT_KNOWN.);
#258=PRODUCT_RELATED_PRODUCT_CATEGORY('','',(#259));
#259=PRODUCT('Part 1','Part 1','Part 1',(#261));
#260=PRODUCT_CATEGORY('','');
#261=PRODUCT_CONTEXT('',#263,'mechanical');
#262=APPLICATION_PROTOCOL_DEFINITION('international standard',
'ap242_managed_model_based_3d_engineering',2020,#263);
#263=APPLICATION_CONTEXT('managed model based 3d engineering');
ENDSEC;
END-ISO-10303-21;
