ISO-10303-21;
HEADER;
/* Generated by software containing ST-Developer
 * from STEP Tools, Inc. (www.steptools.com) 
 */
/* OPTION: using custom renumber hook */

FILE_DESCRIPTION(
/* description */ ('STEP AP242 Edition 2',
'CAx-IF Rec.Pracs.---Representation and Presentation of Product Manufa
cturing Information (PMI)---4.0---2014-10-13',
'CAx-IF Rec.Pracs.---3D Tessellated Geometry---0.4---2014-09-14','2;1',
'CAx-IF Rec.Pracs.---User Defined Attributes---1.5---2016-08-15'),
/* implementation_level */ '2;1');

FILE_NAME(
/* name */ 'Part Studio 1',
/* time_stamp */ '2026-08-19T18:26:33Z',
/* author */ (''),
/* organization */ (''),
/* preprocessor_version */ 'ST-DEVELOPER v20',
/* originating_system */ 'ONSHAPE BY PTC INC, 1.219',
/* authorisation */ '  ');

FILE_SCHEMA (('AP242_MANAGED_MODEL_BASED_3D_ENGINEERING_MIM_LF { 1 0 10303 442 3 1 4 }'));
ENDSEC;

DATA;
#10=SHAPE_REPRESENTATION_RELATIONSHIP('','',#667,#11);
#11=ADVANCED_BREP_SHAPE_REPRESENTATION('',(#665),#1105);
#12=B_SPLINE_CURVE_WITH_KNOTS('',3,(#1022,#1023,#1024,#1025,#1026,#1027,
#1028),.UNSPECIFIED.,.F.,.F.,(4,1,1,1,4),(0.,0.00217133691634444,0.00434267383268889,
0.00651401074903333,0.00868534766537777),.UNSPECIFIED.);
#13=B_SPLINE_CURVE_WITH_KNOTS('',3,(#1086,#1087,#1088,#1089,#1090,#1091,
#1092),.UNSPECIFIED.,.F.,.F.,(4,1,1,1,4),(0.,0.00216992950250711,0.00433985900501421,
0.00650978850752132,0.00867971801002842),.UNSPECIFIED.);
#14=CYLINDRICAL_SURFACE('',#693,0.006);
#15=CYLINDRICAL_SURFACE('',#696,0.021);
#16=CYLINDRICAL_SURFACE('',#699,0.008);
#17=CYLINDRICAL_SURFACE('',#702,0.021);
#18=CYLINDRICAL_SURFACE('',#706,0.021);
#19=CYLINDRICAL_SURFACE('',#709,0.008);
#20=CYLINDRICAL_SURFACE('',#712,0.021);
#21=CYLINDRICAL_SURFACE('',#715,0.006);
#22=CYLINDRICAL_SURFACE('',#720,0.005);
#23=CYLINDRICAL_SURFACE('',#721,0.005);
#24=CYLINDRICAL_SURFACE('',#722,0.006);
#25=CYLINDRICAL_SURFACE('',#723,0.006);
#26=CIRCLE('',#670,0.005);
#27=CIRCLE('',#672,0.006);
#28=CIRCLE('',#675,0.006);
#29=CIRCLE('',#676,0.006);
#30=CIRCLE('',#679,0.006);
#31=CIRCLE('',#681,0.005);
#32=CIRCLE('',#685,0.021);
#33=CIRCLE('',#686,0.008);
#34=CIRCLE('',#687,0.021);
#35=CIRCLE('',#688,0.006);
#36=CIRCLE('',#689,0.006);
#37=CIRCLE('',#690,0.021);
#38=CIRCLE('',#691,0.008);
#39=CIRCLE('',#692,0.021);
#40=CIRCLE('',#694,0.006);
#41=CIRCLE('',#697,0.021);
#42=CIRCLE('',#700,0.008);
#43=CIRCLE('',#703,0.021);
#44=CIRCLE('',#707,0.021);
#45=CIRCLE('',#710,0.008);
#46=CIRCLE('',#713,0.021);
#47=CIRCLE('',#716,0.006);
#48=ORIENTED_EDGE('',*,*,#232,.F.);
#49=ORIENTED_EDGE('',*,*,#233,.T.);
#50=ORIENTED_EDGE('',*,*,#234,.F.);
#51=ORIENTED_EDGE('',*,*,#235,.T.);
#52=ORIENTED_EDGE('',*,*,#236,.T.);
#53=ORIENTED_EDGE('',*,*,#237,.F.);
#54=ORIENTED_EDGE('',*,*,#238,.T.);
#55=ORIENTED_EDGE('',*,*,#239,.T.);
#56=ORIENTED_EDGE('',*,*,#240,.F.);
#57=ORIENTED_EDGE('',*,*,#241,.F.);
#58=ORIENTED_EDGE('',*,*,#237,.T.);
#59=ORIENTED_EDGE('',*,*,#242,.T.);
#60=ORIENTED_EDGE('',*,*,#243,.F.);
#61=ORIENTED_EDGE('',*,*,#244,.F.);
#62=ORIENTED_EDGE('',*,*,#245,.F.);
#63=ORIENTED_EDGE('',*,*,#246,.F.);
#64=ORIENTED_EDGE('',*,*,#247,.T.);
#65=ORIENTED_EDGE('',*,*,#243,.T.);
#66=ORIENTED_EDGE('',*,*,#248,.T.);
#67=ORIENTED_EDGE('',*,*,#249,.F.);
#68=ORIENTED_EDGE('',*,*,#250,.F.);
#69=ORIENTED_EDGE('',*,*,#251,.F.);
#70=ORIENTED_EDGE('',*,*,#252,.F.);
#71=ORIENTED_EDGE('',*,*,#253,.T.);
#72=ORIENTED_EDGE('',*,*,#246,.T.);
#73=ORIENTED_EDGE('',*,*,#254,.T.);
#74=ORIENTED_EDGE('',*,*,#255,.F.);
#75=ORIENTED_EDGE('',*,*,#256,.F.);
#76=ORIENTED_EDGE('',*,*,#257,.F.);
#77=ORIENTED_EDGE('',*,*,#252,.T.);
#78=ORIENTED_EDGE('',*,*,#258,.F.);
#79=ORIENTED_EDGE('',*,*,#256,.T.);
#80=ORIENTED_EDGE('',*,*,#259,.T.);
#81=ORIENTED_EDGE('',*,*,#260,.F.);
#82=ORIENTED_EDGE('',*,*,#261,.F.);
#83=ORIENTED_EDGE('',*,*,#262,.T.);
#84=ORIENTED_EDGE('',*,*,#263,.T.);
#85=ORIENTED_EDGE('',*,*,#264,.T.);
#86=ORIENTED_EDGE('',*,*,#265,.T.);
#87=ORIENTED_EDGE('',*,*,#266,.F.);
#88=ORIENTED_EDGE('',*,*,#267,.F.);
#89=ORIENTED_EDGE('',*,*,#260,.T.);
#90=ORIENTED_EDGE('',*,*,#268,.T.);
#91=ORIENTED_EDGE('',*,*,#269,.F.);
#92=ORIENTED_EDGE('',*,*,#270,.T.);
#93=ORIENTED_EDGE('',*,*,#239,.F.);
#94=ORIENTED_EDGE('',*,*,#271,.F.);
#95=ORIENTED_EDGE('',*,*,#266,.T.);
#96=ORIENTED_EDGE('',*,*,#238,.F.);
#97=ORIENTED_EDGE('',*,*,#244,.T.);
#98=ORIENTED_EDGE('',*,*,#247,.F.);
#99=ORIENTED_EDGE('',*,*,#253,.F.);
#100=ORIENTED_EDGE('',*,*,#257,.T.);
#101=ORIENTED_EDGE('',*,*,#261,.T.);
#102=ORIENTED_EDGE('',*,*,#267,.T.);
#103=ORIENTED_EDGE('',*,*,#271,.T.);
#104=ORIENTED_EDGE('',*,*,#272,.F.);
#105=ORIENTED_EDGE('',*,*,#240,.T.);
#106=ORIENTED_EDGE('',*,*,#270,.F.);
#107=ORIENTED_EDGE('',*,*,#265,.F.);
#108=ORIENTED_EDGE('',*,*,#273,.T.);
#109=ORIENTED_EDGE('',*,*,#274,.F.);
#110=ORIENTED_EDGE('',*,*,#275,.T.);
#111=ORIENTED_EDGE('',*,*,#276,.F.);
#112=ORIENTED_EDGE('',*,*,#277,.F.);
#113=ORIENTED_EDGE('',*,*,#278,.F.);
#114=ORIENTED_EDGE('',*,*,#279,.F.);
#115=ORIENTED_EDGE('',*,*,#280,.F.);
#116=ORIENTED_EDGE('',*,*,#254,.F.);
#117=ORIENTED_EDGE('',*,*,#251,.T.);
#118=ORIENTED_EDGE('',*,*,#245,.T.);
#119=ORIENTED_EDGE('',*,*,#281,.T.);
#120=ORIENTED_EDGE('',*,*,#282,.F.);
#121=ORIENTED_EDGE('',*,*,#283,.T.);
#122=ORIENTED_EDGE('',*,*,#284,.T.);
#123=ORIENTED_EDGE('',*,*,#285,.T.);
#124=ORIENTED_EDGE('',*,*,#286,.F.);
#125=ORIENTED_EDGE('',*,*,#287,.T.);
#126=ORIENTED_EDGE('',*,*,#280,.T.);
#127=ORIENTED_EDGE('',*,*,#288,.F.);
#128=ORIENTED_EDGE('',*,*,#289,.F.);
#129=ORIENTED_EDGE('',*,*,#290,.T.);
#130=ORIENTED_EDGE('',*,*,#255,.T.);
#131=ORIENTED_EDGE('',*,*,#279,.T.);
#132=ORIENTED_EDGE('',*,*,#291,.F.);
#133=ORIENTED_EDGE('',*,*,#292,.F.);
#134=ORIENTED_EDGE('',*,*,#288,.T.);
#135=ORIENTED_EDGE('',*,*,#278,.T.);
#136=ORIENTED_EDGE('',*,*,#293,.F.);
#137=ORIENTED_EDGE('',*,*,#294,.F.);
#138=ORIENTED_EDGE('',*,*,#291,.T.);
#139=ORIENTED_EDGE('',*,*,#277,.T.);
#140=ORIENTED_EDGE('',*,*,#295,.F.);
#141=ORIENTED_EDGE('',*,*,#296,.F.);
#142=ORIENTED_EDGE('',*,*,#293,.T.);
#143=ORIENTED_EDGE('',*,*,#276,.T.);
#144=ORIENTED_EDGE('',*,*,#297,.F.);
#145=ORIENTED_EDGE('',*,*,#298,.F.);
#146=ORIENTED_EDGE('',*,*,#295,.T.);
#147=ORIENTED_EDGE('',*,*,#275,.F.);
#148=ORIENTED_EDGE('',*,*,#299,.F.);
#149=ORIENTED_EDGE('',*,*,#300,.T.);
#150=ORIENTED_EDGE('',*,*,#297,.T.);
#151=ORIENTED_EDGE('',*,*,#274,.T.);
#152=ORIENTED_EDGE('',*,*,#301,.F.);
#153=ORIENTED_EDGE('',*,*,#302,.F.);
#154=ORIENTED_EDGE('',*,*,#299,.T.);
#155=ORIENTED_EDGE('',*,*,#269,.T.);
#156=ORIENTED_EDGE('',*,*,#303,.T.);
#157=ORIENTED_EDGE('',*,*,#289,.T.);
#158=ORIENTED_EDGE('',*,*,#292,.T.);
#159=ORIENTED_EDGE('',*,*,#294,.T.);
#160=ORIENTED_EDGE('',*,*,#296,.T.);
#161=ORIENTED_EDGE('',*,*,#298,.T.);
#162=ORIENTED_EDGE('',*,*,#300,.F.);
#163=ORIENTED_EDGE('',*,*,#302,.T.);
#164=ORIENTED_EDGE('',*,*,#304,.F.);
#165=ORIENTED_EDGE('',*,*,#273,.F.);
#166=ORIENTED_EDGE('',*,*,#305,.F.);
#167=ORIENTED_EDGE('',*,*,#306,.T.);
#168=ORIENTED_EDGE('',*,*,#234,.T.);
#169=ORIENTED_EDGE('',*,*,#307,.T.);
#170=ORIENTED_EDGE('',*,*,#262,.F.);
#171=ORIENTED_EDGE('',*,*,#304,.T.);
#172=ORIENTED_EDGE('',*,*,#301,.T.);
#173=ORIENTED_EDGE('',*,*,#287,.F.);
#174=ORIENTED_EDGE('',*,*,#308,.F.);
#175=ORIENTED_EDGE('',*,*,#309,.T.);
#176=ORIENTED_EDGE('',*,*,#305,.T.);
#177=ORIENTED_EDGE('',*,*,#286,.T.);
#178=ORIENTED_EDGE('',*,*,#310,.F.);
#179=ORIENTED_EDGE('',*,*,#311,.F.);
#180=ORIENTED_EDGE('',*,*,#308,.T.);
#181=ORIENTED_EDGE('',*,*,#285,.F.);
#182=ORIENTED_EDGE('',*,*,#312,.F.);
#183=ORIENTED_EDGE('',*,*,#313,.T.);
#184=ORIENTED_EDGE('',*,*,#310,.T.);
#185=ORIENTED_EDGE('',*,*,#284,.F.);
#186=ORIENTED_EDGE('',*,*,#314,.F.);
#187=ORIENTED_EDGE('',*,*,#315,.T.);
#188=ORIENTED_EDGE('',*,*,#312,.T.);
#189=ORIENTED_EDGE('',*,*,#283,.F.);
#190=ORIENTED_EDGE('',*,*,#316,.F.);
#191=ORIENTED_EDGE('',*,*,#317,.T.);
#192=ORIENTED_EDGE('',*,*,#314,.T.);
#193=ORIENTED_EDGE('',*,*,#282,.T.);
#194=ORIENTED_EDGE('',*,*,#318,.F.);
#195=ORIENTED_EDGE('',*,*,#319,.F.);
#196=ORIENTED_EDGE('',*,*,#316,.T.);
#197=ORIENTED_EDGE('',*,*,#281,.F.);
#198=ORIENTED_EDGE('',*,*,#248,.F.);
#199=ORIENTED_EDGE('',*,*,#320,.T.);
#200=ORIENTED_EDGE('',*,*,#321,.T.);
#201=ORIENTED_EDGE('',*,*,#318,.T.);
#202=ORIENTED_EDGE('',*,*,#321,.F.);
#203=ORIENTED_EDGE('',*,*,#322,.T.);
#204=ORIENTED_EDGE('',*,*,#235,.F.);
#205=ORIENTED_EDGE('',*,*,#306,.F.);
#206=ORIENTED_EDGE('',*,*,#309,.F.);
#207=ORIENTED_EDGE('',*,*,#311,.T.);
#208=ORIENTED_EDGE('',*,*,#313,.F.);
#209=ORIENTED_EDGE('',*,*,#315,.F.);
#210=ORIENTED_EDGE('',*,*,#317,.F.);
#211=ORIENTED_EDGE('',*,*,#319,.T.);
#212=ORIENTED_EDGE('',*,*,#272,.T.);
#213=ORIENTED_EDGE('',*,*,#264,.F.);
#214=ORIENTED_EDGE('',*,*,#323,.F.);
#215=ORIENTED_EDGE('',*,*,#232,.T.);
#216=ORIENTED_EDGE('',*,*,#307,.F.);
#217=ORIENTED_EDGE('',*,*,#233,.F.);
#218=ORIENTED_EDGE('',*,*,#323,.T.);
#219=ORIENTED_EDGE('',*,*,#263,.F.);
#220=ORIENTED_EDGE('',*,*,#236,.F.);
#221=ORIENTED_EDGE('',*,*,#322,.F.);
#222=ORIENTED_EDGE('',*,*,#320,.F.);
#223=ORIENTED_EDGE('',*,*,#242,.F.);
#224=ORIENTED_EDGE('',*,*,#290,.F.);
#225=ORIENTED_EDGE('',*,*,#303,.F.);
#226=ORIENTED_EDGE('',*,*,#268,.F.);
#227=ORIENTED_EDGE('',*,*,#259,.F.);
#228=ORIENTED_EDGE('',*,*,#249,.T.);
#229=ORIENTED_EDGE('',*,*,#258,.T.);
#230=ORIENTED_EDGE('',*,*,#250,.T.);
#231=ORIENTED_EDGE('',*,*,#241,.T.);
#232=EDGE_CURVE('',#324,#325,#386,.T.);
#233=EDGE_CURVE('',#324,#326,#387,.T.);
#234=EDGE_CURVE('',#327,#326,#388,.T.);
#235=EDGE_CURVE('',#327,#328,#389,.T.);
#236=EDGE_CURVE('',#328,#329,#26,.F.);
#237=EDGE_CURVE('',#330,#329,#390,.T.);
#238=EDGE_CURVE('',#330,#331,#391,.T.);
#239=EDGE_CURVE('',#331,#332,#392,.T.);
#240=EDGE_CURVE('',#325,#332,#393,.T.);
#241=EDGE_CURVE('',#333,#333,#27,.T.);
#242=EDGE_CURVE('',#329,#334,#394,.T.);
#243=EDGE_CURVE('',#335,#334,#395,.T.);
#244=EDGE_CURVE('',#330,#335,#396,.T.);
#245=EDGE_CURVE('',#336,#337,#397,.T.);
#246=EDGE_CURVE('',#338,#336,#398,.T.);
#247=EDGE_CURVE('',#338,#335,#399,.T.);
#248=EDGE_CURVE('',#334,#337,#400,.T.);
#249=EDGE_CURVE('',#339,#339,#28,.T.);
#250=EDGE_CURVE('',#340,#340,#29,.T.);
#251=EDGE_CURVE('',#341,#336,#401,.T.);
#252=EDGE_CURVE('',#342,#341,#402,.T.);
#253=EDGE_CURVE('',#342,#338,#403,.T.);
#254=EDGE_CURVE('',#341,#343,#404,.T.);
#255=EDGE_CURVE('',#344,#343,#405,.T.);
#256=EDGE_CURVE('',#345,#344,#406,.T.);
#257=EDGE_CURVE('',#342,#345,#407,.T.);
#258=EDGE_CURVE('',#346,#346,#30,.T.);
#259=EDGE_CURVE('',#344,#347,#408,.T.);
#260=EDGE_CURVE('',#348,#347,#409,.T.);
#261=EDGE_CURVE('',#345,#348,#410,.T.);
#262=EDGE_CURVE('',#349,#350,#411,.T.);
#263=EDGE_CURVE('',#350,#351,#412,.T.);
#264=EDGE_CURVE('',#351,#352,#413,.T.);
#265=EDGE_CURVE('',#352,#353,#414,.T.);
#266=EDGE_CURVE('',#354,#353,#415,.T.);
#267=EDGE_CURVE('',#348,#354,#416,.T.);
#268=EDGE_CURVE('',#347,#355,#31,.T.);
#269=EDGE_CURVE('',#349,#355,#417,.T.);
#270=EDGE_CURVE('',#353,#332,#418,.T.);
#271=EDGE_CURVE('',#354,#331,#419,.T.);
#272=EDGE_CURVE('',#325,#352,#420,.T.);
#273=EDGE_CURVE('',#356,#357,#421,.T.);
#274=EDGE_CURVE('',#358,#357,#32,.T.);
#275=EDGE_CURVE('',#358,#359,#422,.T.);
#276=EDGE_CURVE('',#360,#359,#33,.T.);
#277=EDGE_CURVE('',#361,#360,#423,.T.);
#278=EDGE_CURVE('',#362,#361,#34,.T.);
#279=EDGE_CURVE('',#363,#362,#424,.T.);
#280=EDGE_CURVE('',#343,#363,#35,.T.);
#281=EDGE_CURVE('',#337,#364,#36,.T.);
#282=EDGE_CURVE('',#365,#364,#425,.T.);
#283=EDGE_CURVE('',#365,#366,#37,.T.);
#284=EDGE_CURVE('',#366,#367,#426,.T.);
#285=EDGE_CURVE('',#367,#368,#38,.T.);
#286=EDGE_CURVE('',#369,#368,#427,.T.);
#287=EDGE_CURVE('',#369,#356,#39,.T.);
#288=EDGE_CURVE('',#370,#363,#428,.T.);
#289=EDGE_CURVE('',#371,#370,#40,.T.);
#290=EDGE_CURVE('',#371,#344,#12,.T.);
#291=EDGE_CURVE('',#372,#362,#429,.T.);
#292=EDGE_CURVE('',#370,#372,#430,.T.);
#293=EDGE_CURVE('',#373,#361,#431,.T.);
#294=EDGE_CURVE('',#372,#373,#41,.T.);
#295=EDGE_CURVE('',#374,#360,#432,.T.);
#296=EDGE_CURVE('',#373,#374,#433,.T.);
#297=EDGE_CURVE('',#375,#359,#434,.T.);
#298=EDGE_CURVE('',#374,#375,#42,.T.);
#299=EDGE_CURVE('',#376,#358,#435,.T.);
#300=EDGE_CURVE('',#376,#375,#436,.T.);
#301=EDGE_CURVE('',#377,#357,#437,.T.);
#302=EDGE_CURVE('',#376,#377,#43,.T.);
#303=EDGE_CURVE('',#355,#371,#438,.F.);
#304=EDGE_CURVE('',#349,#377,#439,.T.);
#305=EDGE_CURVE('',#378,#356,#440,.T.);
#306=EDGE_CURVE('',#378,#327,#441,.T.);
#307=EDGE_CURVE('',#326,#350,#442,.T.);
#308=EDGE_CURVE('',#379,#369,#443,.T.);
#309=EDGE_CURVE('',#379,#378,#44,.T.);
#310=EDGE_CURVE('',#380,#368,#444,.T.);
#311=EDGE_CURVE('',#379,#380,#445,.T.);
#312=EDGE_CURVE('',#381,#367,#446,.T.);
#313=EDGE_CURVE('',#381,#380,#45,.T.);
#314=EDGE_CURVE('',#382,#366,#447,.T.);
#315=EDGE_CURVE('',#382,#381,#448,.T.);
#316=EDGE_CURVE('',#383,#365,#449,.T.);
#317=EDGE_CURVE('',#383,#382,#46,.T.);
#318=EDGE_CURVE('',#384,#364,#450,.T.);
#319=EDGE_CURVE('',#383,#384,#451,.T.);
#320=EDGE_CURVE('',#334,#385,#13,.T.);
#321=EDGE_CURVE('',#385,#384,#47,.T.);
#322=EDGE_CURVE('',#385,#328,#452,.F.);
#323=EDGE_CURVE('',#324,#351,#453,.T.);
#324=VERTEX_POINT('',#907);
#325=VERTEX_POINT('',#908);
#326=VERTEX_POINT('',#910);
#327=VERTEX_POINT('',#912);
#328=VERTEX_POINT('',#914);
#329=VERTEX_POINT('',#916);
#330=VERTEX_POINT('',#918);
#331=VERTEX_POINT('',#920);
#332=VERTEX_POINT('',#922);
#333=VERTEX_POINT('',#926);
#334=VERTEX_POINT('',#928);
#335=VERTEX_POINT('',#930);
#336=VERTEX_POINT('',#934);
#337=VERTEX_POINT('',#935);
#338=VERTEX_POINT('',#937);
#339=VERTEX_POINT('',#942);
#340=VERTEX_POINT('',#944);
#341=VERTEX_POINT('',#946);
#342=VERTEX_POINT('',#948);
#343=VERTEX_POINT('',#952);
#344=VERTEX_POINT('',#954);
#345=VERTEX_POINT('',#956);
#346=VERTEX_POINT('',#960);
#347=VERTEX_POINT('',#962);
#348=VERTEX_POINT('',#964);
#349=VERTEX_POINT('',#968);
#350=VERTEX_POINT('',#969);
#351=VERTEX_POINT('',#971);
#352=VERTEX_POINT('',#973);
#353=VERTEX_POINT('',#975);
#354=VERTEX_POINT('',#977);
#355=VERTEX_POINT('',#980);
#356=VERTEX_POINT('',#989);
#357=VERTEX_POINT('',#990);
#358=VERTEX_POINT('',#992);
#359=VERTEX_POINT('',#994);
#360=VERTEX_POINT('',#996);
#361=VERTEX_POINT('',#998);
#362=VERTEX_POINT('',#1000);
#363=VERTEX_POINT('',#1002);
#364=VERTEX_POINT('',#1005);
#365=VERTEX_POINT('',#1007);
#366=VERTEX_POINT('',#1009);
#367=VERTEX_POINT('',#1011);
#368=VERTEX_POINT('',#1013);
#369=VERTEX_POINT('',#1015);
#370=VERTEX_POINT('',#1019);
#371=VERTEX_POINT('',#1021);
#372=VERTEX_POINT('',#1031);
#373=VERTEX_POINT('',#1035);
#374=VERTEX_POINT('',#1039);
#375=VERTEX_POINT('',#1043);
#376=VERTEX_POINT('',#1047);
#377=VERTEX_POINT('',#1051);
#378=VERTEX_POINT('',#1058);
#379=VERTEX_POINT('',#1063);
#380=VERTEX_POINT('',#1067);
#381=VERTEX_POINT('',#1071);
#382=VERTEX_POINT('',#1075);
#383=VERTEX_POINT('',#1079);
#384=VERTEX_POINT('',#1083);
#385=VERTEX_POINT('',#1093);
#386=LINE('',#906,#454);
#387=LINE('',#909,#455);
#388=LINE('',#911,#456);
#389=LINE('',#913,#457);
#390=LINE('',#917,#458);
#391=LINE('',#919,#459);
#392=LINE('',#921,#460);
#393=LINE('',#923,#461);
#394=LINE('',#927,#462);
#395=LINE('',#929,#463);
#396=LINE('',#931,#464);
#397=LINE('',#933,#465);
#398=LINE('',#936,#466);
#399=LINE('',#938,#467);
#400=LINE('',#939,#468);
#401=LINE('',#945,#469);
#402=LINE('',#947,#470);
#403=LINE('',#949,#471);
#404=LINE('',#951,#472);
#405=LINE('',#953,#473);
#406=LINE('',#955,#474);
#407=LINE('',#957,#475);
#408=LINE('',#961,#476);
#409=LINE('',#963,#477);
#410=LINE('',#965,#478);
#411=LINE('',#967,#479);
#412=LINE('',#970,#480);
#413=LINE('',#972,#481);
#414=LINE('',#974,#482);
#415=LINE('',#976,#483);
#416=LINE('',#978,#484);
#417=LINE('',#981,#485);
#418=LINE('',#983,#486);
#419=LINE('',#984,#487);
#420=LINE('',#987,#488);
#421=LINE('',#988,#489);
#422=LINE('',#993,#490);
#423=LINE('',#997,#491);
#424=LINE('',#1001,#492);
#425=LINE('',#1006,#493);
#426=LINE('',#1010,#494);
#427=LINE('',#1014,#495);
#428=LINE('',#1018,#496);
#429=LINE('',#1030,#497);
#430=LINE('',#1032,#498);
#431=LINE('',#1034,#499);
#432=LINE('',#1038,#500);
#433=LINE('',#1040,#501);
#434=LINE('',#1042,#502);
#435=LINE('',#1046,#503);
#436=LINE('',#1048,#504);
#437=LINE('',#1050,#505);
#438=LINE('',#1054,#506);
#439=LINE('',#1055,#507);
#440=LINE('',#1057,#508);
#441=LINE('',#1059,#509);
#442=LINE('',#1060,#510);
#443=LINE('',#1062,#511);
#444=LINE('',#1066,#512);
#445=LINE('',#1068,#513);
#446=LINE('',#1070,#514);
#447=LINE('',#1074,#515);
#448=LINE('',#1076,#516);
#449=LINE('',#1078,#517);
#450=LINE('',#1082,#518);
#451=LINE('',#1084,#519);
#452=LINE('',#1096,#520);
#453=LINE('',#1098,#521);
#454=VECTOR('',#728,1.);
#455=VECTOR('',#729,1.);
#456=VECTOR('',#730,1.);
#457=VECTOR('',#731,1.);
#458=VECTOR('',#734,1.);
#459=VECTOR('',#735,1.);
#460=VECTOR('',#736,1.);
#461=VECTOR('',#737,1.);
#462=VECTOR('',#742,1.);
#463=VECTOR('',#743,1.);
#464=VECTOR('',#744,1.);
#465=VECTOR('',#747,1.);
#466=VECTOR('',#748,1.);
#467=VECTOR('',#749,1.);
#468=VECTOR('',#750,1.);
#469=VECTOR('',#757,1.);
#470=VECTOR('',#758,1.);
#471=VECTOR('',#759,1.);
#472=VECTOR('',#762,1.);
#473=VECTOR('',#763,1.);
#474=VECTOR('',#764,1.);
#475=VECTOR('',#765,1.);
#476=VECTOR('',#770,1.);
#477=VECTOR('',#771,1.);
#478=VECTOR('',#772,1.);
#479=VECTOR('',#775,1.);
#480=VECTOR('',#776,1.);
#481=VECTOR('',#777,1.);
#482=VECTOR('',#778,1.);
#483=VECTOR('',#779,1.);
#484=VECTOR('',#780,1.);
#485=VECTOR('',#783,1.);
#486=VECTOR('',#786,1.);
#487=VECTOR('',#787,1.);
#488=VECTOR('',#792,1.);
#489=VECTOR('',#793,1.);
#490=VECTOR('',#796,1.);
#491=VECTOR('',#799,1.);
#492=VECTOR('',#802,1.);
#493=VECTOR('',#807,1.);
#494=VECTOR('',#810,1.);
#495=VECTOR('',#813,1.);
#496=VECTOR('',#818,1.);
#497=VECTOR('',#823,1.);
#498=VECTOR('',#824,1.);
#499=VECTOR('',#827,1.);
#500=VECTOR('',#832,1.);
#501=VECTOR('',#833,1.);
#502=VECTOR('',#836,1.);
#503=VECTOR('',#841,1.);
#504=VECTOR('',#842,1.);
#505=VECTOR('',#845,1.);
#506=VECTOR('',#850,1.);
#507=VECTOR('',#851,1.);
#508=VECTOR('',#854,1.);
#509=VECTOR('',#855,1.);
#510=VECTOR('',#856,1.);
#511=VECTOR('',#859,1.);
#512=VECTOR('',#864,1.);
#513=VECTOR('',#865,1.);
#514=VECTOR('',#868,1.);
#515=VECTOR('',#873,1.);
#516=VECTOR('',#874,1.);
#517=VECTOR('',#877,1.);
#518=VECTOR('',#882,1.);
#519=VECTOR('',#883,1.);
#520=VECTOR('',#890,1.);
#521=VECTOR('',#893,1.);
#522=EDGE_LOOP('',(#48,#49,#50,#51,#52,#53,#54,#55,#56));
#523=EDGE_LOOP('',(#57));
#524=EDGE_LOOP('',(#58,#59,#60,#61));
#525=EDGE_LOOP('',(#62,#63,#64,#65,#66));
#526=EDGE_LOOP('',(#67));
#527=EDGE_LOOP('',(#68));
#528=EDGE_LOOP('',(#69,#70,#71,#72));
#529=EDGE_LOOP('',(#73,#74,#75,#76,#77));
#530=EDGE_LOOP('',(#78));
#531=EDGE_LOOP('',(#79,#80,#81,#82));
#532=EDGE_LOOP('',(#83,#84,#85,#86,#87,#88,#89,#90,#91));
#533=EDGE_LOOP('',(#92,#93,#94,#95));
#534=EDGE_LOOP('',(#96,#97,#98,#99,#100,#101,#102,#103));
#535=EDGE_LOOP('',(#104,#105,#106,#107));
#536=EDGE_LOOP('',(#108,#109,#110,#111,#112,#113,#114,#115,#116,#117,#118,
#119,#120,#121,#122,#123,#124,#125));
#537=EDGE_LOOP('',(#126,#127,#128,#129,#130));
#538=EDGE_LOOP('',(#131,#132,#133,#134));
#539=EDGE_LOOP('',(#135,#136,#137,#138));
#540=EDGE_LOOP('',(#139,#140,#141,#142));
#541=EDGE_LOOP('',(#143,#144,#145,#146));
#542=EDGE_LOOP('',(#147,#148,#149,#150));
#543=EDGE_LOOP('',(#151,#152,#153,#154));
#544=EDGE_LOOP('',(#155,#156,#157,#158,#159,#160,#161,#162,#163,#164));
#545=EDGE_LOOP('',(#165,#166,#167,#168,#169,#170,#171,#172));
#546=EDGE_LOOP('',(#173,#174,#175,#176));
#547=EDGE_LOOP('',(#177,#178,#179,#180));
#548=EDGE_LOOP('',(#181,#182,#183,#184));
#549=EDGE_LOOP('',(#185,#186,#187,#188));
#550=EDGE_LOOP('',(#189,#190,#191,#192));
#551=EDGE_LOOP('',(#193,#194,#195,#196));
#552=EDGE_LOOP('',(#197,#198,#199,#200,#201));
#553=EDGE_LOOP('',(#202,#203,#204,#205,#206,#207,#208,#209,#210,#211));
#554=EDGE_LOOP('',(#212,#213,#214,#215));
#555=EDGE_LOOP('',(#216,#217,#218,#219));
#556=EDGE_LOOP('',(#220,#221,#222,#223));
#557=EDGE_LOOP('',(#224,#225,#226,#227));
#558=EDGE_LOOP('',(#228));
#559=EDGE_LOOP('',(#229));
#560=EDGE_LOOP('',(#230));
#561=EDGE_LOOP('',(#231));
#562=FACE_BOUND('',#522,.T.);
#563=FACE_BOUND('',#523,.T.);
#564=FACE_BOUND('',#524,.T.);
#565=FACE_BOUND('',#525,.T.);
#566=FACE_BOUND('',#526,.T.);
#567=FACE_BOUND('',#527,.T.);
#568=FACE_BOUND('',#528,.T.);
#569=FACE_BOUND('',#529,.T.);
#570=FACE_BOUND('',#530,.T.);
#571=FACE_BOUND('',#531,.T.);
#572=FACE_BOUND('',#532,.T.);
#573=FACE_BOUND('',#533,.T.);
#574=FACE_BOUND('',#534,.T.);
#575=FACE_BOUND('',#535,.T.);
#576=FACE_BOUND('',#536,.T.);
#577=FACE_BOUND('',#537,.T.);
#578=FACE_BOUND('',#538,.T.);
#579=FACE_BOUND('',#539,.T.);
#580=FACE_BOUND('',#540,.T.);
#581=FACE_BOUND('',#541,.T.);
#582=FACE_BOUND('',#542,.T.);
#583=FACE_BOUND('',#543,.T.);
#584=FACE_BOUND('',#544,.T.);
#585=FACE_BOUND('',#545,.T.);
#586=FACE_BOUND('',#546,.T.);
#587=FACE_BOUND('',#547,.T.);
#588=FACE_BOUND('',#548,.T.);
#589=FACE_BOUND('',#549,.T.);
#590=FACE_BOUND('',#550,.T.);
#591=FACE_BOUND('',#551,.T.);
#592=FACE_BOUND('',#552,.T.);
#593=FACE_BOUND('',#553,.T.);
#594=FACE_BOUND('',#554,.T.);
#595=FACE_BOUND('',#555,.T.);
#596=FACE_BOUND('',#556,.T.);
#597=FACE_BOUND('',#557,.T.);
#598=FACE_BOUND('',#558,.T.);
#599=FACE_BOUND('',#559,.T.);
#600=FACE_BOUND('',#560,.T.);
#601=FACE_BOUND('',#561,.T.);
#602=PLANE('',#669);
#603=PLANE('',#671);
#604=PLANE('',#673);
#605=PLANE('',#674);
#606=PLANE('',#677);
#607=PLANE('',#678);
#608=PLANE('',#680);
#609=PLANE('',#682);
#610=PLANE('',#683);
#611=PLANE('',#684);
#612=PLANE('',#695);
#613=PLANE('',#698);
#614=PLANE('',#701);
#615=PLANE('',#704);
#616=PLANE('',#705);
#617=PLANE('',#708);
#618=PLANE('',#711);
#619=PLANE('',#714);
#620=PLANE('',#717);
#621=PLANE('',#718);
#622=PLANE('',#719);
#623=ADVANCED_FACE('',(#562),#602,.T.);
#624=ADVANCED_FACE('',(#563,#564),#603,.F.);
#625=ADVANCED_FACE('',(#565),#604,.T.);
#626=ADVANCED_FACE('',(#566,#567,#568),#605,.T.);
#627=ADVANCED_FACE('',(#569),#606,.F.);
#628=ADVANCED_FACE('',(#570,#571),#607,.F.);
#629=ADVANCED_FACE('',(#572),#608,.F.);
#630=ADVANCED_FACE('',(#573),#609,.F.);
#631=ADVANCED_FACE('',(#574),#610,.T.);
#632=ADVANCED_FACE('',(#575,#576),#611,.F.);
#633=ADVANCED_FACE('',(#577),#14,.F.);
#634=ADVANCED_FACE('',(#578),#612,.F.);
#635=ADVANCED_FACE('',(#579),#15,.T.);
#636=ADVANCED_FACE('',(#580),#613,.F.);
#637=ADVANCED_FACE('',(#581),#16,.F.);
#638=ADVANCED_FACE('',(#582),#614,.T.);
#639=ADVANCED_FACE('',(#583),#17,.T.);
#640=ADVANCED_FACE('',(#584),#615,.T.);
#641=ADVANCED_FACE('',(#585),#616,.T.);
#642=ADVANCED_FACE('',(#586),#18,.T.);
#643=ADVANCED_FACE('',(#587),#617,.F.);
#644=ADVANCED_FACE('',(#588),#19,.F.);
#645=ADVANCED_FACE('',(#589),#618,.T.);
#646=ADVANCED_FACE('',(#590),#20,.T.);
#647=ADVANCED_FACE('',(#591),#619,.F.);
#648=ADVANCED_FACE('',(#592),#21,.F.);
#649=ADVANCED_FACE('',(#593),#620,.T.);
#650=ADVANCED_FACE('',(#594),#621,.F.);
#651=ADVANCED_FACE('',(#595),#622,.T.);
#652=ADVANCED_FACE('',(#596),#22,.F.);
#653=ADVANCED_FACE('',(#597),#23,.F.);
#654=ADVANCED_FACE('',(#598,#599),#24,.F.);
#655=ADVANCED_FACE('',(#600,#601),#25,.F.);
#656=CLOSED_SHELL('',(#623,#624,#625,#626,#627,#628,#629,#630,#631,#632,
#633,#634,#635,#636,#637,#638,#639,#640,#641,#642,#643,#644,#645,#646,#647,
#648,#649,#650,#651,#652,#653,#654,#655));
#657=STYLED_ITEM('',(#658),#665);
#658=PRESENTATION_STYLE_ASSIGNMENT((#659));
#659=SURFACE_STYLE_USAGE(.BOTH.,#660);
#660=SURFACE_SIDE_STYLE('',(#661));
#661=SURFACE_STYLE_FILL_AREA(#662);
#662=FILL_AREA_STYLE('',(#663));
#663=FILL_AREA_STYLE_COLOUR('',#664);
#664=COLOUR_RGB('',0.615686274509804,0.811764705882353,0.929411764705882);
#665=MANIFOLD_SOLID_BREP('Part 1',#656);
#666=SHAPE_DEFINITION_REPRESENTATION(#1110,#667);
#667=SHAPE_REPRESENTATION('Part 1',(#668),#1105);
#668=AXIS2_PLACEMENT_3D('',#904,#724,#725);
#669=AXIS2_PLACEMENT_3D('',#905,#726,#727);
#670=AXIS2_PLACEMENT_3D('',#915,#732,#733);
#671=AXIS2_PLACEMENT_3D('',#924,#738,#739);
#672=AXIS2_PLACEMENT_3D('',#925,#740,#741);
#673=AXIS2_PLACEMENT_3D('',#932,#745,#746);
#674=AXIS2_PLACEMENT_3D('',#940,#751,#752);
#675=AXIS2_PLACEMENT_3D('',#941,#753,#754);
#676=AXIS2_PLACEMENT_3D('',#943,#755,#756);
#677=AXIS2_PLACEMENT_3D('',#950,#760,#761);
#678=AXIS2_PLACEMENT_3D('',#958,#766,#767);
#679=AXIS2_PLACEMENT_3D('',#959,#768,#769);
#680=AXIS2_PLACEMENT_3D('',#966,#773,#774);
#681=AXIS2_PLACEMENT_3D('',#979,#781,#782);
#682=AXIS2_PLACEMENT_3D('',#982,#784,#785);
#683=AXIS2_PLACEMENT_3D('',#985,#788,#789);
#684=AXIS2_PLACEMENT_3D('',#986,#790,#791);
#685=AXIS2_PLACEMENT_3D('',#991,#794,#795);
#686=AXIS2_PLACEMENT_3D('',#995,#797,#798);
#687=AXIS2_PLACEMENT_3D('',#999,#800,#801);
#688=AXIS2_PLACEMENT_3D('',#1003,#803,#804);
#689=AXIS2_PLACEMENT_3D('',#1004,#805,#806);
#690=AXIS2_PLACEMENT_3D('',#1008,#808,#809);
#691=AXIS2_PLACEMENT_3D('',#1012,#811,#812);
#692=AXIS2_PLACEMENT_3D('',#1016,#814,#815);
#693=AXIS2_PLACEMENT_3D('',#1017,#816,#817);
#694=AXIS2_PLACEMENT_3D('',#1020,#819,#820);
#695=AXIS2_PLACEMENT_3D('',#1029,#821,#822);
#696=AXIS2_PLACEMENT_3D('',#1033,#825,#826);
#697=AXIS2_PLACEMENT_3D('',#1036,#828,#829);
#698=AXIS2_PLACEMENT_3D('',#1037,#830,#831);
#699=AXIS2_PLACEMENT_3D('',#1041,#834,#835);
#700=AXIS2_PLACEMENT_3D('',#1044,#837,#838);
#701=AXIS2_PLACEMENT_3D('',#1045,#839,#840);
#702=AXIS2_PLACEMENT_3D('',#1049,#843,#844);
#703=AXIS2_PLACEMENT_3D('',#1052,#846,#847);
#704=AXIS2_PLACEMENT_3D('',#1053,#848,#849);
#705=AXIS2_PLACEMENT_3D('',#1056,#852,#853);
#706=AXIS2_PLACEMENT_3D('',#1061,#857,#858);
#707=AXIS2_PLACEMENT_3D('',#1064,#860,#861);
#708=AXIS2_PLACEMENT_3D('',#1065,#862,#863);
#709=AXIS2_PLACEMENT_3D('',#1069,#866,#867);
#710=AXIS2_PLACEMENT_3D('',#1072,#869,#870);
#711=AXIS2_PLACEMENT_3D('',#1073,#871,#872);
#712=AXIS2_PLACEMENT_3D('',#1077,#875,#876);
#713=AXIS2_PLACEMENT_3D('',#1080,#878,#879);
#714=AXIS2_PLACEMENT_3D('',#1081,#880,#881);
#715=AXIS2_PLACEMENT_3D('',#1085,#884,#885);
#716=AXIS2_PLACEMENT_3D('',#1094,#886,#887);
#717=AXIS2_PLACEMENT_3D('',#1095,#888,#889);
#718=AXIS2_PLACEMENT_3D('',#1097,#891,#892);
#719=AXIS2_PLACEMENT_3D('',#1099,#894,#895);
#720=AXIS2_PLACEMENT_3D('',#1100,#896,#897);
#721=AXIS2_PLACEMENT_3D('',#1101,#898,#899);
#722=AXIS2_PLACEMENT_3D('',#1102,#900,#901);
#723=AXIS2_PLACEMENT_3D('',#1103,#902,#903);
#724=DIRECTION('',(0.,0.,1.));
#725=DIRECTION('',(1.,0.,0.));
#726=DIRECTION('',(-1.,0.,0.));
#727=DIRECTION('',(0.,0.,1.));
#728=DIRECTION('',(0.,0.,-1.));
#729=DIRECTION('',(8.26058798084194E-17,-1.,0.));
#730=DIRECTION('',(0.,0.,-1.));
#731=DIRECTION('',(0.,1.,0.));
#732=DIRECTION('',(-1.,0.,0.));
#733=DIRECTION('',(0.,0.,1.));
#734=DIRECTION('',(0.,0.,-1.));
#735=DIRECTION('',(0.,1.,0.));
#736=DIRECTION('',(0.,0.,-1.));
#737=DIRECTION('',(0.,1.,0.));
#738=DIRECTION('',(-5.78241158658936E-16,1.,0.));
#739=DIRECTION('',(-1.,-5.78241158658936E-16,0.));
#740=DIRECTION('',(5.78241158658936E-16,-1.,0.));
#741=DIRECTION('',(1.,5.78241158658936E-16,0.));
#742=DIRECTION('',(1.,5.78241158658936E-16,0.));
#743=DIRECTION('',(0.,0.,-1.));
#744=DIRECTION('',(1.,5.78241158658936E-16,0.));
#745=DIRECTION('',(1.,0.,0.));
#746=DIRECTION('',(0.,0.,-1.));
#747=DIRECTION('',(0.,-1.,0.));
#748=DIRECTION('',(0.,0.,-1.));
#749=DIRECTION('',(0.,-1.,0.));
#750=DIRECTION('',(0.,0.,-1.));
#751=DIRECTION('',(-5.9476233462062E-16,1.,0.));
#752=DIRECTION('',(-1.,-5.9476233462062E-16,0.));
#753=DIRECTION('',(-5.9476233462062E-16,1.,0.));
#754=DIRECTION('',(-1.,-5.9476233462062E-16,0.));
#755=DIRECTION('',(-5.9476233462062E-16,1.,0.));
#756=DIRECTION('',(-1.,-5.9476233462062E-16,0.));
#757=DIRECTION('',(1.,5.9476233462062E-16,0.));
#758=DIRECTION('',(0.,0.,-1.));
#759=DIRECTION('',(1.,5.9476233462062E-16,0.));
#760=DIRECTION('',(1.,0.,0.));
#761=DIRECTION('',(0.,0.,-1.));
#762=DIRECTION('',(0.,-1.,0.));
#763=DIRECTION('',(0.,0.,-1.));
#764=DIRECTION('',(0.,0.,-1.));
#765=DIRECTION('',(0.,-1.,0.));
#766=DIRECTION('',(-5.78241158658936E-16,1.,0.));
#767=DIRECTION('',(-1.,-5.78241158658936E-16,0.));
#768=DIRECTION('',(5.78241158658936E-16,-1.,0.));
#769=DIRECTION('',(1.,5.78241158658936E-16,0.));
#770=DIRECTION('',(1.,5.78241158658936E-16,0.));
#771=DIRECTION('',(0.,0.,-1.));
#772=DIRECTION('',(1.,5.78241158658936E-16,0.));
#773=DIRECTION('',(-1.,0.,0.));
#774=DIRECTION('',(0.,0.,1.));
#775=DIRECTION('',(0.,0.,-1.));
#776=DIRECTION('',(0.,1.,0.));
#777=DIRECTION('',(0.,0.,-1.));
#778=DIRECTION('',(0.,1.,0.));
#779=DIRECTION('',(0.,0.,-1.));
#780=DIRECTION('',(0.,1.,0.));
#781=DIRECTION('',(-1.,0.,0.));
#782=DIRECTION('',(0.,0.,1.));
#783=DIRECTION('',(0.,1.,0.));
#784=DIRECTION('',(-6.30808536718839E-16,1.,0.));
#785=DIRECTION('',(-1.,-6.30808536718839E-16,0.));
#786=DIRECTION('',(1.,6.30808536718839E-16,0.));
#787=DIRECTION('',(1.,6.30808536718839E-16,0.));
#788=DIRECTION('',(0.,0.,1.));
#789=DIRECTION('',(1.,0.,0.));
#790=DIRECTION('',(0.,0.,1.));
#791=DIRECTION('',(1.,0.,0.));
#792=DIRECTION('',(-1.,-6.3080853671884E-16,0.));
#793=DIRECTION('',(-1.,-2.16840434497101E-16,0.));
#794=DIRECTION('',(0.,0.,1.));
#795=DIRECTION('',(1.,0.,0.));
#796=DIRECTION('',(1.,0.,0.));
#797=DIRECTION('',(0.,0.,-1.));
#798=DIRECTION('',(1.,0.,0.));
#799=DIRECTION('',(1.,-1.87619889331578E-15,0.));
#800=DIRECTION('',(0.,0.,1.));
#801=DIRECTION('',(1.,0.,0.));
#802=DIRECTION('',(-1.,-1.7347234759768E-15,0.));
#803=DIRECTION('',(0.,0.,-1.));
#804=DIRECTION('',(1.,0.,0.));
#805=DIRECTION('',(0.,0.,1.));
#806=DIRECTION('',(1.,0.,0.));
#807=DIRECTION('',(-1.,-1.7347234759768E-15,0.));
#808=DIRECTION('',(0.,0.,-1.));
#809=DIRECTION('',(1.,0.,0.));
#810=DIRECTION('',(-1.,-1.87619889331578E-15,0.));
#811=DIRECTION('',(0.,0.,1.));
#812=DIRECTION('',(1.,0.,0.));
#813=DIRECTION('',(-1.,-2.41225571997744E-15,0.));
#814=DIRECTION('',(0.,0.,-1.));
#815=DIRECTION('',(1.,0.,0.));
#816=DIRECTION('',(0.,0.,-1.));
#817=DIRECTION('',(-1.,0.,0.));
#818=DIRECTION('',(0.,0.,-1.));
#819=DIRECTION('',(0.,0.,-1.));
#820=DIRECTION('',(1.,0.,0.));
#821=DIRECTION('',(1.7347234759768E-15,-1.,0.));
#822=DIRECTION('',(1.,1.7347234759768E-15,0.));
#823=DIRECTION('',(0.,0.,-1.));
#824=DIRECTION('',(-1.,-1.7347234759768E-15,0.));
#825=DIRECTION('',(0.,0.,-1.));
#826=DIRECTION('',(-1.,0.,0.));
#827=DIRECTION('',(0.,0.,-1.));
#828=DIRECTION('',(0.,0.,1.));
#829=DIRECTION('',(1.,0.,0.));
#830=DIRECTION('',(1.87619889331578E-15,1.,0.));
#831=DIRECTION('',(-1.,1.87619889331578E-15,0.));
#832=DIRECTION('',(0.,0.,-1.));
#833=DIRECTION('',(1.,-1.87619889331578E-15,0.));
#834=DIRECTION('',(0.,0.,-1.));
#835=DIRECTION('',(-1.,0.,0.));
#836=DIRECTION('',(0.,0.,-1.));
#837=DIRECTION('',(0.,0.,-1.));
#838=DIRECTION('',(1.,0.,0.));
#839=DIRECTION('',(0.,1.,0.));
#840=DIRECTION('',(0.,0.,1.));
#841=DIRECTION('',(0.,0.,-1.));
#842=DIRECTION('',(1.,0.,0.));
#843=DIRECTION('',(0.,0.,-1.));
#844=DIRECTION('',(-1.,0.,0.));
#845=DIRECTION('',(0.,0.,-1.));
#846=DIRECTION('',(0.,0.,1.));
#847=DIRECTION('',(1.,0.,0.));
#848=DIRECTION('',(0.,0.,1.));
#849=DIRECTION('',(1.,0.,0.));
#850=DIRECTION('',(1.,5.78241158658936E-16,0.));
#851=DIRECTION('',(-1.,-1.0842021724855E-16,0.));
#852=DIRECTION('',(2.16840434497101E-16,-1.,0.));
#853=DIRECTION('',(1.,2.16840434497101E-16,0.));
#854=DIRECTION('',(0.,0.,-1.));
#855=DIRECTION('',(-1.,-2.16840434497101E-16,0.));
#856=DIRECTION('',(-1.,0.,0.));
#857=DIRECTION('',(0.,0.,-1.));
#858=DIRECTION('',(-1.,0.,0.));
#859=DIRECTION('',(0.,0.,-1.));
#860=DIRECTION('',(0.,0.,-1.));
#861=DIRECTION('',(1.,0.,0.));
#862=DIRECTION('',(2.41225571997744E-15,-1.,0.));
#863=DIRECTION('',(1.,2.41225571997744E-15,0.));
#864=DIRECTION('',(0.,0.,-1.));
#865=DIRECTION('',(-1.,-2.41225571997744E-15,0.));
#866=DIRECTION('',(0.,0.,-1.));
#867=DIRECTION('',(-1.,0.,0.));
#868=DIRECTION('',(0.,0.,-1.));
#869=DIRECTION('',(0.,0.,1.));
#870=DIRECTION('',(1.,0.,0.));
#871=DIRECTION('',(1.87619889331578E-15,-1.,0.));
#872=DIRECTION('',(1.,1.87619889331578E-15,0.));
#873=DIRECTION('',(0.,0.,-1.));
#874=DIRECTION('',(-1.,-1.87619889331578E-15,0.));
#875=DIRECTION('',(0.,0.,-1.));
#876=DIRECTION('',(-1.,0.,0.));
#877=DIRECTION('',(0.,0.,-1.));
#878=DIRECTION('',(0.,0.,-1.));
#879=DIRECTION('',(1.,0.,0.));
#880=DIRECTION('',(1.7347234759768E-15,-1.,0.));
#881=DIRECTION('',(1.,1.7347234759768E-15,0.));
#882=DIRECTION('',(0.,0.,-1.));
#883=DIRECTION('',(-1.,-1.7347234759768E-15,0.));
#884=DIRECTION('',(0.,0.,-1.));
#885=DIRECTION('',(-1.,0.,0.));
#886=DIRECTION('',(0.,0.,1.));
#887=DIRECTION('',(1.,0.,0.));
#888=DIRECTION('',(0.,0.,1.));
#889=DIRECTION('',(1.,0.,0.));
#890=DIRECTION('',(1.,5.78241158658936E-16,0.));
#891=DIRECTION('',(6.3080853671884E-16,-1.,0.));
#892=DIRECTION('',(1.,6.3080853671884E-16,0.));
#893=DIRECTION('',(-1.,-6.3080853671884E-16,0.));
#894=DIRECTION('',(0.,0.,1.));
#895=DIRECTION('',(1.,0.,0.));
#896=DIRECTION('',(1.,5.78241158658936E-16,0.));
#897=DIRECTION('',(-5.78241158658936E-16,1.,0.));
#898=DIRECTION('',(1.,5.78241158658936E-16,0.));
#899=DIRECTION('',(-5.78241158658936E-16,1.,0.));
#900=DIRECTION('',(5.78241158658936E-16,-1.,0.));
#901=DIRECTION('',(1.,5.78241158658936E-16,0.));
#902=DIRECTION('',(5.78241158658936E-16,-1.,0.));
#903=DIRECTION('',(1.,5.78241158658936E-16,0.));
#904=CARTESIAN_POINT('',(0.,0.,0.));
#905=CARTESIAN_POINT('',(0.011,0.032,0.062));
#906=CARTESIAN_POINT('',(0.011,0.025,0.008));
#907=CARTESIAN_POINT('',(0.011,0.025,0.008));
#908=CARTESIAN_POINT('',(0.011,0.025,0.));
#909=CARTESIAN_POINT('',(0.011,0.,0.008));
#910=CARTESIAN_POINT('',(0.011,-0.021,0.008));
#911=CARTESIAN_POINT('',(0.011,-0.021,0.016));
#912=CARTESIAN_POINT('',(0.011,-0.021,0.016));
#913=CARTESIAN_POINT('',(0.011,0.026,0.016));
#914=CARTESIAN_POINT('',(0.011,0.022,0.016));
#915=CARTESIAN_POINT('',(0.011,0.022,0.021));
#916=CARTESIAN_POINT('',(0.011,0.027,0.021));
#917=CARTESIAN_POINT('',(0.011,0.027,0.062));
#918=CARTESIAN_POINT('',(0.011,0.027,0.062));
#919=CARTESIAN_POINT('',(0.011,0.032,0.062));
#920=CARTESIAN_POINT('',(0.011,0.037,0.062));
#921=CARTESIAN_POINT('',(0.011,0.037,0.062));
#922=CARTESIAN_POINT('',(0.011,0.037,0.));
#923=CARTESIAN_POINT('',(0.011,0.032,0.));
#924=CARTESIAN_POINT('',(0.023,0.027,0.062));
#925=CARTESIAN_POINT('',(0.025,0.027,0.038));
#926=CARTESIAN_POINT('',(0.031,0.027,0.038));
#927=CARTESIAN_POINT('',(0.023,0.027,0.021));
#928=CARTESIAN_POINT('',(0.035,0.027,0.021));
#929=CARTESIAN_POINT('',(0.035,0.027,0.062));
#930=CARTESIAN_POINT('',(0.035,0.027,0.062));
#931=CARTESIAN_POINT('',(0.023,0.027,0.062));
#932=CARTESIAN_POINT('',(0.035,0.0345,0.062));
#933=CARTESIAN_POINT('',(0.035,0.0345,0.));
#934=CARTESIAN_POINT('',(0.035,0.042,0.));
#935=CARTESIAN_POINT('',(0.035,0.027,0.));
#936=CARTESIAN_POINT('',(0.035,0.042,0.062));
#937=CARTESIAN_POINT('',(0.035,0.042,0.062));
#938=CARTESIAN_POINT('',(0.035,0.0345,0.062));
#939=CARTESIAN_POINT('',(0.035,0.027,0.016));
#940=CARTESIAN_POINT('',(-1.38777878078145E-17,0.042,0.062));
#941=CARTESIAN_POINT('',(-0.025,0.042,0.038));
#942=CARTESIAN_POINT('',(-0.031,0.042,0.038));
#943=CARTESIAN_POINT('',(0.025,0.042,0.038));
#944=CARTESIAN_POINT('',(0.019,0.042,0.038));
#945=CARTESIAN_POINT('',(-1.38777878078145E-17,0.042,0.));
#946=CARTESIAN_POINT('',(-0.035,0.042,0.));
#947=CARTESIAN_POINT('',(-0.035,0.042,0.062));
#948=CARTESIAN_POINT('',(-0.035,0.042,0.062));
#949=CARTESIAN_POINT('',(-1.38777878078145E-17,0.042,0.062));
#950=CARTESIAN_POINT('',(-0.035,0.0345,0.062));
#951=CARTESIAN_POINT('',(-0.035,0.0345,0.));
#952=CARTESIAN_POINT('',(-0.035,0.027,0.));
#953=CARTESIAN_POINT('',(-0.035,0.027,0.016));
#954=CARTESIAN_POINT('',(-0.035,0.027,0.021));
#955=CARTESIAN_POINT('',(-0.035,0.027,0.062));
#956=CARTESIAN_POINT('',(-0.035,0.027,0.062));
#957=CARTESIAN_POINT('',(-0.035,0.0345,0.062));
#958=CARTESIAN_POINT('',(-0.023,0.027,0.062));
#959=CARTESIAN_POINT('',(-0.025,0.027,0.038));
#960=CARTESIAN_POINT('',(-0.019,0.027,0.038));
#961=CARTESIAN_POINT('',(-0.023,0.027,0.021));
#962=CARTESIAN_POINT('',(-0.011,0.027,0.021));
#963=CARTESIAN_POINT('',(-0.011,0.027,0.062));
#964=CARTESIAN_POINT('',(-0.011,0.027,0.062));
#965=CARTESIAN_POINT('',(-0.023,0.027,0.062));
#966=CARTESIAN_POINT('',(-0.011,0.032,0.062));
#967=CARTESIAN_POINT('',(-0.011,-0.021,0.016));
#968=CARTESIAN_POINT('',(-0.011,-0.021,0.016));
#969=CARTESIAN_POINT('',(-0.011,-0.021,0.008));
#970=CARTESIAN_POINT('',(-0.011,0.023,0.008));
#971=CARTESIAN_POINT('',(-0.011,0.025,0.008));
#972=CARTESIAN_POINT('',(-0.011,0.025,0.008));
#973=CARTESIAN_POINT('',(-0.011,0.025,0.));
#974=CARTESIAN_POINT('',(-0.011,0.032,0.));
#975=CARTESIAN_POINT('',(-0.011,0.037,0.));
#976=CARTESIAN_POINT('',(-0.011,0.037,0.062));
#977=CARTESIAN_POINT('',(-0.011,0.037,0.062));
#978=CARTESIAN_POINT('',(-0.011,0.032,0.062));
#979=CARTESIAN_POINT('',(-0.011,0.022,0.021));
#980=CARTESIAN_POINT('',(-0.011,0.022,0.016));
#981=CARTESIAN_POINT('',(-0.011,0.023,0.016));
#982=CARTESIAN_POINT('',(-1.7347234759768E-18,0.037,0.062));
#983=CARTESIAN_POINT('',(-1.7347234759768E-18,0.037,0.));
#984=CARTESIAN_POINT('',(-1.7347234759768E-18,0.037,0.062));
#985=CARTESIAN_POINT('',(0.,0.00872089863234877,0.062));
#986=CARTESIAN_POINT('',(0.,0.00872089863234877,0.));
#987=CARTESIAN_POINT('',(-5.20417042793042E-18,0.025,0.));
#988=CARTESIAN_POINT('',(0.027,-0.021,0.));
#989=CARTESIAN_POINT('',(0.043,-0.021,0.));
#990=CARTESIAN_POINT('',(-0.043,-0.021,0.));
#991=CARTESIAN_POINT('',(-0.043,-1.04083408558608E-17,0.));
#992=CARTESIAN_POINT('',(-0.0624164878389476,-0.008,0.));
#993=CARTESIAN_POINT('',(-0.0527082439194738,-0.008,0.));
#994=CARTESIAN_POINT('',(-0.043,-0.008,0.));
#995=CARTESIAN_POINT('',(-0.043,0.,0.));
#996=CARTESIAN_POINT('',(-0.043,0.008,0.));
#997=CARTESIAN_POINT('',(-0.0527082439194738,0.008,0.));
#998=CARTESIAN_POINT('',(-0.0624164878389476,0.008,0.));
#999=CARTESIAN_POINT('',(-0.043,-3.46944695195361E-18,0.));
#1000=CARTESIAN_POINT('',(-0.043,0.021,0.));
#1001=CARTESIAN_POINT('',(-0.042,0.021,0.));
#1002=CARTESIAN_POINT('',(-0.041,0.021,0.));
#1003=CARTESIAN_POINT('',(-0.041,0.027,0.));
#1004=CARTESIAN_POINT('',(0.041,0.027,0.));
#1005=CARTESIAN_POINT('',(0.041,0.021,0.));
#1006=CARTESIAN_POINT('',(0.042,0.021,0.));
#1007=CARTESIAN_POINT('',(0.043,0.021,0.));
#1008=CARTESIAN_POINT('',(0.043,-3.46944695195361E-18,0.));
#1009=CARTESIAN_POINT('',(0.0624164878389476,0.008,0.));
#1010=CARTESIAN_POINT('',(0.0527082439194738,0.008,0.));
#1011=CARTESIAN_POINT('',(0.043,0.008,0.));
#1012=CARTESIAN_POINT('',(0.043,0.,0.));
#1013=CARTESIAN_POINT('',(0.043,-0.008,0.));
#1014=CARTESIAN_POINT('',(0.0527082439194738,-0.008,0.));
#1015=CARTESIAN_POINT('',(0.0624164878389476,-0.008,0.));
#1016=CARTESIAN_POINT('',(0.043,-1.04083408558608E-17,0.));
#1017=CARTESIAN_POINT('',(-0.041,0.027,0.016));
#1018=CARTESIAN_POINT('',(-0.041,0.021,0.016));
#1019=CARTESIAN_POINT('',(-0.041,0.021,0.016));
#1020=CARTESIAN_POINT('',(-0.041,0.027,0.016));
#1021=CARTESIAN_POINT('',(-0.0376833752096447,0.022,0.016));
#1022=CARTESIAN_POINT('',(-0.0376833752096447,0.022,0.016));
#1023=CARTESIAN_POINT('',(-0.0370729151048812,0.0224049334233963,0.016));
#1024=CARTESIAN_POINT('',(-0.0360086126392992,0.0234405999310823,0.0160947403228342));
#1025=CARTESIAN_POINT('',(-0.0351561799491561,0.0253003533804078,0.017034510665877));
#1026=CARTESIAN_POINT('',(-0.0349870603756704,0.0266789131056947,0.0188172323312099));
#1027=CARTESIAN_POINT('',(-0.035,0.027,0.0202663080485365));
#1028=CARTESIAN_POINT('',(-0.035,0.027,0.021));
#1029=CARTESIAN_POINT('',(-0.042,0.021,0.016));
#1030=CARTESIAN_POINT('',(-0.043,0.021,0.016));
#1031=CARTESIAN_POINT('',(-0.043,0.021,0.016));
#1032=CARTESIAN_POINT('',(-0.042,0.021,0.016));
#1033=CARTESIAN_POINT('',(-0.043,-3.46944695195361E-18,0.016));
#1034=CARTESIAN_POINT('',(-0.0624164878389476,0.008,0.016));
#1035=CARTESIAN_POINT('',(-0.0624164878389476,0.008,0.016));
#1036=CARTESIAN_POINT('',(-0.043,-3.46944695195361E-18,0.016));
#1037=CARTESIAN_POINT('',(-0.0527082439194738,0.008,0.016));
#1038=CARTESIAN_POINT('',(-0.043,0.008,0.016));
#1039=CARTESIAN_POINT('',(-0.043,0.008,0.016));
#1040=CARTESIAN_POINT('',(-0.0527082439194738,0.008,0.016));
#1041=CARTESIAN_POINT('',(-0.043,0.,0.016));
#1042=CARTESIAN_POINT('',(-0.043,-0.008,0.016));
#1043=CARTESIAN_POINT('',(-0.043,-0.008,0.016));
#1044=CARTESIAN_POINT('',(-0.043,0.,0.016));
#1045=CARTESIAN_POINT('',(-0.0527082439194738,-0.008,0.016));
#1046=CARTESIAN_POINT('',(-0.0624164878389476,-0.008,0.016));
#1047=CARTESIAN_POINT('',(-0.0624164878389476,-0.008,0.016));
#1048=CARTESIAN_POINT('',(-0.0527082439194738,-0.008,0.016));
#1049=CARTESIAN_POINT('',(-0.043,-1.04083408558608E-17,0.016));
#1050=CARTESIAN_POINT('',(-0.043,-0.021,0.016));
#1051=CARTESIAN_POINT('',(-0.043,-0.021,0.016));
#1052=CARTESIAN_POINT('',(-0.043,-1.04083408558608E-17,0.016));
#1053=CARTESIAN_POINT('',(0.,0.00872089863234877,0.016));
#1054=CARTESIAN_POINT('',(-7.67852296078009E-18,0.022,0.016));
#1055=CARTESIAN_POINT('',(-0.027,-0.021,0.016));
#1056=CARTESIAN_POINT('',(0.027,-0.021,0.016));
#1057=CARTESIAN_POINT('',(0.043,-0.021,0.016));
#1058=CARTESIAN_POINT('',(0.043,-0.021,0.016));
#1059=CARTESIAN_POINT('',(0.027,-0.021,0.016));
#1060=CARTESIAN_POINT('',(0.,-0.021,0.008));
#1061=CARTESIAN_POINT('',(0.043,-1.04083408558608E-17,0.016));
#1062=CARTESIAN_POINT('',(0.0624164878389476,-0.008,0.016));
#1063=CARTESIAN_POINT('',(0.0624164878389476,-0.008,0.016));
#1064=CARTESIAN_POINT('',(0.043,-1.04083408558608E-17,0.016));
#1065=CARTESIAN_POINT('',(0.0527082439194738,-0.008,0.016));
#1066=CARTESIAN_POINT('',(0.043,-0.008,0.016));
#1067=CARTESIAN_POINT('',(0.043,-0.008,0.016));
#1068=CARTESIAN_POINT('',(0.0527082439194738,-0.008,0.016));
#1069=CARTESIAN_POINT('',(0.043,0.,0.016));
#1070=CARTESIAN_POINT('',(0.043,0.008,0.016));
#1071=CARTESIAN_POINT('',(0.043,0.008,0.016));
#1072=CARTESIAN_POINT('',(0.043,0.,0.016));
#1073=CARTESIAN_POINT('',(0.0527082439194738,0.008,0.016));
#1074=CARTESIAN_POINT('',(0.0624164878389476,0.008,0.016));
#1075=CARTESIAN_POINT('',(0.0624164878389476,0.008,0.016));
#1076=CARTESIAN_POINT('',(0.0527082439194738,0.008,0.016));
#1077=CARTESIAN_POINT('',(0.043,-3.46944695195361E-18,0.016));
#1078=CARTESIAN_POINT('',(0.043,0.021,0.016));
#1079=CARTESIAN_POINT('',(0.043,0.021,0.016));
#1080=CARTESIAN_POINT('',(0.043,-3.46944695195361E-18,0.016));
#1081=CARTESIAN_POINT('',(0.042,0.021,0.016));
#1082=CARTESIAN_POINT('',(0.041,0.021,0.016));
#1083=CARTESIAN_POINT('',(0.041,0.021,0.016));
#1084=CARTESIAN_POINT('',(0.042,0.021,0.016));
#1085=CARTESIAN_POINT('',(0.041,0.027,0.016));
#1086=CARTESIAN_POINT('',(0.035,0.027,0.021));
#1087=CARTESIAN_POINT('',(0.035,0.027,0.0202664019358992));
#1088=CARTESIAN_POINT('',(0.0349878754886561,0.026678260113798,0.018821709767944));
#1089=CARTESIAN_POINT('',(0.0351522363010062,0.0253165379183417,0.0170484703264158));
#1090=CARTESIAN_POINT('',(0.0360015586715484,0.0234476431888204,0.0160944940334017));
#1091=CARTESIAN_POINT('',(0.0370719491563272,0.0224055741611803,0.016));
#1092=CARTESIAN_POINT('',(0.0376833752096446,0.022,0.016));
#1093=CARTESIAN_POINT('',(0.0376833752096446,0.022,0.016));
#1094=CARTESIAN_POINT('',(0.041,0.027,0.016));
#1095=CARTESIAN_POINT('',(0.,0.00872089863234877,0.016));
#1096=CARTESIAN_POINT('',(-7.67852296078009E-18,0.022,0.016));
#1097=CARTESIAN_POINT('',(-5.20417042793042E-18,0.025,0.008));
#1098=CARTESIAN_POINT('',(-5.20417042793042E-18,0.025,0.008));
#1099=CARTESIAN_POINT('',(0.,0.00872089863234877,0.008));
#1100=CARTESIAN_POINT('',(0.023,0.022,0.021));
#1101=CARTESIAN_POINT('',(-0.023,0.022,0.021));
#1102=CARTESIAN_POINT('',(-0.025,0.179968398973701,0.038));
#1103=CARTESIAN_POINT('',(0.025,0.179968398973701,0.038));
#1104=MECHANICAL_DESIGN_GEOMETRIC_PRESENTATION_REPRESENTATION('',(#657),
#1105);
#1105=(
GEOMETRIC_REPRESENTATION_CONTEXT(3)
GLOBAL_UNCERTAINTY_ASSIGNED_CONTEXT((#1106))
GLOBAL_UNIT_ASSIGNED_CONTEXT((#1109,#1108,#1107))
REPRESENTATION_CONTEXT('Part 1','TOP_LEVEL_ASSEMBLY_PART')
);
#1106=UNCERTAINTY_MEASURE_WITH_UNIT(LENGTH_MEASURE(2.E-5),#1109,
'DISTANCE_ACCURACY_VALUE','Maximum Tolerance applied to model');
#1107=(
NAMED_UNIT(*)
SI_UNIT($,.STERADIAN.)
SOLID_ANGLE_UNIT()
);
#1108=(
NAMED_UNIT(*)
PLANE_ANGLE_UNIT()
SI_UNIT($,.RADIAN.)
);
#1109=(
LENGTH_UNIT()
NAMED_UNIT(*)
SI_UNIT($,.METRE.)
);
#1110=PRODUCT_DEFINITION_SHAPE('','',#1111);
#1111=PRODUCT_DEFINITION('','',#1113,#1112);
#1112=PRODUCT_DEFINITION_CONTEXT('',#1119,'design');
#1113=PRODUCT_DEFINITION_FORMATION_WITH_SPECIFIED_SOURCE('','',#1115,
 .NOT_KNOWN.);
#1114=PRODUCT_RELATED_PRODUCT_CATEGORY('','',(#1115));
#1115=PRODUCT('Part 1','Part 1','Part 1',(#1117));
#1116=PRODUCT_CATEGORY('','');
#1117=PRODUCT_CONTEXT('',#1119,'mechanical');
#1118=APPLICATION_PROTOCOL_DEFINITION('international standard',
'ap242_managed_model_based_3d_engineering',2020,#1119);
#1119=APPLICATION_CONTEXT('managed model based 3d engineering');
ENDSEC;
END-ISO-10303-21;
