ISO-10303-21;
HEADER;
/* Generated by software containing ST-Developer
 * from STEP Tools, Inc. (www.steptools.com) 
 */
/* OPTION: using custom renumber hook */

FILE_DESCRIPTION(
/* description */ ('STEP AP242 Edition 2',
'CAx-IF Rec.Pracs.---Representation and Presentation of Product Manufa
cturing Information (PMI)---4.0---2014-10-13',
'CAx-IF Rec.Pracs.---3D Tessellated Geometry---0.4---2014-09-14','2;1',
'CAx-IF Rec.Pracs.---User Defined Attributes---1.5---2016-08-15'),
/* implementation_level */ '2;1');

FILE_NAME(
/* name */ 'Part Studio 1',
/* time_stamp */ '2026-07-21T15:21:58Z',
/* author */ (''),
/* organization */ (''),
/* preprocessor_version */ 'ST-DEVELOPER v20',
/* originating_system */ 'ONSHAPE BY PTC INC, 1.218',
/* authorisation */ '  ');

FILE_SCHEMA (('AP242_MANAGED_MODEL_BASED_3D_ENGINEERING_MIM_LF { 1 0 10303 442 3 1 4 }'));
ENDSEC;

DATA;
#10=SHAPE_REPRESENTATION_RELATIONSHIP('','',#804,#11);
#11=ADVANCED_BREP_SHAPE_REPRESENTATION('',(#802),#1561);
#12=TOROIDAL_SURFACE('',#908,0.0205,0.002);
#13=B_SPLINE_CURVE_WITH_KNOTS('',3,(#1336,#1337,#1338,#1339,#1340,#1341,
#1342,#1343,#1344,#1345,#1346),.UNSPECIFIED.,.F.,.F.,(4,1,1,1,1,1,1,1,4),
(0.,0.000744108546261546,0.00148821709252309,0.00223232563878464,0.00297643418504618,
0.00372054273130773,0.00446465127756928,0.00520875982383082,0.00595286837009237),
 .UNSPECIFIED.);
#14=B_SPLINE_CURVE_WITH_KNOTS('',3,(#1350,#1351,#1352,#1353,#1354,#1355,
#1356,#1357,#1358,#1359,#1360),.UNSPECIFIED.,.F.,.F.,(4,1,1,1,1,1,1,1,4),
(0.,0.00074410854626155,0.0014882170925231,0.00223232563878465,0.0029764341850462,
0.00372054273130775,0.0044646512775693,0.00520875982383085,0.0059528683700924),
 .UNSPECIFIED.);
#15=B_SPLINE_CURVE_WITH_KNOTS('',3,(#1364,#1365,#1366,#1367,#1368,#1369,
#1370,#1371,#1372,#1373,#1374),.UNSPECIFIED.,.F.,.F.,(4,1,1,1,1,1,1,1,4),
(0.,0.000744108546261539,0.00148821709252308,0.00223232563878462,0.00297643418504616,
0.0037205427313077,0.00446465127756923,0.00520875982383077,0.00595286837009231),
 .UNSPECIFIED.);
#16=B_SPLINE_CURVE_WITH_KNOTS('',3,(#1378,#1379,#1380,#1381,#1382,#1383,
#1384,#1385,#1386,#1387,#1388),.UNSPECIFIED.,.F.,.F.,(4,1,1,1,1,1,1,1,4),
(0.,0.000744108546261545,0.00148821709252309,0.00223232563878463,0.00297643418504618,
0.00372054273130772,0.00446465127756927,0.00520875982383081,0.00595286837009236),
 .UNSPECIFIED.);
#17=B_SPLINE_CURVE_WITH_KNOTS('',3,(#1392,#1393,#1394,#1395,#1396,#1397,
#1398,#1399,#1400,#1401,#1402),.UNSPECIFIED.,.F.,.F.,(4,1,1,1,1,1,1,1,4),
(0.,0.00074410854626155,0.0014882170925231,0.00223232563878465,0.0029764341850462,
0.00372054273130775,0.0044646512775693,0.00520875982383085,0.0059528683700924),
 .UNSPECIFIED.);
#18=B_SPLINE_CURVE_WITH_KNOTS('',3,(#1406,#1407,#1408,#1409,#1410,#1411,
#1412,#1413,#1414,#1415,#1416),.UNSPECIFIED.,.F.,.F.,(4,1,1,1,1,1,1,1,4),
(0.,0.000744108546261532,0.00148821709252306,0.00223232563878459,0.00297643418504613,
0.00372054273130766,0.00446465127756919,0.00520875982383072,0.00595286837009225),
 .UNSPECIFIED.);
#19=B_SPLINE_CURVE_WITH_KNOTS('',3,(#1420,#1421,#1422,#1423,#1424,#1425,
#1426,#1427,#1428,#1429,#1430),.UNSPECIFIED.,.F.,.F.,(4,1,1,1,1,1,1,1,4),
(0.,0.000744108546261538,0.00148821709252308,0.00223232563878461,0.00297643418504615,
0.00372054273130769,0.00446465127756923,0.00520875982383077,0.0059528683700923),
 .UNSPECIFIED.);
#20=B_SPLINE_CURVE_WITH_KNOTS('',3,(#1434,#1435,#1436,#1437,#1438,#1439,
#1440,#1441,#1442,#1443,#1444),.UNSPECIFIED.,.F.,.F.,(4,1,1,1,1,1,1,1,4),
(0.,0.000744108546261545,0.00148821709252309,0.00223232563878463,0.00297643418504618,
0.00372054273130772,0.00446465127756927,0.00520875982383081,0.00595286837009236),
 .UNSPECIFIED.);
#21=B_SPLINE_CURVE_WITH_KNOTS('',3,(#1448,#1449,#1450,#1451,#1452,#1453,
#1454,#1455,#1456,#1457,#1458),.UNSPECIFIED.,.F.,.F.,(4,1,1,1,1,1,1,1,4),
(0.,0.000744108546261549,0.0014882170925231,0.00223232563878465,0.0029764341850462,
0.00372054273130774,0.00446465127756929,0.00520875982383084,0.00595286837009239),
 .UNSPECIFIED.);
#22=B_SPLINE_CURVE_WITH_KNOTS('',3,(#1462,#1463,#1464,#1465,#1466,#1467,
#1468,#1469,#1470,#1471,#1472),.UNSPECIFIED.,.F.,.F.,(4,1,1,1,1,1,1,1,4),
(0.,0.00074410854626155,0.0014882170925231,0.00223232563878465,0.0029764341850462,
0.00372054273130775,0.0044646512775693,0.00520875982383085,0.0059528683700924),
 .UNSPECIFIED.);
#23=B_SPLINE_CURVE_WITH_KNOTS('',3,(#1476,#1477,#1478,#1479,#1480,#1481,
#1482,#1483,#1484,#1485,#1486),.UNSPECIFIED.,.F.,.F.,(4,1,1,1,1,1,1,1,4),
(0.,0.000744108546261541,0.00148821709252308,0.00223232563878462,0.00297643418504616,
0.0037205427313077,0.00446465127756924,0.00520875982383078,0.00595286837009232),
 .UNSPECIFIED.);
#24=B_SPLINE_CURVE_WITH_KNOTS('',3,(#1490,#1491,#1492,#1493,#1494,#1495,
#1496,#1497,#1498,#1499,#1500),.UNSPECIFIED.,.F.,.F.,(4,1,1,1,1,1,1,1,4),
(0.,0.000744108546261544,0.00148821709252309,0.00223232563878463,0.00297643418504617,
0.00372054273130772,0.00446465127756926,0.00520875982383081,0.00595286837009235),
 .UNSPECIFIED.);
#25=B_SPLINE_CURVE_WITH_KNOTS('',3,(#1504,#1505,#1506,#1507,#1508,#1509,
#1510,#1511,#1512,#1513,#1514),.UNSPECIFIED.,.F.,.F.,(4,1,1,1,1,1,1,1,4),
(0.,0.000744108546261549,0.0014882170925231,0.00223232563878465,0.0029764341850462,
0.00372054273130775,0.00446465127756929,0.00520875982383084,0.00595286837009239),
 .UNSPECIFIED.);
#26=B_SPLINE_CURVE_WITH_KNOTS('',3,(#1518,#1519,#1520,#1521,#1522,#1523,
#1524,#1525,#1526,#1527,#1528),.UNSPECIFIED.,.F.,.F.,(4,1,1,1,1,1,1,1,4),
(0.,0.000744108546261549,0.0014882170925231,0.00223232563878465,0.0029764341850462,
0.00372054273130774,0.00446465127756929,0.00520875982383084,0.00595286837009239),
 .UNSPECIFIED.);
#27=B_SPLINE_CURVE_WITH_KNOTS('',3,(#1532,#1533,#1534,#1535,#1536,#1537,
#1538,#1539,#1540,#1541,#1542),.UNSPECIFIED.,.F.,.F.,(4,1,1,1,1,1,1,1,4),
(0.,0.000744108546261539,0.00148821709252308,0.00223232563878462,0.00297643418504616,
0.0037205427313077,0.00446465127756924,0.00520875982383077,0.00595286837009231),
 .UNSPECIFIED.);
#28=B_SPLINE_CURVE_WITH_KNOTS('',3,(#1546,#1547,#1548,#1549,#1550,#1551,
#1552,#1553,#1554,#1555,#1556),.UNSPECIFIED.,.F.,.F.,(4,1,1,1,1,1,1,1,4),
(0.,0.000744108546261544,0.00148821709252309,0.00223232563878463,0.00297643418504618,
0.00372054273130772,0.00446465127756926,0.00520875982383081,0.00595286837009235),
 .UNSPECIFIED.);
#29=CONICAL_SURFACE('',#856,0.025,1.0471975511966);
#30=CYLINDRICAL_SURFACE('',#814,0.0205);
#31=CYLINDRICAL_SURFACE('',#818,0.006);
#32=CYLINDRICAL_SURFACE('',#819,0.004);
#33=CYLINDRICAL_SURFACE('',#822,0.0225);
#34=CYLINDRICAL_SURFACE('',#860,0.002);
#35=CYLINDRICAL_SURFACE('',#863,0.002);
#36=CYLINDRICAL_SURFACE('',#866,0.002);
#37=CYLINDRICAL_SURFACE('',#869,0.002);
#38=CYLINDRICAL_SURFACE('',#872,0.002);
#39=CYLINDRICAL_SURFACE('',#875,0.002);
#40=CYLINDRICAL_SURFACE('',#878,0.002);
#41=CYLINDRICAL_SURFACE('',#881,0.002);
#42=CYLINDRICAL_SURFACE('',#884,0.002);
#43=CYLINDRICAL_SURFACE('',#887,0.002);
#44=CYLINDRICAL_SURFACE('',#890,0.002);
#45=CYLINDRICAL_SURFACE('',#893,0.002);
#46=CYLINDRICAL_SURFACE('',#896,0.002);
#47=CYLINDRICAL_SURFACE('',#899,0.002);
#48=CYLINDRICAL_SURFACE('',#902,0.002);
#49=CYLINDRICAL_SURFACE('',#905,0.002);
#50=LINE('',#1166,#92);
#51=LINE('',#1171,#93);
#52=LINE('',#1173,#94);
#53=LINE('',#1190,#95);
#54=LINE('',#1191,#96);
#55=LINE('',#1193,#97);
#56=LINE('',#1195,#98);
#57=LINE('',#1197,#99);
#58=LINE('',#1199,#100);
#59=LINE('',#1204,#101);
#60=LINE('',#1208,#102);
#61=LINE('',#1212,#103);
#62=LINE('',#1216,#104);
#63=LINE('',#1220,#105);
#64=LINE('',#1224,#106);
#65=LINE('',#1228,#107);
#66=LINE('',#1232,#108);
#67=LINE('',#1236,#109);
#68=LINE('',#1240,#110);
#69=LINE('',#1244,#111);
#70=LINE('',#1248,#112);
#71=LINE('',#1252,#113);
#72=LINE('',#1256,#114);
#73=LINE('',#1260,#115);
#74=LINE('',#1264,#116);
#75=LINE('',#1268,#117);
#76=LINE('',#1272,#118);
#77=LINE('',#1276,#119);
#78=LINE('',#1280,#120);
#79=LINE('',#1284,#121);
#80=LINE('',#1288,#122);
#81=LINE('',#1292,#123);
#82=LINE('',#1296,#124);
#83=LINE('',#1300,#125);
#84=LINE('',#1304,#126);
#85=LINE('',#1308,#127);
#86=LINE('',#1312,#128);
#87=LINE('',#1316,#129);
#88=LINE('',#1320,#130);
#89=LINE('',#1324,#131);
#90=LINE('',#1331,#132);
#91=LINE('',#1333,#133);
#92=VECTOR('',#919,1.);
#93=VECTOR('',#922,1.);
#94=VECTOR('',#923,1.);
#95=VECTOR('',#944,1.);
#96=VECTOR('',#945,1.);
#97=VECTOR('',#948,1.);
#98=VECTOR('',#949,1.);
#99=VECTOR('',#950,1.);
#100=VECTOR('',#953,1.);
#101=VECTOR('',#956,1.);
#102=VECTOR('',#959,1.);
#103=VECTOR('',#962,1.);
#104=VECTOR('',#965,1.);
#105=VECTOR('',#968,1.);
#106=VECTOR('',#971,1.);
#107=VECTOR('',#974,1.);
#108=VECTOR('',#977,1.);
#109=VECTOR('',#980,1.);
#110=VECTOR('',#983,1.);
#111=VECTOR('',#986,1.);
#112=VECTOR('',#989,1.);
#113=VECTOR('',#992,1.);
#114=VECTOR('',#995,1.);
#115=VECTOR('',#998,1.);
#116=VECTOR('',#1001,1.);
#117=VECTOR('',#1004,1.);
#118=VECTOR('',#1007,1.);
#119=VECTOR('',#1010,1.);
#120=VECTOR('',#1013,1.);
#121=VECTOR('',#1016,1.);
#122=VECTOR('',#1019,1.);
#123=VECTOR('',#1022,1.);
#124=VECTOR('',#1025,1.);
#125=VECTOR('',#1028,1.);
#126=VECTOR('',#1031,1.);
#127=VECTOR('',#1034,1.);
#128=VECTOR('',#1037,1.);
#129=VECTOR('',#1040,1.);
#130=VECTOR('',#1043,1.);
#131=VECTOR('',#1046,1.);
#132=VECTOR('',#1055,1.);
#133=VECTOR('',#1058,1.);
#134=ORIENTED_EDGE('',*,*,#364,.T.);
#135=ORIENTED_EDGE('',*,*,#365,.F.);
#136=ORIENTED_EDGE('',*,*,#366,.F.);
#137=ORIENTED_EDGE('',*,*,#367,.T.);
#138=ORIENTED_EDGE('',*,*,#368,.T.);
#139=ORIENTED_EDGE('',*,*,#369,.F.);
#140=ORIENTED_EDGE('',*,*,#370,.F.);
#141=ORIENTED_EDGE('',*,*,#371,.T.);
#142=ORIENTED_EDGE('',*,*,#371,.F.);
#143=ORIENTED_EDGE('',*,*,#372,.T.);
#144=ORIENTED_EDGE('',*,*,#372,.F.);
#145=ORIENTED_EDGE('',*,*,#373,.T.);
#146=ORIENTED_EDGE('',*,*,#373,.F.);
#147=ORIENTED_EDGE('',*,*,#365,.T.);
#148=ORIENTED_EDGE('',*,*,#374,.T.);
#149=ORIENTED_EDGE('',*,*,#375,.T.);
#150=ORIENTED_EDGE('',*,*,#367,.F.);
#151=ORIENTED_EDGE('',*,*,#376,.F.);
#152=ORIENTED_EDGE('',*,*,#374,.F.);
#153=ORIENTED_EDGE('',*,*,#377,.T.);
#154=ORIENTED_EDGE('',*,*,#378,.T.);
#155=ORIENTED_EDGE('',*,*,#379,.F.);
#156=ORIENTED_EDGE('',*,*,#380,.T.);
#157=ORIENTED_EDGE('',*,*,#381,.T.);
#158=ORIENTED_EDGE('',*,*,#382,.F.);
#159=ORIENTED_EDGE('',*,*,#383,.F.);
#160=ORIENTED_EDGE('',*,*,#384,.T.);
#161=ORIENTED_EDGE('',*,*,#385,.T.);
#162=ORIENTED_EDGE('',*,*,#386,.F.);
#163=ORIENTED_EDGE('',*,*,#387,.F.);
#164=ORIENTED_EDGE('',*,*,#388,.T.);
#165=ORIENTED_EDGE('',*,*,#389,.T.);
#166=ORIENTED_EDGE('',*,*,#390,.F.);
#167=ORIENTED_EDGE('',*,*,#391,.F.);
#168=ORIENTED_EDGE('',*,*,#392,.T.);
#169=ORIENTED_EDGE('',*,*,#393,.T.);
#170=ORIENTED_EDGE('',*,*,#394,.F.);
#171=ORIENTED_EDGE('',*,*,#395,.F.);
#172=ORIENTED_EDGE('',*,*,#396,.T.);
#173=ORIENTED_EDGE('',*,*,#397,.T.);
#174=ORIENTED_EDGE('',*,*,#398,.F.);
#175=ORIENTED_EDGE('',*,*,#399,.F.);
#176=ORIENTED_EDGE('',*,*,#400,.T.);
#177=ORIENTED_EDGE('',*,*,#401,.T.);
#178=ORIENTED_EDGE('',*,*,#402,.F.);
#179=ORIENTED_EDGE('',*,*,#403,.F.);
#180=ORIENTED_EDGE('',*,*,#404,.T.);
#181=ORIENTED_EDGE('',*,*,#405,.T.);
#182=ORIENTED_EDGE('',*,*,#406,.F.);
#183=ORIENTED_EDGE('',*,*,#407,.F.);
#184=ORIENTED_EDGE('',*,*,#408,.T.);
#185=ORIENTED_EDGE('',*,*,#409,.T.);
#186=ORIENTED_EDGE('',*,*,#410,.F.);
#187=ORIENTED_EDGE('',*,*,#411,.F.);
#188=ORIENTED_EDGE('',*,*,#412,.T.);
#189=ORIENTED_EDGE('',*,*,#413,.T.);
#190=ORIENTED_EDGE('',*,*,#414,.F.);
#191=ORIENTED_EDGE('',*,*,#415,.F.);
#192=ORIENTED_EDGE('',*,*,#416,.T.);
#193=ORIENTED_EDGE('',*,*,#417,.T.);
#194=ORIENTED_EDGE('',*,*,#418,.F.);
#195=ORIENTED_EDGE('',*,*,#419,.F.);
#196=ORIENTED_EDGE('',*,*,#420,.T.);
#197=ORIENTED_EDGE('',*,*,#421,.T.);
#198=ORIENTED_EDGE('',*,*,#422,.F.);
#199=ORIENTED_EDGE('',*,*,#423,.F.);
#200=ORIENTED_EDGE('',*,*,#424,.T.);
#201=ORIENTED_EDGE('',*,*,#425,.T.);
#202=ORIENTED_EDGE('',*,*,#426,.F.);
#203=ORIENTED_EDGE('',*,*,#427,.F.);
#204=ORIENTED_EDGE('',*,*,#428,.T.);
#205=ORIENTED_EDGE('',*,*,#429,.T.);
#206=ORIENTED_EDGE('',*,*,#430,.F.);
#207=ORIENTED_EDGE('',*,*,#431,.F.);
#208=ORIENTED_EDGE('',*,*,#432,.T.);
#209=ORIENTED_EDGE('',*,*,#433,.T.);
#210=ORIENTED_EDGE('',*,*,#434,.F.);
#211=ORIENTED_EDGE('',*,*,#435,.F.);
#212=ORIENTED_EDGE('',*,*,#436,.T.);
#213=ORIENTED_EDGE('',*,*,#437,.T.);
#214=ORIENTED_EDGE('',*,*,#438,.F.);
#215=ORIENTED_EDGE('',*,*,#439,.F.);
#216=ORIENTED_EDGE('',*,*,#440,.T.);
#217=ORIENTED_EDGE('',*,*,#441,.T.);
#218=ORIENTED_EDGE('',*,*,#442,.F.);
#219=ORIENTED_EDGE('',*,*,#443,.F.);
#220=ORIENTED_EDGE('',*,*,#444,.T.);
#221=ORIENTED_EDGE('',*,*,#444,.F.);
#222=ORIENTED_EDGE('',*,*,#370,.T.);
#223=ORIENTED_EDGE('',*,*,#366,.T.);
#224=ORIENTED_EDGE('',*,*,#445,.F.);
#225=ORIENTED_EDGE('',*,*,#377,.F.);
#226=ORIENTED_EDGE('',*,*,#376,.T.);
#227=ORIENTED_EDGE('',*,*,#369,.T.);
#228=ORIENTED_EDGE('',*,*,#446,.F.);
#229=ORIENTED_EDGE('',*,*,#378,.F.);
#230=ORIENTED_EDGE('',*,*,#445,.T.);
#231=ORIENTED_EDGE('',*,*,#368,.F.);
#232=ORIENTED_EDGE('',*,*,#375,.F.);
#233=ORIENTED_EDGE('',*,*,#379,.T.);
#234=ORIENTED_EDGE('',*,*,#446,.T.);
#235=ORIENTED_EDGE('',*,*,#390,.T.);
#236=ORIENTED_EDGE('',*,*,#447,.T.);
#237=ORIENTED_EDGE('',*,*,#392,.F.);
#238=ORIENTED_EDGE('',*,*,#448,.F.);
#239=ORIENTED_EDGE('',*,*,#391,.T.);
#240=ORIENTED_EDGE('',*,*,#448,.T.);
#241=ORIENTED_EDGE('',*,*,#386,.T.);
#242=ORIENTED_EDGE('',*,*,#449,.T.);
#243=ORIENTED_EDGE('',*,*,#388,.F.);
#244=ORIENTED_EDGE('',*,*,#450,.F.);
#245=ORIENTED_EDGE('',*,*,#387,.T.);
#246=ORIENTED_EDGE('',*,*,#450,.T.);
#247=ORIENTED_EDGE('',*,*,#382,.T.);
#248=ORIENTED_EDGE('',*,*,#451,.T.);
#249=ORIENTED_EDGE('',*,*,#384,.F.);
#250=ORIENTED_EDGE('',*,*,#452,.F.);
#251=ORIENTED_EDGE('',*,*,#383,.T.);
#252=ORIENTED_EDGE('',*,*,#452,.T.);
#253=ORIENTED_EDGE('',*,*,#442,.T.);
#254=ORIENTED_EDGE('',*,*,#453,.T.);
#255=ORIENTED_EDGE('',*,*,#380,.F.);
#256=ORIENTED_EDGE('',*,*,#454,.F.);
#257=ORIENTED_EDGE('',*,*,#443,.T.);
#258=ORIENTED_EDGE('',*,*,#454,.T.);
#259=ORIENTED_EDGE('',*,*,#438,.T.);
#260=ORIENTED_EDGE('',*,*,#455,.T.);
#261=ORIENTED_EDGE('',*,*,#440,.F.);
#262=ORIENTED_EDGE('',*,*,#456,.F.);
#263=ORIENTED_EDGE('',*,*,#439,.T.);
#264=ORIENTED_EDGE('',*,*,#456,.T.);
#265=ORIENTED_EDGE('',*,*,#434,.T.);
#266=ORIENTED_EDGE('',*,*,#457,.T.);
#267=ORIENTED_EDGE('',*,*,#436,.F.);
#268=ORIENTED_EDGE('',*,*,#458,.F.);
#269=ORIENTED_EDGE('',*,*,#435,.T.);
#270=ORIENTED_EDGE('',*,*,#458,.T.);
#271=ORIENTED_EDGE('',*,*,#430,.T.);
#272=ORIENTED_EDGE('',*,*,#459,.T.);
#273=ORIENTED_EDGE('',*,*,#432,.F.);
#274=ORIENTED_EDGE('',*,*,#460,.F.);
#275=ORIENTED_EDGE('',*,*,#431,.T.);
#276=ORIENTED_EDGE('',*,*,#460,.T.);
#277=ORIENTED_EDGE('',*,*,#426,.T.);
#278=ORIENTED_EDGE('',*,*,#461,.T.);
#279=ORIENTED_EDGE('',*,*,#428,.F.);
#280=ORIENTED_EDGE('',*,*,#462,.F.);
#281=ORIENTED_EDGE('',*,*,#427,.T.);
#282=ORIENTED_EDGE('',*,*,#462,.T.);
#283=ORIENTED_EDGE('',*,*,#422,.T.);
#284=ORIENTED_EDGE('',*,*,#463,.T.);
#285=ORIENTED_EDGE('',*,*,#424,.F.);
#286=ORIENTED_EDGE('',*,*,#464,.F.);
#287=ORIENTED_EDGE('',*,*,#423,.T.);
#288=ORIENTED_EDGE('',*,*,#464,.T.);
#289=ORIENTED_EDGE('',*,*,#418,.T.);
#290=ORIENTED_EDGE('',*,*,#465,.T.);
#291=ORIENTED_EDGE('',*,*,#420,.F.);
#292=ORIENTED_EDGE('',*,*,#466,.F.);
#293=ORIENTED_EDGE('',*,*,#419,.T.);
#294=ORIENTED_EDGE('',*,*,#466,.T.);
#295=ORIENTED_EDGE('',*,*,#414,.T.);
#296=ORIENTED_EDGE('',*,*,#467,.T.);
#297=ORIENTED_EDGE('',*,*,#416,.F.);
#298=ORIENTED_EDGE('',*,*,#468,.F.);
#299=ORIENTED_EDGE('',*,*,#415,.T.);
#300=ORIENTED_EDGE('',*,*,#468,.T.);
#301=ORIENTED_EDGE('',*,*,#410,.T.);
#302=ORIENTED_EDGE('',*,*,#469,.T.);
#303=ORIENTED_EDGE('',*,*,#412,.F.);
#304=ORIENTED_EDGE('',*,*,#470,.F.);
#305=ORIENTED_EDGE('',*,*,#411,.T.);
#306=ORIENTED_EDGE('',*,*,#470,.T.);
#307=ORIENTED_EDGE('',*,*,#406,.T.);
#308=ORIENTED_EDGE('',*,*,#471,.T.);
#309=ORIENTED_EDGE('',*,*,#408,.F.);
#310=ORIENTED_EDGE('',*,*,#472,.F.);
#311=ORIENTED_EDGE('',*,*,#407,.T.);
#312=ORIENTED_EDGE('',*,*,#472,.T.);
#313=ORIENTED_EDGE('',*,*,#402,.T.);
#314=ORIENTED_EDGE('',*,*,#473,.T.);
#315=ORIENTED_EDGE('',*,*,#404,.F.);
#316=ORIENTED_EDGE('',*,*,#474,.F.);
#317=ORIENTED_EDGE('',*,*,#403,.T.);
#318=ORIENTED_EDGE('',*,*,#474,.T.);
#319=ORIENTED_EDGE('',*,*,#398,.T.);
#320=ORIENTED_EDGE('',*,*,#475,.T.);
#321=ORIENTED_EDGE('',*,*,#400,.F.);
#322=ORIENTED_EDGE('',*,*,#476,.F.);
#323=ORIENTED_EDGE('',*,*,#399,.T.);
#324=ORIENTED_EDGE('',*,*,#476,.T.);
#325=ORIENTED_EDGE('',*,*,#394,.T.);
#326=ORIENTED_EDGE('',*,*,#477,.T.);
#327=ORIENTED_EDGE('',*,*,#396,.F.);
#328=ORIENTED_EDGE('',*,*,#478,.F.);
#329=ORIENTED_EDGE('',*,*,#395,.T.);
#330=ORIENTED_EDGE('',*,*,#478,.T.);
#331=ORIENTED_EDGE('',*,*,#451,.F.);
#332=ORIENTED_EDGE('',*,*,#381,.F.);
#333=ORIENTED_EDGE('',*,*,#453,.F.);
#334=ORIENTED_EDGE('',*,*,#441,.F.);
#335=ORIENTED_EDGE('',*,*,#455,.F.);
#336=ORIENTED_EDGE('',*,*,#437,.F.);
#337=ORIENTED_EDGE('',*,*,#457,.F.);
#338=ORIENTED_EDGE('',*,*,#433,.F.);
#339=ORIENTED_EDGE('',*,*,#459,.F.);
#340=ORIENTED_EDGE('',*,*,#429,.F.);
#341=ORIENTED_EDGE('',*,*,#461,.F.);
#342=ORIENTED_EDGE('',*,*,#425,.F.);
#343=ORIENTED_EDGE('',*,*,#463,.F.);
#344=ORIENTED_EDGE('',*,*,#421,.F.);
#345=ORIENTED_EDGE('',*,*,#465,.F.);
#346=ORIENTED_EDGE('',*,*,#417,.F.);
#347=ORIENTED_EDGE('',*,*,#467,.F.);
#348=ORIENTED_EDGE('',*,*,#413,.F.);
#349=ORIENTED_EDGE('',*,*,#469,.F.);
#350=ORIENTED_EDGE('',*,*,#409,.F.);
#351=ORIENTED_EDGE('',*,*,#471,.F.);
#352=ORIENTED_EDGE('',*,*,#405,.F.);
#353=ORIENTED_EDGE('',*,*,#473,.F.);
#354=ORIENTED_EDGE('',*,*,#401,.F.);
#355=ORIENTED_EDGE('',*,*,#475,.F.);
#356=ORIENTED_EDGE('',*,*,#397,.F.);
#357=ORIENTED_EDGE('',*,*,#477,.F.);
#358=ORIENTED_EDGE('',*,*,#393,.F.);
#359=ORIENTED_EDGE('',*,*,#447,.F.);
#360=ORIENTED_EDGE('',*,*,#389,.F.);
#361=ORIENTED_EDGE('',*,*,#449,.F.);
#362=ORIENTED_EDGE('',*,*,#385,.F.);
#363=ORIENTED_EDGE('',*,*,#364,.F.);
#364=EDGE_CURVE('',#479,#479,#558,.F.);
#365=EDGE_CURVE('',#480,#480,#559,.T.);
#366=EDGE_CURVE('',#481,#482,#50,.T.);
#367=EDGE_CURVE('',#481,#483,#560,.T.);
#368=EDGE_CURVE('',#483,#484,#51,.T.);
#369=EDGE_CURVE('',#482,#484,#52,.T.);
#370=EDGE_CURVE('',#485,#485,#561,.T.);
#371=EDGE_CURVE('',#486,#486,#562,.T.);
#372=EDGE_CURVE('',#487,#487,#563,.T.);
#373=EDGE_CURVE('',#488,#488,#564,.T.);
#374=EDGE_CURVE('',#489,#490,#565,.T.);
#375=EDGE_CURVE('',#490,#483,#53,.T.);
#376=EDGE_CURVE('',#489,#481,#54,.T.);
#377=EDGE_CURVE('',#489,#491,#55,.T.);
#378=EDGE_CURVE('',#491,#492,#56,.T.);
#379=EDGE_CURVE('',#490,#492,#57,.T.);
#380=EDGE_CURVE('',#493,#494,#58,.T.);
#381=EDGE_CURVE('',#494,#495,#566,.T.);
#382=EDGE_CURVE('',#496,#495,#59,.T.);
#383=EDGE_CURVE('',#497,#496,#567,.T.);
#384=EDGE_CURVE('',#497,#498,#60,.T.);
#385=EDGE_CURVE('',#498,#499,#568,.T.);
#386=EDGE_CURVE('',#500,#499,#61,.T.);
#387=EDGE_CURVE('',#501,#500,#569,.T.);
#388=EDGE_CURVE('',#501,#502,#62,.T.);
#389=EDGE_CURVE('',#502,#503,#570,.T.);
#390=EDGE_CURVE('',#504,#503,#63,.T.);
#391=EDGE_CURVE('',#505,#504,#571,.T.);
#392=EDGE_CURVE('',#505,#506,#64,.T.);
#393=EDGE_CURVE('',#506,#507,#572,.T.);
#394=EDGE_CURVE('',#508,#507,#65,.T.);
#395=EDGE_CURVE('',#509,#508,#573,.T.);
#396=EDGE_CURVE('',#509,#510,#66,.T.);
#397=EDGE_CURVE('',#510,#511,#574,.T.);
#398=EDGE_CURVE('',#512,#511,#67,.T.);
#399=EDGE_CURVE('',#513,#512,#575,.T.);
#400=EDGE_CURVE('',#513,#514,#68,.T.);
#401=EDGE_CURVE('',#514,#515,#576,.T.);
#402=EDGE_CURVE('',#516,#515,#69,.T.);
#403=EDGE_CURVE('',#517,#516,#577,.T.);
#404=EDGE_CURVE('',#517,#518,#70,.T.);
#405=EDGE_CURVE('',#518,#519,#578,.T.);
#406=EDGE_CURVE('',#520,#519,#71,.T.);
#407=EDGE_CURVE('',#521,#520,#579,.T.);
#408=EDGE_CURVE('',#521,#522,#72,.T.);
#409=EDGE_CURVE('',#522,#523,#580,.T.);
#410=EDGE_CURVE('',#524,#523,#73,.T.);
#411=EDGE_CURVE('',#525,#524,#581,.T.);
#412=EDGE_CURVE('',#525,#526,#74,.T.);
#413=EDGE_CURVE('',#526,#527,#582,.T.);
#414=EDGE_CURVE('',#528,#527,#75,.T.);
#415=EDGE_CURVE('',#529,#528,#583,.T.);
#416=EDGE_CURVE('',#529,#530,#76,.T.);
#417=EDGE_CURVE('',#530,#531,#584,.T.);
#418=EDGE_CURVE('',#532,#531,#77,.T.);
#419=EDGE_CURVE('',#533,#532,#585,.T.);
#420=EDGE_CURVE('',#533,#534,#78,.T.);
#421=EDGE_CURVE('',#534,#535,#586,.T.);
#422=EDGE_CURVE('',#536,#535,#79,.T.);
#423=EDGE_CURVE('',#537,#536,#587,.T.);
#424=EDGE_CURVE('',#537,#538,#80,.T.);
#425=EDGE_CURVE('',#538,#539,#588,.T.);
#426=EDGE_CURVE('',#540,#539,#81,.T.);
#427=EDGE_CURVE('',#541,#540,#589,.T.);
#428=EDGE_CURVE('',#541,#542,#82,.T.);
#429=EDGE_CURVE('',#542,#543,#590,.T.);
#430=EDGE_CURVE('',#544,#543,#83,.T.);
#431=EDGE_CURVE('',#545,#544,#591,.T.);
#432=EDGE_CURVE('',#545,#546,#84,.T.);
#433=EDGE_CURVE('',#546,#547,#592,.T.);
#434=EDGE_CURVE('',#548,#547,#85,.T.);
#435=EDGE_CURVE('',#549,#548,#593,.T.);
#436=EDGE_CURVE('',#549,#550,#86,.T.);
#437=EDGE_CURVE('',#550,#551,#594,.T.);
#438=EDGE_CURVE('',#552,#551,#87,.T.);
#439=EDGE_CURVE('',#553,#552,#595,.T.);
#440=EDGE_CURVE('',#553,#554,#88,.T.);
#441=EDGE_CURVE('',#554,#555,#596,.T.);
#442=EDGE_CURVE('',#556,#555,#89,.T.);
#443=EDGE_CURVE('',#493,#556,#597,.T.);
#444=EDGE_CURVE('',#557,#557,#598,.T.);
#445=EDGE_CURVE('',#491,#482,#90,.T.);
#446=EDGE_CURVE('',#492,#484,#91,.T.);
#447=EDGE_CURVE('',#503,#506,#13,.T.);
#448=EDGE_CURVE('',#504,#505,#599,.T.);
#449=EDGE_CURVE('',#499,#502,#14,.T.);
#450=EDGE_CURVE('',#500,#501,#600,.T.);
#451=EDGE_CURVE('',#495,#498,#15,.T.);
#452=EDGE_CURVE('',#496,#497,#601,.T.);
#453=EDGE_CURVE('',#555,#494,#16,.T.);
#454=EDGE_CURVE('',#556,#493,#602,.T.);
#455=EDGE_CURVE('',#551,#554,#17,.T.);
#456=EDGE_CURVE('',#552,#553,#603,.T.);
#457=EDGE_CURVE('',#547,#550,#18,.T.);
#458=EDGE_CURVE('',#548,#549,#604,.T.);
#459=EDGE_CURVE('',#543,#546,#19,.T.);
#460=EDGE_CURVE('',#544,#545,#605,.T.);
#461=EDGE_CURVE('',#539,#542,#20,.T.);
#462=EDGE_CURVE('',#540,#541,#606,.T.);
#463=EDGE_CURVE('',#535,#538,#21,.T.);
#464=EDGE_CURVE('',#536,#537,#607,.T.);
#465=EDGE_CURVE('',#531,#534,#22,.T.);
#466=EDGE_CURVE('',#532,#533,#608,.T.);
#467=EDGE_CURVE('',#527,#530,#23,.T.);
#468=EDGE_CURVE('',#528,#529,#609,.T.);
#469=EDGE_CURVE('',#523,#526,#24,.T.);
#470=EDGE_CURVE('',#524,#525,#610,.T.);
#471=EDGE_CURVE('',#519,#522,#25,.T.);
#472=EDGE_CURVE('',#520,#521,#611,.T.);
#473=EDGE_CURVE('',#515,#518,#26,.T.);
#474=EDGE_CURVE('',#516,#517,#612,.T.);
#475=EDGE_CURVE('',#511,#514,#27,.T.);
#476=EDGE_CURVE('',#512,#513,#613,.T.);
#477=EDGE_CURVE('',#507,#510,#28,.T.);
#478=EDGE_CURVE('',#508,#509,#614,.T.);
#479=VERTEX_POINT('',#1162);
#480=VERTEX_POINT('',#1165);
#481=VERTEX_POINT('',#1167);
#482=VERTEX_POINT('',#1168);
#483=VERTEX_POINT('',#1170);
#484=VERTEX_POINT('',#1172);
#485=VERTEX_POINT('',#1176);
#486=VERTEX_POINT('',#1178);
#487=VERTEX_POINT('',#1181);
#488=VERTEX_POINT('',#1184);
#489=VERTEX_POINT('',#1188);
#490=VERTEX_POINT('',#1189);
#491=VERTEX_POINT('',#1194);
#492=VERTEX_POINT('',#1196);
#493=VERTEX_POINT('',#1200);
#494=VERTEX_POINT('',#1201);
#495=VERTEX_POINT('',#1203);
#496=VERTEX_POINT('',#1205);
#497=VERTEX_POINT('',#1207);
#498=VERTEX_POINT('',#1209);
#499=VERTEX_POINT('',#1211);
#500=VERTEX_POINT('',#1213);
#501=VERTEX_POINT('',#1215);
#502=VERTEX_POINT('',#1217);
#503=VERTEX_POINT('',#1219);
#504=VERTEX_POINT('',#1221);
#505=VERTEX_POINT('',#1223);
#506=VERTEX_POINT('',#1225);
#507=VERTEX_POINT('',#1227);
#508=VERTEX_POINT('',#1229);
#509=VERTEX_POINT('',#1231);
#510=VERTEX_POINT('',#1233);
#511=VERTEX_POINT('',#1235);
#512=VERTEX_POINT('',#1237);
#513=VERTEX_POINT('',#1239);
#514=VERTEX_POINT('',#1241);
#515=VERTEX_POINT('',#1243);
#516=VERTEX_POINT('',#1245);
#517=VERTEX_POINT('',#1247);
#518=VERTEX_POINT('',#1249);
#519=VERTEX_POINT('',#1251);
#520=VERTEX_POINT('',#1253);
#521=VERTEX_POINT('',#1255);
#522=VERTEX_POINT('',#1257);
#523=VERTEX_POINT('',#1259);
#524=VERTEX_POINT('',#1261);
#525=VERTEX_POINT('',#1263);
#526=VERTEX_POINT('',#1265);
#527=VERTEX_POINT('',#1267);
#528=VERTEX_POINT('',#1269);
#529=VERTEX_POINT('',#1271);
#530=VERTEX_POINT('',#1273);
#531=VERTEX_POINT('',#1275);
#532=VERTEX_POINT('',#1277);
#533=VERTEX_POINT('',#1279);
#534=VERTEX_POINT('',#1281);
#535=VERTEX_POINT('',#1283);
#536=VERTEX_POINT('',#1285);
#537=VERTEX_POINT('',#1287);
#538=VERTEX_POINT('',#1289);
#539=VERTEX_POINT('',#1291);
#540=VERTEX_POINT('',#1293);
#541=VERTEX_POINT('',#1295);
#542=VERTEX_POINT('',#1297);
#543=VERTEX_POINT('',#1299);
#544=VERTEX_POINT('',#1301);
#545=VERTEX_POINT('',#1303);
#546=VERTEX_POINT('',#1305);
#547=VERTEX_POINT('',#1307);
#548=VERTEX_POINT('',#1309);
#549=VERTEX_POINT('',#1311);
#550=VERTEX_POINT('',#1313);
#551=VERTEX_POINT('',#1315);
#552=VERTEX_POINT('',#1317);
#553=VERTEX_POINT('',#1319);
#554=VERTEX_POINT('',#1321);
#555=VERTEX_POINT('',#1323);
#556=VERTEX_POINT('',#1325);
#557=VERTEX_POINT('',#1328);
#558=CIRCLE('',#807,0.0205);
#559=CIRCLE('',#809,0.006);
#560=CIRCLE('',#810,0.004);
#561=CIRCLE('',#812,0.025);
#562=CIRCLE('',#813,0.0205);
#563=CIRCLE('',#815,0.0205);
#564=CIRCLE('',#817,0.006);
#565=CIRCLE('',#820,0.004);
#566=CIRCLE('',#823,0.0225);
#567=CIRCLE('',#824,0.0225);
#568=CIRCLE('',#825,0.0225);
#569=CIRCLE('',#826,0.0225);
#570=CIRCLE('',#827,0.0225);
#571=CIRCLE('',#828,0.0225);
#572=CIRCLE('',#829,0.0225);
#573=CIRCLE('',#830,0.0225);
#574=CIRCLE('',#831,0.0225);
#575=CIRCLE('',#832,0.0225);
#576=CIRCLE('',#833,0.0225);
#577=CIRCLE('',#834,0.0225);
#578=CIRCLE('',#835,0.0225);
#579=CIRCLE('',#836,0.0225);
#580=CIRCLE('',#837,0.0225);
#581=CIRCLE('',#838,0.0225);
#582=CIRCLE('',#839,0.0225);
#583=CIRCLE('',#840,0.0225);
#584=CIRCLE('',#841,0.0225);
#585=CIRCLE('',#842,0.0225);
#586=CIRCLE('',#843,0.0225);
#587=CIRCLE('',#844,0.0225);
#588=CIRCLE('',#845,0.0225);
#589=CIRCLE('',#846,0.0225);
#590=CIRCLE('',#847,0.0225);
#591=CIRCLE('',#848,0.0225);
#592=CIRCLE('',#849,0.0225);
#593=CIRCLE('',#850,0.0225);
#594=CIRCLE('',#851,0.0225);
#595=CIRCLE('',#852,0.0225);
#596=CIRCLE('',#853,0.0225);
#597=CIRCLE('',#854,0.0225);
#598=CIRCLE('',#855,0.0225);
#599=CIRCLE('',#861,0.002);
#600=CIRCLE('',#864,0.002);
#601=CIRCLE('',#867,0.002);
#602=CIRCLE('',#870,0.002);
#603=CIRCLE('',#873,0.002);
#604=CIRCLE('',#876,0.002);
#605=CIRCLE('',#879,0.002);
#606=CIRCLE('',#882,0.002);
#607=CIRCLE('',#885,0.002);
#608=CIRCLE('',#888,0.002);
#609=CIRCLE('',#891,0.002);
#610=CIRCLE('',#894,0.002);
#611=CIRCLE('',#897,0.002);
#612=CIRCLE('',#900,0.002);
#613=CIRCLE('',#903,0.002);
#614=CIRCLE('',#906,0.002);
#615=EDGE_LOOP('',(#134));
#616=EDGE_LOOP('',(#135));
#617=EDGE_LOOP('',(#136,#137,#138,#139));
#618=EDGE_LOOP('',(#140));
#619=EDGE_LOOP('',(#141));
#620=EDGE_LOOP('',(#142));
#621=EDGE_LOOP('',(#143));
#622=EDGE_LOOP('',(#144));
#623=EDGE_LOOP('',(#145));
#624=EDGE_LOOP('',(#146));
#625=EDGE_LOOP('',(#147));
#626=EDGE_LOOP('',(#148,#149,#150,#151));
#627=EDGE_LOOP('',(#152,#153,#154,#155));
#628=EDGE_LOOP('',(#156,#157,#158,#159,#160,#161,#162,#163,#164,#165,#166,
#167,#168,#169,#170,#171,#172,#173,#174,#175,#176,#177,#178,#179,#180,#181,
#182,#183,#184,#185,#186,#187,#188,#189,#190,#191,#192,#193,#194,#195,#196,
#197,#198,#199,#200,#201,#202,#203,#204,#205,#206,#207,#208,#209,#210,#211,
#212,#213,#214,#215,#216,#217,#218,#219));
#629=EDGE_LOOP('',(#220));
#630=EDGE_LOOP('',(#221));
#631=EDGE_LOOP('',(#222));
#632=EDGE_LOOP('',(#223,#224,#225,#226));
#633=EDGE_LOOP('',(#227,#228,#229,#230));
#634=EDGE_LOOP('',(#231,#232,#233,#234));
#635=EDGE_LOOP('',(#235,#236,#237,#238));
#636=EDGE_LOOP('',(#239,#240));
#637=EDGE_LOOP('',(#241,#242,#243,#244));
#638=EDGE_LOOP('',(#245,#246));
#639=EDGE_LOOP('',(#247,#248,#249,#250));
#640=EDGE_LOOP('',(#251,#252));
#641=EDGE_LOOP('',(#253,#254,#255,#256));
#642=EDGE_LOOP('',(#257,#258));
#643=EDGE_LOOP('',(#259,#260,#261,#262));
#644=EDGE_LOOP('',(#263,#264));
#645=EDGE_LOOP('',(#265,#266,#267,#268));
#646=EDGE_LOOP('',(#269,#270));
#647=EDGE_LOOP('',(#271,#272,#273,#274));
#648=EDGE_LOOP('',(#275,#276));
#649=EDGE_LOOP('',(#277,#278,#279,#280));
#650=EDGE_LOOP('',(#281,#282));
#651=EDGE_LOOP('',(#283,#284,#285,#286));
#652=EDGE_LOOP('',(#287,#288));
#653=EDGE_LOOP('',(#289,#290,#291,#292));
#654=EDGE_LOOP('',(#293,#294));
#655=EDGE_LOOP('',(#295,#296,#297,#298));
#656=EDGE_LOOP('',(#299,#300));
#657=EDGE_LOOP('',(#301,#302,#303,#304));
#658=EDGE_LOOP('',(#305,#306));
#659=EDGE_LOOP('',(#307,#308,#309,#310));
#660=EDGE_LOOP('',(#311,#312));
#661=EDGE_LOOP('',(#313,#314,#315,#316));
#662=EDGE_LOOP('',(#317,#318));
#663=EDGE_LOOP('',(#319,#320,#321,#322));
#664=EDGE_LOOP('',(#323,#324));
#665=EDGE_LOOP('',(#325,#326,#327,#328));
#666=EDGE_LOOP('',(#329,#330));
#667=EDGE_LOOP('',(#331,#332,#333,#334,#335,#336,#337,#338,#339,#340,#341,
#342,#343,#344,#345,#346,#347,#348,#349,#350,#351,#352,#353,#354,#355,#356,
#357,#358,#359,#360,#361,#362));
#668=EDGE_LOOP('',(#363));
#669=FACE_BOUND('',#615,.T.);
#670=FACE_BOUND('',#616,.T.);
#671=FACE_BOUND('',#617,.T.);
#672=FACE_BOUND('',#618,.T.);
#673=FACE_BOUND('',#619,.T.);
#674=FACE_BOUND('',#620,.T.);
#675=FACE_BOUND('',#621,.T.);
#676=FACE_BOUND('',#622,.T.);
#677=FACE_BOUND('',#623,.T.);
#678=FACE_BOUND('',#624,.T.);
#679=FACE_BOUND('',#625,.T.);
#680=FACE_BOUND('',#626,.T.);
#681=FACE_BOUND('',#627,.T.);
#682=FACE_BOUND('',#628,.T.);
#683=FACE_BOUND('',#629,.T.);
#684=FACE_BOUND('',#630,.T.);
#685=FACE_BOUND('',#631,.T.);
#686=FACE_BOUND('',#632,.T.);
#687=FACE_BOUND('',#633,.T.);
#688=FACE_BOUND('',#634,.T.);
#689=FACE_BOUND('',#635,.T.);
#690=FACE_BOUND('',#636,.T.);
#691=FACE_BOUND('',#637,.T.);
#692=FACE_BOUND('',#638,.T.);
#693=FACE_BOUND('',#639,.T.);
#694=FACE_BOUND('',#640,.T.);
#695=FACE_BOUND('',#641,.T.);
#696=FACE_BOUND('',#642,.T.);
#697=FACE_BOUND('',#643,.T.);
#698=FACE_BOUND('',#644,.T.);
#699=FACE_BOUND('',#645,.T.);
#700=FACE_BOUND('',#646,.T.);
#701=FACE_BOUND('',#647,.T.);
#702=FACE_BOUND('',#648,.T.);
#703=FACE_BOUND('',#649,.T.);
#704=FACE_BOUND('',#650,.T.);
#705=FACE_BOUND('',#651,.T.);
#706=FACE_BOUND('',#652,.T.);
#707=FACE_BOUND('',#653,.T.);
#708=FACE_BOUND('',#654,.T.);
#709=FACE_BOUND('',#655,.T.);
#710=FACE_BOUND('',#656,.T.);
#711=FACE_BOUND('',#657,.T.);
#712=FACE_BOUND('',#658,.T.);
#713=FACE_BOUND('',#659,.T.);
#714=FACE_BOUND('',#660,.T.);
#715=FACE_BOUND('',#661,.T.);
#716=FACE_BOUND('',#662,.T.);
#717=FACE_BOUND('',#663,.T.);
#718=FACE_BOUND('',#664,.T.);
#719=FACE_BOUND('',#665,.T.);
#720=FACE_BOUND('',#666,.T.);
#721=FACE_BOUND('',#667,.T.);
#722=FACE_BOUND('',#668,.T.);
#723=PLANE('',#806);
#724=PLANE('',#808);
#725=PLANE('',#811);
#726=PLANE('',#816);
#727=PLANE('',#821);
#728=PLANE('',#857);
#729=PLANE('',#858);
#730=PLANE('',#859);
#731=PLANE('',#862);
#732=PLANE('',#865);
#733=PLANE('',#868);
#734=PLANE('',#871);
#735=PLANE('',#874);
#736=PLANE('',#877);
#737=PLANE('',#880);
#738=PLANE('',#883);
#739=PLANE('',#886);
#740=PLANE('',#889);
#741=PLANE('',#892);
#742=PLANE('',#895);
#743=PLANE('',#898);
#744=PLANE('',#901);
#745=PLANE('',#904);
#746=PLANE('',#907);
#747=ADVANCED_FACE('',(#669),#723,.F.);
#748=ADVANCED_FACE('',(#670,#671),#724,.F.);
#749=ADVANCED_FACE('',(#672,#673),#725,.F.);
#750=ADVANCED_FACE('',(#674,#675),#30,.F.);
#751=ADVANCED_FACE('',(#676,#677),#726,.F.);
#752=ADVANCED_FACE('',(#678,#679),#31,.T.);
#753=ADVANCED_FACE('',(#680),#32,.F.);
#754=ADVANCED_FACE('',(#681),#727,.F.);
#755=ADVANCED_FACE('',(#682,#683),#33,.T.);
#756=ADVANCED_FACE('',(#684,#685),#29,.T.);
#757=ADVANCED_FACE('',(#686),#728,.F.);
#758=ADVANCED_FACE('',(#687),#729,.F.);
#759=ADVANCED_FACE('',(#688),#730,.T.);
#760=ADVANCED_FACE('',(#689),#34,.F.);
#761=ADVANCED_FACE('',(#690),#731,.T.);
#762=ADVANCED_FACE('',(#691),#35,.F.);
#763=ADVANCED_FACE('',(#692),#732,.T.);
#764=ADVANCED_FACE('',(#693),#36,.F.);
#765=ADVANCED_FACE('',(#694),#733,.T.);
#766=ADVANCED_FACE('',(#695),#37,.F.);
#767=ADVANCED_FACE('',(#696),#734,.T.);
#768=ADVANCED_FACE('',(#697),#38,.F.);
#769=ADVANCED_FACE('',(#698),#735,.T.);
#770=ADVANCED_FACE('',(#699),#39,.F.);
#771=ADVANCED_FACE('',(#700),#736,.T.);
#772=ADVANCED_FACE('',(#701),#40,.F.);
#773=ADVANCED_FACE('',(#702),#737,.T.);
#774=ADVANCED_FACE('',(#703),#41,.F.);
#775=ADVANCED_FACE('',(#704),#738,.T.);
#776=ADVANCED_FACE('',(#705),#42,.F.);
#777=ADVANCED_FACE('',(#706),#739,.T.);
#778=ADVANCED_FACE('',(#707),#43,.F.);
#779=ADVANCED_FACE('',(#708),#740,.T.);
#780=ADVANCED_FACE('',(#709),#44,.F.);
#781=ADVANCED_FACE('',(#710),#741,.T.);
#782=ADVANCED_FACE('',(#711),#45,.F.);
#783=ADVANCED_FACE('',(#712),#742,.T.);
#784=ADVANCED_FACE('',(#713),#46,.F.);
#785=ADVANCED_FACE('',(#714),#743,.T.);
#786=ADVANCED_FACE('',(#715),#47,.F.);
#787=ADVANCED_FACE('',(#716),#744,.T.);
#788=ADVANCED_FACE('',(#717),#48,.F.);
#789=ADVANCED_FACE('',(#718),#745,.T.);
#790=ADVANCED_FACE('',(#719),#49,.F.);
#791=ADVANCED_FACE('',(#720),#746,.T.);
#792=ADVANCED_FACE('',(#721,#722),#12,.T.);
#793=CLOSED_SHELL('',(#747,#748,#749,#750,#751,#752,#753,#754,#755,#756,
#757,#758,#759,#760,#761,#762,#763,#764,#765,#766,#767,#768,#769,#770,#771,
#772,#773,#774,#775,#776,#777,#778,#779,#780,#781,#782,#783,#784,#785,#786,
#787,#788,#789,#790,#791,#792));
#794=STYLED_ITEM('',(#795),#802);
#795=PRESENTATION_STYLE_ASSIGNMENT((#796));
#796=SURFACE_STYLE_USAGE(.BOTH.,#797);
#797=SURFACE_SIDE_STYLE('',(#798));
#798=SURFACE_STYLE_FILL_AREA(#799);
#799=FILL_AREA_STYLE('',(#800));
#800=FILL_AREA_STYLE_COLOUR('',#801);
#801=COLOUR_RGB('',0.615686274509804,0.811764705882353,0.929411764705882);
#802=MANIFOLD_SOLID_BREP('Part 1',#793);
#803=SHAPE_DEFINITION_REPRESENTATION(#1566,#804);
#804=SHAPE_REPRESENTATION('Part 1',(#805),#1561);
#805=AXIS2_PLACEMENT_3D('',#1159,#909,#910);
#806=AXIS2_PLACEMENT_3D('',#1160,#911,#912);
#807=AXIS2_PLACEMENT_3D('',#1161,#913,#914);
#808=AXIS2_PLACEMENT_3D('',#1163,#915,#916);
#809=AXIS2_PLACEMENT_3D('',#1164,#917,#918);
#810=AXIS2_PLACEMENT_3D('',#1169,#920,#921);
#811=AXIS2_PLACEMENT_3D('',#1174,#924,#925);
#812=AXIS2_PLACEMENT_3D('',#1175,#926,#927);
#813=AXIS2_PLACEMENT_3D('',#1177,#928,#929);
#814=AXIS2_PLACEMENT_3D('',#1179,#930,#931);
#815=AXIS2_PLACEMENT_3D('',#1180,#932,#933);
#816=AXIS2_PLACEMENT_3D('',#1182,#934,#935);
#817=AXIS2_PLACEMENT_3D('',#1183,#936,#937);
#818=AXIS2_PLACEMENT_3D('',#1185,#938,#939);
#819=AXIS2_PLACEMENT_3D('',#1186,#940,#941);
#820=AXIS2_PLACEMENT_3D('',#1187,#942,#943);
#821=AXIS2_PLACEMENT_3D('',#1192,#946,#947);
#822=AXIS2_PLACEMENT_3D('',#1198,#951,#952);
#823=AXIS2_PLACEMENT_3D('',#1202,#954,#955);
#824=AXIS2_PLACEMENT_3D('',#1206,#957,#958);
#825=AXIS2_PLACEMENT_3D('',#1210,#960,#961);
#826=AXIS2_PLACEMENT_3D('',#1214,#963,#964);
#827=AXIS2_PLACEMENT_3D('',#1218,#966,#967);
#828=AXIS2_PLACEMENT_3D('',#1222,#969,#970);
#829=AXIS2_PLACEMENT_3D('',#1226,#972,#973);
#830=AXIS2_PLACEMENT_3D('',#1230,#975,#976);
#831=AXIS2_PLACEMENT_3D('',#1234,#978,#979);
#832=AXIS2_PLACEMENT_3D('',#1238,#981,#982);
#833=AXIS2_PLACEMENT_3D('',#1242,#984,#985);
#834=AXIS2_PLACEMENT_3D('',#1246,#987,#988);
#835=AXIS2_PLACEMENT_3D('',#1250,#990,#991);
#836=AXIS2_PLACEMENT_3D('',#1254,#993,#994);
#837=AXIS2_PLACEMENT_3D('',#1258,#996,#997);
#838=AXIS2_PLACEMENT_3D('',#1262,#999,#1000);
#839=AXIS2_PLACEMENT_3D('',#1266,#1002,#1003);
#840=AXIS2_PLACEMENT_3D('',#1270,#1005,#1006);
#841=AXIS2_PLACEMENT_3D('',#1274,#1008,#1009);
#842=AXIS2_PLACEMENT_3D('',#1278,#1011,#1012);
#843=AXIS2_PLACEMENT_3D('',#1282,#1014,#1015);
#844=AXIS2_PLACEMENT_3D('',#1286,#1017,#1018);
#845=AXIS2_PLACEMENT_3D('',#1290,#1020,#1021);
#846=AXIS2_PLACEMENT_3D('',#1294,#1023,#1024);
#847=AXIS2_PLACEMENT_3D('',#1298,#1026,#1027);
#848=AXIS2_PLACEMENT_3D('',#1302,#1029,#1030);
#849=AXIS2_PLACEMENT_3D('',#1306,#1032,#1033);
#850=AXIS2_PLACEMENT_3D('',#1310,#1035,#1036);
#851=AXIS2_PLACEMENT_3D('',#1314,#1038,#1039);
#852=AXIS2_PLACEMENT_3D('',#1318,#1041,#1042);
#853=AXIS2_PLACEMENT_3D('',#1322,#1044,#1045);
#854=AXIS2_PLACEMENT_3D('',#1326,#1047,#1048);
#855=AXIS2_PLACEMENT_3D('',#1327,#1049,#1050);
#856=AXIS2_PLACEMENT_3D('',#1329,#1051,#1052);
#857=AXIS2_PLACEMENT_3D('',#1330,#1053,#1054);
#858=AXIS2_PLACEMENT_3D('',#1332,#1056,#1057);
#859=AXIS2_PLACEMENT_3D('',#1334,#1059,#1060);
#860=AXIS2_PLACEMENT_3D('',#1335,#1061,#1062);
#861=AXIS2_PLACEMENT_3D('',#1347,#1063,#1064);
#862=AXIS2_PLACEMENT_3D('',#1348,#1065,#1066);
#863=AXIS2_PLACEMENT_3D('',#1349,#1067,#1068);
#864=AXIS2_PLACEMENT_3D('',#1361,#1069,#1070);
#865=AXIS2_PLACEMENT_3D('',#1362,#1071,#1072);
#866=AXIS2_PLACEMENT_3D('',#1363,#1073,#1074);
#867=AXIS2_PLACEMENT_3D('',#1375,#1075,#1076);
#868=AXIS2_PLACEMENT_3D('',#1376,#1077,#1078);
#869=AXIS2_PLACEMENT_3D('',#1377,#1079,#1080);
#870=AXIS2_PLACEMENT_3D('',#1389,#1081,#1082);
#871=AXIS2_PLACEMENT_3D('',#1390,#1083,#1084);
#872=AXIS2_PLACEMENT_3D('',#1391,#1085,#1086);
#873=AXIS2_PLACEMENT_3D('',#1403,#1087,#1088);
#874=AXIS2_PLACEMENT_3D('',#1404,#1089,#1090);
#875=AXIS2_PLACEMENT_3D('',#1405,#1091,#1092);
#876=AXIS2_PLACEMENT_3D('',#1417,#1093,#1094);
#877=AXIS2_PLACEMENT_3D('',#1418,#1095,#1096);
#878=AXIS2_PLACEMENT_3D('',#1419,#1097,#1098);
#879=AXIS2_PLACEMENT_3D('',#1431,#1099,#1100);
#880=AXIS2_PLACEMENT_3D('',#1432,#1101,#1102);
#881=AXIS2_PLACEMENT_3D('',#1433,#1103,#1104);
#882=AXIS2_PLACEMENT_3D('',#1445,#1105,#1106);
#883=AXIS2_PLACEMENT_3D('',#1446,#1107,#1108);
#884=AXIS2_PLACEMENT_3D('',#1447,#1109,#1110);
#885=AXIS2_PLACEMENT_3D('',#1459,#1111,#1112);
#886=AXIS2_PLACEMENT_3D('',#1460,#1113,#1114);
#887=AXIS2_PLACEMENT_3D('',#1461,#1115,#1116);
#888=AXIS2_PLACEMENT_3D('',#1473,#1117,#1118);
#889=AXIS2_PLACEMENT_3D('',#1474,#1119,#1120);
#890=AXIS2_PLACEMENT_3D('',#1475,#1121,#1122);
#891=AXIS2_PLACEMENT_3D('',#1487,#1123,#1124);
#892=AXIS2_PLACEMENT_3D('',#1488,#1125,#1126);
#893=AXIS2_PLACEMENT_3D('',#1489,#1127,#1128);
#894=AXIS2_PLACEMENT_3D('',#1501,#1129,#1130);
#895=AXIS2_PLACEMENT_3D('',#1502,#1131,#1132);
#896=AXIS2_PLACEMENT_3D('',#1503,#1133,#1134);
#897=AXIS2_PLACEMENT_3D('',#1515,#1135,#1136);
#898=AXIS2_PLACEMENT_3D('',#1516,#1137,#1138);
#899=AXIS2_PLACEMENT_3D('',#1517,#1139,#1140);
#900=AXIS2_PLACEMENT_3D('',#1529,#1141,#1142);
#901=AXIS2_PLACEMENT_3D('',#1530,#1143,#1144);
#902=AXIS2_PLACEMENT_3D('',#1531,#1145,#1146);
#903=AXIS2_PLACEMENT_3D('',#1543,#1147,#1148);
#904=AXIS2_PLACEMENT_3D('',#1544,#1149,#1150);
#905=AXIS2_PLACEMENT_3D('',#1545,#1151,#1152);
#906=AXIS2_PLACEMENT_3D('',#1557,#1153,#1154);
#907=AXIS2_PLACEMENT_3D('',#1558,#1155,#1156);
#908=AXIS2_PLACEMENT_3D('',#1559,#1157,#1158);
#909=DIRECTION('',(0.,0.,1.));
#910=DIRECTION('',(1.,0.,0.));
#911=DIRECTION('',(0.,0.,-1.));
#912=DIRECTION('',(-1.,0.,0.));
#913=DIRECTION('',(0.,0.,-1.));
#914=DIRECTION('',(-1.,0.,0.));
#915=DIRECTION('',(0.,0.,1.));
#916=DIRECTION('',(1.,0.,0.));
#917=DIRECTION('',(0.,0.,1.));
#918=DIRECTION('',(1.,0.,0.));
#919=DIRECTION('',(0.,1.,0.));
#920=DIRECTION('',(0.,0.,1.));
#921=DIRECTION('',(1.,0.,0.));
#922=DIRECTION('',(0.,1.,0.));
#923=DIRECTION('',(1.,0.,0.));
#924=DIRECTION('',(0.,0.,1.));
#925=DIRECTION('',(1.,0.,0.));
#926=DIRECTION('',(0.,0.,1.));
#927=DIRECTION('',(1.,0.,0.));
#928=DIRECTION('',(0.,0.,1.));
#929=DIRECTION('',(1.,0.,0.));
#930=DIRECTION('',(0.,0.,1.));
#931=DIRECTION('',(1.,0.,0.));
#932=DIRECTION('',(0.,0.,1.));
#933=DIRECTION('',(1.,0.,0.));
#934=DIRECTION('',(0.,0.,1.));
#935=DIRECTION('',(1.,0.,0.));
#936=DIRECTION('',(0.,0.,1.));
#937=DIRECTION('',(1.,0.,0.));
#938=DIRECTION('',(0.,0.,1.));
#939=DIRECTION('',(1.,0.,0.));
#940=DIRECTION('',(0.,0.,1.));
#941=DIRECTION('',(1.,0.,0.));
#942=DIRECTION('',(0.,0.,1.));
#943=DIRECTION('',(1.,0.,0.));
#944=DIRECTION('',(0.,0.,-1.));
#945=DIRECTION('',(0.,0.,-1.));
#946=DIRECTION('',(0.,0.,1.));
#947=DIRECTION('',(1.,0.,0.));
#948=DIRECTION('',(0.,1.,0.));
#949=DIRECTION('',(1.,0.,0.));
#950=DIRECTION('',(0.,1.,0.));
#951=DIRECTION('',(0.,0.,1.));
#952=DIRECTION('',(1.,0.,0.));
#953=DIRECTION('',(0.,0.,1.));
#954=DIRECTION('',(0.,0.,-1.));
#955=DIRECTION('',(-1.,0.,0.));
#956=DIRECTION('',(0.,0.,1.));
#957=DIRECTION('',(0.,0.,1.));
#958=DIRECTION('',(1.,0.,0.));
#959=DIRECTION('',(0.,0.,1.));
#960=DIRECTION('',(0.,0.,-1.));
#961=DIRECTION('',(-1.,0.,0.));
#962=DIRECTION('',(0.,0.,1.));
#963=DIRECTION('',(0.,0.,1.));
#964=DIRECTION('',(1.,0.,0.));
#965=DIRECTION('',(0.,0.,1.));
#966=DIRECTION('',(0.,0.,-1.));
#967=DIRECTION('',(-1.,0.,0.));
#968=DIRECTION('',(0.,0.,1.));
#969=DIRECTION('',(0.,0.,1.));
#970=DIRECTION('',(1.,0.,0.));
#971=DIRECTION('',(0.,0.,1.));
#972=DIRECTION('',(0.,0.,-1.));
#973=DIRECTION('',(-1.,0.,0.));
#974=DIRECTION('',(0.,0.,1.));
#975=DIRECTION('',(0.,0.,1.));
#976=DIRECTION('',(1.,0.,0.));
#977=DIRECTION('',(0.,0.,1.));
#978=DIRECTION('',(0.,0.,-1.));
#979=DIRECTION('',(-1.,0.,0.));
#980=DIRECTION('',(0.,0.,1.));
#981=DIRECTION('',(0.,0.,1.));
#982=DIRECTION('',(1.,0.,0.));
#983=DIRECTION('',(0.,0.,1.));
#984=DIRECTION('',(0.,0.,-1.));
#985=DIRECTION('',(-1.,0.,0.));
#986=DIRECTION('',(0.,0.,1.));
#987=DIRECTION('',(0.,0.,1.));
#988=DIRECTION('',(1.,0.,0.));
#989=DIRECTION('',(0.,0.,1.));
#990=DIRECTION('',(0.,0.,-1.));
#991=DIRECTION('',(-1.,0.,0.));
#992=DIRECTION('',(0.,0.,1.));
#993=DIRECTION('',(0.,0.,1.));
#994=DIRECTION('',(1.,0.,0.));
#995=DIRECTION('',(0.,0.,1.));
#996=DIRECTION('',(0.,0.,-1.));
#997=DIRECTION('',(-1.,0.,0.));
#998=DIRECTION('',(0.,0.,1.));
#999=DIRECTION('',(0.,0.,1.));
#1000=DIRECTION('',(1.,0.,0.));
#1001=DIRECTION('',(0.,0.,1.));
#1002=DIRECTION('',(0.,0.,-1.));
#1003=DIRECTION('',(-1.,0.,0.));
#1004=DIRECTION('',(0.,0.,1.));
#1005=DIRECTION('',(0.,0.,1.));
#1006=DIRECTION('',(1.,0.,0.));
#1007=DIRECTION('',(0.,0.,1.));
#1008=DIRECTION('',(0.,0.,-1.));
#1009=DIRECTION('',(-1.,0.,0.));
#1010=DIRECTION('',(0.,0.,1.));
#1011=DIRECTION('',(0.,0.,1.));
#1012=DIRECTION('',(1.,0.,0.));
#1013=DIRECTION('',(0.,0.,1.));
#1014=DIRECTION('',(0.,0.,-1.));
#1015=DIRECTION('',(-1.,0.,0.));
#1016=DIRECTION('',(0.,0.,1.));
#1017=DIRECTION('',(0.,0.,1.));
#1018=DIRECTION('',(1.,0.,0.));
#1019=DIRECTION('',(0.,0.,1.));
#1020=DIRECTION('',(0.,0.,-1.));
#1021=DIRECTION('',(-1.,0.,0.));
#1022=DIRECTION('',(0.,0.,1.));
#1023=DIRECTION('',(0.,0.,1.));
#1024=DIRECTION('',(1.,0.,0.));
#1025=DIRECTION('',(0.,0.,1.));
#1026=DIRECTION('',(0.,0.,-1.));
#1027=DIRECTION('',(-1.,0.,0.));
#1028=DIRECTION('',(0.,0.,1.));
#1029=DIRECTION('',(0.,0.,1.));
#1030=DIRECTION('',(1.,0.,0.));
#1031=DIRECTION('',(0.,0.,1.));
#1032=DIRECTION('',(0.,0.,-1.));
#1033=DIRECTION('',(-1.,0.,0.));
#1034=DIRECTION('',(0.,0.,1.));
#1035=DIRECTION('',(0.,0.,1.));
#1036=DIRECTION('',(1.,0.,0.));
#1037=DIRECTION('',(0.,0.,1.));
#1038=DIRECTION('',(0.,0.,-1.));
#1039=DIRECTION('',(-1.,0.,0.));
#1040=DIRECTION('',(0.,0.,1.));
#1041=DIRECTION('',(0.,0.,1.));
#1042=DIRECTION('',(1.,0.,0.));
#1043=DIRECTION('',(0.,0.,1.));
#1044=DIRECTION('',(0.,0.,-1.));
#1045=DIRECTION('',(-1.,0.,0.));
#1046=DIRECTION('',(0.,0.,1.));
#1047=DIRECTION('',(0.,0.,1.));
#1048=DIRECTION('',(1.,0.,0.));
#1049=DIRECTION('',(0.,0.,1.));
#1050=DIRECTION('',(1.,0.,0.));
#1051=DIRECTION('',(0.,0.,-1.));
#1052=DIRECTION('',(-1.,0.,0.));
#1053=DIRECTION('',(-1.,0.,0.));
#1054=DIRECTION('',(0.,0.,1.));
#1055=DIRECTION('',(0.,0.,-1.));
#1056=DIRECTION('',(0.,1.,0.));
#1057=DIRECTION('',(0.,0.,1.));
#1058=DIRECTION('',(0.,0.,-1.));
#1059=DIRECTION('',(-1.,0.,0.));
#1060=DIRECTION('',(0.,0.,1.));
#1061=DIRECTION('',(0.,0.,1.));
#1062=DIRECTION('',(1.,0.,0.));
#1063=DIRECTION('',(0.,0.,1.));
#1064=DIRECTION('',(1.,0.,0.));
#1065=DIRECTION('',(0.,0.,1.));
#1066=DIRECTION('',(1.,0.,0.));
#1067=DIRECTION('',(0.,0.,1.));
#1068=DIRECTION('',(1.,0.,0.));
#1069=DIRECTION('',(0.,0.,1.));
#1070=DIRECTION('',(1.,0.,0.));
#1071=DIRECTION('',(0.,0.,1.));
#1072=DIRECTION('',(1.,0.,0.));
#1073=DIRECTION('',(0.,0.,1.));
#1074=DIRECTION('',(1.,0.,0.));
#1075=DIRECTION('',(0.,0.,1.));
#1076=DIRECTION('',(1.,0.,0.));
#1077=DIRECTION('',(0.,0.,1.));
#1078=DIRECTION('',(1.,0.,0.));
#1079=DIRECTION('',(0.,0.,1.));
#1080=DIRECTION('',(1.,0.,0.));
#1081=DIRECTION('',(0.,0.,1.));
#1082=DIRECTION('',(1.,0.,0.));
#1083=DIRECTION('',(0.,0.,1.));
#1084=DIRECTION('',(1.,0.,0.));
#1085=DIRECTION('',(0.,0.,1.));
#1086=DIRECTION('',(1.,0.,0.));
#1087=DIRECTION('',(0.,0.,1.));
#1088=DIRECTION('',(1.,0.,0.));
#1089=DIRECTION('',(0.,0.,1.));
#1090=DIRECTION('',(1.,0.,0.));
#1091=DIRECTION('',(0.,0.,1.));
#1092=DIRECTION('',(1.,0.,0.));
#1093=DIRECTION('',(0.,0.,1.));
#1094=DIRECTION('',(1.,0.,0.));
#1095=DIRECTION('',(0.,0.,1.));
#1096=DIRECTION('',(1.,0.,0.));
#1097=DIRECTION('',(0.,0.,1.));
#1098=DIRECTION('',(1.,0.,0.));
#1099=DIRECTION('',(0.,0.,1.));
#1100=DIRECTION('',(1.,0.,0.));
#1101=DIRECTION('',(0.,0.,1.));
#1102=DIRECTION('',(1.,0.,0.));
#1103=DIRECTION('',(0.,0.,1.));
#1104=DIRECTION('',(1.,0.,0.));
#1105=DIRECTION('',(0.,0.,1.));
#1106=DIRECTION('',(1.,0.,0.));
#1107=DIRECTION('',(0.,0.,1.));
#1108=DIRECTION('',(1.,0.,0.));
#1109=DIRECTION('',(0.,0.,1.));
#1110=DIRECTION('',(1.,0.,0.));
#1111=DIRECTION('',(0.,0.,1.));
#1112=DIRECTION('',(1.,0.,0.));
#1113=DIRECTION('',(0.,0.,1.));
#1114=DIRECTION('',(1.,0.,0.));
#1115=DIRECTION('',(0.,0.,1.));
#1116=DIRECTION('',(1.,0.,0.));
#1117=DIRECTION('',(0.,0.,1.));
#1118=DIRECTION('',(1.,0.,0.));
#1119=DIRECTION('',(0.,0.,1.));
#1120=DIRECTION('',(1.,0.,0.));
#1121=DIRECTION('',(0.,0.,1.));
#1122=DIRECTION('',(1.,0.,0.));
#1123=DIRECTION('',(0.,0.,1.));
#1124=DIRECTION('',(1.,0.,0.));
#1125=DIRECTION('',(0.,0.,1.));
#1126=DIRECTION('',(1.,0.,0.));
#1127=DIRECTION('',(0.,0.,1.));
#1128=DIRECTION('',(1.,0.,0.));
#1129=DIRECTION('',(0.,0.,1.));
#1130=DIRECTION('',(1.,0.,0.));
#1131=DIRECTION('',(0.,0.,1.));
#1132=DIRECTION('',(1.,0.,0.));
#1133=DIRECTION('',(0.,0.,1.));
#1134=DIRECTION('',(1.,0.,0.));
#1135=DIRECTION('',(0.,0.,1.));
#1136=DIRECTION('',(1.,0.,0.));
#1137=DIRECTION('',(0.,0.,1.));
#1138=DIRECTION('',(1.,0.,0.));
#1139=DIRECTION('',(0.,0.,1.));
#1140=DIRECTION('',(1.,0.,0.));
#1141=DIRECTION('',(0.,0.,1.));
#1142=DIRECTION('',(1.,0.,0.));
#1143=DIRECTION('',(0.,0.,1.));
#1144=DIRECTION('',(1.,0.,0.));
#1145=DIRECTION('',(0.,0.,1.));
#1146=DIRECTION('',(1.,0.,0.));
#1147=DIRECTION('',(0.,0.,1.));
#1148=DIRECTION('',(1.,0.,0.));
#1149=DIRECTION('',(0.,0.,1.));
#1150=DIRECTION('',(1.,0.,0.));
#1151=DIRECTION('',(0.,0.,1.));
#1152=DIRECTION('',(1.,0.,0.));
#1153=DIRECTION('',(0.,0.,1.));
#1154=DIRECTION('',(1.,0.,0.));
#1155=DIRECTION('',(0.,0.,1.));
#1156=DIRECTION('',(1.,0.,0.));
#1157=DIRECTION('',(0.,0.,-1.));
#1158=DIRECTION('',(-1.,0.,0.));
#1159=CARTESIAN_POINT('',(0.,0.,0.));
#1160=CARTESIAN_POINT('',(-0.01125,0.,0.02));
#1161=CARTESIAN_POINT('',(0.,0.,0.02));
#1162=CARTESIAN_POINT('',(-0.0205,0.,0.02));
#1163=CARTESIAN_POINT('',(-0.005,0.,-1.3010426069826E-18));
#1164=CARTESIAN_POINT('',(0.,0.,-2.60208521396521E-18));
#1165=CARTESIAN_POINT('',(0.006,0.,-2.60208521396521E-18));
#1166=CARTESIAN_POINT('',(-0.001,0.00443649167310371,-1.3010426069826E-18));
#1167=CARTESIAN_POINT('',(-0.001,0.00387298334620741,0.));
#1168=CARTESIAN_POINT('',(-0.001,0.005,-1.3010426069826E-18));
#1169=CARTESIAN_POINT('',(0.,0.,0.));
#1170=CARTESIAN_POINT('',(0.001,0.00387298334620741,0.));
#1171=CARTESIAN_POINT('',(0.001,0.00443649167310371,-1.3010426069826E-18));
#1172=CARTESIAN_POINT('',(0.001,0.005,-1.3010426069826E-18));
#1173=CARTESIAN_POINT('',(4.33680868994202E-19,0.005,-1.3010426069826E-18));
#1174=CARTESIAN_POINT('',(-0.02275,0.,-7.80625564189563E-18));
#1175=CARTESIAN_POINT('',(0.,0.,-1.21430643318376E-17));
#1176=CARTESIAN_POINT('',(0.025,0.,-1.21430643318376E-17));
#1177=CARTESIAN_POINT('',(0.,0.,-3.46944695195361E-18));
#1178=CARTESIAN_POINT('',(0.0205,0.,-3.46944695195361E-18));
#1179=CARTESIAN_POINT('',(0.,0.,0.));
#1180=CARTESIAN_POINT('',(0.,0.,0.018));
#1181=CARTESIAN_POINT('',(0.0205,0.,0.018));
#1182=CARTESIAN_POINT('',(-0.01325,0.,0.018));
#1183=CARTESIAN_POINT('',(0.,0.,0.018));
#1184=CARTESIAN_POINT('',(0.006,0.,0.018));
#1185=CARTESIAN_POINT('',(0.,0.,0.));
#1186=CARTESIAN_POINT('',(0.,0.,0.));
#1187=CARTESIAN_POINT('',(0.,0.,0.018));
#1188=CARTESIAN_POINT('',(-0.001,0.00387298334620741,0.018));
#1189=CARTESIAN_POINT('',(0.001,0.00387298334620741,0.018));
#1190=CARTESIAN_POINT('',(0.001,0.00387298334620741,0.018));
#1191=CARTESIAN_POINT('',(-0.001,0.00387298334620741,0.018));
#1192=CARTESIAN_POINT('',(-0.002,0.,0.018));
#1193=CARTESIAN_POINT('',(-0.001,0.00443649167310371,0.018));
#1194=CARTESIAN_POINT('',(-0.001,0.005,0.018));
#1195=CARTESIAN_POINT('',(4.33680868994202E-19,0.005,0.018));
#1196=CARTESIAN_POINT('',(0.001,0.005,0.018));
#1197=CARTESIAN_POINT('',(0.001,0.00443649167310371,0.018));
#1198=CARTESIAN_POINT('',(0.,0.,0.));
#1199=CARTESIAN_POINT('',(-0.00169359563762827,-0.022436170212766,0.0016));
#1200=CARTESIAN_POINT('',(-0.00169359563762827,-0.022436170212766,0.0016));
#1201=CARTESIAN_POINT('',(-0.00169359563762827,-0.022436170212766,0.018));
#1202=CARTESIAN_POINT('',(0.,0.,0.018));
#1203=CARTESIAN_POINT('',(-0.00702127228019349,-0.02137642943916,0.018));
#1204=CARTESIAN_POINT('',(-0.00702127228019349,-0.02137642943916,0.0016));
#1205=CARTESIAN_POINT('',(-0.00702127228019349,-0.02137642943916,0.0016));
#1206=CARTESIAN_POINT('',(0.,0.,0.0016));
#1207=CARTESIAN_POINT('',(-0.0101506289721038,-0.0200802074558677,0.0016));
#1208=CARTESIAN_POINT('',(-0.0101506289721038,-0.0200802074558677,0.0016));
#1209=CARTESIAN_POINT('',(-0.0101506289721038,-0.0200802074558677,0.018));
#1210=CARTESIAN_POINT('',(0.,0.,0.018));
#1211=CARTESIAN_POINT('',(-0.0146672151413475,-0.0170623210612573,0.018));
#1212=CARTESIAN_POINT('',(-0.0146672151413475,-0.0170623210612573,0.0016));
#1213=CARTESIAN_POINT('',(-0.0146672151413475,-0.0170623210612573,0.0016));
#1214=CARTESIAN_POINT('',(0.,0.,0.0016));
#1215=CARTESIAN_POINT('',(-0.0170623210612573,-0.0146672151413475,0.0016));
#1216=CARTESIAN_POINT('',(-0.0170623210612573,-0.0146672151413475,0.0016));
#1217=CARTESIAN_POINT('',(-0.0170623210612573,-0.0146672151413475,0.018));
#1218=CARTESIAN_POINT('',(0.,0.,0.018));
#1219=CARTESIAN_POINT('',(-0.0200802074558677,-0.0101506289721038,0.018));
#1220=CARTESIAN_POINT('',(-0.0200802074558677,-0.0101506289721038,0.0016));
#1221=CARTESIAN_POINT('',(-0.0200802074558677,-0.0101506289721038,0.0016));
#1222=CARTESIAN_POINT('',(0.,0.,0.0016));
#1223=CARTESIAN_POINT('',(-0.02137642943916,-0.00702127228019353,0.0016));
#1224=CARTESIAN_POINT('',(-0.02137642943916,-0.00702127228019353,0.0016));
#1225=CARTESIAN_POINT('',(-0.02137642943916,-0.00702127228019353,0.018));
#1226=CARTESIAN_POINT('',(0.,0.,0.018));
#1227=CARTESIAN_POINT('',(-0.022436170212766,-0.0016935956376283,0.018));
#1228=CARTESIAN_POINT('',(-0.022436170212766,-0.0016935956376283,0.0016));
#1229=CARTESIAN_POINT('',(-0.022436170212766,-0.0016935956376283,0.0016));
#1230=CARTESIAN_POINT('',(0.,0.,0.0016));
#1231=CARTESIAN_POINT('',(-0.022436170212766,0.00169359563762829,0.0016));
#1232=CARTESIAN_POINT('',(-0.022436170212766,0.00169359563762829,0.0016));
#1233=CARTESIAN_POINT('',(-0.022436170212766,0.00169359563762829,0.018));
#1234=CARTESIAN_POINT('',(0.,0.,0.018));
#1235=CARTESIAN_POINT('',(-0.02137642943916,0.00702127228019349,0.018));
#1236=CARTESIAN_POINT('',(-0.02137642943916,0.00702127228019349,0.0016));
#1237=CARTESIAN_POINT('',(-0.02137642943916,0.00702127228019349,0.0016));
#1238=CARTESIAN_POINT('',(0.,0.,0.0016));
#1239=CARTESIAN_POINT('',(-0.0200802074558677,0.0101506289721038,0.0016));
#1240=CARTESIAN_POINT('',(-0.0200802074558677,0.0101506289721038,0.0016));
#1241=CARTESIAN_POINT('',(-0.0200802074558677,0.0101506289721038,0.018));
#1242=CARTESIAN_POINT('',(0.,0.,0.018));
#1243=CARTESIAN_POINT('',(-0.0170623210612573,0.0146672151413475,0.018));
#1244=CARTESIAN_POINT('',(-0.0170623210612573,0.0146672151413475,0.0016));
#1245=CARTESIAN_POINT('',(-0.0170623210612573,0.0146672151413475,0.0016));
#1246=CARTESIAN_POINT('',(0.,0.,0.0016));
#1247=CARTESIAN_POINT('',(-0.0146672151413475,0.0170623210612573,0.0016));
#1248=CARTESIAN_POINT('',(-0.0146672151413475,0.0170623210612573,0.0016));
#1249=CARTESIAN_POINT('',(-0.0146672151413475,0.0170623210612573,0.018));
#1250=CARTESIAN_POINT('',(0.,0.,0.018));
#1251=CARTESIAN_POINT('',(-0.0101506289721038,0.0200802074558677,0.018));
#1252=CARTESIAN_POINT('',(-0.0101506289721038,0.0200802074558677,0.0016));
#1253=CARTESIAN_POINT('',(-0.0101506289721038,0.0200802074558677,0.0016));
#1254=CARTESIAN_POINT('',(0.,0.,0.0016));
#1255=CARTESIAN_POINT('',(-0.00702127228019351,0.02137642943916,0.0016));
#1256=CARTESIAN_POINT('',(-0.00702127228019351,0.02137642943916,0.0016));
#1257=CARTESIAN_POINT('',(-0.00702127228019351,0.02137642943916,0.018));
#1258=CARTESIAN_POINT('',(0.,0.,0.018));
#1259=CARTESIAN_POINT('',(-0.00169359563762829,0.022436170212766,0.018));
#1260=CARTESIAN_POINT('',(-0.00169359563762829,0.022436170212766,0.0016));
#1261=CARTESIAN_POINT('',(-0.00169359563762829,0.022436170212766,0.0016));
#1262=CARTESIAN_POINT('',(0.,0.,0.0016));
#1263=CARTESIAN_POINT('',(0.00169359563762826,0.022436170212766,0.0016));
#1264=CARTESIAN_POINT('',(0.00169359563762826,0.022436170212766,0.0016));
#1265=CARTESIAN_POINT('',(0.00169359563762826,0.022436170212766,0.018));
#1266=CARTESIAN_POINT('',(0.,0.,0.018));
#1267=CARTESIAN_POINT('',(0.00702127228019349,0.02137642943916,0.018));
#1268=CARTESIAN_POINT('',(0.00702127228019349,0.02137642943916,0.0016));
#1269=CARTESIAN_POINT('',(0.00702127228019349,0.02137642943916,0.0016));
#1270=CARTESIAN_POINT('',(0.,0.,0.0016));
#1271=CARTESIAN_POINT('',(0.0101506289721038,0.0200802074558677,0.0016));
#1272=CARTESIAN_POINT('',(0.0101506289721038,0.0200802074558677,0.0016));
#1273=CARTESIAN_POINT('',(0.0101506289721038,0.0200802074558677,0.018));
#1274=CARTESIAN_POINT('',(0.,0.,0.018));
#1275=CARTESIAN_POINT('',(0.0146672151413475,0.0170623210612573,0.018));
#1276=CARTESIAN_POINT('',(0.0146672151413475,0.0170623210612573,0.0016));
#1277=CARTESIAN_POINT('',(0.0146672151413475,0.0170623210612573,0.0016));
#1278=CARTESIAN_POINT('',(0.,0.,0.0016));
#1279=CARTESIAN_POINT('',(0.0170623210612573,0.0146672151413475,0.0016));
#1280=CARTESIAN_POINT('',(0.0170623210612573,0.0146672151413475,0.0016));
#1281=CARTESIAN_POINT('',(0.0170623210612573,0.0146672151413475,0.018));
#1282=CARTESIAN_POINT('',(0.,0.,0.018));
#1283=CARTESIAN_POINT('',(0.0200802074558677,0.0101506289721038,0.018));
#1284=CARTESIAN_POINT('',(0.0200802074558677,0.0101506289721038,0.0016));
#1285=CARTESIAN_POINT('',(0.0200802074558677,0.0101506289721038,0.0016));
#1286=CARTESIAN_POINT('',(0.,0.,0.0016));
#1287=CARTESIAN_POINT('',(0.02137642943916,0.00702127228019351,0.0016));
#1288=CARTESIAN_POINT('',(0.02137642943916,0.00702127228019351,0.0016));
#1289=CARTESIAN_POINT('',(0.02137642943916,0.00702127228019351,0.018));
#1290=CARTESIAN_POINT('',(0.,0.,0.018));
#1291=CARTESIAN_POINT('',(0.022436170212766,0.00169359563762829,0.018));
#1292=CARTESIAN_POINT('',(0.022436170212766,0.00169359563762829,0.0016));
#1293=CARTESIAN_POINT('',(0.022436170212766,0.00169359563762829,0.0016));
#1294=CARTESIAN_POINT('',(0.,0.,0.0016));
#1295=CARTESIAN_POINT('',(0.022436170212766,-0.00169359563762826,0.0016));
#1296=CARTESIAN_POINT('',(0.022436170212766,-0.00169359563762826,0.0016));
#1297=CARTESIAN_POINT('',(0.022436170212766,-0.00169359563762826,0.018));
#1298=CARTESIAN_POINT('',(0.,0.,0.018));
#1299=CARTESIAN_POINT('',(0.02137642943916,-0.00702127228019349,0.018));
#1300=CARTESIAN_POINT('',(0.02137642943916,-0.00702127228019349,0.0016));
#1301=CARTESIAN_POINT('',(0.02137642943916,-0.00702127228019349,0.0016));
#1302=CARTESIAN_POINT('',(0.,0.,0.0016));
#1303=CARTESIAN_POINT('',(0.0200802074558677,-0.0101506289721038,0.0016));
#1304=CARTESIAN_POINT('',(0.0200802074558677,-0.0101506289721038,0.0016));
#1305=CARTESIAN_POINT('',(0.0200802074558677,-0.0101506289721038,0.018));
#1306=CARTESIAN_POINT('',(0.,0.,0.018));
#1307=CARTESIAN_POINT('',(0.0170623210612573,-0.0146672151413475,0.018));
#1308=CARTESIAN_POINT('',(0.0170623210612573,-0.0146672151413475,0.0016));
#1309=CARTESIAN_POINT('',(0.0170623210612573,-0.0146672151413475,0.0016));
#1310=CARTESIAN_POINT('',(0.,0.,0.0016));
#1311=CARTESIAN_POINT('',(0.0146672151413475,-0.0170623210612573,0.0016));
#1312=CARTESIAN_POINT('',(0.0146672151413475,-0.0170623210612573,0.0016));
#1313=CARTESIAN_POINT('',(0.0146672151413475,-0.0170623210612573,0.018));
#1314=CARTESIAN_POINT('',(0.,0.,0.018));
#1315=CARTESIAN_POINT('',(0.0101506289721038,-0.0200802074558677,0.018));
#1316=CARTESIAN_POINT('',(0.0101506289721038,-0.0200802074558677,0.0016));
#1317=CARTESIAN_POINT('',(0.0101506289721038,-0.0200802074558677,0.0016));
#1318=CARTESIAN_POINT('',(0.,0.,0.0016));
#1319=CARTESIAN_POINT('',(0.00702127228019353,-0.02137642943916,0.0016));
#1320=CARTESIAN_POINT('',(0.00702127228019353,-0.02137642943916,0.0016));
#1321=CARTESIAN_POINT('',(0.00702127228019353,-0.02137642943916,0.018));
#1322=CARTESIAN_POINT('',(0.,0.,0.018));
#1323=CARTESIAN_POINT('',(0.00169359563762829,-0.022436170212766,0.018));
#1324=CARTESIAN_POINT('',(0.00169359563762829,-0.022436170212766,0.0016));
#1325=CARTESIAN_POINT('',(0.00169359563762829,-0.022436170212766,0.0016));
#1326=CARTESIAN_POINT('',(0.,0.,0.0016));
#1327=CARTESIAN_POINT('',(0.,0.,0.00144337567297405));
#1328=CARTESIAN_POINT('',(0.0225,0.,0.00144337567297405));
#1329=CARTESIAN_POINT('',(0.,0.,-1.21430643318376E-17));
#1330=CARTESIAN_POINT('',(-0.001,0.00443649167310371,0.018));
#1331=CARTESIAN_POINT('',(-0.001,0.005,0.018));
#1332=CARTESIAN_POINT('',(4.33680868994202E-19,0.005,0.018));
#1333=CARTESIAN_POINT('',(0.001,0.005,0.018));
#1334=CARTESIAN_POINT('',(0.001,0.00443649167310371,0.018));
#1335=CARTESIAN_POINT('',(-0.0217111690140152,-0.00899306066057963,0.0016));
#1336=CARTESIAN_POINT('',(-0.0200802074558677,-0.0101506289721038,0.018));
#1337=CARTESIAN_POINT('',(-0.0200802074558677,-0.0101506289721038,0.0182513570072545));
#1338=CARTESIAN_POINT('',(-0.0200155842567616,-0.0100672272090866,0.0187481454437736));
#1339=CARTESIAN_POINT('',(-0.0197905362011214,-0.00965152112359258,0.019354976124828));
#1340=CARTESIAN_POINT('',(-0.0196651385802824,-0.00895777305786288,0.019678249316598));
#1341=CARTESIAN_POINT('',(-0.0198188610288172,-0.00821024998935369,0.0197587961837013));
#1342=CARTESIAN_POINT('',(-0.0202371720134381,-0.00757392561896948,0.0196788694784025));
#1343=CARTESIAN_POINT('',(-0.0208153044032418,-0.0071707839587297,0.0193577537876266));
#1344=CARTESIAN_POINT('',(-0.0212715046362054,-0.00703445322461857,0.0187507926807958));
#1345=CARTESIAN_POINT('',(-0.0213764294391606,-0.00702127228019211,0.018249678979877));
#1346=CARTESIAN_POINT('',(-0.0213764294391606,-0.00702127228019211,0.0179999999999999));
#1347=CARTESIAN_POINT('',(-0.0217111690140152,-0.00899306066057963,0.0016));
#1348=CARTESIAN_POINT('',(0.,0.,0.0016));
#1349=CARTESIAN_POINT('',(-0.0166170093578838,-0.0166170093578838,0.0016));
#1350=CARTESIAN_POINT('',(-0.0146672151413475,-0.0170623210612573,0.018));
#1351=CARTESIAN_POINT('',(-0.0146672151413475,-0.0170623210612573,0.0182513570072545));
#1352=CARTESIAN_POINT('',(-0.0146394275633047,-0.016960537651786,0.0187481454437736));
#1353=CARTESIAN_POINT('',(-0.0145905941025191,-0.0164903531454782,0.019354976124828));
#1354=CARTESIAN_POINT('',(-0.0147402276981905,-0.0158014259148782,0.019678249316598));
#1355=CARTESIAN_POINT('',(-0.0151683134157085,-0.0151696316860393,0.0197587961837013));
#1356=CARTESIAN_POINT('',(-0.0157982931667805,-0.014741825307594,0.0196788694784026));
#1357=CARTESIAN_POINT('',(-0.016486693483072,-0.0145906126662873,0.0193577537876266));
#1358=CARTESIAN_POINT('',(-0.0169603390543005,-0.0146392397623861,0.0187507926807958));
#1359=CARTESIAN_POINT('',(-0.0170623210612585,-0.0146672151413464,0.018249678979877));
#1360=CARTESIAN_POINT('',(-0.0170623210612585,-0.0146672151413464,0.0179999999999999));
#1361=CARTESIAN_POINT('',(-0.0166170093578838,-0.0166170093578838,0.0016));
#1362=CARTESIAN_POINT('',(0.,0.,0.0016));
#1363=CARTESIAN_POINT('',(-0.00899306066057961,-0.0217111690140152,0.0016));
#1364=CARTESIAN_POINT('',(-0.00702127228019349,-0.02137642943916,0.018));
#1365=CARTESIAN_POINT('',(-0.00702127228019349,-0.02137642943916,0.0182513570072545));
#1366=CARTESIAN_POINT('',(-0.00703455073007598,-0.0212717599846577,0.0187481454437736));
#1367=CARTESIAN_POINT('',(-0.00716936631587328,-0.0208186783863883,0.019354976124828));
#1368=CARTESIAN_POINT('',(-0.00757125076954591,-0.0202394549166359,0.019678249316598));
#1369=CARTESIAN_POINT('',(-0.00820852758616166,-0.0198195744715792,0.0197587961837013));
#1370=CARTESIAN_POINT('',(-0.00895426739736483,-0.0196654157281165,0.0196788694784025));
#1371=CARTESIAN_POINT('',(-0.00964813293235302,-0.019789152859636,0.0193577537876266));
#1372=CARTESIAN_POINT('',(-0.0100671155972346,-0.0200153347513693,0.0187507926807958));
#1373=CARTESIAN_POINT('',(-0.0101506289721053,-0.0200802074558672,0.018249678979877));
#1374=CARTESIAN_POINT('',(-0.0101506289721052,-0.0200802074558672,0.0179999999999999));
#1375=CARTESIAN_POINT('',(-0.00899306066057961,-0.0217111690140152,0.0016));
#1376=CARTESIAN_POINT('',(0.,0.,0.0016));
#1377=CARTESIAN_POINT('',(8.34835672813838E-18,-0.0235,0.0016));
#1378=CARTESIAN_POINT('',(0.00169359563762829,-0.022436170212766,0.018));
#1379=CARTESIAN_POINT('',(0.00169359563762829,-0.022436170212766,0.0182513570072545));
#1380=CARTESIAN_POINT('',(0.00164127268344565,-0.0223445496888497,0.0187481454437736));
#1381=CARTESIAN_POINT('',(0.00134333250189683,-0.0219775485647603,0.019354976124828));
#1382=CARTESIAN_POINT('',(0.000750380455202929,-0.0215962103784515,0.019678249316598));
#1383=CARTESIAN_POINT('',(9.32157890403134E-7,-0.0214521667087111,0.0197587961837013));
#1384=CARTESIAN_POINT('',(-0.000747035587336432,-0.0215951248714708,0.0196788694784025));
#1385=CARTESIAN_POINT('',(-0.00134073160322613,-0.0219749739192224,0.0193577537876266));
#1386=CARTESIAN_POINT('',(-0.00164126504911992,-0.0223442764639179,0.0187507926807958));
#1387=CARTESIAN_POINT('',(-0.00169359563762981,-0.022436170212766,0.018249678979877));
#1388=CARTESIAN_POINT('',(-0.0016935956376298,-0.022436170212766,0.0179999999999999));
#1389=CARTESIAN_POINT('',(8.34835672813838E-18,-0.0235,0.0016));
#1390=CARTESIAN_POINT('',(0.,0.,0.0016));
#1391=CARTESIAN_POINT('',(0.00899306066057962,-0.0217111690140152,0.0016));
#1392=CARTESIAN_POINT('',(0.0101506289721038,-0.0200802074558677,0.018));
#1393=CARTESIAN_POINT('',(0.0101506289721038,-0.0200802074558677,0.0182513570072545));
#1394=CARTESIAN_POINT('',(0.0100672272090866,-0.0200155842567616,0.0187481454437736));
#1395=CARTESIAN_POINT('',(0.00965152112359257,-0.0197905362011214,0.019354976124828));
#1396=CARTESIAN_POINT('',(0.00895777305786286,-0.0196651385802824,0.0196782493165979));
#1397=CARTESIAN_POINT('',(0.00821024998935368,-0.0198188610288172,0.0197587961837013));
#1398=CARTESIAN_POINT('',(0.00757392561896947,-0.0202371720134381,0.0196788694784025));
#1399=CARTESIAN_POINT('',(0.00717078395872969,-0.0208153044032418,0.0193577537876266));
#1400=CARTESIAN_POINT('',(0.00703445322461856,-0.0212715046362054,0.0187507926807958));
#1401=CARTESIAN_POINT('',(0.0070212722801921,-0.0213764294391606,0.018249678979877));
#1402=CARTESIAN_POINT('',(0.0070212722801921,-0.0213764294391606,0.0179999999999999));
#1403=CARTESIAN_POINT('',(0.00899306066057962,-0.0217111690140152,0.0016));
#1404=CARTESIAN_POINT('',(0.,0.,0.0016));
#1405=CARTESIAN_POINT('',(0.0166170093578839,-0.0166170093578838,0.0016));
#1406=CARTESIAN_POINT('',(0.0170623210612573,-0.0146672151413475,0.018));
#1407=CARTESIAN_POINT('',(0.0170623210612573,-0.0146672151413475,0.0182513570072545));
#1408=CARTESIAN_POINT('',(0.0169605376517861,-0.0146394275633047,0.0187481454437736));
#1409=CARTESIAN_POINT('',(0.0164903531454783,-0.0145905941025191,0.019354976124828));
#1410=CARTESIAN_POINT('',(0.0158014259148782,-0.0147402276981905,0.019678249316598));
#1411=CARTESIAN_POINT('',(0.0151696316860394,-0.0151683134157085,0.0197587961837013));
#1412=CARTESIAN_POINT('',(0.014741825307594,-0.0157982931667805,0.0196788694784025));
#1413=CARTESIAN_POINT('',(0.0145906126662874,-0.016486693483072,0.0193577537876266));
#1414=CARTESIAN_POINT('',(0.0146392397623861,-0.0169603390543004,0.0187507926807958));
#1415=CARTESIAN_POINT('',(0.0146672151413465,-0.0170623210612584,0.018249678979877));
#1416=CARTESIAN_POINT('',(0.0146672151413465,-0.0170623210612584,0.0179999999999999));
#1417=CARTESIAN_POINT('',(0.0166170093578839,-0.0166170093578838,0.0016));
#1418=CARTESIAN_POINT('',(0.,0.,0.0016));
#1419=CARTESIAN_POINT('',(0.0217111690140152,-0.00899306066057961,0.0016));
#1420=CARTESIAN_POINT('',(0.02137642943916,-0.00702127228019349,0.018));
#1421=CARTESIAN_POINT('',(0.02137642943916,-0.00702127228019349,0.0182513570072545));
#1422=CARTESIAN_POINT('',(0.0212717599846577,-0.00703455073007598,0.0187481454437736));
#1423=CARTESIAN_POINT('',(0.0208186783863883,-0.00716936631587328,0.019354976124828));
#1424=CARTESIAN_POINT('',(0.0202394549166359,-0.00757125076954591,0.019678249316598));
#1425=CARTESIAN_POINT('',(0.0198195744715792,-0.00820852758616167,0.0197587961837013));
#1426=CARTESIAN_POINT('',(0.0196654157281165,-0.00895426739736484,0.0196788694784025));
#1427=CARTESIAN_POINT('',(0.019789152859636,-0.00964813293235302,0.0193577537876266));
#1428=CARTESIAN_POINT('',(0.0200153347513693,-0.0100671155972346,0.0187507926807958));
#1429=CARTESIAN_POINT('',(0.0200802074558672,-0.0101506289721053,0.018249678979877));
#1430=CARTESIAN_POINT('',(0.0200802074558672,-0.0101506289721052,0.0179999999999999));
#1431=CARTESIAN_POINT('',(0.0217111690140152,-0.00899306066057961,0.0016));
#1432=CARTESIAN_POINT('',(0.,0.,0.0016));
#1433=CARTESIAN_POINT('',(0.0235,2.81892564846231E-18,0.0016));
#1434=CARTESIAN_POINT('',(0.022436170212766,0.00169359563762829,0.018));
#1435=CARTESIAN_POINT('',(0.022436170212766,0.00169359563762829,0.0182513570072545));
#1436=CARTESIAN_POINT('',(0.0223445496888497,0.00164127268344565,0.0187481454437736));
#1437=CARTESIAN_POINT('',(0.0219775485647603,0.00134333250189683,0.019354976124828));
#1438=CARTESIAN_POINT('',(0.0215962103784515,0.000750380455202923,0.019678249316598));
#1439=CARTESIAN_POINT('',(0.0214521667087111,9.32157890398776E-7,0.0197587961837013));
#1440=CARTESIAN_POINT('',(0.0215951248714708,-0.000747035587336436,0.0196788694784025));
#1441=CARTESIAN_POINT('',(0.0219749739192224,-0.00134073160322614,0.0193577537876266));
#1442=CARTESIAN_POINT('',(0.0223442764639179,-0.00164126504911992,0.0187507926807958));
#1443=CARTESIAN_POINT('',(0.022436170212766,-0.00169359563762982,0.018249678979877));
#1444=CARTESIAN_POINT('',(0.022436170212766,-0.00169359563762981,0.0179999999999999));
#1445=CARTESIAN_POINT('',(0.0235,2.81892564846231E-18,0.0016));
#1446=CARTESIAN_POINT('',(0.,0.,0.0016));
#1447=CARTESIAN_POINT('',(0.0217111690140152,0.00899306066057961,0.0016));
#1448=CARTESIAN_POINT('',(0.0200802074558677,0.0101506289721038,0.018));
#1449=CARTESIAN_POINT('',(0.0200802074558677,0.0101506289721038,0.0182513570072545));
#1450=CARTESIAN_POINT('',(0.0200155842567616,0.0100672272090866,0.0187481454437736));
#1451=CARTESIAN_POINT('',(0.0197905362011214,0.00965152112359257,0.019354976124828));
#1452=CARTESIAN_POINT('',(0.0196651385802824,0.00895777305786286,0.019678249316598));
#1453=CARTESIAN_POINT('',(0.0198188610288172,0.00821024998935367,0.0197587961837013));
#1454=CARTESIAN_POINT('',(0.0202371720134381,0.00757392561896946,0.0196788694784025));
#1455=CARTESIAN_POINT('',(0.0208153044032418,0.00717078395872968,0.0193577537876266));
#1456=CARTESIAN_POINT('',(0.0212715046362055,0.00703445322461855,0.0187507926807958));
#1457=CARTESIAN_POINT('',(0.0213764294391606,0.00702127228019209,0.018249678979877));
#1458=CARTESIAN_POINT('',(0.0213764294391606,0.00702127228019209,0.0179999999999999));
#1459=CARTESIAN_POINT('',(0.0217111690140152,0.00899306066057961,0.0016));
#1460=CARTESIAN_POINT('',(0.,0.,0.0016));
#1461=CARTESIAN_POINT('',(0.0166170093578838,0.0166170093578838,0.0016));
#1462=CARTESIAN_POINT('',(0.0146672151413475,0.0170623210612573,0.018));
#1463=CARTESIAN_POINT('',(0.0146672151413475,0.0170623210612573,0.0182513570072545));
#1464=CARTESIAN_POINT('',(0.0146394275633047,0.016960537651786,0.0187481454437736));
#1465=CARTESIAN_POINT('',(0.0145905941025191,0.0164903531454782,0.019354976124828));
#1466=CARTESIAN_POINT('',(0.0147402276981905,0.0158014259148782,0.019678249316598));
#1467=CARTESIAN_POINT('',(0.0151683134157085,0.0151696316860393,0.0197587961837013));
#1468=CARTESIAN_POINT('',(0.0157982931667805,0.014741825307594,0.0196788694784026));
#1469=CARTESIAN_POINT('',(0.016486693483072,0.0145906126662873,0.0193577537876266));
#1470=CARTESIAN_POINT('',(0.0169603390543005,0.0146392397623861,0.0187507926807958));
#1471=CARTESIAN_POINT('',(0.0170623210612585,0.0146672151413464,0.018249678979877));
#1472=CARTESIAN_POINT('',(0.0170623210612585,0.0146672151413464,0.0179999999999999));
#1473=CARTESIAN_POINT('',(0.0166170093578838,0.0166170093578838,0.0016));
#1474=CARTESIAN_POINT('',(0.,0.,0.0016));
#1475=CARTESIAN_POINT('',(0.0089930606605796,0.0217111690140152,0.0016));
#1476=CARTESIAN_POINT('',(0.00702127228019348,0.02137642943916,0.018));
#1477=CARTESIAN_POINT('',(0.00702127228019348,0.02137642943916,0.0182513570072545));
#1478=CARTESIAN_POINT('',(0.00703455073007597,0.0212717599846577,0.0187481454437736));
#1479=CARTESIAN_POINT('',(0.00716936631587327,0.0208186783863883,0.019354976124828));
#1480=CARTESIAN_POINT('',(0.0075712507695459,0.0202394549166359,0.019678249316598));
#1481=CARTESIAN_POINT('',(0.00820852758616166,0.0198195744715792,0.0197587961837013));
#1482=CARTESIAN_POINT('',(0.00895426739736483,0.0196654157281165,0.0196788694784025));
#1483=CARTESIAN_POINT('',(0.00964813293235301,0.019789152859636,0.0193577537876266));
#1484=CARTESIAN_POINT('',(0.0100671155972346,0.0200153347513693,0.0187507926807958));
#1485=CARTESIAN_POINT('',(0.0101506289721053,0.0200802074558672,0.018249678979877));
#1486=CARTESIAN_POINT('',(0.0101506289721052,0.0200802074558672,0.0179999999999999));
#1487=CARTESIAN_POINT('',(0.0089930606605796,0.0217111690140152,0.0016));
#1488=CARTESIAN_POINT('',(0.,0.,0.0016));
#1489=CARTESIAN_POINT('',(-3.25260651745651E-18,0.0235,0.0016));
#1490=CARTESIAN_POINT('',(-0.00169359563762829,0.022436170212766,0.018));
#1491=CARTESIAN_POINT('',(-0.00169359563762829,0.022436170212766,0.0182513570072545));
#1492=CARTESIAN_POINT('',(-0.00164127268344565,0.0223445496888497,0.0187481454437736));
#1493=CARTESIAN_POINT('',(-0.00134333250189683,0.0219775485647603,0.019354976124828));
#1494=CARTESIAN_POINT('',(-0.000750380455202924,0.0215962103784515,0.019678249316598));
#1495=CARTESIAN_POINT('',(-9.32157890399953E-7,0.0214521667087111,0.0197587961837013));
#1496=CARTESIAN_POINT('',(0.000747035587336439,0.0215951248714708,0.0196788694784025));
#1497=CARTESIAN_POINT('',(0.00134073160322614,0.0219749739192224,0.0193577537876266));
#1498=CARTESIAN_POINT('',(0.00164126504911992,0.0223442764639179,0.0187507926807958));
#1499=CARTESIAN_POINT('',(0.00169359563762982,0.022436170212766,0.018249678979877));
#1500=CARTESIAN_POINT('',(0.00169359563762981,0.022436170212766,0.0179999999999999));
#1501=CARTESIAN_POINT('',(-3.25260651745651E-18,0.0235,0.0016));
#1502=CARTESIAN_POINT('',(0.,0.,0.0016));
#1503=CARTESIAN_POINT('',(-0.00899306066057961,0.0217111690140152,0.0016));
#1504=CARTESIAN_POINT('',(-0.0101506289721038,0.0200802074558677,0.018));
#1505=CARTESIAN_POINT('',(-0.0101506289721038,0.0200802074558677,0.0182513570072545));
#1506=CARTESIAN_POINT('',(-0.0100672272090866,0.0200155842567616,0.0187481454437736));
#1507=CARTESIAN_POINT('',(-0.00965152112359257,0.0197905362011214,0.019354976124828));
#1508=CARTESIAN_POINT('',(-0.00895777305786286,0.0196651385802824,0.019678249316598));
#1509=CARTESIAN_POINT('',(-0.00821024998935367,0.0198188610288172,0.0197587961837013));
#1510=CARTESIAN_POINT('',(-0.00757392561896946,0.0202371720134381,0.0196788694784025));
#1511=CARTESIAN_POINT('',(-0.00717078395872968,0.0208153044032418,0.0193577537876266));
#1512=CARTESIAN_POINT('',(-0.00703445322461855,0.0212715046362054,0.0187507926807958));
#1513=CARTESIAN_POINT('',(-0.00702127228019209,0.0213764294391606,0.018249678979877));
#1514=CARTESIAN_POINT('',(-0.00702127228019209,0.0213764294391606,0.0179999999999999));
#1515=CARTESIAN_POINT('',(-0.00899306066057961,0.0217111690140152,0.0016));
#1516=CARTESIAN_POINT('',(0.,0.,0.0016));
#1517=CARTESIAN_POINT('',(-0.0166170093578838,0.0166170093578838,0.0016));
#1518=CARTESIAN_POINT('',(-0.0170623210612573,0.0146672151413475,0.018));
#1519=CARTESIAN_POINT('',(-0.0170623210612573,0.0146672151413475,0.0182513570072545));
#1520=CARTESIAN_POINT('',(-0.016960537651786,0.0146394275633047,0.0187481454437736));
#1521=CARTESIAN_POINT('',(-0.0164903531454782,0.0145905941025191,0.019354976124828));
#1522=CARTESIAN_POINT('',(-0.0158014259148782,0.0147402276981905,0.019678249316598));
#1523=CARTESIAN_POINT('',(-0.0151696316860393,0.0151683134157085,0.0197587961837013));
#1524=CARTESIAN_POINT('',(-0.014741825307594,0.0157982931667805,0.0196788694784026));
#1525=CARTESIAN_POINT('',(-0.0145906126662873,0.016486693483072,0.0193577537876266));
#1526=CARTESIAN_POINT('',(-0.0146392397623861,0.0169603390543005,0.0187507926807958));
#1527=CARTESIAN_POINT('',(-0.0146672151413464,0.0170623210612585,0.018249678979877));
#1528=CARTESIAN_POINT('',(-0.0146672151413464,0.0170623210612585,0.0179999999999999));
#1529=CARTESIAN_POINT('',(-0.0166170093578838,0.0166170093578838,0.0016));
#1530=CARTESIAN_POINT('',(0.,0.,0.0016));
#1531=CARTESIAN_POINT('',(-0.0217111690140152,0.00899306066057961,0.0016));
#1532=CARTESIAN_POINT('',(-0.02137642943916,0.00702127228019348,0.018));
#1533=CARTESIAN_POINT('',(-0.02137642943916,0.00702127228019348,0.0182513570072545));
#1534=CARTESIAN_POINT('',(-0.0212717599846577,0.00703455073007599,0.0187481454437736));
#1535=CARTESIAN_POINT('',(-0.0208186783863883,0.00716936631587328,0.019354976124828));
#1536=CARTESIAN_POINT('',(-0.0202394549166359,0.00757125076954591,0.0196782493165979));
#1537=CARTESIAN_POINT('',(-0.0198195744715792,0.00820852758616166,0.0197587961837013));
#1538=CARTESIAN_POINT('',(-0.0196654157281165,0.00895426739736483,0.0196788694784025));
#1539=CARTESIAN_POINT('',(-0.019789152859636,0.00964813293235302,0.0193577537876266));
#1540=CARTESIAN_POINT('',(-0.0200153347513693,0.0100671155972346,0.0187507926807958));
#1541=CARTESIAN_POINT('',(-0.0200802074558672,0.0101506289721053,0.018249678979877));
#1542=CARTESIAN_POINT('',(-0.0200802074558672,0.0101506289721052,0.0179999999999999));
#1543=CARTESIAN_POINT('',(-0.0217111690140152,0.00899306066057961,0.0016));
#1544=CARTESIAN_POINT('',(0.,0.,0.0016));
#1545=CARTESIAN_POINT('',(-0.0235,-3.68628738645072E-18,0.0016));
#1546=CARTESIAN_POINT('',(-0.022436170212766,-0.00169359563762829,0.018));
#1547=CARTESIAN_POINT('',(-0.022436170212766,-0.00169359563762829,0.0182513570072545));
#1548=CARTESIAN_POINT('',(-0.0223445496888497,-0.00164127268344565,0.0187481454437736));
#1549=CARTESIAN_POINT('',(-0.0219775485647603,-0.00134333250189683,0.019354976124828));
#1550=CARTESIAN_POINT('',(-0.0215962103784515,-0.000750380455202927,0.019678249316598));
#1551=CARTESIAN_POINT('',(-0.0214521667087111,-9.32157890401957E-7,0.0197587961837013));
#1552=CARTESIAN_POINT('',(-0.0215951248714708,0.000747035587336435,0.0196788694784025));
#1553=CARTESIAN_POINT('',(-0.0219749739192224,0.00134073160322613,0.0193577537876266));
#1554=CARTESIAN_POINT('',(-0.0223442764639179,0.00164126504911992,0.0187507926807958));
#1555=CARTESIAN_POINT('',(-0.022436170212766,0.00169359563762982,0.018249678979877));
#1556=CARTESIAN_POINT('',(-0.022436170212766,0.00169359563762981,0.0179999999999999));
#1557=CARTESIAN_POINT('',(-0.0235,-3.68628738645072E-18,0.0016));
#1558=CARTESIAN_POINT('',(0.,0.,0.0016));
#1559=CARTESIAN_POINT('',(0.,0.,0.018));
#1560=MECHANICAL_DESIGN_GEOMETRIC_PRESENTATION_REPRESENTATION('',(#794),
#1561);
#1561=(
GEOMETRIC_REPRESENTATION_CONTEXT(3)
GLOBAL_UNCERTAINTY_ASSIGNED_CONTEXT((#1562))
GLOBAL_UNIT_ASSIGNED_CONTEXT((#1565,#1564,#1563))
REPRESENTATION_CONTEXT('Part 1','TOP_LEVEL_ASSEMBLY_PART')
);
#1562=UNCERTAINTY_MEASURE_WITH_UNIT(LENGTH_MEASURE(2.E-5),#1565,
'DISTANCE_ACCURACY_VALUE','Maximum Tolerance applied to model');
#1563=(
NAMED_UNIT(*)
SI_UNIT($,.STERADIAN.)
SOLID_ANGLE_UNIT()
);
#1564=(
NAMED_UNIT(*)
PLANE_ANGLE_UNIT()
SI_UNIT($,.RADIAN.)
);
#1565=(
LENGTH_UNIT()
NAMED_UNIT(*)
SI_UNIT($,.METRE.)
);
#1566=PRODUCT_DEFINITION_SHAPE('','',#1567);
#1567=PRODUCT_DEFINITION('','',#1569,#1568);
#1568=PRODUCT_DEFINITION_CONTEXT('',#1575,'design');
#1569=PRODUCT_DEFINITION_FORMATION_WITH_SPECIFIED_SOURCE('','',#1571,
 .NOT_KNOWN.);
#1570=PRODUCT_RELATED_PRODUCT_CATEGORY('','',(#1571));
#1571=PRODUCT('Part 1','Part 1','Part 1',(#1573));
#1572=PRODUCT_CATEGORY('','');
#1573=PRODUCT_CONTEXT('',#1575,'mechanical');
#1574=APPLICATION_PROTOCOL_DEFINITION('international standard',
'ap242_managed_model_based_3d_engineering',2020,#1575);
#1575=APPLICATION_CONTEXT('managed model based 3d engineering');
ENDSEC;
END-ISO-10303-21;
