ISO-10303-21;
HEADER;
/* Generated by software containing ST-Developer
 * from STEP Tools, Inc. (www.steptools.com) 
 */
/* OPTION: using custom renumber hook */

FILE_DESCRIPTION(
/* description */ ('STEP AP242 Edition 2',
'CAx-IF Rec.Pracs.---Representation and Presentation of Product Manufa
cturing Information (PMI)---4.0---2014-10-13',
'CAx-IF Rec.Pracs.---3D Tessellated Geometry---0.4---2014-09-14','2;1',
'CAx-IF Rec.Pracs.---User Defined Attributes---1.5---2016-08-15'),
/* implementation_level */ '2;1');

FILE_NAME(
/* name */ 'Part Studio 1',
/* time_stamp */ '2026-07-23T12:42:22Z',
/* author */ (''),
/* organization */ (''),
/* preprocessor_version */ 'ST-DEVELOPER v20',
/* originating_system */ 'ONSHAPE BY PTC INC, 1.218',
/* authorisation */ '  ');

FILE_SCHEMA (('AP242_MANAGED_MODEL_BASED_3D_ENGINEERING_MIM_LF { 1 0 10303 442 3 1 4 }'));
ENDSEC;

DATA;
#10=SHAPE_REPRESENTATION_RELATIONSHIP('','',#319,#11);
#11=ADVANCED_BREP_SHAPE_REPRESENTATION('',(#317),#551);
#12=CONICAL_SURFACE('',#357,0.006,0.785398163397448);
#13=CONICAL_SURFACE('',#358,0.006,0.785398163397448);
#14=CONICAL_SURFACE('',#359,0.006,0.785398163397448);
#15=B_SPLINE_CURVE_WITH_KNOTS('',3,(#512,#513,#514,#515,#516,#517,#518),
 .UNSPECIFIED.,.F.,.F.,(4,1,1,1,4),(0.00393484100218674,0.00471731108812156,
0.00549978117405638,0.0062822512599912,0.00706472134592603),
 .UNSPECIFIED.);
#16=B_SPLINE_CURVE_WITH_KNOTS('',3,(#522,#523,#524,#525,#526,#527,#528),
 .UNSPECIFIED.,.F.,.F.,(4,1,1,1,4),(0.00393484100218674,0.00471731108812156,
0.00549978117405638,0.0062822512599912,0.00706472134592603),
 .UNSPECIFIED.);
#17=TOROIDAL_SURFACE('',#345,0.01225,0.001);
#18=TOROIDAL_SURFACE('',#350,0.01225,0.001);
#19=PLANE('',#325);
#20=PLANE('',#330);
#21=PLANE('',#335);
#22=PLANE('',#342);
#23=PLANE('',#353);
#24=PLANE('',#354);
#25=PLANE('',#355);
#26=PLANE('',#356);
#27=LINE('',#461,#41);
#28=LINE('',#465,#42);
#29=LINE('',#467,#43);
#30=LINE('',#471,#44);
#31=LINE('',#476,#45);
#32=LINE('',#480,#46);
#33=LINE('',#490,#47);
#34=LINE('',#498,#48);
#35=LINE('',#509,#49);
#36=LINE('',#510,#50);
#37=LINE('',#533,#51);
#38=LINE('',#534,#52);
#39=LINE('',#543,#53);
#40=LINE('',#545,#54);
#41=VECTOR('',#368,1.);
#42=VECTOR('',#371,1.);
#43=VECTOR('',#374,1.);
#44=VECTOR('',#377,1.);
#45=VECTOR('',#382,1.);
#46=VECTOR('',#385,1.);
#47=VECTOR('',#396,1.);
#48=VECTOR('',#405,1.);
#49=VECTOR('',#418,1.);
#50=VECTOR('',#419,1.);
#51=VECTOR('',#428,1.);
#52=VECTOR('',#429,1.);
#53=VECTOR('',#442,1.);
#54=VECTOR('',#445,1.);
#55=ORIENTED_EDGE('',*,*,#127,.F.);
#56=ORIENTED_EDGE('',*,*,#128,.T.);
#57=ORIENTED_EDGE('',*,*,#129,.T.);
#58=ORIENTED_EDGE('',*,*,#130,.T.);
#59=ORIENTED_EDGE('',*,*,#131,.F.);
#60=ORIENTED_EDGE('',*,*,#132,.F.);
#61=ORIENTED_EDGE('',*,*,#133,.T.);
#62=ORIENTED_EDGE('',*,*,#134,.T.);
#63=ORIENTED_EDGE('',*,*,#130,.F.);
#64=ORIENTED_EDGE('',*,*,#135,.T.);
#65=ORIENTED_EDGE('',*,*,#136,.T.);
#66=ORIENTED_EDGE('',*,*,#137,.F.);
#67=ORIENTED_EDGE('',*,*,#138,.F.);
#68=ORIENTED_EDGE('',*,*,#139,.T.);
#69=ORIENTED_EDGE('',*,*,#140,.T.);
#70=ORIENTED_EDGE('',*,*,#141,.T.);
#71=ORIENTED_EDGE('',*,*,#142,.F.);
#72=ORIENTED_EDGE('',*,*,#143,.F.);
#73=ORIENTED_EDGE('',*,*,#137,.T.);
#74=ORIENTED_EDGE('',*,*,#144,.T.);
#75=ORIENTED_EDGE('',*,*,#145,.T.);
#76=ORIENTED_EDGE('',*,*,#146,.T.);
#77=ORIENTED_EDGE('',*,*,#147,.F.);
#78=ORIENTED_EDGE('',*,*,#135,.F.);
#79=ORIENTED_EDGE('',*,*,#148,.T.);
#80=ORIENTED_EDGE('',*,*,#149,.T.);
#81=ORIENTED_EDGE('',*,*,#148,.F.);
#82=ORIENTED_EDGE('',*,*,#127,.T.);
#83=ORIENTED_EDGE('',*,*,#149,.F.);
#84=ORIENTED_EDGE('',*,*,#150,.T.);
#85=ORIENTED_EDGE('',*,*,#151,.T.);
#86=ORIENTED_EDGE('',*,*,#133,.F.);
#87=ORIENTED_EDGE('',*,*,#152,.F.);
#88=ORIENTED_EDGE('',*,*,#153,.F.);
#89=ORIENTED_EDGE('',*,*,#154,.T.);
#90=ORIENTED_EDGE('',*,*,#155,.T.);
#91=ORIENTED_EDGE('',*,*,#150,.F.);
#92=ORIENTED_EDGE('',*,*,#156,.F.);
#93=ORIENTED_EDGE('',*,*,#157,.T.);
#94=ORIENTED_EDGE('',*,*,#154,.F.);
#95=ORIENTED_EDGE('',*,*,#158,.F.);
#96=ORIENTED_EDGE('',*,*,#159,.T.);
#97=ORIENTED_EDGE('',*,*,#160,.T.);
#98=ORIENTED_EDGE('',*,*,#159,.F.);
#99=ORIENTED_EDGE('',*,*,#160,.F.);
#100=ORIENTED_EDGE('',*,*,#142,.T.);
#101=ORIENTED_EDGE('',*,*,#147,.T.);
#102=ORIENTED_EDGE('',*,*,#138,.T.);
#103=ORIENTED_EDGE('',*,*,#143,.T.);
#104=ORIENTED_EDGE('',*,*,#136,.F.);
#105=ORIENTED_EDGE('',*,*,#153,.T.);
#106=ORIENTED_EDGE('',*,*,#152,.T.);
#107=ORIENTED_EDGE('',*,*,#132,.T.);
#108=ORIENTED_EDGE('',*,*,#129,.F.);
#109=ORIENTED_EDGE('',*,*,#161,.F.);
#110=ORIENTED_EDGE('',*,*,#158,.T.);
#111=ORIENTED_EDGE('',*,*,#157,.F.);
#112=ORIENTED_EDGE('',*,*,#162,.T.);
#113=ORIENTED_EDGE('',*,*,#131,.T.);
#114=ORIENTED_EDGE('',*,*,#134,.F.);
#115=ORIENTED_EDGE('',*,*,#151,.F.);
#116=ORIENTED_EDGE('',*,*,#155,.F.);
#117=ORIENTED_EDGE('',*,*,#156,.T.);
#118=ORIENTED_EDGE('',*,*,#161,.T.);
#119=ORIENTED_EDGE('',*,*,#128,.F.);
#120=ORIENTED_EDGE('',*,*,#162,.F.);
#121=ORIENTED_EDGE('',*,*,#146,.F.);
#122=ORIENTED_EDGE('',*,*,#141,.F.);
#123=ORIENTED_EDGE('',*,*,#145,.F.);
#124=ORIENTED_EDGE('',*,*,#140,.F.);
#125=ORIENTED_EDGE('',*,*,#144,.F.);
#126=ORIENTED_EDGE('',*,*,#139,.F.);
#127=EDGE_CURVE('',#163,#163,#191,.T.);
#128=EDGE_CURVE('',#164,#165,#192,.T.);
#129=EDGE_CURVE('',#165,#166,#27,.T.);
#130=EDGE_CURVE('',#166,#167,#193,.T.);
#131=EDGE_CURVE('',#164,#167,#28,.T.);
#132=EDGE_CURVE('',#168,#166,#29,.T.);
#133=EDGE_CURVE('',#168,#169,#194,.T.);
#134=EDGE_CURVE('',#169,#167,#30,.T.);
#135=EDGE_CURVE('',#170,#171,#195,.T.);
#136=EDGE_CURVE('',#171,#172,#31,.T.);
#137=EDGE_CURVE('',#173,#172,#196,.T.);
#138=EDGE_CURVE('',#170,#173,#32,.T.);
#139=EDGE_CURVE('',#174,#174,#197,.T.);
#140=EDGE_CURVE('',#175,#175,#198,.T.);
#141=EDGE_CURVE('',#176,#176,#199,.T.);
#142=EDGE_CURVE('',#177,#177,#200,.T.);
#143=EDGE_CURVE('',#173,#172,#33,.T.);
#144=EDGE_CURVE('',#178,#178,#201,.F.);
#145=EDGE_CURVE('',#179,#179,#202,.F.);
#146=EDGE_CURVE('',#180,#180,#203,.F.);
#147=EDGE_CURVE('',#171,#170,#34,.T.);
#148=EDGE_CURVE('',#181,#181,#204,.T.);
#149=EDGE_CURVE('',#182,#182,#205,.T.);
#150=EDGE_CURVE('',#183,#184,#206,.T.);
#151=EDGE_CURVE('',#184,#169,#35,.T.);
#152=EDGE_CURVE('',#183,#168,#36,.T.);
#153=EDGE_CURVE('',#185,#183,#15,.T.);
#154=EDGE_CURVE('',#185,#186,#207,.T.);
#155=EDGE_CURVE('',#186,#184,#16,.T.);
#156=EDGE_CURVE('',#187,#188,#208,.T.);
#157=EDGE_CURVE('',#187,#186,#37,.T.);
#158=EDGE_CURVE('',#188,#185,#38,.T.);
#159=EDGE_CURVE('',#189,#189,#209,.T.);
#160=EDGE_CURVE('',#190,#190,#210,.T.);
#161=EDGE_CURVE('',#188,#165,#39,.T.);
#162=EDGE_CURVE('',#187,#164,#40,.T.);
#163=VERTEX_POINT('',#457);
#164=VERTEX_POINT('',#459);
#165=VERTEX_POINT('',#460);
#166=VERTEX_POINT('',#462);
#167=VERTEX_POINT('',#464);
#168=VERTEX_POINT('',#468);
#169=VERTEX_POINT('',#470);
#170=VERTEX_POINT('',#474);
#171=VERTEX_POINT('',#475);
#172=VERTEX_POINT('',#477);
#173=VERTEX_POINT('',#479);
#174=VERTEX_POINT('',#483);
#175=VERTEX_POINT('',#485);
#176=VERTEX_POINT('',#487);
#177=VERTEX_POINT('',#489);
#178=VERTEX_POINT('',#493);
#179=VERTEX_POINT('',#495);
#180=VERTEX_POINT('',#497);
#181=VERTEX_POINT('',#500);
#182=VERTEX_POINT('',#503);
#183=VERTEX_POINT('',#507);
#184=VERTEX_POINT('',#508);
#185=VERTEX_POINT('',#519);
#186=VERTEX_POINT('',#521);
#187=VERTEX_POINT('',#531);
#188=VERTEX_POINT('',#532);
#189=VERTEX_POINT('',#536);
#190=VERTEX_POINT('',#539);
#191=CIRCLE('',#322,0.022);
#192=CIRCLE('',#323,0.022);
#193=CIRCLE('',#324,0.022);
#194=CIRCLE('',#326,0.01225);
#195=CIRCLE('',#328,0.0345);
#196=CIRCLE('',#329,0.0345);
#197=CIRCLE('',#331,0.006);
#198=CIRCLE('',#332,0.006);
#199=CIRCLE('',#333,0.006);
#200=CIRCLE('',#334,0.01225);
#201=CIRCLE('',#336,0.002);
#202=CIRCLE('',#337,0.002);
#203=CIRCLE('',#338,0.002);
#204=CIRCLE('',#339,0.0215);
#205=CIRCLE('',#341,0.0215);
#206=CIRCLE('',#344,0.01225);
#207=CIRCLE('',#346,0.01225);
#208=CIRCLE('',#348,0.01225);
#209=CIRCLE('',#349,0.01225);
#210=CIRCLE('',#351,0.01225);
#211=EDGE_LOOP('',(#55));
#212=EDGE_LOOP('',(#56,#57,#58,#59));
#213=EDGE_LOOP('',(#60,#61,#62,#63));
#214=EDGE_LOOP('',(#64,#65,#66,#67));
#215=EDGE_LOOP('',(#68));
#216=EDGE_LOOP('',(#69));
#217=EDGE_LOOP('',(#70));
#218=EDGE_LOOP('',(#71));
#219=EDGE_LOOP('',(#72,#73));
#220=EDGE_LOOP('',(#74));
#221=EDGE_LOOP('',(#75));
#222=EDGE_LOOP('',(#76));
#223=EDGE_LOOP('',(#77,#78));
#224=EDGE_LOOP('',(#79));
#225=EDGE_LOOP('',(#80));
#226=EDGE_LOOP('',(#81));
#227=EDGE_LOOP('',(#82));
#228=EDGE_LOOP('',(#83));
#229=EDGE_LOOP('',(#84,#85,#86,#87));
#230=EDGE_LOOP('',(#88,#89,#90,#91));
#231=EDGE_LOOP('',(#92,#93,#94,#95));
#232=EDGE_LOOP('',(#96));
#233=EDGE_LOOP('',(#97));
#234=EDGE_LOOP('',(#98));
#235=EDGE_LOOP('',(#99));
#236=EDGE_LOOP('',(#100));
#237=EDGE_LOOP('',(#101,#102,#103,#104));
#238=EDGE_LOOP('',(#105,#106,#107,#108,#109,#110));
#239=EDGE_LOOP('',(#111,#112,#113,#114,#115,#116));
#240=EDGE_LOOP('',(#117,#118,#119,#120));
#241=EDGE_LOOP('',(#121));
#242=EDGE_LOOP('',(#122));
#243=EDGE_LOOP('',(#123));
#244=EDGE_LOOP('',(#124));
#245=EDGE_LOOP('',(#125));
#246=EDGE_LOOP('',(#126));
#247=FACE_BOUND('',#211,.T.);
#248=FACE_BOUND('',#212,.T.);
#249=FACE_BOUND('',#213,.T.);
#250=FACE_BOUND('',#214,.T.);
#251=FACE_BOUND('',#215,.T.);
#252=FACE_BOUND('',#216,.T.);
#253=FACE_BOUND('',#217,.T.);
#254=FACE_BOUND('',#218,.T.);
#255=FACE_BOUND('',#219,.T.);
#256=FACE_BOUND('',#220,.T.);
#257=FACE_BOUND('',#221,.T.);
#258=FACE_BOUND('',#222,.T.);
#259=FACE_BOUND('',#223,.T.);
#260=FACE_BOUND('',#224,.T.);
#261=FACE_BOUND('',#225,.T.);
#262=FACE_BOUND('',#226,.T.);
#263=FACE_BOUND('',#227,.T.);
#264=FACE_BOUND('',#228,.T.);
#265=FACE_BOUND('',#229,.T.);
#266=FACE_BOUND('',#230,.T.);
#267=FACE_BOUND('',#231,.T.);
#268=FACE_BOUND('',#232,.T.);
#269=FACE_BOUND('',#233,.T.);
#270=FACE_BOUND('',#234,.T.);
#271=FACE_BOUND('',#235,.T.);
#272=FACE_BOUND('',#236,.T.);
#273=FACE_BOUND('',#237,.T.);
#274=FACE_BOUND('',#238,.T.);
#275=FACE_BOUND('',#239,.T.);
#276=FACE_BOUND('',#240,.T.);
#277=FACE_BOUND('',#241,.T.);
#278=FACE_BOUND('',#242,.T.);
#279=FACE_BOUND('',#243,.T.);
#280=FACE_BOUND('',#244,.T.);
#281=FACE_BOUND('',#245,.T.);
#282=FACE_BOUND('',#246,.T.);
#283=CYLINDRICAL_SURFACE('',#321,0.022);
#284=CYLINDRICAL_SURFACE('',#327,0.0345);
#285=CYLINDRICAL_SURFACE('',#340,0.0215);
#286=CYLINDRICAL_SURFACE('',#343,0.01225);
#287=CYLINDRICAL_SURFACE('',#347,0.01225);
#288=CYLINDRICAL_SURFACE('',#352,0.01225);
#289=ADVANCED_FACE('',(#247,#248),#283,.T.);
#290=ADVANCED_FACE('',(#249),#19,.T.);
#291=ADVANCED_FACE('',(#250),#284,.T.);
#292=ADVANCED_FACE('',(#251,#252,#253,#254,#255),#20,.F.);
#293=ADVANCED_FACE('',(#256,#257,#258,#259,#260),#21,.T.);
#294=ADVANCED_FACE('',(#261,#262),#285,.T.);
#295=ADVANCED_FACE('',(#263,#264),#22,.T.);
#296=ADVANCED_FACE('',(#265),#286,.F.);
#297=ADVANCED_FACE('',(#266),#17,.F.);
#298=ADVANCED_FACE('',(#267,#268),#287,.F.);
#299=ADVANCED_FACE('',(#269,#270),#18,.F.);
#300=ADVANCED_FACE('',(#271,#272),#288,.F.);
#301=ADVANCED_FACE('',(#273),#23,.F.);
#302=ADVANCED_FACE('',(#274),#24,.F.);
#303=ADVANCED_FACE('',(#275),#25,.T.);
#304=ADVANCED_FACE('',(#276),#26,.T.);
#305=ADVANCED_FACE('',(#277,#278),#12,.F.);
#306=ADVANCED_FACE('',(#279,#280),#13,.F.);
#307=ADVANCED_FACE('',(#281,#282),#14,.F.);
#308=CLOSED_SHELL('',(#289,#290,#291,#292,#293,#294,#295,#296,#297,#298,
#299,#300,#301,#302,#303,#304,#305,#306,#307));
#309=STYLED_ITEM('',(#310),#317);
#310=PRESENTATION_STYLE_ASSIGNMENT((#311));
#311=SURFACE_STYLE_USAGE(.BOTH.,#312);
#312=SURFACE_SIDE_STYLE('',(#313));
#313=SURFACE_STYLE_FILL_AREA(#314);
#314=FILL_AREA_STYLE('',(#315));
#315=FILL_AREA_STYLE_COLOUR('',#316);
#316=COLOUR_RGB('',0.615686274509804,0.811764705882353,0.929411764705882);
#317=MANIFOLD_SOLID_BREP('Part 1',#308);
#318=SHAPE_DEFINITION_REPRESENTATION(#556,#319);
#319=SHAPE_REPRESENTATION('Part 1',(#320),#551);
#320=AXIS2_PLACEMENT_3D('',#454,#360,#361);
#321=AXIS2_PLACEMENT_3D('',#455,#362,#363);
#322=AXIS2_PLACEMENT_3D('',#456,#364,#365);
#323=AXIS2_PLACEMENT_3D('',#458,#366,#367);
#324=AXIS2_PLACEMENT_3D('',#463,#369,#370);
#325=AXIS2_PLACEMENT_3D('',#466,#372,#373);
#326=AXIS2_PLACEMENT_3D('',#469,#375,#376);
#327=AXIS2_PLACEMENT_3D('',#472,#378,#379);
#328=AXIS2_PLACEMENT_3D('',#473,#380,#381);
#329=AXIS2_PLACEMENT_3D('',#478,#383,#384);
#330=AXIS2_PLACEMENT_3D('',#481,#386,#387);
#331=AXIS2_PLACEMENT_3D('',#482,#388,#389);
#332=AXIS2_PLACEMENT_3D('',#484,#390,#391);
#333=AXIS2_PLACEMENT_3D('',#486,#392,#393);
#334=AXIS2_PLACEMENT_3D('',#488,#394,#395);
#335=AXIS2_PLACEMENT_3D('',#491,#397,#398);
#336=AXIS2_PLACEMENT_3D('',#492,#399,#400);
#337=AXIS2_PLACEMENT_3D('',#494,#401,#402);
#338=AXIS2_PLACEMENT_3D('',#496,#403,#404);
#339=AXIS2_PLACEMENT_3D('',#499,#406,#407);
#340=AXIS2_PLACEMENT_3D('',#501,#408,#409);
#341=AXIS2_PLACEMENT_3D('',#502,#410,#411);
#342=AXIS2_PLACEMENT_3D('',#504,#412,#413);
#343=AXIS2_PLACEMENT_3D('',#505,#414,#415);
#344=AXIS2_PLACEMENT_3D('',#506,#416,#417);
#345=AXIS2_PLACEMENT_3D('',#511,#420,#421);
#346=AXIS2_PLACEMENT_3D('',#520,#422,#423);
#347=AXIS2_PLACEMENT_3D('',#529,#424,#425);
#348=AXIS2_PLACEMENT_3D('',#530,#426,#427);
#349=AXIS2_PLACEMENT_3D('',#535,#430,#431);
#350=AXIS2_PLACEMENT_3D('',#537,#432,#433);
#351=AXIS2_PLACEMENT_3D('',#538,#434,#435);
#352=AXIS2_PLACEMENT_3D('',#540,#436,#437);
#353=AXIS2_PLACEMENT_3D('',#541,#438,#439);
#354=AXIS2_PLACEMENT_3D('',#542,#440,#441);
#355=AXIS2_PLACEMENT_3D('',#544,#443,#444);
#356=AXIS2_PLACEMENT_3D('',#546,#446,#447);
#357=AXIS2_PLACEMENT_3D('',#547,#448,#449);
#358=AXIS2_PLACEMENT_3D('',#548,#450,#451);
#359=AXIS2_PLACEMENT_3D('',#549,#452,#453);
#360=DIRECTION('',(0.,0.,1.));
#361=DIRECTION('',(1.,0.,0.));
#362=DIRECTION('',(0.,0.,1.));
#363=DIRECTION('',(1.,0.,0.));
#364=DIRECTION('',(0.,0.,1.));
#365=DIRECTION('',(1.,0.,0.));
#366=DIRECTION('',(0.,0.,1.));
#367=DIRECTION('',(1.,0.,0.));
#368=DIRECTION('',(0.,0.,-1.));
#369=DIRECTION('',(0.,0.,1.));
#370=DIRECTION('',(1.,0.,0.));
#371=DIRECTION('',(0.,0.,-1.));
#372=DIRECTION('',(0.,0.,-1.));
#373=DIRECTION('',(-1.,0.,0.));
#374=DIRECTION('',(0.,-1.,0.));
#375=DIRECTION('',(0.,0.,1.));
#376=DIRECTION('',(1.,0.,0.));
#377=DIRECTION('',(0.,-1.,0.));
#378=DIRECTION('',(0.,0.,1.));
#379=DIRECTION('',(1.,0.,0.));
#380=DIRECTION('',(0.,0.,1.));
#381=DIRECTION('',(1.,0.,0.));
#382=DIRECTION('',(0.,0.,1.));
#383=DIRECTION('',(0.,0.,1.));
#384=DIRECTION('',(1.,0.,0.));
#385=DIRECTION('',(0.,0.,1.));
#386=DIRECTION('',(0.,0.,-1.));
#387=DIRECTION('',(-1.,0.,0.));
#388=DIRECTION('',(0.,0.,-1.));
#389=DIRECTION('',(-1.,0.,0.));
#390=DIRECTION('',(0.,0.,-1.));
#391=DIRECTION('',(-1.,0.,0.));
#392=DIRECTION('',(0.,0.,-1.));
#393=DIRECTION('',(-1.,0.,0.));
#394=DIRECTION('',(0.,0.,1.));
#395=DIRECTION('',(1.,0.,0.));
#396=DIRECTION('',(-1.,-1.52993542731358E-16,0.));
#397=DIRECTION('',(0.,0.,-1.));
#398=DIRECTION('',(-1.,0.,0.));
#399=DIRECTION('',(0.,0.,-1.));
#400=DIRECTION('',(-1.,0.,0.));
#401=DIRECTION('',(0.,0.,-1.));
#402=DIRECTION('',(-1.,0.,0.));
#403=DIRECTION('',(0.,0.,-1.));
#404=DIRECTION('',(-1.,0.,0.));
#405=DIRECTION('',(1.,1.52993542731358E-16,0.));
#406=DIRECTION('',(0.,0.,1.));
#407=DIRECTION('',(1.,0.,0.));
#408=DIRECTION('',(0.,0.,1.));
#409=DIRECTION('',(1.,0.,0.));
#410=DIRECTION('',(0.,0.,1.));
#411=DIRECTION('',(1.,0.,0.));
#412=DIRECTION('',(0.,0.,1.));
#413=DIRECTION('',(1.,0.,0.));
#414=DIRECTION('',(0.,0.,1.));
#415=DIRECTION('',(1.,0.,0.));
#416=DIRECTION('',(0.,0.,1.));
#417=DIRECTION('',(1.,0.,0.));
#418=DIRECTION('',(0.,0.,-1.));
#419=DIRECTION('',(0.,0.,-1.));
#420=DIRECTION('',(0.,0.,1.));
#421=DIRECTION('',(1.,0.,0.));
#422=DIRECTION('',(0.,0.,1.));
#423=DIRECTION('',(1.,0.,0.));
#424=DIRECTION('',(0.,0.,1.));
#425=DIRECTION('',(1.,0.,0.));
#426=DIRECTION('',(0.,0.,1.));
#427=DIRECTION('',(1.,0.,0.));
#428=DIRECTION('',(0.,0.,-1.));
#429=DIRECTION('',(0.,0.,-1.));
#430=DIRECTION('',(0.,0.,1.));
#431=DIRECTION('',(1.,0.,0.));
#432=DIRECTION('',(0.,0.,1.));
#433=DIRECTION('',(1.,0.,0.));
#434=DIRECTION('',(0.,0.,1.));
#435=DIRECTION('',(1.,0.,0.));
#436=DIRECTION('',(0.,0.,1.));
#437=DIRECTION('',(1.,0.,0.));
#438=DIRECTION('',(-1.52993542731358E-16,1.,0.));
#439=DIRECTION('',(-1.,-1.52993542731358E-16,0.));
#440=DIRECTION('',(1.,0.,0.));
#441=DIRECTION('',(0.,0.,-1.));
#442=DIRECTION('',(0.,-1.,0.));
#443=DIRECTION('',(1.,0.,0.));
#444=DIRECTION('',(0.,0.,-1.));
#445=DIRECTION('',(0.,-1.,0.));
#446=DIRECTION('',(0.,0.,-1.));
#447=DIRECTION('',(1.,0.,0.));
#448=DIRECTION('',(0.,0.,1.));
#449=DIRECTION('',(1.,0.,0.));
#450=DIRECTION('',(0.,0.,1.));
#451=DIRECTION('',(1.,0.,0.));
#452=DIRECTION('',(0.,0.,1.));
#453=DIRECTION('',(1.,0.,0.));
#454=CARTESIAN_POINT('',(0.,0.,0.));
#455=CARTESIAN_POINT('',(0.,0.,0.));
#456=CARTESIAN_POINT('',(0.,0.,0.0283));
#457=CARTESIAN_POINT('',(0.022,0.,0.0283));
#458=CARTESIAN_POINT('',(0.,0.,0.005));
#459=CARTESIAN_POINT('',(-0.00100000000000002,-0.0219772609758359,0.005));
#460=CARTESIAN_POINT('',(0.001,-0.0219772609758359,0.005));
#461=CARTESIAN_POINT('',(0.001,-0.0219772609758359,0.005));
#462=CARTESIAN_POINT('',(0.001,-0.0219772609758359,-1.38777878078145E-17));
#463=CARTESIAN_POINT('',(0.,0.,-1.38777878078145E-17));
#464=CARTESIAN_POINT('',(-0.00100000000000002,-0.0219772609758359,-1.38777878078145E-17));
#465=CARTESIAN_POINT('',(-0.00100000000000002,-0.0219772609758359,0.005));
#466=CARTESIAN_POINT('',(-0.017125,0.,-1.38777878078145E-17));
#467=CARTESIAN_POINT('',(0.001,-0.0170931882114553,-1.38777878078145E-17));
#468=CARTESIAN_POINT('',(0.001,-0.0122091154470748,-1.38777878078145E-17));
#469=CARTESIAN_POINT('',(0.,0.,-1.38777878078145E-17));
#470=CARTESIAN_POINT('',(-0.001,-0.0122091154470748,-1.38777878078145E-17));
#471=CARTESIAN_POINT('',(-0.001,-0.0170931882114553,-1.38777878078145E-17));
#472=CARTESIAN_POINT('',(0.,0.,0.));
#473=CARTESIAN_POINT('',(0.,0.,0.0308));
#474=CARTESIAN_POINT('',(0.0226770809408972,-0.026,0.0308));
#475=CARTESIAN_POINT('',(-0.0226770809408972,-0.026,0.0308));
#476=CARTESIAN_POINT('',(-0.0226770809408972,-0.026,-0.0688103860996667));
#477=CARTESIAN_POINT('',(-0.0226770809408972,-0.026,0.0348));
#478=CARTESIAN_POINT('',(0.,0.,0.0348));
#479=CARTESIAN_POINT('',(0.0226770809408972,-0.026,0.0348));
#480=CARTESIAN_POINT('',(0.0226770809408972,-0.026,-0.0688103860996667));
#481=CARTESIAN_POINT('',(-0.023375,0.,0.0348));
#482=CARTESIAN_POINT('',(0.,0.028,0.0348));
#483=CARTESIAN_POINT('',(-0.006,0.028,0.0348));
#484=CARTESIAN_POINT('',(0.0236431808350738,-0.015,0.0348));
#485=CARTESIAN_POINT('',(0.0176431808350738,-0.015,0.0348));
#486=CARTESIAN_POINT('',(-0.0236431808350738,-0.015,0.0348));
#487=CARTESIAN_POINT('',(-0.0296431808350738,-0.015,0.0348));
#488=CARTESIAN_POINT('',(0.,0.,0.0348));
#489=CARTESIAN_POINT('',(0.01225,0.,0.0348));
#490=CARTESIAN_POINT('',(6.93889390390723E-18,-0.026,0.0348));
#491=CARTESIAN_POINT('',(-0.028,0.,0.0308));
#492=CARTESIAN_POINT('',(0.,0.028,0.0308));
#493=CARTESIAN_POINT('',(-0.002,0.028,0.0308));
#494=CARTESIAN_POINT('',(0.0236431808350738,-0.015,0.0308));
#495=CARTESIAN_POINT('',(0.0216431808350738,-0.015,0.0308));
#496=CARTESIAN_POINT('',(-0.0236431808350738,-0.015,0.0308));
#497=CARTESIAN_POINT('',(-0.0256431808350738,-0.015,0.0308));
#498=CARTESIAN_POINT('',(-0.028,-0.026,0.0308));
#499=CARTESIAN_POINT('',(0.,0.,0.0308));
#500=CARTESIAN_POINT('',(0.0215,0.,0.0308));
#501=CARTESIAN_POINT('',(0.,0.,0.));
#502=CARTESIAN_POINT('',(0.,0.,0.0283));
#503=CARTESIAN_POINT('',(0.0215,0.,0.0283));
#504=CARTESIAN_POINT('',(-0.02175,0.,0.0283));
#505=CARTESIAN_POINT('',(0.,0.,0.));
#506=CARTESIAN_POINT('',(0.,0.,0.00149999999999999));
#507=CARTESIAN_POINT('',(0.001,-0.0122091154470748,0.00149999999999999));
#508=CARTESIAN_POINT('',(-0.001,-0.0122091154470748,0.00149999999999999));
#509=CARTESIAN_POINT('',(-0.001,-0.0122091154470748,0.005));
#510=CARTESIAN_POINT('',(0.001,-0.0122091154470748,0.005));
#511=CARTESIAN_POINT('',(0.,0.,0.0025));
#512=CARTESIAN_POINT('',(0.001,-0.0122091154470748,0.00350000000000002));
#513=CARTESIAN_POINT('',(0.001,-0.0124704979146059,0.00350000000000003));
#514=CARTESIAN_POINT('',(0.001,-0.0129941846259976,0.0032845671198146));
#515=CARTESIAN_POINT('',(0.001,-0.0133212591454709,0.00250074905944908));
#516=CARTESIAN_POINT('',(0.001,-0.0129940399286605,0.00171471496809344));
#517=CARTESIAN_POINT('',(0.001,-0.0124701556620668,0.00149999999999999));
#518=CARTESIAN_POINT('',(0.001,-0.0122091154470748,0.0015));
#519=CARTESIAN_POINT('',(0.001,-0.0122091154470748,0.0035));
#520=CARTESIAN_POINT('',(0.,0.,0.0035));
#521=CARTESIAN_POINT('',(-0.001,-0.0122091154470748,0.0035));
#522=CARTESIAN_POINT('',(-0.001,-0.0122091154470748,0.00350000000000002));
#523=CARTESIAN_POINT('',(-0.001,-0.0124704979146059,0.00350000000000003));
#524=CARTESIAN_POINT('',(-0.001,-0.0129941846259976,0.0032845671198146));
#525=CARTESIAN_POINT('',(-0.001,-0.0133212591454709,0.00250074905944908));
#526=CARTESIAN_POINT('',(-0.001,-0.0129940399286605,0.00171471496809345));
#527=CARTESIAN_POINT('',(-0.001,-0.0124701556620668,0.00149999999999999));
#528=CARTESIAN_POINT('',(-0.001,-0.0122091154470748,0.0015));
#529=CARTESIAN_POINT('',(0.,0.,0.));
#530=CARTESIAN_POINT('',(0.,0.,0.005));
#531=CARTESIAN_POINT('',(-0.001,-0.0122091154470748,0.005));
#532=CARTESIAN_POINT('',(0.001,-0.0122091154470748,0.005));
#533=CARTESIAN_POINT('',(-0.001,-0.0122091154470748,0.005));
#534=CARTESIAN_POINT('',(0.001,-0.0122091154470748,0.005));
#535=CARTESIAN_POINT('',(0.,0.,0.0313));
#536=CARTESIAN_POINT('',(0.01225,0.,0.0313));
#537=CARTESIAN_POINT('',(0.,0.,0.0323));
#538=CARTESIAN_POINT('',(0.,0.,0.0333));
#539=CARTESIAN_POINT('',(0.01225,0.,0.0333));
#540=CARTESIAN_POINT('',(0.,0.,0.));
#541=CARTESIAN_POINT('',(6.93889390390723E-18,-0.026,-0.0688103860996667));
#542=CARTESIAN_POINT('',(0.001,-0.0170931882114553,0.005));
#543=CARTESIAN_POINT('',(0.001,-0.0170931882114553,0.005));
#544=CARTESIAN_POINT('',(-0.001,-0.0170931882114553,0.005));
#545=CARTESIAN_POINT('',(-0.001,-0.0170931882114553,0.005));
#546=CARTESIAN_POINT('',(0.,0.,0.005));
#547=CARTESIAN_POINT('',(-0.0236431808350738,-0.015,0.0348));
#548=CARTESIAN_POINT('',(0.0236431808350738,-0.015,0.0348));
#549=CARTESIAN_POINT('',(0.,0.028,0.0348));
#550=MECHANICAL_DESIGN_GEOMETRIC_PRESENTATION_REPRESENTATION('',(#309),
#551);
#551=(
GEOMETRIC_REPRESENTATION_CONTEXT(3)
GLOBAL_UNCERTAINTY_ASSIGNED_CONTEXT((#552))
GLOBAL_UNIT_ASSIGNED_CONTEXT((#555,#554,#553))
REPRESENTATION_CONTEXT('Part 1','TOP_LEVEL_ASSEMBLY_PART')
);
#552=UNCERTAINTY_MEASURE_WITH_UNIT(LENGTH_MEASURE(2.E-5),#555,
'DISTANCE_ACCURACY_VALUE','Maximum Tolerance applied to model');
#553=(
NAMED_UNIT(*)
SI_UNIT($,.STERADIAN.)
SOLID_ANGLE_UNIT()
);
#554=(
NAMED_UNIT(*)
PLANE_ANGLE_UNIT()
SI_UNIT($,.RADIAN.)
);
#555=(
LENGTH_UNIT()
NAMED_UNIT(*)
SI_UNIT($,.METRE.)
);
#556=PRODUCT_DEFINITION_SHAPE('','',#557);
#557=PRODUCT_DEFINITION('','',#559,#558);
#558=PRODUCT_DEFINITION_CONTEXT('',#565,'design');
#559=PRODUCT_DEFINITION_FORMATION_WITH_SPECIFIED_SOURCE('','',#561,
 .NOT_KNOWN.);
#560=PRODUCT_RELATED_PRODUCT_CATEGORY('','',(#561));
#561=PRODUCT('Part 1','Part 1','Part 1',(#563));
#562=PRODUCT_CATEGORY('','');
#563=PRODUCT_CONTEXT('',#565,'mechanical');
#564=APPLICATION_PROTOCOL_DEFINITION('international standard',
'ap242_managed_model_based_3d_engineering',2020,#565);
#565=APPLICATION_CONTEXT('managed model based 3d engineering');
ENDSEC;
END-ISO-10303-21;
