ISO-10303-21;
HEADER;
/* Generated by software containing ST-Developer
 * from STEP Tools, Inc. (www.steptools.com) 
 */
/* OPTION: using custom renumber hook */

FILE_DESCRIPTION(
/* description */ ('STEP AP242 Edition 2',
'CAx-IF Rec.Pracs.---Representation and Presentation of Product Manufa
cturing Information (PMI)---4.0---2014-10-13',
'CAx-IF Rec.Pracs.---3D Tessellated Geometry---0.4---2014-09-14','2;1',
'CAx-IF Rec.Pracs.---User Defined Attributes---1.5---2016-08-15'),
/* implementation_level */ '2;1');

FILE_NAME(
/* name */ 'Part Studio 1',
/* time_stamp */ '2026-09-08T17:10:56Z',
/* author */ (''),
/* organization */ (''),
/* preprocessor_version */ 'ST-DEVELOPER v20',
/* originating_system */ 'ONSHAPE BY PTC INC, 1.220',
/* authorisation */ '  ');

FILE_SCHEMA (('AP242_MANAGED_MODEL_BASED_3D_ENGINEERING_MIM_LF { 1 0 10303 442 3 1 4 }'));
ENDSEC;

DATA;
#10=LINE('',#950,#40);
#11=LINE('',#954,#41);
#12=LINE('',#969,#42);
#13=LINE('',#973,#43);
#14=LINE('',#990,#44);
#15=LINE('',#994,#45);
#16=LINE('',#1008,#46);
#17=LINE('',#1011,#47);
#18=LINE('',#1013,#48);
#19=LINE('',#1015,#49);
#20=LINE('',#1016,#50);
#21=LINE('',#1018,#51);
#22=LINE('',#1020,#52);
#23=LINE('',#1022,#53);
#24=LINE('',#1024,#54);
#25=LINE('',#1025,#55);
#26=LINE('',#1031,#56);
#27=LINE('',#1034,#57);
#28=LINE('',#1036,#58);
#29=LINE('',#1038,#59);
#30=LINE('',#1040,#60);
#31=LINE('',#1041,#61);
#32=LINE('',#1043,#62);
#33=LINE('',#1045,#63);
#34=LINE('',#1047,#64);
#35=LINE('',#1049,#65);
#36=LINE('',#1051,#66);
#37=LINE('',#1052,#67);
#38=LINE('',#1055,#68);
#39=LINE('',#1057,#69);
#40=VECTOR('',#739,1.);
#41=VECTOR('',#742,1.);
#42=VECTOR('',#743,1.);
#43=VECTOR('',#746,1.);
#44=VECTOR('',#751,1.);
#45=VECTOR('',#754,1.);
#46=VECTOR('',#757,1.);
#47=VECTOR('',#758,1.);
#48=VECTOR('',#759,1.);
#49=VECTOR('',#760,1.);
#50=VECTOR('',#761,1.);
#51=VECTOR('',#762,1.);
#52=VECTOR('',#763,1.);
#53=VECTOR('',#764,1.);
#54=VECTOR('',#765,1.);
#55=VECTOR('',#766,1.);
#56=VECTOR('',#773,1.);
#57=VECTOR('',#778,1.);
#58=VECTOR('',#779,1.);
#59=VECTOR('',#780,1.);
#60=VECTOR('',#781,1.);
#61=VECTOR('',#782,1.);
#62=VECTOR('',#783,1.);
#63=VECTOR('',#784,1.);
#64=VECTOR('',#785,1.);
#65=VECTOR('',#786,1.);
#66=VECTOR('',#789,1.);
#67=VECTOR('',#790,1.);
#68=VECTOR('',#795,1.);
#69=VECTOR('',#798,1.);
#70=SHAPE_REPRESENTATION_RELATIONSHIP('','',#602,#72);
#71=SHAPE_REPRESENTATION_RELATIONSHIP('','',#603,#73);
#72=ADVANCED_BREP_SHAPE_REPRESENTATION('',(#598),#1086);
#73=ADVANCED_BREP_SHAPE_REPRESENTATION('',(#599),#1087);
#74=PLANE('',#608);
#75=PLANE('',#613);
#76=PLANE('',#617);
#77=PLANE('',#618);
#78=PLANE('',#622);
#79=PLANE('',#626);
#80=PLANE('',#634);
#81=PLANE('',#642);
#82=PLANE('',#643);
#83=PLANE('',#647);
#84=PLANE('',#648);
#85=PLANE('',#649);
#86=PLANE('',#650);
#87=PLANE('',#651);
#88=PLANE('',#652);
#89=PLANE('',#655);
#90=PLANE('',#659);
#91=PLANE('',#672);
#92=B_SPLINE_CURVE_WITH_KNOTS('',3,(#847,#848,#849,#850,#851,#852,#853,
#854,#855,#856,#857),.UNSPECIFIED.,.T.,.F.,(1,1,1,1,1,1,1,1,1,1,1,1,1,1,
1),(-0.00704187113057062,-0.00469458075371374,-0.00234729037685687,1.6786996782241E-20,
0.00234729037685687,0.00469458075371374,0.00704187113057062,0.00938916150742749,
0.0117364518842844,0.0140837422611412,0.0164310326379981,0.018778323014855,
0.0211256133917119,0.0234729037685687,0.0258201941454256),.UNSPECIFIED.);
#93=B_SPLINE_CURVE_WITH_KNOTS('',3,(#859,#860,#861,#862,#863,#864,#865,
#866,#867,#868,#869),.UNSPECIFIED.,.T.,.F.,(1,1,1,1,1,1,1,1,1,1,1,1,1,1,
1),(-0.00939771817784998,-0.00626514545189999,-0.00313257272594999,2.69119179875777E-19,
0.00313257272595,0.00626514545189999,0.00939771817784999,0.0125302909038,
0.01566286362975,0.0187954363557,0.02192800908165,0.0250605818076,0.02819315453355,
0.0313257272595,0.0344582999854499),.UNSPECIFIED.);
#94=B_SPLINE_CURVE_WITH_KNOTS('',3,(#902,#903,#904,#905,#906,#907,#908,
#909,#910,#911,#912),.UNSPECIFIED.,.T.,.F.,(1,1,1,1,1,1,1,1,1,1,1,1,1,1,
1),(-0.00704593630614408,-0.00469729087076272,-0.00234864543538136,6.64875075468125E-20,
0.00234864543538136,0.00469729087076272,0.00704593630614408,0.00939458174152544,
0.0117432271769068,0.0140918726122882,0.0164405180476695,0.0187891634830509,
0.0211378089184322,0.0234864543538136,0.025835099789195),.UNSPECIFIED.);
#95=B_SPLINE_CURVE_WITH_KNOTS('',3,(#914,#915,#916,#917,#918,#919,#920,
#921,#922,#923,#924),.UNSPECIFIED.,.T.,.F.,(1,1,1,1,1,1,1,1,1,1,1,1,1,1,
1),(-0.00704593630614407,-0.00469729087076272,-0.00234864543538136,1.26990550945511E-19,
0.00234864543538136,0.00469729087076272,0.00704593630614407,0.00939458174152543,
0.0117432271769068,0.0140918726122881,0.0164405180476695,0.0187891634830509,
0.0211378089184322,0.0234864543538136,0.0258350997891949),.UNSPECIFIED.);
#96=B_SPLINE_CURVE_WITH_KNOTS('',3,(#936,#937,#938,#939,#940,#941,#942,
#943,#944,#945,#946,#947),.UNSPECIFIED.,.F.,.F.,(4,1,1,1,1,1,1,1,1,4),(0.,
0.00472434080587515,0.00708651120881273,0.00944868161175031,0.0141730224176255,
0.0188973632235006,0.0236217040293758,0.0283460448352509,0.0330703856411261,
0.0377947264470012),.UNSPECIFIED.);
#97=B_SPLINE_CURVE_WITH_KNOTS('',3,(#956,#957,#958,#959,#960,#961,#962,
#963,#964,#965,#966,#967),.UNSPECIFIED.,.F.,.F.,(4,1,1,1,1,1,1,1,1,4),(0.,
0.00472434080587515,0.00708651120881273,0.00944868161175031,0.0141730224176255,
0.0188973632235006,0.0236217040293758,0.0283460448352509,0.0330703856411261,
0.0377947264470012),.UNSPECIFIED.);
#98=B_SPLINE_CURVE_WITH_KNOTS('',3,(#974,#975,#976,#977,#978,#979,#980,
#981,#982,#983,#984),.UNSPECIFIED.,.T.,.F.,(1,1,1,1,1,1,1,1,1,1,1,1,1,1,
1),(-0.00938234638501498,-0.00625489759000999,-0.003127448795005,7.20682333034016E-20,
0.003127448795005,0.00625489759000999,0.00938234638501499,0.01250979518002,
0.015637243975025,0.01876469277003,0.021892141565035,0.02501959036004,0.028147039155045,
0.03127448795005,0.0344019367450549),.UNSPECIFIED.);
#99=B_SPLINE_CURVE_WITH_KNOTS('',3,(#995,#996,#997,#998,#999,#1000,#1001,
#1002,#1003,#1004,#1005),.UNSPECIFIED.,.T.,.F.,(1,1,1,1,1,1,1,1,1,1,1,1,
1,1,1),(-0.00704056717803286,-0.00469371145202191,-0.00234685572601095,
1.23875966336557E-19,0.00234685572601095,0.00469371145202191,0.00704056717803286,
0.00938742290404381,0.0117342786300548,0.0140811343560657,0.0164279900820767,
0.0187748458080876,0.0211217015340986,0.0234685572601095,0.0258154129861205),
 .UNSPECIFIED.);
#100=ORIENTED_EDGE('',*,*,#236,.T.);
#101=ORIENTED_EDGE('',*,*,#237,.F.);
#102=ORIENTED_EDGE('',*,*,#238,.T.);
#103=ORIENTED_EDGE('',*,*,#239,.F.);
#104=ORIENTED_EDGE('',*,*,#240,.F.);
#105=ORIENTED_EDGE('',*,*,#241,.T.);
#106=ORIENTED_EDGE('',*,*,#242,.F.);
#107=ORIENTED_EDGE('',*,*,#240,.T.);
#108=ORIENTED_EDGE('',*,*,#243,.F.);
#109=ORIENTED_EDGE('',*,*,#242,.T.);
#110=ORIENTED_EDGE('',*,*,#244,.F.);
#111=ORIENTED_EDGE('',*,*,#243,.T.);
#112=ORIENTED_EDGE('',*,*,#236,.F.);
#113=ORIENTED_EDGE('',*,*,#244,.T.);
#114=ORIENTED_EDGE('',*,*,#237,.T.);
#115=ORIENTED_EDGE('',*,*,#245,.F.);
#116=ORIENTED_EDGE('',*,*,#245,.T.);
#117=ORIENTED_EDGE('',*,*,#246,.F.);
#118=ORIENTED_EDGE('',*,*,#246,.T.);
#119=ORIENTED_EDGE('',*,*,#247,.F.);
#120=ORIENTED_EDGE('',*,*,#247,.T.);
#121=ORIENTED_EDGE('',*,*,#248,.F.);
#122=ORIENTED_EDGE('',*,*,#248,.T.);
#123=ORIENTED_EDGE('',*,*,#249,.F.);
#124=ORIENTED_EDGE('',*,*,#250,.F.);
#125=ORIENTED_EDGE('',*,*,#251,.F.);
#126=ORIENTED_EDGE('',*,*,#249,.T.);
#127=ORIENTED_EDGE('',*,*,#241,.F.);
#128=ORIENTED_EDGE('',*,*,#251,.T.);
#129=ORIENTED_EDGE('',*,*,#252,.T.);
#130=ORIENTED_EDGE('',*,*,#250,.T.);
#131=ORIENTED_EDGE('',*,*,#238,.F.);
#132=ORIENTED_EDGE('',*,*,#253,.F.);
#133=ORIENTED_EDGE('',*,*,#239,.T.);
#134=ORIENTED_EDGE('',*,*,#252,.F.);
#135=ORIENTED_EDGE('',*,*,#253,.T.);
#136=ORIENTED_EDGE('',*,*,#254,.F.);
#137=ORIENTED_EDGE('',*,*,#255,.F.);
#138=ORIENTED_EDGE('',*,*,#256,.F.);
#139=ORIENTED_EDGE('',*,*,#257,.T.);
#140=ORIENTED_EDGE('',*,*,#258,.F.);
#141=ORIENTED_EDGE('',*,*,#259,.T.);
#142=ORIENTED_EDGE('',*,*,#260,.T.);
#143=ORIENTED_EDGE('',*,*,#261,.F.);
#144=ORIENTED_EDGE('',*,*,#262,.F.);
#145=ORIENTED_EDGE('',*,*,#263,.F.);
#146=ORIENTED_EDGE('',*,*,#264,.F.);
#147=ORIENTED_EDGE('',*,*,#265,.T.);
#148=ORIENTED_EDGE('',*,*,#266,.T.);
#149=ORIENTED_EDGE('',*,*,#267,.T.);
#150=ORIENTED_EDGE('',*,*,#268,.F.);
#151=ORIENTED_EDGE('',*,*,#269,.F.);
#152=ORIENTED_EDGE('',*,*,#270,.F.);
#153=ORIENTED_EDGE('',*,*,#271,.F.);
#154=ORIENTED_EDGE('',*,*,#263,.T.);
#155=ORIENTED_EDGE('',*,*,#272,.T.);
#156=ORIENTED_EDGE('',*,*,#273,.T.);
#157=ORIENTED_EDGE('',*,*,#274,.T.);
#158=ORIENTED_EDGE('',*,*,#275,.T.);
#159=ORIENTED_EDGE('',*,*,#276,.T.);
#160=ORIENTED_EDGE('',*,*,#260,.F.);
#161=ORIENTED_EDGE('',*,*,#277,.F.);
#162=ORIENTED_EDGE('',*,*,#278,.T.);
#163=ORIENTED_EDGE('',*,*,#279,.T.);
#164=ORIENTED_EDGE('',*,*,#280,.T.);
#165=ORIENTED_EDGE('',*,*,#255,.T.);
#166=ORIENTED_EDGE('',*,*,#281,.T.);
#167=ORIENTED_EDGE('',*,*,#261,.T.);
#168=ORIENTED_EDGE('',*,*,#276,.F.);
#169=ORIENTED_EDGE('',*,*,#282,.F.);
#170=ORIENTED_EDGE('',*,*,#283,.F.);
#171=ORIENTED_EDGE('',*,*,#284,.F.);
#172=ORIENTED_EDGE('',*,*,#285,.F.);
#173=ORIENTED_EDGE('',*,*,#265,.F.);
#174=ORIENTED_EDGE('',*,*,#286,.T.);
#175=ORIENTED_EDGE('',*,*,#287,.T.);
#176=ORIENTED_EDGE('',*,*,#288,.T.);
#177=ORIENTED_EDGE('',*,*,#289,.T.);
#178=ORIENTED_EDGE('',*,*,#290,.T.);
#179=ORIENTED_EDGE('',*,*,#256,.T.);
#180=ORIENTED_EDGE('',*,*,#280,.F.);
#181=ORIENTED_EDGE('',*,*,#273,.F.);
#182=ORIENTED_EDGE('',*,*,#291,.F.);
#183=ORIENTED_EDGE('',*,*,#284,.T.);
#184=ORIENTED_EDGE('',*,*,#292,.T.);
#185=ORIENTED_EDGE('',*,*,#272,.F.);
#186=ORIENTED_EDGE('',*,*,#266,.F.);
#187=ORIENTED_EDGE('',*,*,#285,.T.);
#188=ORIENTED_EDGE('',*,*,#291,.T.);
#189=ORIENTED_EDGE('',*,*,#271,.T.);
#190=ORIENTED_EDGE('',*,*,#293,.F.);
#191=ORIENTED_EDGE('',*,*,#286,.F.);
#192=ORIENTED_EDGE('',*,*,#264,.T.);
#193=ORIENTED_EDGE('',*,*,#270,.T.);
#194=ORIENTED_EDGE('',*,*,#294,.F.);
#195=ORIENTED_EDGE('',*,*,#287,.F.);
#196=ORIENTED_EDGE('',*,*,#293,.T.);
#197=ORIENTED_EDGE('',*,*,#295,.F.);
#198=ORIENTED_EDGE('',*,*,#269,.T.);
#199=ORIENTED_EDGE('',*,*,#296,.T.);
#200=ORIENTED_EDGE('',*,*,#288,.F.);
#201=ORIENTED_EDGE('',*,*,#294,.T.);
#202=ORIENTED_EDGE('',*,*,#297,.T.);
#203=ORIENTED_EDGE('',*,*,#298,.T.);
#204=ORIENTED_EDGE('',*,*,#277,.T.);
#205=ORIENTED_EDGE('',*,*,#259,.F.);
#206=ORIENTED_EDGE('',*,*,#299,.T.);
#207=ORIENTED_EDGE('',*,*,#257,.F.);
#208=ORIENTED_EDGE('',*,*,#290,.F.);
#209=ORIENTED_EDGE('',*,*,#300,.T.);
#210=ORIENTED_EDGE('',*,*,#283,.T.);
#211=ORIENTED_EDGE('',*,*,#301,.F.);
#212=ORIENTED_EDGE('',*,*,#274,.F.);
#213=ORIENTED_EDGE('',*,*,#292,.F.);
#214=ORIENTED_EDGE('',*,*,#301,.T.);
#215=ORIENTED_EDGE('',*,*,#282,.T.);
#216=ORIENTED_EDGE('',*,*,#279,.F.);
#217=ORIENTED_EDGE('',*,*,#275,.F.);
#218=ORIENTED_EDGE('',*,*,#296,.F.);
#219=ORIENTED_EDGE('',*,*,#268,.T.);
#220=ORIENTED_EDGE('',*,*,#298,.F.);
#221=ORIENTED_EDGE('',*,*,#289,.F.);
#222=ORIENTED_EDGE('',*,*,#258,.T.);
#223=ORIENTED_EDGE('',*,*,#299,.F.);
#224=ORIENTED_EDGE('',*,*,#254,.T.);
#225=ORIENTED_EDGE('',*,*,#281,.F.);
#226=ORIENTED_EDGE('',*,*,#300,.F.);
#227=ORIENTED_EDGE('',*,*,#278,.F.);
#228=ORIENTED_EDGE('',*,*,#297,.F.);
#229=ORIENTED_EDGE('',*,*,#295,.T.);
#230=ORIENTED_EDGE('',*,*,#302,.T.);
#231=ORIENTED_EDGE('',*,*,#262,.T.);
#232=ORIENTED_EDGE('',*,*,#267,.F.);
#233=ORIENTED_EDGE('',*,*,#303,.F.);
#234=ORIENTED_EDGE('',*,*,#303,.T.);
#235=ORIENTED_EDGE('',*,*,#302,.F.);
#236=EDGE_CURVE('',#304,#304,#358,.T.);
#237=EDGE_CURVE('',#305,#305,#359,.T.);
#238=EDGE_CURVE('',#306,#306,#92,.T.);
#239=EDGE_CURVE('',#307,#307,#93,.T.);
#240=EDGE_CURVE('',#308,#308,#360,.T.);
#241=EDGE_CURVE('',#309,#309,#361,.T.);
#242=EDGE_CURVE('',#310,#310,#362,.T.);
#243=EDGE_CURVE('',#311,#311,#363,.T.);
#244=EDGE_CURVE('',#312,#312,#364,.T.);
#245=EDGE_CURVE('',#313,#313,#365,.T.);
#246=EDGE_CURVE('',#314,#314,#366,.T.);
#247=EDGE_CURVE('',#315,#315,#367,.T.);
#248=EDGE_CURVE('',#316,#316,#368,.T.);
#249=EDGE_CURVE('',#317,#317,#369,.T.);
#250=EDGE_CURVE('',#318,#318,#94,.T.);
#251=EDGE_CURVE('',#319,#319,#95,.T.);
#252=EDGE_CURVE('',#320,#320,#370,.T.);
#253=EDGE_CURVE('',#321,#321,#371,.T.);
#254=EDGE_CURVE('',#322,#323,#96,.T.);
#255=EDGE_CURVE('',#324,#322,#10,.T.);
#256=EDGE_CURVE('',#325,#324,#372,.T.);
#257=EDGE_CURVE('',#325,#326,#11,.T.);
#258=EDGE_CURVE('',#327,#326,#97,.T.);
#259=EDGE_CURVE('',#327,#328,#12,.T.);
#260=EDGE_CURVE('',#328,#329,#373,.T.);
#261=EDGE_CURVE('',#323,#329,#13,.T.);
#262=EDGE_CURVE('',#330,#330,#98,.T.);
#263=EDGE_CURVE('',#331,#332,#374,.T.);
#264=EDGE_CURVE('',#333,#331,#14,.T.);
#265=EDGE_CURVE('',#333,#334,#375,.T.);
#266=EDGE_CURVE('',#334,#332,#15,.T.);
#267=EDGE_CURVE('',#335,#335,#99,.T.);
#268=EDGE_CURVE('',#336,#337,#16,.T.);
#269=EDGE_CURVE('',#338,#336,#17,.T.);
#270=EDGE_CURVE('',#339,#338,#18,.T.);
#271=EDGE_CURVE('',#331,#339,#19,.T.);
#272=EDGE_CURVE('',#332,#340,#20,.T.);
#273=EDGE_CURVE('',#340,#341,#21,.T.);
#274=EDGE_CURVE('',#341,#342,#22,.T.);
#275=EDGE_CURVE('',#342,#343,#23,.T.);
#276=EDGE_CURVE('',#343,#329,#24,.T.);
#277=EDGE_CURVE('',#337,#328,#25,.T.);
#278=EDGE_CURVE('',#344,#344,#376,.T.);
#279=EDGE_CURVE('',#343,#345,#377,.T.);
#280=EDGE_CURVE('',#345,#324,#26,.T.);
#281=EDGE_CURVE('',#322,#323,#378,.T.);
#282=EDGE_CURVE('',#346,#345,#27,.T.);
#283=EDGE_CURVE('',#347,#346,#28,.T.);
#284=EDGE_CURVE('',#348,#347,#29,.T.);
#285=EDGE_CURVE('',#334,#348,#30,.T.);
#286=EDGE_CURVE('',#333,#349,#31,.T.);
#287=EDGE_CURVE('',#349,#350,#32,.T.);
#288=EDGE_CURVE('',#350,#351,#33,.T.);
#289=EDGE_CURVE('',#351,#352,#34,.T.);
#290=EDGE_CURVE('',#352,#325,#35,.T.);
#291=EDGE_CURVE('',#348,#340,#36,.T.);
#292=EDGE_CURVE('',#347,#341,#37,.T.);
#293=EDGE_CURVE('',#349,#339,#38,.T.);
#294=EDGE_CURVE('',#350,#338,#39,.T.);
#295=EDGE_CURVE('',#353,#353,#379,.F.);
#296=EDGE_CURVE('',#336,#351,#380,.F.);
#297=EDGE_CURVE('',#354,#354,#381,.T.);
#298=EDGE_CURVE('',#352,#337,#382,.T.);
#299=EDGE_CURVE('',#327,#326,#383,.T.);
#300=EDGE_CURVE('',#355,#355,#384,.F.);
#301=EDGE_CURVE('',#342,#346,#385,.F.);
#302=EDGE_CURVE('',#356,#356,#386,.T.);
#303=EDGE_CURVE('',#357,#357,#387,.T.);
#304=VERTEX_POINT('',#844);
#305=VERTEX_POINT('',#846);
#306=VERTEX_POINT('',#858);
#307=VERTEX_POINT('',#870);
#308=VERTEX_POINT('',#873);
#309=VERTEX_POINT('',#875);
#310=VERTEX_POINT('',#878);
#311=VERTEX_POINT('',#881);
#312=VERTEX_POINT('',#884);
#313=VERTEX_POINT('',#888);
#314=VERTEX_POINT('',#891);
#315=VERTEX_POINT('',#894);
#316=VERTEX_POINT('',#897);
#317=VERTEX_POINT('',#900);
#318=VERTEX_POINT('',#913);
#319=VERTEX_POINT('',#925);
#320=VERTEX_POINT('',#928);
#321=VERTEX_POINT('',#932);
#322=VERTEX_POINT('',#948);
#323=VERTEX_POINT('',#949);
#324=VERTEX_POINT('',#951);
#325=VERTEX_POINT('',#953);
#326=VERTEX_POINT('',#955);
#327=VERTEX_POINT('',#968);
#328=VERTEX_POINT('',#970);
#329=VERTEX_POINT('',#972);
#330=VERTEX_POINT('',#985);
#331=VERTEX_POINT('',#988);
#332=VERTEX_POINT('',#989);
#333=VERTEX_POINT('',#991);
#334=VERTEX_POINT('',#993);
#335=VERTEX_POINT('',#1006);
#336=VERTEX_POINT('',#1009);
#337=VERTEX_POINT('',#1010);
#338=VERTEX_POINT('',#1012);
#339=VERTEX_POINT('',#1014);
#340=VERTEX_POINT('',#1017);
#341=VERTEX_POINT('',#1019);
#342=VERTEX_POINT('',#1021);
#343=VERTEX_POINT('',#1023);
#344=VERTEX_POINT('',#1028);
#345=VERTEX_POINT('',#1030);
#346=VERTEX_POINT('',#1035);
#347=VERTEX_POINT('',#1037);
#348=VERTEX_POINT('',#1039);
#349=VERTEX_POINT('',#1042);
#350=VERTEX_POINT('',#1044);
#351=VERTEX_POINT('',#1046);
#352=VERTEX_POINT('',#1048);
#353=VERTEX_POINT('',#1060);
#354=VERTEX_POINT('',#1064);
#355=VERTEX_POINT('',#1069);
#356=VERTEX_POINT('',#1079);
#357=VERTEX_POINT('',#1082);
#358=CIRCLE('',#606,0.022);
#359=CIRCLE('',#607,0.022);
#360=CIRCLE('',#609,0.032);
#361=CIRCLE('',#610,0.018);
#362=CIRCLE('',#612,0.032);
#363=CIRCLE('',#614,0.024);
#364=CIRCLE('',#616,0.024);
#365=CIRCLE('',#619,0.024);
#366=CIRCLE('',#621,0.024);
#367=CIRCLE('',#623,0.032);
#368=CIRCLE('',#625,0.032);
#369=CIRCLE('',#627,0.018);
#370=CIRCLE('',#630,0.003);
#371=CIRCLE('',#633,0.004);
#372=CIRCLE('',#637,0.048);
#373=CIRCLE('',#638,0.048);
#374=CIRCLE('',#640,0.024);
#375=CIRCLE('',#641,0.024);
#376=CIRCLE('',#644,0.00675);
#377=CIRCLE('',#645,0.054);
#378=CIRCLE('',#646,0.016);
#379=CIRCLE('',#653,0.00675);
#380=CIRCLE('',#654,0.054);
#381=CIRCLE('',#656,0.00675);
#382=CIRCLE('',#657,0.054);
#383=CIRCLE('',#658,0.016);
#384=CIRCLE('',#660,0.00675);
#385=CIRCLE('',#661,0.054);
#386=CIRCLE('',#669,0.004);
#387=CIRCLE('',#671,0.003);
#388=EDGE_LOOP('',(#100));
#389=EDGE_LOOP('',(#101));
#390=EDGE_LOOP('',(#102));
#391=EDGE_LOOP('',(#103));
#392=EDGE_LOOP('',(#104));
#393=EDGE_LOOP('',(#105));
#394=EDGE_LOOP('',(#106));
#395=EDGE_LOOP('',(#107));
#396=EDGE_LOOP('',(#108));
#397=EDGE_LOOP('',(#109));
#398=EDGE_LOOP('',(#110));
#399=EDGE_LOOP('',(#111));
#400=EDGE_LOOP('',(#112));
#401=EDGE_LOOP('',(#113));
#402=EDGE_LOOP('',(#114));
#403=EDGE_LOOP('',(#115));
#404=EDGE_LOOP('',(#116));
#405=EDGE_LOOP('',(#117));
#406=EDGE_LOOP('',(#118));
#407=EDGE_LOOP('',(#119));
#408=EDGE_LOOP('',(#120));
#409=EDGE_LOOP('',(#121));
#410=EDGE_LOOP('',(#122));
#411=EDGE_LOOP('',(#123));
#412=EDGE_LOOP('',(#124));
#413=EDGE_LOOP('',(#125));
#414=EDGE_LOOP('',(#126));
#415=EDGE_LOOP('',(#127));
#416=EDGE_LOOP('',(#128));
#417=EDGE_LOOP('',(#129));
#418=EDGE_LOOP('',(#130));
#419=EDGE_LOOP('',(#131));
#420=EDGE_LOOP('',(#132));
#421=EDGE_LOOP('',(#133));
#422=EDGE_LOOP('',(#134));
#423=EDGE_LOOP('',(#135));
#424=EDGE_LOOP('',(#136,#137,#138,#139,#140,#141,#142,#143));
#425=EDGE_LOOP('',(#144));
#426=EDGE_LOOP('',(#145,#146,#147,#148));
#427=EDGE_LOOP('',(#149));
#428=EDGE_LOOP('',(#150,#151,#152,#153,#154,#155,#156,#157,#158,#159,#160,
#161));
#429=EDGE_LOOP('',(#162));
#430=EDGE_LOOP('',(#163,#164,#165,#166,#167,#168));
#431=EDGE_LOOP('',(#169,#170,#171,#172,#173,#174,#175,#176,#177,#178,#179,
#180));
#432=EDGE_LOOP('',(#181,#182,#183,#184));
#433=EDGE_LOOP('',(#185,#186,#187,#188));
#434=EDGE_LOOP('',(#189,#190,#191,#192));
#435=EDGE_LOOP('',(#193,#194,#195,#196));
#436=EDGE_LOOP('',(#197));
#437=EDGE_LOOP('',(#198,#199,#200,#201));
#438=EDGE_LOOP('',(#202));
#439=EDGE_LOOP('',(#203,#204,#205,#206,#207,#208));
#440=EDGE_LOOP('',(#209));
#441=EDGE_LOOP('',(#210,#211,#212,#213));
#442=EDGE_LOOP('',(#214,#215,#216,#217));
#443=EDGE_LOOP('',(#218,#219,#220,#221));
#444=EDGE_LOOP('',(#222,#223));
#445=EDGE_LOOP('',(#224,#225));
#446=EDGE_LOOP('',(#226));
#447=EDGE_LOOP('',(#227));
#448=EDGE_LOOP('',(#228));
#449=EDGE_LOOP('',(#229));
#450=EDGE_LOOP('',(#230));
#451=EDGE_LOOP('',(#231));
#452=EDGE_LOOP('',(#232));
#453=EDGE_LOOP('',(#233));
#454=EDGE_LOOP('',(#234));
#455=EDGE_LOOP('',(#235));
#456=FACE_BOUND('',#388,.T.);
#457=FACE_BOUND('',#389,.T.);
#458=FACE_BOUND('',#390,.T.);
#459=FACE_BOUND('',#391,.T.);
#460=FACE_BOUND('',#392,.T.);
#461=FACE_BOUND('',#393,.T.);
#462=FACE_BOUND('',#394,.T.);
#463=FACE_BOUND('',#395,.T.);
#464=FACE_BOUND('',#396,.T.);
#465=FACE_BOUND('',#397,.T.);
#466=FACE_BOUND('',#398,.T.);
#467=FACE_BOUND('',#399,.T.);
#468=FACE_BOUND('',#400,.T.);
#469=FACE_BOUND('',#401,.T.);
#470=FACE_BOUND('',#402,.T.);
#471=FACE_BOUND('',#403,.T.);
#472=FACE_BOUND('',#404,.T.);
#473=FACE_BOUND('',#405,.T.);
#474=FACE_BOUND('',#406,.T.);
#475=FACE_BOUND('',#407,.T.);
#476=FACE_BOUND('',#408,.T.);
#477=FACE_BOUND('',#409,.T.);
#478=FACE_BOUND('',#410,.T.);
#479=FACE_BOUND('',#411,.T.);
#480=FACE_BOUND('',#412,.T.);
#481=FACE_BOUND('',#413,.T.);
#482=FACE_BOUND('',#414,.T.);
#483=FACE_BOUND('',#415,.T.);
#484=FACE_BOUND('',#416,.T.);
#485=FACE_BOUND('',#417,.T.);
#486=FACE_BOUND('',#418,.T.);
#487=FACE_BOUND('',#419,.T.);
#488=FACE_BOUND('',#420,.T.);
#489=FACE_BOUND('',#421,.T.);
#490=FACE_BOUND('',#422,.T.);
#491=FACE_BOUND('',#423,.T.);
#492=FACE_BOUND('',#424,.T.);
#493=FACE_BOUND('',#425,.T.);
#494=FACE_BOUND('',#426,.T.);
#495=FACE_BOUND('',#427,.T.);
#496=FACE_BOUND('',#428,.T.);
#497=FACE_BOUND('',#429,.T.);
#498=FACE_BOUND('',#430,.T.);
#499=FACE_BOUND('',#431,.T.);
#500=FACE_BOUND('',#432,.T.);
#501=FACE_BOUND('',#433,.T.);
#502=FACE_BOUND('',#434,.T.);
#503=FACE_BOUND('',#435,.T.);
#504=FACE_BOUND('',#436,.T.);
#505=FACE_BOUND('',#437,.T.);
#506=FACE_BOUND('',#438,.T.);
#507=FACE_BOUND('',#439,.T.);
#508=FACE_BOUND('',#440,.T.);
#509=FACE_BOUND('',#441,.T.);
#510=FACE_BOUND('',#442,.T.);
#511=FACE_BOUND('',#443,.T.);
#512=FACE_BOUND('',#444,.T.);
#513=FACE_BOUND('',#445,.T.);
#514=FACE_BOUND('',#446,.T.);
#515=FACE_BOUND('',#447,.T.);
#516=FACE_BOUND('',#448,.T.);
#517=FACE_BOUND('',#449,.T.);
#518=FACE_BOUND('',#450,.T.);
#519=FACE_BOUND('',#451,.T.);
#520=FACE_BOUND('',#452,.T.);
#521=FACE_BOUND('',#453,.T.);
#522=FACE_BOUND('',#454,.T.);
#523=FACE_BOUND('',#455,.T.);
#524=CYLINDRICAL_SURFACE('',#605,0.022);
#525=CYLINDRICAL_SURFACE('',#611,0.032);
#526=CYLINDRICAL_SURFACE('',#615,0.024);
#527=CYLINDRICAL_SURFACE('',#620,0.024);
#528=CYLINDRICAL_SURFACE('',#624,0.032);
#529=CYLINDRICAL_SURFACE('',#628,0.018);
#530=CYLINDRICAL_SURFACE('',#629,0.003);
#531=CYLINDRICAL_SURFACE('',#631,0.003);
#532=CYLINDRICAL_SURFACE('',#632,0.004);
#533=CYLINDRICAL_SURFACE('',#636,0.048);
#534=CYLINDRICAL_SURFACE('',#639,0.024);
#535=CYLINDRICAL_SURFACE('',#662,0.054);
#536=CYLINDRICAL_SURFACE('',#663,0.054);
#537=CYLINDRICAL_SURFACE('',#664,0.016);
#538=CYLINDRICAL_SURFACE('',#665,0.016);
#539=CYLINDRICAL_SURFACE('',#666,0.00675);
#540=CYLINDRICAL_SURFACE('',#667,0.00675);
#541=CYLINDRICAL_SURFACE('',#668,0.004);
#542=CYLINDRICAL_SURFACE('',#670,0.003);
#543=ADVANCED_FACE('',(#456,#457,#458,#459),#524,.T.);
#544=ADVANCED_FACE('',(#460,#461),#74,.F.);
#545=ADVANCED_FACE('',(#462,#463),#525,.T.);
#546=ADVANCED_FACE('',(#464,#465),#75,.F.);
#547=ADVANCED_FACE('',(#466,#467),#526,.T.);
#548=ADVANCED_FACE('',(#468,#469),#76,.F.);
#549=ADVANCED_FACE('',(#470,#471),#77,.T.);
#550=ADVANCED_FACE('',(#472,#473),#527,.T.);
#551=ADVANCED_FACE('',(#474,#475),#78,.T.);
#552=ADVANCED_FACE('',(#476,#477),#528,.T.);
#553=ADVANCED_FACE('',(#478,#479),#79,.T.);
#554=ADVANCED_FACE('',(#480,#481,#482,#483),#529,.F.);
#555=ADVANCED_FACE('',(#484,#485),#530,.F.);
#556=ADVANCED_FACE('',(#486,#487),#531,.F.);
#557=ADVANCED_FACE('',(#488,#489),#532,.T.);
#558=ADVANCED_FACE('',(#490,#491),#80,.T.);
#559=ADVANCED_FACE('',(#492,#493),#533,.T.);
#560=ADVANCED_FACE('',(#494,#495),#534,.F.);
#561=ADVANCED_FACE('',(#496),#81,.F.);
#562=ADVANCED_FACE('',(#497,#498),#82,.T.);
#563=ADVANCED_FACE('',(#499),#83,.T.);
#564=ADVANCED_FACE('',(#500),#84,.T.);
#565=ADVANCED_FACE('',(#501),#85,.T.);
#566=ADVANCED_FACE('',(#502),#86,.F.);
#567=ADVANCED_FACE('',(#503),#87,.F.);
#568=ADVANCED_FACE('',(#504,#505),#88,.F.);
#569=ADVANCED_FACE('',(#506,#507),#89,.F.);
#570=ADVANCED_FACE('',(#508,#509),#90,.T.);
#571=ADVANCED_FACE('',(#510),#535,.T.);
#572=ADVANCED_FACE('',(#511),#536,.T.);
#573=ADVANCED_FACE('',(#512),#537,.F.);
#574=ADVANCED_FACE('',(#513),#538,.F.);
#575=ADVANCED_FACE('',(#514,#515),#539,.F.);
#576=ADVANCED_FACE('',(#516,#517),#540,.F.);
#577=ADVANCED_FACE('',(#518,#519),#541,.F.);
#578=ADVANCED_FACE('',(#520,#521),#542,.F.);
#579=ADVANCED_FACE('',(#522,#523),#91,.T.);
#580=CLOSED_SHELL('',(#543,#544,#545,#546,#547,#548,#549,#550,#551,#552,
#553,#554,#555,#556,#557,#558));
#581=CLOSED_SHELL('',(#559,#560,#561,#562,#563,#564,#565,#566,#567,#568,
#569,#570,#571,#572,#573,#574,#575,#576,#577,#578,#579));
#582=STYLED_ITEM('',(#584),#598);
#583=STYLED_ITEM('',(#585),#599);
#584=PRESENTATION_STYLE_ASSIGNMENT((#586));
#585=PRESENTATION_STYLE_ASSIGNMENT((#587));
#586=SURFACE_STYLE_USAGE(.BOTH.,#588);
#587=SURFACE_STYLE_USAGE(.BOTH.,#589);
#588=SURFACE_SIDE_STYLE('',(#590));
#589=SURFACE_SIDE_STYLE('',(#591));
#590=SURFACE_STYLE_FILL_AREA(#592);
#591=SURFACE_STYLE_FILL_AREA(#593);
#592=FILL_AREA_STYLE('',(#594));
#593=FILL_AREA_STYLE('',(#595));
#594=FILL_AREA_STYLE_COLOUR('',#596);
#595=FILL_AREA_STYLE_COLOUR('',#597);
#596=COLOUR_RGB('',0.615686274509804,0.811764705882353,0.929411764705882);
#597=COLOUR_RGB('',0.647058823529412,0.647058823529412,0.647058823529412);
#598=MANIFOLD_SOLID_BREP('Part 1',#580);
#599=MANIFOLD_SOLID_BREP('Part 2',#581);
#600=SHAPE_DEFINITION_REPRESENTATION(#1096,#602);
#601=SHAPE_DEFINITION_REPRESENTATION(#1097,#603);
#602=SHAPE_REPRESENTATION('Part 1',(#604),#1086);
#603=SHAPE_REPRESENTATION('Part 2',(#635),#1087);
#604=AXIS2_PLACEMENT_3D('',#841,#673,#674);
#605=AXIS2_PLACEMENT_3D('',#842,#675,#676);
#606=AXIS2_PLACEMENT_3D('',#843,#677,#678);
#607=AXIS2_PLACEMENT_3D('',#845,#679,#680);
#608=AXIS2_PLACEMENT_3D('',#871,#681,#682);
#609=AXIS2_PLACEMENT_3D('',#872,#683,#684);
#610=AXIS2_PLACEMENT_3D('',#874,#685,#686);
#611=AXIS2_PLACEMENT_3D('',#876,#687,#688);
#612=AXIS2_PLACEMENT_3D('',#877,#689,#690);
#613=AXIS2_PLACEMENT_3D('',#879,#691,#692);
#614=AXIS2_PLACEMENT_3D('',#880,#693,#694);
#615=AXIS2_PLACEMENT_3D('',#882,#695,#696);
#616=AXIS2_PLACEMENT_3D('',#883,#697,#698);
#617=AXIS2_PLACEMENT_3D('',#885,#699,#700);
#618=AXIS2_PLACEMENT_3D('',#886,#701,#702);
#619=AXIS2_PLACEMENT_3D('',#887,#703,#704);
#620=AXIS2_PLACEMENT_3D('',#889,#705,#706);
#621=AXIS2_PLACEMENT_3D('',#890,#707,#708);
#622=AXIS2_PLACEMENT_3D('',#892,#709,#710);
#623=AXIS2_PLACEMENT_3D('',#893,#711,#712);
#624=AXIS2_PLACEMENT_3D('',#895,#713,#714);
#625=AXIS2_PLACEMENT_3D('',#896,#715,#716);
#626=AXIS2_PLACEMENT_3D('',#898,#717,#718);
#627=AXIS2_PLACEMENT_3D('',#899,#719,#720);
#628=AXIS2_PLACEMENT_3D('',#901,#721,#722);
#629=AXIS2_PLACEMENT_3D('',#926,#723,#724);
#630=AXIS2_PLACEMENT_3D('',#927,#725,#726);
#631=AXIS2_PLACEMENT_3D('',#929,#727,#728);
#632=AXIS2_PLACEMENT_3D('',#930,#729,#730);
#633=AXIS2_PLACEMENT_3D('',#931,#731,#732);
#634=AXIS2_PLACEMENT_3D('',#933,#733,#734);
#635=AXIS2_PLACEMENT_3D('',#934,#735,#736);
#636=AXIS2_PLACEMENT_3D('',#935,#737,#738);
#637=AXIS2_PLACEMENT_3D('',#952,#740,#741);
#638=AXIS2_PLACEMENT_3D('',#971,#744,#745);
#639=AXIS2_PLACEMENT_3D('',#986,#747,#748);
#640=AXIS2_PLACEMENT_3D('',#987,#749,#750);
#641=AXIS2_PLACEMENT_3D('',#992,#752,#753);
#642=AXIS2_PLACEMENT_3D('',#1007,#755,#756);
#643=AXIS2_PLACEMENT_3D('',#1026,#767,#768);
#644=AXIS2_PLACEMENT_3D('',#1027,#769,#770);
#645=AXIS2_PLACEMENT_3D('',#1029,#771,#772);
#646=AXIS2_PLACEMENT_3D('',#1032,#774,#775);
#647=AXIS2_PLACEMENT_3D('',#1033,#776,#777);
#648=AXIS2_PLACEMENT_3D('',#1050,#787,#788);
#649=AXIS2_PLACEMENT_3D('',#1053,#791,#792);
#650=AXIS2_PLACEMENT_3D('',#1054,#793,#794);
#651=AXIS2_PLACEMENT_3D('',#1056,#796,#797);
#652=AXIS2_PLACEMENT_3D('',#1058,#799,#800);
#653=AXIS2_PLACEMENT_3D('',#1059,#801,#802);
#654=AXIS2_PLACEMENT_3D('',#1061,#803,#804);
#655=AXIS2_PLACEMENT_3D('',#1062,#805,#806);
#656=AXIS2_PLACEMENT_3D('',#1063,#807,#808);
#657=AXIS2_PLACEMENT_3D('',#1065,#809,#810);
#658=AXIS2_PLACEMENT_3D('',#1066,#811,#812);
#659=AXIS2_PLACEMENT_3D('',#1067,#813,#814);
#660=AXIS2_PLACEMENT_3D('',#1068,#815,#816);
#661=AXIS2_PLACEMENT_3D('',#1070,#817,#818);
#662=AXIS2_PLACEMENT_3D('',#1071,#819,#820);
#663=AXIS2_PLACEMENT_3D('',#1072,#821,#822);
#664=AXIS2_PLACEMENT_3D('',#1073,#823,#824);
#665=AXIS2_PLACEMENT_3D('',#1074,#825,#826);
#666=AXIS2_PLACEMENT_3D('',#1075,#827,#828);
#667=AXIS2_PLACEMENT_3D('',#1076,#829,#830);
#668=AXIS2_PLACEMENT_3D('',#1077,#831,#832);
#669=AXIS2_PLACEMENT_3D('',#1078,#833,#834);
#670=AXIS2_PLACEMENT_3D('',#1080,#835,#836);
#671=AXIS2_PLACEMENT_3D('',#1081,#837,#838);
#672=AXIS2_PLACEMENT_3D('',#1083,#839,#840);
#673=DIRECTION('',(0.,0.,1.));
#674=DIRECTION('',(1.,0.,0.));
#675=DIRECTION('',(-1.,0.,0.));
#676=DIRECTION('',(0.,0.,1.));
#677=DIRECTION('',(-1.,0.,0.));
#678=DIRECTION('',(0.,0.,1.));
#679=DIRECTION('',(-1.,0.,0.));
#680=DIRECTION('',(0.,0.,1.));
#681=DIRECTION('',(-1.,0.,0.));
#682=DIRECTION('',(0.,0.,1.));
#683=DIRECTION('',(-1.,0.,0.));
#684=DIRECTION('',(0.,0.,1.));
#685=DIRECTION('',(-1.,0.,0.));
#686=DIRECTION('',(0.,0.,1.));
#687=DIRECTION('',(-1.,0.,0.));
#688=DIRECTION('',(0.,0.,1.));
#689=DIRECTION('',(-1.,0.,0.));
#690=DIRECTION('',(0.,0.,1.));
#691=DIRECTION('',(1.,0.,0.));
#692=DIRECTION('',(0.,0.,-1.));
#693=DIRECTION('',(-1.,0.,0.));
#694=DIRECTION('',(0.,0.,1.));
#695=DIRECTION('',(-1.,0.,0.));
#696=DIRECTION('',(0.,0.,1.));
#697=DIRECTION('',(-1.,0.,0.));
#698=DIRECTION('',(0.,0.,1.));
#699=DIRECTION('',(1.,0.,0.));
#700=DIRECTION('',(0.,0.,-1.));
#701=DIRECTION('',(1.,0.,0.));
#702=DIRECTION('',(0.,0.,-1.));
#703=DIRECTION('',(-1.,0.,0.));
#704=DIRECTION('',(0.,0.,1.));
#705=DIRECTION('',(-1.,0.,0.));
#706=DIRECTION('',(0.,0.,1.));
#707=DIRECTION('',(-1.,0.,0.));
#708=DIRECTION('',(0.,0.,1.));
#709=DIRECTION('',(1.,0.,0.));
#710=DIRECTION('',(0.,0.,-1.));
#711=DIRECTION('',(-1.,0.,0.));
#712=DIRECTION('',(0.,0.,1.));
#713=DIRECTION('',(-1.,0.,0.));
#714=DIRECTION('',(0.,0.,1.));
#715=DIRECTION('',(-1.,0.,0.));
#716=DIRECTION('',(0.,0.,1.));
#717=DIRECTION('',(-1.,0.,0.));
#718=DIRECTION('',(0.,0.,1.));
#719=DIRECTION('',(-1.,0.,0.));
#720=DIRECTION('',(0.,0.,1.));
#721=DIRECTION('',(-1.,0.,0.));
#722=DIRECTION('',(0.,0.,1.));
#723=DIRECTION('',(0.,-1.,0.));
#724=DIRECTION('',(0.,0.,-1.));
#725=DIRECTION('',(0.,-1.,0.));
#726=DIRECTION('',(0.,0.,-1.));
#727=DIRECTION('',(0.,-1.,0.));
#728=DIRECTION('',(0.,0.,-1.));
#729=DIRECTION('',(0.,1.,0.));
#730=DIRECTION('',(0.,0.,1.));
#731=DIRECTION('',(0.,-1.,0.));
#732=DIRECTION('',(0.,0.,-1.));
#733=DIRECTION('',(0.,-1.,0.));
#734=DIRECTION('',(1.,0.,0.));
#735=DIRECTION('',(0.,0.,1.));
#736=DIRECTION('',(1.,0.,0.));
#737=DIRECTION('',(-1.,0.,0.));
#738=DIRECTION('',(0.,0.,1.));
#739=DIRECTION('',(-1.,0.,0.));
#740=DIRECTION('',(1.,0.,0.));
#741=DIRECTION('',(0.,0.,-1.));
#742=DIRECTION('',(-1.,0.,0.));
#743=DIRECTION('',(-1.,0.,0.));
#744=DIRECTION('',(1.,0.,0.));
#745=DIRECTION('',(0.,0.,-1.));
#746=DIRECTION('',(-1.,0.,0.));
#747=DIRECTION('',(-1.,0.,0.));
#748=DIRECTION('',(0.,0.,1.));
#749=DIRECTION('',(1.,0.,0.));
#750=DIRECTION('',(0.,0.,-1.));
#751=DIRECTION('',(-1.,0.,0.));
#752=DIRECTION('',(1.,0.,0.));
#753=DIRECTION('',(0.,0.,-1.));
#754=DIRECTION('',(-1.,0.,0.));
#755=DIRECTION('',(1.,0.,0.));
#756=DIRECTION('',(0.,1.,0.));
#757=DIRECTION('',(0.,0.,1.));
#758=DIRECTION('',(0.,1.,0.));
#759=DIRECTION('',(0.,0.,1.));
#760=DIRECTION('',(0.,1.,0.));
#761=DIRECTION('',(0.,-1.,0.));
#762=DIRECTION('',(0.,0.,1.));
#763=DIRECTION('',(0.,-1.,0.));
#764=DIRECTION('',(0.,0.,1.));
#765=DIRECTION('',(0.,1.,0.));
#766=DIRECTION('',(0.,-1.,0.));
#767=DIRECTION('',(0.,0.,1.));
#768=DIRECTION('',(1.,0.,0.));
#769=DIRECTION('',(0.,0.,-1.));
#770=DIRECTION('',(-1.,0.,0.));
#771=DIRECTION('',(0.,0.,1.));
#772=DIRECTION('',(1.,0.,0.));
#773=DIRECTION('',(0.,1.,0.));
#774=DIRECTION('',(0.,0.,1.));
#775=DIRECTION('',(1.,0.,0.));
#776=DIRECTION('',(1.,0.,0.));
#777=DIRECTION('',(0.,1.,0.));
#778=DIRECTION('',(0.,0.,1.));
#779=DIRECTION('',(0.,-1.,0.));
#780=DIRECTION('',(0.,0.,1.));
#781=DIRECTION('',(0.,-1.,0.));
#782=DIRECTION('',(0.,1.,0.));
#783=DIRECTION('',(0.,0.,1.));
#784=DIRECTION('',(0.,1.,0.));
#785=DIRECTION('',(0.,0.,1.));
#786=DIRECTION('',(0.,-1.,0.));
#787=DIRECTION('',(0.,-1.,0.));
#788=DIRECTION('',(0.,0.,-1.));
#789=DIRECTION('',(-1.,0.,0.));
#790=DIRECTION('',(-1.,0.,0.));
#791=DIRECTION('',(0.,0.,-1.));
#792=DIRECTION('',(-1.,0.,0.));
#793=DIRECTION('',(0.,0.,1.));
#794=DIRECTION('',(1.,0.,0.));
#795=DIRECTION('',(-1.,0.,0.));
#796=DIRECTION('',(0.,-1.,0.));
#797=DIRECTION('',(0.,0.,-1.));
#798=DIRECTION('',(-1.,0.,0.));
#799=DIRECTION('',(0.,0.,1.));
#800=DIRECTION('',(1.,0.,0.));
#801=DIRECTION('',(0.,0.,1.));
#802=DIRECTION('',(1.,0.,0.));
#803=DIRECTION('',(0.,0.,1.));
#804=DIRECTION('',(1.,0.,0.));
#805=DIRECTION('',(0.,0.,-1.));
#806=DIRECTION('',(-1.,0.,0.));
#807=DIRECTION('',(0.,0.,-1.));
#808=DIRECTION('',(-1.,0.,0.));
#809=DIRECTION('',(0.,0.,1.));
#810=DIRECTION('',(1.,0.,0.));
#811=DIRECTION('',(0.,0.,1.));
#812=DIRECTION('',(1.,0.,0.));
#813=DIRECTION('',(0.,0.,-1.));
#814=DIRECTION('',(-1.,0.,0.));
#815=DIRECTION('',(0.,0.,-1.));
#816=DIRECTION('',(-1.,0.,0.));
#817=DIRECTION('',(0.,0.,-1.));
#818=DIRECTION('',(-1.,0.,0.));
#819=DIRECTION('',(0.,0.,1.));
#820=DIRECTION('',(1.,0.,0.));
#821=DIRECTION('',(0.,0.,1.));
#822=DIRECTION('',(1.,0.,0.));
#823=DIRECTION('',(0.,0.,-1.));
#824=DIRECTION('',(-1.,0.,0.));
#825=DIRECTION('',(0.,0.,-1.));
#826=DIRECTION('',(-1.,0.,0.));
#827=DIRECTION('',(0.,0.,-1.));
#828=DIRECTION('',(-1.,0.,0.));
#829=DIRECTION('',(0.,0.,-1.));
#830=DIRECTION('',(-1.,0.,0.));
#831=DIRECTION('',(0.,0.,-1.));
#832=DIRECTION('',(-1.,0.,0.));
#833=DIRECTION('',(0.,0.,-1.));
#834=DIRECTION('',(-1.,0.,0.));
#835=DIRECTION('',(0.,0.,-1.));
#836=DIRECTION('',(-1.,0.,0.));
#837=DIRECTION('',(0.,0.,-1.));
#838=DIRECTION('',(-1.,0.,0.));
#839=DIRECTION('',(0.,0.,1.));
#840=DIRECTION('',(1.,0.,0.));
#841=CARTESIAN_POINT('',(0.,0.,0.));
#842=CARTESIAN_POINT('',(0.,0.,0.));
#843=CARTESIAN_POINT('',(0.014,0.,0.));
#844=CARTESIAN_POINT('',(0.014,0.,0.022));
#845=CARTESIAN_POINT('',(-0.014,0.,0.));
#846=CARTESIAN_POINT('',(-0.014,0.,0.022));
#847=CARTESIAN_POINT('',(-0.0023534167096722,0.0218979840151199,-0.00234889518266947));
#848=CARTESIAN_POINT('',(5.7491862535345E-7,0.0217427977022283,-0.00332537410535257));
#849=CARTESIAN_POINT('',(0.00235111703517078,0.021897793482187,-0.00234960839592023));
#850=CARTESIAN_POINT('',(0.00332424952933991,0.0220510917887573,-2.74369744117682E-6));
#851=CARTESIAN_POINT('',(0.0023518820267142,0.0218978389781352,0.00235050612335075));
#852=CARTESIAN_POINT('',(7.30397846120339E-7,0.0217429272870807,0.00332405363975255));
#853=CARTESIAN_POINT('',(-0.00234797111162367,0.0218974203582595,0.00235327802088499));
#854=CARTESIAN_POINT('',(-0.00332465130471092,0.0220511486693872,2.86152218366401E-6));
#855=CARTESIAN_POINT('',(-0.0023534167096722,0.0218979840151199,-0.00234889518266947));
#856=CARTESIAN_POINT('',(5.7491862535345E-7,0.0217427977022283,-0.00332537410535257));
#857=CARTESIAN_POINT('',(0.00235111703517078,0.021897793482187,-0.00234960839592023));
#858=CARTESIAN_POINT('',(-1.72770520591848E-20,0.0217944947177033,-0.003));
#859=CARTESIAN_POINT('',(0.00313773146448377,-0.0218186271417258,0.00313180917297327));
#860=CARTESIAN_POINT('',(-7.25603493472728E-7,-0.0215407279251371,0.00443387585021798));
#861=CARTESIAN_POINT('',(-0.00313482905050988,-0.0218183070744295,0.00313268742615482));
#862=CARTESIAN_POINT('',(-0.00443248286514018,-0.0220908435122831,3.97504460495607E-6));
#863=CARTESIAN_POINT('',(-0.00313523542586582,-0.0218183181376994,-0.0031346223965138));
#864=CARTESIAN_POINT('',(-1.29357124439626E-6,-0.0215409680854246,-0.00443189179792288));
#865=CARTESIAN_POINT('',(0.00313084330064516,-0.0218176557898341,-0.00313780850520704));
#866=CARTESIAN_POINT('',(0.00443285458281318,-0.0220909289533092,-3.0510846567888E-6));
#867=CARTESIAN_POINT('',(0.00313773146448377,-0.0218186271417258,0.00313180917297327));
#868=CARTESIAN_POINT('',(-7.25603493472728E-7,-0.0215407279251371,0.00443387585021798));
#869=CARTESIAN_POINT('',(-0.00313482905050988,-0.0218183070744295,0.00313268742615482));
#870=CARTESIAN_POINT('',(-3.20872352568419E-20,-0.0216333076527839,0.004));
#871=CARTESIAN_POINT('',(0.032,0.,0.025));
#872=CARTESIAN_POINT('',(0.032,0.,0.));
#873=CARTESIAN_POINT('',(0.032,0.,0.032));
#874=CARTESIAN_POINT('',(0.032,0.,0.));
#875=CARTESIAN_POINT('',(0.032,0.,0.018));
#876=CARTESIAN_POINT('',(0.,0.,0.));
#877=CARTESIAN_POINT('',(0.023,0.,0.));
#878=CARTESIAN_POINT('',(0.023,0.,0.032));
#879=CARTESIAN_POINT('',(0.023,0.,0.028));
#880=CARTESIAN_POINT('',(0.023,0.,0.));
#881=CARTESIAN_POINT('',(0.023,0.,0.024));
#882=CARTESIAN_POINT('',(0.,0.,0.));
#883=CARTESIAN_POINT('',(0.014,0.,0.));
#884=CARTESIAN_POINT('',(0.014,0.,0.024));
#885=CARTESIAN_POINT('',(0.014,0.,0.023));
#886=CARTESIAN_POINT('',(-0.014,0.,0.023));
#887=CARTESIAN_POINT('',(-0.014,0.,0.));
#888=CARTESIAN_POINT('',(-0.014,0.,0.024));
#889=CARTESIAN_POINT('',(0.,0.,0.));
#890=CARTESIAN_POINT('',(-0.023,0.,0.));
#891=CARTESIAN_POINT('',(-0.023,0.,0.024));
#892=CARTESIAN_POINT('',(-0.023,0.,0.028));
#893=CARTESIAN_POINT('',(-0.023,0.,0.));
#894=CARTESIAN_POINT('',(-0.023,0.,0.032));
#895=CARTESIAN_POINT('',(0.,0.,0.));
#896=CARTESIAN_POINT('',(-0.032,0.,0.));
#897=CARTESIAN_POINT('',(-0.032,0.,0.032));
#898=CARTESIAN_POINT('',(-0.032,0.,0.025));
#899=CARTESIAN_POINT('',(-0.032,0.,0.));
#900=CARTESIAN_POINT('',(-0.032,0.,0.018));
#901=CARTESIAN_POINT('',(0.,0.,0.));
#902=CARTESIAN_POINT('',(-0.00235334863912533,0.0178753094008711,-0.00234886194022772));
#903=CARTESIAN_POINT('',(5.56768230458224E-7,0.0176847606473195,-0.00332539793997844));
#904=CARTESIAN_POINT('',(0.00235112156620349,0.0178750841056439,-0.00234954629985852));
#905=CARTESIAN_POINT('',(0.0033243212094011,0.0180624516853881,-2.89657742783902E-6));
#906=CARTESIAN_POINT('',(0.00235159063169921,0.0178751086587217,0.00235080198829697));
#907=CARTESIAN_POINT('',(8.82831453514592E-7,0.0176849238544161,0.00332396513543931));
#908=CARTESIAN_POINT('',(-0.00234806772407076,0.0178746322530555,0.00235333608766215));
#909=CARTESIAN_POINT('',(-0.00332464446154973,0.0180625143452432,2.49101423642869E-6));
#910=CARTESIAN_POINT('',(-0.00235334863912533,0.0178753094008711,-0.00234886194022772));
#911=CARTESIAN_POINT('',(5.56768230458224E-7,0.0176847606473195,-0.00332539793997844));
#912=CARTESIAN_POINT('',(0.00235112156620349,0.0178750841056439,-0.00234954629985852));
#913=CARTESIAN_POINT('',(6.84348626884105E-20,0.0177482393492988,-0.003));
#914=CARTESIAN_POINT('',(0.00235334863912534,-0.0178753094008711,-0.00234886194022771));
#915=CARTESIAN_POINT('',(-5.56768230459688E-7,-0.0176847606473195,-0.00332539793997844));
#916=CARTESIAN_POINT('',(-0.00235112156620349,-0.0178750841056439,-0.00234954629985852));
#917=CARTESIAN_POINT('',(-0.0033243212094011,-0.0180624516853881,-2.89657742784505E-6));
#918=CARTESIAN_POINT('',(-0.00235159063169921,-0.0178751086587217,0.00235080198829697));
#919=CARTESIAN_POINT('',(-8.8283145351932E-7,-0.0176849238544161,0.0033239651354393));
#920=CARTESIAN_POINT('',(0.00234806772407076,-0.0178746322530555,0.00235333608766216));
#921=CARTESIAN_POINT('',(0.00332464446154973,-0.0180625143452432,2.49101423642638E-6));
#922=CARTESIAN_POINT('',(0.00235334863912534,-0.0178753094008711,-0.00234886194022771));
#923=CARTESIAN_POINT('',(-5.56768230459688E-7,-0.0176847606473195,-0.00332539793997844));
#924=CARTESIAN_POINT('',(-0.00235112156620349,-0.0178750841056439,-0.00234954629985852));
#925=CARTESIAN_POINT('',(-1.30709982030276E-19,-0.0177482393492988,-0.003));
#926=CARTESIAN_POINT('',(0.,0.110861251684408,1.83697019872103E-19));
#927=CARTESIAN_POINT('',(1.83697019872103E-19,-0.03,0.));
#928=CARTESIAN_POINT('',(1.83697019872103E-19,-0.03,-0.003));
#929=CARTESIAN_POINT('',(0.,0.110861251684408,1.83697019872103E-19));
#930=CARTESIAN_POINT('',(2.4492935982947E-19,-0.03,0.));
#931=CARTESIAN_POINT('',(2.4492935982947E-19,-0.03,0.));
#932=CARTESIAN_POINT('',(2.4492935982947E-19,-0.03,-0.004));
#933=CARTESIAN_POINT('',(0.,-0.03,0.));
#934=CARTESIAN_POINT('',(0.,0.,0.));
#935=CARTESIAN_POINT('',(0.023,-3.46944695195361E-18,1.38777878078145E-17));
#936=CARTESIAN_POINT('',(0.0142626514770731,-0.0317490157327751,0.036));
#937=CARTESIAN_POINT('',(0.0136946524458297,-0.0306317643468413,0.0369853231063743));
#938=CARTESIAN_POINT('',(0.0126185959858223,-0.0289887564841907,0.0382958271117831));
#939=CARTESIAN_POINT('',(0.0106023550983772,-0.0269520012491591,0.0397315519474965));
#940=CARTESIAN_POINT('',(0.0082928338198819,-0.0251772841069045,0.0408879525610496));
#941=CARTESIAN_POINT('',(0.00477547444881109,-0.0234839658233884,0.0418722665790652));
#942=CARTESIAN_POINT('',(3.04231160748153E-5,-0.0227615866236924,0.0422581587266989));
#943=CARTESIAN_POINT('',(-0.00472649618218848,-0.0234698393928912,0.0418795088873416));
#944=CARTESIAN_POINT('',(-0.0089502953328358,-0.0254802133803429,0.0407144773453977));
#945=CARTESIAN_POINT('',(-0.0122335428717519,-0.0284079752797408,0.0387578992666433));
#946=CARTESIAN_POINT('',(-0.013693896577934,-0.030630277558295,0.0369866343306229));
#947=CARTESIAN_POINT('',(-0.0142626514770731,-0.0317490157327751,0.036));
#948=CARTESIAN_POINT('',(0.0142626514770731,-0.0317490157327751,0.036));
#949=CARTESIAN_POINT('',(-0.0142626514770731,-0.0317490157327751,0.036));
#950=CARTESIAN_POINT('',(0.023,-0.0317490157327751,0.036));
#951=CARTESIAN_POINT('',(0.023,-0.0317490157327751,0.036));
#952=CARTESIAN_POINT('',(0.023,-3.46944695195361E-18,1.38777878078145E-17));
#953=CARTESIAN_POINT('',(0.023,0.0317490157327751,0.036));
#954=CARTESIAN_POINT('',(0.023,0.0317490157327751,0.036));
#955=CARTESIAN_POINT('',(0.0142626514770731,0.0317490157327751,0.036));
#956=CARTESIAN_POINT('',(-0.0142626514770731,0.0317490157327751,0.036));
#957=CARTESIAN_POINT('',(-0.0136946524458297,0.0306317643468413,0.0369853231063743));
#958=CARTESIAN_POINT('',(-0.0126185959858223,0.0289887564841907,0.0382958271117832));
#959=CARTESIAN_POINT('',(-0.0106023550983772,0.0269520012491591,0.0397315519474965));
#960=CARTESIAN_POINT('',(-0.00829283381988191,0.0251772841069045,0.0408879525610497));
#961=CARTESIAN_POINT('',(-0.00477547444881109,0.0234839658233884,0.0418722665790652));
#962=CARTESIAN_POINT('',(-3.04231160748211E-5,0.0227615866236924,0.0422581587266989));
#963=CARTESIAN_POINT('',(0.00472649618218848,0.0234698393928912,0.0418795088873416));
#964=CARTESIAN_POINT('',(0.0089502953328358,0.0254802133803429,0.0407144773453977));
#965=CARTESIAN_POINT('',(0.0122335428717519,0.0284079752797408,0.0387578992666433));
#966=CARTESIAN_POINT('',(0.013693896577934,0.030630277558295,0.0369866343306229));
#967=CARTESIAN_POINT('',(0.0142626514770731,0.0317490157327751,0.036));
#968=CARTESIAN_POINT('',(-0.0142626514770731,0.0317490157327751,0.036));
#969=CARTESIAN_POINT('',(0.023,0.0317490157327751,0.036));
#970=CARTESIAN_POINT('',(-0.023,0.0317490157327751,0.036));
#971=CARTESIAN_POINT('',(-0.023,-3.46944695195361E-18,1.38777878078145E-17));
#972=CARTESIAN_POINT('',(-0.023,-0.0317490157327751,0.036));
#973=CARTESIAN_POINT('',(0.023,-0.0317490157327751,0.036));
#974=CARTESIAN_POINT('',(-0.00313194797555546,0.00313797543494157,0.0479164547090867));
#975=CARTESIAN_POINT('',(-0.00443378034045158,-7.91798719169078E-7,0.0480417325188211));
#976=CARTESIAN_POINT('',(-0.00313293066263822,-0.00313480824006489,0.0479166152156288));
#977=CARTESIAN_POINT('',(-3.38901492825806E-6,-0.00443220856757534,0.0477912732197499));
#978=CARTESIAN_POINT('',(0.00313348269561976,-0.00313635396661866,0.0479165500344144));
#979=CARTESIAN_POINT('',(0.00443223856737528,-7.17160730256078E-7,0.0480416325832738));
#980=CARTESIAN_POINT('',(0.00313756145172708,0.00313050531084898,0.0479169195005612));
#981=CARTESIAN_POINT('',(4.44427800336923E-6,0.00443287696397035,0.0477912211444904));
#982=CARTESIAN_POINT('',(-0.00313194797555546,0.00313797543494157,0.0479164547090867));
#983=CARTESIAN_POINT('',(-0.00443378034045158,-7.91798719169078E-7,0.0480417325188211));
#984=CARTESIAN_POINT('',(-0.00313293066263822,-0.00313480824006489,0.0479166152156288));
#985=CARTESIAN_POINT('',(-0.004,7.4163414615647E-20,0.048));
#986=CARTESIAN_POINT('',(0.023,1.04083408558608E-17,-8.67361737988404E-19));
#987=CARTESIAN_POINT('',(-0.023,1.04083408558608E-17,-8.67361737988404E-19));
#988=CARTESIAN_POINT('',(-0.023,0.0226274169979695,0.008));
#989=CARTESIAN_POINT('',(-0.023,-0.0226274169979695,0.008));
#990=CARTESIAN_POINT('',(0.023,0.0226274169979695,0.008));
#991=CARTESIAN_POINT('',(0.023,0.0226274169979695,0.008));
#992=CARTESIAN_POINT('',(0.023,1.04083408558608E-17,-8.67361737988404E-19));
#993=CARTESIAN_POINT('',(0.023,-0.0226274169979695,0.008));
#994=CARTESIAN_POINT('',(0.023,-0.0226274169979695,0.008));
#995=CARTESIAN_POINT('',(-0.00234889477503999,0.00235345251034588,0.0239060147974724));
#996=CARTESIAN_POINT('',(-0.00332537322714856,-5.80099889412901E-7,0.0240469485308569));
#997=CARTESIAN_POINT('',(-0.00234961231636576,-0.00235113211078823,0.0239061910790999));
#998=CARTESIAN_POINT('',(-2.69539732251136E-6,-0.00332421753484517,0.0237645596140804));
#999=CARTESIAN_POINT('',(0.00235039170504672,-0.00235199497083041,0.0239061416121877));
#1000=CARTESIAN_POINT('',(0.00332409315757513,-6.80193939635269E-7,0.024046831171452));
#1001=CARTESIAN_POINT('',(0.00235323439752244,0.00234796173375968,0.0239065335436132));
#1002=CARTESIAN_POINT('',(2.99052792948902E-6,0.00332464459351116,0.0237645058466069));
#1003=CARTESIAN_POINT('',(-0.00234889477503999,0.00235345251034588,0.0239060147974724));
#1004=CARTESIAN_POINT('',(-0.00332537322714856,-5.80099889412901E-7,0.0240469485308569));
#1005=CARTESIAN_POINT('',(-0.00234961231636576,-0.00235113211078823,0.0239061910790999));
#1006=CARTESIAN_POINT('',(-0.003,1.27487941513934E-19,0.024));
#1007=CARTESIAN_POINT('',(-0.023,0.,0.028));
#1008=CARTESIAN_POINT('',(-0.023,0.0488569340012244,0.007998));
#1009=CARTESIAN_POINT('',(-0.023,0.0488569340012244,0.024));
#1010=CARTESIAN_POINT('',(-0.023,0.0488569340012244,0.036));
#1011=CARTESIAN_POINT('',(-0.023,0.0403137084989848,0.024));
#1012=CARTESIAN_POINT('',(-0.023,0.0266274169979695,0.024));
#1013=CARTESIAN_POINT('',(-0.023,0.0266274169979695,0.016));
#1014=CARTESIAN_POINT('',(-0.023,0.0266274169979695,0.008));
#1015=CARTESIAN_POINT('',(-0.023,0.0246274169979695,0.008));
#1016=CARTESIAN_POINT('',(-0.023,-0.0246274169979695,0.008));
#1017=CARTESIAN_POINT('',(-0.023,-0.0266274169979695,0.008));
#1018=CARTESIAN_POINT('',(-0.023,-0.0266274169979695,0.016));
#1019=CARTESIAN_POINT('',(-0.023,-0.0266274169979695,0.024));
#1020=CARTESIAN_POINT('',(-0.023,-0.0403137084989848,0.024));
#1021=CARTESIAN_POINT('',(-0.023,-0.0488569340012244,0.024));
#1022=CARTESIAN_POINT('',(-0.023,-0.0488569340012244,0.007998));
#1023=CARTESIAN_POINT('',(-0.023,-0.0488569340012244,0.036));
#1024=CARTESIAN_POINT('',(-0.023,-0.0428745078663876,0.036));
#1025=CARTESIAN_POINT('',(-0.023,0.0428745078663876,0.036));
#1026=CARTESIAN_POINT('',(0.023,-0.0428745078663876,0.036));
#1027=CARTESIAN_POINT('',(0.,-0.039,0.036));
#1028=CARTESIAN_POINT('',(-0.00675,-0.039,0.036));
#1029=CARTESIAN_POINT('',(-3.90773591681239E-17,-1.80411241501588E-16,0.036));
#1030=CARTESIAN_POINT('',(0.023,-0.0488569340012244,0.036));
#1031=CARTESIAN_POINT('',(0.023,-0.0428745078663876,0.036));
#1032=CARTESIAN_POINT('',(-1.21430643318376E-17,-0.039,0.036));
#1033=CARTESIAN_POINT('',(0.023,0.,0.028));
#1034=CARTESIAN_POINT('',(0.023,-0.0488569340012244,0.007998));
#1035=CARTESIAN_POINT('',(0.023,-0.0488569340012244,0.024));
#1036=CARTESIAN_POINT('',(0.023,-0.0403137084989848,0.024));
#1037=CARTESIAN_POINT('',(0.023,-0.0266274169979695,0.024));
#1038=CARTESIAN_POINT('',(0.023,-0.0266274169979695,0.016));
#1039=CARTESIAN_POINT('',(0.023,-0.0266274169979695,0.008));
#1040=CARTESIAN_POINT('',(0.023,-0.0246274169979695,0.008));
#1041=CARTESIAN_POINT('',(0.023,0.0246274169979695,0.008));
#1042=CARTESIAN_POINT('',(0.023,0.0266274169979695,0.008));
#1043=CARTESIAN_POINT('',(0.023,0.0266274169979695,0.016));
#1044=CARTESIAN_POINT('',(0.023,0.0266274169979695,0.024));
#1045=CARTESIAN_POINT('',(0.023,0.0403137084989848,0.024));
#1046=CARTESIAN_POINT('',(0.023,0.0488569340012244,0.024));
#1047=CARTESIAN_POINT('',(0.023,0.0488569340012244,0.007998));
#1048=CARTESIAN_POINT('',(0.023,0.0488569340012244,0.036));
#1049=CARTESIAN_POINT('',(0.023,0.0428745078663876,0.036));
#1050=CARTESIAN_POINT('',(0.023,-0.0266274169979695,0.016));
#1051=CARTESIAN_POINT('',(0.023,-0.0266274169979695,0.008));
#1052=CARTESIAN_POINT('',(0.023,-0.0266274169979695,0.024));
#1053=CARTESIAN_POINT('',(0.023,-0.0246274169979695,0.008));
#1054=CARTESIAN_POINT('',(0.023,0.0246274169979695,0.008));
#1055=CARTESIAN_POINT('',(0.023,0.0266274169979695,0.008));
#1056=CARTESIAN_POINT('',(0.023,0.0266274169979695,0.016));
#1057=CARTESIAN_POINT('',(0.023,0.0266274169979695,0.024));
#1058=CARTESIAN_POINT('',(0.023,0.0403137084989848,0.024));
#1059=CARTESIAN_POINT('',(2.54085763352973E-19,0.039,0.024));
#1060=CARTESIAN_POINT('',(0.00675,0.039,0.024));
#1061=CARTESIAN_POINT('',(4.25468061200775E-17,2.70616862252382E-16,0.024));
#1062=CARTESIAN_POINT('',(0.023,0.0428745078663876,0.036));
#1063=CARTESIAN_POINT('',(2.54085763352973E-19,0.039,0.036));
#1064=CARTESIAN_POINT('',(-0.00675,0.039,0.036));
#1065=CARTESIAN_POINT('',(4.25468061200775E-17,2.70616862252382E-16,0.036));
#1066=CARTESIAN_POINT('',(0.,0.039,0.036));
#1067=CARTESIAN_POINT('',(0.023,-0.0403137084989848,0.024));
#1068=CARTESIAN_POINT('',(0.,-0.039,0.024));
#1069=CARTESIAN_POINT('',(-0.00675,-0.039,0.024));
#1070=CARTESIAN_POINT('',(-3.90773591681239E-17,-1.80411241501588E-16,0.024));
#1071=CARTESIAN_POINT('',(-3.90773591681239E-17,-1.80411241501588E-16,0.007998));
#1072=CARTESIAN_POINT('',(4.25468061200775E-17,2.70616862252382E-16,0.007998));
#1073=CARTESIAN_POINT('',(0.,0.039,0.184872352527427));
#1074=CARTESIAN_POINT('',(-1.21430643318376E-17,-0.039,0.184872352527427));
#1075=CARTESIAN_POINT('',(0.,-0.039,0.036));
#1076=CARTESIAN_POINT('',(2.54085763352973E-19,0.039,0.036));
#1077=CARTESIAN_POINT('',(0.,0.,0.048));
#1078=CARTESIAN_POINT('',(0.,0.,0.0318330429724056));
#1079=CARTESIAN_POINT('',(-0.004,0.,0.0318330429724056));
#1080=CARTESIAN_POINT('',(0.,0.,0.048));
#1081=CARTESIAN_POINT('',(0.,0.,0.0318330429724056));
#1082=CARTESIAN_POINT('',(-0.003,0.,0.0318330429724056));
#1083=CARTESIAN_POINT('',(0.004,0.,0.0318330429724056));
#1084=MECHANICAL_DESIGN_GEOMETRIC_PRESENTATION_REPRESENTATION('',(#582),
#1086);
#1085=MECHANICAL_DESIGN_GEOMETRIC_PRESENTATION_REPRESENTATION('',(#583),
#1087);
#1086=(
GEOMETRIC_REPRESENTATION_CONTEXT(3)
GLOBAL_UNCERTAINTY_ASSIGNED_CONTEXT((#1088))
GLOBAL_UNIT_ASSIGNED_CONTEXT((#1094,#1092,#1090))
REPRESENTATION_CONTEXT('Part 1','TOP_LEVEL_ASSEMBLY_PART')
);
#1087=(
GEOMETRIC_REPRESENTATION_CONTEXT(3)
GLOBAL_UNCERTAINTY_ASSIGNED_CONTEXT((#1089))
GLOBAL_UNIT_ASSIGNED_CONTEXT((#1095,#1093,#1091))
REPRESENTATION_CONTEXT('Part 2','TOP_LEVEL_ASSEMBLY_PART')
);
#1088=UNCERTAINTY_MEASURE_WITH_UNIT(LENGTH_MEASURE(2.E-5),#1094,
'DISTANCE_ACCURACY_VALUE','Maximum Tolerance applied to model');
#1089=UNCERTAINTY_MEASURE_WITH_UNIT(LENGTH_MEASURE(2.E-5),#1095,
'DISTANCE_ACCURACY_VALUE','Maximum Tolerance applied to model');
#1090=(
NAMED_UNIT(*)
SI_UNIT($,.STERADIAN.)
SOLID_ANGLE_UNIT()
);
#1091=(
NAMED_UNIT(*)
SI_UNIT($,.STERADIAN.)
SOLID_ANGLE_UNIT()
);
#1092=(
NAMED_UNIT(*)
PLANE_ANGLE_UNIT()
SI_UNIT($,.RADIAN.)
);
#1093=(
NAMED_UNIT(*)
PLANE_ANGLE_UNIT()
SI_UNIT($,.RADIAN.)
);
#1094=(
LENGTH_UNIT()
NAMED_UNIT(*)
SI_UNIT($,.METRE.)
);
#1095=(
LENGTH_UNIT()
NAMED_UNIT(*)
SI_UNIT($,.METRE.)
);
#1096=PRODUCT_DEFINITION_SHAPE('','',#1098);
#1097=PRODUCT_DEFINITION_SHAPE('','',#1099);
#1098=PRODUCT_DEFINITION('','',#1102,#1100);
#1099=PRODUCT_DEFINITION('','',#1103,#1101);
#1100=PRODUCT_DEFINITION_CONTEXT('',#1114,'design');
#1101=PRODUCT_DEFINITION_CONTEXT('',#1115,'design');
#1102=PRODUCT_DEFINITION_FORMATION_WITH_SPECIFIED_SOURCE('','',#1106,
 .NOT_KNOWN.);
#1103=PRODUCT_DEFINITION_FORMATION_WITH_SPECIFIED_SOURCE('','',#1107,
 .NOT_KNOWN.);
#1104=PRODUCT_RELATED_PRODUCT_CATEGORY('','',(#1106));
#1105=PRODUCT_RELATED_PRODUCT_CATEGORY('','',(#1107));
#1106=PRODUCT('Part 1','Part 1','Part 1',(#1110));
#1107=PRODUCT('Part 2','Part 2','Part 2',(#1111));
#1108=PRODUCT_CATEGORY('','');
#1109=PRODUCT_CATEGORY('','');
#1110=PRODUCT_CONTEXT('',#1114,'mechanical');
#1111=PRODUCT_CONTEXT('',#1115,'mechanical');
#1112=APPLICATION_PROTOCOL_DEFINITION('international standard',
'ap242_managed_model_based_3d_engineering',2020,#1114);
#1113=APPLICATION_PROTOCOL_DEFINITION('international standard',
'ap242_managed_model_based_3d_engineering',2020,#1115);
#1114=APPLICATION_CONTEXT('managed model based 3d engineering');
#1115=APPLICATION_CONTEXT('managed model based 3d engineering');
ENDSEC;
END-ISO-10303-21;
