ISO-10303-21;
HEADER;
/* Generated by software containing ST-Developer
 * from STEP Tools, Inc. (www.steptools.com) 
 */
/* OPTION: using custom renumber hook */

FILE_DESCRIPTION(
/* description */ ('STEP AP242 Edition 2',
'CAx-IF Rec.Pracs.---Representation and Presentation of Product Manufa
cturing Information (PMI)---4.0---2014-10-13',
'CAx-IF Rec.Pracs.---3D Tessellated Geometry---0.4---2014-09-14','2;1',
'CAx-IF Rec.Pracs.---User Defined Attributes---1.5---2016-08-15'),
/* implementation_level */ '2;1');

FILE_NAME(
/* name */ 'Part Studio 2',
/* time_stamp */ '2026-09-09T16:35:05Z',
/* author */ (''),
/* organization */ (''),
/* preprocessor_version */ 'ST-DEVELOPER v20',
/* originating_system */ 'ONSHAPE BY PTC INC, 1.220',
/* authorisation */ '  ');

FILE_SCHEMA (('AP242_MANAGED_MODEL_BASED_3D_ENGINEERING_MIM_LF { 1 0 10303 442 3 1 4 }'));
ENDSEC;

DATA;
#10=SHAPE_REPRESENTATION_RELATIONSHIP('','',#733,#11);
#11=ADVANCED_BREP_SHAPE_REPRESENTATION('',(#731),#1188);
#12=PLANE('',#738);
#13=PLANE('',#743);
#14=PLANE('',#744);
#15=PLANE('',#745);
#16=PLANE('',#746);
#17=PLANE('',#748);
#18=PLANE('',#749);
#19=PLANE('',#752);
#20=PLANE('',#753);
#21=PLANE('',#754);
#22=PLANE('',#757);
#23=PLANE('',#758);
#24=PLANE('',#760);
#25=PLANE('',#761);
#26=PLANE('',#762);
#27=PLANE('',#763);
#28=PLANE('',#765);
#29=PLANE('',#767);
#30=PLANE('',#769);
#31=PLANE('',#771);
#32=PLANE('',#772);
#33=PLANE('',#773);
#34=PLANE('',#774);
#35=PLANE('',#775);
#36=PLANE('',#777);
#37=PLANE('',#778);
#38=PLANE('',#779);
#39=PLANE('',#780);
#40=PLANE('',#781);
#41=PLANE('',#785);
#42=B_SPLINE_CURVE_WITH_KNOTS('',3,(#986,#987,#988,#989,#990,#991,#992,
#993,#994,#995,#996),.UNSPECIFIED.,.T.,.F.,(1,1,1,1,1,1,1,1,1,1,1,1,1,1,
1),(-0.00939458174152546,-0.0062630544943503,-0.00313152724717515,1.20582527392048E-19,
0.00313152724717515,0.00626305449435031,0.00939458174152546,0.0125261089887006,
0.0156576362358758,0.0187891634830509,0.0219206907302261,0.0250522179774012,
0.0281837452245764,0.0313152724717515,0.0344467997189267),.UNSPECIFIED.);
#43=LINE('',#981,#123);
#44=LINE('',#985,#124);
#45=LINE('',#999,#125);
#46=LINE('',#1002,#126);
#47=LINE('',#1004,#127);
#48=LINE('',#1006,#128);
#49=LINE('',#1007,#129);
#50=LINE('',#1010,#130);
#51=LINE('',#1012,#131);
#52=LINE('',#1014,#132);
#53=LINE('',#1018,#133);
#54=LINE('',#1022,#134);
#55=LINE('',#1023,#135);
#56=LINE('',#1028,#136);
#57=LINE('',#1031,#137);
#58=LINE('',#1034,#138);
#59=LINE('',#1036,#139);
#60=LINE('',#1038,#140);
#61=LINE('',#1040,#141);
#62=LINE('',#1042,#142);
#63=LINE('',#1044,#143);
#64=LINE('',#1046,#144);
#65=LINE('',#1048,#145);
#66=LINE('',#1050,#146);
#67=LINE('',#1052,#147);
#68=LINE('',#1054,#148);
#69=LINE('',#1056,#149);
#70=LINE('',#1060,#150);
#71=LINE('',#1062,#151);
#72=LINE('',#1064,#152);
#73=LINE('',#1066,#153);
#74=LINE('',#1068,#154);
#75=LINE('',#1070,#155);
#76=LINE('',#1072,#156);
#77=LINE('',#1077,#157);
#78=LINE('',#1080,#158);
#79=LINE('',#1082,#159);
#80=LINE('',#1084,#160);
#81=LINE('',#1086,#161);
#82=LINE('',#1087,#162);
#83=LINE('',#1089,#163);
#84=LINE('',#1091,#164);
#85=LINE('',#1093,#165);
#86=LINE('',#1095,#166);
#87=LINE('',#1100,#167);
#88=LINE('',#1103,#168);
#89=LINE('',#1105,#169);
#90=LINE('',#1107,#170);
#91=LINE('',#1109,#171);
#92=LINE('',#1111,#172);
#93=LINE('',#1113,#173);
#94=LINE('',#1117,#174);
#95=LINE('',#1119,#175);
#96=LINE('',#1121,#176);
#97=LINE('',#1123,#177);
#98=LINE('',#1124,#178);
#99=LINE('',#1128,#179);
#100=LINE('',#1129,#180);
#101=LINE('',#1131,#181);
#102=LINE('',#1133,#182);
#103=LINE('',#1136,#183);
#104=LINE('',#1137,#184);
#105=LINE('',#1139,#185);
#106=LINE('',#1141,#186);
#107=LINE('',#1144,#187);
#108=LINE('',#1146,#188);
#109=LINE('',#1148,#189);
#110=LINE('',#1150,#190);
#111=LINE('',#1152,#191);
#112=LINE('',#1154,#192);
#113=LINE('',#1156,#193);
#114=LINE('',#1158,#194);
#115=LINE('',#1163,#195);
#116=LINE('',#1165,#196);
#117=LINE('',#1167,#197);
#118=LINE('',#1169,#198);
#119=LINE('',#1171,#199);
#120=LINE('',#1173,#200);
#121=LINE('',#1175,#201);
#122=LINE('',#1177,#202);
#123=VECTOR('',#794,1.);
#124=VECTOR('',#797,1.);
#125=VECTOR('',#800,1.);
#126=VECTOR('',#801,1.);
#127=VECTOR('',#802,1.);
#128=VECTOR('',#803,1.);
#129=VECTOR('',#804,1.);
#130=VECTOR('',#805,1.);
#131=VECTOR('',#806,1.);
#132=VECTOR('',#807,1.);
#133=VECTOR('',#810,1.);
#134=VECTOR('',#813,1.);
#135=VECTOR('',#814,1.);
#136=VECTOR('',#817,1.);
#137=VECTOR('',#820,1.);
#138=VECTOR('',#821,1.);
#139=VECTOR('',#822,1.);
#140=VECTOR('',#823,1.);
#141=VECTOR('',#826,1.);
#142=VECTOR('',#827,1.);
#143=VECTOR('',#828,1.);
#144=VECTOR('',#831,1.);
#145=VECTOR('',#832,1.);
#146=VECTOR('',#833,1.);
#147=VECTOR('',#836,1.);
#148=VECTOR('',#837,1.);
#149=VECTOR('',#838,1.);
#150=VECTOR('',#843,1.);
#151=VECTOR('',#844,1.);
#152=VECTOR('',#845,1.);
#153=VECTOR('',#848,1.);
#154=VECTOR('',#849,1.);
#155=VECTOR('',#850,1.);
#156=VECTOR('',#853,1.);
#157=VECTOR('',#856,1.);
#158=VECTOR('',#859,1.);
#159=VECTOR('',#860,1.);
#160=VECTOR('',#861,1.);
#161=VECTOR('',#864,1.);
#162=VECTOR('',#865,1.);
#163=VECTOR('',#868,1.);
#164=VECTOR('',#869,1.);
#165=VECTOR('',#870,1.);
#166=VECTOR('',#873,1.);
#167=VECTOR('',#876,1.);
#168=VECTOR('',#879,1.);
#169=VECTOR('',#880,1.);
#170=VECTOR('',#881,1.);
#171=VECTOR('',#884,1.);
#172=VECTOR('',#885,1.);
#173=VECTOR('',#886,1.);
#174=VECTOR('',#891,1.);
#175=VECTOR('',#892,1.);
#176=VECTOR('',#893,1.);
#177=VECTOR('',#896,1.);
#178=VECTOR('',#897,1.);
#179=VECTOR('',#904,1.);
#180=VECTOR('',#905,1.);
#181=VECTOR('',#908,1.);
#182=VECTOR('',#911,1.);
#183=VECTOR('',#916,1.);
#184=VECTOR('',#917,1.);
#185=VECTOR('',#920,1.);
#186=VECTOR('',#923,1.);
#187=VECTOR('',#928,1.);
#188=VECTOR('',#929,1.);
#189=VECTOR('',#930,1.);
#190=VECTOR('',#933,1.);
#191=VECTOR('',#934,1.);
#192=VECTOR('',#937,1.);
#193=VECTOR('',#938,1.);
#194=VECTOR('',#941,1.);
#195=VECTOR('',#948,1.);
#196=VECTOR('',#949,1.);
#197=VECTOR('',#950,1.);
#198=VECTOR('',#953,1.);
#199=VECTOR('',#954,1.);
#200=VECTOR('',#957,1.);
#201=VECTOR('',#958,1.);
#202=VECTOR('',#961,1.);
#203=ORIENTED_EDGE('',*,*,#395,.F.);
#204=ORIENTED_EDGE('',*,*,#396,.F.);
#205=ORIENTED_EDGE('',*,*,#397,.T.);
#206=ORIENTED_EDGE('',*,*,#398,.T.);
#207=ORIENTED_EDGE('',*,*,#399,.T.);
#208=ORIENTED_EDGE('',*,*,#400,.T.);
#209=ORIENTED_EDGE('',*,*,#401,.T.);
#210=ORIENTED_EDGE('',*,*,#402,.F.);
#211=ORIENTED_EDGE('',*,*,#403,.F.);
#212=ORIENTED_EDGE('',*,*,#404,.T.);
#213=ORIENTED_EDGE('',*,*,#405,.F.);
#214=ORIENTED_EDGE('',*,*,#406,.F.);
#215=ORIENTED_EDGE('',*,*,#407,.T.);
#216=ORIENTED_EDGE('',*,*,#408,.F.);
#217=ORIENTED_EDGE('',*,*,#409,.F.);
#218=ORIENTED_EDGE('',*,*,#410,.F.);
#219=ORIENTED_EDGE('',*,*,#411,.T.);
#220=ORIENTED_EDGE('',*,*,#412,.T.);
#221=ORIENTED_EDGE('',*,*,#413,.T.);
#222=ORIENTED_EDGE('',*,*,#414,.F.);
#223=ORIENTED_EDGE('',*,*,#415,.T.);
#224=ORIENTED_EDGE('',*,*,#416,.T.);
#225=ORIENTED_EDGE('',*,*,#417,.T.);
#226=ORIENTED_EDGE('',*,*,#418,.F.);
#227=ORIENTED_EDGE('',*,*,#419,.F.);
#228=ORIENTED_EDGE('',*,*,#420,.F.);
#229=ORIENTED_EDGE('',*,*,#398,.F.);
#230=ORIENTED_EDGE('',*,*,#421,.T.);
#231=ORIENTED_EDGE('',*,*,#422,.T.);
#232=ORIENTED_EDGE('',*,*,#423,.T.);
#233=ORIENTED_EDGE('',*,*,#424,.F.);
#234=ORIENTED_EDGE('',*,*,#425,.F.);
#235=ORIENTED_EDGE('',*,*,#396,.T.);
#236=ORIENTED_EDGE('',*,*,#426,.T.);
#237=ORIENTED_EDGE('',*,*,#427,.F.);
#238=ORIENTED_EDGE('',*,*,#428,.F.);
#239=ORIENTED_EDGE('',*,*,#424,.T.);
#240=ORIENTED_EDGE('',*,*,#429,.F.);
#241=ORIENTED_EDGE('',*,*,#430,.T.);
#242=ORIENTED_EDGE('',*,*,#431,.F.);
#243=ORIENTED_EDGE('',*,*,#432,.F.);
#244=ORIENTED_EDGE('',*,*,#427,.T.);
#245=ORIENTED_EDGE('',*,*,#433,.T.);
#246=ORIENTED_EDGE('',*,*,#434,.F.);
#247=ORIENTED_EDGE('',*,*,#435,.F.);
#248=ORIENTED_EDGE('',*,*,#431,.T.);
#249=ORIENTED_EDGE('',*,*,#436,.F.);
#250=ORIENTED_EDGE('',*,*,#437,.F.);
#251=ORIENTED_EDGE('',*,*,#438,.T.);
#252=ORIENTED_EDGE('',*,*,#439,.F.);
#253=ORIENTED_EDGE('',*,*,#440,.T.);
#254=ORIENTED_EDGE('',*,*,#441,.F.);
#255=ORIENTED_EDGE('',*,*,#442,.F.);
#256=ORIENTED_EDGE('',*,*,#434,.T.);
#257=ORIENTED_EDGE('',*,*,#443,.T.);
#258=ORIENTED_EDGE('',*,*,#407,.F.);
#259=ORIENTED_EDGE('',*,*,#444,.F.);
#260=ORIENTED_EDGE('',*,*,#441,.T.);
#261=ORIENTED_EDGE('',*,*,#445,.F.);
#262=ORIENTED_EDGE('',*,*,#446,.F.);
#263=ORIENTED_EDGE('',*,*,#447,.T.);
#264=ORIENTED_EDGE('',*,*,#405,.T.);
#265=ORIENTED_EDGE('',*,*,#448,.F.);
#266=ORIENTED_EDGE('',*,*,#449,.F.);
#267=ORIENTED_EDGE('',*,*,#450,.T.);
#268=ORIENTED_EDGE('',*,*,#451,.F.);
#269=ORIENTED_EDGE('',*,*,#452,.F.);
#270=ORIENTED_EDGE('',*,*,#453,.F.);
#271=ORIENTED_EDGE('',*,*,#454,.T.);
#272=ORIENTED_EDGE('',*,*,#446,.T.);
#273=ORIENTED_EDGE('',*,*,#455,.F.);
#274=ORIENTED_EDGE('',*,*,#456,.F.);
#275=ORIENTED_EDGE('',*,*,#457,.T.);
#276=ORIENTED_EDGE('',*,*,#453,.T.);
#277=ORIENTED_EDGE('',*,*,#458,.T.);
#278=ORIENTED_EDGE('',*,*,#459,.F.);
#279=ORIENTED_EDGE('',*,*,#460,.F.);
#280=ORIENTED_EDGE('',*,*,#461,.T.);
#281=ORIENTED_EDGE('',*,*,#456,.T.);
#282=ORIENTED_EDGE('',*,*,#462,.F.);
#283=ORIENTED_EDGE('',*,*,#422,.F.);
#284=ORIENTED_EDGE('',*,*,#463,.T.);
#285=ORIENTED_EDGE('',*,*,#460,.T.);
#286=ORIENTED_EDGE('',*,*,#421,.F.);
#287=ORIENTED_EDGE('',*,*,#397,.F.);
#288=ORIENTED_EDGE('',*,*,#425,.T.);
#289=ORIENTED_EDGE('',*,*,#428,.T.);
#290=ORIENTED_EDGE('',*,*,#432,.T.);
#291=ORIENTED_EDGE('',*,*,#435,.T.);
#292=ORIENTED_EDGE('',*,*,#442,.T.);
#293=ORIENTED_EDGE('',*,*,#444,.T.);
#294=ORIENTED_EDGE('',*,*,#406,.T.);
#295=ORIENTED_EDGE('',*,*,#447,.F.);
#296=ORIENTED_EDGE('',*,*,#454,.F.);
#297=ORIENTED_EDGE('',*,*,#457,.F.);
#298=ORIENTED_EDGE('',*,*,#461,.F.);
#299=ORIENTED_EDGE('',*,*,#463,.F.);
#300=ORIENTED_EDGE('',*,*,#420,.T.);
#301=ORIENTED_EDGE('',*,*,#462,.T.);
#302=ORIENTED_EDGE('',*,*,#459,.T.);
#303=ORIENTED_EDGE('',*,*,#455,.T.);
#304=ORIENTED_EDGE('',*,*,#452,.T.);
#305=ORIENTED_EDGE('',*,*,#445,.T.);
#306=ORIENTED_EDGE('',*,*,#404,.F.);
#307=ORIENTED_EDGE('',*,*,#443,.F.);
#308=ORIENTED_EDGE('',*,*,#440,.F.);
#309=ORIENTED_EDGE('',*,*,#433,.F.);
#310=ORIENTED_EDGE('',*,*,#430,.F.);
#311=ORIENTED_EDGE('',*,*,#426,.F.);
#312=ORIENTED_EDGE('',*,*,#423,.F.);
#313=ORIENTED_EDGE('',*,*,#395,.T.);
#314=ORIENTED_EDGE('',*,*,#448,.T.);
#315=ORIENTED_EDGE('',*,*,#464,.T.);
#316=ORIENTED_EDGE('',*,*,#409,.T.);
#317=ORIENTED_EDGE('',*,*,#465,.F.);
#318=ORIENTED_EDGE('',*,*,#449,.T.);
#319=ORIENTED_EDGE('',*,*,#465,.T.);
#320=ORIENTED_EDGE('',*,*,#408,.T.);
#321=ORIENTED_EDGE('',*,*,#466,.F.);
#322=ORIENTED_EDGE('',*,*,#466,.T.);
#323=ORIENTED_EDGE('',*,*,#411,.F.);
#324=ORIENTED_EDGE('',*,*,#467,.F.);
#325=ORIENTED_EDGE('',*,*,#450,.F.);
#326=ORIENTED_EDGE('',*,*,#451,.T.);
#327=ORIENTED_EDGE('',*,*,#467,.T.);
#328=ORIENTED_EDGE('',*,*,#410,.T.);
#329=ORIENTED_EDGE('',*,*,#464,.F.);
#330=ORIENTED_EDGE('',*,*,#436,.T.);
#331=ORIENTED_EDGE('',*,*,#468,.T.);
#332=ORIENTED_EDGE('',*,*,#412,.F.);
#333=ORIENTED_EDGE('',*,*,#469,.F.);
#334=ORIENTED_EDGE('',*,*,#437,.T.);
#335=ORIENTED_EDGE('',*,*,#469,.T.);
#336=ORIENTED_EDGE('',*,*,#415,.F.);
#337=ORIENTED_EDGE('',*,*,#470,.F.);
#338=ORIENTED_EDGE('',*,*,#470,.T.);
#339=ORIENTED_EDGE('',*,*,#414,.T.);
#340=ORIENTED_EDGE('',*,*,#471,.F.);
#341=ORIENTED_EDGE('',*,*,#438,.F.);
#342=ORIENTED_EDGE('',*,*,#439,.T.);
#343=ORIENTED_EDGE('',*,*,#471,.T.);
#344=ORIENTED_EDGE('',*,*,#413,.F.);
#345=ORIENTED_EDGE('',*,*,#468,.F.);
#346=ORIENTED_EDGE('',*,*,#400,.F.);
#347=ORIENTED_EDGE('',*,*,#472,.F.);
#348=ORIENTED_EDGE('',*,*,#473,.T.);
#349=ORIENTED_EDGE('',*,*,#474,.T.);
#350=ORIENTED_EDGE('',*,*,#403,.T.);
#351=ORIENTED_EDGE('',*,*,#475,.F.);
#352=ORIENTED_EDGE('',*,*,#476,.F.);
#353=ORIENTED_EDGE('',*,*,#472,.T.);
#354=ORIENTED_EDGE('',*,*,#402,.T.);
#355=ORIENTED_EDGE('',*,*,#477,.F.);
#356=ORIENTED_EDGE('',*,*,#478,.F.);
#357=ORIENTED_EDGE('',*,*,#475,.T.);
#358=ORIENTED_EDGE('',*,*,#401,.F.);
#359=ORIENTED_EDGE('',*,*,#474,.F.);
#360=ORIENTED_EDGE('',*,*,#479,.T.);
#361=ORIENTED_EDGE('',*,*,#477,.T.);
#362=ORIENTED_EDGE('',*,*,#480,.T.);
#363=ORIENTED_EDGE('',*,*,#473,.F.);
#364=ORIENTED_EDGE('',*,*,#476,.T.);
#365=ORIENTED_EDGE('',*,*,#478,.T.);
#366=ORIENTED_EDGE('',*,*,#479,.F.);
#367=ORIENTED_EDGE('',*,*,#416,.F.);
#368=ORIENTED_EDGE('',*,*,#481,.F.);
#369=ORIENTED_EDGE('',*,*,#482,.T.);
#370=ORIENTED_EDGE('',*,*,#483,.T.);
#371=ORIENTED_EDGE('',*,*,#419,.T.);
#372=ORIENTED_EDGE('',*,*,#484,.F.);
#373=ORIENTED_EDGE('',*,*,#485,.F.);
#374=ORIENTED_EDGE('',*,*,#481,.T.);
#375=ORIENTED_EDGE('',*,*,#418,.T.);
#376=ORIENTED_EDGE('',*,*,#486,.F.);
#377=ORIENTED_EDGE('',*,*,#487,.F.);
#378=ORIENTED_EDGE('',*,*,#484,.T.);
#379=ORIENTED_EDGE('',*,*,#417,.F.);
#380=ORIENTED_EDGE('',*,*,#483,.F.);
#381=ORIENTED_EDGE('',*,*,#488,.T.);
#382=ORIENTED_EDGE('',*,*,#486,.T.);
#383=ORIENTED_EDGE('',*,*,#489,.T.);
#384=ORIENTED_EDGE('',*,*,#482,.F.);
#385=ORIENTED_EDGE('',*,*,#485,.T.);
#386=ORIENTED_EDGE('',*,*,#487,.T.);
#387=ORIENTED_EDGE('',*,*,#488,.F.);
#388=ORIENTED_EDGE('',*,*,#458,.F.);
#389=ORIENTED_EDGE('',*,*,#480,.F.);
#390=ORIENTED_EDGE('',*,*,#489,.F.);
#391=ORIENTED_EDGE('',*,*,#429,.T.);
#392=ORIENTED_EDGE('',*,*,#490,.F.);
#393=ORIENTED_EDGE('',*,*,#490,.T.);
#394=ORIENTED_EDGE('',*,*,#399,.F.);
#395=EDGE_CURVE('',#491,#492,#557,.T.);
#396=EDGE_CURVE('',#493,#491,#43,.T.);
#397=EDGE_CURVE('',#493,#494,#558,.T.);
#398=EDGE_CURVE('',#494,#492,#44,.T.);
#399=EDGE_CURVE('',#495,#495,#42,.T.);
#400=EDGE_CURVE('',#496,#497,#45,.T.);
#401=EDGE_CURVE('',#497,#498,#46,.T.);
#402=EDGE_CURVE('',#499,#498,#47,.T.);
#403=EDGE_CURVE('',#496,#499,#48,.T.);
#404=EDGE_CURVE('',#500,#501,#49,.T.);
#405=EDGE_CURVE('',#502,#501,#50,.T.);
#406=EDGE_CURVE('',#503,#502,#51,.T.);
#407=EDGE_CURVE('',#503,#500,#52,.T.);
#408=EDGE_CURVE('',#504,#505,#559,.T.);
#409=EDGE_CURVE('',#506,#504,#53,.T.);
#410=EDGE_CURVE('',#507,#506,#560,.T.);
#411=EDGE_CURVE('',#507,#505,#54,.T.);
#412=EDGE_CURVE('',#508,#509,#55,.T.);
#413=EDGE_CURVE('',#509,#510,#561,.T.);
#414=EDGE_CURVE('',#511,#510,#56,.T.);
#415=EDGE_CURVE('',#511,#508,#562,.T.);
#416=EDGE_CURVE('',#512,#513,#57,.T.);
#417=EDGE_CURVE('',#513,#514,#58,.T.);
#418=EDGE_CURVE('',#515,#514,#59,.T.);
#419=EDGE_CURVE('',#512,#515,#60,.T.);
#420=EDGE_CURVE('',#492,#516,#61,.T.);
#421=EDGE_CURVE('',#494,#517,#62,.T.);
#422=EDGE_CURVE('',#517,#516,#63,.T.);
#423=EDGE_CURVE('',#491,#518,#64,.T.);
#424=EDGE_CURVE('',#519,#518,#65,.T.);
#425=EDGE_CURVE('',#493,#519,#66,.T.);
#426=EDGE_CURVE('',#518,#520,#67,.T.);
#427=EDGE_CURVE('',#521,#520,#68,.T.);
#428=EDGE_CURVE('',#519,#521,#69,.T.);
#429=EDGE_CURVE('',#522,#522,#563,.F.);
#430=EDGE_CURVE('',#520,#523,#70,.T.);
#431=EDGE_CURVE('',#524,#523,#71,.T.);
#432=EDGE_CURVE('',#521,#524,#72,.T.);
#433=EDGE_CURVE('',#523,#525,#73,.T.);
#434=EDGE_CURVE('',#526,#525,#74,.T.);
#435=EDGE_CURVE('',#524,#526,#75,.T.);
#436=EDGE_CURVE('',#527,#528,#76,.T.);
#437=EDGE_CURVE('',#529,#527,#564,.F.);
#438=EDGE_CURVE('',#529,#530,#77,.T.);
#439=EDGE_CURVE('',#528,#530,#565,.F.);
#440=EDGE_CURVE('',#525,#531,#78,.T.);
#441=EDGE_CURVE('',#532,#531,#79,.T.);
#442=EDGE_CURVE('',#526,#532,#80,.T.);
#443=EDGE_CURVE('',#531,#500,#81,.T.);
#444=EDGE_CURVE('',#532,#503,#82,.T.);
#445=EDGE_CURVE('',#533,#501,#83,.T.);
#446=EDGE_CURVE('',#534,#533,#84,.T.);
#447=EDGE_CURVE('',#534,#502,#85,.T.);
#448=EDGE_CURVE('',#535,#536,#86,.T.);
#449=EDGE_CURVE('',#537,#535,#566,.T.);
#450=EDGE_CURVE('',#537,#538,#87,.T.);
#451=EDGE_CURVE('',#536,#538,#567,.T.);
#452=EDGE_CURVE('',#539,#533,#88,.T.);
#453=EDGE_CURVE('',#540,#539,#89,.T.);
#454=EDGE_CURVE('',#540,#534,#90,.T.);
#455=EDGE_CURVE('',#541,#539,#91,.T.);
#456=EDGE_CURVE('',#542,#541,#92,.T.);
#457=EDGE_CURVE('',#542,#540,#93,.T.);
#458=EDGE_CURVE('',#543,#543,#568,.F.);
#459=EDGE_CURVE('',#544,#541,#94,.T.);
#460=EDGE_CURVE('',#545,#544,#95,.T.);
#461=EDGE_CURVE('',#545,#542,#96,.T.);
#462=EDGE_CURVE('',#516,#544,#97,.T.);
#463=EDGE_CURVE('',#517,#545,#98,.T.);
#464=EDGE_CURVE('',#536,#506,#99,.T.);
#465=EDGE_CURVE('',#535,#504,#100,.T.);
#466=EDGE_CURVE('',#537,#505,#101,.T.);
#467=EDGE_CURVE('',#538,#507,#102,.T.);
#468=EDGE_CURVE('',#528,#509,#103,.T.);
#469=EDGE_CURVE('',#527,#508,#104,.T.);
#470=EDGE_CURVE('',#529,#511,#105,.T.);
#471=EDGE_CURVE('',#530,#510,#106,.T.);
#472=EDGE_CURVE('',#546,#496,#107,.T.);
#473=EDGE_CURVE('',#546,#547,#108,.T.);
#474=EDGE_CURVE('',#547,#497,#109,.T.);
#475=EDGE_CURVE('',#548,#499,#110,.T.);
#476=EDGE_CURVE('',#546,#548,#111,.T.);
#477=EDGE_CURVE('',#549,#498,#112,.T.);
#478=EDGE_CURVE('',#548,#549,#113,.T.);
#479=EDGE_CURVE('',#547,#549,#114,.T.);
#480=EDGE_CURVE('',#550,#550,#569,.T.);
#481=EDGE_CURVE('',#551,#512,#115,.T.);
#482=EDGE_CURVE('',#551,#552,#116,.T.);
#483=EDGE_CURVE('',#552,#513,#117,.T.);
#484=EDGE_CURVE('',#553,#515,#118,.T.);
#485=EDGE_CURVE('',#551,#553,#119,.T.);
#486=EDGE_CURVE('',#554,#514,#120,.T.);
#487=EDGE_CURVE('',#553,#554,#121,.T.);
#488=EDGE_CURVE('',#552,#554,#122,.T.);
#489=EDGE_CURVE('',#555,#555,#570,.T.);
#490=EDGE_CURVE('',#556,#556,#571,.T.);
#491=VERTEX_POINT('',#979);
#492=VERTEX_POINT('',#980);
#493=VERTEX_POINT('',#982);
#494=VERTEX_POINT('',#984);
#495=VERTEX_POINT('',#997);
#496=VERTEX_POINT('',#1000);
#497=VERTEX_POINT('',#1001);
#498=VERTEX_POINT('',#1003);
#499=VERTEX_POINT('',#1005);
#500=VERTEX_POINT('',#1008);
#501=VERTEX_POINT('',#1009);
#502=VERTEX_POINT('',#1011);
#503=VERTEX_POINT('',#1013);
#504=VERTEX_POINT('',#1016);
#505=VERTEX_POINT('',#1017);
#506=VERTEX_POINT('',#1019);
#507=VERTEX_POINT('',#1021);
#508=VERTEX_POINT('',#1024);
#509=VERTEX_POINT('',#1025);
#510=VERTEX_POINT('',#1027);
#511=VERTEX_POINT('',#1029);
#512=VERTEX_POINT('',#1032);
#513=VERTEX_POINT('',#1033);
#514=VERTEX_POINT('',#1035);
#515=VERTEX_POINT('',#1037);
#516=VERTEX_POINT('',#1041);
#517=VERTEX_POINT('',#1043);
#518=VERTEX_POINT('',#1047);
#519=VERTEX_POINT('',#1049);
#520=VERTEX_POINT('',#1053);
#521=VERTEX_POINT('',#1055);
#522=VERTEX_POINT('',#1059);
#523=VERTEX_POINT('',#1061);
#524=VERTEX_POINT('',#1063);
#525=VERTEX_POINT('',#1067);
#526=VERTEX_POINT('',#1069);
#527=VERTEX_POINT('',#1073);
#528=VERTEX_POINT('',#1074);
#529=VERTEX_POINT('',#1076);
#530=VERTEX_POINT('',#1078);
#531=VERTEX_POINT('',#1081);
#532=VERTEX_POINT('',#1083);
#533=VERTEX_POINT('',#1090);
#534=VERTEX_POINT('',#1092);
#535=VERTEX_POINT('',#1096);
#536=VERTEX_POINT('',#1097);
#537=VERTEX_POINT('',#1099);
#538=VERTEX_POINT('',#1101);
#539=VERTEX_POINT('',#1104);
#540=VERTEX_POINT('',#1106);
#541=VERTEX_POINT('',#1110);
#542=VERTEX_POINT('',#1112);
#543=VERTEX_POINT('',#1116);
#544=VERTEX_POINT('',#1118);
#545=VERTEX_POINT('',#1120);
#546=VERTEX_POINT('',#1145);
#547=VERTEX_POINT('',#1147);
#548=VERTEX_POINT('',#1151);
#549=VERTEX_POINT('',#1155);
#550=VERTEX_POINT('',#1161);
#551=VERTEX_POINT('',#1164);
#552=VERTEX_POINT('',#1166);
#553=VERTEX_POINT('',#1170);
#554=VERTEX_POINT('',#1174);
#555=VERTEX_POINT('',#1180);
#556=VERTEX_POINT('',#1185);
#557=CIRCLE('',#736,0.024);
#558=CIRCLE('',#737,0.024);
#559=CIRCLE('',#739,0.006);
#560=CIRCLE('',#740,0.006);
#561=CIRCLE('',#741,0.006);
#562=CIRCLE('',#742,0.006);
#563=CIRCLE('',#747,0.006);
#564=CIRCLE('',#750,0.006);
#565=CIRCLE('',#751,0.006);
#566=CIRCLE('',#755,0.006);
#567=CIRCLE('',#756,0.006);
#568=CIRCLE('',#759,0.006);
#569=CIRCLE('',#776,0.006);
#570=CIRCLE('',#782,0.006);
#571=CIRCLE('',#786,0.004);
#572=EDGE_LOOP('',(#203,#204,#205,#206));
#573=EDGE_LOOP('',(#207));
#574=EDGE_LOOP('',(#208,#209,#210,#211));
#575=EDGE_LOOP('',(#212,#213,#214,#215));
#576=EDGE_LOOP('',(#216,#217,#218,#219));
#577=EDGE_LOOP('',(#220,#221,#222,#223));
#578=EDGE_LOOP('',(#224,#225,#226,#227));
#579=EDGE_LOOP('',(#228,#229,#230,#231));
#580=EDGE_LOOP('',(#232,#233,#234,#235));
#581=EDGE_LOOP('',(#236,#237,#238,#239));
#582=EDGE_LOOP('',(#240));
#583=EDGE_LOOP('',(#241,#242,#243,#244));
#584=EDGE_LOOP('',(#245,#246,#247,#248));
#585=EDGE_LOOP('',(#249,#250,#251,#252));
#586=EDGE_LOOP('',(#253,#254,#255,#256));
#587=EDGE_LOOP('',(#257,#258,#259,#260));
#588=EDGE_LOOP('',(#261,#262,#263,#264));
#589=EDGE_LOOP('',(#265,#266,#267,#268));
#590=EDGE_LOOP('',(#269,#270,#271,#272));
#591=EDGE_LOOP('',(#273,#274,#275,#276));
#592=EDGE_LOOP('',(#277));
#593=EDGE_LOOP('',(#278,#279,#280,#281));
#594=EDGE_LOOP('',(#282,#283,#284,#285));
#595=EDGE_LOOP('',(#286,#287,#288,#289,#290,#291,#292,#293,#294,#295,#296,
#297,#298,#299));
#596=EDGE_LOOP('',(#300,#301,#302,#303,#304,#305,#306,#307,#308,#309,#310,
#311,#312,#313));
#597=EDGE_LOOP('',(#314,#315,#316,#317));
#598=EDGE_LOOP('',(#318,#319,#320,#321));
#599=EDGE_LOOP('',(#322,#323,#324,#325));
#600=EDGE_LOOP('',(#326,#327,#328,#329));
#601=EDGE_LOOP('',(#330,#331,#332,#333));
#602=EDGE_LOOP('',(#334,#335,#336,#337));
#603=EDGE_LOOP('',(#338,#339,#340,#341));
#604=EDGE_LOOP('',(#342,#343,#344,#345));
#605=EDGE_LOOP('',(#346,#347,#348,#349));
#606=EDGE_LOOP('',(#350,#351,#352,#353));
#607=EDGE_LOOP('',(#354,#355,#356,#357));
#608=EDGE_LOOP('',(#358,#359,#360,#361));
#609=EDGE_LOOP('',(#362));
#610=EDGE_LOOP('',(#363,#364,#365,#366));
#611=EDGE_LOOP('',(#367,#368,#369,#370));
#612=EDGE_LOOP('',(#371,#372,#373,#374));
#613=EDGE_LOOP('',(#375,#376,#377,#378));
#614=EDGE_LOOP('',(#379,#380,#381,#382));
#615=EDGE_LOOP('',(#383));
#616=EDGE_LOOP('',(#384,#385,#386,#387));
#617=EDGE_LOOP('',(#388));
#618=EDGE_LOOP('',(#389));
#619=EDGE_LOOP('',(#390));
#620=EDGE_LOOP('',(#391));
#621=EDGE_LOOP('',(#392));
#622=EDGE_LOOP('',(#393));
#623=EDGE_LOOP('',(#394));
#624=FACE_BOUND('',#572,.T.);
#625=FACE_BOUND('',#573,.T.);
#626=FACE_BOUND('',#574,.T.);
#627=FACE_BOUND('',#575,.T.);
#628=FACE_BOUND('',#576,.T.);
#629=FACE_BOUND('',#577,.T.);
#630=FACE_BOUND('',#578,.T.);
#631=FACE_BOUND('',#579,.T.);
#632=FACE_BOUND('',#580,.T.);
#633=FACE_BOUND('',#581,.T.);
#634=FACE_BOUND('',#582,.T.);
#635=FACE_BOUND('',#583,.T.);
#636=FACE_BOUND('',#584,.T.);
#637=FACE_BOUND('',#585,.T.);
#638=FACE_BOUND('',#586,.T.);
#639=FACE_BOUND('',#587,.T.);
#640=FACE_BOUND('',#588,.T.);
#641=FACE_BOUND('',#589,.T.);
#642=FACE_BOUND('',#590,.T.);
#643=FACE_BOUND('',#591,.T.);
#644=FACE_BOUND('',#592,.T.);
#645=FACE_BOUND('',#593,.T.);
#646=FACE_BOUND('',#594,.T.);
#647=FACE_BOUND('',#595,.T.);
#648=FACE_BOUND('',#596,.T.);
#649=FACE_BOUND('',#597,.T.);
#650=FACE_BOUND('',#598,.T.);
#651=FACE_BOUND('',#599,.T.);
#652=FACE_BOUND('',#600,.T.);
#653=FACE_BOUND('',#601,.T.);
#654=FACE_BOUND('',#602,.T.);
#655=FACE_BOUND('',#603,.T.);
#656=FACE_BOUND('',#604,.T.);
#657=FACE_BOUND('',#605,.T.);
#658=FACE_BOUND('',#606,.T.);
#659=FACE_BOUND('',#607,.T.);
#660=FACE_BOUND('',#608,.T.);
#661=FACE_BOUND('',#609,.T.);
#662=FACE_BOUND('',#610,.T.);
#663=FACE_BOUND('',#611,.T.);
#664=FACE_BOUND('',#612,.T.);
#665=FACE_BOUND('',#613,.T.);
#666=FACE_BOUND('',#614,.T.);
#667=FACE_BOUND('',#615,.T.);
#668=FACE_BOUND('',#616,.T.);
#669=FACE_BOUND('',#617,.T.);
#670=FACE_BOUND('',#618,.T.);
#671=FACE_BOUND('',#619,.T.);
#672=FACE_BOUND('',#620,.T.);
#673=FACE_BOUND('',#621,.T.);
#674=FACE_BOUND('',#622,.T.);
#675=FACE_BOUND('',#623,.T.);
#676=CYLINDRICAL_SURFACE('',#735,0.024);
#677=CYLINDRICAL_SURFACE('',#764,0.006);
#678=CYLINDRICAL_SURFACE('',#766,0.006);
#679=CYLINDRICAL_SURFACE('',#768,0.006);
#680=CYLINDRICAL_SURFACE('',#770,0.006);
#681=CYLINDRICAL_SURFACE('',#783,0.006);
#682=CYLINDRICAL_SURFACE('',#784,0.006);
#683=CYLINDRICAL_SURFACE('',#787,0.004);
#684=ADVANCED_FACE('',(#624,#625),#676,.F.);
#685=ADVANCED_FACE('',(#626,#627,#628,#629,#630),#12,.F.);
#686=ADVANCED_FACE('',(#631),#13,.T.);
#687=ADVANCED_FACE('',(#632),#14,.F.);
#688=ADVANCED_FACE('',(#633),#15,.F.);
#689=ADVANCED_FACE('',(#634,#635),#16,.F.);
#690=ADVANCED_FACE('',(#636),#17,.F.);
#691=ADVANCED_FACE('',(#637,#638),#18,.F.);
#692=ADVANCED_FACE('',(#639),#19,.F.);
#693=ADVANCED_FACE('',(#640),#20,.T.);
#694=ADVANCED_FACE('',(#641,#642),#21,.T.);
#695=ADVANCED_FACE('',(#643),#22,.T.);
#696=ADVANCED_FACE('',(#644,#645),#23,.T.);
#697=ADVANCED_FACE('',(#646),#24,.T.);
#698=ADVANCED_FACE('',(#647),#25,.T.);
#699=ADVANCED_FACE('',(#648),#26,.F.);
#700=ADVANCED_FACE('',(#649),#27,.F.);
#701=ADVANCED_FACE('',(#650),#677,.F.);
#702=ADVANCED_FACE('',(#651),#28,.T.);
#703=ADVANCED_FACE('',(#652),#678,.F.);
#704=ADVANCED_FACE('',(#653),#29,.T.);
#705=ADVANCED_FACE('',(#654),#679,.F.);
#706=ADVANCED_FACE('',(#655),#30,.F.);
#707=ADVANCED_FACE('',(#656),#680,.F.);
#708=ADVANCED_FACE('',(#657),#31,.T.);
#709=ADVANCED_FACE('',(#658),#32,.F.);
#710=ADVANCED_FACE('',(#659),#33,.F.);
#711=ADVANCED_FACE('',(#660),#34,.T.);
#712=ADVANCED_FACE('',(#661,#662),#35,.T.);
#713=ADVANCED_FACE('',(#663),#36,.T.);
#714=ADVANCED_FACE('',(#664),#37,.F.);
#715=ADVANCED_FACE('',(#665),#38,.F.);
#716=ADVANCED_FACE('',(#666),#39,.T.);
#717=ADVANCED_FACE('',(#667,#668),#40,.T.);
#718=ADVANCED_FACE('',(#669,#670),#681,.F.);
#719=ADVANCED_FACE('',(#671,#672),#682,.F.);
#720=ADVANCED_FACE('',(#673),#41,.T.);
#721=ADVANCED_FACE('',(#674,#675),#683,.F.);
#722=CLOSED_SHELL('',(#684,#685,#686,#687,#688,#689,#690,#691,#692,#693,
#694,#695,#696,#697,#698,#699,#700,#701,#702,#703,#704,#705,#706,#707,#708,
#709,#710,#711,#712,#713,#714,#715,#716,#717,#718,#719,#720,#721));
#723=STYLED_ITEM('',(#724),#731);
#724=PRESENTATION_STYLE_ASSIGNMENT((#725));
#725=SURFACE_STYLE_USAGE(.BOTH.,#726);
#726=SURFACE_SIDE_STYLE('',(#727));
#727=SURFACE_STYLE_FILL_AREA(#728);
#728=FILL_AREA_STYLE('',(#729));
#729=FILL_AREA_STYLE_COLOUR('',#730);
#730=COLOUR_RGB('',0.615686274509804,0.811764705882353,0.929411764705882);
#731=MANIFOLD_SOLID_BREP('Part 1',#722);
#732=SHAPE_DEFINITION_REPRESENTATION(#1193,#733);
#733=SHAPE_REPRESENTATION('Part 1',(#734),#1188);
#734=AXIS2_PLACEMENT_3D('',#976,#788,#789);
#735=AXIS2_PLACEMENT_3D('',#977,#790,#791);
#736=AXIS2_PLACEMENT_3D('',#978,#792,#793);
#737=AXIS2_PLACEMENT_3D('',#983,#795,#796);
#738=AXIS2_PLACEMENT_3D('',#998,#798,#799);
#739=AXIS2_PLACEMENT_3D('',#1015,#808,#809);
#740=AXIS2_PLACEMENT_3D('',#1020,#811,#812);
#741=AXIS2_PLACEMENT_3D('',#1026,#815,#816);
#742=AXIS2_PLACEMENT_3D('',#1030,#818,#819);
#743=AXIS2_PLACEMENT_3D('',#1039,#824,#825);
#744=AXIS2_PLACEMENT_3D('',#1045,#829,#830);
#745=AXIS2_PLACEMENT_3D('',#1051,#834,#835);
#746=AXIS2_PLACEMENT_3D('',#1057,#839,#840);
#747=AXIS2_PLACEMENT_3D('',#1058,#841,#842);
#748=AXIS2_PLACEMENT_3D('',#1065,#846,#847);
#749=AXIS2_PLACEMENT_3D('',#1071,#851,#852);
#750=AXIS2_PLACEMENT_3D('',#1075,#854,#855);
#751=AXIS2_PLACEMENT_3D('',#1079,#857,#858);
#752=AXIS2_PLACEMENT_3D('',#1085,#862,#863);
#753=AXIS2_PLACEMENT_3D('',#1088,#866,#867);
#754=AXIS2_PLACEMENT_3D('',#1094,#871,#872);
#755=AXIS2_PLACEMENT_3D('',#1098,#874,#875);
#756=AXIS2_PLACEMENT_3D('',#1102,#877,#878);
#757=AXIS2_PLACEMENT_3D('',#1108,#882,#883);
#758=AXIS2_PLACEMENT_3D('',#1114,#887,#888);
#759=AXIS2_PLACEMENT_3D('',#1115,#889,#890);
#760=AXIS2_PLACEMENT_3D('',#1122,#894,#895);
#761=AXIS2_PLACEMENT_3D('',#1125,#898,#899);
#762=AXIS2_PLACEMENT_3D('',#1126,#900,#901);
#763=AXIS2_PLACEMENT_3D('',#1127,#902,#903);
#764=AXIS2_PLACEMENT_3D('',#1130,#906,#907);
#765=AXIS2_PLACEMENT_3D('',#1132,#909,#910);
#766=AXIS2_PLACEMENT_3D('',#1134,#912,#913);
#767=AXIS2_PLACEMENT_3D('',#1135,#914,#915);
#768=AXIS2_PLACEMENT_3D('',#1138,#918,#919);
#769=AXIS2_PLACEMENT_3D('',#1140,#921,#922);
#770=AXIS2_PLACEMENT_3D('',#1142,#924,#925);
#771=AXIS2_PLACEMENT_3D('',#1143,#926,#927);
#772=AXIS2_PLACEMENT_3D('',#1149,#931,#932);
#773=AXIS2_PLACEMENT_3D('',#1153,#935,#936);
#774=AXIS2_PLACEMENT_3D('',#1157,#939,#940);
#775=AXIS2_PLACEMENT_3D('',#1159,#942,#943);
#776=AXIS2_PLACEMENT_3D('',#1160,#944,#945);
#777=AXIS2_PLACEMENT_3D('',#1162,#946,#947);
#778=AXIS2_PLACEMENT_3D('',#1168,#951,#952);
#779=AXIS2_PLACEMENT_3D('',#1172,#955,#956);
#780=AXIS2_PLACEMENT_3D('',#1176,#959,#960);
#781=AXIS2_PLACEMENT_3D('',#1178,#962,#963);
#782=AXIS2_PLACEMENT_3D('',#1179,#964,#965);
#783=AXIS2_PLACEMENT_3D('',#1181,#966,#967);
#784=AXIS2_PLACEMENT_3D('',#1182,#968,#969);
#785=AXIS2_PLACEMENT_3D('',#1183,#970,#971);
#786=AXIS2_PLACEMENT_3D('',#1184,#972,#973);
#787=AXIS2_PLACEMENT_3D('',#1186,#974,#975);
#788=DIRECTION('',(0.,0.,1.));
#789=DIRECTION('',(1.,0.,0.));
#790=DIRECTION('',(0.,1.,0.));
#791=DIRECTION('',(0.,0.,1.));
#792=DIRECTION('',(0.,-1.,0.));
#793=DIRECTION('',(0.,0.,-1.));
#794=DIRECTION('',(0.,1.,0.));
#795=DIRECTION('',(0.,-1.,0.));
#796=DIRECTION('',(0.,0.,-1.));
#797=DIRECTION('',(0.,1.,0.));
#798=DIRECTION('',(0.,0.,1.));
#799=DIRECTION('',(1.,0.,0.));
#800=DIRECTION('',(-4.33680868994202E-16,-1.,0.));
#801=DIRECTION('',(1.,-1.44560289664734E-16,0.));
#802=DIRECTION('',(-2.89120579329468E-16,-1.,0.));
#803=DIRECTION('',(1.,-1.44560289664734E-16,0.));
#804=DIRECTION('',(1.,0.,0.));
#805=DIRECTION('',(0.,1.,0.));
#806=DIRECTION('',(1.,0.,0.));
#807=DIRECTION('',(0.,1.,0.));
#808=DIRECTION('',(0.,0.,-1.));
#809=DIRECTION('',(-1.,0.,0.));
#810=DIRECTION('',(-1.,0.,0.));
#811=DIRECTION('',(0.,0.,-1.));
#812=DIRECTION('',(-1.,0.,0.));
#813=DIRECTION('',(-1.,0.,0.));
#814=DIRECTION('',(1.,0.,0.));
#815=DIRECTION('',(0.,0.,1.));
#816=DIRECTION('',(-1.,0.,0.));
#817=DIRECTION('',(1.,0.,0.));
#818=DIRECTION('',(0.,0.,1.));
#819=DIRECTION('',(-1.,0.,0.));
#820=DIRECTION('',(-1.,-1.44560289664734E-16,0.));
#821=DIRECTION('',(2.89120579329468E-16,-1.,0.));
#822=DIRECTION('',(-1.,-1.44560289664734E-16,0.));
#823=DIRECTION('',(4.33680868994202E-16,-1.,0.));
#824=DIRECTION('',(1.22464679914735E-16,0.,1.));
#825=DIRECTION('',(1.,0.,-1.22464679914735E-16));
#826=DIRECTION('',(1.,0.,-1.22464679914735E-16));
#827=DIRECTION('',(1.,0.,-1.22464679914735E-16));
#828=DIRECTION('',(0.,1.,0.));
#829=DIRECTION('',(1.22464679914735E-16,0.,-1.));
#830=DIRECTION('',(-1.,0.,-1.22464679914735E-16));
#831=DIRECTION('',(-1.,0.,-1.22464679914735E-16));
#832=DIRECTION('',(0.,1.,0.));
#833=DIRECTION('',(-1.,0.,-1.22464679914735E-16));
#834=DIRECTION('',(-1.,0.,0.));
#835=DIRECTION('',(0.,0.,1.));
#836=DIRECTION('',(0.,0.,1.));
#837=DIRECTION('',(0.,1.,0.));
#838=DIRECTION('',(0.,0.,1.));
#839=DIRECTION('',(1.33440267382831E-16,0.,-1.));
#840=DIRECTION('',(-1.,0.,-1.33440267382831E-16));
#841=DIRECTION('',(1.33440267382831E-16,0.,-1.));
#842=DIRECTION('',(-1.,0.,-1.33440267382831E-16));
#843=DIRECTION('',(-1.,0.,-1.33440267382831E-16));
#844=DIRECTION('',(0.,1.,0.));
#845=DIRECTION('',(-1.,0.,-1.33440267382831E-16));
#846=DIRECTION('',(1.,0.,1.28498035257541E-16));
#847=DIRECTION('',(1.28498035257541E-16,0.,-1.));
#848=DIRECTION('',(1.28498035257541E-16,0.,-1.));
#849=DIRECTION('',(0.,1.,0.));
#850=DIRECTION('',(1.28498035257541E-16,0.,-1.));
#851=DIRECTION('',(1.50845519650157E-16,0.,-1.));
#852=DIRECTION('',(-1.,0.,-1.50845519650157E-16));
#853=DIRECTION('',(1.,0.,1.50845519650157E-16));
#854=DIRECTION('',(1.50845519650157E-16,0.,-1.));
#855=DIRECTION('',(-1.,0.,-1.50845519650157E-16));
#856=DIRECTION('',(1.,0.,1.50845519650157E-16));
#857=DIRECTION('',(1.50845519650157E-16,0.,-1.));
#858=DIRECTION('',(-1.,0.,-1.50845519650157E-16));
#859=DIRECTION('',(-1.,0.,-1.50845519650157E-16));
#860=DIRECTION('',(0.,1.,0.));
#861=DIRECTION('',(-1.,0.,-1.50845519650157E-16));
#862=DIRECTION('',(0.961523947640823,0.,-0.274721127897378));
#863=DIRECTION('',(-0.274721127897378,0.,-0.961523947640823));
#864=DIRECTION('',(-0.274721127897378,0.,-0.961523947640823));
#865=DIRECTION('',(-0.274721127897378,0.,-0.961523947640823));
#866=DIRECTION('',(0.961523947640823,0.,0.274721127897379));
#867=DIRECTION('',(0.274721127897379,0.,-0.961523947640823));
#868=DIRECTION('',(0.274721127897379,0.,-0.961523947640823));
#869=DIRECTION('',(0.,1.,0.));
#870=DIRECTION('',(0.274721127897379,0.,-0.961523947640823));
#871=DIRECTION('',(1.50845519650157E-16,0.,1.));
#872=DIRECTION('',(1.,0.,-1.50845519650157E-16));
#873=DIRECTION('',(1.,0.,-1.50845519650157E-16));
#874=DIRECTION('',(1.50845519650157E-16,0.,1.));
#875=DIRECTION('',(1.,0.,-1.50845519650157E-16));
#876=DIRECTION('',(1.,0.,-1.50845519650157E-16));
#877=DIRECTION('',(1.50845519650157E-16,0.,1.));
#878=DIRECTION('',(1.,0.,-1.50845519650157E-16));
#879=DIRECTION('',(1.,0.,-1.50845519650157E-16));
#880=DIRECTION('',(0.,1.,0.));
#881=DIRECTION('',(1.,0.,-1.50845519650157E-16));
#882=DIRECTION('',(1.,0.,-1.28498035257541E-16));
#883=DIRECTION('',(-1.28498035257541E-16,0.,-1.));
#884=DIRECTION('',(-1.28498035257541E-16,0.,-1.));
#885=DIRECTION('',(0.,1.,0.));
#886=DIRECTION('',(-1.28498035257541E-16,0.,-1.));
#887=DIRECTION('',(1.33440267382831E-16,0.,1.));
#888=DIRECTION('',(1.,0.,-1.33440267382831E-16));
#889=DIRECTION('',(1.33440267382831E-16,0.,1.));
#890=DIRECTION('',(1.,0.,-1.33440267382831E-16));
#891=DIRECTION('',(1.,0.,-1.33440267382831E-16));
#892=DIRECTION('',(0.,1.,0.));
#893=DIRECTION('',(1.,0.,-1.33440267382831E-16));
#894=DIRECTION('',(-1.,0.,0.));
#895=DIRECTION('',(0.,0.,1.));
#896=DIRECTION('',(0.,0.,1.));
#897=DIRECTION('',(0.,0.,1.));
#898=DIRECTION('',(0.,-1.,0.));
#899=DIRECTION('',(1.,0.,0.));
#900=DIRECTION('',(0.,-1.,0.));
#901=DIRECTION('',(1.,0.,0.));
#902=DIRECTION('',(0.,-1.,0.));
#903=DIRECTION('',(0.,0.,-1.));
#904=DIRECTION('',(0.,0.,-1.));
#905=DIRECTION('',(0.,0.,-1.));
#906=DIRECTION('',(0.,0.,-1.));
#907=DIRECTION('',(-1.,0.,0.));
#908=DIRECTION('',(0.,0.,-1.));
#909=DIRECTION('',(0.,-1.,0.));
#910=DIRECTION('',(0.,0.,-1.));
#911=DIRECTION('',(0.,0.,-1.));
#912=DIRECTION('',(0.,0.,-1.));
#913=DIRECTION('',(-1.,0.,0.));
#914=DIRECTION('',(0.,1.,0.));
#915=DIRECTION('',(0.,0.,1.));
#916=DIRECTION('',(0.,0.,-1.));
#917=DIRECTION('',(0.,0.,-1.));
#918=DIRECTION('',(0.,0.,-1.));
#919=DIRECTION('',(-1.,0.,0.));
#920=DIRECTION('',(0.,0.,-1.));
#921=DIRECTION('',(0.,1.,0.));
#922=DIRECTION('',(0.,0.,1.));
#923=DIRECTION('',(0.,0.,-1.));
#924=DIRECTION('',(0.,0.,-1.));
#925=DIRECTION('',(-1.,0.,0.));
#926=DIRECTION('',(1.,-4.33680868994202E-16,0.));
#927=DIRECTION('',(4.33680868994202E-16,1.,0.));
#928=DIRECTION('',(0.,0.,-1.));
#929=DIRECTION('',(-4.33680868994202E-16,-1.,0.));
#930=DIRECTION('',(0.,0.,-1.));
#931=DIRECTION('',(1.44560289664734E-16,1.,0.));
#932=DIRECTION('',(-1.,1.44560289664734E-16,0.));
#933=DIRECTION('',(0.,0.,-1.));
#934=DIRECTION('',(1.,-1.44560289664734E-16,0.));
#935=DIRECTION('',(1.,-2.89120579329468E-16,0.));
#936=DIRECTION('',(2.89120579329468E-16,1.,0.));
#937=DIRECTION('',(0.,0.,-1.));
#938=DIRECTION('',(-2.89120579329468E-16,-1.,0.));
#939=DIRECTION('',(1.44560289664734E-16,1.,0.));
#940=DIRECTION('',(-1.,1.44560289664734E-16,0.));
#941=DIRECTION('',(1.,-1.44560289664734E-16,0.));
#942=DIRECTION('',(0.,0.,-1.));
#943=DIRECTION('',(1.,0.,0.));
#944=DIRECTION('',(0.,0.,1.));
#945=DIRECTION('',(1.,0.,0.));
#946=DIRECTION('',(1.44560289664734E-16,-1.,0.));
#947=DIRECTION('',(1.,1.44560289664734E-16,0.));
#948=DIRECTION('',(0.,0.,-1.));
#949=DIRECTION('',(-1.,-1.44560289664734E-16,0.));
#950=DIRECTION('',(0.,0.,-1.));
#951=DIRECTION('',(1.,4.33680868994202E-16,0.));
#952=DIRECTION('',(-4.33680868994202E-16,1.,0.));
#953=DIRECTION('',(0.,0.,-1.));
#954=DIRECTION('',(4.33680868994202E-16,-1.,0.));
#955=DIRECTION('',(1.44560289664734E-16,-1.,0.));
#956=DIRECTION('',(1.,1.44560289664734E-16,0.));
#957=DIRECTION('',(0.,0.,-1.));
#958=DIRECTION('',(-1.,-1.44560289664734E-16,0.));
#959=DIRECTION('',(1.,2.89120579329468E-16,0.));
#960=DIRECTION('',(-2.89120579329468E-16,1.,0.));
#961=DIRECTION('',(2.89120579329468E-16,-1.,0.));
#962=DIRECTION('',(0.,0.,-1.));
#963=DIRECTION('',(1.,0.,0.));
#964=DIRECTION('',(0.,0.,1.));
#965=DIRECTION('',(1.,0.,0.));
#966=DIRECTION('',(0.,0.,1.));
#967=DIRECTION('',(1.,0.,0.));
#968=DIRECTION('',(0.,0.,1.));
#969=DIRECTION('',(1.,0.,0.));
#970=DIRECTION('',(0.,0.,1.));
#971=DIRECTION('',(1.,0.,0.));
#972=DIRECTION('',(0.,0.,-1.));
#973=DIRECTION('',(-1.,0.,0.));
#974=DIRECTION('',(0.,0.,-1.));
#975=DIRECTION('',(-1.,0.,0.));
#976=CARTESIAN_POINT('',(0.,0.,0.));
#977=CARTESIAN_POINT('',(0.,-0.023,-1.46957615897682E-18));
#978=CARTESIAN_POINT('',(0.,0.023,-1.46957615897682E-18));
#979=CARTESIAN_POINT('',(-0.024,0.023,-2.58535342241154E-18));
#980=CARTESIAN_POINT('',(0.024,0.023,0.));
#981=CARTESIAN_POINT('',(-0.024,-0.023,-2.58535342241154E-18));
#982=CARTESIAN_POINT('',(-0.024,-0.023,-2.58535342241154E-18));
#983=CARTESIAN_POINT('',(0.,-0.023,-1.46957615897682E-18));
#984=CARTESIAN_POINT('',(0.024,-0.023,0.));
#985=CARTESIAN_POINT('',(0.024,-0.023,0.));
#986=CARTESIAN_POINT('',(-0.00313181592030361,-0.00313779818550045,-0.0238337458678282));
#987=CARTESIAN_POINT('',(-0.00443386391997126,7.42357640612248E-7,-0.0235796808630927));
#988=CARTESIAN_POINT('',(-0.00313272839981136,0.003134828754938,-0.0238334454741919));
#989=CARTESIAN_POINT('',(-3.86210323710738E-6,0.00443242827920146,-0.0240832689138508));
#990=CARTESIAN_POINT('',(0.00313440265106264,0.00313545417559894,-0.0238334782116289));
#991=CARTESIAN_POINT('',(0.00443195351391908,1.17710860467175E-6,-0.0235798984725548));
#992=CARTESIAN_POINT('',(0.00313778145021619,-0.0031307569654277,-0.023832843004074));
#993=CARTESIAN_POINT('',(3.32135231523653E-6,-0.0044328592820663,-0.0240833524603242));
#994=CARTESIAN_POINT('',(-0.00313181592030361,-0.00313779818550045,-0.0238337458678282));
#995=CARTESIAN_POINT('',(-0.00443386391997126,7.42357640612248E-7,-0.0235796808630927));
#996=CARTESIAN_POINT('',(-0.00313272839981136,0.003134828754938,-0.0238334454741919));
#997=CARTESIAN_POINT('',(-0.004,-1.2411427363082E-19,-0.0236643191323984));
#998=CARTESIAN_POINT('',(-0.052,-0.023,-0.052));
#999=CARTESIAN_POINT('',(0.027,4.33680868994202E-18,-0.052));
#1000=CARTESIAN_POINT('',(0.027,0.012,-0.052));
#1001=CARTESIAN_POINT('',(0.027,-0.012,-0.052));
#1002=CARTESIAN_POINT('',(0.039,-0.012,-0.052));
#1003=CARTESIAN_POINT('',(0.051,-0.012,-0.052));
#1004=CARTESIAN_POINT('',(0.051,1.7347234759768E-18,-0.052));
#1005=CARTESIAN_POINT('',(0.051,0.012,-0.052));
#1006=CARTESIAN_POINT('',(0.039,0.012,-0.052));
#1007=CARTESIAN_POINT('',(-0.052,0.023,-0.052));
#1008=CARTESIAN_POINT('',(-0.104,0.023,-0.052));
#1009=CARTESIAN_POINT('',(0.104,0.023,-0.052));
#1010=CARTESIAN_POINT('',(0.104,-0.023,-0.052));
#1011=CARTESIAN_POINT('',(0.104,-0.023,-0.052));
#1012=CARTESIAN_POINT('',(-0.052,-0.023,-0.052));
#1013=CARTESIAN_POINT('',(-0.104,-0.023,-0.052));
#1014=CARTESIAN_POINT('',(-0.104,-0.023,-0.052));
#1015=CARTESIAN_POINT('',(0.0785,8.67361737988404E-19,-0.052));
#1016=CARTESIAN_POINT('',(0.0785,-0.006,-0.052));
#1017=CARTESIAN_POINT('',(0.0785,0.006,-0.052));
#1018=CARTESIAN_POINT('',(0.0825,-0.006,-0.052));
#1019=CARTESIAN_POINT('',(0.0865,-0.006,-0.052));
#1020=CARTESIAN_POINT('',(0.0865,0.,-0.052));
#1021=CARTESIAN_POINT('',(0.0865,0.006,-0.052));
#1022=CARTESIAN_POINT('',(0.0825,0.006,-0.052));
#1023=CARTESIAN_POINT('',(-0.0825,-0.006,-0.052));
#1024=CARTESIAN_POINT('',(-0.0865,-0.006,-0.052));
#1025=CARTESIAN_POINT('',(-0.0785,-0.006,-0.052));
#1026=CARTESIAN_POINT('',(-0.0785,8.67361737988404E-19,-0.052));
#1027=CARTESIAN_POINT('',(-0.0785,0.006,-0.052));
#1028=CARTESIAN_POINT('',(-0.0825,0.006,-0.052));
#1029=CARTESIAN_POINT('',(-0.0865,0.006,-0.052));
#1030=CARTESIAN_POINT('',(-0.0865,0.,-0.052));
#1031=CARTESIAN_POINT('',(-0.039,0.012,-0.052));
#1032=CARTESIAN_POINT('',(-0.027,0.012,-0.052));
#1033=CARTESIAN_POINT('',(-0.051,0.012,-0.052));
#1034=CARTESIAN_POINT('',(-0.051,1.7347234759768E-18,-0.052));
#1035=CARTESIAN_POINT('',(-0.051,-0.012,-0.052));
#1036=CARTESIAN_POINT('',(-0.039,-0.012,-0.052));
#1037=CARTESIAN_POINT('',(-0.027,-0.012,-0.052));
#1038=CARTESIAN_POINT('',(-0.027,4.33680868994202E-18,-0.052));
#1039=CARTESIAN_POINT('',(0.026,-0.023,-2.83028278224102E-18));
#1040=CARTESIAN_POINT('',(0.026,0.023,-2.83028278224102E-18));
#1041=CARTESIAN_POINT('',(0.028,0.023,-3.46944695195361E-18));
#1042=CARTESIAN_POINT('',(0.026,-0.023,-2.83028278224102E-18));
#1043=CARTESIAN_POINT('',(0.028,-0.023,-3.46944695195361E-18));
#1044=CARTESIAN_POINT('',(0.028,-0.023,-3.46944695195361E-18));
#1045=CARTESIAN_POINT('',(-0.026,-0.023,-2.83028278224102E-18));
#1046=CARTESIAN_POINT('',(-0.026,0.023,-2.83028278224102E-18));
#1047=CARTESIAN_POINT('',(-0.028,0.023,-3.46944695195361E-18));
#1048=CARTESIAN_POINT('',(-0.028,-0.023,-3.46944695195361E-18));
#1049=CARTESIAN_POINT('',(-0.028,-0.023,-3.46944695195361E-18));
#1050=CARTESIAN_POINT('',(-0.026,-0.023,-2.83028278224102E-18));
#1051=CARTESIAN_POINT('',(-0.028,-0.023,0.008));
#1052=CARTESIAN_POINT('',(-0.028,0.023,0.008));
#1053=CARTESIAN_POINT('',(-0.028,0.023,0.016));
#1054=CARTESIAN_POINT('',(-0.028,-0.023,0.016));
#1055=CARTESIAN_POINT('',(-0.028,-0.023,0.016));
#1056=CARTESIAN_POINT('',(-0.028,-0.023,0.008));
#1057=CARTESIAN_POINT('',(-0.041,-0.023,0.016));
#1058=CARTESIAN_POINT('',(-0.039,0.,0.016));
#1059=CARTESIAN_POINT('',(-0.045,0.,0.016));
#1060=CARTESIAN_POINT('',(-0.041,0.023,0.016));
#1061=CARTESIAN_POINT('',(-0.054,0.023,0.016));
#1062=CARTESIAN_POINT('',(-0.054,-0.023,0.016));
#1063=CARTESIAN_POINT('',(-0.054,-0.023,0.016));
#1064=CARTESIAN_POINT('',(-0.041,-0.023,0.016));
#1065=CARTESIAN_POINT('',(-0.054,-0.023,-0.011));
#1066=CARTESIAN_POINT('',(-0.054,0.023,-0.011));
#1067=CARTESIAN_POINT('',(-0.054,0.023,-0.038));
#1068=CARTESIAN_POINT('',(-0.054,-0.023,-0.038));
#1069=CARTESIAN_POINT('',(-0.054,-0.023,-0.038));
#1070=CARTESIAN_POINT('',(-0.054,-0.023,-0.011));
#1071=CARTESIAN_POINT('',(-0.077,-0.023,-0.038));
#1072=CARTESIAN_POINT('',(-0.077,-0.006,-0.038));
#1073=CARTESIAN_POINT('',(-0.0865,-0.006,-0.038));
#1074=CARTESIAN_POINT('',(-0.0785,-0.006,-0.038));
#1075=CARTESIAN_POINT('',(-0.0865,0.,-0.038));
#1076=CARTESIAN_POINT('',(-0.0865,0.006,-0.038));
#1077=CARTESIAN_POINT('',(-0.077,0.006,-0.038));
#1078=CARTESIAN_POINT('',(-0.0785,0.006,-0.038));
#1079=CARTESIAN_POINT('',(-0.0785,8.67361737988404E-19,-0.038));
#1080=CARTESIAN_POINT('',(-0.077,0.023,-0.038));
#1081=CARTESIAN_POINT('',(-0.1,0.023,-0.038));
#1082=CARTESIAN_POINT('',(-0.1,-0.023,-0.038));
#1083=CARTESIAN_POINT('',(-0.1,-0.023,-0.038));
#1084=CARTESIAN_POINT('',(-0.077,-0.023,-0.038));
#1085=CARTESIAN_POINT('',(-0.102,-0.023,-0.045));
#1086=CARTESIAN_POINT('',(-0.102,0.023,-0.045));
#1087=CARTESIAN_POINT('',(-0.102,-0.023,-0.045));
#1088=CARTESIAN_POINT('',(0.102,-0.023,-0.045));
#1089=CARTESIAN_POINT('',(0.102,0.023,-0.045));
#1090=CARTESIAN_POINT('',(0.1,0.023,-0.038));
#1091=CARTESIAN_POINT('',(0.1,-0.023,-0.038));
#1092=CARTESIAN_POINT('',(0.1,-0.023,-0.038));
#1093=CARTESIAN_POINT('',(0.102,-0.023,-0.045));
#1094=CARTESIAN_POINT('',(0.077,-0.023,-0.038));
#1095=CARTESIAN_POINT('',(0.077,-0.006,-0.038));
#1096=CARTESIAN_POINT('',(0.0785,-0.006,-0.038));
#1097=CARTESIAN_POINT('',(0.0865,-0.006,-0.038));
#1098=CARTESIAN_POINT('',(0.0785,8.67361737988404E-19,-0.038));
#1099=CARTESIAN_POINT('',(0.0785,0.006,-0.038));
#1100=CARTESIAN_POINT('',(0.077,0.006,-0.038));
#1101=CARTESIAN_POINT('',(0.0865,0.006,-0.038));
#1102=CARTESIAN_POINT('',(0.0865,0.,-0.038));
#1103=CARTESIAN_POINT('',(0.077,0.023,-0.038));
#1104=CARTESIAN_POINT('',(0.054,0.023,-0.038));
#1105=CARTESIAN_POINT('',(0.054,-0.023,-0.038));
#1106=CARTESIAN_POINT('',(0.054,-0.023,-0.038));
#1107=CARTESIAN_POINT('',(0.077,-0.023,-0.038));
#1108=CARTESIAN_POINT('',(0.054,-0.023,-0.011));
#1109=CARTESIAN_POINT('',(0.054,0.023,-0.011));
#1110=CARTESIAN_POINT('',(0.054,0.023,0.016));
#1111=CARTESIAN_POINT('',(0.054,-0.023,0.016));
#1112=CARTESIAN_POINT('',(0.054,-0.023,0.016));
#1113=CARTESIAN_POINT('',(0.054,-0.023,-0.011));
#1114=CARTESIAN_POINT('',(0.041,-0.023,0.016));
#1115=CARTESIAN_POINT('',(0.039,-8.19869818646248E-19,0.016));
#1116=CARTESIAN_POINT('',(0.045,-8.19869818646248E-19,0.016));
#1117=CARTESIAN_POINT('',(0.041,0.023,0.016));
#1118=CARTESIAN_POINT('',(0.028,0.023,0.016));
#1119=CARTESIAN_POINT('',(0.028,-0.023,0.016));
#1120=CARTESIAN_POINT('',(0.028,-0.023,0.016));
#1121=CARTESIAN_POINT('',(0.041,-0.023,0.016));
#1122=CARTESIAN_POINT('',(0.028,-0.023,0.008));
#1123=CARTESIAN_POINT('',(0.028,0.023,0.008));
#1124=CARTESIAN_POINT('',(0.028,-0.023,0.008));
#1125=CARTESIAN_POINT('',(0.,-0.023,-0.018));
#1126=CARTESIAN_POINT('',(0.,0.023,-0.018));
#1127=CARTESIAN_POINT('',(0.0825,-0.006,0.171625741843011));
#1128=CARTESIAN_POINT('',(0.0865,-0.006,0.171625741843011));
#1129=CARTESIAN_POINT('',(0.0785,-0.006,0.171625741843011));
#1130=CARTESIAN_POINT('',(0.0785,8.67361737988404E-19,0.171625741843011));
#1131=CARTESIAN_POINT('',(0.0785,0.006,0.171625741843011));
#1132=CARTESIAN_POINT('',(0.0825,0.006,0.171625741843011));
#1133=CARTESIAN_POINT('',(0.0865,0.006,0.171625741843011));
#1134=CARTESIAN_POINT('',(0.0865,0.,0.171625741843011));
#1135=CARTESIAN_POINT('',(-0.0825,-0.006,0.171625741843011));
#1136=CARTESIAN_POINT('',(-0.0785,-0.006,0.171625741843011));
#1137=CARTESIAN_POINT('',(-0.0865,-0.006,0.171625741843011));
#1138=CARTESIAN_POINT('',(-0.0865,0.,0.171625741843011));
#1139=CARTESIAN_POINT('',(-0.0865,0.006,0.171625741843011));
#1140=CARTESIAN_POINT('',(-0.0825,0.006,0.171625741843011));
#1141=CARTESIAN_POINT('',(-0.0785,0.006,0.171625741843011));
#1142=CARTESIAN_POINT('',(-0.0785,8.67361737988404E-19,0.171625741843011));
#1143=CARTESIAN_POINT('',(0.027,4.33680868994202E-18,-0.042));
#1144=CARTESIAN_POINT('',(0.027,0.012,-0.042));
#1145=CARTESIAN_POINT('',(0.027,0.012,-0.042));
#1146=CARTESIAN_POINT('',(0.027,4.33680868994202E-18,-0.042));
#1147=CARTESIAN_POINT('',(0.027,-0.012,-0.042));
#1148=CARTESIAN_POINT('',(0.027,-0.012,-0.042));
#1149=CARTESIAN_POINT('',(0.039,0.012,-0.042));
#1150=CARTESIAN_POINT('',(0.051,0.012,-0.042));
#1151=CARTESIAN_POINT('',(0.051,0.012,-0.042));
#1152=CARTESIAN_POINT('',(0.039,0.012,-0.042));
#1153=CARTESIAN_POINT('',(0.051,1.7347234759768E-18,-0.042));
#1154=CARTESIAN_POINT('',(0.051,-0.012,-0.042));
#1155=CARTESIAN_POINT('',(0.051,-0.012,-0.042));
#1156=CARTESIAN_POINT('',(0.051,1.7347234759768E-18,-0.042));
#1157=CARTESIAN_POINT('',(0.039,-0.012,-0.042));
#1158=CARTESIAN_POINT('',(0.039,-0.012,-0.042));
#1159=CARTESIAN_POINT('',(0.,0.,-0.042));
#1160=CARTESIAN_POINT('',(0.039,-8.19869818646248E-19,-0.042));
#1161=CARTESIAN_POINT('',(0.045,-8.19869818646248E-19,-0.042));
#1162=CARTESIAN_POINT('',(-0.039,0.012,-0.042));
#1163=CARTESIAN_POINT('',(-0.027,0.012,-0.042));
#1164=CARTESIAN_POINT('',(-0.027,0.012,-0.042));
#1165=CARTESIAN_POINT('',(-0.039,0.012,-0.042));
#1166=CARTESIAN_POINT('',(-0.051,0.012,-0.042));
#1167=CARTESIAN_POINT('',(-0.051,0.012,-0.042));
#1168=CARTESIAN_POINT('',(-0.027,4.33680868994202E-18,-0.042));
#1169=CARTESIAN_POINT('',(-0.027,-0.012,-0.042));
#1170=CARTESIAN_POINT('',(-0.027,-0.012,-0.042));
#1171=CARTESIAN_POINT('',(-0.027,4.33680868994202E-18,-0.042));
#1172=CARTESIAN_POINT('',(-0.039,-0.012,-0.042));
#1173=CARTESIAN_POINT('',(-0.051,-0.012,-0.042));
#1174=CARTESIAN_POINT('',(-0.051,-0.012,-0.042));
#1175=CARTESIAN_POINT('',(-0.039,-0.012,-0.042));
#1176=CARTESIAN_POINT('',(-0.051,1.7347234759768E-18,-0.042));
#1177=CARTESIAN_POINT('',(-0.051,1.7347234759768E-18,-0.042));
#1178=CARTESIAN_POINT('',(0.,0.,-0.042));
#1179=CARTESIAN_POINT('',(-0.039,0.,-0.042));
#1180=CARTESIAN_POINT('',(-0.033,0.,-0.042));
#1181=CARTESIAN_POINT('',(0.039,-8.19869818646248E-19,-0.052));
#1182=CARTESIAN_POINT('',(-0.039,0.,-0.052));
#1183=CARTESIAN_POINT('',(0.004,0.,-0.032));
#1184=CARTESIAN_POINT('',(0.,0.,-0.032));
#1185=CARTESIAN_POINT('',(-0.004,0.,-0.032));
#1186=CARTESIAN_POINT('',(0.,0.,-0.024));
#1187=MECHANICAL_DESIGN_GEOMETRIC_PRESENTATION_REPRESENTATION('',(#723),
#1188);
#1188=(
GEOMETRIC_REPRESENTATION_CONTEXT(3)
GLOBAL_UNCERTAINTY_ASSIGNED_CONTEXT((#1189))
GLOBAL_UNIT_ASSIGNED_CONTEXT((#1192,#1191,#1190))
REPRESENTATION_CONTEXT('Part 1','TOP_LEVEL_ASSEMBLY_PART')
);
#1189=UNCERTAINTY_MEASURE_WITH_UNIT(LENGTH_MEASURE(2.E-5),#1192,
'DISTANCE_ACCURACY_VALUE','Maximum Tolerance applied to model');
#1190=(
NAMED_UNIT(*)
SI_UNIT($,.STERADIAN.)
SOLID_ANGLE_UNIT()
);
#1191=(
NAMED_UNIT(*)
PLANE_ANGLE_UNIT()
SI_UNIT($,.RADIAN.)
);
#1192=(
LENGTH_UNIT()
NAMED_UNIT(*)
SI_UNIT($,.METRE.)
);
#1193=PRODUCT_DEFINITION_SHAPE('','',#1194);
#1194=PRODUCT_DEFINITION('','',#1196,#1195);
#1195=PRODUCT_DEFINITION_CONTEXT('',#1202,'design');
#1196=PRODUCT_DEFINITION_FORMATION_WITH_SPECIFIED_SOURCE('','',#1198,
 .NOT_KNOWN.);
#1197=PRODUCT_RELATED_PRODUCT_CATEGORY('','',(#1198));
#1198=PRODUCT('Part 1','Part 1','Part 1',(#1200));
#1199=PRODUCT_CATEGORY('','');
#1200=PRODUCT_CONTEXT('',#1202,'mechanical');
#1201=APPLICATION_PROTOCOL_DEFINITION('international standard',
'ap242_managed_model_based_3d_engineering',2020,#1202);
#1202=APPLICATION_CONTEXT('managed model based 3d engineering');
ENDSEC;
END-ISO-10303-21;
