ISO-10303-21;
HEADER;
/* Generated by software containing ST-Developer
 * from STEP Tools, Inc. (www.steptools.com) 
 */
/* OPTION: using custom renumber hook */

FILE_DESCRIPTION(
/* description */ ('STEP AP242 Edition 2',
'CAx-IF Rec.Pracs.---Representation and Presentation of Product Manufa
cturing Information (PMI)---4.0---2014-10-13',
'CAx-IF Rec.Pracs.---3D Tessellated Geometry---0.4---2014-09-14','2;1',
'CAx-IF Rec.Pracs.---User Defined Attributes---1.5---2016-08-15'),
/* implementation_level */ '2;1');

FILE_NAME(
/* name */ 'Part Studio 1',
/* time_stamp */ '2026-09-10T17:01:39Z',
/* author */ (''),
/* organization */ (''),
/* preprocessor_version */ 'ST-DEVELOPER v20',
/* originating_system */ 'ONSHAPE BY PTC INC, 1.220',
/* authorisation */ '  ');

FILE_SCHEMA (('AP242_MANAGED_MODEL_BASED_3D_ENGINEERING_MIM_LF { 1 0 10303 442 3 1 4 }'));
ENDSEC;

DATA;
#10=SHAPE_REPRESENTATION_RELATIONSHIP('','',#499,#11);
#11=ADVANCED_BREP_SHAPE_REPRESENTATION('',(#497),#819);
#12=CYLINDRICAL_SURFACE('',#519,0.018);
#13=CYLINDRICAL_SURFACE('',#522,0.018);
#14=CYLINDRICAL_SURFACE('',#525,0.018);
#15=CYLINDRICAL_SURFACE('',#531,0.008);
#16=CYLINDRICAL_SURFACE('',#533,0.008);
#17=CYLINDRICAL_SURFACE('',#535,0.008);
#18=CYLINDRICAL_SURFACE('',#538,0.014);
#19=CYLINDRICAL_SURFACE('',#540,0.014);
#20=CYLINDRICAL_SURFACE('',#542,0.008);
#21=CYLINDRICAL_SURFACE('',#545,0.008);
#22=LINE('',#689,#66);
#23=LINE('',#691,#67);
#24=LINE('',#693,#68);
#25=LINE('',#695,#69);
#26=LINE('',#697,#70);
#27=LINE('',#701,#71);
#28=LINE('',#706,#72);
#29=LINE('',#708,#73);
#30=LINE('',#710,#74);
#31=LINE('',#712,#75);
#32=LINE('',#716,#76);
#33=LINE('',#721,#77);
#34=LINE('',#723,#78);
#35=LINE('',#725,#79);
#36=LINE('',#727,#80);
#37=LINE('',#732,#81);
#38=LINE('',#736,#82);
#39=LINE('',#740,#83);
#40=LINE('',#742,#84);
#41=LINE('',#744,#85);
#42=LINE('',#745,#86);
#43=LINE('',#746,#87);
#44=LINE('',#747,#88);
#45=LINE('',#755,#89);
#46=LINE('',#757,#90);
#47=LINE('',#759,#91);
#48=LINE('',#763,#92);
#49=LINE('',#765,#93);
#50=LINE('',#767,#94);
#51=LINE('',#771,#95);
#52=LINE('',#773,#96);
#53=LINE('',#775,#97);
#54=LINE('',#779,#98);
#55=LINE('',#781,#99);
#56=LINE('',#783,#100);
#57=LINE('',#790,#101);
#58=LINE('',#791,#102);
#59=LINE('',#793,#103);
#60=LINE('',#804,#104);
#61=LINE('',#805,#105);
#62=LINE('',#807,#106);
#63=LINE('',#808,#107);
#64=LINE('',#811,#108);
#65=LINE('',#812,#109);
#66=VECTOR('',#554,1.);
#67=VECTOR('',#555,1.);
#68=VECTOR('',#556,1.);
#69=VECTOR('',#557,1.);
#70=VECTOR('',#558,1.);
#71=VECTOR('',#563,1.);
#72=VECTOR('',#566,1.);
#73=VECTOR('',#567,1.);
#74=VECTOR('',#568,1.);
#75=VECTOR('',#569,1.);
#76=VECTOR('',#574,1.);
#77=VECTOR('',#577,1.);
#78=VECTOR('',#578,1.);
#79=VECTOR('',#579,1.);
#80=VECTOR('',#580,1.);
#81=VECTOR('',#585,1.);
#82=VECTOR('',#588,1.);
#83=VECTOR('',#591,1.);
#84=VECTOR('',#592,1.);
#85=VECTOR('',#593,1.);
#86=VECTOR('',#594,1.);
#87=VECTOR('',#595,1.);
#88=VECTOR('',#596,1.);
#89=VECTOR('',#605,1.);
#90=VECTOR('',#608,1.);
#91=VECTOR('',#609,1.);
#92=VECTOR('',#614,1.);
#93=VECTOR('',#617,1.);
#94=VECTOR('',#618,1.);
#95=VECTOR('',#623,1.);
#96=VECTOR('',#626,1.);
#97=VECTOR('',#627,1.);
#98=VECTOR('',#632,1.);
#99=VECTOR('',#635,1.);
#100=VECTOR('',#636,1.);
#101=VECTOR('',#643,1.);
#102=VECTOR('',#644,1.);
#103=VECTOR('',#645,1.);
#104=VECTOR('',#660,1.);
#105=VECTOR('',#661,1.);
#106=VECTOR('',#664,1.);
#107=VECTOR('',#665,1.);
#108=VECTOR('',#670,1.);
#109=VECTOR('',#671,1.);
#110=ORIENTED_EDGE('',*,*,#238,.T.);
#111=ORIENTED_EDGE('',*,*,#239,.F.);
#112=ORIENTED_EDGE('',*,*,#240,.T.);
#113=ORIENTED_EDGE('',*,*,#241,.F.);
#114=ORIENTED_EDGE('',*,*,#242,.F.);
#115=ORIENTED_EDGE('',*,*,#243,.F.);
#116=ORIENTED_EDGE('',*,*,#244,.F.);
#117=ORIENTED_EDGE('',*,*,#245,.F.);
#118=ORIENTED_EDGE('',*,*,#246,.F.);
#119=ORIENTED_EDGE('',*,*,#247,.T.);
#120=ORIENTED_EDGE('',*,*,#248,.T.);
#121=ORIENTED_EDGE('',*,*,#249,.T.);
#122=ORIENTED_EDGE('',*,*,#250,.T.);
#123=ORIENTED_EDGE('',*,*,#251,.T.);
#124=ORIENTED_EDGE('',*,*,#252,.F.);
#125=ORIENTED_EDGE('',*,*,#253,.F.);
#126=ORIENTED_EDGE('',*,*,#254,.T.);
#127=ORIENTED_EDGE('',*,*,#255,.T.);
#128=ORIENTED_EDGE('',*,*,#256,.T.);
#129=ORIENTED_EDGE('',*,*,#257,.T.);
#130=ORIENTED_EDGE('',*,*,#258,.T.);
#131=ORIENTED_EDGE('',*,*,#259,.T.);
#132=ORIENTED_EDGE('',*,*,#260,.F.);
#133=ORIENTED_EDGE('',*,*,#261,.T.);
#134=ORIENTED_EDGE('',*,*,#262,.F.);
#135=ORIENTED_EDGE('',*,*,#263,.T.);
#136=ORIENTED_EDGE('',*,*,#264,.F.);
#137=ORIENTED_EDGE('',*,*,#265,.T.);
#138=ORIENTED_EDGE('',*,*,#266,.F.);
#139=ORIENTED_EDGE('',*,*,#258,.F.);
#140=ORIENTED_EDGE('',*,*,#267,.F.);
#141=ORIENTED_EDGE('',*,*,#241,.T.);
#142=ORIENTED_EDGE('',*,*,#268,.F.);
#143=ORIENTED_EDGE('',*,*,#251,.F.);
#144=ORIENTED_EDGE('',*,*,#269,.F.);
#145=ORIENTED_EDGE('',*,*,#270,.F.);
#146=ORIENTED_EDGE('',*,*,#271,.F.);
#147=ORIENTED_EDGE('',*,*,#272,.F.);
#148=ORIENTED_EDGE('',*,*,#267,.T.);
#149=ORIENTED_EDGE('',*,*,#257,.F.);
#150=ORIENTED_EDGE('',*,*,#273,.F.);
#151=ORIENTED_EDGE('',*,*,#242,.T.);
#152=ORIENTED_EDGE('',*,*,#269,.T.);
#153=ORIENTED_EDGE('',*,*,#250,.F.);
#154=ORIENTED_EDGE('',*,*,#274,.F.);
#155=ORIENTED_EDGE('',*,*,#275,.T.);
#156=ORIENTED_EDGE('',*,*,#259,.F.);
#157=ORIENTED_EDGE('',*,*,#275,.F.);
#158=ORIENTED_EDGE('',*,*,#276,.T.);
#159=ORIENTED_EDGE('',*,*,#277,.T.);
#160=ORIENTED_EDGE('',*,*,#260,.T.);
#161=ORIENTED_EDGE('',*,*,#277,.F.);
#162=ORIENTED_EDGE('',*,*,#278,.F.);
#163=ORIENTED_EDGE('',*,*,#279,.T.);
#164=ORIENTED_EDGE('',*,*,#261,.F.);
#165=ORIENTED_EDGE('',*,*,#279,.F.);
#166=ORIENTED_EDGE('',*,*,#280,.T.);
#167=ORIENTED_EDGE('',*,*,#281,.T.);
#168=ORIENTED_EDGE('',*,*,#262,.T.);
#169=ORIENTED_EDGE('',*,*,#281,.F.);
#170=ORIENTED_EDGE('',*,*,#282,.F.);
#171=ORIENTED_EDGE('',*,*,#283,.T.);
#172=ORIENTED_EDGE('',*,*,#263,.F.);
#173=ORIENTED_EDGE('',*,*,#283,.F.);
#174=ORIENTED_EDGE('',*,*,#284,.T.);
#175=ORIENTED_EDGE('',*,*,#285,.T.);
#176=ORIENTED_EDGE('',*,*,#264,.T.);
#177=ORIENTED_EDGE('',*,*,#285,.F.);
#178=ORIENTED_EDGE('',*,*,#286,.F.);
#179=ORIENTED_EDGE('',*,*,#287,.T.);
#180=ORIENTED_EDGE('',*,*,#288,.F.);
#181=ORIENTED_EDGE('',*,*,#289,.T.);
#182=ORIENTED_EDGE('',*,*,#290,.F.);
#183=ORIENTED_EDGE('',*,*,#265,.F.);
#184=ORIENTED_EDGE('',*,*,#287,.F.);
#185=ORIENTED_EDGE('',*,*,#291,.F.);
#186=ORIENTED_EDGE('',*,*,#292,.T.);
#187=ORIENTED_EDGE('',*,*,#293,.F.);
#188=ORIENTED_EDGE('',*,*,#272,.T.);
#189=ORIENTED_EDGE('',*,*,#294,.F.);
#190=ORIENTED_EDGE('',*,*,#270,.T.);
#191=ORIENTED_EDGE('',*,*,#295,.F.);
#192=ORIENTED_EDGE('',*,*,#271,.T.);
#193=ORIENTED_EDGE('',*,*,#249,.F.);
#194=ORIENTED_EDGE('',*,*,#296,.T.);
#195=ORIENTED_EDGE('',*,*,#243,.T.);
#196=ORIENTED_EDGE('',*,*,#273,.T.);
#197=ORIENTED_EDGE('',*,*,#256,.F.);
#198=ORIENTED_EDGE('',*,*,#297,.T.);
#199=ORIENTED_EDGE('',*,*,#291,.T.);
#200=ORIENTED_EDGE('',*,*,#286,.T.);
#201=ORIENTED_EDGE('',*,*,#284,.F.);
#202=ORIENTED_EDGE('',*,*,#282,.T.);
#203=ORIENTED_EDGE('',*,*,#280,.F.);
#204=ORIENTED_EDGE('',*,*,#278,.T.);
#205=ORIENTED_EDGE('',*,*,#276,.F.);
#206=ORIENTED_EDGE('',*,*,#274,.T.);
#207=ORIENTED_EDGE('',*,*,#294,.T.);
#208=ORIENTED_EDGE('',*,*,#293,.T.);
#209=ORIENTED_EDGE('',*,*,#295,.T.);
#210=ORIENTED_EDGE('',*,*,#254,.F.);
#211=ORIENTED_EDGE('',*,*,#298,.T.);
#212=ORIENTED_EDGE('',*,*,#289,.F.);
#213=ORIENTED_EDGE('',*,*,#299,.F.);
#214=ORIENTED_EDGE('',*,*,#299,.T.);
#215=ORIENTED_EDGE('',*,*,#292,.F.);
#216=ORIENTED_EDGE('',*,*,#297,.F.);
#217=ORIENTED_EDGE('',*,*,#255,.F.);
#218=ORIENTED_EDGE('',*,*,#239,.T.);
#219=ORIENTED_EDGE('',*,*,#300,.F.);
#220=ORIENTED_EDGE('',*,*,#247,.F.);
#221=ORIENTED_EDGE('',*,*,#301,.T.);
#222=ORIENTED_EDGE('',*,*,#244,.T.);
#223=ORIENTED_EDGE('',*,*,#296,.F.);
#224=ORIENTED_EDGE('',*,*,#248,.F.);
#225=ORIENTED_EDGE('',*,*,#300,.T.);
#226=ORIENTED_EDGE('',*,*,#252,.T.);
#227=ORIENTED_EDGE('',*,*,#288,.T.);
#228=ORIENTED_EDGE('',*,*,#253,.T.);
#229=ORIENTED_EDGE('',*,*,#266,.T.);
#230=ORIENTED_EDGE('',*,*,#290,.T.);
#231=ORIENTED_EDGE('',*,*,#298,.F.);
#232=ORIENTED_EDGE('',*,*,#301,.F.);
#233=ORIENTED_EDGE('',*,*,#246,.T.);
#234=ORIENTED_EDGE('',*,*,#268,.T.);
#235=ORIENTED_EDGE('',*,*,#240,.F.);
#236=ORIENTED_EDGE('',*,*,#245,.T.);
#237=ORIENTED_EDGE('',*,*,#238,.F.);
#238=EDGE_CURVE('',#302,#302,#348,.T.);
#239=EDGE_CURVE('',#303,#304,#349,.T.);
#240=EDGE_CURVE('',#303,#305,#22,.T.);
#241=EDGE_CURVE('',#306,#305,#23,.T.);
#242=EDGE_CURVE('',#307,#306,#24,.T.);
#243=EDGE_CURVE('',#308,#307,#25,.T.);
#244=EDGE_CURVE('',#304,#308,#26,.T.);
#245=EDGE_CURVE('',#309,#309,#350,.T.);
#246=EDGE_CURVE('',#310,#311,#27,.T.);
#247=EDGE_CURVE('',#310,#312,#351,.T.);
#248=EDGE_CURVE('',#312,#313,#28,.T.);
#249=EDGE_CURVE('',#313,#314,#29,.T.);
#250=EDGE_CURVE('',#314,#315,#30,.T.);
#251=EDGE_CURVE('',#315,#311,#31,.T.);
#252=EDGE_CURVE('',#316,#316,#352,.T.);
#253=EDGE_CURVE('',#317,#318,#32,.T.);
#254=EDGE_CURVE('',#317,#319,#353,.T.);
#255=EDGE_CURVE('',#319,#320,#33,.T.);
#256=EDGE_CURVE('',#320,#321,#34,.T.);
#257=EDGE_CURVE('',#321,#322,#35,.T.);
#258=EDGE_CURVE('',#322,#318,#36,.T.);
#259=EDGE_CURVE('',#323,#324,#354,.T.);
#260=EDGE_CURVE('',#325,#324,#37,.T.);
#261=EDGE_CURVE('',#325,#326,#355,.T.);
#262=EDGE_CURVE('',#327,#326,#38,.T.);
#263=EDGE_CURVE('',#327,#328,#356,.T.);
#264=EDGE_CURVE('',#329,#328,#39,.T.);
#265=EDGE_CURVE('',#329,#330,#40,.T.);
#266=EDGE_CURVE('',#318,#330,#41,.T.);
#267=EDGE_CURVE('',#306,#322,#42,.T.);
#268=EDGE_CURVE('',#311,#305,#43,.T.);
#269=EDGE_CURVE('',#323,#315,#44,.T.);
#270=EDGE_CURVE('',#331,#331,#357,.T.);
#271=EDGE_CURVE('',#332,#332,#358,.T.);
#272=EDGE_CURVE('',#333,#333,#359,.T.);
#273=EDGE_CURVE('',#307,#321,#45,.T.);
#274=EDGE_CURVE('',#334,#314,#46,.T.);
#275=EDGE_CURVE('',#334,#323,#47,.T.);
#276=EDGE_CURVE('',#334,#335,#360,.T.);
#277=EDGE_CURVE('',#335,#324,#48,.T.);
#278=EDGE_CURVE('',#336,#335,#49,.T.);
#279=EDGE_CURVE('',#336,#325,#50,.T.);
#280=EDGE_CURVE('',#336,#337,#361,.T.);
#281=EDGE_CURVE('',#337,#326,#51,.T.);
#282=EDGE_CURVE('',#338,#337,#52,.T.);
#283=EDGE_CURVE('',#338,#327,#53,.T.);
#284=EDGE_CURVE('',#338,#339,#362,.T.);
#285=EDGE_CURVE('',#339,#328,#54,.T.);
#286=EDGE_CURVE('',#340,#339,#55,.T.);
#287=EDGE_CURVE('',#340,#329,#56,.T.);
#288=EDGE_CURVE('',#341,#341,#363,.T.);
#289=EDGE_CURVE('',#342,#343,#364,.T.);
#290=EDGE_CURVE('',#330,#343,#57,.T.);
#291=EDGE_CURVE('',#344,#340,#58,.T.);
#292=EDGE_CURVE('',#344,#342,#59,.T.);
#293=EDGE_CURVE('',#345,#345,#365,.T.);
#294=EDGE_CURVE('',#346,#346,#366,.T.);
#295=EDGE_CURVE('',#347,#347,#367,.T.);
#296=EDGE_CURVE('',#313,#308,#60,.T.);
#297=EDGE_CURVE('',#320,#344,#61,.T.);
#298=EDGE_CURVE('',#317,#343,#62,.T.);
#299=EDGE_CURVE('',#319,#342,#63,.T.);
#300=EDGE_CURVE('',#312,#304,#64,.T.);
#301=EDGE_CURVE('',#310,#303,#65,.T.);
#302=VERTEX_POINT('',#685);
#303=VERTEX_POINT('',#687);
#304=VERTEX_POINT('',#688);
#305=VERTEX_POINT('',#690);
#306=VERTEX_POINT('',#692);
#307=VERTEX_POINT('',#694);
#308=VERTEX_POINT('',#696);
#309=VERTEX_POINT('',#700);
#310=VERTEX_POINT('',#702);
#311=VERTEX_POINT('',#703);
#312=VERTEX_POINT('',#705);
#313=VERTEX_POINT('',#707);
#314=VERTEX_POINT('',#709);
#315=VERTEX_POINT('',#711);
#316=VERTEX_POINT('',#715);
#317=VERTEX_POINT('',#717);
#318=VERTEX_POINT('',#718);
#319=VERTEX_POINT('',#720);
#320=VERTEX_POINT('',#722);
#321=VERTEX_POINT('',#724);
#322=VERTEX_POINT('',#726);
#323=VERTEX_POINT('',#730);
#324=VERTEX_POINT('',#731);
#325=VERTEX_POINT('',#733);
#326=VERTEX_POINT('',#735);
#327=VERTEX_POINT('',#737);
#328=VERTEX_POINT('',#739);
#329=VERTEX_POINT('',#741);
#330=VERTEX_POINT('',#743);
#331=VERTEX_POINT('',#749);
#332=VERTEX_POINT('',#751);
#333=VERTEX_POINT('',#753);
#334=VERTEX_POINT('',#758);
#335=VERTEX_POINT('',#762);
#336=VERTEX_POINT('',#766);
#337=VERTEX_POINT('',#770);
#338=VERTEX_POINT('',#774);
#339=VERTEX_POINT('',#778);
#340=VERTEX_POINT('',#782);
#341=VERTEX_POINT('',#786);
#342=VERTEX_POINT('',#788);
#343=VERTEX_POINT('',#789);
#344=VERTEX_POINT('',#792);
#345=VERTEX_POINT('',#796);
#346=VERTEX_POINT('',#799);
#347=VERTEX_POINT('',#802);
#348=CIRCLE('',#502,0.008);
#349=CIRCLE('',#503,0.014);
#350=CIRCLE('',#505,0.008);
#351=CIRCLE('',#506,0.014);
#352=CIRCLE('',#508,0.008);
#353=CIRCLE('',#509,0.014);
#354=CIRCLE('',#511,0.018);
#355=CIRCLE('',#512,0.018);
#356=CIRCLE('',#513,0.018);
#357=CIRCLE('',#514,0.008);
#358=CIRCLE('',#515,0.008);
#359=CIRCLE('',#516,0.008);
#360=CIRCLE('',#520,0.018);
#361=CIRCLE('',#523,0.018);
#362=CIRCLE('',#526,0.018);
#363=CIRCLE('',#529,0.008);
#364=CIRCLE('',#530,0.014);
#365=CIRCLE('',#532,0.008);
#366=CIRCLE('',#534,0.008);
#367=CIRCLE('',#536,0.008);
#368=EDGE_LOOP('',(#110));
#369=EDGE_LOOP('',(#111,#112,#113,#114,#115,#116));
#370=EDGE_LOOP('',(#117));
#371=EDGE_LOOP('',(#118,#119,#120,#121,#122,#123));
#372=EDGE_LOOP('',(#124));
#373=EDGE_LOOP('',(#125,#126,#127,#128,#129,#130));
#374=EDGE_LOOP('',(#131,#132,#133,#134,#135,#136,#137,#138,#139,#140,#141,
#142,#143,#144));
#375=EDGE_LOOP('',(#145));
#376=EDGE_LOOP('',(#146));
#377=EDGE_LOOP('',(#147));
#378=EDGE_LOOP('',(#148,#149,#150,#151));
#379=EDGE_LOOP('',(#152,#153,#154,#155));
#380=EDGE_LOOP('',(#156,#157,#158,#159));
#381=EDGE_LOOP('',(#160,#161,#162,#163));
#382=EDGE_LOOP('',(#164,#165,#166,#167));
#383=EDGE_LOOP('',(#168,#169,#170,#171));
#384=EDGE_LOOP('',(#172,#173,#174,#175));
#385=EDGE_LOOP('',(#176,#177,#178,#179));
#386=EDGE_LOOP('',(#180));
#387=EDGE_LOOP('',(#181,#182,#183,#184,#185,#186));
#388=EDGE_LOOP('',(#187));
#389=EDGE_LOOP('',(#188));
#390=EDGE_LOOP('',(#189));
#391=EDGE_LOOP('',(#190));
#392=EDGE_LOOP('',(#191));
#393=EDGE_LOOP('',(#192));
#394=EDGE_LOOP('',(#193,#194,#195,#196,#197,#198,#199,#200,#201,#202,#203,
#204,#205,#206));
#395=EDGE_LOOP('',(#207));
#396=EDGE_LOOP('',(#208));
#397=EDGE_LOOP('',(#209));
#398=EDGE_LOOP('',(#210,#211,#212,#213));
#399=EDGE_LOOP('',(#214,#215,#216,#217));
#400=EDGE_LOOP('',(#218,#219,#220,#221));
#401=EDGE_LOOP('',(#222,#223,#224,#225));
#402=EDGE_LOOP('',(#226));
#403=EDGE_LOOP('',(#227));
#404=EDGE_LOOP('',(#228,#229,#230,#231));
#405=EDGE_LOOP('',(#232,#233,#234,#235));
#406=EDGE_LOOP('',(#236));
#407=EDGE_LOOP('',(#237));
#408=FACE_BOUND('',#368,.T.);
#409=FACE_BOUND('',#369,.T.);
#410=FACE_BOUND('',#370,.T.);
#411=FACE_BOUND('',#371,.T.);
#412=FACE_BOUND('',#372,.T.);
#413=FACE_BOUND('',#373,.T.);
#414=FACE_BOUND('',#374,.T.);
#415=FACE_BOUND('',#375,.T.);
#416=FACE_BOUND('',#376,.T.);
#417=FACE_BOUND('',#377,.T.);
#418=FACE_BOUND('',#378,.T.);
#419=FACE_BOUND('',#379,.T.);
#420=FACE_BOUND('',#380,.T.);
#421=FACE_BOUND('',#381,.T.);
#422=FACE_BOUND('',#382,.T.);
#423=FACE_BOUND('',#383,.T.);
#424=FACE_BOUND('',#384,.T.);
#425=FACE_BOUND('',#385,.T.);
#426=FACE_BOUND('',#386,.T.);
#427=FACE_BOUND('',#387,.T.);
#428=FACE_BOUND('',#388,.T.);
#429=FACE_BOUND('',#389,.T.);
#430=FACE_BOUND('',#390,.T.);
#431=FACE_BOUND('',#391,.T.);
#432=FACE_BOUND('',#392,.T.);
#433=FACE_BOUND('',#393,.T.);
#434=FACE_BOUND('',#394,.T.);
#435=FACE_BOUND('',#395,.T.);
#436=FACE_BOUND('',#396,.T.);
#437=FACE_BOUND('',#397,.T.);
#438=FACE_BOUND('',#398,.T.);
#439=FACE_BOUND('',#399,.T.);
#440=FACE_BOUND('',#400,.T.);
#441=FACE_BOUND('',#401,.T.);
#442=FACE_BOUND('',#402,.T.);
#443=FACE_BOUND('',#403,.T.);
#444=FACE_BOUND('',#404,.T.);
#445=FACE_BOUND('',#405,.T.);
#446=FACE_BOUND('',#406,.T.);
#447=FACE_BOUND('',#407,.T.);
#448=PLANE('',#501);
#449=PLANE('',#504);
#450=PLANE('',#507);
#451=PLANE('',#510);
#452=PLANE('',#517);
#453=PLANE('',#518);
#454=PLANE('',#521);
#455=PLANE('',#524);
#456=PLANE('',#527);
#457=PLANE('',#528);
#458=PLANE('',#537);
#459=PLANE('',#539);
#460=PLANE('',#541);
#461=PLANE('',#543);
#462=PLANE('',#544);
#463=ADVANCED_FACE('',(#408,#409),#448,.F.);
#464=ADVANCED_FACE('',(#410,#411),#449,.T.);
#465=ADVANCED_FACE('',(#412,#413),#450,.T.);
#466=ADVANCED_FACE('',(#414,#415,#416,#417),#451,.T.);
#467=ADVANCED_FACE('',(#418),#452,.F.);
#468=ADVANCED_FACE('',(#419),#453,.F.);
#469=ADVANCED_FACE('',(#420),#12,.T.);
#470=ADVANCED_FACE('',(#421),#454,.F.);
#471=ADVANCED_FACE('',(#422),#13,.T.);
#472=ADVANCED_FACE('',(#423),#455,.F.);
#473=ADVANCED_FACE('',(#424),#14,.T.);
#474=ADVANCED_FACE('',(#425),#456,.F.);
#475=ADVANCED_FACE('',(#426,#427),#457,.F.);
#476=ADVANCED_FACE('',(#428,#429),#15,.F.);
#477=ADVANCED_FACE('',(#430,#431),#16,.F.);
#478=ADVANCED_FACE('',(#432,#433),#17,.F.);
#479=ADVANCED_FACE('',(#434,#435,#436,#437),#458,.F.);
#480=ADVANCED_FACE('',(#438),#18,.T.);
#481=ADVANCED_FACE('',(#439),#459,.T.);
#482=ADVANCED_FACE('',(#440),#19,.T.);
#483=ADVANCED_FACE('',(#441),#460,.T.);
#484=ADVANCED_FACE('',(#442,#443),#20,.F.);
#485=ADVANCED_FACE('',(#444),#461,.F.);
#486=ADVANCED_FACE('',(#445),#462,.F.);
#487=ADVANCED_FACE('',(#446,#447),#21,.F.);
#488=CLOSED_SHELL('',(#463,#464,#465,#466,#467,#468,#469,#470,#471,#472,
#473,#474,#475,#476,#477,#478,#479,#480,#481,#482,#483,#484,#485,#486,#487));
#489=STYLED_ITEM('',(#490),#497);
#490=PRESENTATION_STYLE_ASSIGNMENT((#491));
#491=SURFACE_STYLE_USAGE(.BOTH.,#492);
#492=SURFACE_SIDE_STYLE('',(#493));
#493=SURFACE_STYLE_FILL_AREA(#494);
#494=FILL_AREA_STYLE('',(#495));
#495=FILL_AREA_STYLE_COLOUR('',#496);
#496=COLOUR_RGB('',0.615686274509804,0.811764705882353,0.929411764705882);
#497=MANIFOLD_SOLID_BREP('Part 1',#488);
#498=SHAPE_DEFINITION_REPRESENTATION(#824,#499);
#499=SHAPE_REPRESENTATION('Part 1',(#500),#819);
#500=AXIS2_PLACEMENT_3D('',#682,#546,#547);
#501=AXIS2_PLACEMENT_3D('',#683,#548,#549);
#502=AXIS2_PLACEMENT_3D('',#684,#550,#551);
#503=AXIS2_PLACEMENT_3D('',#686,#552,#553);
#504=AXIS2_PLACEMENT_3D('',#698,#559,#560);
#505=AXIS2_PLACEMENT_3D('',#699,#561,#562);
#506=AXIS2_PLACEMENT_3D('',#704,#564,#565);
#507=AXIS2_PLACEMENT_3D('',#713,#570,#571);
#508=AXIS2_PLACEMENT_3D('',#714,#572,#573);
#509=AXIS2_PLACEMENT_3D('',#719,#575,#576);
#510=AXIS2_PLACEMENT_3D('',#728,#581,#582);
#511=AXIS2_PLACEMENT_3D('',#729,#583,#584);
#512=AXIS2_PLACEMENT_3D('',#734,#586,#587);
#513=AXIS2_PLACEMENT_3D('',#738,#589,#590);
#514=AXIS2_PLACEMENT_3D('',#748,#597,#598);
#515=AXIS2_PLACEMENT_3D('',#750,#599,#600);
#516=AXIS2_PLACEMENT_3D('',#752,#601,#602);
#517=AXIS2_PLACEMENT_3D('',#754,#603,#604);
#518=AXIS2_PLACEMENT_3D('',#756,#606,#607);
#519=AXIS2_PLACEMENT_3D('',#760,#610,#611);
#520=AXIS2_PLACEMENT_3D('',#761,#612,#613);
#521=AXIS2_PLACEMENT_3D('',#764,#615,#616);
#522=AXIS2_PLACEMENT_3D('',#768,#619,#620);
#523=AXIS2_PLACEMENT_3D('',#769,#621,#622);
#524=AXIS2_PLACEMENT_3D('',#772,#624,#625);
#525=AXIS2_PLACEMENT_3D('',#776,#628,#629);
#526=AXIS2_PLACEMENT_3D('',#777,#630,#631);
#527=AXIS2_PLACEMENT_3D('',#780,#633,#634);
#528=AXIS2_PLACEMENT_3D('',#784,#637,#638);
#529=AXIS2_PLACEMENT_3D('',#785,#639,#640);
#530=AXIS2_PLACEMENT_3D('',#787,#641,#642);
#531=AXIS2_PLACEMENT_3D('',#794,#646,#647);
#532=AXIS2_PLACEMENT_3D('',#795,#648,#649);
#533=AXIS2_PLACEMENT_3D('',#797,#650,#651);
#534=AXIS2_PLACEMENT_3D('',#798,#652,#653);
#535=AXIS2_PLACEMENT_3D('',#800,#654,#655);
#536=AXIS2_PLACEMENT_3D('',#801,#656,#657);
#537=AXIS2_PLACEMENT_3D('',#803,#658,#659);
#538=AXIS2_PLACEMENT_3D('',#806,#662,#663);
#539=AXIS2_PLACEMENT_3D('',#809,#666,#667);
#540=AXIS2_PLACEMENT_3D('',#810,#668,#669);
#541=AXIS2_PLACEMENT_3D('',#813,#672,#673);
#542=AXIS2_PLACEMENT_3D('',#814,#674,#675);
#543=AXIS2_PLACEMENT_3D('',#815,#676,#677);
#544=AXIS2_PLACEMENT_3D('',#816,#678,#679);
#545=AXIS2_PLACEMENT_3D('',#817,#680,#681);
#546=DIRECTION('',(0.,0.,1.));
#547=DIRECTION('',(1.,0.,0.));
#548=DIRECTION('',(-1.,-6.67201336914157E-17,0.));
#549=DIRECTION('',(6.67201336914157E-17,-1.,0.));
#550=DIRECTION('',(-1.,-6.67201336914157E-17,0.));
#551=DIRECTION('',(6.67201336914157E-17,-1.,0.));
#552=DIRECTION('',(-1.,-6.67201336914157E-17,0.));
#553=DIRECTION('',(6.67201336914157E-17,-1.,0.));
#554=DIRECTION('',(6.18704119327035E-17,-0.927312469409273,-0.37428810304106));
#555=DIRECTION('',(4.95635278850516E-17,-1.,0.));
#556=DIRECTION('',(0.,0.,1.));
#557=DIRECTION('',(6.67201336914157E-17,-1.,0.));
#558=DIRECTION('',(0.,0.,-1.));
#559=DIRECTION('',(-1.,0.,0.));
#560=DIRECTION('',(0.,0.,1.));
#561=DIRECTION('',(-1.,0.,0.));
#562=DIRECTION('',(0.,0.,1.));
#563=DIRECTION('',(0.,-0.927312469409273,-0.37428810304106));
#564=DIRECTION('',(-1.,0.,0.));
#565=DIRECTION('',(0.,0.,1.));
#566=DIRECTION('',(0.,0.,-1.));
#567=DIRECTION('',(0.,-1.,0.));
#568=DIRECTION('',(0.,0.,1.));
#569=DIRECTION('',(9.91270557701033E-17,-1.,0.));
#570=DIRECTION('',(-1.,-6.67201336914157E-17,0.));
#571=DIRECTION('',(6.67201336914157E-17,-1.,0.));
#572=DIRECTION('',(-1.,-6.67201336914157E-17,0.));
#573=DIRECTION('',(6.67201336914157E-17,-1.,0.));
#574=DIRECTION('',(6.18704119327035E-17,-0.927312469409273,-0.37428810304106));
#575=DIRECTION('',(-1.,-6.67201336914157E-17,0.));
#576=DIRECTION('',(6.67201336914157E-17,-1.,0.));
#577=DIRECTION('',(0.,0.,-1.));
#578=DIRECTION('',(6.67201336914157E-17,-1.,0.));
#579=DIRECTION('',(0.,0.,1.));
#580=DIRECTION('',(6.67201336914157E-17,-1.,0.));
#581=DIRECTION('',(0.,0.,1.));
#582=DIRECTION('',(1.,0.,0.));
#583=DIRECTION('',(0.,0.,1.));
#584=DIRECTION('',(1.,0.,0.));
#585=DIRECTION('',(-0.583636048152575,0.812015371342714,0.));
#586=DIRECTION('',(0.,0.,1.));
#587=DIRECTION('',(1.,0.,0.));
#588=DIRECTION('',(-0.583636048152575,-0.812015371342714,0.));
#589=DIRECTION('',(0.,0.,1.));
#590=DIRECTION('',(1.,0.,0.));
#591=DIRECTION('',(1.,0.,0.));
#592=DIRECTION('',(0.,-1.,0.));
#593=DIRECTION('',(1.,0.,0.));
#594=DIRECTION('',(1.,0.,0.));
#595=DIRECTION('',(1.,0.,0.));
#596=DIRECTION('',(1.,0.,0.));
#597=DIRECTION('',(0.,0.,1.));
#598=DIRECTION('',(1.,0.,0.));
#599=DIRECTION('',(0.,0.,1.));
#600=DIRECTION('',(1.,0.,0.));
#601=DIRECTION('',(0.,0.,1.));
#602=DIRECTION('',(1.,0.,0.));
#603=DIRECTION('',(0.,-1.,0.));
#604=DIRECTION('',(0.,0.,-1.));
#605=DIRECTION('',(1.,0.,0.));
#606=DIRECTION('',(0.,-1.,0.));
#607=DIRECTION('',(0.,0.,-1.));
#608=DIRECTION('',(1.,0.,0.));
#609=DIRECTION('',(0.,0.,1.));
#610=DIRECTION('',(0.,0.,1.));
#611=DIRECTION('',(1.,0.,0.));
#612=DIRECTION('',(0.,0.,1.));
#613=DIRECTION('',(1.,0.,0.));
#614=DIRECTION('',(0.,0.,1.));
#615=DIRECTION('',(0.812015371342714,0.583636048152575,0.));
#616=DIRECTION('',(-0.583636048152575,0.812015371342714,0.));
#617=DIRECTION('',(-0.583636048152575,0.812015371342714,0.));
#618=DIRECTION('',(0.,0.,1.));
#619=DIRECTION('',(0.,0.,1.));
#620=DIRECTION('',(1.,0.,0.));
#621=DIRECTION('',(0.,0.,1.));
#622=DIRECTION('',(1.,0.,0.));
#623=DIRECTION('',(0.,0.,1.));
#624=DIRECTION('',(-0.812015371342713,0.583636048152575,0.));
#625=DIRECTION('',(-0.583636048152575,-0.812015371342714,0.));
#626=DIRECTION('',(-0.583636048152575,-0.812015371342714,0.));
#627=DIRECTION('',(0.,0.,1.));
#628=DIRECTION('',(0.,0.,1.));
#629=DIRECTION('',(1.,0.,0.));
#630=DIRECTION('',(0.,0.,1.));
#631=DIRECTION('',(1.,0.,0.));
#632=DIRECTION('',(0.,0.,1.));
#633=DIRECTION('',(0.,-1.,0.));
#634=DIRECTION('',(0.,0.,-1.));
#635=DIRECTION('',(1.,0.,0.));
#636=DIRECTION('',(0.,0.,1.));
#637=DIRECTION('',(-1.,0.,0.));
#638=DIRECTION('',(0.,0.,1.));
#639=DIRECTION('',(1.,0.,0.));
#640=DIRECTION('',(0.,0.,-1.));
#641=DIRECTION('',(1.,0.,0.));
#642=DIRECTION('',(0.,0.,-1.));
#643=DIRECTION('',(0.,0.927312469409273,0.37428810304106));
#644=DIRECTION('',(0.,-1.,0.));
#645=DIRECTION('',(0.,0.,1.));
#646=DIRECTION('',(0.,0.,1.));
#647=DIRECTION('',(1.,0.,0.));
#648=DIRECTION('',(0.,0.,1.));
#649=DIRECTION('',(1.,0.,0.));
#650=DIRECTION('',(0.,0.,1.));
#651=DIRECTION('',(1.,0.,0.));
#652=DIRECTION('',(0.,0.,1.));
#653=DIRECTION('',(1.,0.,0.));
#654=DIRECTION('',(0.,0.,1.));
#655=DIRECTION('',(1.,0.,0.));
#656=DIRECTION('',(0.,0.,1.));
#657=DIRECTION('',(1.,0.,0.));
#658=DIRECTION('',(0.,0.,1.));
#659=DIRECTION('',(1.,0.,0.));
#660=DIRECTION('',(1.,0.,0.));
#661=DIRECTION('',(1.,0.,0.));
#662=DIRECTION('',(1.,0.,0.));
#663=DIRECTION('',(0.,0.,-1.));
#664=DIRECTION('',(1.,0.,0.));
#665=DIRECTION('',(1.,0.,0.));
#666=DIRECTION('',(0.,1.,0.));
#667=DIRECTION('',(0.,0.,1.));
#668=DIRECTION('',(1.,0.,0.));
#669=DIRECTION('',(0.,0.,-1.));
#670=DIRECTION('',(1.,0.,0.));
#671=DIRECTION('',(1.,0.,0.));
#672=DIRECTION('',(0.,1.,0.));
#673=DIRECTION('',(0.,0.,1.));
#674=DIRECTION('',(1.,0.,0.));
#675=DIRECTION('',(0.,0.,-1.));
#676=DIRECTION('',(0.,0.37428810304106,-0.927312469409273));
#677=DIRECTION('',(0.,0.927312469409273,0.37428810304106));
#678=DIRECTION('',(0.,0.37428810304106,-0.927312469409273));
#679=DIRECTION('',(0.,0.927312469409273,0.37428810304106));
#680=DIRECTION('',(1.,0.,0.));
#681=DIRECTION('',(0.,0.,-1.));
#682=CARTESIAN_POINT('',(0.,0.,0.));
#683=CARTESIAN_POINT('',(-0.011,0.095,-0.012));
#684=CARTESIAN_POINT('',(-0.011,0.094,0.018));
#685=CARTESIAN_POINT('',(-0.011,0.086,0.018));
#686=CARTESIAN_POINT('',(-0.011,0.094,0.018));
#687=CARTESIAN_POINT('',(-0.011,0.0887599665574252,0.0309823745717299));
#688=CARTESIAN_POINT('',(-0.011,0.094,0.004));
#689=CARTESIAN_POINT('',(-0.011,0.0792074142203015,0.0271267090744891));
#690=CARTESIAN_POINT('',(-0.011,0.012,0.));
#691=CARTESIAN_POINT('',(-0.011,0.047,0.));
#692=CARTESIAN_POINT('',(-0.011,0.082,0.));
#693=CARTESIAN_POINT('',(-0.011,0.082,-0.012));
#694=CARTESIAN_POINT('',(-0.011,0.082,-0.012));
#695=CARTESIAN_POINT('',(-0.011,0.095,-0.012));
#696=CARTESIAN_POINT('',(-0.011,0.094,-0.012));
#697=CARTESIAN_POINT('',(-0.011,0.094,-0.012));
#698=CARTESIAN_POINT('',(-0.023,0.095,-0.012));
#699=CARTESIAN_POINT('',(-0.023,0.094,0.018));
#700=CARTESIAN_POINT('',(-0.023,0.094,0.026));
#701=CARTESIAN_POINT('',(-0.023,0.0792074142203015,0.0271267090744891));
#702=CARTESIAN_POINT('',(-0.023,0.0887599665574252,0.0309823745717299));
#703=CARTESIAN_POINT('',(-0.023,0.012,0.));
#704=CARTESIAN_POINT('',(-0.023,0.094,0.018));
#705=CARTESIAN_POINT('',(-0.023,0.094,0.004));
#706=CARTESIAN_POINT('',(-0.023,0.094,-0.012));
#707=CARTESIAN_POINT('',(-0.023,0.094,-0.012));
#708=CARTESIAN_POINT('',(-0.023,0.095,-0.012));
#709=CARTESIAN_POINT('',(-0.023,0.082,-0.012));
#710=CARTESIAN_POINT('',(-0.023,0.082,-0.012));
#711=CARTESIAN_POINT('',(-0.023,0.082,0.));
#712=CARTESIAN_POINT('',(-0.023,0.047,0.));
#713=CARTESIAN_POINT('',(0.011,0.095,-0.012));
#714=CARTESIAN_POINT('',(0.011,0.094,0.018));
#715=CARTESIAN_POINT('',(0.011,0.086,0.018));
#716=CARTESIAN_POINT('',(0.011,0.0792074142203015,0.0271267090744891));
#717=CARTESIAN_POINT('',(0.011,0.0887599665574252,0.0309823745717299));
#718=CARTESIAN_POINT('',(0.011,0.012,0.));
#719=CARTESIAN_POINT('',(0.011,0.094,0.018));
#720=CARTESIAN_POINT('',(0.011,0.094,0.004));
#721=CARTESIAN_POINT('',(0.011,0.094,-0.012));
#722=CARTESIAN_POINT('',(0.011,0.094,-0.012));
#723=CARTESIAN_POINT('',(0.011,0.095,-0.012));
#724=CARTESIAN_POINT('',(0.011,0.082,-0.012));
#725=CARTESIAN_POINT('',(0.011,0.082,-0.012));
#726=CARTESIAN_POINT('',(0.011,0.082,0.));
#727=CARTESIAN_POINT('',(0.011,0.095,0.));
#728=CARTESIAN_POINT('',(0.,0.045,0.));
#729=CARTESIAN_POINT('',(-0.046,0.064,0.));
#730=CARTESIAN_POINT('',(-0.046,0.082,0.));
#731=CARTESIAN_POINT('',(-0.0606162766841688,0.0534945511332537,0.));
#732=CARTESIAN_POINT('',(-0.0376162766841688,0.0214945511332536,0.));
#733=CARTESIAN_POINT('',(-0.0146162766841688,-0.0105054488667464,0.));
#734=CARTESIAN_POINT('',(1.82145964977565E-17,1.7347234759768E-18,0.));
#735=CARTESIAN_POINT('',(0.0146162766841688,-0.0105054488667463,0.));
#736=CARTESIAN_POINT('',(0.0376162766841689,0.0214945511332536,0.));
#737=CARTESIAN_POINT('',(0.0606162766841689,0.0534945511332537,0.));
#738=CARTESIAN_POINT('',(0.046,0.064,0.));
#739=CARTESIAN_POINT('',(0.046,0.082,0.));
#740=CARTESIAN_POINT('',(0.0345,0.082,0.));
#741=CARTESIAN_POINT('',(0.023,0.082,0.));
#742=CARTESIAN_POINT('',(0.023,0.095,0.));
#743=CARTESIAN_POINT('',(0.023,0.012,0.));
#744=CARTESIAN_POINT('',(0.017,0.012,0.));
#745=CARTESIAN_POINT('',(-1.21430643318376E-17,0.082,0.));
#746=CARTESIAN_POINT('',(-0.017,0.012,0.));
#747=CARTESIAN_POINT('',(-0.0345,0.082,0.));
#748=CARTESIAN_POINT('',(-0.046,0.064,0.));
#749=CARTESIAN_POINT('',(-0.038,0.064,0.));
#750=CARTESIAN_POINT('',(1.38777878078145E-17,4.89858719658941E-19,0.));
#751=CARTESIAN_POINT('',(0.00800000000000001,4.89858719658941E-19,0.));
#752=CARTESIAN_POINT('',(0.046,0.064,0.));
#753=CARTESIAN_POINT('',(0.054,0.064,0.));
#754=CARTESIAN_POINT('',(-1.21430643318376E-17,0.082,-0.012));
#755=CARTESIAN_POINT('',(-1.21430643318376E-17,0.082,-0.012));
#756=CARTESIAN_POINT('',(-0.0345,0.082,-0.012));
#757=CARTESIAN_POINT('',(-0.0345,0.082,-0.012));
#758=CARTESIAN_POINT('',(-0.046,0.082,-0.012));
#759=CARTESIAN_POINT('',(-0.046,0.082,-0.012));
#760=CARTESIAN_POINT('',(-0.046,0.064,-0.012));
#761=CARTESIAN_POINT('',(-0.046,0.064,-0.012));
#762=CARTESIAN_POINT('',(-0.0606162766841688,0.0534945511332537,-0.012));
#763=CARTESIAN_POINT('',(-0.0606162766841688,0.0534945511332537,-0.012));
#764=CARTESIAN_POINT('',(-0.0376162766841688,0.0214945511332536,-0.012));
#765=CARTESIAN_POINT('',(-0.0376162766841688,0.0214945511332536,-0.012));
#766=CARTESIAN_POINT('',(-0.0146162766841688,-0.0105054488667464,-0.012));
#767=CARTESIAN_POINT('',(-0.0146162766841688,-0.0105054488667464,-0.012));
#768=CARTESIAN_POINT('',(1.82145964977565E-17,1.7347234759768E-18,-0.012));
#769=CARTESIAN_POINT('',(1.82145964977565E-17,1.7347234759768E-18,-0.012));
#770=CARTESIAN_POINT('',(0.0146162766841688,-0.0105054488667463,-0.012));
#771=CARTESIAN_POINT('',(0.0146162766841688,-0.0105054488667463,-0.012));
#772=CARTESIAN_POINT('',(0.0376162766841689,0.0214945511332536,-0.012));
#773=CARTESIAN_POINT('',(0.0376162766841689,0.0214945511332536,-0.012));
#774=CARTESIAN_POINT('',(0.0606162766841689,0.0534945511332537,-0.012));
#775=CARTESIAN_POINT('',(0.0606162766841689,0.0534945511332537,-0.012));
#776=CARTESIAN_POINT('',(0.046,0.064,-0.012));
#777=CARTESIAN_POINT('',(0.046,0.064,-0.012));
#778=CARTESIAN_POINT('',(0.046,0.082,-0.012));
#779=CARTESIAN_POINT('',(0.046,0.082,-0.012));
#780=CARTESIAN_POINT('',(0.0345,0.082,-0.012));
#781=CARTESIAN_POINT('',(0.0345,0.082,-0.012));
#782=CARTESIAN_POINT('',(0.023,0.082,-0.012));
#783=CARTESIAN_POINT('',(0.023,0.082,-0.012));
#784=CARTESIAN_POINT('',(0.023,0.095,-0.012));
#785=CARTESIAN_POINT('',(0.023,0.094,0.018));
#786=CARTESIAN_POINT('',(0.023,0.094,0.01));
#787=CARTESIAN_POINT('',(0.023,0.094,0.018));
#788=CARTESIAN_POINT('',(0.023,0.094,0.004));
#789=CARTESIAN_POINT('',(0.023,0.0887599665574252,0.0309823745717299));
#790=CARTESIAN_POINT('',(0.023,0.0503799832787126,0.0154911872858649));
#791=CARTESIAN_POINT('',(0.023,0.095,-0.012));
#792=CARTESIAN_POINT('',(0.023,0.094,-0.012));
#793=CARTESIAN_POINT('',(0.023,0.094,-0.004));
#794=CARTESIAN_POINT('',(0.046,0.064,-0.012));
#795=CARTESIAN_POINT('',(0.046,0.064,-0.012));
#796=CARTESIAN_POINT('',(0.054,0.064,-0.012));
#797=CARTESIAN_POINT('',(-0.046,0.064,-0.012));
#798=CARTESIAN_POINT('',(-0.046,0.064,-0.012));
#799=CARTESIAN_POINT('',(-0.038,0.064,-0.012));
#800=CARTESIAN_POINT('',(1.38777878078145E-17,4.89858719658941E-19,-0.012));
#801=CARTESIAN_POINT('',(1.38777878078145E-17,4.89858719658941E-19,-0.012));
#802=CARTESIAN_POINT('',(0.00800000000000001,4.89858719658941E-19,-0.012));
#803=CARTESIAN_POINT('',(0.,0.045,-0.012));
#804=CARTESIAN_POINT('',(-0.163996630538121,0.094,-0.012));
#805=CARTESIAN_POINT('',(-0.163996630538121,0.094,-0.012));
#806=CARTESIAN_POINT('',(-0.163996630538121,0.094,0.018));
#807=CARTESIAN_POINT('',(-0.163996630538121,0.0887599665574252,0.0309823745717299));
#808=CARTESIAN_POINT('',(-0.163996630538121,0.094,0.004));
#809=CARTESIAN_POINT('',(-0.163996630538121,0.094,-0.004));
#810=CARTESIAN_POINT('',(-0.163996630538121,0.094,0.018));
#811=CARTESIAN_POINT('',(-0.163996630538121,0.094,0.004));
#812=CARTESIAN_POINT('',(-0.163996630538121,0.0887599665574252,0.0309823745717299));
#813=CARTESIAN_POINT('',(-0.163996630538121,0.094,-0.004));
#814=CARTESIAN_POINT('',(-0.163996630538121,0.094,0.018));
#815=CARTESIAN_POINT('',(-0.163996630538121,0.0503799832787126,0.0154911872858649));
#816=CARTESIAN_POINT('',(-0.163996630538121,0.0503799832787126,0.0154911872858649));
#817=CARTESIAN_POINT('',(-0.163996630538121,0.094,0.018));
#818=MECHANICAL_DESIGN_GEOMETRIC_PRESENTATION_REPRESENTATION('',(#489),
#819);
#819=(
GEOMETRIC_REPRESENTATION_CONTEXT(3)
GLOBAL_UNCERTAINTY_ASSIGNED_CONTEXT((#820))
GLOBAL_UNIT_ASSIGNED_CONTEXT((#823,#822,#821))
REPRESENTATION_CONTEXT('Part 1','TOP_LEVEL_ASSEMBLY_PART')
);
#820=UNCERTAINTY_MEASURE_WITH_UNIT(LENGTH_MEASURE(1.E-8),#823,
'DISTANCE_ACCURACY_VALUE','Maximum Tolerance applied to model');
#821=(
NAMED_UNIT(*)
SI_UNIT($,.STERADIAN.)
SOLID_ANGLE_UNIT()
);
#822=(
NAMED_UNIT(*)
PLANE_ANGLE_UNIT()
SI_UNIT($,.RADIAN.)
);
#823=(
LENGTH_UNIT()
NAMED_UNIT(*)
SI_UNIT($,.METRE.)
);
#824=PRODUCT_DEFINITION_SHAPE('','',#825);
#825=PRODUCT_DEFINITION('','',#827,#826);
#826=PRODUCT_DEFINITION_CONTEXT('',#833,'design');
#827=PRODUCT_DEFINITION_FORMATION_WITH_SPECIFIED_SOURCE('','',#829,
 .NOT_KNOWN.);
#828=PRODUCT_RELATED_PRODUCT_CATEGORY('','',(#829));
#829=PRODUCT('Part 1','Part 1','Part 1',(#831));
#830=PRODUCT_CATEGORY('','');
#831=PRODUCT_CONTEXT('',#833,'mechanical');
#832=APPLICATION_PROTOCOL_DEFINITION('international standard',
'ap242_managed_model_based_3d_engineering',2020,#833);
#833=APPLICATION_CONTEXT('managed model based 3d engineering');
ENDSEC;
END-ISO-10303-21;
