ISO-10303-21;
HEADER;
/* Generated by software containing ST-Developer
 * from STEP Tools, Inc. (www.steptools.com) 
 */
/* OPTION: using custom renumber hook */

FILE_DESCRIPTION(
/* description */ ('STEP AP242 Edition 2',
'CAx-IF Rec.Pracs.---Representation and Presentation of Product Manufa
cturing Information (PMI)---4.0---2014-10-13',
'CAx-IF Rec.Pracs.---3D Tessellated Geometry---0.4---2014-09-14','2;1',
'CAx-IF Rec.Pracs.---User Defined Attributes---1.5---2016-08-15'),
/* implementation_level */ '2;1');

FILE_NAME(
/* name */ 'Part Studio 1',
/* time_stamp */ '2026-07-02T13:37:30Z',
/* author */ (''),
/* organization */ (''),
/* preprocessor_version */ 'ST-DEVELOPER v20',
/* originating_system */ 'ONSHAPE BY PTC INC, 1.217',
/* authorisation */ '  ');

FILE_SCHEMA (('AP242_MANAGED_MODEL_BASED_3D_ENGINEERING_MIM_LF { 1 0 10303 442 3 1 4 }'));
ENDSEC;

DATA;
#10=SHAPE_REPRESENTATION_RELATIONSHIP('','',#423,#11);
#11=ADVANCED_BREP_SHAPE_REPRESENTATION('',(#421),#687);
#12=CYLINDRICAL_SURFACE('',#441,0.005);
#13=CYLINDRICAL_SURFACE('',#443,0.005);
#14=CYLINDRICAL_SURFACE('',#445,0.005);
#15=CYLINDRICAL_SURFACE('',#453,0.016);
#16=CYLINDRICAL_SURFACE('',#456,0.011);
#17=CYLINDRICAL_SURFACE('',#461,0.005);
#18=CYLINDRICAL_SURFACE('',#462,0.005);
#19=CIRCLE('',#427,0.005);
#20=CIRCLE('',#428,0.005);
#21=CIRCLE('',#430,0.005);
#22=CIRCLE('',#431,0.005);
#23=CIRCLE('',#437,0.016);
#24=CIRCLE('',#438,0.005);
#25=CIRCLE('',#439,0.005);
#26=CIRCLE('',#440,0.005);
#27=CIRCLE('',#442,0.005);
#28=CIRCLE('',#444,0.005);
#29=CIRCLE('',#446,0.005);
#30=CIRCLE('',#452,0.016);
#31=CIRCLE('',#454,0.016);
#32=CIRCLE('',#455,0.016);
#33=CIRCLE('',#457,0.011);
#34=CIRCLE('',#458,0.011);
#35=ORIENTED_EDGE('',*,*,#135,.T.);
#36=ORIENTED_EDGE('',*,*,#136,.T.);
#37=ORIENTED_EDGE('',*,*,#137,.F.);
#38=ORIENTED_EDGE('',*,*,#138,.T.);
#39=ORIENTED_EDGE('',*,*,#139,.F.);
#40=ORIENTED_EDGE('',*,*,#140,.F.);
#41=ORIENTED_EDGE('',*,*,#141,.F.);
#42=ORIENTED_EDGE('',*,*,#142,.F.);
#43=ORIENTED_EDGE('',*,*,#143,.F.);
#44=ORIENTED_EDGE('',*,*,#144,.T.);
#45=ORIENTED_EDGE('',*,*,#145,.F.);
#46=ORIENTED_EDGE('',*,*,#146,.F.);
#47=ORIENTED_EDGE('',*,*,#147,.T.);
#48=ORIENTED_EDGE('',*,*,#148,.T.);
#49=ORIENTED_EDGE('',*,*,#149,.F.);
#50=ORIENTED_EDGE('',*,*,#150,.F.);
#51=ORIENTED_EDGE('',*,*,#149,.T.);
#52=ORIENTED_EDGE('',*,*,#151,.T.);
#53=ORIENTED_EDGE('',*,*,#137,.T.);
#54=ORIENTED_EDGE('',*,*,#152,.T.);
#55=ORIENTED_EDGE('',*,*,#153,.F.);
#56=ORIENTED_EDGE('',*,*,#154,.T.);
#57=ORIENTED_EDGE('',*,*,#155,.T.);
#58=ORIENTED_EDGE('',*,*,#156,.F.);
#59=ORIENTED_EDGE('',*,*,#144,.F.);
#60=ORIENTED_EDGE('',*,*,#157,.F.);
#61=ORIENTED_EDGE('',*,*,#142,.T.);
#62=ORIENTED_EDGE('',*,*,#158,.T.);
#63=ORIENTED_EDGE('',*,*,#159,.F.);
#64=ORIENTED_EDGE('',*,*,#160,.F.);
#65=ORIENTED_EDGE('',*,*,#161,.T.);
#66=ORIENTED_EDGE('',*,*,#162,.F.);
#67=ORIENTED_EDGE('',*,*,#135,.F.);
#68=ORIENTED_EDGE('',*,*,#163,.F.);
#69=ORIENTED_EDGE('',*,*,#147,.F.);
#70=ORIENTED_EDGE('',*,*,#164,.T.);
#71=ORIENTED_EDGE('',*,*,#150,.T.);
#72=ORIENTED_EDGE('',*,*,#157,.T.);
#73=ORIENTED_EDGE('',*,*,#143,.T.);
#74=ORIENTED_EDGE('',*,*,#164,.F.);
#75=ORIENTED_EDGE('',*,*,#148,.F.);
#76=ORIENTED_EDGE('',*,*,#163,.T.);
#77=ORIENTED_EDGE('',*,*,#138,.F.);
#78=ORIENTED_EDGE('',*,*,#151,.F.);
#79=ORIENTED_EDGE('',*,*,#165,.F.);
#80=ORIENTED_EDGE('',*,*,#166,.F.);
#81=ORIENTED_EDGE('',*,*,#158,.F.);
#82=ORIENTED_EDGE('',*,*,#141,.T.);
#83=ORIENTED_EDGE('',*,*,#156,.T.);
#84=ORIENTED_EDGE('',*,*,#167,.T.);
#85=ORIENTED_EDGE('',*,*,#168,.F.);
#86=ORIENTED_EDGE('',*,*,#169,.F.);
#87=ORIENTED_EDGE('',*,*,#170,.T.);
#88=ORIENTED_EDGE('',*,*,#171,.F.);
#89=ORIENTED_EDGE('',*,*,#169,.T.);
#90=ORIENTED_EDGE('',*,*,#172,.F.);
#91=ORIENTED_EDGE('',*,*,#168,.T.);
#92=ORIENTED_EDGE('',*,*,#173,.T.);
#93=ORIENTED_EDGE('',*,*,#170,.F.);
#94=ORIENTED_EDGE('',*,*,#172,.T.);
#95=ORIENTED_EDGE('',*,*,#162,.T.);
#96=ORIENTED_EDGE('',*,*,#174,.F.);
#97=ORIENTED_EDGE('',*,*,#152,.F.);
#98=ORIENTED_EDGE('',*,*,#136,.F.);
#99=ORIENTED_EDGE('',*,*,#171,.T.);
#100=ORIENTED_EDGE('',*,*,#173,.F.);
#101=ORIENTED_EDGE('',*,*,#153,.T.);
#102=ORIENTED_EDGE('',*,*,#174,.T.);
#103=ORIENTED_EDGE('',*,*,#161,.F.);
#104=ORIENTED_EDGE('',*,*,#175,.F.);
#105=ORIENTED_EDGE('',*,*,#167,.F.);
#106=ORIENTED_EDGE('',*,*,#155,.F.);
#107=ORIENTED_EDGE('',*,*,#176,.T.);
#108=ORIENTED_EDGE('',*,*,#177,.T.);
#109=ORIENTED_EDGE('',*,*,#166,.T.);
#110=ORIENTED_EDGE('',*,*,#178,.F.);
#111=ORIENTED_EDGE('',*,*,#179,.F.);
#112=ORIENTED_EDGE('',*,*,#159,.T.);
#113=ORIENTED_EDGE('',*,*,#175,.T.);
#114=ORIENTED_EDGE('',*,*,#160,.T.);
#115=ORIENTED_EDGE('',*,*,#179,.T.);
#116=ORIENTED_EDGE('',*,*,#180,.F.);
#117=ORIENTED_EDGE('',*,*,#176,.F.);
#118=ORIENTED_EDGE('',*,*,#154,.F.);
#119=ORIENTED_EDGE('',*,*,#181,.T.);
#120=ORIENTED_EDGE('',*,*,#177,.F.);
#121=ORIENTED_EDGE('',*,*,#180,.T.);
#122=ORIENTED_EDGE('',*,*,#178,.T.);
#123=ORIENTED_EDGE('',*,*,#165,.T.);
#124=ORIENTED_EDGE('',*,*,#182,.F.);
#125=ORIENTED_EDGE('',*,*,#183,.F.);
#126=ORIENTED_EDGE('',*,*,#184,.T.);
#127=ORIENTED_EDGE('',*,*,#183,.T.);
#128=ORIENTED_EDGE('',*,*,#181,.F.);
#129=ORIENTED_EDGE('',*,*,#184,.F.);
#130=ORIENTED_EDGE('',*,*,#182,.T.);
#131=ORIENTED_EDGE('',*,*,#146,.T.);
#132=ORIENTED_EDGE('',*,*,#140,.T.);
#133=ORIENTED_EDGE('',*,*,#145,.T.);
#134=ORIENTED_EDGE('',*,*,#139,.T.);
#135=EDGE_CURVE('',#185,#186,#223,.T.);
#136=EDGE_CURVE('',#186,#187,#224,.T.);
#137=EDGE_CURVE('',#188,#187,#225,.T.);
#138=EDGE_CURVE('',#188,#185,#226,.T.);
#139=EDGE_CURVE('',#189,#189,#19,.T.);
#140=EDGE_CURVE('',#190,#190,#20,.T.);
#141=EDGE_CURVE('',#191,#192,#227,.T.);
#142=EDGE_CURVE('',#193,#191,#228,.T.);
#143=EDGE_CURVE('',#194,#193,#229,.T.);
#144=EDGE_CURVE('',#194,#192,#230,.T.);
#145=EDGE_CURVE('',#195,#195,#21,.F.);
#146=EDGE_CURVE('',#196,#196,#22,.F.);
#147=EDGE_CURVE('',#197,#198,#231,.T.);
#148=EDGE_CURVE('',#198,#199,#232,.T.);
#149=EDGE_CURVE('',#200,#199,#233,.T.);
#150=EDGE_CURVE('',#197,#200,#234,.T.);
#151=EDGE_CURVE('',#199,#188,#235,.T.);
#152=EDGE_CURVE('',#187,#201,#236,.T.);
#153=EDGE_CURVE('',#202,#201,#237,.T.);
#154=EDGE_CURVE('',#202,#203,#238,.T.);
#155=EDGE_CURVE('',#203,#204,#239,.T.);
#156=EDGE_CURVE('',#192,#204,#240,.T.);
#157=EDGE_CURVE('',#200,#194,#241,.T.);
#158=EDGE_CURVE('',#191,#205,#242,.T.);
#159=EDGE_CURVE('',#206,#205,#243,.T.);
#160=EDGE_CURVE('',#207,#206,#244,.T.);
#161=EDGE_CURVE('',#207,#208,#245,.T.);
#162=EDGE_CURVE('',#186,#208,#246,.T.);
#163=EDGE_CURVE('',#198,#185,#247,.T.);
#164=EDGE_CURVE('',#197,#193,#248,.T.);
#165=EDGE_CURVE('',#209,#210,#23,.T.);
#166=EDGE_CURVE('',#205,#209,#249,.T.);
#167=EDGE_CURVE('',#204,#210,#250,.T.);
#168=EDGE_CURVE('',#211,#211,#24,.T.);
#169=EDGE_CURVE('',#212,#212,#25,.T.);
#170=EDGE_CURVE('',#213,#213,#26,.T.);
#171=EDGE_CURVE('',#214,#214,#27,.T.);
#172=EDGE_CURVE('',#215,#215,#28,.T.);
#173=EDGE_CURVE('',#216,#216,#29,.T.);
#174=EDGE_CURVE('',#201,#208,#251,.T.);
#175=EDGE_CURVE('',#202,#207,#252,.T.);
#176=EDGE_CURVE('',#203,#217,#253,.T.);
#177=EDGE_CURVE('',#217,#210,#254,.T.);
#178=EDGE_CURVE('',#218,#209,#255,.T.);
#179=EDGE_CURVE('',#206,#218,#256,.T.);
#180=EDGE_CURVE('',#217,#218,#30,.T.);
#181=EDGE_CURVE('',#219,#219,#31,.T.);
#182=EDGE_CURVE('',#220,#220,#32,.T.);
#183=EDGE_CURVE('',#221,#221,#33,.T.);
#184=EDGE_CURVE('',#222,#222,#34,.T.);
#185=VERTEX_POINT('',#578);
#186=VERTEX_POINT('',#579);
#187=VERTEX_POINT('',#581);
#188=VERTEX_POINT('',#583);
#189=VERTEX_POINT('',#587);
#190=VERTEX_POINT('',#589);
#191=VERTEX_POINT('',#591);
#192=VERTEX_POINT('',#592);
#193=VERTEX_POINT('',#594);
#194=VERTEX_POINT('',#596);
#195=VERTEX_POINT('',#600);
#196=VERTEX_POINT('',#602);
#197=VERTEX_POINT('',#604);
#198=VERTEX_POINT('',#605);
#199=VERTEX_POINT('',#607);
#200=VERTEX_POINT('',#609);
#201=VERTEX_POINT('',#614);
#202=VERTEX_POINT('',#616);
#203=VERTEX_POINT('',#618);
#204=VERTEX_POINT('',#620);
#205=VERTEX_POINT('',#625);
#206=VERTEX_POINT('',#627);
#207=VERTEX_POINT('',#629);
#208=VERTEX_POINT('',#631);
#209=VERTEX_POINT('',#639);
#210=VERTEX_POINT('',#640);
#211=VERTEX_POINT('',#644);
#212=VERTEX_POINT('',#646);
#213=VERTEX_POINT('',#648);
#214=VERTEX_POINT('',#651);
#215=VERTEX_POINT('',#654);
#216=VERTEX_POINT('',#657);
#217=VERTEX_POINT('',#664);
#218=VERTEX_POINT('',#668);
#219=VERTEX_POINT('',#674);
#220=VERTEX_POINT('',#676);
#221=VERTEX_POINT('',#679);
#222=VERTEX_POINT('',#681);
#223=LINE('',#577,#257);
#224=LINE('',#580,#258);
#225=LINE('',#582,#259);
#226=LINE('',#584,#260);
#227=LINE('',#590,#261);
#228=LINE('',#593,#262);
#229=LINE('',#595,#263);
#230=LINE('',#597,#264);
#231=LINE('',#603,#265);
#232=LINE('',#606,#266);
#233=LINE('',#608,#267);
#234=LINE('',#610,#268);
#235=LINE('',#612,#269);
#236=LINE('',#613,#270);
#237=LINE('',#615,#271);
#238=LINE('',#617,#272);
#239=LINE('',#619,#273);
#240=LINE('',#621,#274);
#241=LINE('',#622,#275);
#242=LINE('',#624,#276);
#243=LINE('',#626,#277);
#244=LINE('',#628,#278);
#245=LINE('',#630,#279);
#246=LINE('',#632,#280);
#247=LINE('',#633,#281);
#248=LINE('',#634,#282);
#249=LINE('',#641,#283);
#250=LINE('',#642,#284);
#251=LINE('',#659,#285);
#252=LINE('',#661,#286);
#253=LINE('',#663,#287);
#254=LINE('',#665,#288);
#255=LINE('',#667,#289);
#256=LINE('',#669,#290);
#257=VECTOR('',#467,1.);
#258=VECTOR('',#468,1.);
#259=VECTOR('',#469,1.);
#260=VECTOR('',#470,1.);
#261=VECTOR('',#477,1.);
#262=VECTOR('',#478,1.);
#263=VECTOR('',#479,1.);
#264=VECTOR('',#480,1.);
#265=VECTOR('',#487,1.);
#266=VECTOR('',#488,1.);
#267=VECTOR('',#489,1.);
#268=VECTOR('',#490,1.);
#269=VECTOR('',#493,1.);
#270=VECTOR('',#494,1.);
#271=VECTOR('',#495,1.);
#272=VECTOR('',#496,1.);
#273=VECTOR('',#497,1.);
#274=VECTOR('',#498,1.);
#275=VECTOR('',#499,1.);
#276=VECTOR('',#502,1.);
#277=VECTOR('',#503,1.);
#278=VECTOR('',#504,1.);
#279=VECTOR('',#505,1.);
#280=VECTOR('',#506,1.);
#281=VECTOR('',#507,1.);
#282=VECTOR('',#508,1.);
#283=VECTOR('',#517,1.);
#284=VECTOR('',#518,1.);
#285=VECTOR('',#539,1.);
#286=VECTOR('',#542,1.);
#287=VECTOR('',#545,1.);
#288=VECTOR('',#546,1.);
#289=VECTOR('',#549,1.);
#290=VECTOR('',#550,1.);
#291=EDGE_LOOP('',(#35,#36,#37,#38));
#292=EDGE_LOOP('',(#39));
#293=EDGE_LOOP('',(#40));
#294=EDGE_LOOP('',(#41,#42,#43,#44));
#295=EDGE_LOOP('',(#45));
#296=EDGE_LOOP('',(#46));
#297=EDGE_LOOP('',(#47,#48,#49,#50));
#298=EDGE_LOOP('',(#51,#52,#53,#54,#55,#56,#57,#58,#59,#60));
#299=EDGE_LOOP('',(#61,#62,#63,#64,#65,#66,#67,#68,#69,#70));
#300=EDGE_LOOP('',(#71,#72,#73,#74));
#301=EDGE_LOOP('',(#75,#76,#77,#78));
#302=EDGE_LOOP('',(#79,#80,#81,#82,#83,#84));
#303=EDGE_LOOP('',(#85));
#304=EDGE_LOOP('',(#86));
#305=EDGE_LOOP('',(#87));
#306=EDGE_LOOP('',(#88));
#307=EDGE_LOOP('',(#89));
#308=EDGE_LOOP('',(#90));
#309=EDGE_LOOP('',(#91));
#310=EDGE_LOOP('',(#92));
#311=EDGE_LOOP('',(#93));
#312=EDGE_LOOP('',(#94));
#313=EDGE_LOOP('',(#95,#96,#97,#98));
#314=EDGE_LOOP('',(#99));
#315=EDGE_LOOP('',(#100));
#316=EDGE_LOOP('',(#101,#102,#103,#104));
#317=EDGE_LOOP('',(#105,#106,#107,#108));
#318=EDGE_LOOP('',(#109,#110,#111,#112));
#319=EDGE_LOOP('',(#113,#114,#115,#116,#117,#118));
#320=EDGE_LOOP('',(#119));
#321=EDGE_LOOP('',(#120,#121,#122,#123));
#322=EDGE_LOOP('',(#124));
#323=EDGE_LOOP('',(#125));
#324=EDGE_LOOP('',(#126));
#325=EDGE_LOOP('',(#127));
#326=EDGE_LOOP('',(#128));
#327=EDGE_LOOP('',(#129));
#328=EDGE_LOOP('',(#130));
#329=EDGE_LOOP('',(#131));
#330=EDGE_LOOP('',(#132));
#331=EDGE_LOOP('',(#133));
#332=EDGE_LOOP('',(#134));
#333=FACE_BOUND('',#291,.T.);
#334=FACE_BOUND('',#292,.T.);
#335=FACE_BOUND('',#293,.T.);
#336=FACE_BOUND('',#294,.T.);
#337=FACE_BOUND('',#295,.T.);
#338=FACE_BOUND('',#296,.T.);
#339=FACE_BOUND('',#297,.T.);
#340=FACE_BOUND('',#298,.T.);
#341=FACE_BOUND('',#299,.T.);
#342=FACE_BOUND('',#300,.T.);
#343=FACE_BOUND('',#301,.T.);
#344=FACE_BOUND('',#302,.T.);
#345=FACE_BOUND('',#303,.T.);
#346=FACE_BOUND('',#304,.T.);
#347=FACE_BOUND('',#305,.T.);
#348=FACE_BOUND('',#306,.T.);
#349=FACE_BOUND('',#307,.T.);
#350=FACE_BOUND('',#308,.T.);
#351=FACE_BOUND('',#309,.T.);
#352=FACE_BOUND('',#310,.T.);
#353=FACE_BOUND('',#311,.T.);
#354=FACE_BOUND('',#312,.T.);
#355=FACE_BOUND('',#313,.T.);
#356=FACE_BOUND('',#314,.T.);
#357=FACE_BOUND('',#315,.T.);
#358=FACE_BOUND('',#316,.T.);
#359=FACE_BOUND('',#317,.T.);
#360=FACE_BOUND('',#318,.T.);
#361=FACE_BOUND('',#319,.T.);
#362=FACE_BOUND('',#320,.T.);
#363=FACE_BOUND('',#321,.T.);
#364=FACE_BOUND('',#322,.T.);
#365=FACE_BOUND('',#323,.T.);
#366=FACE_BOUND('',#324,.T.);
#367=FACE_BOUND('',#325,.T.);
#368=FACE_BOUND('',#326,.T.);
#369=FACE_BOUND('',#327,.T.);
#370=FACE_BOUND('',#328,.T.);
#371=FACE_BOUND('',#329,.T.);
#372=FACE_BOUND('',#330,.T.);
#373=FACE_BOUND('',#331,.T.);
#374=FACE_BOUND('',#332,.T.);
#375=PLANE('',#425);
#376=PLANE('',#426);
#377=PLANE('',#429);
#378=PLANE('',#432);
#379=PLANE('',#433);
#380=PLANE('',#434);
#381=PLANE('',#435);
#382=PLANE('',#436);
#383=PLANE('',#447);
#384=PLANE('',#448);
#385=PLANE('',#449);
#386=PLANE('',#450);
#387=PLANE('',#451);
#388=PLANE('',#459);
#389=PLANE('',#460);
#390=ADVANCED_FACE('',(#333),#375,.T.);
#391=ADVANCED_FACE('',(#334,#335,#336),#376,.F.);
#392=ADVANCED_FACE('',(#337,#338,#339),#377,.F.);
#393=ADVANCED_FACE('',(#340),#378,.F.);
#394=ADVANCED_FACE('',(#341),#379,.T.);
#395=ADVANCED_FACE('',(#342),#380,.T.);
#396=ADVANCED_FACE('',(#343),#381,.F.);
#397=ADVANCED_FACE('',(#344,#345,#346,#347),#382,.T.);
#398=ADVANCED_FACE('',(#348,#349),#12,.F.);
#399=ADVANCED_FACE('',(#350,#351),#13,.F.);
#400=ADVANCED_FACE('',(#352,#353),#14,.F.);
#401=ADVANCED_FACE('',(#354,#355,#356,#357),#383,.F.);
#402=ADVANCED_FACE('',(#358),#384,.F.);
#403=ADVANCED_FACE('',(#359),#385,.T.);
#404=ADVANCED_FACE('',(#360),#386,.F.);
#405=ADVANCED_FACE('',(#361),#387,.F.);
#406=ADVANCED_FACE('',(#362,#363,#364),#15,.T.);
#407=ADVANCED_FACE('',(#365,#366),#16,.F.);
#408=ADVANCED_FACE('',(#367,#368),#388,.F.);
#409=ADVANCED_FACE('',(#369,#370),#389,.T.);
#410=ADVANCED_FACE('',(#371,#372),#17,.F.);
#411=ADVANCED_FACE('',(#373,#374),#18,.F.);
#412=CLOSED_SHELL('',(#390,#391,#392,#393,#394,#395,#396,#397,#398,#399,
#400,#401,#402,#403,#404,#405,#406,#407,#408,#409,#410,#411));
#413=STYLED_ITEM('',(#414),#421);
#414=PRESENTATION_STYLE_ASSIGNMENT((#415));
#415=SURFACE_STYLE_USAGE(.BOTH.,#416);
#416=SURFACE_SIDE_STYLE('',(#417));
#417=SURFACE_STYLE_FILL_AREA(#418);
#418=FILL_AREA_STYLE('',(#419));
#419=FILL_AREA_STYLE_COLOUR('',#420);
#420=COLOUR_RGB('',0.615686274509804,0.811764705882353,0.929411764705882);
#421=MANIFOLD_SOLID_BREP('Part 1',#412);
#422=SHAPE_DEFINITION_REPRESENTATION(#692,#423);
#423=SHAPE_REPRESENTATION('Part 1',(#424),#687);
#424=AXIS2_PLACEMENT_3D('',#575,#463,#464);
#425=AXIS2_PLACEMENT_3D('',#576,#465,#466);
#426=AXIS2_PLACEMENT_3D('',#585,#471,#472);
#427=AXIS2_PLACEMENT_3D('',#586,#473,#474);
#428=AXIS2_PLACEMENT_3D('',#588,#475,#476);
#429=AXIS2_PLACEMENT_3D('',#598,#481,#482);
#430=AXIS2_PLACEMENT_3D('',#599,#483,#484);
#431=AXIS2_PLACEMENT_3D('',#601,#485,#486);
#432=AXIS2_PLACEMENT_3D('',#611,#491,#492);
#433=AXIS2_PLACEMENT_3D('',#623,#500,#501);
#434=AXIS2_PLACEMENT_3D('',#635,#509,#510);
#435=AXIS2_PLACEMENT_3D('',#636,#511,#512);
#436=AXIS2_PLACEMENT_3D('',#637,#513,#514);
#437=AXIS2_PLACEMENT_3D('',#638,#515,#516);
#438=AXIS2_PLACEMENT_3D('',#643,#519,#520);
#439=AXIS2_PLACEMENT_3D('',#645,#521,#522);
#440=AXIS2_PLACEMENT_3D('',#647,#523,#524);
#441=AXIS2_PLACEMENT_3D('',#649,#525,#526);
#442=AXIS2_PLACEMENT_3D('',#650,#527,#528);
#443=AXIS2_PLACEMENT_3D('',#652,#529,#530);
#444=AXIS2_PLACEMENT_3D('',#653,#531,#532);
#445=AXIS2_PLACEMENT_3D('',#655,#533,#534);
#446=AXIS2_PLACEMENT_3D('',#656,#535,#536);
#447=AXIS2_PLACEMENT_3D('',#658,#537,#538);
#448=AXIS2_PLACEMENT_3D('',#660,#540,#541);
#449=AXIS2_PLACEMENT_3D('',#662,#543,#544);
#450=AXIS2_PLACEMENT_3D('',#666,#547,#548);
#451=AXIS2_PLACEMENT_3D('',#670,#551,#552);
#452=AXIS2_PLACEMENT_3D('',#671,#553,#554);
#453=AXIS2_PLACEMENT_3D('',#672,#555,#556);
#454=AXIS2_PLACEMENT_3D('',#673,#557,#558);
#455=AXIS2_PLACEMENT_3D('',#675,#559,#560);
#456=AXIS2_PLACEMENT_3D('',#677,#561,#562);
#457=AXIS2_PLACEMENT_3D('',#678,#563,#564);
#458=AXIS2_PLACEMENT_3D('',#680,#565,#566);
#459=AXIS2_PLACEMENT_3D('',#682,#567,#568);
#460=AXIS2_PLACEMENT_3D('',#683,#569,#570);
#461=AXIS2_PLACEMENT_3D('',#684,#571,#572);
#462=AXIS2_PLACEMENT_3D('',#685,#573,#574);
#463=DIRECTION('',(0.,0.,1.));
#464=DIRECTION('',(1.,0.,0.));
#465=DIRECTION('',(0.,3.46944695195362E-16,1.));
#466=DIRECTION('',(0.,-1.,3.46944695195362E-16));
#467=DIRECTION('',(1.,0.,0.));
#468=DIRECTION('',(0.,1.,3.46944695195362E-16));
#469=DIRECTION('',(1.,0.,0.));
#470=DIRECTION('',(0.,-1.,3.46944695195362E-16));
#471=DIRECTION('',(0.,-3.46944695195361E-16,-1.));
#472=DIRECTION('',(0.,1.,-3.46944695195361E-16));
#473=DIRECTION('',(0.,3.46944695195361E-16,1.));
#474=DIRECTION('',(0.,-1.,3.46944695195361E-16));
#475=DIRECTION('',(0.,3.46944695195361E-16,1.));
#476=DIRECTION('',(0.,-1.,3.46944695195361E-16));
#477=DIRECTION('',(0.,1.,3.46944695195361E-16));
#478=DIRECTION('',(-1.,0.,0.));
#479=DIRECTION('',(0.,-1.,3.46944695195361E-16));
#480=DIRECTION('',(-1.,0.,0.));
#481=DIRECTION('',(0.,0.,1.));
#482=DIRECTION('',(1.,0.,0.));
#483=DIRECTION('',(0.,0.,1.));
#484=DIRECTION('',(1.,0.,0.));
#485=DIRECTION('',(0.,0.,1.));
#486=DIRECTION('',(1.,0.,0.));
#487=DIRECTION('',(-1.,0.,0.));
#488=DIRECTION('',(0.,1.,0.));
#489=DIRECTION('',(-1.,0.,0.));
#490=DIRECTION('',(0.,1.,0.));
#491=DIRECTION('',(0.,-1.,0.));
#492=DIRECTION('',(0.,0.,-1.));
#493=DIRECTION('',(0.,0.,1.));
#494=DIRECTION('',(0.,0.,1.));
#495=DIRECTION('',(1.,0.,0.));
#496=DIRECTION('',(0.,0.,1.));
#497=DIRECTION('',(1.,0.,0.));
#498=DIRECTION('',(0.,0.,1.));
#499=DIRECTION('',(0.,0.,1.));
#500=DIRECTION('',(0.,-1.,0.));
#501=DIRECTION('',(0.,0.,-1.));
#502=DIRECTION('',(0.,0.,1.));
#503=DIRECTION('',(1.,0.,0.));
#504=DIRECTION('',(0.,0.,1.));
#505=DIRECTION('',(1.,0.,0.));
#506=DIRECTION('',(0.,0.,1.));
#507=DIRECTION('',(0.,0.,1.));
#508=DIRECTION('',(0.,0.,1.));
#509=DIRECTION('',(1.,0.,0.));
#510=DIRECTION('',(0.,1.,0.));
#511=DIRECTION('',(1.,0.,0.));
#512=DIRECTION('',(0.,1.,0.));
#513=DIRECTION('',(1.,0.,0.));
#514=DIRECTION('',(0.,1.,0.));
#515=DIRECTION('',(1.,0.,0.));
#516=DIRECTION('',(0.,0.,-1.));
#517=DIRECTION('',(0.,0.268684343089821,0.963228282277047));
#518=DIRECTION('',(0.,-0.268684343089821,0.963228282277047));
#519=DIRECTION('',(1.,0.,0.));
#520=DIRECTION('',(0.,0.,-1.));
#521=DIRECTION('',(1.,0.,0.));
#522=DIRECTION('',(0.,0.,-1.));
#523=DIRECTION('',(-1.,0.,0.));
#524=DIRECTION('',(0.,0.,-1.));
#525=DIRECTION('',(1.,0.,0.));
#526=DIRECTION('',(0.,0.,-1.));
#527=DIRECTION('',(1.,0.,0.));
#528=DIRECTION('',(0.,0.,-1.));
#529=DIRECTION('',(1.,0.,0.));
#530=DIRECTION('',(0.,0.,-1.));
#531=DIRECTION('',(1.,0.,0.));
#532=DIRECTION('',(0.,0.,-1.));
#533=DIRECTION('',(1.,0.,0.));
#534=DIRECTION('',(0.,0.,-1.));
#535=DIRECTION('',(-1.,0.,0.));
#536=DIRECTION('',(0.,0.,-1.));
#537=DIRECTION('',(1.,0.,0.));
#538=DIRECTION('',(0.,1.,0.));
#539=DIRECTION('',(0.,-1.,4.62592926927149E-16));
#540=DIRECTION('',(0.,4.62592926927149E-16,1.));
#541=DIRECTION('',(0.,-1.,4.62592926927149E-16));
#542=DIRECTION('',(0.,-1.,4.62592926927149E-16));
#543=DIRECTION('',(0.,0.963228282277047,0.268684343089821));
#544=DIRECTION('',(0.,-0.268684343089821,0.963228282277047));
#545=DIRECTION('',(0.,-0.268684343089821,0.963228282277047));
#546=DIRECTION('',(1.,0.,0.));
#547=DIRECTION('',(0.,0.963228282277047,-0.268684343089821));
#548=DIRECTION('',(0.,0.268684343089821,0.963228282277047));
#549=DIRECTION('',(1.,0.,0.));
#550=DIRECTION('',(0.,0.268684343089821,0.963228282277047));
#551=DIRECTION('',(1.,0.,0.));
#552=DIRECTION('',(0.,1.,0.));
#553=DIRECTION('',(-1.,0.,0.));
#554=DIRECTION('',(0.,0.,-1.));
#555=DIRECTION('',(1.,0.,0.));
#556=DIRECTION('',(0.,0.,-1.));
#557=DIRECTION('',(1.,0.,0.));
#558=DIRECTION('',(0.,0.,-1.));
#559=DIRECTION('',(1.,0.,0.));
#560=DIRECTION('',(0.,0.,-1.));
#561=DIRECTION('',(1.,0.,0.));
#562=DIRECTION('',(0.,0.,-1.));
#563=DIRECTION('',(1.,0.,0.));
#564=DIRECTION('',(0.,0.,-1.));
#565=DIRECTION('',(1.,0.,0.));
#566=DIRECTION('',(0.,0.,-1.));
#567=DIRECTION('',(1.,0.,0.));
#568=DIRECTION('',(0.,1.,0.));
#569=DIRECTION('',(1.,0.,0.));
#570=DIRECTION('',(0.,1.,0.));
#571=DIRECTION('',(0.,3.46944695195361E-16,1.));
#572=DIRECTION('',(0.,-1.,3.46944695195361E-16));
#573=DIRECTION('',(0.,3.46944695195361E-16,1.));
#574=DIRECTION('',(0.,-1.,3.46944695195361E-16));
#575=CARTESIAN_POINT('',(0.,0.,0.));
#576=CARTESIAN_POINT('',(-0.01,0.015,0.015));
#577=CARTESIAN_POINT('',(-0.01,-0.03,0.015));
#578=CARTESIAN_POINT('',(-0.01,-0.03,0.015));
#579=CARTESIAN_POINT('',(-0.007,-0.03,0.015));
#580=CARTESIAN_POINT('',(-0.007,-0.015,0.015));
#581=CARTESIAN_POINT('',(-0.007,0.03,0.015));
#582=CARTESIAN_POINT('',(-0.01,0.03,0.015));
#583=CARTESIAN_POINT('',(-0.01,0.03,0.015));
#584=CARTESIAN_POINT('',(-0.01,0.015,0.015));
#585=CARTESIAN_POINT('',(0.02,0.015,0.01));
#586=CARTESIAN_POINT('',(0.01,-0.015,0.01));
#587=CARTESIAN_POINT('',(0.01,-0.02,0.01));
#588=CARTESIAN_POINT('',(0.01,0.015,0.01));
#589=CARTESIAN_POINT('',(0.01,0.01,0.01));
#590=CARTESIAN_POINT('',(0.,-0.015,0.01));
#591=CARTESIAN_POINT('',(0.,-0.03,0.01));
#592=CARTESIAN_POINT('',(0.,0.03,0.01));
#593=CARTESIAN_POINT('',(0.02,-0.03,0.01));
#594=CARTESIAN_POINT('',(0.02,-0.03,0.01));
#595=CARTESIAN_POINT('',(0.02,0.015,0.01));
#596=CARTESIAN_POINT('',(0.02,0.03,0.01));
#597=CARTESIAN_POINT('',(0.02,0.03,0.01));
#598=CARTESIAN_POINT('',(0.02,0.015,0.));
#599=CARTESIAN_POINT('',(0.01,-0.015,0.));
#600=CARTESIAN_POINT('',(0.015,-0.015,0.));
#601=CARTESIAN_POINT('',(0.01,0.015,0.));
#602=CARTESIAN_POINT('',(0.015,0.015,0.));
#603=CARTESIAN_POINT('',(0.02,-0.03,0.));
#604=CARTESIAN_POINT('',(0.02,-0.03,0.));
#605=CARTESIAN_POINT('',(-0.01,-0.03,0.));
#606=CARTESIAN_POINT('',(-0.01,0.015,0.));
#607=CARTESIAN_POINT('',(-0.01,0.03,0.));
#608=CARTESIAN_POINT('',(0.02,0.03,0.));
#609=CARTESIAN_POINT('',(0.02,0.03,0.));
#610=CARTESIAN_POINT('',(0.02,0.015,0.));
#611=CARTESIAN_POINT('',(0.02,0.03,0.005));
#612=CARTESIAN_POINT('',(-0.01,0.03,0.005));
#613=CARTESIAN_POINT('',(-0.007,0.03,0.023));
#614=CARTESIAN_POINT('',(-0.007,0.03,0.031));
#615=CARTESIAN_POINT('',(-0.01,0.03,0.031));
#616=CARTESIAN_POINT('',(-0.01,0.03,0.031));
#617=CARTESIAN_POINT('',(-0.01,0.03,0.0355));
#618=CARTESIAN_POINT('',(-0.01,0.03,0.04));
#619=CARTESIAN_POINT('',(-0.01,0.03,0.04));
#620=CARTESIAN_POINT('',(0.,0.03,0.04));
#621=CARTESIAN_POINT('',(0.,0.03,0.0125));
#622=CARTESIAN_POINT('',(0.02,0.03,0.005));
#623=CARTESIAN_POINT('',(0.02,-0.03,0.005));
#624=CARTESIAN_POINT('',(0.,-0.03,0.0125));
#625=CARTESIAN_POINT('',(0.,-0.03,0.04));
#626=CARTESIAN_POINT('',(-0.01,-0.03,0.04));
#627=CARTESIAN_POINT('',(-0.01,-0.03,0.04));
#628=CARTESIAN_POINT('',(-0.01,-0.03,0.0355));
#629=CARTESIAN_POINT('',(-0.01,-0.03,0.031));
#630=CARTESIAN_POINT('',(-0.01,-0.03,0.031));
#631=CARTESIAN_POINT('',(-0.007,-0.03,0.031));
#632=CARTESIAN_POINT('',(-0.007,-0.03,0.023));
#633=CARTESIAN_POINT('',(-0.01,-0.03,0.005));
#634=CARTESIAN_POINT('',(0.02,-0.03,0.005));
#635=CARTESIAN_POINT('',(0.02,0.,0.01));
#636=CARTESIAN_POINT('',(-0.01,0.,0.01));
#637=CARTESIAN_POINT('',(0.,0.,0.01));
#638=CARTESIAN_POINT('',(0.,7.34788079488413E-19,0.088));
#639=CARTESIAN_POINT('',(0.,-0.0154116525164328,0.0922989494894371));
#640=CARTESIAN_POINT('',(0.,0.0154116525164328,0.0922989494894371));
#641=CARTESIAN_POINT('',(0.,-0.0227058262582164,0.0661494747447186));
#642=CARTESIAN_POINT('',(0.,0.0227058262582164,0.0661494747447186));
#643=CARTESIAN_POINT('',(0.,-1.00005109017756E-18,0.023));
#644=CARTESIAN_POINT('',(0.,-1.00005109017756E-18,0.018));
#645=CARTESIAN_POINT('',(0.,-0.02,0.023));
#646=CARTESIAN_POINT('',(0.,-0.02,0.018));
#647=CARTESIAN_POINT('',(0.,0.02,0.023));
#648=CARTESIAN_POINT('',(0.,0.02,0.018));
#649=CARTESIAN_POINT('',(-0.007,-0.02,0.023));
#650=CARTESIAN_POINT('',(-0.007,-0.02,0.023));
#651=CARTESIAN_POINT('',(-0.007,-0.02,0.018));
#652=CARTESIAN_POINT('',(-0.007,-1.00005109017756E-18,0.023));
#653=CARTESIAN_POINT('',(-0.007,-1.00005109017756E-18,0.023));
#654=CARTESIAN_POINT('',(-0.007,-1.00005109017756E-18,0.018));
#655=CARTESIAN_POINT('',(-0.007,0.02,0.023));
#656=CARTESIAN_POINT('',(-0.007,0.02,0.023));
#657=CARTESIAN_POINT('',(-0.007,0.02,0.018));
#658=CARTESIAN_POINT('',(-0.007,0.,0.01));
#659=CARTESIAN_POINT('',(-0.007,0.015,0.031));
#660=CARTESIAN_POINT('',(-0.01,0.015,0.031));
#661=CARTESIAN_POINT('',(-0.01,0.015,0.031));
#662=CARTESIAN_POINT('',(-0.01,0.0227058262582164,0.0661494747447186));
#663=CARTESIAN_POINT('',(-0.01,0.0227058262582164,0.0661494747447186));
#664=CARTESIAN_POINT('',(-0.01,0.0154116525164328,0.0922989494894371));
#665=CARTESIAN_POINT('',(-0.01,0.0154116525164328,0.0922989494894371));
#666=CARTESIAN_POINT('',(-0.01,-0.0227058262582164,0.0661494747447186));
#667=CARTESIAN_POINT('',(-0.01,-0.0154116525164328,0.0922989494894371));
#668=CARTESIAN_POINT('',(-0.01,-0.0154116525164328,0.0922989494894371));
#669=CARTESIAN_POINT('',(-0.01,-0.0227058262582164,0.0661494747447186));
#670=CARTESIAN_POINT('',(-0.01,0.,0.01));
#671=CARTESIAN_POINT('',(-0.01,4.06279035562995E-18,0.088));
#672=CARTESIAN_POINT('',(-0.05,7.34788079488413E-19,0.088));
#673=CARTESIAN_POINT('',(-0.05,7.34788079488413E-19,0.088));
#674=CARTESIAN_POINT('',(-0.05,7.34788079488413E-19,0.072));
#675=CARTESIAN_POINT('',(0.01,7.34788079488413E-19,0.088));
#676=CARTESIAN_POINT('',(0.01,7.34788079488413E-19,0.072));
#677=CARTESIAN_POINT('',(-0.05,7.96020419445781E-19,0.088));
#678=CARTESIAN_POINT('',(-0.05,7.96020419445781E-19,0.088));
#679=CARTESIAN_POINT('',(-0.05,7.96020419445781E-19,0.077));
#680=CARTESIAN_POINT('',(0.01,7.96020419445781E-19,0.088));
#681=CARTESIAN_POINT('',(0.01,7.96020419445781E-19,0.077));
#682=CARTESIAN_POINT('',(-0.05,0.,0.01));
#683=CARTESIAN_POINT('',(0.01,0.,0.01));
#684=CARTESIAN_POINT('',(0.01,0.015,-2.00000000000027E-6));
#685=CARTESIAN_POINT('',(0.01,-0.015,-1.99999999998985E-6));
#686=MECHANICAL_DESIGN_GEOMETRIC_PRESENTATION_REPRESENTATION('',(#413),
#687);
#687=(
GEOMETRIC_REPRESENTATION_CONTEXT(3)
GLOBAL_UNCERTAINTY_ASSIGNED_CONTEXT((#688))
GLOBAL_UNIT_ASSIGNED_CONTEXT((#691,#690,#689))
REPRESENTATION_CONTEXT('Part 1','TOP_LEVEL_ASSEMBLY_PART')
);
#688=UNCERTAINTY_MEASURE_WITH_UNIT(LENGTH_MEASURE(1.E-8),#691,
'DISTANCE_ACCURACY_VALUE','Maximum Tolerance applied to model');
#689=(
NAMED_UNIT(*)
SI_UNIT($,.STERADIAN.)
SOLID_ANGLE_UNIT()
);
#690=(
NAMED_UNIT(*)
PLANE_ANGLE_UNIT()
SI_UNIT($,.RADIAN.)
);
#691=(
LENGTH_UNIT()
NAMED_UNIT(*)
SI_UNIT($,.METRE.)
);
#692=PRODUCT_DEFINITION_SHAPE('','',#693);
#693=PRODUCT_DEFINITION('','',#695,#694);
#694=PRODUCT_DEFINITION_CONTEXT('',#701,'design');
#695=PRODUCT_DEFINITION_FORMATION_WITH_SPECIFIED_SOURCE('','',#697,
 .NOT_KNOWN.);
#696=PRODUCT_RELATED_PRODUCT_CATEGORY('','',(#697));
#697=PRODUCT('Part 1','Part 1','Part 1',(#699));
#698=PRODUCT_CATEGORY('','');
#699=PRODUCT_CONTEXT('',#701,'mechanical');
#700=APPLICATION_PROTOCOL_DEFINITION('international standard',
'ap242_managed_model_based_3d_engineering',2020,#701);
#701=APPLICATION_CONTEXT('managed model based 3d engineering');
ENDSEC;
END-ISO-10303-21;
