ISO-10303-21;
HEADER;
/* Generated by software containing ST-Developer
 * from STEP Tools, Inc. (www.steptools.com) 
 */
/* OPTION: using custom renumber hook */

FILE_DESCRIPTION(
/* description */ ('STEP AP242 Edition 2',
'CAx-IF Rec.Pracs.---Representation and Presentation of Product Manufa
cturing Information (PMI)---4.0---2014-10-13',
'CAx-IF Rec.Pracs.---3D Tessellated Geometry---0.4---2014-09-14','2;1',
'CAx-IF Rec.Pracs.---User Defined Attributes---1.5---2016-08-15'),
/* implementation_level */ '2;1');

FILE_NAME(
/* name */ 'Part Studio 1',
/* time_stamp */ '2026-07-07T16:19:22Z',
/* author */ (''),
/* organization */ (''),
/* preprocessor_version */ 'ST-DEVELOPER v20',
/* originating_system */ 'ONSHAPE BY PTC INC, 1.217',
/* authorisation */ '  ');

FILE_SCHEMA (('AP242_MANAGED_MODEL_BASED_3D_ENGINEERING_MIM_LF { 1 0 10303 442 3 1 4 }'));
ENDSEC;

DATA;
#10=SHAPE_REPRESENTATION_RELATIONSHIP('','',#250,#11);
#11=ADVANCED_BREP_SHAPE_REPRESENTATION('',(#248),#497);
#12=SPHERICAL_SURFACE('',#264,0.03);
#13=PLANE('',#262);
#14=PLANE('',#272);
#15=PLANE('',#274);
#16=PLANE('',#276);
#17=PLANE('',#278);
#18=PLANE('',#282);
#19=PLANE('',#287);
#20=B_SPLINE_CURVE_WITH_KNOTS('',3,(#367,#368,#369,#370,#371,#372,#373,
#374,#375,#376,#377,#378,#379,#380,#381,#382,#383,#384,#385,#386,#387,#388,
#389),.UNSPECIFIED.,.F.,.F.,(4,1,1,1,1,1,1,1,1,1,1,1,1,1,1,1,1,1,1,1,4),
(2.02755100389536E-7,0.00480656111696983,0.00961291947883927,0.0144192778407087,
0.0192256362025782,0.0216288153835129,0.0240319945644476,0.0264351737453823,
0.028838352926317,0.0336447112881865,0.0360478904691212,0.0384510696500559,
0.0432574280119254,0.0456606071928601,0.0480637863737948,0.0528701447356643,
0.0576765030975337,0.0624828614594031,0.0672892198212726,0.072095578183142,
0.0769019365450115),.UNSPECIFIED.);
#21=B_SPLINE_CURVE_WITH_KNOTS('',3,(#390,#391,#392,#393,#394,#395,#396,
#397,#398,#399,#400),.UNSPECIFIED.,.T.,.F.,(1,1,1,1,1,1,1,1,1,1,1,1,1,1,
1),(-0.00293117575091856,-0.00195411716727904,-0.000977058583639518,0.,
0.000977058583639518,0.00195411716727904,0.00293117575091856,0.00390823433455807,
0.00488529291819759,0.00586235150183711,0.00683941008547663,0.00781646866911615,
0.00879352725275567,0.00977058583639518,0.0107476444200347),
 .UNSPECIFIED.);
#22=B_SPLINE_CURVE_WITH_KNOTS('',3,(#403,#404,#405,#406,#407,#408,#409,
#410,#411,#412,#413,#414,#415,#416,#417,#418,#419,#420,#421,#422,#423,#424,
#425),.UNSPECIFIED.,.F.,.F.,(4,1,1,1,1,1,1,1,1,1,1,1,1,1,1,1,1,1,1,1,4),
(2.02755100389536E-7,0.00480656111696983,0.00961291947883927,0.0144192778407087,
0.0192256362025782,0.0216288153835129,0.0240319945644476,0.0264351737453823,
0.028838352926317,0.0336447112881865,0.0360478904691212,0.0384510696500559,
0.0432574280119254,0.0456606071928601,0.0480637863737948,0.0528701447356643,
0.0576765030975337,0.0624828614594031,0.0672892198212726,0.072095578183142,
0.0769019365450115),.UNSPECIFIED.);
#23=B_SPLINE_CURVE_WITH_KNOTS('',3,(#429,#430,#431,#432,#433,#434,#435,
#436,#437,#438,#439),.UNSPECIFIED.,.T.,.F.,(1,1,1,1,1,1,1,1,1,1,1,1,1,1,
1),(-0.00293117575091856,-0.00195411716727904,-0.000977058583639518,0.,
0.000977058583639518,0.00195411716727904,0.00293117575091856,0.00390823433455807,
0.00488529291819759,0.00586235150183711,0.00683941008547663,0.00781646866911615,
0.00879352725275567,0.00977058583639518,0.0107476444200347),
 .UNSPECIFIED.);
#24=B_SPLINE_CURVE_WITH_KNOTS('',3,(#459,#460,#461,#462),.UNSPECIFIED.,
 .F.,.F.,(4,4),(1.99999999999896E-7,0.0030002),.UNSPECIFIED.);
#25=B_SPLINE_CURVE_WITH_KNOTS('',3,(#466,#467,#468,#469),.UNSPECIFIED.,
 .F.,.F.,(4,4),(1.99999999999896E-7,0.0030002),.UNSPECIFIED.);
#26=ORIENTED_EDGE('',*,*,#76,.T.);
#27=ORIENTED_EDGE('',*,*,#77,.F.);
#28=ORIENTED_EDGE('',*,*,#78,.F.);
#29=ORIENTED_EDGE('',*,*,#79,.T.);
#30=ORIENTED_EDGE('',*,*,#80,.F.);
#31=ORIENTED_EDGE('',*,*,#81,.T.);
#32=ORIENTED_EDGE('',*,*,#82,.F.);
#33=ORIENTED_EDGE('',*,*,#83,.T.);
#34=ORIENTED_EDGE('',*,*,#84,.T.);
#35=ORIENTED_EDGE('',*,*,#85,.F.);
#36=ORIENTED_EDGE('',*,*,#82,.T.);
#37=ORIENTED_EDGE('',*,*,#86,.T.);
#38=ORIENTED_EDGE('',*,*,#84,.F.);
#39=ORIENTED_EDGE('',*,*,#87,.T.);
#40=ORIENTED_EDGE('',*,*,#77,.T.);
#41=ORIENTED_EDGE('',*,*,#88,.T.);
#42=ORIENTED_EDGE('',*,*,#89,.F.);
#43=ORIENTED_EDGE('',*,*,#90,.F.);
#44=ORIENTED_EDGE('',*,*,#91,.F.);
#45=ORIENTED_EDGE('',*,*,#86,.F.);
#46=ORIENTED_EDGE('',*,*,#79,.F.);
#47=ORIENTED_EDGE('',*,*,#92,.F.);
#48=ORIENTED_EDGE('',*,*,#89,.T.);
#49=ORIENTED_EDGE('',*,*,#93,.T.);
#50=ORIENTED_EDGE('',*,*,#91,.T.);
#51=ORIENTED_EDGE('',*,*,#94,.F.);
#52=ORIENTED_EDGE('',*,*,#95,.T.);
#53=ORIENTED_EDGE('',*,*,#93,.F.);
#54=ORIENTED_EDGE('',*,*,#88,.F.);
#55=ORIENTED_EDGE('',*,*,#96,.F.);
#56=ORIENTED_EDGE('',*,*,#90,.T.);
#57=ORIENTED_EDGE('',*,*,#94,.T.);
#58=ORIENTED_EDGE('',*,*,#97,.F.);
#59=ORIENTED_EDGE('',*,*,#92,.T.);
#60=ORIENTED_EDGE('',*,*,#80,.T.);
#61=ORIENTED_EDGE('',*,*,#98,.F.);
#62=ORIENTED_EDGE('',*,*,#76,.F.);
#63=ORIENTED_EDGE('',*,*,#87,.F.);
#64=ORIENTED_EDGE('',*,*,#96,.T.);
#65=ORIENTED_EDGE('',*,*,#98,.T.);
#66=ORIENTED_EDGE('',*,*,#97,.T.);
#67=ORIENTED_EDGE('',*,*,#95,.F.);
#68=ORIENTED_EDGE('',*,*,#99,.T.);
#69=ORIENTED_EDGE('',*,*,#85,.T.);
#70=ORIENTED_EDGE('',*,*,#81,.F.);
#71=ORIENTED_EDGE('',*,*,#99,.F.);
#72=ORIENTED_EDGE('',*,*,#100,.F.);
#73=ORIENTED_EDGE('',*,*,#78,.T.);
#74=ORIENTED_EDGE('',*,*,#83,.F.);
#75=ORIENTED_EDGE('',*,*,#100,.T.);
#76=EDGE_CURVE('',#101,#102,#122,.T.);
#77=EDGE_CURVE('',#101,#102,#20,.T.);
#78=EDGE_CURVE('',#103,#103,#21,.T.);
#79=EDGE_CURVE('',#104,#105,#22,.T.);
#80=EDGE_CURVE('',#104,#105,#123,.T.);
#81=EDGE_CURVE('',#106,#106,#23,.T.);
#82=EDGE_CURVE('',#107,#107,#124,.T.);
#83=EDGE_CURVE('',#108,#108,#125,.T.);
#84=EDGE_CURVE('',#109,#109,#126,.T.);
#85=EDGE_CURVE('',#110,#110,#127,.F.);
#86=EDGE_CURVE('',#111,#111,#128,.T.);
#87=EDGE_CURVE('',#102,#101,#129,.T.);
#88=EDGE_CURVE('',#112,#113,#130,.T.);
#89=EDGE_CURVE('',#114,#113,#24,.T.);
#90=EDGE_CURVE('',#115,#114,#131,.T.);
#91=EDGE_CURVE('',#112,#115,#25,.T.);
#92=EDGE_CURVE('',#105,#104,#132,.T.);
#93=EDGE_CURVE('',#113,#112,#133,.T.);
#94=EDGE_CURVE('',#114,#115,#134,.T.);
#95=EDGE_CURVE('',#116,#116,#135,.T.);
#96=EDGE_CURVE('',#117,#117,#136,.T.);
#97=EDGE_CURVE('',#118,#118,#137,.T.);
#98=EDGE_CURVE('',#119,#119,#138,.F.);
#99=EDGE_CURVE('',#120,#120,#139,.T.);
#100=EDGE_CURVE('',#121,#121,#140,.T.);
#101=VERTEX_POINT('',#365);
#102=VERTEX_POINT('',#366);
#103=VERTEX_POINT('',#401);
#104=VERTEX_POINT('',#426);
#105=VERTEX_POINT('',#427);
#106=VERTEX_POINT('',#440);
#107=VERTEX_POINT('',#443);
#108=VERTEX_POINT('',#445);
#109=VERTEX_POINT('',#448);
#110=VERTEX_POINT('',#450);
#111=VERTEX_POINT('',#453);
#112=VERTEX_POINT('',#457);
#113=VERTEX_POINT('',#458);
#114=VERTEX_POINT('',#463);
#115=VERTEX_POINT('',#465);
#116=VERTEX_POINT('',#476);
#117=VERTEX_POINT('',#479);
#118=VERTEX_POINT('',#482);
#119=VERTEX_POINT('',#485);
#120=VERTEX_POINT('',#490);
#121=VERTEX_POINT('',#494);
#122=CIRCLE('',#253,0.025);
#123=CIRCLE('',#255,0.025);
#124=CIRCLE('',#257,0.0005);
#125=CIRCLE('',#258,0.0005);
#126=CIRCLE('',#260,0.0005);
#127=CIRCLE('',#261,0.0005);
#128=CIRCLE('',#263,0.03);
#129=CIRCLE('',#265,0.0292873692912149);
#130=CIRCLE('',#266,0.0299624765331573);
#131=CIRCLE('',#267,0.0299624765331573);
#132=CIRCLE('',#268,0.0292873692912149);
#133=CIRCLE('',#270,0.025);
#134=CIRCLE('',#271,0.025);
#135=CIRCLE('',#273,0.0025);
#136=CIRCLE('',#275,0.0025);
#137=CIRCLE('',#277,0.0025);
#138=CIRCLE('',#279,0.0025);
#139=CIRCLE('',#283,0.00125);
#140=CIRCLE('',#286,0.00125);
#141=EDGE_LOOP('',(#26,#27));
#142=EDGE_LOOP('',(#28));
#143=EDGE_LOOP('',(#29,#30));
#144=EDGE_LOOP('',(#31));
#145=EDGE_LOOP('',(#32));
#146=EDGE_LOOP('',(#33));
#147=EDGE_LOOP('',(#34));
#148=EDGE_LOOP('',(#35));
#149=EDGE_LOOP('',(#36));
#150=EDGE_LOOP('',(#37));
#151=EDGE_LOOP('',(#38));
#152=EDGE_LOOP('',(#39,#40));
#153=EDGE_LOOP('',(#41,#42,#43,#44));
#154=EDGE_LOOP('',(#45));
#155=EDGE_LOOP('',(#46,#47));
#156=EDGE_LOOP('',(#48,#49,#50,#51));
#157=EDGE_LOOP('',(#52));
#158=EDGE_LOOP('',(#53,#54));
#159=EDGE_LOOP('',(#55));
#160=EDGE_LOOP('',(#56,#57));
#161=EDGE_LOOP('',(#58));
#162=EDGE_LOOP('',(#59,#60));
#163=EDGE_LOOP('',(#61));
#164=EDGE_LOOP('',(#62,#63));
#165=EDGE_LOOP('',(#64));
#166=EDGE_LOOP('',(#65));
#167=EDGE_LOOP('',(#66));
#168=EDGE_LOOP('',(#67));
#169=EDGE_LOOP('',(#68));
#170=EDGE_LOOP('',(#69));
#171=EDGE_LOOP('',(#70));
#172=EDGE_LOOP('',(#71));
#173=EDGE_LOOP('',(#72));
#174=EDGE_LOOP('',(#73));
#175=EDGE_LOOP('',(#74));
#176=EDGE_LOOP('',(#75));
#177=FACE_BOUND('',#141,.T.);
#178=FACE_BOUND('',#142,.T.);
#179=FACE_BOUND('',#143,.T.);
#180=FACE_BOUND('',#144,.T.);
#181=FACE_BOUND('',#145,.T.);
#182=FACE_BOUND('',#146,.T.);
#183=FACE_BOUND('',#147,.T.);
#184=FACE_BOUND('',#148,.T.);
#185=FACE_BOUND('',#149,.T.);
#186=FACE_BOUND('',#150,.T.);
#187=FACE_BOUND('',#151,.T.);
#188=FACE_BOUND('',#152,.T.);
#189=FACE_BOUND('',#153,.T.);
#190=FACE_BOUND('',#154,.T.);
#191=FACE_BOUND('',#155,.T.);
#192=FACE_BOUND('',#156,.T.);
#193=FACE_BOUND('',#157,.T.);
#194=FACE_BOUND('',#158,.T.);
#195=FACE_BOUND('',#159,.T.);
#196=FACE_BOUND('',#160,.T.);
#197=FACE_BOUND('',#161,.T.);
#198=FACE_BOUND('',#162,.T.);
#199=FACE_BOUND('',#163,.T.);
#200=FACE_BOUND('',#164,.T.);
#201=FACE_BOUND('',#165,.T.);
#202=FACE_BOUND('',#166,.T.);
#203=FACE_BOUND('',#167,.T.);
#204=FACE_BOUND('',#168,.T.);
#205=FACE_BOUND('',#169,.T.);
#206=FACE_BOUND('',#170,.T.);
#207=FACE_BOUND('',#171,.T.);
#208=FACE_BOUND('',#172,.T.);
#209=FACE_BOUND('',#173,.T.);
#210=FACE_BOUND('',#174,.T.);
#211=FACE_BOUND('',#175,.T.);
#212=FACE_BOUND('',#176,.T.);
#213=CYLINDRICAL_SURFACE('',#252,0.025);
#214=CYLINDRICAL_SURFACE('',#254,0.025);
#215=CYLINDRICAL_SURFACE('',#256,0.0005);
#216=CYLINDRICAL_SURFACE('',#259,0.0005);
#217=CYLINDRICAL_SURFACE('',#269,0.025);
#218=CYLINDRICAL_SURFACE('',#280,0.0025);
#219=CYLINDRICAL_SURFACE('',#281,0.0025);
#220=CYLINDRICAL_SURFACE('',#284,0.00125);
#221=CYLINDRICAL_SURFACE('',#285,0.00125);
#222=ADVANCED_FACE('',(#177,#178),#213,.F.);
#223=ADVANCED_FACE('',(#179,#180),#214,.F.);
#224=ADVANCED_FACE('',(#181,#182),#215,.F.);
#225=ADVANCED_FACE('',(#183,#184),#216,.F.);
#226=ADVANCED_FACE('',(#185,#186,#187),#13,.T.);
#227=ADVANCED_FACE('',(#188,#189,#190,#191),#12,.T.);
#228=ADVANCED_FACE('',(#192),#217,.F.);
#229=ADVANCED_FACE('',(#193,#194),#14,.F.);
#230=ADVANCED_FACE('',(#195,#196),#15,.T.);
#231=ADVANCED_FACE('',(#197,#198),#16,.T.);
#232=ADVANCED_FACE('',(#199,#200),#17,.F.);
#233=ADVANCED_FACE('',(#201,#202),#218,.F.);
#234=ADVANCED_FACE('',(#203,#204),#219,.F.);
#235=ADVANCED_FACE('',(#205,#206),#18,.T.);
#236=ADVANCED_FACE('',(#207,#208),#220,.F.);
#237=ADVANCED_FACE('',(#209,#210),#221,.F.);
#238=ADVANCED_FACE('',(#211,#212),#19,.T.);
#239=CLOSED_SHELL('',(#222,#223,#224,#225,#226,#227,#228,#229,#230,#231,
#232,#233,#234,#235,#236,#237,#238));
#240=STYLED_ITEM('',(#241),#248);
#241=PRESENTATION_STYLE_ASSIGNMENT((#242));
#242=SURFACE_STYLE_USAGE(.BOTH.,#243);
#243=SURFACE_SIDE_STYLE('',(#244));
#244=SURFACE_STYLE_FILL_AREA(#245);
#245=FILL_AREA_STYLE('',(#246));
#246=FILL_AREA_STYLE_COLOUR('',#247);
#247=COLOUR_RGB('',0.615686274509804,0.811764705882353,0.929411764705882);
#248=MANIFOLD_SOLID_BREP('Part 1',#239);
#249=SHAPE_DEFINITION_REPRESENTATION(#502,#250);
#250=SHAPE_REPRESENTATION('Part 1',(#251),#497);
#251=AXIS2_PLACEMENT_3D('',#362,#288,#289);
#252=AXIS2_PLACEMENT_3D('',#363,#290,#291);
#253=AXIS2_PLACEMENT_3D('',#364,#292,#293);
#254=AXIS2_PLACEMENT_3D('',#402,#294,#295);
#255=AXIS2_PLACEMENT_3D('',#428,#296,#297);
#256=AXIS2_PLACEMENT_3D('',#441,#298,#299);
#257=AXIS2_PLACEMENT_3D('',#442,#300,#301);
#258=AXIS2_PLACEMENT_3D('',#444,#302,#303);
#259=AXIS2_PLACEMENT_3D('',#446,#304,#305);
#260=AXIS2_PLACEMENT_3D('',#447,#306,#307);
#261=AXIS2_PLACEMENT_3D('',#449,#308,#309);
#262=AXIS2_PLACEMENT_3D('',#451,#310,#311);
#263=AXIS2_PLACEMENT_3D('',#452,#312,#313);
#264=AXIS2_PLACEMENT_3D('',#454,#314,#315);
#265=AXIS2_PLACEMENT_3D('',#455,#316,#317);
#266=AXIS2_PLACEMENT_3D('',#456,#318,#319);
#267=AXIS2_PLACEMENT_3D('',#464,#320,#321);
#268=AXIS2_PLACEMENT_3D('',#470,#322,#323);
#269=AXIS2_PLACEMENT_3D('',#471,#324,#325);
#270=AXIS2_PLACEMENT_3D('',#472,#326,#327);
#271=AXIS2_PLACEMENT_3D('',#473,#328,#329);
#272=AXIS2_PLACEMENT_3D('',#474,#330,#331);
#273=AXIS2_PLACEMENT_3D('',#475,#332,#333);
#274=AXIS2_PLACEMENT_3D('',#477,#334,#335);
#275=AXIS2_PLACEMENT_3D('',#478,#336,#337);
#276=AXIS2_PLACEMENT_3D('',#480,#338,#339);
#277=AXIS2_PLACEMENT_3D('',#481,#340,#341);
#278=AXIS2_PLACEMENT_3D('',#483,#342,#343);
#279=AXIS2_PLACEMENT_3D('',#484,#344,#345);
#280=AXIS2_PLACEMENT_3D('',#486,#346,#347);
#281=AXIS2_PLACEMENT_3D('',#487,#348,#349);
#282=AXIS2_PLACEMENT_3D('',#488,#350,#351);
#283=AXIS2_PLACEMENT_3D('',#489,#352,#353);
#284=AXIS2_PLACEMENT_3D('',#491,#354,#355);
#285=AXIS2_PLACEMENT_3D('',#492,#356,#357);
#286=AXIS2_PLACEMENT_3D('',#493,#358,#359);
#287=AXIS2_PLACEMENT_3D('',#495,#360,#361);
#288=DIRECTION('',(0.,0.,1.));
#289=DIRECTION('',(1.,0.,0.));
#290=DIRECTION('',(0.,-1.,0.));
#291=DIRECTION('',(0.,0.,-1.));
#292=DIRECTION('',(0.,-1.,0.));
#293=DIRECTION('',(0.,0.,-1.));
#294=DIRECTION('',(0.,1.,0.));
#295=DIRECTION('',(0.,0.,1.));
#296=DIRECTION('',(0.,-1.,0.));
#297=DIRECTION('',(0.,0.,-1.));
#298=DIRECTION('',(0.,0.,-1.));
#299=DIRECTION('',(-1.,0.,0.));
#300=DIRECTION('',(0.,0.,1.));
#301=DIRECTION('',(-1.,0.,0.));
#302=DIRECTION('',(0.,0.,1.));
#303=DIRECTION('',(1.,0.,0.));
#304=DIRECTION('',(0.,0.,-1.));
#305=DIRECTION('',(-1.,0.,0.));
#306=DIRECTION('',(0.,0.,-1.));
#307=DIRECTION('',(-1.,0.,0.));
#308=DIRECTION('',(0.,0.,1.));
#309=DIRECTION('',(1.,0.,0.));
#310=DIRECTION('',(0.,0.,-1.));
#311=DIRECTION('',(-1.,0.,0.));
#312=DIRECTION('',(0.,0.,-1.));
#313=DIRECTION('',(-1.,0.,0.));
#314=DIRECTION('',(0.,0.,-1.));
#315=DIRECTION('',(-1.,0.,0.));
#316=DIRECTION('',(0.,-1.,0.));
#317=DIRECTION('',(0.,0.,-1.));
#318=DIRECTION('',(0.,-1.,0.));
#319=DIRECTION('',(0.,0.,-1.));
#320=DIRECTION('',(0.,-1.,0.));
#321=DIRECTION('',(0.,0.,-1.));
#322=DIRECTION('',(0.,-1.,0.));
#323=DIRECTION('',(0.,0.,-1.));
#324=DIRECTION('',(0.,1.,0.));
#325=DIRECTION('',(0.,0.,1.));
#326=DIRECTION('',(0.,-1.,0.));
#327=DIRECTION('',(0.,0.,-1.));
#328=DIRECTION('',(0.,-1.,0.));
#329=DIRECTION('',(0.,0.,-1.));
#330=DIRECTION('',(0.,-1.,0.));
#331=DIRECTION('',(1.,0.,0.));
#332=DIRECTION('',(0.,-1.,0.));
#333=DIRECTION('',(0.,0.,-1.));
#334=DIRECTION('',(0.,-1.,0.));
#335=DIRECTION('',(1.,0.,0.));
#336=DIRECTION('',(0.,-1.,0.));
#337=DIRECTION('',(0.,0.,-1.));
#338=DIRECTION('',(0.,-1.,0.));
#339=DIRECTION('',(1.,0.,0.));
#340=DIRECTION('',(0.,-1.,0.));
#341=DIRECTION('',(0.,0.,-1.));
#342=DIRECTION('',(0.,-1.,0.));
#343=DIRECTION('',(1.,0.,0.));
#344=DIRECTION('',(0.,-1.,0.));
#345=DIRECTION('',(0.,0.,-1.));
#346=DIRECTION('',(0.,-1.,0.));
#347=DIRECTION('',(0.,0.,-1.));
#348=DIRECTION('',(0.,-1.,0.));
#349=DIRECTION('',(0.,0.,-1.));
#350=DIRECTION('',(0.,0.,1.));
#351=DIRECTION('',(1.,0.,0.));
#352=DIRECTION('',(0.,0.,1.));
#353=DIRECTION('',(1.,0.,0.));
#354=DIRECTION('',(0.,0.,-1.));
#355=DIRECTION('',(-1.,0.,0.));
#356=DIRECTION('',(0.,0.,-1.));
#357=DIRECTION('',(-1.,0.,0.));
#358=DIRECTION('',(0.,0.,1.));
#359=DIRECTION('',(1.,0.,0.));
#360=DIRECTION('',(0.,0.,1.));
#361=DIRECTION('',(1.,0.,0.));
#362=CARTESIAN_POINT('',(0.,0.,0.));
#363=CARTESIAN_POINT('',(-1.44704390904343E-34,0.09651,0.03));
#364=CARTESIAN_POINT('',(-1.44704390904343E-34,0.0065,0.03));
#365=CARTESIAN_POINT('',(-0.022390334208587,0.0065,0.0188791666666666));
#366=CARTESIAN_POINT('',(0.022390334208587,0.0065,0.0188791666666666));
#367=CARTESIAN_POINT('',(-0.022390334208587,0.00650000000000001,0.0188791666666667));
#368=CARTESIAN_POINT('',(-0.0222202667164143,0.0080803469759289,0.0185367581552154));
#369=CARTESIAN_POINT('',(-0.0217516699481949,0.011125155969929,0.0176294227379669));
#370=CARTESIAN_POINT('',(-0.0205728072072609,0.0154141805531187,0.0157179218454167));
#371=CARTESIAN_POINT('',(-0.0188086429330589,0.0193270665415247,0.0134320629410449));
#372=CARTESIAN_POINT('',(-0.016817134240833,0.0221622175563009,0.0114291487832169));
#373=CARTESIAN_POINT('',(-0.0148231708827638,0.0241970004512911,0.00983666844667482));
#374=CARTESIAN_POINT('',(-0.0131679716470804,0.0255449581014706,0.00871639962771985));
#375=CARTESIAN_POINT('',(-0.0113336324615098,0.0267310829965282,0.0076809722172675));
#376=CARTESIAN_POINT('',(-0.00862228242651131,0.0280824382362055,0.00645080832755229));
#377=CARTESIAN_POINT('',(-0.00569788209422019,0.0290031302737893,0.00556592170904771));
#378=CARTESIAN_POINT('',(-0.00248973511535746,0.0294944361984162,0.00508502207583245));
#379=CARTESIAN_POINT('',(0.000710798204234604,0.0296621295741002,0.00491898442630454));
#380=CARTESIAN_POINT('',(0.00397547787358598,0.02935041812838,0.0052287137378731));
#381=CARTESIAN_POINT('',(0.00701578557561332,0.0285856235708582,0.00596702576168868));
#382=CARTESIAN_POINT('',(0.00994007297599348,0.0275183328898353,0.00697212574482119));
#383=CARTESIAN_POINT('',(0.0131707432499338,0.025693156540762,0.00861656290314939));
#384=CARTESIAN_POINT('',(0.0163452645722361,0.0228176820080121,0.0109622619451816));
#385=CARTESIAN_POINT('',(0.0187927605844227,0.0193601554010214,0.0134114896639387));
#386=CARTESIAN_POINT('',(0.0205538405586951,0.0154670035680801,0.0156908162825456));
#387=CARTESIAN_POINT('',(0.0217511073061425,0.0111376202762075,0.0176268031142004));
#388=CARTESIAN_POINT('',(0.0222199712658082,0.0080830924416605,0.0185361633043069));
#389=CARTESIAN_POINT('',(0.022390334208587,0.00650000000000002,0.0188791666666667));
#390=CARTESIAN_POINT('',(-0.000978745398066389,0.0159806237317359,0.00501558501777622));
#391=CARTESIAN_POINT('',(-0.00138554905296185,0.0149997496786008,0.00503910421158683));
#392=CARTESIAN_POINT('',(-0.000979058390086197,0.0140203775538607,0.0050156154700901));
#393=CARTESIAN_POINT('',(-1.02676092508604E-6,0.0136149478079341,0.0049921958365817));
#394=CARTESIAN_POINT('',(0.000979154050400425,0.0140198322871494,0.00501560123722045));
#395=CARTESIAN_POINT('',(0.00138509312009703,0.0149998051784887,0.00503908592390185));
#396=CARTESIAN_POINT('',(0.000980472991287322,0.0159782695259319,0.00501567237745966));
#397=CARTESIAN_POINT('',(1.45263134183879E-6,0.0163852757385289,0.00499218569854372));
#398=CARTESIAN_POINT('',(-0.000978745398066389,0.0159806237317359,0.00501558501777622));
#399=CARTESIAN_POINT('',(-0.00138554905296185,0.0149997496786008,0.00503910421158683));
#400=CARTESIAN_POINT('',(-0.000979058390086197,0.0140203775538607,0.0050156154700901));
#401=CARTESIAN_POINT('',(-0.00125,0.015,0.00503126955570227));
#402=CARTESIAN_POINT('',(-1.44704390904343E-34,-0.09651,0.03));
#403=CARTESIAN_POINT('',(-0.022390334208587,-0.00650000000000001,0.0188791666666667));
#404=CARTESIAN_POINT('',(-0.0222202667164143,-0.0080803469759289,0.0185367581552154));
#405=CARTESIAN_POINT('',(-0.0217516699481949,-0.011125155969929,0.0176294227379669));
#406=CARTESIAN_POINT('',(-0.0205728072072609,-0.0154141805531187,0.0157179218454167));
#407=CARTESIAN_POINT('',(-0.0188086429330589,-0.0193270665415247,0.0134320629410449));
#408=CARTESIAN_POINT('',(-0.016817134240833,-0.0221622175563009,0.0114291487832169));
#409=CARTESIAN_POINT('',(-0.0148231708827638,-0.0241970004512911,0.00983666844667482));
#410=CARTESIAN_POINT('',(-0.0131679716470804,-0.0255449581014706,0.00871639962771985));
#411=CARTESIAN_POINT('',(-0.0113336324615098,-0.0267310829965282,0.0076809722172675));
#412=CARTESIAN_POINT('',(-0.00862228242651131,-0.0280824382362055,0.00645080832755229));
#413=CARTESIAN_POINT('',(-0.00569788209422019,-0.0290031302737893,0.00556592170904771));
#414=CARTESIAN_POINT('',(-0.00248973511535746,-0.0294944361984162,0.00508502207583245));
#415=CARTESIAN_POINT('',(0.000710798204234604,-0.0296621295741002,0.00491898442630454));
#416=CARTESIAN_POINT('',(0.00397547787358598,-0.02935041812838,0.0052287137378731));
#417=CARTESIAN_POINT('',(0.00701578557561332,-0.0285856235708582,0.00596702576168868));
#418=CARTESIAN_POINT('',(0.00994007297599348,-0.0275183328898353,0.00697212574482119));
#419=CARTESIAN_POINT('',(0.0131707432499338,-0.025693156540762,0.00861656290314939));
#420=CARTESIAN_POINT('',(0.0163452645722361,-0.0228176820080121,0.0109622619451816));
#421=CARTESIAN_POINT('',(0.0187927605844227,-0.0193601554010214,0.0134114896639387));
#422=CARTESIAN_POINT('',(0.0205538405586951,-0.0154670035680801,0.0156908162825456));
#423=CARTESIAN_POINT('',(0.0217511073061425,-0.0111376202762075,0.0176268031142004));
#424=CARTESIAN_POINT('',(0.0222199712658082,-0.0080830924416605,0.0185361633043069));
#425=CARTESIAN_POINT('',(0.022390334208587,-0.00650000000000002,0.0188791666666667));
#426=CARTESIAN_POINT('',(-0.022390334208587,-0.0065,0.0188791666666666));
#427=CARTESIAN_POINT('',(0.022390334208587,-0.0065,0.0188791666666666));
#428=CARTESIAN_POINT('',(-1.44704390904343E-34,-0.0065,0.03));
#429=CARTESIAN_POINT('',(-0.000978745398066389,-0.0159806237317359,0.00501558501777622));
#430=CARTESIAN_POINT('',(-0.00138554905296185,-0.0149997496786008,0.00503910421158683));
#431=CARTESIAN_POINT('',(-0.000979058390086197,-0.0140203775538607,0.0050156154700901));
#432=CARTESIAN_POINT('',(-1.02676092508604E-6,-0.0136149478079341,0.0049921958365817));
#433=CARTESIAN_POINT('',(0.000979154050400425,-0.0140198322871494,0.00501560123722045));
#434=CARTESIAN_POINT('',(0.00138509312009703,-0.0149998051784887,0.00503908592390185));
#435=CARTESIAN_POINT('',(0.000980472991287322,-0.0159782695259319,0.00501567237745966));
#436=CARTESIAN_POINT('',(1.45263134183879E-6,-0.0163852757385289,0.00499218569854372));
#437=CARTESIAN_POINT('',(-0.000978745398066389,-0.0159806237317359,0.00501558501777622));
#438=CARTESIAN_POINT('',(-0.00138554905296185,-0.0149997496786008,0.00503910421158683));
#439=CARTESIAN_POINT('',(-0.000979058390086197,-0.0140203775538607,0.0050156154700901));
#440=CARTESIAN_POINT('',(-0.00125,-0.015,0.00503126955570227));
#441=CARTESIAN_POINT('',(-1.19262238973405E-18,0.015,0.0899974991318238));
#442=CARTESIAN_POINT('',(-1.19262238973405E-18,0.015,0.));
#443=CARTESIAN_POINT('',(-0.000500000000000001,0.015,0.));
#444=CARTESIAN_POINT('',(-1.19262238973405E-18,0.015,0.0025));
#445=CARTESIAN_POINT('',(0.000499999999999999,0.015,0.0025));
#446=CARTESIAN_POINT('',(-1.19262238973405E-18,-0.015,0.0899974991318238));
#447=CARTESIAN_POINT('',(-1.19262238973405E-18,-0.015,0.));
#448=CARTESIAN_POINT('',(-0.000500000000000001,-0.015,0.));
#449=CARTESIAN_POINT('',(-1.19262238973405E-18,-0.015,0.0025));
#450=CARTESIAN_POINT('',(0.000499999999999999,-0.015,0.0025));
#451=CARTESIAN_POINT('',(-0.015,0.,0.));
#452=CARTESIAN_POINT('',(0.,0.,0.));
#453=CARTESIAN_POINT('',(-0.03,0.,0.));
#454=CARTESIAN_POINT('',(2.65320857533732E-18,0.,-2.85911148657928E-18));
#455=CARTESIAN_POINT('',(2.65320857533732E-18,0.0065,-2.85911148657928E-18));
#456=CARTESIAN_POINT('',(2.65320857533732E-18,-0.0015,-2.85911148657928E-18));
#457=CARTESIAN_POINT('',(0.0227092580086967,-0.0015,0.0195458333333333));
#458=CARTESIAN_POINT('',(-0.0227092580086967,-0.0015,0.0195458333333333));
#459=CARTESIAN_POINT('',(-0.0227092580086967,0.0015,0.0195458333333333));
#460=CARTESIAN_POINT('',(-0.0227322754200596,0.0005,0.0195958333333333));
#461=CARTESIAN_POINT('',(-0.0227322754200596,-0.000499999999999999,0.0195958333333333));
#462=CARTESIAN_POINT('',(-0.0227092580086967,-0.0015,0.0195458333333333));
#463=CARTESIAN_POINT('',(-0.0227092580086967,0.0015,0.0195458333333333));
#464=CARTESIAN_POINT('',(2.65320857533732E-18,0.0015,-2.85911148657928E-18));
#465=CARTESIAN_POINT('',(0.0227092580086967,0.0015,0.0195458333333333));
#466=CARTESIAN_POINT('',(0.0227092580086967,-0.0015,0.0195458333333333));
#467=CARTESIAN_POINT('',(0.0227322754200596,-0.0005,0.0195958333333333));
#468=CARTESIAN_POINT('',(0.0227322754200596,0.000499999999999999,0.0195958333333333));
#469=CARTESIAN_POINT('',(0.0227092580086967,0.0015,0.0195458333333333));
#470=CARTESIAN_POINT('',(2.65320857533732E-18,-0.0065,-2.85911148657928E-18));
#471=CARTESIAN_POINT('',(-3.11949037289248E-19,-0.0015,0.03));
#472=CARTESIAN_POINT('',(-3.11949037289248E-19,-0.0015,0.03));
#473=CARTESIAN_POINT('',(-3.11949037289248E-19,0.0015,0.03));
#474=CARTESIAN_POINT('',(0.,-0.0015,0.015));
#475=CARTESIAN_POINT('',(0.,-0.0015,0.015));
#476=CARTESIAN_POINT('',(0.,-0.0015,0.0125));
#477=CARTESIAN_POINT('',(0.,0.0015,0.015));
#478=CARTESIAN_POINT('',(0.,0.0015,0.015));
#479=CARTESIAN_POINT('',(0.,0.0015,0.0125));
#480=CARTESIAN_POINT('',(-3.46944695195361E-18,-0.0065,0.0175));
#481=CARTESIAN_POINT('',(0.,-0.0065,0.015));
#482=CARTESIAN_POINT('',(0.,-0.0065,0.0125));
#483=CARTESIAN_POINT('',(-3.46944695195361E-18,0.0065,0.0175));
#484=CARTESIAN_POINT('',(0.,0.0065,0.015));
#485=CARTESIAN_POINT('',(0.,0.0065,0.0125));
#486=CARTESIAN_POINT('',(0.,0.006502,0.015));
#487=CARTESIAN_POINT('',(0.,0.006502,0.015));
#488=CARTESIAN_POINT('',(-8.67361737988404E-19,0.,0.0025));
#489=CARTESIAN_POINT('',(-1.0842021724855E-18,-0.015,0.0025));
#490=CARTESIAN_POINT('',(0.00125,-0.015,0.0025));
#491=CARTESIAN_POINT('',(-1.0842021724855E-18,-0.015,0.0924974991318238));
#492=CARTESIAN_POINT('',(-1.0842021724855E-18,0.015,0.0924974991318238));
#493=CARTESIAN_POINT('',(-1.0842021724855E-18,0.015,0.0025));
#494=CARTESIAN_POINT('',(0.00125,0.015,0.0025));
#495=CARTESIAN_POINT('',(-8.67361737988404E-19,0.,0.0025));
#496=MECHANICAL_DESIGN_GEOMETRIC_PRESENTATION_REPRESENTATION('',(#240),
#497);
#497=(
GEOMETRIC_REPRESENTATION_CONTEXT(3)
GLOBAL_UNCERTAINTY_ASSIGNED_CONTEXT((#498))
GLOBAL_UNIT_ASSIGNED_CONTEXT((#501,#500,#499))
REPRESENTATION_CONTEXT('Part 1','TOP_LEVEL_ASSEMBLY_PART')
);
#498=UNCERTAINTY_MEASURE_WITH_UNIT(LENGTH_MEASURE(2.E-5),#501,
'DISTANCE_ACCURACY_VALUE','Maximum Tolerance applied to model');
#499=(
NAMED_UNIT(*)
SI_UNIT($,.STERADIAN.)
SOLID_ANGLE_UNIT()
);
#500=(
NAMED_UNIT(*)
PLANE_ANGLE_UNIT()
SI_UNIT($,.RADIAN.)
);
#501=(
LENGTH_UNIT()
NAMED_UNIT(*)
SI_UNIT($,.METRE.)
);
#502=PRODUCT_DEFINITION_SHAPE('','',#503);
#503=PRODUCT_DEFINITION('','',#505,#504);
#504=PRODUCT_DEFINITION_CONTEXT('',#511,'design');
#505=PRODUCT_DEFINITION_FORMATION_WITH_SPECIFIED_SOURCE('','',#507,
 .NOT_KNOWN.);
#506=PRODUCT_RELATED_PRODUCT_CATEGORY('','',(#507));
#507=PRODUCT('Part 1','Part 1','Part 1',(#509));
#508=PRODUCT_CATEGORY('','');
#509=PRODUCT_CONTEXT('',#511,'mechanical');
#510=APPLICATION_PROTOCOL_DEFINITION('international standard',
'ap242_managed_model_based_3d_engineering',2020,#511);
#511=APPLICATION_CONTEXT('managed model based 3d engineering');
ENDSEC;
END-ISO-10303-21;
