ISO-10303-21;
HEADER;
/* Generated by software containing ST-Developer
 * from STEP Tools, Inc. (www.steptools.com) 
 */
/* OPTION: using custom renumber hook */

FILE_DESCRIPTION(
/* description */ ('STEP AP242 Edition 2',
'CAx-IF Rec.Pracs.---Representation and Presentation of Product Manufa
cturing Information (PMI)---4.0---2014-10-13',
'CAx-IF Rec.Pracs.---3D Tessellated Geometry---0.4---2014-09-14','2;1',
'CAx-IF Rec.Pracs.---User Defined Attributes---1.5---2016-08-15'),
/* implementation_level */ '2;1');

FILE_NAME(
/* name */ 'Part Studio 1',
/* time_stamp */ '2026-06-15T14:54:11Z',
/* author */ (''),
/* organization */ (''),
/* preprocessor_version */ 'ST-DEVELOPER v20',
/* originating_system */ 'ONSHAPE BY PTC INC, 1.216',
/* authorisation */ '  ');

FILE_SCHEMA (('AP242_MANAGED_MODEL_BASED_3D_ENGINEERING_MIM_LF { 1 0 10303 442 3 1 4 }'));
ENDSEC;

DATA;
#10=SHAPE_REPRESENTATION_RELATIONSHIP('','',#276,#11);
#11=ADVANCED_BREP_SHAPE_REPRESENTATION('',(#274),#489);
#12=TOROIDAL_SURFACE('',#287,0.1125,0.022);
#13=TOROIDAL_SURFACE('',#291,0.178362930822386,0.022);
#14=TOROIDAL_SURFACE('',#295,0.22,0.03);
#15=TOROIDAL_SURFACE('',#299,0.261,0.006);
#16=TOROIDAL_SURFACE('',#303,0.225,0.018);
#17=TOROIDAL_SURFACE('',#305,0.225,0.018);
#18=TOROIDAL_SURFACE('',#309,0.261,0.006);
#19=TOROIDAL_SURFACE('',#313,0.22,0.03);
#20=TOROIDAL_SURFACE('',#317,0.178362930822386,0.022);
#21=TOROIDAL_SURFACE('',#321,0.1125,0.022);
#22=CONICAL_SURFACE('',#285,0.078,0.307172628877877);
#23=CONICAL_SURFACE('',#293,0.193489848535078,0.812635517871135);
#24=CONICAL_SURFACE('',#297,0.215,1.40334824757521);
#25=CONICAL_SURFACE('',#301,0.262,1.40334824757521);
#26=CONICAL_SURFACE('',#307,0.262,1.40334824757521);
#27=CONICAL_SURFACE('',#311,0.215,1.40334824757521);
#28=CONICAL_SURFACE('',#315,0.193489848535078,0.812635517871135);
#29=CONICAL_SURFACE('',#323,0.078,0.307172628877877);
#30=CYLINDRICAL_SURFACE('',#281,0.05);
#31=ORIENTED_EDGE('',*,*,#77,.T.);
#32=ORIENTED_EDGE('',*,*,#78,.F.);
#33=ORIENTED_EDGE('',*,*,#78,.T.);
#34=ORIENTED_EDGE('',*,*,#79,.F.);
#35=ORIENTED_EDGE('',*,*,#80,.F.);
#36=ORIENTED_EDGE('',*,*,#79,.T.);
#37=ORIENTED_EDGE('',*,*,#81,.F.);
#38=ORIENTED_EDGE('',*,*,#80,.T.);
#39=ORIENTED_EDGE('',*,*,#81,.T.);
#40=ORIENTED_EDGE('',*,*,#82,.F.);
#41=ORIENTED_EDGE('',*,*,#83,.F.);
#42=ORIENTED_EDGE('',*,*,#82,.T.);
#43=ORIENTED_EDGE('',*,*,#83,.T.);
#44=ORIENTED_EDGE('',*,*,#84,.F.);
#45=ORIENTED_EDGE('',*,*,#85,.F.);
#46=ORIENTED_EDGE('',*,*,#84,.T.);
#47=ORIENTED_EDGE('',*,*,#86,.F.);
#48=ORIENTED_EDGE('',*,*,#85,.T.);
#49=ORIENTED_EDGE('',*,*,#87,.F.);
#50=ORIENTED_EDGE('',*,*,#86,.T.);
#51=ORIENTED_EDGE('',*,*,#88,.F.);
#52=ORIENTED_EDGE('',*,*,#87,.T.);
#53=ORIENTED_EDGE('',*,*,#89,.F.);
#54=ORIENTED_EDGE('',*,*,#88,.T.);
#55=ORIENTED_EDGE('',*,*,#90,.F.);
#56=ORIENTED_EDGE('',*,*,#89,.T.);
#57=ORIENTED_EDGE('',*,*,#90,.T.);
#58=ORIENTED_EDGE('',*,*,#91,.F.);
#59=ORIENTED_EDGE('',*,*,#91,.T.);
#60=ORIENTED_EDGE('',*,*,#92,.F.);
#61=ORIENTED_EDGE('',*,*,#92,.T.);
#62=ORIENTED_EDGE('',*,*,#93,.F.);
#63=ORIENTED_EDGE('',*,*,#93,.T.);
#64=ORIENTED_EDGE('',*,*,#94,.F.);
#65=ORIENTED_EDGE('',*,*,#94,.T.);
#66=ORIENTED_EDGE('',*,*,#95,.F.);
#67=ORIENTED_EDGE('',*,*,#95,.T.);
#68=ORIENTED_EDGE('',*,*,#96,.F.);
#69=ORIENTED_EDGE('',*,*,#97,.F.);
#70=ORIENTED_EDGE('',*,*,#96,.T.);
#71=ORIENTED_EDGE('',*,*,#97,.T.);
#72=ORIENTED_EDGE('',*,*,#98,.F.);
#73=ORIENTED_EDGE('',*,*,#99,.F.);
#74=ORIENTED_EDGE('',*,*,#98,.T.);
#75=ORIENTED_EDGE('',*,*,#99,.T.);
#76=ORIENTED_EDGE('',*,*,#77,.F.);
#77=EDGE_CURVE('',#100,#100,#123,.T.);
#78=EDGE_CURVE('',#101,#101,#124,.T.);
#79=EDGE_CURVE('',#102,#102,#125,.T.);
#80=EDGE_CURVE('',#103,#103,#126,.T.);
#81=EDGE_CURVE('',#104,#104,#127,.T.);
#82=EDGE_CURVE('',#105,#105,#128,.T.);
#83=EDGE_CURVE('',#106,#106,#129,.T.);
#84=EDGE_CURVE('',#107,#107,#130,.T.);
#85=EDGE_CURVE('',#108,#108,#131,.T.);
#86=EDGE_CURVE('',#109,#109,#132,.T.);
#87=EDGE_CURVE('',#110,#110,#133,.T.);
#88=EDGE_CURVE('',#111,#111,#134,.T.);
#89=EDGE_CURVE('',#112,#112,#135,.T.);
#90=EDGE_CURVE('',#113,#113,#136,.T.);
#91=EDGE_CURVE('',#114,#114,#137,.T.);
#92=EDGE_CURVE('',#115,#115,#138,.T.);
#93=EDGE_CURVE('',#116,#116,#139,.T.);
#94=EDGE_CURVE('',#117,#117,#140,.T.);
#95=EDGE_CURVE('',#118,#118,#141,.T.);
#96=EDGE_CURVE('',#119,#119,#142,.T.);
#97=EDGE_CURVE('',#120,#120,#143,.T.);
#98=EDGE_CURVE('',#121,#121,#144,.T.);
#99=EDGE_CURVE('',#122,#122,#145,.T.);
#100=VERTEX_POINT('',#421);
#101=VERTEX_POINT('',#423);
#102=VERTEX_POINT('',#426);
#103=VERTEX_POINT('',#429);
#104=VERTEX_POINT('',#432);
#105=VERTEX_POINT('',#435);
#106=VERTEX_POINT('',#438);
#107=VERTEX_POINT('',#441);
#108=VERTEX_POINT('',#444);
#109=VERTEX_POINT('',#447);
#110=VERTEX_POINT('',#450);
#111=VERTEX_POINT('',#453);
#112=VERTEX_POINT('',#456);
#113=VERTEX_POINT('',#459);
#114=VERTEX_POINT('',#462);
#115=VERTEX_POINT('',#465);
#116=VERTEX_POINT('',#468);
#117=VERTEX_POINT('',#471);
#118=VERTEX_POINT('',#474);
#119=VERTEX_POINT('',#477);
#120=VERTEX_POINT('',#480);
#121=VERTEX_POINT('',#483);
#122=VERTEX_POINT('',#486);
#123=CIRCLE('',#279,0.078);
#124=CIRCLE('',#280,0.05);
#125=CIRCLE('',#282,0.05);
#126=CIRCLE('',#284,0.078);
#127=CIRCLE('',#286,0.0915297699229847);
#128=CIRCLE('',#288,0.1125);
#129=CIRCLE('',#290,0.178362930822386);
#130=CIRCLE('',#292,0.193489848535078);
#131=CIRCLE('',#294,0.199372384937238);
#132=CIRCLE('',#296,0.215);
#133=CIRCLE('',#298,0.26);
#134=CIRCLE('',#300,0.262);
#135=CIRCLE('',#302,0.222);
#136=CIRCLE('',#304,0.207050069052541);
#137=CIRCLE('',#306,0.222);
#138=CIRCLE('',#308,0.262);
#139=CIRCLE('',#310,0.26);
#140=CIRCLE('',#312,0.215);
#141=CIRCLE('',#314,0.199372384937238);
#142=CIRCLE('',#316,0.193489848535078);
#143=CIRCLE('',#318,0.178362930822386);
#144=CIRCLE('',#320,0.1125);
#145=CIRCLE('',#322,0.0915297699229847);
#146=EDGE_LOOP('',(#31));
#147=EDGE_LOOP('',(#32));
#148=EDGE_LOOP('',(#33));
#149=EDGE_LOOP('',(#34));
#150=EDGE_LOOP('',(#35));
#151=EDGE_LOOP('',(#36));
#152=EDGE_LOOP('',(#37));
#153=EDGE_LOOP('',(#38));
#154=EDGE_LOOP('',(#39));
#155=EDGE_LOOP('',(#40));
#156=EDGE_LOOP('',(#41));
#157=EDGE_LOOP('',(#42));
#158=EDGE_LOOP('',(#43));
#159=EDGE_LOOP('',(#44));
#160=EDGE_LOOP('',(#45));
#161=EDGE_LOOP('',(#46));
#162=EDGE_LOOP('',(#47));
#163=EDGE_LOOP('',(#48));
#164=EDGE_LOOP('',(#49));
#165=EDGE_LOOP('',(#50));
#166=EDGE_LOOP('',(#51));
#167=EDGE_LOOP('',(#52));
#168=EDGE_LOOP('',(#53));
#169=EDGE_LOOP('',(#54));
#170=EDGE_LOOP('',(#55));
#171=EDGE_LOOP('',(#56));
#172=EDGE_LOOP('',(#57));
#173=EDGE_LOOP('',(#58));
#174=EDGE_LOOP('',(#59));
#175=EDGE_LOOP('',(#60));
#176=EDGE_LOOP('',(#61));
#177=EDGE_LOOP('',(#62));
#178=EDGE_LOOP('',(#63));
#179=EDGE_LOOP('',(#64));
#180=EDGE_LOOP('',(#65));
#181=EDGE_LOOP('',(#66));
#182=EDGE_LOOP('',(#67));
#183=EDGE_LOOP('',(#68));
#184=EDGE_LOOP('',(#69));
#185=EDGE_LOOP('',(#70));
#186=EDGE_LOOP('',(#71));
#187=EDGE_LOOP('',(#72));
#188=EDGE_LOOP('',(#73));
#189=EDGE_LOOP('',(#74));
#190=EDGE_LOOP('',(#75));
#191=EDGE_LOOP('',(#76));
#192=FACE_BOUND('',#146,.T.);
#193=FACE_BOUND('',#147,.T.);
#194=FACE_BOUND('',#148,.T.);
#195=FACE_BOUND('',#149,.T.);
#196=FACE_BOUND('',#150,.T.);
#197=FACE_BOUND('',#151,.T.);
#198=FACE_BOUND('',#152,.T.);
#199=FACE_BOUND('',#153,.T.);
#200=FACE_BOUND('',#154,.T.);
#201=FACE_BOUND('',#155,.T.);
#202=FACE_BOUND('',#156,.T.);
#203=FACE_BOUND('',#157,.T.);
#204=FACE_BOUND('',#158,.T.);
#205=FACE_BOUND('',#159,.T.);
#206=FACE_BOUND('',#160,.T.);
#207=FACE_BOUND('',#161,.T.);
#208=FACE_BOUND('',#162,.T.);
#209=FACE_BOUND('',#163,.T.);
#210=FACE_BOUND('',#164,.T.);
#211=FACE_BOUND('',#165,.T.);
#212=FACE_BOUND('',#166,.T.);
#213=FACE_BOUND('',#167,.T.);
#214=FACE_BOUND('',#168,.T.);
#215=FACE_BOUND('',#169,.T.);
#216=FACE_BOUND('',#170,.T.);
#217=FACE_BOUND('',#171,.T.);
#218=FACE_BOUND('',#172,.T.);
#219=FACE_BOUND('',#173,.T.);
#220=FACE_BOUND('',#174,.T.);
#221=FACE_BOUND('',#175,.T.);
#222=FACE_BOUND('',#176,.T.);
#223=FACE_BOUND('',#177,.T.);
#224=FACE_BOUND('',#178,.T.);
#225=FACE_BOUND('',#179,.T.);
#226=FACE_BOUND('',#180,.T.);
#227=FACE_BOUND('',#181,.T.);
#228=FACE_BOUND('',#182,.T.);
#229=FACE_BOUND('',#183,.T.);
#230=FACE_BOUND('',#184,.T.);
#231=FACE_BOUND('',#185,.T.);
#232=FACE_BOUND('',#186,.T.);
#233=FACE_BOUND('',#187,.T.);
#234=FACE_BOUND('',#188,.T.);
#235=FACE_BOUND('',#189,.T.);
#236=FACE_BOUND('',#190,.T.);
#237=FACE_BOUND('',#191,.T.);
#238=PLANE('',#278);
#239=PLANE('',#283);
#240=PLANE('',#289);
#241=PLANE('',#319);
#242=ADVANCED_FACE('',(#192,#193),#238,.T.);
#243=ADVANCED_FACE('',(#194,#195),#30,.F.);
#244=ADVANCED_FACE('',(#196,#197),#239,.F.);
#245=ADVANCED_FACE('',(#198,#199),#22,.T.);
#246=ADVANCED_FACE('',(#200,#201),#12,.F.);
#247=ADVANCED_FACE('',(#202,#203),#240,.F.);
#248=ADVANCED_FACE('',(#204,#205),#13,.F.);
#249=ADVANCED_FACE('',(#206,#207),#23,.F.);
#250=ADVANCED_FACE('',(#208,#209),#14,.T.);
#251=ADVANCED_FACE('',(#210,#211),#24,.F.);
#252=ADVANCED_FACE('',(#212,#213),#15,.T.);
#253=ADVANCED_FACE('',(#214,#215),#25,.T.);
#254=ADVANCED_FACE('',(#216,#217),#16,.F.);
#255=ADVANCED_FACE('',(#218,#219),#17,.F.);
#256=ADVANCED_FACE('',(#220,#221),#26,.T.);
#257=ADVANCED_FACE('',(#222,#223),#18,.T.);
#258=ADVANCED_FACE('',(#224,#225),#27,.F.);
#259=ADVANCED_FACE('',(#226,#227),#19,.T.);
#260=ADVANCED_FACE('',(#228,#229),#28,.F.);
#261=ADVANCED_FACE('',(#230,#231),#20,.F.);
#262=ADVANCED_FACE('',(#232,#233),#241,.T.);
#263=ADVANCED_FACE('',(#234,#235),#21,.F.);
#264=ADVANCED_FACE('',(#236,#237),#29,.T.);
#265=CLOSED_SHELL('',(#242,#243,#244,#245,#246,#247,#248,#249,#250,#251,
#252,#253,#254,#255,#256,#257,#258,#259,#260,#261,#262,#263,#264));
#266=STYLED_ITEM('',(#267),#274);
#267=PRESENTATION_STYLE_ASSIGNMENT((#268));
#268=SURFACE_STYLE_USAGE(.BOTH.,#269);
#269=SURFACE_SIDE_STYLE('',(#270));
#270=SURFACE_STYLE_FILL_AREA(#271);
#271=FILL_AREA_STYLE('',(#272));
#272=FILL_AREA_STYLE_COLOUR('',#273);
#273=COLOUR_RGB('',0.615686274509804,0.811764705882353,0.929411764705882);
#274=MANIFOLD_SOLID_BREP('Part 1',#265);
#275=SHAPE_DEFINITION_REPRESENTATION(#494,#276);
#276=SHAPE_REPRESENTATION('Part 1',(#277),#489);
#277=AXIS2_PLACEMENT_3D('',#418,#324,#325);
#278=AXIS2_PLACEMENT_3D('',#419,#326,#327);
#279=AXIS2_PLACEMENT_3D('',#420,#328,#329);
#280=AXIS2_PLACEMENT_3D('',#422,#330,#331);
#281=AXIS2_PLACEMENT_3D('',#424,#332,#333);
#282=AXIS2_PLACEMENT_3D('',#425,#334,#335);
#283=AXIS2_PLACEMENT_3D('',#427,#336,#337);
#284=AXIS2_PLACEMENT_3D('',#428,#338,#339);
#285=AXIS2_PLACEMENT_3D('',#430,#340,#341);
#286=AXIS2_PLACEMENT_3D('',#431,#342,#343);
#287=AXIS2_PLACEMENT_3D('',#433,#344,#345);
#288=AXIS2_PLACEMENT_3D('',#434,#346,#347);
#289=AXIS2_PLACEMENT_3D('',#436,#348,#349);
#290=AXIS2_PLACEMENT_3D('',#437,#350,#351);
#291=AXIS2_PLACEMENT_3D('',#439,#352,#353);
#292=AXIS2_PLACEMENT_3D('',#440,#354,#355);
#293=AXIS2_PLACEMENT_3D('',#442,#356,#357);
#294=AXIS2_PLACEMENT_3D('',#443,#358,#359);
#295=AXIS2_PLACEMENT_3D('',#445,#360,#361);
#296=AXIS2_PLACEMENT_3D('',#446,#362,#363);
#297=AXIS2_PLACEMENT_3D('',#448,#364,#365);
#298=AXIS2_PLACEMENT_3D('',#449,#366,#367);
#299=AXIS2_PLACEMENT_3D('',#451,#368,#369);
#300=AXIS2_PLACEMENT_3D('',#452,#370,#371);
#301=AXIS2_PLACEMENT_3D('',#454,#372,#373);
#302=AXIS2_PLACEMENT_3D('',#455,#374,#375);
#303=AXIS2_PLACEMENT_3D('',#457,#376,#377);
#304=AXIS2_PLACEMENT_3D('',#458,#378,#379);
#305=AXIS2_PLACEMENT_3D('',#460,#380,#381);
#306=AXIS2_PLACEMENT_3D('',#461,#382,#383);
#307=AXIS2_PLACEMENT_3D('',#463,#384,#385);
#308=AXIS2_PLACEMENT_3D('',#464,#386,#387);
#309=AXIS2_PLACEMENT_3D('',#466,#388,#389);
#310=AXIS2_PLACEMENT_3D('',#467,#390,#391);
#311=AXIS2_PLACEMENT_3D('',#469,#392,#393);
#312=AXIS2_PLACEMENT_3D('',#470,#394,#395);
#313=AXIS2_PLACEMENT_3D('',#472,#396,#397);
#314=AXIS2_PLACEMENT_3D('',#473,#398,#399);
#315=AXIS2_PLACEMENT_3D('',#475,#400,#401);
#316=AXIS2_PLACEMENT_3D('',#476,#402,#403);
#317=AXIS2_PLACEMENT_3D('',#478,#404,#405);
#318=AXIS2_PLACEMENT_3D('',#479,#406,#407);
#319=AXIS2_PLACEMENT_3D('',#481,#408,#409);
#320=AXIS2_PLACEMENT_3D('',#482,#410,#411);
#321=AXIS2_PLACEMENT_3D('',#484,#412,#413);
#322=AXIS2_PLACEMENT_3D('',#485,#414,#415);
#323=AXIS2_PLACEMENT_3D('',#487,#416,#417);
#324=DIRECTION('',(0.,0.,1.));
#325=DIRECTION('',(1.,0.,0.));
#326=DIRECTION('',(-1.,0.,0.));
#327=DIRECTION('',(0.,0.,1.));
#328=DIRECTION('',(-1.,0.,0.));
#329=DIRECTION('',(0.,0.,1.));
#330=DIRECTION('',(-1.,0.,0.));
#331=DIRECTION('',(0.,0.,1.));
#332=DIRECTION('',(-1.,0.,0.));
#333=DIRECTION('',(0.,0.,1.));
#334=DIRECTION('',(-1.,0.,0.));
#335=DIRECTION('',(0.,0.,1.));
#336=DIRECTION('',(-1.,0.,0.));
#337=DIRECTION('',(0.,0.,1.));
#338=DIRECTION('',(-1.,0.,0.));
#339=DIRECTION('',(0.,0.,1.));
#340=DIRECTION('',(-1.,0.,0.));
#341=DIRECTION('',(0.,0.,1.));
#342=DIRECTION('',(-1.,0.,0.));
#343=DIRECTION('',(0.,0.,1.));
#344=DIRECTION('',(-1.,0.,0.));
#345=DIRECTION('',(0.,0.,1.));
#346=DIRECTION('',(-1.,0.,0.));
#347=DIRECTION('',(0.,0.,1.));
#348=DIRECTION('',(-1.,0.,0.));
#349=DIRECTION('',(0.,0.,1.));
#350=DIRECTION('',(-1.,0.,0.));
#351=DIRECTION('',(0.,0.,1.));
#352=DIRECTION('',(-1.,0.,0.));
#353=DIRECTION('',(0.,0.,1.));
#354=DIRECTION('',(-1.,0.,0.));
#355=DIRECTION('',(0.,0.,1.));
#356=DIRECTION('',(1.,0.,0.));
#357=DIRECTION('',(0.,0.,-1.));
#358=DIRECTION('',(-1.,0.,0.));
#359=DIRECTION('',(0.,0.,1.));
#360=DIRECTION('',(-1.,0.,0.));
#361=DIRECTION('',(0.,0.,1.));
#362=DIRECTION('',(-1.,0.,0.));
#363=DIRECTION('',(0.,0.,1.));
#364=DIRECTION('',(1.,0.,0.));
#365=DIRECTION('',(0.,0.,-1.));
#366=DIRECTION('',(-1.,0.,0.));
#367=DIRECTION('',(0.,0.,1.));
#368=DIRECTION('',(-1.,0.,0.));
#369=DIRECTION('',(0.,0.,1.));
#370=DIRECTION('',(-1.,0.,0.));
#371=DIRECTION('',(0.,0.,1.));
#372=DIRECTION('',(1.,0.,0.));
#373=DIRECTION('',(0.,0.,-1.));
#374=DIRECTION('',(-1.,0.,0.));
#375=DIRECTION('',(0.,0.,1.));
#376=DIRECTION('',(-1.,0.,0.));
#377=DIRECTION('',(0.,0.,1.));
#378=DIRECTION('',(-1.,0.,0.));
#379=DIRECTION('',(0.,0.,1.));
#380=DIRECTION('',(-1.,0.,0.));
#381=DIRECTION('',(0.,0.,1.));
#382=DIRECTION('',(-1.,0.,0.));
#383=DIRECTION('',(0.,0.,1.));
#384=DIRECTION('',(-1.,0.,0.));
#385=DIRECTION('',(0.,0.,1.));
#386=DIRECTION('',(-1.,0.,0.));
#387=DIRECTION('',(0.,0.,1.));
#388=DIRECTION('',(-1.,0.,0.));
#389=DIRECTION('',(0.,0.,1.));
#390=DIRECTION('',(-1.,0.,0.));
#391=DIRECTION('',(0.,0.,1.));
#392=DIRECTION('',(-1.,0.,0.));
#393=DIRECTION('',(0.,0.,1.));
#394=DIRECTION('',(-1.,0.,0.));
#395=DIRECTION('',(0.,0.,1.));
#396=DIRECTION('',(-1.,0.,0.));
#397=DIRECTION('',(0.,0.,1.));
#398=DIRECTION('',(-1.,0.,0.));
#399=DIRECTION('',(0.,0.,1.));
#400=DIRECTION('',(-1.,0.,0.));
#401=DIRECTION('',(0.,0.,1.));
#402=DIRECTION('',(-1.,0.,0.));
#403=DIRECTION('',(0.,0.,1.));
#404=DIRECTION('',(-1.,0.,0.));
#405=DIRECTION('',(0.,0.,1.));
#406=DIRECTION('',(-1.,0.,0.));
#407=DIRECTION('',(0.,0.,1.));
#408=DIRECTION('',(-1.,0.,0.));
#409=DIRECTION('',(0.,0.,1.));
#410=DIRECTION('',(-1.,0.,0.));
#411=DIRECTION('',(0.,0.,1.));
#412=DIRECTION('',(-1.,0.,0.));
#413=DIRECTION('',(0.,0.,1.));
#414=DIRECTION('',(-1.,0.,0.));
#415=DIRECTION('',(0.,0.,1.));
#416=DIRECTION('',(1.,0.,0.));
#417=DIRECTION('',(0.,0.,-1.));
#418=CARTESIAN_POINT('',(0.,0.,0.));
#419=CARTESIAN_POINT('',(-0.066,0.,0.064));
#420=CARTESIAN_POINT('',(-0.066,0.,0.));
#421=CARTESIAN_POINT('',(-0.066,0.,0.078));
#422=CARTESIAN_POINT('',(-0.066,0.,0.));
#423=CARTESIAN_POINT('',(-0.066,0.,0.05));
#424=CARTESIAN_POINT('',(0.,0.,0.));
#425=CARTESIAN_POINT('',(0.066,0.,0.));
#426=CARTESIAN_POINT('',(0.066,0.,0.05));
#427=CARTESIAN_POINT('',(0.066,0.,0.064));
#428=CARTESIAN_POINT('',(0.066,0.,0.));
#429=CARTESIAN_POINT('',(0.066,0.,0.078));
#430=CARTESIAN_POINT('',(0.066,0.,0.));
#431=CARTESIAN_POINT('',(0.0233479739539715,0.,0.));
#432=CARTESIAN_POINT('',(0.0233479739539715,0.,0.0915297699229847));
#433=CARTESIAN_POINT('',(0.03,0.,0.));
#434=CARTESIAN_POINT('',(0.008,0.,0.));
#435=CARTESIAN_POINT('',(0.008,0.,0.1125));
#436=CARTESIAN_POINT('',(0.008,0.,0.145431465411193));
#437=CARTESIAN_POINT('',(0.008,0.,0.));
#438=CARTESIAN_POINT('',(0.008,0.,0.178362930822386));
#439=CARTESIAN_POINT('',(0.03,0.,0.));
#440=CARTESIAN_POINT('',(0.0140257594699012,0.,0.));
#441=CARTESIAN_POINT('',(0.0140257594699012,0.,0.193489848535078));
#442=CARTESIAN_POINT('',(0.0140257594699012,0.,0.));
#443=CARTESIAN_POINT('',(0.0195962680602619,0.,0.));
#444=CARTESIAN_POINT('',(0.0195962680602619,0.,0.199372384937238));
#445=CARTESIAN_POINT('',(-0.00218678720805474,0.,0.));
#446=CARTESIAN_POINT('',(0.0273936117074434,0.,0.));
#447=CARTESIAN_POINT('',(0.0273936117074434,0.,0.215));
#448=CARTESIAN_POINT('',(0.0273936117074434,0.,0.));
#449=CARTESIAN_POINT('',(0.035,0.,0.));
#450=CARTESIAN_POINT('',(0.035,0.,0.26));
#451=CARTESIAN_POINT('',(0.0290839202169004,0.,0.));
#452=CARTESIAN_POINT('',(0.0231678404338009,0.,0.));
#453=CARTESIAN_POINT('',(0.0231678404338009,0.,0.262));
#454=CARTESIAN_POINT('',(0.0231678404338009,0.,0.));
#455=CARTESIAN_POINT('',(0.0164066063959727,0.,0.));
#456=CARTESIAN_POINT('',(0.0164066063959727,0.,0.222));
#457=CARTESIAN_POINT('',(-0.00134163295332616,0.,0.));
#458=CARTESIAN_POINT('',(-5.76795555762288E-17,0.,0.));
#459=CARTESIAN_POINT('',(-5.76795555762288E-17,0.,0.207050069052541));
#460=CARTESIAN_POINT('',(0.00134163295332616,0.,0.));
#461=CARTESIAN_POINT('',(-0.0164066063959727,0.,0.));
#462=CARTESIAN_POINT('',(-0.0164066063959727,0.,0.222));
#463=CARTESIAN_POINT('',(-0.0231678404338009,0.,0.));
#464=CARTESIAN_POINT('',(-0.0231678404338009,0.,0.));
#465=CARTESIAN_POINT('',(-0.0231678404338009,0.,0.262));
#466=CARTESIAN_POINT('',(-0.0290839202169004,0.,0.));
#467=CARTESIAN_POINT('',(-0.035,0.,0.));
#468=CARTESIAN_POINT('',(-0.035,0.,0.26));
#469=CARTESIAN_POINT('',(-0.0273936117074434,0.,0.));
#470=CARTESIAN_POINT('',(-0.0273936117074434,0.,0.));
#471=CARTESIAN_POINT('',(-0.0273936117074434,0.,0.215));
#472=CARTESIAN_POINT('',(0.00218678720805474,0.,0.));
#473=CARTESIAN_POINT('',(-0.0195962680602619,0.,0.));
#474=CARTESIAN_POINT('',(-0.0195962680602619,0.,0.199372384937238));
#475=CARTESIAN_POINT('',(-0.0140257594699012,0.,0.));
#476=CARTESIAN_POINT('',(-0.0140257594699012,0.,0.));
#477=CARTESIAN_POINT('',(-0.0140257594699012,0.,0.193489848535078));
#478=CARTESIAN_POINT('',(-0.03,0.,0.));
#479=CARTESIAN_POINT('',(-0.008,0.,0.));
#480=CARTESIAN_POINT('',(-0.008,0.,0.178362930822386));
#481=CARTESIAN_POINT('',(-0.008,0.,0.145431465411193));
#482=CARTESIAN_POINT('',(-0.008,0.,0.));
#483=CARTESIAN_POINT('',(-0.008,0.,0.1125));
#484=CARTESIAN_POINT('',(-0.03,0.,0.));
#485=CARTESIAN_POINT('',(-0.0233479739539715,0.,0.));
#486=CARTESIAN_POINT('',(-0.0233479739539715,0.,0.0915297699229847));
#487=CARTESIAN_POINT('',(-0.066,0.,0.));
#488=MECHANICAL_DESIGN_GEOMETRIC_PRESENTATION_REPRESENTATION('',(#266),
#489);
#489=(
GEOMETRIC_REPRESENTATION_CONTEXT(3)
GLOBAL_UNCERTAINTY_ASSIGNED_CONTEXT((#490))
GLOBAL_UNIT_ASSIGNED_CONTEXT((#493,#492,#491))
REPRESENTATION_CONTEXT('Part 1','TOP_LEVEL_ASSEMBLY_PART')
);
#490=UNCERTAINTY_MEASURE_WITH_UNIT(LENGTH_MEASURE(1.E-8),#493,
'DISTANCE_ACCURACY_VALUE','Maximum Tolerance applied to model');
#491=(
NAMED_UNIT(*)
SI_UNIT($,.STERADIAN.)
SOLID_ANGLE_UNIT()
);
#492=(
NAMED_UNIT(*)
PLANE_ANGLE_UNIT()
SI_UNIT($,.RADIAN.)
);
#493=(
LENGTH_UNIT()
NAMED_UNIT(*)
SI_UNIT($,.METRE.)
);
#494=PRODUCT_DEFINITION_SHAPE('','',#495);
#495=PRODUCT_DEFINITION('','',#497,#496);
#496=PRODUCT_DEFINITION_CONTEXT('',#503,'design');
#497=PRODUCT_DEFINITION_FORMATION_WITH_SPECIFIED_SOURCE('','',#499,
 .NOT_KNOWN.);
#498=PRODUCT_RELATED_PRODUCT_CATEGORY('','',(#499));
#499=PRODUCT('Part 1','Part 1','Part 1',(#501));
#500=PRODUCT_CATEGORY('','');
#501=PRODUCT_CONTEXT('',#503,'mechanical');
#502=APPLICATION_PROTOCOL_DEFINITION('international standard',
'ap242_managed_model_based_3d_engineering',2020,#503);
#503=APPLICATION_CONTEXT('managed model based 3d engineering');
ENDSEC;
END-ISO-10303-21;
