ISO-10303-21;
HEADER;
/* Generated by software containing ST-Developer
 * from STEP Tools, Inc. (www.steptools.com) 
 */
/* OPTION: using custom renumber hook */

FILE_DESCRIPTION(
/* description */ ('STEP AP242 Edition 2',
'CAx-IF Rec.Pracs.---Representation and Presentation of Product Manufa
cturing Information (PMI)---4.0---2014-10-13',
'CAx-IF Rec.Pracs.---3D Tessellated Geometry---0.4---2014-09-14','2;1',
'CAx-IF Rec.Pracs.---User Defined Attributes---1.5---2016-08-15'),
/* implementation_level */ '2;1');

FILE_NAME(
/* name */ 'Part Studio 1',
/* time_stamp */ '2026-06-21T17:14:27Z',
/* author */ (''),
/* organization */ (''),
/* preprocessor_version */ 'ST-DEVELOPER v20',
/* originating_system */ 'ONSHAPE BY PTC INC, 1.216',
/* authorisation */ '  ');

FILE_SCHEMA (('AP242_MANAGED_MODEL_BASED_3D_ENGINEERING_MIM_LF { 1 0 10303 442 3 1 4 }'));
ENDSEC;

DATA;
#10=SHAPE_REPRESENTATION_RELATIONSHIP('','',#610,#11);
#11=ADVANCED_BREP_SHAPE_REPRESENTATION('',(#608),#995);
#12=CYLINDRICAL_SURFACE('',#621,0.01);
#13=CYLINDRICAL_SURFACE('',#641,0.015);
#14=CYLINDRICAL_SURFACE('',#642,0.01);
#15=CYLINDRICAL_SURFACE('',#646,0.015);
#16=CYLINDRICAL_SURFACE('',#649,0.07);
#17=CYLINDRICAL_SURFACE('',#658,0.015);
#18=LINE('',#829,#84);
#19=LINE('',#831,#85);
#20=LINE('',#833,#86);
#21=LINE('',#838,#87);
#22=LINE('',#841,#88);
#23=LINE('',#843,#89);
#24=LINE('',#845,#90);
#25=LINE('',#847,#91);
#26=LINE('',#850,#92);
#27=LINE('',#852,#93);
#28=LINE('',#854,#94);
#29=LINE('',#856,#95);
#30=LINE('',#861,#96);
#31=LINE('',#863,#97);
#32=LINE('',#865,#98);
#33=LINE('',#869,#99);
#34=LINE('',#871,#100);
#35=LINE('',#873,#101);
#36=LINE('',#875,#102);
#37=LINE('',#879,#103);
#38=LINE('',#883,#104);
#39=LINE('',#885,#105);
#40=LINE('',#887,#106);
#41=LINE('',#889,#107);
#42=LINE('',#891,#108);
#43=LINE('',#893,#109);
#44=LINE('',#895,#110);
#45=LINE('',#897,#111);
#46=LINE('',#899,#112);
#47=LINE('',#901,#113);
#48=LINE('',#904,#114);
#49=LINE('',#906,#115);
#50=LINE('',#908,#116);
#51=LINE('',#910,#117);
#52=LINE('',#912,#118);
#53=LINE('',#914,#119);
#54=LINE('',#916,#120);
#55=LINE('',#918,#121);
#56=LINE('',#920,#122);
#57=LINE('',#922,#123);
#58=LINE('',#923,#124);
#59=LINE('',#924,#125);
#60=LINE('',#927,#126);
#61=LINE('',#929,#127);
#62=LINE('',#930,#128);
#63=LINE('',#932,#129);
#64=LINE('',#934,#130);
#65=LINE('',#938,#131);
#66=LINE('',#941,#132);
#67=LINE('',#943,#133);
#68=LINE('',#947,#134);
#69=LINE('',#949,#135);
#70=LINE('',#950,#136);
#71=LINE('',#952,#137);
#72=LINE('',#955,#138);
#73=LINE('',#956,#139);
#74=LINE('',#959,#140);
#75=LINE('',#960,#141);
#76=LINE('',#963,#142);
#77=LINE('',#964,#143);
#78=LINE('',#973,#144);
#79=LINE('',#975,#145);
#80=LINE('',#983,#146);
#81=LINE('',#986,#147);
#82=LINE('',#987,#148);
#83=LINE('',#990,#149);
#84=VECTOR('',#666,1.);
#85=VECTOR('',#667,1.);
#86=VECTOR('',#668,1.);
#87=VECTOR('',#675,1.);
#88=VECTOR('',#676,1.);
#89=VECTOR('',#677,1.);
#90=VECTOR('',#678,1.);
#91=VECTOR('',#681,1.);
#92=VECTOR('',#682,1.);
#93=VECTOR('',#683,1.);
#94=VECTOR('',#684,1.);
#95=VECTOR('',#687,1.);
#96=VECTOR('',#690,1.);
#97=VECTOR('',#691,1.);
#98=VECTOR('',#692,1.);
#99=VECTOR('',#695,1.);
#100=VECTOR('',#696,1.);
#101=VECTOR('',#697,1.);
#102=VECTOR('',#698,1.);
#103=VECTOR('',#703,1.);
#104=VECTOR('',#708,1.);
#105=VECTOR('',#709,1.);
#106=VECTOR('',#710,1.);
#107=VECTOR('',#713,1.);
#108=VECTOR('',#714,1.);
#109=VECTOR('',#715,1.);
#110=VECTOR('',#718,1.);
#111=VECTOR('',#719,1.);
#112=VECTOR('',#720,1.);
#113=VECTOR('',#723,1.);
#114=VECTOR('',#724,1.);
#115=VECTOR('',#725,1.);
#116=VECTOR('',#726,1.);
#117=VECTOR('',#729,1.);
#118=VECTOR('',#730,1.);
#119=VECTOR('',#731,1.);
#120=VECTOR('',#734,1.);
#121=VECTOR('',#735,1.);
#122=VECTOR('',#736,1.);
#123=VECTOR('',#739,1.);
#124=VECTOR('',#740,1.);
#125=VECTOR('',#741,1.);
#126=VECTOR('',#742,1.);
#127=VECTOR('',#743,1.);
#128=VECTOR('',#744,1.);
#129=VECTOR('',#745,1.);
#130=VECTOR('',#746,1.);
#131=VECTOR('',#751,1.);
#132=VECTOR('',#752,1.);
#133=VECTOR('',#753,1.);
#134=VECTOR('',#756,1.);
#135=VECTOR('',#757,1.);
#136=VECTOR('',#758,1.);
#137=VECTOR('',#759,1.);
#138=VECTOR('',#762,1.);
#139=VECTOR('',#763,1.);
#140=VECTOR('',#768,1.);
#141=VECTOR('',#769,1.);
#142=VECTOR('',#774,1.);
#143=VECTOR('',#775,1.);
#144=VECTOR('',#790,1.);
#145=VECTOR('',#793,1.);
#146=VECTOR('',#806,1.);
#147=VECTOR('',#811,1.);
#148=VECTOR('',#812,1.);
#149=VECTOR('',#817,1.);
#150=ORIENTED_EDGE('',*,*,#312,.F.);
#151=ORIENTED_EDGE('',*,*,#313,.F.);
#152=ORIENTED_EDGE('',*,*,#314,.T.);
#153=ORIENTED_EDGE('',*,*,#315,.T.);
#154=ORIENTED_EDGE('',*,*,#316,.T.);
#155=ORIENTED_EDGE('',*,*,#317,.F.);
#156=ORIENTED_EDGE('',*,*,#318,.T.);
#157=ORIENTED_EDGE('',*,*,#319,.T.);
#158=ORIENTED_EDGE('',*,*,#320,.F.);
#159=ORIENTED_EDGE('',*,*,#321,.F.);
#160=ORIENTED_EDGE('',*,*,#322,.T.);
#161=ORIENTED_EDGE('',*,*,#323,.T.);
#162=ORIENTED_EDGE('',*,*,#324,.F.);
#163=ORIENTED_EDGE('',*,*,#325,.T.);
#164=ORIENTED_EDGE('',*,*,#326,.T.);
#165=ORIENTED_EDGE('',*,*,#327,.T.);
#166=ORIENTED_EDGE('',*,*,#328,.T.);
#167=ORIENTED_EDGE('',*,*,#329,.F.);
#168=ORIENTED_EDGE('',*,*,#330,.F.);
#169=ORIENTED_EDGE('',*,*,#331,.F.);
#170=ORIENTED_EDGE('',*,*,#332,.F.);
#171=ORIENTED_EDGE('',*,*,#333,.F.);
#172=ORIENTED_EDGE('',*,*,#334,.T.);
#173=ORIENTED_EDGE('',*,*,#333,.T.);
#174=ORIENTED_EDGE('',*,*,#335,.F.);
#175=ORIENTED_EDGE('',*,*,#336,.F.);
#176=ORIENTED_EDGE('',*,*,#337,.T.);
#177=ORIENTED_EDGE('',*,*,#336,.T.);
#178=ORIENTED_EDGE('',*,*,#338,.F.);
#179=ORIENTED_EDGE('',*,*,#339,.F.);
#180=ORIENTED_EDGE('',*,*,#340,.T.);
#181=ORIENTED_EDGE('',*,*,#339,.T.);
#182=ORIENTED_EDGE('',*,*,#341,.T.);
#183=ORIENTED_EDGE('',*,*,#342,.F.);
#184=ORIENTED_EDGE('',*,*,#343,.F.);
#185=ORIENTED_EDGE('',*,*,#342,.T.);
#186=ORIENTED_EDGE('',*,*,#344,.F.);
#187=ORIENTED_EDGE('',*,*,#345,.F.);
#188=ORIENTED_EDGE('',*,*,#346,.T.);
#189=ORIENTED_EDGE('',*,*,#347,.T.);
#190=ORIENTED_EDGE('',*,*,#348,.F.);
#191=ORIENTED_EDGE('',*,*,#349,.F.);
#192=ORIENTED_EDGE('',*,*,#350,.T.);
#193=ORIENTED_EDGE('',*,*,#349,.T.);
#194=ORIENTED_EDGE('',*,*,#351,.F.);
#195=ORIENTED_EDGE('',*,*,#352,.F.);
#196=ORIENTED_EDGE('',*,*,#353,.T.);
#197=ORIENTED_EDGE('',*,*,#352,.T.);
#198=ORIENTED_EDGE('',*,*,#354,.T.);
#199=ORIENTED_EDGE('',*,*,#355,.F.);
#200=ORIENTED_EDGE('',*,*,#356,.F.);
#201=ORIENTED_EDGE('',*,*,#357,.T.);
#202=ORIENTED_EDGE('',*,*,#347,.F.);
#203=ORIENTED_EDGE('',*,*,#358,.F.);
#204=ORIENTED_EDGE('',*,*,#355,.T.);
#205=ORIENTED_EDGE('',*,*,#359,.F.);
#206=ORIENTED_EDGE('',*,*,#360,.T.);
#207=ORIENTED_EDGE('',*,*,#361,.F.);
#208=ORIENTED_EDGE('',*,*,#317,.T.);
#209=ORIENTED_EDGE('',*,*,#362,.T.);
#210=ORIENTED_EDGE('',*,*,#363,.F.);
#211=ORIENTED_EDGE('',*,*,#364,.T.);
#212=ORIENTED_EDGE('',*,*,#365,.F.);
#213=ORIENTED_EDGE('',*,*,#366,.T.);
#214=ORIENTED_EDGE('',*,*,#367,.F.);
#215=ORIENTED_EDGE('',*,*,#368,.F.);
#216=ORIENTED_EDGE('',*,*,#369,.T.);
#217=ORIENTED_EDGE('',*,*,#370,.F.);
#218=ORIENTED_EDGE('',*,*,#371,.F.);
#219=ORIENTED_EDGE('',*,*,#345,.T.);
#220=ORIENTED_EDGE('',*,*,#372,.T.);
#221=ORIENTED_EDGE('',*,*,#373,.T.);
#222=ORIENTED_EDGE('',*,*,#374,.F.);
#223=ORIENTED_EDGE('',*,*,#319,.F.);
#224=ORIENTED_EDGE('',*,*,#375,.T.);
#225=ORIENTED_EDGE('',*,*,#324,.T.);
#226=ORIENTED_EDGE('',*,*,#376,.F.);
#227=ORIENTED_EDGE('',*,*,#356,.T.);
#228=ORIENTED_EDGE('',*,*,#358,.T.);
#229=ORIENTED_EDGE('',*,*,#350,.F.);
#230=ORIENTED_EDGE('',*,*,#353,.F.);
#231=ORIENTED_EDGE('',*,*,#370,.T.);
#232=ORIENTED_EDGE('',*,*,#377,.T.);
#233=ORIENTED_EDGE('',*,*,#325,.F.);
#234=ORIENTED_EDGE('',*,*,#378,.T.);
#235=ORIENTED_EDGE('',*,*,#371,.T.);
#236=ORIENTED_EDGE('',*,*,#378,.F.);
#237=ORIENTED_EDGE('',*,*,#334,.F.);
#238=ORIENTED_EDGE('',*,*,#337,.F.);
#239=ORIENTED_EDGE('',*,*,#340,.F.);
#240=ORIENTED_EDGE('',*,*,#343,.T.);
#241=ORIENTED_EDGE('',*,*,#346,.F.);
#242=ORIENTED_EDGE('',*,*,#327,.F.);
#243=ORIENTED_EDGE('',*,*,#379,.T.);
#244=ORIENTED_EDGE('',*,*,#368,.T.);
#245=ORIENTED_EDGE('',*,*,#380,.T.);
#246=ORIENTED_EDGE('',*,*,#375,.F.);
#247=ORIENTED_EDGE('',*,*,#318,.F.);
#248=ORIENTED_EDGE('',*,*,#361,.T.);
#249=ORIENTED_EDGE('',*,*,#381,.T.);
#250=ORIENTED_EDGE('',*,*,#321,.T.);
#251=ORIENTED_EDGE('',*,*,#326,.F.);
#252=ORIENTED_EDGE('',*,*,#377,.F.);
#253=ORIENTED_EDGE('',*,*,#369,.F.);
#254=ORIENTED_EDGE('',*,*,#379,.F.);
#255=ORIENTED_EDGE('',*,*,#316,.F.);
#256=ORIENTED_EDGE('',*,*,#382,.T.);
#257=ORIENTED_EDGE('',*,*,#315,.F.);
#258=ORIENTED_EDGE('',*,*,#383,.T.);
#259=ORIENTED_EDGE('',*,*,#359,.T.);
#260=ORIENTED_EDGE('',*,*,#384,.F.);
#261=ORIENTED_EDGE('',*,*,#385,.F.);
#262=ORIENTED_EDGE('',*,*,#312,.T.);
#263=ORIENTED_EDGE('',*,*,#384,.T.);
#264=ORIENTED_EDGE('',*,*,#365,.T.);
#265=ORIENTED_EDGE('',*,*,#386,.F.);
#266=ORIENTED_EDGE('',*,*,#386,.T.);
#267=ORIENTED_EDGE('',*,*,#382,.F.);
#268=ORIENTED_EDGE('',*,*,#381,.F.);
#269=ORIENTED_EDGE('',*,*,#360,.F.);
#270=ORIENTED_EDGE('',*,*,#383,.F.);
#271=ORIENTED_EDGE('',*,*,#314,.F.);
#272=ORIENTED_EDGE('',*,*,#387,.T.);
#273=ORIENTED_EDGE('',*,*,#363,.T.);
#274=ORIENTED_EDGE('',*,*,#388,.T.);
#275=ORIENTED_EDGE('',*,*,#322,.F.);
#276=ORIENTED_EDGE('',*,*,#380,.F.);
#277=ORIENTED_EDGE('',*,*,#367,.T.);
#278=ORIENTED_EDGE('',*,*,#389,.T.);
#279=ORIENTED_EDGE('',*,*,#328,.F.);
#280=ORIENTED_EDGE('',*,*,#354,.F.);
#281=ORIENTED_EDGE('',*,*,#351,.T.);
#282=ORIENTED_EDGE('',*,*,#348,.T.);
#283=ORIENTED_EDGE('',*,*,#357,.F.);
#284=ORIENTED_EDGE('',*,*,#373,.F.);
#285=ORIENTED_EDGE('',*,*,#390,.F.);
#286=ORIENTED_EDGE('',*,*,#331,.T.);
#287=ORIENTED_EDGE('',*,*,#391,.F.);
#288=ORIENTED_EDGE('',*,*,#372,.F.);
#289=ORIENTED_EDGE('',*,*,#344,.T.);
#290=ORIENTED_EDGE('',*,*,#341,.F.);
#291=ORIENTED_EDGE('',*,*,#338,.T.);
#292=ORIENTED_EDGE('',*,*,#335,.T.);
#293=ORIENTED_EDGE('',*,*,#332,.T.);
#294=ORIENTED_EDGE('',*,*,#390,.T.);
#295=ORIENTED_EDGE('',*,*,#329,.T.);
#296=ORIENTED_EDGE('',*,*,#389,.F.);
#297=ORIENTED_EDGE('',*,*,#366,.F.);
#298=ORIENTED_EDGE('',*,*,#392,.F.);
#299=ORIENTED_EDGE('',*,*,#376,.T.);
#300=ORIENTED_EDGE('',*,*,#323,.F.);
#301=ORIENTED_EDGE('',*,*,#388,.F.);
#302=ORIENTED_EDGE('',*,*,#362,.F.);
#303=ORIENTED_EDGE('',*,*,#320,.T.);
#304=ORIENTED_EDGE('',*,*,#330,.T.);
#305=ORIENTED_EDGE('',*,*,#392,.T.);
#306=ORIENTED_EDGE('',*,*,#374,.T.);
#307=ORIENTED_EDGE('',*,*,#391,.T.);
#308=ORIENTED_EDGE('',*,*,#313,.T.);
#309=ORIENTED_EDGE('',*,*,#385,.T.);
#310=ORIENTED_EDGE('',*,*,#364,.F.);
#311=ORIENTED_EDGE('',*,*,#387,.F.);
#312=EDGE_CURVE('',#393,#394,#448,.T.);
#313=EDGE_CURVE('',#395,#393,#18,.T.);
#314=EDGE_CURVE('',#395,#396,#19,.T.);
#315=EDGE_CURVE('',#396,#394,#20,.T.);
#316=EDGE_CURVE('',#397,#397,#449,.T.);
#317=EDGE_CURVE('',#398,#399,#21,.T.);
#318=EDGE_CURVE('',#398,#400,#22,.T.);
#319=EDGE_CURVE('',#400,#401,#23,.T.);
#320=EDGE_CURVE('',#399,#401,#24,.T.);
#321=EDGE_CURVE('',#402,#403,#25,.T.);
#322=EDGE_CURVE('',#402,#404,#26,.T.);
#323=EDGE_CURVE('',#404,#405,#27,.T.);
#324=EDGE_CURVE('',#403,#405,#28,.T.);
#325=EDGE_CURVE('',#406,#407,#29,.T.);
#326=EDGE_CURVE('',#407,#408,#450,.F.);
#327=EDGE_CURVE('',#408,#409,#30,.T.);
#328=EDGE_CURVE('',#409,#410,#31,.T.);
#329=EDGE_CURVE('',#411,#410,#32,.T.);
#330=EDGE_CURVE('',#412,#411,#451,.F.);
#331=EDGE_CURVE('',#413,#412,#33,.T.);
#332=EDGE_CURVE('',#414,#413,#34,.T.);
#333=EDGE_CURVE('',#415,#414,#35,.T.);
#334=EDGE_CURVE('',#415,#406,#36,.T.);
#335=EDGE_CURVE('',#416,#414,#452,.T.);
#336=EDGE_CURVE('',#417,#416,#37,.T.);
#337=EDGE_CURVE('',#417,#415,#453,.T.);
#338=EDGE_CURVE('',#418,#416,#38,.T.);
#339=EDGE_CURVE('',#419,#418,#39,.T.);
#340=EDGE_CURVE('',#419,#417,#40,.T.);
#341=EDGE_CURVE('',#418,#420,#41,.T.);
#342=EDGE_CURVE('',#421,#420,#42,.T.);
#343=EDGE_CURVE('',#419,#421,#43,.T.);
#344=EDGE_CURVE('',#422,#420,#44,.T.);
#345=EDGE_CURVE('',#423,#422,#45,.T.);
#346=EDGE_CURVE('',#423,#421,#46,.T.);
#347=EDGE_CURVE('',#424,#425,#47,.T.);
#348=EDGE_CURVE('',#426,#425,#48,.T.);
#349=EDGE_CURVE('',#427,#426,#49,.T.);
#350=EDGE_CURVE('',#427,#424,#50,.T.);
#351=EDGE_CURVE('',#428,#426,#51,.T.);
#352=EDGE_CURVE('',#429,#428,#52,.T.);
#353=EDGE_CURVE('',#429,#427,#53,.T.);
#354=EDGE_CURVE('',#428,#430,#54,.T.);
#355=EDGE_CURVE('',#431,#430,#55,.T.);
#356=EDGE_CURVE('',#429,#431,#56,.T.);
#357=EDGE_CURVE('',#430,#425,#57,.T.);
#358=EDGE_CURVE('',#431,#424,#58,.T.);
#359=EDGE_CURVE('',#432,#433,#59,.T.);
#360=EDGE_CURVE('',#432,#434,#60,.F.);
#361=EDGE_CURVE('',#398,#434,#61,.T.);
#362=EDGE_CURVE('',#399,#435,#62,.T.);
#363=EDGE_CURVE('',#436,#435,#63,.F.);
#364=EDGE_CURVE('',#436,#437,#64,.T.);
#365=EDGE_CURVE('',#433,#437,#454,.T.);
#366=EDGE_CURVE('',#438,#439,#65,.T.);
#367=EDGE_CURVE('',#440,#439,#66,.T.);
#368=EDGE_CURVE('',#441,#440,#67,.T.);
#369=EDGE_CURVE('',#441,#442,#455,.T.);
#370=EDGE_CURVE('',#443,#442,#68,.T.);
#371=EDGE_CURVE('',#423,#443,#69,.T.);
#372=EDGE_CURVE('',#422,#444,#70,.T.);
#373=EDGE_CURVE('',#444,#445,#71,.T.);
#374=EDGE_CURVE('',#438,#445,#456,.T.);
#375=EDGE_CURVE('',#400,#403,#72,.T.);
#376=EDGE_CURVE('',#401,#405,#73,.T.);
#377=EDGE_CURVE('',#442,#407,#74,.F.);
#378=EDGE_CURVE('',#406,#443,#75,.T.);
#379=EDGE_CURVE('',#408,#441,#76,.T.);
#380=EDGE_CURVE('',#440,#409,#77,.T.);
#381=EDGE_CURVE('',#434,#402,#457,.F.);
#382=EDGE_CURVE('',#446,#446,#458,.T.);
#383=EDGE_CURVE('',#396,#432,#459,.F.);
#384=EDGE_CURVE('',#394,#433,#78,.T.);
#385=EDGE_CURVE('',#393,#437,#79,.T.);
#386=EDGE_CURVE('',#447,#447,#460,.T.);
#387=EDGE_CURVE('',#395,#436,#461,.F.);
#388=EDGE_CURVE('',#435,#404,#462,.F.);
#389=EDGE_CURVE('',#439,#410,#80,.T.);
#390=EDGE_CURVE('',#413,#444,#81,.T.);
#391=EDGE_CURVE('',#445,#412,#82,.F.);
#392=EDGE_CURVE('',#411,#438,#83,.T.);
#393=VERTEX_POINT('',#827);
#394=VERTEX_POINT('',#828);
#395=VERTEX_POINT('',#830);
#396=VERTEX_POINT('',#832);
#397=VERTEX_POINT('',#836);
#398=VERTEX_POINT('',#839);
#399=VERTEX_POINT('',#840);
#400=VERTEX_POINT('',#842);
#401=VERTEX_POINT('',#844);
#402=VERTEX_POINT('',#848);
#403=VERTEX_POINT('',#849);
#404=VERTEX_POINT('',#851);
#405=VERTEX_POINT('',#853);
#406=VERTEX_POINT('',#857);
#407=VERTEX_POINT('',#858);
#408=VERTEX_POINT('',#860);
#409=VERTEX_POINT('',#862);
#410=VERTEX_POINT('',#864);
#411=VERTEX_POINT('',#866);
#412=VERTEX_POINT('',#868);
#413=VERTEX_POINT('',#870);
#414=VERTEX_POINT('',#872);
#415=VERTEX_POINT('',#874);
#416=VERTEX_POINT('',#878);
#417=VERTEX_POINT('',#880);
#418=VERTEX_POINT('',#884);
#419=VERTEX_POINT('',#886);
#420=VERTEX_POINT('',#890);
#421=VERTEX_POINT('',#892);
#422=VERTEX_POINT('',#896);
#423=VERTEX_POINT('',#898);
#424=VERTEX_POINT('',#902);
#425=VERTEX_POINT('',#903);
#426=VERTEX_POINT('',#905);
#427=VERTEX_POINT('',#907);
#428=VERTEX_POINT('',#911);
#429=VERTEX_POINT('',#913);
#430=VERTEX_POINT('',#917);
#431=VERTEX_POINT('',#919);
#432=VERTEX_POINT('',#925);
#433=VERTEX_POINT('',#926);
#434=VERTEX_POINT('',#928);
#435=VERTEX_POINT('',#931);
#436=VERTEX_POINT('',#933);
#437=VERTEX_POINT('',#935);
#438=VERTEX_POINT('',#939);
#439=VERTEX_POINT('',#940);
#440=VERTEX_POINT('',#942);
#441=VERTEX_POINT('',#944);
#442=VERTEX_POINT('',#946);
#443=VERTEX_POINT('',#948);
#444=VERTEX_POINT('',#951);
#445=VERTEX_POINT('',#953);
#446=VERTEX_POINT('',#970);
#447=VERTEX_POINT('',#977);
#448=CIRCLE('',#613,0.015);
#449=CIRCLE('',#615,0.01);
#450=CIRCLE('',#619,0.015);
#451=CIRCLE('',#620,0.015);
#452=CIRCLE('',#622,0.01);
#453=CIRCLE('',#623,0.01);
#454=CIRCLE('',#631,0.015);
#455=CIRCLE('',#633,0.015);
#456=CIRCLE('',#634,0.015);
#457=CIRCLE('',#640,0.07);
#458=CIRCLE('',#643,0.01);
#459=CIRCLE('',#645,0.07);
#460=CIRCLE('',#647,0.015);
#461=CIRCLE('',#650,0.07);
#462=CIRCLE('',#651,0.07);
#463=EDGE_LOOP('',(#150,#151,#152,#153));
#464=EDGE_LOOP('',(#154));
#465=EDGE_LOOP('',(#155,#156,#157,#158));
#466=EDGE_LOOP('',(#159,#160,#161,#162));
#467=EDGE_LOOP('',(#163,#164,#165,#166,#167,#168,#169,#170,#171,#172));
#468=EDGE_LOOP('',(#173,#174,#175,#176));
#469=EDGE_LOOP('',(#177,#178,#179,#180));
#470=EDGE_LOOP('',(#181,#182,#183,#184));
#471=EDGE_LOOP('',(#185,#186,#187,#188));
#472=EDGE_LOOP('',(#189,#190,#191,#192));
#473=EDGE_LOOP('',(#193,#194,#195,#196));
#474=EDGE_LOOP('',(#197,#198,#199,#200));
#475=EDGE_LOOP('',(#201,#202,#203,#204));
#476=EDGE_LOOP('',(#205,#206,#207,#208,#209,#210,#211,#212));
#477=EDGE_LOOP('',(#213,#214,#215,#216,#217,#218,#219,#220,#221,#222));
#478=EDGE_LOOP('',(#223,#224,#225,#226));
#479=EDGE_LOOP('',(#227,#228,#229,#230));
#480=EDGE_LOOP('',(#231,#232,#233,#234));
#481=EDGE_LOOP('',(#235,#236,#237,#238,#239,#240,#241));
#482=EDGE_LOOP('',(#242,#243,#244,#245));
#483=EDGE_LOOP('',(#246,#247,#248,#249,#250));
#484=EDGE_LOOP('',(#251,#252,#253,#254));
#485=EDGE_LOOP('',(#255));
#486=EDGE_LOOP('',(#256));
#487=EDGE_LOOP('',(#257,#258,#259,#260));
#488=EDGE_LOOP('',(#261,#262,#263,#264));
#489=EDGE_LOOP('',(#265));
#490=EDGE_LOOP('',(#266));
#491=EDGE_LOOP('',(#267));
#492=EDGE_LOOP('',(#268,#269,#270,#271,#272,#273,#274,#275));
#493=EDGE_LOOP('',(#276,#277,#278,#279));
#494=EDGE_LOOP('',(#280,#281,#282,#283));
#495=EDGE_LOOP('',(#284,#285,#286,#287));
#496=EDGE_LOOP('',(#288,#289,#290,#291,#292,#293,#294));
#497=EDGE_LOOP('',(#295,#296,#297,#298));
#498=EDGE_LOOP('',(#299,#300,#301,#302,#303));
#499=EDGE_LOOP('',(#304,#305,#306,#307));
#500=EDGE_LOOP('',(#308,#309,#310,#311));
#501=FACE_BOUND('',#463,.T.);
#502=FACE_BOUND('',#464,.T.);
#503=FACE_BOUND('',#465,.T.);
#504=FACE_BOUND('',#466,.T.);
#505=FACE_BOUND('',#467,.T.);
#506=FACE_BOUND('',#468,.T.);
#507=FACE_BOUND('',#469,.T.);
#508=FACE_BOUND('',#470,.T.);
#509=FACE_BOUND('',#471,.T.);
#510=FACE_BOUND('',#472,.T.);
#511=FACE_BOUND('',#473,.T.);
#512=FACE_BOUND('',#474,.T.);
#513=FACE_BOUND('',#475,.T.);
#514=FACE_BOUND('',#476,.T.);
#515=FACE_BOUND('',#477,.T.);
#516=FACE_BOUND('',#478,.T.);
#517=FACE_BOUND('',#479,.T.);
#518=FACE_BOUND('',#480,.T.);
#519=FACE_BOUND('',#481,.T.);
#520=FACE_BOUND('',#482,.T.);
#521=FACE_BOUND('',#483,.T.);
#522=FACE_BOUND('',#484,.T.);
#523=FACE_BOUND('',#485,.T.);
#524=FACE_BOUND('',#486,.T.);
#525=FACE_BOUND('',#487,.T.);
#526=FACE_BOUND('',#488,.T.);
#527=FACE_BOUND('',#489,.T.);
#528=FACE_BOUND('',#490,.T.);
#529=FACE_BOUND('',#491,.T.);
#530=FACE_BOUND('',#492,.T.);
#531=FACE_BOUND('',#493,.T.);
#532=FACE_BOUND('',#494,.T.);
#533=FACE_BOUND('',#495,.T.);
#534=FACE_BOUND('',#496,.T.);
#535=FACE_BOUND('',#497,.T.);
#536=FACE_BOUND('',#498,.T.);
#537=FACE_BOUND('',#499,.T.);
#538=FACE_BOUND('',#500,.T.);
#539=PLANE('',#612);
#540=PLANE('',#614);
#541=PLANE('',#616);
#542=PLANE('',#617);
#543=PLANE('',#618);
#544=PLANE('',#624);
#545=PLANE('',#625);
#546=PLANE('',#626);
#547=PLANE('',#627);
#548=PLANE('',#628);
#549=PLANE('',#629);
#550=PLANE('',#630);
#551=PLANE('',#632);
#552=PLANE('',#635);
#553=PLANE('',#636);
#554=PLANE('',#637);
#555=PLANE('',#638);
#556=PLANE('',#639);
#557=PLANE('',#644);
#558=PLANE('',#648);
#559=PLANE('',#652);
#560=PLANE('',#653);
#561=PLANE('',#654);
#562=PLANE('',#655);
#563=PLANE('',#656);
#564=PLANE('',#657);
#565=PLANE('',#659);
#566=ADVANCED_FACE('',(#501),#539,.T.);
#567=ADVANCED_FACE('',(#502),#540,.F.);
#568=ADVANCED_FACE('',(#503),#541,.T.);
#569=ADVANCED_FACE('',(#504),#542,.F.);
#570=ADVANCED_FACE('',(#505),#543,.T.);
#571=ADVANCED_FACE('',(#506),#12,.F.);
#572=ADVANCED_FACE('',(#507),#544,.T.);
#573=ADVANCED_FACE('',(#508),#545,.F.);
#574=ADVANCED_FACE('',(#509),#546,.T.);
#575=ADVANCED_FACE('',(#510),#547,.T.);
#576=ADVANCED_FACE('',(#511),#548,.T.);
#577=ADVANCED_FACE('',(#512),#549,.F.);
#578=ADVANCED_FACE('',(#513,#514),#550,.F.);
#579=ADVANCED_FACE('',(#515,#516),#551,.F.);
#580=ADVANCED_FACE('',(#517),#552,.T.);
#581=ADVANCED_FACE('',(#518),#553,.T.);
#582=ADVANCED_FACE('',(#519),#554,.T.);
#583=ADVANCED_FACE('',(#520),#555,.T.);
#584=ADVANCED_FACE('',(#521),#556,.T.);
#585=ADVANCED_FACE('',(#522),#13,.F.);
#586=ADVANCED_FACE('',(#523,#524),#14,.F.);
#587=ADVANCED_FACE('',(#525),#557,.F.);
#588=ADVANCED_FACE('',(#526,#527),#15,.T.);
#589=ADVANCED_FACE('',(#528,#529),#558,.T.);
#590=ADVANCED_FACE('',(#530),#16,.F.);
#591=ADVANCED_FACE('',(#531),#559,.F.);
#592=ADVANCED_FACE('',(#532),#560,.T.);
#593=ADVANCED_FACE('',(#533),#561,.T.);
#594=ADVANCED_FACE('',(#534),#562,.T.);
#595=ADVANCED_FACE('',(#535),#563,.T.);
#596=ADVANCED_FACE('',(#536),#564,.T.);
#597=ADVANCED_FACE('',(#537),#17,.F.);
#598=ADVANCED_FACE('',(#538),#565,.F.);
#599=CLOSED_SHELL('',(#566,#567,#568,#569,#570,#571,#572,#573,#574,#575,
#576,#577,#578,#579,#580,#581,#582,#583,#584,#585,#586,#587,#588,#589,#590,
#591,#592,#593,#594,#595,#596,#597,#598));
#600=STYLED_ITEM('',(#601),#608);
#601=PRESENTATION_STYLE_ASSIGNMENT((#602));
#602=SURFACE_STYLE_USAGE(.BOTH.,#603);
#603=SURFACE_SIDE_STYLE('',(#604));
#604=SURFACE_STYLE_FILL_AREA(#605);
#605=FILL_AREA_STYLE('',(#606));
#606=FILL_AREA_STYLE_COLOUR('',#607);
#607=COLOUR_RGB('',0.615686274509804,0.811764705882353,0.929411764705882);
#608=MANIFOLD_SOLID_BREP('Part 1',#599);
#609=SHAPE_DEFINITION_REPRESENTATION(#1000,#610);
#610=SHAPE_REPRESENTATION('Part 1',(#611),#995);
#611=AXIS2_PLACEMENT_3D('',#824,#660,#661);
#612=AXIS2_PLACEMENT_3D('',#825,#662,#663);
#613=AXIS2_PLACEMENT_3D('',#826,#664,#665);
#614=AXIS2_PLACEMENT_3D('',#834,#669,#670);
#615=AXIS2_PLACEMENT_3D('',#835,#671,#672);
#616=AXIS2_PLACEMENT_3D('',#837,#673,#674);
#617=AXIS2_PLACEMENT_3D('',#846,#679,#680);
#618=AXIS2_PLACEMENT_3D('',#855,#685,#686);
#619=AXIS2_PLACEMENT_3D('',#859,#688,#689);
#620=AXIS2_PLACEMENT_3D('',#867,#693,#694);
#621=AXIS2_PLACEMENT_3D('',#876,#699,#700);
#622=AXIS2_PLACEMENT_3D('',#877,#701,#702);
#623=AXIS2_PLACEMENT_3D('',#881,#704,#705);
#624=AXIS2_PLACEMENT_3D('',#882,#706,#707);
#625=AXIS2_PLACEMENT_3D('',#888,#711,#712);
#626=AXIS2_PLACEMENT_3D('',#894,#716,#717);
#627=AXIS2_PLACEMENT_3D('',#900,#721,#722);
#628=AXIS2_PLACEMENT_3D('',#909,#727,#728);
#629=AXIS2_PLACEMENT_3D('',#915,#732,#733);
#630=AXIS2_PLACEMENT_3D('',#921,#737,#738);
#631=AXIS2_PLACEMENT_3D('',#936,#747,#748);
#632=AXIS2_PLACEMENT_3D('',#937,#749,#750);
#633=AXIS2_PLACEMENT_3D('',#945,#754,#755);
#634=AXIS2_PLACEMENT_3D('',#954,#760,#761);
#635=AXIS2_PLACEMENT_3D('',#957,#764,#765);
#636=AXIS2_PLACEMENT_3D('',#958,#766,#767);
#637=AXIS2_PLACEMENT_3D('',#961,#770,#771);
#638=AXIS2_PLACEMENT_3D('',#962,#772,#773);
#639=AXIS2_PLACEMENT_3D('',#965,#776,#777);
#640=AXIS2_PLACEMENT_3D('',#966,#778,#779);
#641=AXIS2_PLACEMENT_3D('',#967,#780,#781);
#642=AXIS2_PLACEMENT_3D('',#968,#782,#783);
#643=AXIS2_PLACEMENT_3D('',#969,#784,#785);
#644=AXIS2_PLACEMENT_3D('',#971,#786,#787);
#645=AXIS2_PLACEMENT_3D('',#972,#788,#789);
#646=AXIS2_PLACEMENT_3D('',#974,#791,#792);
#647=AXIS2_PLACEMENT_3D('',#976,#794,#795);
#648=AXIS2_PLACEMENT_3D('',#978,#796,#797);
#649=AXIS2_PLACEMENT_3D('',#979,#798,#799);
#650=AXIS2_PLACEMENT_3D('',#980,#800,#801);
#651=AXIS2_PLACEMENT_3D('',#981,#802,#803);
#652=AXIS2_PLACEMENT_3D('',#982,#804,#805);
#653=AXIS2_PLACEMENT_3D('',#984,#807,#808);
#654=AXIS2_PLACEMENT_3D('',#985,#809,#810);
#655=AXIS2_PLACEMENT_3D('',#988,#813,#814);
#656=AXIS2_PLACEMENT_3D('',#989,#815,#816);
#657=AXIS2_PLACEMENT_3D('',#991,#818,#819);
#658=AXIS2_PLACEMENT_3D('',#992,#820,#821);
#659=AXIS2_PLACEMENT_3D('',#993,#822,#823);
#660=DIRECTION('',(0.,0.,1.));
#661=DIRECTION('',(1.,0.,0.));
#662=DIRECTION('',(0.,-1.26161707343768E-16,1.));
#663=DIRECTION('',(1.,0.,0.));
#664=DIRECTION('',(0.,-1.26161707343768E-16,1.));
#665=DIRECTION('',(0.,-1.,-1.26161707343768E-16));
#666=DIRECTION('',(1.1049194114502E-16,1.,1.26161707343768E-16));
#667=DIRECTION('',(1.,0.,0.));
#668=DIRECTION('',(-1.1049194114502E-16,1.,1.26161707343768E-16));
#669=DIRECTION('',(0.,1.26161707343768E-16,-1.));
#670=DIRECTION('',(0.,1.,1.26161707343768E-16));
#671=DIRECTION('',(0.,-1.26161707343768E-16,1.));
#672=DIRECTION('',(0.,-1.,-1.26161707343768E-16));
#673=DIRECTION('',(0.,-1.,0.));
#674=DIRECTION('',(0.,0.,-1.));
#675=DIRECTION('',(-1.,0.,0.));
#676=DIRECTION('',(0.,0.,1.));
#677=DIRECTION('',(-1.,0.,0.));
#678=DIRECTION('',(0.,0.,1.));
#679=DIRECTION('',(0.,-1.,-2.52323414687536E-16));
#680=DIRECTION('',(0.,2.52323414687536E-16,-1.));
#681=DIRECTION('',(0.,-2.52323414687536E-16,1.));
#682=DIRECTION('',(-1.,0.,0.));
#683=DIRECTION('',(0.,-2.52323414687536E-16,1.));
#684=DIRECTION('',(-1.,0.,0.));
#685=DIRECTION('',(0.,0.,1.));
#686=DIRECTION('',(1.,0.,0.));
#687=DIRECTION('',(-1.,0.,0.));
#688=DIRECTION('',(0.,0.,1.));
#689=DIRECTION('',(1.,0.,0.));
#690=DIRECTION('',(0.,1.,0.));
#691=DIRECTION('',(-1.,0.,0.));
#692=DIRECTION('',(0.,1.,0.));
#693=DIRECTION('',(0.,0.,-1.));
#694=DIRECTION('',(-1.,0.,0.));
#695=DIRECTION('',(1.,0.,0.));
#696=DIRECTION('',(0.,1.,0.));
#697=DIRECTION('',(-1.,0.,0.));
#698=DIRECTION('',(0.,1.,0.));
#699=DIRECTION('',(-1.,0.,0.));
#700=DIRECTION('',(0.,0.,1.));
#701=DIRECTION('',(1.,0.,0.));
#702=DIRECTION('',(0.,0.,-1.));
#703=DIRECTION('',(-1.,0.,0.));
#704=DIRECTION('',(1.,0.,0.));
#705=DIRECTION('',(0.,0.,-1.));
#706=DIRECTION('',(0.,0.,1.));
#707=DIRECTION('',(1.,0.,0.));
#708=DIRECTION('',(0.,1.,0.));
#709=DIRECTION('',(-1.,0.,0.));
#710=DIRECTION('',(0.,1.,0.));
#711=DIRECTION('',(0.,0.218410259184269,-0.975857038035316));
#712=DIRECTION('',(0.,0.975857038035316,0.218410259184269));
#713=DIRECTION('',(0.,-0.975857038035316,-0.218410259184269));
#714=DIRECTION('',(-1.,0.,0.));
#715=DIRECTION('',(0.,-0.975857038035316,-0.218410259184269));
#716=DIRECTION('',(0.,-1.,0.));
#717=DIRECTION('',(0.,0.,-1.));
#718=DIRECTION('',(0.,0.,1.));
#719=DIRECTION('',(-1.,0.,0.));
#720=DIRECTION('',(0.,0.,1.));
#721=DIRECTION('',(0.,-1.,0.));
#722=DIRECTION('',(0.,0.,-1.));
#723=DIRECTION('',(-1.,0.,0.));
#724=DIRECTION('',(0.,0.,1.));
#725=DIRECTION('',(-1.,0.,0.));
#726=DIRECTION('',(0.,0.,1.));
#727=DIRECTION('',(0.,0.,-1.));
#728=DIRECTION('',(-1.,0.,0.));
#729=DIRECTION('',(0.,-1.,0.));
#730=DIRECTION('',(-1.,0.,0.));
#731=DIRECTION('',(0.,-1.,0.));
#732=DIRECTION('',(0.,-1.,0.));
#733=DIRECTION('',(0.,0.,-1.));
#734=DIRECTION('',(0.,0.,1.));
#735=DIRECTION('',(-1.,0.,0.));
#736=DIRECTION('',(0.,0.,1.));
#737=DIRECTION('',(0.,1.26161707343768E-16,-1.));
#738=DIRECTION('',(0.,1.,1.26161707343768E-16));
#739=DIRECTION('',(0.,-1.,0.));
#740=DIRECTION('',(0.,-1.,0.));
#741=DIRECTION('',(-1.1049194114502E-16,1.,1.26161707343768E-16));
#742=DIRECTION('',(-1.,0.,0.));
#743=DIRECTION('',(0.,1.,2.31296463463574E-16));
#744=DIRECTION('',(0.,1.,2.31296463463574E-16));
#745=DIRECTION('',(1.,0.,0.));
#746=DIRECTION('',(1.1049194114502E-16,1.,1.26161707343768E-16));
#747=DIRECTION('',(0.,-1.26161707343768E-16,1.));
#748=DIRECTION('',(0.,-1.,-1.26161707343768E-16));
#749=DIRECTION('',(0.,0.,1.));
#750=DIRECTION('',(1.,0.,0.));
#751=DIRECTION('',(0.,1.,0.));
#752=DIRECTION('',(-1.,0.,0.));
#753=DIRECTION('',(0.,1.,0.));
#754=DIRECTION('',(0.,0.,1.));
#755=DIRECTION('',(1.,0.,0.));
#756=DIRECTION('',(-1.,0.,0.));
#757=DIRECTION('',(0.,1.,0.));
#758=DIRECTION('',(0.,1.,0.));
#759=DIRECTION('',(1.,0.,0.));
#760=DIRECTION('',(0.,0.,-1.));
#761=DIRECTION('',(-1.,0.,0.));
#762=DIRECTION('',(0.,1.,0.));
#763=DIRECTION('',(0.,1.,0.));
#764=DIRECTION('',(1.,0.,0.));
#765=DIRECTION('',(0.,1.,0.));
#766=DIRECTION('',(0.,1.,0.));
#767=DIRECTION('',(0.,0.,1.));
#768=DIRECTION('',(0.,0.,-1.));
#769=DIRECTION('',(0.,0.,-1.));
#770=DIRECTION('',(1.,0.,0.));
#771=DIRECTION('',(0.,1.,0.));
#772=DIRECTION('',(1.,0.,0.));
#773=DIRECTION('',(0.,1.,0.));
#774=DIRECTION('',(0.,0.,-1.));
#775=DIRECTION('',(0.,0.,1.));
#776=DIRECTION('',(1.,0.,0.));
#777=DIRECTION('',(0.,1.,0.));
#778=DIRECTION('',(1.,0.,0.));
#779=DIRECTION('',(0.,0.,-1.));
#780=DIRECTION('',(0.,0.,1.));
#781=DIRECTION('',(1.,0.,0.));
#782=DIRECTION('',(0.,1.26161707343768E-16,-1.));
#783=DIRECTION('',(0.,1.,1.26161707343768E-16));
#784=DIRECTION('',(0.,-1.26161707343768E-16,1.));
#785=DIRECTION('',(0.,-1.,-1.26161707343768E-16));
#786=DIRECTION('',(-1.,-1.1049194114502E-16,-1.39398519425828E-32));
#787=DIRECTION('',(1.1049194114502E-16,-1.,0.));
#788=DIRECTION('',(-1.,-1.1049194114502E-16,-1.39398519425828E-32));
#789=DIRECTION('',(1.1049194114502E-16,-1.,0.));
#790=DIRECTION('',(0.,1.26161707343768E-16,-1.));
#791=DIRECTION('',(0.,1.26161707343768E-16,-1.));
#792=DIRECTION('',(0.,1.,1.26161707343768E-16));
#793=DIRECTION('',(0.,1.26161707343768E-16,-1.));
#794=DIRECTION('',(0.,-1.26161707343768E-16,1.));
#795=DIRECTION('',(0.,-1.,-1.26161707343768E-16));
#796=DIRECTION('',(0.,-1.26161707343768E-16,1.));
#797=DIRECTION('',(1.,0.,0.));
#798=DIRECTION('',(1.,0.,0.));
#799=DIRECTION('',(0.,0.,-1.));
#800=DIRECTION('',(-1.,1.1049194114502E-16,1.39398519425828E-32));
#801=DIRECTION('',(-1.1049194114502E-16,-1.,0.));
#802=DIRECTION('',(1.,0.,0.));
#803=DIRECTION('',(0.,0.,-1.));
#804=DIRECTION('',(0.,-1.,0.));
#805=DIRECTION('',(0.,0.,-1.));
#806=DIRECTION('',(0.,0.,1.));
#807=DIRECTION('',(-1.,0.,0.));
#808=DIRECTION('',(0.,1.,0.));
#809=DIRECTION('',(0.,1.,0.));
#810=DIRECTION('',(0.,0.,1.));
#811=DIRECTION('',(0.,0.,-1.));
#812=DIRECTION('',(0.,0.,-1.));
#813=DIRECTION('',(-1.,0.,0.));
#814=DIRECTION('',(0.,1.,0.));
#815=DIRECTION('',(-1.,0.,0.));
#816=DIRECTION('',(0.,1.,0.));
#817=DIRECTION('',(0.,0.,-1.));
#818=DIRECTION('',(-1.,0.,0.));
#819=DIRECTION('',(0.,1.,0.));
#820=DIRECTION('',(0.,0.,1.));
#821=DIRECTION('',(-1.,0.,0.));
#822=DIRECTION('',(1.,-1.1049194114502E-16,-1.39398519425828E-32));
#823=DIRECTION('',(-1.1049194114502E-16,-1.,0.));
#824=CARTESIAN_POINT('',(0.,0.,0.));
#825=CARTESIAN_POINT('',(0.01875,-0.075,0.05));
#826=CARTESIAN_POINT('',(-3.18408167778311E-18,-0.03,0.05));
#827=CARTESIAN_POINT('',(-0.015,-0.03,0.05));
#828=CARTESIAN_POINT('',(0.015,-0.03,0.05));
#829=CARTESIAN_POINT('',(-0.015,-0.06925,0.05));
#830=CARTESIAN_POINT('',(-0.015,-0.093619026473818,0.05));
#831=CARTESIAN_POINT('',(0.,-0.093619026473818,0.05));
#832=CARTESIAN_POINT('',(0.015,-0.093619026473818,0.05));
#833=CARTESIAN_POINT('',(0.015,-0.06925,0.05));
#834=CARTESIAN_POINT('',(0.0375,-0.055,0.025));
#835=CARTESIAN_POINT('',(-3.49024337756995E-18,-0.03,0.025));
#836=CARTESIAN_POINT('',(-3.49024337756995E-18,-0.04,0.025));
#837=CARTESIAN_POINT('',(0.0375,-0.14,0.08));
#838=CARTESIAN_POINT('',(0.0375,-0.14,0.025));
#839=CARTESIAN_POINT('',(0.03,-0.14,0.025));
#840=CARTESIAN_POINT('',(-0.03,-0.14,0.025));
#841=CARTESIAN_POINT('',(0.03,-0.14,0.08));
#842=CARTESIAN_POINT('',(0.03,-0.14,0.135));
#843=CARTESIAN_POINT('',(0.0375,-0.14,0.135));
#844=CARTESIAN_POINT('',(-0.03,-0.14,0.135));
#845=CARTESIAN_POINT('',(-0.03,-0.14,0.08));
#846=CARTESIAN_POINT('',(0.0375,-0.11,0.08));
#847=CARTESIAN_POINT('',(0.03,-0.11,0.08));
#848=CARTESIAN_POINT('',(0.03,-0.11,0.095));
#849=CARTESIAN_POINT('',(0.03,-0.11,0.135));
#850=CARTESIAN_POINT('',(0.,-0.11,0.095));
#851=CARTESIAN_POINT('',(-0.03,-0.11,0.095));
#852=CARTESIAN_POINT('',(-0.03,-0.11,0.08));
#853=CARTESIAN_POINT('',(-0.03,-0.11,0.135));
#854=CARTESIAN_POINT('',(0.0375,-0.11,0.135));
#855=CARTESIAN_POINT('',(0.0375,-0.06433,0.155));
#856=CARTESIAN_POINT('',(0.05,-0.06433,0.155));
#857=CARTESIAN_POINT('',(0.05,-0.06433,0.155));
#858=CARTESIAN_POINT('',(0.04,-0.06433,0.155));
#859=CARTESIAN_POINT('',(0.04,-0.04933,0.155));
#860=CARTESIAN_POINT('',(0.025,-0.04933,0.155));
#861=CARTESIAN_POINT('',(0.025,-0.06433,0.155));
#862=CARTESIAN_POINT('',(0.025,-0.035,0.155));
#863=CARTESIAN_POINT('',(0.0375,-0.035,0.155));
#864=CARTESIAN_POINT('',(-0.025,-0.035,0.155));
#865=CARTESIAN_POINT('',(-0.025,-0.06433,0.155));
#866=CARTESIAN_POINT('',(-0.025,-0.04933,0.155));
#867=CARTESIAN_POINT('',(-0.04,-0.04933,0.155));
#868=CARTESIAN_POINT('',(-0.04,-0.06433,0.155));
#869=CARTESIAN_POINT('',(-0.05,-0.06433,0.155));
#870=CARTESIAN_POINT('',(-0.05,-0.06433,0.155));
#871=CARTESIAN_POINT('',(-0.05,-0.06433,0.155));
#872=CARTESIAN_POINT('',(-0.05,-0.08966,0.155));
#873=CARTESIAN_POINT('',(0.0375,-0.08966,0.155));
#874=CARTESIAN_POINT('',(0.05,-0.08966,0.155));
#875=CARTESIAN_POINT('',(0.05,-0.06433,0.155));
#876=CARTESIAN_POINT('',(0.0375,-0.09966,0.155));
#877=CARTESIAN_POINT('',(-0.05,-0.09966,0.155));
#878=CARTESIAN_POINT('',(-0.05,-0.10966,0.155));
#879=CARTESIAN_POINT('',(0.0375,-0.10966,0.155));
#880=CARTESIAN_POINT('',(0.05,-0.10966,0.155));
#881=CARTESIAN_POINT('',(0.05,-0.09966,0.155));
#882=CARTESIAN_POINT('',(0.0375,-0.11716,0.155));
#883=CARTESIAN_POINT('',(-0.05,-0.11716,0.155));
#884=CARTESIAN_POINT('',(-0.05,-0.12466,0.155));
#885=CARTESIAN_POINT('',(0.0375,-0.12466,0.155));
#886=CARTESIAN_POINT('',(0.05,-0.12466,0.155));
#887=CARTESIAN_POINT('',(0.05,-0.11716,0.155));
#888=CARTESIAN_POINT('',(0.0375,-0.13583,0.1525));
#889=CARTESIAN_POINT('',(-0.05,-0.13583,0.1525));
#890=CARTESIAN_POINT('',(-0.05,-0.147,0.15));
#891=CARTESIAN_POINT('',(0.0375,-0.147,0.15));
#892=CARTESIAN_POINT('',(0.05,-0.147,0.15));
#893=CARTESIAN_POINT('',(0.05,-0.13583,0.1525));
#894=CARTESIAN_POINT('',(0.0375,-0.147,0.1425));
#895=CARTESIAN_POINT('',(-0.05,-0.147,0.1425));
#896=CARTESIAN_POINT('',(-0.05,-0.147,0.135));
#897=CARTESIAN_POINT('',(0.0375,-0.147,0.135));
#898=CARTESIAN_POINT('',(0.05,-0.147,0.135));
#899=CARTESIAN_POINT('',(0.05,-0.147,0.1425));
#900=CARTESIAN_POINT('',(0.0375,-0.15,0.0125));
#901=CARTESIAN_POINT('',(0.0375,-0.15,0.025));
#902=CARTESIAN_POINT('',(0.0375,-0.15,0.025));
#903=CARTESIAN_POINT('',(-0.0375,-0.15,0.025));
#904=CARTESIAN_POINT('',(-0.0375,-0.15,0.0125));
#905=CARTESIAN_POINT('',(-0.0375,-0.15,-1.38777878078145E-17));
#906=CARTESIAN_POINT('',(0.0375,-0.15,-1.38777878078145E-17));
#907=CARTESIAN_POINT('',(0.0375,-0.15,-1.38777878078145E-17));
#908=CARTESIAN_POINT('',(0.0375,-0.15,0.0125));
#909=CARTESIAN_POINT('',(0.0375,-0.075,0.));
#910=CARTESIAN_POINT('',(-0.0375,-0.075,0.));
#911=CARTESIAN_POINT('',(-0.0375,0.,0.));
#912=CARTESIAN_POINT('',(0.0375,0.,0.));
#913=CARTESIAN_POINT('',(0.0375,0.,0.));
#914=CARTESIAN_POINT('',(0.0375,-0.075,0.));
#915=CARTESIAN_POINT('',(0.0375,0.,0.0125));
#916=CARTESIAN_POINT('',(-0.0375,0.,0.0125));
#917=CARTESIAN_POINT('',(-0.0375,0.,0.025));
#918=CARTESIAN_POINT('',(0.0375,0.,0.025));
#919=CARTESIAN_POINT('',(0.0375,0.,0.025));
#920=CARTESIAN_POINT('',(0.0375,0.,0.0125));
#921=CARTESIAN_POINT('',(0.0375,-0.055,0.025));
#922=CARTESIAN_POINT('',(-0.0375,-0.145,0.025));
#923=CARTESIAN_POINT('',(0.0375,-0.145,0.025));
#924=CARTESIAN_POINT('',(0.015,-0.06925,0.025));
#925=CARTESIAN_POINT('',(0.015,-0.04,0.025));
#926=CARTESIAN_POINT('',(0.015,-0.03,0.025));
#927=CARTESIAN_POINT('',(0.03,-0.04,0.025));
#928=CARTESIAN_POINT('',(0.03,-0.04,0.025));
#929=CARTESIAN_POINT('',(0.03,-0.125,0.025));
#930=CARTESIAN_POINT('',(-0.03,-0.125,0.025));
#931=CARTESIAN_POINT('',(-0.03,-0.04,0.025));
#932=CARTESIAN_POINT('',(-0.03,-0.04,0.025));
#933=CARTESIAN_POINT('',(-0.015,-0.04,0.025));
#934=CARTESIAN_POINT('',(-0.015,-0.06925,0.025));
#935=CARTESIAN_POINT('',(-0.015,-0.03,0.025));
#936=CARTESIAN_POINT('',(-8.09910833696687E-18,-0.03,0.025));
#937=CARTESIAN_POINT('',(0.0375,-0.0745,0.135));
#938=CARTESIAN_POINT('',(-0.025,-0.0745,0.135));
#939=CARTESIAN_POINT('',(-0.025,-0.04933,0.135));
#940=CARTESIAN_POINT('',(-0.025,-0.035,0.135));
#941=CARTESIAN_POINT('',(0.0375,-0.035,0.135));
#942=CARTESIAN_POINT('',(0.025,-0.035,0.135));
#943=CARTESIAN_POINT('',(0.025,-0.0745,0.135));
#944=CARTESIAN_POINT('',(0.025,-0.04933,0.135));
#945=CARTESIAN_POINT('',(0.04,-0.04933,0.135));
#946=CARTESIAN_POINT('',(0.04,-0.06433,0.135));
#947=CARTESIAN_POINT('',(0.05,-0.06433,0.135));
#948=CARTESIAN_POINT('',(0.05,-0.06433,0.135));
#949=CARTESIAN_POINT('',(0.05,-0.1435,0.135));
#950=CARTESIAN_POINT('',(-0.05,-0.1435,0.135));
#951=CARTESIAN_POINT('',(-0.05,-0.06433,0.135));
#952=CARTESIAN_POINT('',(-0.05,-0.06433,0.135));
#953=CARTESIAN_POINT('',(-0.04,-0.06433,0.135));
#954=CARTESIAN_POINT('',(-0.04,-0.04933,0.135));
#955=CARTESIAN_POINT('',(0.03,-0.125,0.135));
#956=CARTESIAN_POINT('',(-0.03,-0.125,0.135));
#957=CARTESIAN_POINT('',(0.0375,-0.075,0.0775));
#958=CARTESIAN_POINT('',(0.05,-0.06433,0.145));
#959=CARTESIAN_POINT('',(0.04,-0.06433,0.155));
#960=CARTESIAN_POINT('',(0.05,-0.06433,0.145));
#961=CARTESIAN_POINT('',(0.05,-0.075,0.0775));
#962=CARTESIAN_POINT('',(0.025,-0.075,0.0775));
#963=CARTESIAN_POINT('',(0.025,-0.04933,0.135));
#964=CARTESIAN_POINT('',(0.025,-0.035,0.145));
#965=CARTESIAN_POINT('',(0.03,-0.075,0.0775));
#966=CARTESIAN_POINT('',(0.03,-0.04,0.095));
#967=CARTESIAN_POINT('',(0.04,-0.04933,0.0775));
#968=CARTESIAN_POINT('',(-3.49024337756995E-18,-0.03,0.05));
#969=CARTESIAN_POINT('',(-3.49024337756995E-18,-0.03,0.055));
#970=CARTESIAN_POINT('',(-3.49024337756995E-18,-0.04,0.055));
#971=CARTESIAN_POINT('',(0.015,-0.06925,0.05));
#972=CARTESIAN_POINT('',(0.015,-0.04,0.095));
#973=CARTESIAN_POINT('',(0.015,-0.03,0.05));
#974=CARTESIAN_POINT('',(-8.09910833696687E-18,-0.03,0.05));
#975=CARTESIAN_POINT('',(-0.015,-0.03,0.05));
#976=CARTESIAN_POINT('',(-3.18408167778311E-18,-0.03,0.055));
#977=CARTESIAN_POINT('',(-3.18408167778311E-18,-0.045,0.055));
#978=CARTESIAN_POINT('',(0.0075,-0.06175,0.055));
#979=CARTESIAN_POINT('',(0.0375,-0.04,0.095));
#980=CARTESIAN_POINT('',(-0.015,-0.04,0.095));
#981=CARTESIAN_POINT('',(-0.03,-0.04,0.095));
#982=CARTESIAN_POINT('',(0.0375,-0.035,0.145));
#983=CARTESIAN_POINT('',(-0.025,-0.035,0.145));
#984=CARTESIAN_POINT('',(-0.0375,-0.075,0.0775));
#985=CARTESIAN_POINT('',(-0.05,-0.06433,0.145));
#986=CARTESIAN_POINT('',(-0.05,-0.06433,0.145));
#987=CARTESIAN_POINT('',(-0.04,-0.06433,0.155));
#988=CARTESIAN_POINT('',(-0.05,-0.075,0.0775));
#989=CARTESIAN_POINT('',(-0.025,-0.075,0.0775));
#990=CARTESIAN_POINT('',(-0.025,-0.04933,0.135));
#991=CARTESIAN_POINT('',(-0.03,-0.075,0.0775));
#992=CARTESIAN_POINT('',(-0.04,-0.04933,0.0775));
#993=CARTESIAN_POINT('',(-0.015,-0.06925,0.05));
#994=MECHANICAL_DESIGN_GEOMETRIC_PRESENTATION_REPRESENTATION('',(#600),
#995);
#995=(
GEOMETRIC_REPRESENTATION_CONTEXT(3)
GLOBAL_UNCERTAINTY_ASSIGNED_CONTEXT((#996))
GLOBAL_UNIT_ASSIGNED_CONTEXT((#999,#998,#997))
REPRESENTATION_CONTEXT('Part 1','TOP_LEVEL_ASSEMBLY_PART')
);
#996=UNCERTAINTY_MEASURE_WITH_UNIT(LENGTH_MEASURE(1.E-8),#999,
'DISTANCE_ACCURACY_VALUE','Maximum Tolerance applied to model');
#997=(
NAMED_UNIT(*)
SI_UNIT($,.STERADIAN.)
SOLID_ANGLE_UNIT()
);
#998=(
NAMED_UNIT(*)
PLANE_ANGLE_UNIT()
SI_UNIT($,.RADIAN.)
);
#999=(
LENGTH_UNIT()
NAMED_UNIT(*)
SI_UNIT($,.METRE.)
);
#1000=PRODUCT_DEFINITION_SHAPE('','',#1001);
#1001=PRODUCT_DEFINITION('','',#1003,#1002);
#1002=PRODUCT_DEFINITION_CONTEXT('',#1009,'design');
#1003=PRODUCT_DEFINITION_FORMATION_WITH_SPECIFIED_SOURCE('','',#1005,
 .NOT_KNOWN.);
#1004=PRODUCT_RELATED_PRODUCT_CATEGORY('','',(#1005));
#1005=PRODUCT('Part 1','Part 1','Part 1',(#1007));
#1006=PRODUCT_CATEGORY('','');
#1007=PRODUCT_CONTEXT('',#1009,'mechanical');
#1008=APPLICATION_PROTOCOL_DEFINITION('international standard',
'ap242_managed_model_based_3d_engineering',2020,#1009);
#1009=APPLICATION_CONTEXT('managed model based 3d engineering');
ENDSEC;
END-ISO-10303-21;
