ISO-10303-21;
HEADER;
/* Generated by software containing ST-Developer
 * from STEP Tools, Inc. (www.steptools.com) 
 */
/* OPTION: using custom renumber hook */

FILE_DESCRIPTION(
/* description */ ('STEP AP242 Edition 2',
'CAx-IF Rec.Pracs.---Representation and Presentation of Product Manufa
cturing Information (PMI)---4.0---2014-10-13',
'CAx-IF Rec.Pracs.---3D Tessellated Geometry---0.4---2014-09-14','2;1',
'CAx-IF Rec.Pracs.---User Defined Attributes---1.5---2016-08-15'),
/* implementation_level */ '2;1');

FILE_NAME(
/* name */ 'Part Studio 1',
/* time_stamp */ '2026-06-20T18:08:57Z',
/* author */ (''),
/* organization */ (''),
/* preprocessor_version */ 'ST-DEVELOPER v20',
/* originating_system */ 'ONSHAPE BY PTC INC, 1.216',
/* authorisation */ '  ');

FILE_SCHEMA (('AP242_MANAGED_MODEL_BASED_3D_ENGINEERING_MIM_LF { 1 0 10303 442 3 1 4 }'));
ENDSEC;

DATA;
#10=SHAPE_REPRESENTATION_RELATIONSHIP('','',#212,#11);
#11=ADVANCED_BREP_SHAPE_REPRESENTATION('',(#210),#375);
#12=CYLINDRICAL_SURFACE('',#246,0.065);
#13=SPHERICAL_SURFACE('',#243,0.012);
#14=PLANE('',#239);
#15=PLANE('',#244);
#16=DEGENERATE_TOROIDAL_SURFACE('',#221,0.00365301005062412,0.03,.T.);
#17=DEGENERATE_TOROIDAL_SURFACE('',#237,0.00365301005062423,0.028,.T.);
#18=CONICAL_SURFACE('',#217,0.0102605829136978,0.0916961562598629);
#19=CONICAL_SURFACE('',#225,0.0318912220980328,1.48367156167648);
#20=CONICAL_SURFACE('',#227,0.0779129854164065,0.0871247651184126);
#21=CONICAL_SURFACE('',#229,0.078,1.48367156167648);
#22=CONICAL_SURFACE('',#231,0.0700303436972797,0.0871247651184139);
#23=CONICAL_SURFACE('',#233,0.0701173582808732,1.48367156167648);
#24=CONICAL_SURFACE('',#241,0.006,0.132188055036395);
#25=CONICAL_SURFACE('',#248,0.065,1.42635474842025);
#26=ORIENTED_EDGE('',*,*,#60,.T.);
#27=ORIENTED_EDGE('',*,*,#61,.F.);
#28=ORIENTED_EDGE('',*,*,#62,.F.);
#29=ORIENTED_EDGE('',*,*,#61,.T.);
#30=ORIENTED_EDGE('',*,*,#62,.T.);
#31=ORIENTED_EDGE('',*,*,#63,.F.);
#32=ORIENTED_EDGE('',*,*,#64,.F.);
#33=ORIENTED_EDGE('',*,*,#63,.T.);
#34=ORIENTED_EDGE('',*,*,#64,.T.);
#35=ORIENTED_EDGE('',*,*,#65,.F.);
#36=ORIENTED_EDGE('',*,*,#66,.F.);
#37=ORIENTED_EDGE('',*,*,#65,.T.);
#38=ORIENTED_EDGE('',*,*,#67,.F.);
#39=ORIENTED_EDGE('',*,*,#66,.T.);
#40=ORIENTED_EDGE('',*,*,#68,.F.);
#41=ORIENTED_EDGE('',*,*,#67,.T.);
#42=ORIENTED_EDGE('',*,*,#69,.F.);
#43=ORIENTED_EDGE('',*,*,#68,.T.);
#44=ORIENTED_EDGE('',*,*,#70,.F.);
#45=ORIENTED_EDGE('',*,*,#69,.T.);
#46=ORIENTED_EDGE('',*,*,#71,.F.);
#47=ORIENTED_EDGE('',*,*,#70,.T.);
#48=ORIENTED_EDGE('',*,*,#71,.T.);
#49=ORIENTED_EDGE('',*,*,#72,.F.);
#50=ORIENTED_EDGE('',*,*,#72,.T.);
#51=ORIENTED_EDGE('',*,*,#73,.F.);
#52=ORIENTED_EDGE('',*,*,#74,.F.);
#53=ORIENTED_EDGE('',*,*,#73,.T.);
#54=ORIENTED_EDGE('',*,*,#74,.T.);
#55=ORIENTED_EDGE('',*,*,#75,.F.);
#56=ORIENTED_EDGE('',*,*,#76,.F.);
#57=ORIENTED_EDGE('',*,*,#75,.T.);
#58=ORIENTED_EDGE('',*,*,#60,.F.);
#59=ORIENTED_EDGE('',*,*,#76,.T.);
#60=EDGE_CURVE('',#77,#77,#94,.T.);
#61=EDGE_CURVE('',#78,#78,#95,.T.);
#62=EDGE_CURVE('',#79,#79,#96,.T.);
#63=EDGE_CURVE('',#80,#80,#97,.T.);
#64=EDGE_CURVE('',#81,#81,#98,.T.);
#65=EDGE_CURVE('',#82,#82,#99,.T.);
#66=EDGE_CURVE('',#83,#83,#100,.T.);
#67=EDGE_CURVE('',#84,#84,#101,.T.);
#68=EDGE_CURVE('',#85,#85,#102,.T.);
#69=EDGE_CURVE('',#86,#86,#103,.T.);
#70=EDGE_CURVE('',#87,#87,#104,.T.);
#71=EDGE_CURVE('',#88,#88,#105,.T.);
#72=EDGE_CURVE('',#89,#89,#106,.T.);
#73=EDGE_CURVE('',#90,#90,#107,.T.);
#74=EDGE_CURVE('',#91,#91,#108,.T.);
#75=EDGE_CURVE('',#92,#92,#109,.T.);
#76=EDGE_CURVE('',#93,#93,#110,.T.);
#77=VERTEX_POINT('',#324);
#78=VERTEX_POINT('',#326);
#79=VERTEX_POINT('',#329);
#80=VERTEX_POINT('',#332);
#81=VERTEX_POINT('',#335);
#82=VERTEX_POINT('',#338);
#83=VERTEX_POINT('',#341);
#84=VERTEX_POINT('',#344);
#85=VERTEX_POINT('',#347);
#86=VERTEX_POINT('',#350);
#87=VERTEX_POINT('',#353);
#88=VERTEX_POINT('',#356);
#89=VERTEX_POINT('',#359);
#90=VERTEX_POINT('',#362);
#91=VERTEX_POINT('',#365);
#92=VERTEX_POINT('',#369);
#93=VERTEX_POINT('',#372);
#94=CIRCLE('',#215,0.0128161599336668);
#95=CIRCLE('',#216,0.0102605829136978);
#96=CIRCLE('',#218,0.0178578244749344);
#97=CIRCLE('',#220,0.0192822927610075);
#98=CIRCLE('',#222,0.029086799411195);
#99=CIRCLE('',#224,0.0318912220980328);
#100=CIRCLE('',#226,0.0779129854164065);
#101=CIRCLE('',#228,0.078);
#102=CIRCLE('',#230,0.0700303436972797);
#103=CIRCLE('',#232,0.0701173582808732);
#104=CIRCLE('',#234,0.0308186153566804);
#105=CIRCLE('',#236,0.027953904358615);
#106=CIRCLE('',#238,0.0131312018933487);
#107=CIRCLE('',#240,0.006);
#108=CIRCLE('',#242,0.00974679434480897);
#109=CIRCLE('',#245,0.065);
#110=CIRCLE('',#247,0.065);
#111=EDGE_LOOP('',(#26));
#112=EDGE_LOOP('',(#27));
#113=EDGE_LOOP('',(#28));
#114=EDGE_LOOP('',(#29));
#115=EDGE_LOOP('',(#30));
#116=EDGE_LOOP('',(#31));
#117=EDGE_LOOP('',(#32));
#118=EDGE_LOOP('',(#33));
#119=EDGE_LOOP('',(#34));
#120=EDGE_LOOP('',(#35));
#121=EDGE_LOOP('',(#36));
#122=EDGE_LOOP('',(#37));
#123=EDGE_LOOP('',(#38));
#124=EDGE_LOOP('',(#39));
#125=EDGE_LOOP('',(#40));
#126=EDGE_LOOP('',(#41));
#127=EDGE_LOOP('',(#42));
#128=EDGE_LOOP('',(#43));
#129=EDGE_LOOP('',(#44));
#130=EDGE_LOOP('',(#45));
#131=EDGE_LOOP('',(#46));
#132=EDGE_LOOP('',(#47));
#133=EDGE_LOOP('',(#48));
#134=EDGE_LOOP('',(#49));
#135=EDGE_LOOP('',(#50));
#136=EDGE_LOOP('',(#51));
#137=EDGE_LOOP('',(#52));
#138=EDGE_LOOP('',(#53));
#139=EDGE_LOOP('',(#54));
#140=EDGE_LOOP('',(#55));
#141=EDGE_LOOP('',(#56));
#142=EDGE_LOOP('',(#57));
#143=EDGE_LOOP('',(#58));
#144=EDGE_LOOP('',(#59));
#145=FACE_BOUND('',#111,.T.);
#146=FACE_BOUND('',#112,.T.);
#147=FACE_BOUND('',#113,.T.);
#148=FACE_BOUND('',#114,.T.);
#149=FACE_BOUND('',#115,.T.);
#150=FACE_BOUND('',#116,.T.);
#151=FACE_BOUND('',#117,.T.);
#152=FACE_BOUND('',#118,.T.);
#153=FACE_BOUND('',#119,.T.);
#154=FACE_BOUND('',#120,.T.);
#155=FACE_BOUND('',#121,.T.);
#156=FACE_BOUND('',#122,.T.);
#157=FACE_BOUND('',#123,.T.);
#158=FACE_BOUND('',#124,.T.);
#159=FACE_BOUND('',#125,.T.);
#160=FACE_BOUND('',#126,.T.);
#161=FACE_BOUND('',#127,.T.);
#162=FACE_BOUND('',#128,.T.);
#163=FACE_BOUND('',#129,.T.);
#164=FACE_BOUND('',#130,.T.);
#165=FACE_BOUND('',#131,.T.);
#166=FACE_BOUND('',#132,.T.);
#167=FACE_BOUND('',#133,.T.);
#168=FACE_BOUND('',#134,.T.);
#169=FACE_BOUND('',#135,.T.);
#170=FACE_BOUND('',#136,.T.);
#171=FACE_BOUND('',#137,.T.);
#172=FACE_BOUND('',#138,.T.);
#173=FACE_BOUND('',#139,.T.);
#174=FACE_BOUND('',#140,.T.);
#175=FACE_BOUND('',#141,.T.);
#176=FACE_BOUND('',#142,.T.);
#177=FACE_BOUND('',#143,.T.);
#178=FACE_BOUND('',#144,.T.);
#179=TOROIDAL_SURFACE('',#214,0.0132479794708091,0.003);
#180=TOROIDAL_SURFACE('',#219,0.0208452210320457,0.003);
#181=TOROIDAL_SURFACE('',#223,0.0316301783472521,0.003);
#182=TOROIDAL_SURFACE('',#235,0.0305575716058998,0.003);
#183=ADVANCED_FACE('',(#145,#146),#179,.F.);
#184=ADVANCED_FACE('',(#147,#148),#18,.T.);
#185=ADVANCED_FACE('',(#149,#150),#180,.F.);
#186=ADVANCED_FACE('',(#151,#152),#16,.T.);
#187=ADVANCED_FACE('',(#153,#154),#181,.F.);
#188=ADVANCED_FACE('',(#155,#156),#19,.F.);
#189=ADVANCED_FACE('',(#157,#158),#20,.T.);
#190=ADVANCED_FACE('',(#159,#160),#21,.T.);
#191=ADVANCED_FACE('',(#161,#162),#22,.T.);
#192=ADVANCED_FACE('',(#163,#164),#23,.T.);
#193=ADVANCED_FACE('',(#165,#166),#182,.T.);
#194=ADVANCED_FACE('',(#167,#168),#17,.F.);
#195=ADVANCED_FACE('',(#169,#170),#14,.T.);
#196=ADVANCED_FACE('',(#171,#172),#24,.T.);
#197=ADVANCED_FACE('',(#173),#13,.T.);
#198=ADVANCED_FACE('',(#174),#15,.F.);
#199=ADVANCED_FACE('',(#175,#176),#12,.T.);
#200=ADVANCED_FACE('',(#177,#178),#25,.T.);
#201=CLOSED_SHELL('',(#183,#184,#185,#186,#187,#188,#189,#190,#191,#192,
#193,#194,#195,#196,#197,#198,#199,#200));
#202=STYLED_ITEM('',(#203),#210);
#203=PRESENTATION_STYLE_ASSIGNMENT((#204));
#204=SURFACE_STYLE_USAGE(.BOTH.,#205);
#205=SURFACE_SIDE_STYLE('',(#206));
#206=SURFACE_STYLE_FILL_AREA(#207);
#207=FILL_AREA_STYLE('',(#208));
#208=FILL_AREA_STYLE_COLOUR('',#209);
#209=COLOUR_RGB('',0.615686274509804,0.811764705882353,0.929411764705882);
#210=MANIFOLD_SOLID_BREP('Part 1',#201);
#211=SHAPE_DEFINITION_REPRESENTATION(#380,#212);
#212=SHAPE_REPRESENTATION('Part 1',(#213),#375);
#213=AXIS2_PLACEMENT_3D('',#321,#249,#250);
#214=AXIS2_PLACEMENT_3D('',#322,#251,#252);
#215=AXIS2_PLACEMENT_3D('',#323,#253,#254);
#216=AXIS2_PLACEMENT_3D('',#325,#255,#256);
#217=AXIS2_PLACEMENT_3D('',#327,#257,#258);
#218=AXIS2_PLACEMENT_3D('',#328,#259,#260);
#219=AXIS2_PLACEMENT_3D('',#330,#261,#262);
#220=AXIS2_PLACEMENT_3D('',#331,#263,#264);
#221=AXIS2_PLACEMENT_3D('',#333,#265,#266);
#222=AXIS2_PLACEMENT_3D('',#334,#267,#268);
#223=AXIS2_PLACEMENT_3D('',#336,#269,#270);
#224=AXIS2_PLACEMENT_3D('',#337,#271,#272);
#225=AXIS2_PLACEMENT_3D('',#339,#273,#274);
#226=AXIS2_PLACEMENT_3D('',#340,#275,#276);
#227=AXIS2_PLACEMENT_3D('',#342,#277,#278);
#228=AXIS2_PLACEMENT_3D('',#343,#279,#280);
#229=AXIS2_PLACEMENT_3D('',#345,#281,#282);
#230=AXIS2_PLACEMENT_3D('',#346,#283,#284);
#231=AXIS2_PLACEMENT_3D('',#348,#285,#286);
#232=AXIS2_PLACEMENT_3D('',#349,#287,#288);
#233=AXIS2_PLACEMENT_3D('',#351,#289,#290);
#234=AXIS2_PLACEMENT_3D('',#352,#291,#292);
#235=AXIS2_PLACEMENT_3D('',#354,#293,#294);
#236=AXIS2_PLACEMENT_3D('',#355,#295,#296);
#237=AXIS2_PLACEMENT_3D('',#357,#297,#298);
#238=AXIS2_PLACEMENT_3D('',#358,#299,#300);
#239=AXIS2_PLACEMENT_3D('',#360,#301,#302);
#240=AXIS2_PLACEMENT_3D('',#361,#303,#304);
#241=AXIS2_PLACEMENT_3D('',#363,#305,#306);
#242=AXIS2_PLACEMENT_3D('',#364,#307,#308);
#243=AXIS2_PLACEMENT_3D('',#366,#309,#310);
#244=AXIS2_PLACEMENT_3D('',#367,#311,#312);
#245=AXIS2_PLACEMENT_3D('',#368,#313,#314);
#246=AXIS2_PLACEMENT_3D('',#370,#315,#316);
#247=AXIS2_PLACEMENT_3D('',#371,#317,#318);
#248=AXIS2_PLACEMENT_3D('',#373,#319,#320);
#249=DIRECTION('',(0.,0.,1.));
#250=DIRECTION('',(1.,0.,0.));
#251=DIRECTION('',(0.,0.,1.));
#252=DIRECTION('',(1.,0.,0.));
#253=DIRECTION('',(0.,0.,1.));
#254=DIRECTION('',(1.,0.,0.));
#255=DIRECTION('',(0.,0.,1.));
#256=DIRECTION('',(1.,0.,0.));
#257=DIRECTION('',(0.,0.,1.));
#258=DIRECTION('',(1.,0.,0.));
#259=DIRECTION('',(0.,0.,1.));
#260=DIRECTION('',(1.,0.,0.));
#261=DIRECTION('',(0.,0.,1.));
#262=DIRECTION('',(1.,0.,0.));
#263=DIRECTION('',(0.,0.,1.));
#264=DIRECTION('',(1.,0.,0.));
#265=DIRECTION('',(0.,0.,1.));
#266=DIRECTION('',(1.,0.,0.));
#267=DIRECTION('',(0.,0.,1.));
#268=DIRECTION('',(1.,0.,0.));
#269=DIRECTION('',(0.,0.,1.));
#270=DIRECTION('',(1.,0.,0.));
#271=DIRECTION('',(0.,0.,1.));
#272=DIRECTION('',(1.,0.,0.));
#273=DIRECTION('',(0.,0.,-1.));
#274=DIRECTION('',(-1.,0.,0.));
#275=DIRECTION('',(0.,0.,1.));
#276=DIRECTION('',(1.,0.,0.));
#277=DIRECTION('',(0.,0.,1.));
#278=DIRECTION('',(1.,0.,0.));
#279=DIRECTION('',(0.,0.,1.));
#280=DIRECTION('',(1.,0.,0.));
#281=DIRECTION('',(0.,0.,-1.));
#282=DIRECTION('',(-1.,0.,0.));
#283=DIRECTION('',(0.,0.,1.));
#284=DIRECTION('',(1.,0.,0.));
#285=DIRECTION('',(0.,0.,1.));
#286=DIRECTION('',(1.,0.,0.));
#287=DIRECTION('',(0.,0.,1.));
#288=DIRECTION('',(1.,0.,0.));
#289=DIRECTION('',(0.,0.,-1.));
#290=DIRECTION('',(-1.,0.,0.));
#291=DIRECTION('',(0.,0.,1.));
#292=DIRECTION('',(1.,0.,0.));
#293=DIRECTION('',(0.,0.,1.));
#294=DIRECTION('',(1.,0.,0.));
#295=DIRECTION('',(0.,0.,1.));
#296=DIRECTION('',(1.,0.,0.));
#297=DIRECTION('',(0.,0.,1.));
#298=DIRECTION('',(1.,0.,0.));
#299=DIRECTION('',(0.,0.,1.));
#300=DIRECTION('',(1.,0.,0.));
#301=DIRECTION('',(0.,0.,1.));
#302=DIRECTION('',(1.,0.,0.));
#303=DIRECTION('',(0.,0.,1.));
#304=DIRECTION('',(1.,0.,0.));
#305=DIRECTION('',(0.,0.,1.));
#306=DIRECTION('',(1.,0.,0.));
#307=DIRECTION('',(0.,0.,1.));
#308=DIRECTION('',(1.,0.,0.));
#309=DIRECTION('',(0.,0.,1.));
#310=DIRECTION('',(1.,0.,0.));
#311=DIRECTION('',(0.,0.,1.));
#312=DIRECTION('',(1.,0.,0.));
#313=DIRECTION('',(0.,0.,1.));
#314=DIRECTION('',(1.,0.,0.));
#315=DIRECTION('',(0.,0.,1.));
#316=DIRECTION('',(1.,0.,0.));
#317=DIRECTION('',(0.,0.,1.));
#318=DIRECTION('',(1.,0.,0.));
#319=DIRECTION('',(0.,0.,-1.));
#320=DIRECTION('',(-1.,0.,0.));
#321=CARTESIAN_POINT('',(0.,0.,0.));
#322=CARTESIAN_POINT('',(0.,0.,0.0155591360547748));
#323=CARTESIAN_POINT('',(0.,0.,0.0125903767369212));
#324=CARTESIAN_POINT('',(0.0128161599336668,0.,0.0125903767369212));
#325=CARTESIAN_POINT('',(0.,0.,0.0158338391864631));
#326=CARTESIAN_POINT('',(0.0102605829136978,0.,0.0158338391864631));
#327=CARTESIAN_POINT('',(0.,0.,0.0158338391864631));
#328=CARTESIAN_POINT('',(0.,0.,0.0984538411649118));
#329=CARTESIAN_POINT('',(0.0178578244749344,0.,0.0984538411649118));
#330=CARTESIAN_POINT('',(0.,0.,0.0981791380332235));
#331=CARTESIAN_POINT('',(0.,0.,0.100739851843783));
#332=CARTESIAN_POINT('',(0.0192822927610075,0.,0.100739851843783));
#333=CARTESIAN_POINT('',(0.,0.,0.126346989949376));
#334=CARTESIAN_POINT('',(0.,0.,0.110437170378994));
#335=CARTESIAN_POINT('',(0.029086799411195,0.,0.110437170378994));
#336=CARTESIAN_POINT('',(0.,0.,0.108846188421955));
#337=CARTESIAN_POINT('',(0.,0.,0.111834809535476));
#338=CARTESIAN_POINT('',(0.0318912220980328,0.,0.111834809535476));
#339=CARTESIAN_POINT('',(0.,0.,0.111834809535476));
#340=CARTESIAN_POINT('',(0.,0.,0.107814997970932));
#341=CARTESIAN_POINT('',(0.0779129854164065,0.,0.107814997970932));
#342=CARTESIAN_POINT('',(0.,0.,0.107814997970932));
#343=CARTESIAN_POINT('',(0.,0.,0.108811205008772));
#344=CARTESIAN_POINT('',(0.078,0.,0.108811205008772));
#345=CARTESIAN_POINT('',(0.,0.,0.108811205008772));
#346=CARTESIAN_POINT('',(0.,0.,0.10950732167752));
#347=CARTESIAN_POINT('',(0.0700303436972797,0.,0.10950732167752));
#348=CARTESIAN_POINT('',(0.,0.,0.10950732167752));
#349=CARTESIAN_POINT('',(0.,0.,0.11050352871536));
#350=CARTESIAN_POINT('',(0.0701173582808732,0.,0.11050352871536));
#351=CARTESIAN_POINT('',(0.,0.,0.11050352871536));
#352=CARTESIAN_POINT('',(0.,0.,0.113936112125645));
#353=CARTESIAN_POINT('',(0.0308186153566804,0.,0.113936112125645));
#354=CARTESIAN_POINT('',(0.,0.,0.110947491012125));
#355=CARTESIAN_POINT('',(0.,0.,0.112437765102827));
#356=CARTESIAN_POINT('',(0.027953904358615,0.,0.112437765102827));
#357=CARTESIAN_POINT('',(0.,0.,0.126346989949376));
#358=CARTESIAN_POINT('',(0.,0.,0.1));
#359=CARTESIAN_POINT('',(0.0131312018933487,0.,0.1));
#360=CARTESIAN_POINT('',(0.00956560094667437,0.,0.1));
#361=CARTESIAN_POINT('',(0.,0.,0.1));
#362=CARTESIAN_POINT('',(0.006,0.,0.1));
#363=CARTESIAN_POINT('',(0.,0.,0.1));
#364=CARTESIAN_POINT('',(0.,0.,0.128179138033223));
#365=CARTESIAN_POINT('',(0.00974679434480897,0.,0.128179138033223));
#366=CARTESIAN_POINT('',(-1.66871824064536E-18,0.,0.135179138033223));
#367=CARTESIAN_POINT('',(0.0325,0.,0.));
#368=CARTESIAN_POINT('',(0.,0.,0.));
#369=CARTESIAN_POINT('',(0.065,0.,0.));
#370=CARTESIAN_POINT('',(0.,0.,0.));
#371=CARTESIAN_POINT('',(0.,0.,0.005));
#372=CARTESIAN_POINT('',(0.065,0.,0.005));
#373=CARTESIAN_POINT('',(0.,0.,0.005));
#374=MECHANICAL_DESIGN_GEOMETRIC_PRESENTATION_REPRESENTATION('',(#202),
#375);
#375=(
GEOMETRIC_REPRESENTATION_CONTEXT(3)
GLOBAL_UNCERTAINTY_ASSIGNED_CONTEXT((#376))
GLOBAL_UNIT_ASSIGNED_CONTEXT((#379,#378,#377))
REPRESENTATION_CONTEXT('Part 1','TOP_LEVEL_ASSEMBLY_PART')
);
#376=UNCERTAINTY_MEASURE_WITH_UNIT(LENGTH_MEASURE(1.E-8),#379,
'DISTANCE_ACCURACY_VALUE','Maximum Tolerance applied to model');
#377=(
NAMED_UNIT(*)
SI_UNIT($,.STERADIAN.)
SOLID_ANGLE_UNIT()
);
#378=(
NAMED_UNIT(*)
PLANE_ANGLE_UNIT()
SI_UNIT($,.RADIAN.)
);
#379=(
LENGTH_UNIT()
NAMED_UNIT(*)
SI_UNIT($,.METRE.)
);
#380=PRODUCT_DEFINITION_SHAPE('','',#381);
#381=PRODUCT_DEFINITION('','',#383,#382);
#382=PRODUCT_DEFINITION_CONTEXT('',#389,'design');
#383=PRODUCT_DEFINITION_FORMATION_WITH_SPECIFIED_SOURCE('','',#385,
 .NOT_KNOWN.);
#384=PRODUCT_RELATED_PRODUCT_CATEGORY('','',(#385));
#385=PRODUCT('Part 1','Part 1','Part 1',(#387));
#386=PRODUCT_CATEGORY('','');
#387=PRODUCT_CONTEXT('',#389,'mechanical');
#388=APPLICATION_PROTOCOL_DEFINITION('international standard',
'ap242_managed_model_based_3d_engineering',2020,#389);
#389=APPLICATION_CONTEXT('managed model based 3d engineering');
ENDSEC;
END-ISO-10303-21;
