ISO-10303-21;
HEADER;
/* Generated by software containing ST-Developer
 * from STEP Tools, Inc. (www.steptools.com) 
 */
/* OPTION: using custom renumber hook */

FILE_DESCRIPTION(
/* description */ ('STEP AP242 Edition 2',
'CAx-IF Rec.Pracs.---Representation and Presentation of Product Manufa
cturing Information (PMI)---4.0---2014-10-13',
'CAx-IF Rec.Pracs.---3D Tessellated Geometry---0.4---2014-09-14','2;1',
'CAx-IF Rec.Pracs.---User Defined Attributes---1.5---2016-08-15'),
/* implementation_level */ '2;1');

FILE_NAME(
/* name */ 'Part Studio 1',
/* time_stamp */ '2026-06-22T16:55:07Z',
/* author */ (''),
/* organization */ (''),
/* preprocessor_version */ 'ST-DEVELOPER v20',
/* originating_system */ 'ONSHAPE BY PTC INC, 1.216',
/* authorisation */ '  ');

FILE_SCHEMA (('AP242_MANAGED_MODEL_BASED_3D_ENGINEERING_MIM_LF { 1 0 10303 442 3 1 4 }'));
ENDSEC;

DATA;
#10=SHAPE_REPRESENTATION_RELATIONSHIP('','',#744,#11);
#11=ADVANCED_BREP_SHAPE_REPRESENTATION('',(#742),#1278);
#12=TOROIDAL_SURFACE('',#826,0.026,0.005);
#13=B_SPLINE_CURVE_WITH_KNOTS('',3,(#1177,#1178,#1179,#1180,#1181,#1182,
#1183,#1184,#1185,#1186,#1187,#1188,#1189,#1190,#1191,#1192,#1193,#1194,
#1195),.UNSPECIFIED.,.T.,.F.,(1,1,1,1,1,1,1,1,1,1,1,1,1,1,1,1,1,1,1,1,1,
1,1),(-0.00713268499241117,-0.00475512332827412,-0.00237756166413706,1.52323222039191E-19,
0.00237756166413706,0.00475512332827412,0.00713268499241118,0.00951024665654824,
0.0118878083206853,0.0142653699848224,0.0166429316489594,0.0190204933130965,
0.0213980549772335,0.0237756166413706,0.0261531783055076,0.0285307399696447,
0.0309083016337818,0.0332858632979188,0.0356634249620559,0.0380409866261929,
0.04041854829033,0.0427961099544671,0.0451736716186041),.UNSPECIFIED.);
#14=B_SPLINE_CURVE_WITH_KNOTS('',3,(#1197,#1198,#1199,#1200,#1201,#1202,
#1203,#1204,#1205,#1206,#1207,#1208,#1209,#1210,#1211,#1212,#1213,#1214,
#1215),.UNSPECIFIED.,.T.,.F.,(1,1,1,1,1,1,1,1,1,1,1,1,1,1,1,1,1,1,1,1,1,
1,1),(-0.00713268499241118,-0.00475512332827412,-0.00237756166413707,5.15237640542827E-19,
0.00237756166413706,0.00475512332827412,0.00713268499241118,0.00951024665654825,
0.0118878083206853,0.0142653699848224,0.0166429316489594,0.0190204933130965,
0.0213980549772336,0.0237756166413706,0.0261531783055077,0.0285307399696447,
0.0309083016337818,0.0332858632979189,0.0356634249620559,0.038040986626193,
0.0404185482903301,0.0427961099544671,0.0451736716186042),.UNSPECIFIED.);
#15=CYLINDRICAL_SURFACE('',#753,0.02);
#16=CYLINDRICAL_SURFACE('',#757,0.02);
#17=CYLINDRICAL_SURFACE('',#761,0.02);
#18=CYLINDRICAL_SURFACE('',#765,0.01);
#19=CYLINDRICAL_SURFACE('',#768,0.01);
#20=CYLINDRICAL_SURFACE('',#771,0.01);
#21=CYLINDRICAL_SURFACE('',#774,0.01);
#22=CYLINDRICAL_SURFACE('',#777,0.02);
#23=CYLINDRICAL_SURFACE('',#787,0.005);
#24=CYLINDRICAL_SURFACE('',#790,0.005);
#25=CYLINDRICAL_SURFACE('',#793,0.005);
#26=CYLINDRICAL_SURFACE('',#796,0.005);
#27=CYLINDRICAL_SURFACE('',#799,0.013);
#28=CYLINDRICAL_SURFACE('',#801,0.021);
#29=CYLINDRICAL_SURFACE('',#816,0.005);
#30=CYLINDRICAL_SURFACE('',#817,0.005);
#31=CYLINDRICAL_SURFACE('',#824,0.006);
#32=CYLINDRICAL_SURFACE('',#825,0.006);
#33=CIRCLE('',#748,0.021);
#34=CIRCLE('',#750,0.013);
#35=CIRCLE('',#751,0.021);
#36=CIRCLE('',#754,0.02);
#37=CIRCLE('',#755,0.02);
#38=CIRCLE('',#758,0.02);
#39=CIRCLE('',#759,0.02);
#40=CIRCLE('',#762,0.02);
#41=CIRCLE('',#763,0.02);
#42=CIRCLE('',#766,0.01);
#43=CIRCLE('',#767,0.01);
#44=CIRCLE('',#769,0.01);
#45=CIRCLE('',#770,0.01);
#46=CIRCLE('',#772,0.01);
#47=CIRCLE('',#773,0.01);
#48=CIRCLE('',#775,0.01);
#49=CIRCLE('',#776,0.01);
#50=CIRCLE('',#778,0.02);
#51=CIRCLE('',#779,0.02);
#52=CIRCLE('',#781,0.026);
#53=CIRCLE('',#783,0.005);
#54=CIRCLE('',#784,0.005);
#55=CIRCLE('',#785,0.005);
#56=CIRCLE('',#786,0.005);
#57=CIRCLE('',#788,0.005);
#58=CIRCLE('',#791,0.005);
#59=CIRCLE('',#794,0.005);
#60=CIRCLE('',#797,0.005);
#61=CIRCLE('',#800,0.013);
#62=CIRCLE('',#802,0.021);
#63=CIRCLE('',#803,0.021);
#64=CIRCLE('',#807,0.005);
#65=CIRCLE('',#808,0.005);
#66=CIRCLE('',#812,0.005);
#67=CIRCLE('',#813,0.005);
#68=CIRCLE('',#822,0.006);
#69=CIRCLE('',#823,0.006);
#70=ORIENTED_EDGE('',*,*,#246,.T.);
#71=ORIENTED_EDGE('',*,*,#247,.T.);
#72=ORIENTED_EDGE('',*,*,#248,.F.);
#73=ORIENTED_EDGE('',*,*,#249,.T.);
#74=ORIENTED_EDGE('',*,*,#250,.F.);
#75=ORIENTED_EDGE('',*,*,#251,.T.);
#76=ORIENTED_EDGE('',*,*,#246,.F.);
#77=ORIENTED_EDGE('',*,*,#252,.T.);
#78=ORIENTED_EDGE('',*,*,#253,.T.);
#79=ORIENTED_EDGE('',*,*,#254,.F.);
#80=ORIENTED_EDGE('',*,*,#248,.T.);
#81=ORIENTED_EDGE('',*,*,#255,.F.);
#82=ORIENTED_EDGE('',*,*,#256,.T.);
#83=ORIENTED_EDGE('',*,*,#257,.T.);
#84=ORIENTED_EDGE('',*,*,#258,.T.);
#85=ORIENTED_EDGE('',*,*,#259,.F.);
#86=ORIENTED_EDGE('',*,*,#260,.T.);
#87=ORIENTED_EDGE('',*,*,#261,.F.);
#88=ORIENTED_EDGE('',*,*,#262,.T.);
#89=ORIENTED_EDGE('',*,*,#263,.T.);
#90=ORIENTED_EDGE('',*,*,#264,.F.);
#91=ORIENTED_EDGE('',*,*,#265,.F.);
#92=ORIENTED_EDGE('',*,*,#266,.F.);
#93=ORIENTED_EDGE('',*,*,#267,.T.);
#94=ORIENTED_EDGE('',*,*,#268,.T.);
#95=ORIENTED_EDGE('',*,*,#269,.T.);
#96=ORIENTED_EDGE('',*,*,#270,.F.);
#97=ORIENTED_EDGE('',*,*,#271,.F.);
#98=ORIENTED_EDGE('',*,*,#266,.T.);
#99=ORIENTED_EDGE('',*,*,#272,.F.);
#100=ORIENTED_EDGE('',*,*,#273,.F.);
#101=ORIENTED_EDGE('',*,*,#274,.T.);
#102=ORIENTED_EDGE('',*,*,#270,.T.);
#103=ORIENTED_EDGE('',*,*,#275,.F.);
#104=ORIENTED_EDGE('',*,*,#276,.F.);
#105=ORIENTED_EDGE('',*,*,#277,.T.);
#106=ORIENTED_EDGE('',*,*,#273,.T.);
#107=ORIENTED_EDGE('',*,*,#278,.F.);
#108=ORIENTED_EDGE('',*,*,#279,.F.);
#109=ORIENTED_EDGE('',*,*,#280,.T.);
#110=ORIENTED_EDGE('',*,*,#276,.T.);
#111=ORIENTED_EDGE('',*,*,#281,.T.);
#112=ORIENTED_EDGE('',*,*,#282,.F.);
#113=ORIENTED_EDGE('',*,*,#283,.F.);
#114=ORIENTED_EDGE('',*,*,#279,.T.);
#115=ORIENTED_EDGE('',*,*,#284,.F.);
#116=ORIENTED_EDGE('',*,*,#285,.F.);
#117=ORIENTED_EDGE('',*,*,#286,.T.);
#118=ORIENTED_EDGE('',*,*,#282,.T.);
#119=ORIENTED_EDGE('',*,*,#287,.F.);
#120=ORIENTED_EDGE('',*,*,#288,.T.);
#121=ORIENTED_EDGE('',*,*,#289,.T.);
#122=ORIENTED_EDGE('',*,*,#290,.F.);
#123=ORIENTED_EDGE('',*,*,#291,.F.);
#124=ORIENTED_EDGE('',*,*,#292,.T.);
#125=ORIENTED_EDGE('',*,*,#293,.T.);
#126=ORIENTED_EDGE('',*,*,#294,.F.);
#127=ORIENTED_EDGE('',*,*,#295,.F.);
#128=ORIENTED_EDGE('',*,*,#268,.F.);
#129=ORIENTED_EDGE('',*,*,#296,.T.);
#130=ORIENTED_EDGE('',*,*,#285,.T.);
#131=ORIENTED_EDGE('',*,*,#297,.T.);
#132=ORIENTED_EDGE('',*,*,#294,.T.);
#133=ORIENTED_EDGE('',*,*,#292,.F.);
#134=ORIENTED_EDGE('',*,*,#290,.T.);
#135=ORIENTED_EDGE('',*,*,#288,.F.);
#136=ORIENTED_EDGE('',*,*,#267,.F.);
#137=ORIENTED_EDGE('',*,*,#271,.T.);
#138=ORIENTED_EDGE('',*,*,#274,.F.);
#139=ORIENTED_EDGE('',*,*,#277,.F.);
#140=ORIENTED_EDGE('',*,*,#280,.F.);
#141=ORIENTED_EDGE('',*,*,#283,.T.);
#142=ORIENTED_EDGE('',*,*,#286,.F.);
#143=ORIENTED_EDGE('',*,*,#296,.F.);
#144=ORIENTED_EDGE('',*,*,#265,.T.);
#145=ORIENTED_EDGE('',*,*,#295,.T.);
#146=ORIENTED_EDGE('',*,*,#284,.T.);
#147=ORIENTED_EDGE('',*,*,#281,.F.);
#148=ORIENTED_EDGE('',*,*,#278,.T.);
#149=ORIENTED_EDGE('',*,*,#275,.T.);
#150=ORIENTED_EDGE('',*,*,#272,.T.);
#151=ORIENTED_EDGE('',*,*,#269,.F.);
#152=ORIENTED_EDGE('',*,*,#298,.F.);
#153=ORIENTED_EDGE('',*,*,#299,.T.);
#154=ORIENTED_EDGE('',*,*,#300,.F.);
#155=ORIENTED_EDGE('',*,*,#301,.T.);
#156=ORIENTED_EDGE('',*,*,#302,.F.);
#157=ORIENTED_EDGE('',*,*,#298,.T.);
#158=ORIENTED_EDGE('',*,*,#293,.F.);
#159=ORIENTED_EDGE('',*,*,#302,.T.);
#160=ORIENTED_EDGE('',*,*,#303,.T.);
#161=ORIENTED_EDGE('',*,*,#299,.F.);
#162=ORIENTED_EDGE('',*,*,#303,.F.);
#163=ORIENTED_EDGE('',*,*,#291,.T.);
#164=ORIENTED_EDGE('',*,*,#304,.F.);
#165=ORIENTED_EDGE('',*,*,#300,.T.);
#166=ORIENTED_EDGE('',*,*,#289,.F.);
#167=ORIENTED_EDGE('',*,*,#304,.T.);
#168=ORIENTED_EDGE('',*,*,#305,.T.);
#169=ORIENTED_EDGE('',*,*,#301,.F.);
#170=ORIENTED_EDGE('',*,*,#305,.F.);
#171=ORIENTED_EDGE('',*,*,#287,.T.);
#172=ORIENTED_EDGE('',*,*,#306,.T.);
#173=ORIENTED_EDGE('',*,*,#307,.T.);
#174=ORIENTED_EDGE('',*,*,#254,.T.);
#175=ORIENTED_EDGE('',*,*,#308,.F.);
#176=ORIENTED_EDGE('',*,*,#309,.T.);
#177=ORIENTED_EDGE('',*,*,#258,.F.);
#178=ORIENTED_EDGE('',*,*,#310,.T.);
#179=ORIENTED_EDGE('',*,*,#311,.T.);
#180=ORIENTED_EDGE('',*,*,#312,.F.);
#181=ORIENTED_EDGE('',*,*,#250,.T.);
#182=ORIENTED_EDGE('',*,*,#313,.F.);
#183=ORIENTED_EDGE('',*,*,#308,.T.);
#184=ORIENTED_EDGE('',*,*,#259,.T.);
#185=ORIENTED_EDGE('',*,*,#313,.T.);
#186=ORIENTED_EDGE('',*,*,#253,.F.);
#187=ORIENTED_EDGE('',*,*,#314,.F.);
#188=ORIENTED_EDGE('',*,*,#315,.F.);
#189=ORIENTED_EDGE('',*,*,#316,.F.);
#190=ORIENTED_EDGE('',*,*,#249,.F.);
#191=ORIENTED_EDGE('',*,*,#260,.F.);
#192=ORIENTED_EDGE('',*,*,#314,.T.);
#193=ORIENTED_EDGE('',*,*,#252,.F.);
#194=ORIENTED_EDGE('',*,*,#262,.F.);
#195=ORIENTED_EDGE('',*,*,#317,.F.);
#196=ORIENTED_EDGE('',*,*,#318,.T.);
#197=ORIENTED_EDGE('',*,*,#319,.T.);
#198=ORIENTED_EDGE('',*,*,#261,.T.);
#199=ORIENTED_EDGE('',*,*,#320,.F.);
#200=ORIENTED_EDGE('',*,*,#321,.F.);
#201=ORIENTED_EDGE('',*,*,#317,.T.);
#202=ORIENTED_EDGE('',*,*,#322,.F.);
#203=ORIENTED_EDGE('',*,*,#323,.F.);
#204=ORIENTED_EDGE('',*,*,#264,.T.);
#205=ORIENTED_EDGE('',*,*,#324,.F.);
#206=ORIENTED_EDGE('',*,*,#325,.F.);
#207=ORIENTED_EDGE('',*,*,#320,.T.);
#208=ORIENTED_EDGE('',*,*,#263,.F.);
#209=ORIENTED_EDGE('',*,*,#319,.F.);
#210=ORIENTED_EDGE('',*,*,#326,.T.);
#211=ORIENTED_EDGE('',*,*,#324,.T.);
#212=ORIENTED_EDGE('',*,*,#318,.F.);
#213=ORIENTED_EDGE('',*,*,#321,.T.);
#214=ORIENTED_EDGE('',*,*,#325,.T.);
#215=ORIENTED_EDGE('',*,*,#326,.F.);
#216=ORIENTED_EDGE('',*,*,#323,.T.);
#217=ORIENTED_EDGE('',*,*,#316,.T.);
#218=ORIENTED_EDGE('',*,*,#322,.T.);
#219=ORIENTED_EDGE('',*,*,#315,.T.);
#220=ORIENTED_EDGE('',*,*,#310,.F.);
#221=ORIENTED_EDGE('',*,*,#257,.F.);
#222=ORIENTED_EDGE('',*,*,#327,.T.);
#223=ORIENTED_EDGE('',*,*,#328,.T.);
#224=ORIENTED_EDGE('',*,*,#251,.F.);
#225=ORIENTED_EDGE('',*,*,#312,.T.);
#226=ORIENTED_EDGE('',*,*,#329,.F.);
#227=ORIENTED_EDGE('',*,*,#330,.F.);
#228=ORIENTED_EDGE('',*,*,#255,.T.);
#229=ORIENTED_EDGE('',*,*,#247,.F.);
#230=ORIENTED_EDGE('',*,*,#311,.F.);
#231=ORIENTED_EDGE('',*,*,#328,.F.);
#232=ORIENTED_EDGE('',*,*,#331,.T.);
#233=ORIENTED_EDGE('',*,*,#329,.T.);
#234=ORIENTED_EDGE('',*,*,#332,.F.);
#235=ORIENTED_EDGE('',*,*,#333,.F.);
#236=ORIENTED_EDGE('',*,*,#327,.F.);
#237=ORIENTED_EDGE('',*,*,#256,.F.);
#238=ORIENTED_EDGE('',*,*,#330,.T.);
#239=ORIENTED_EDGE('',*,*,#331,.F.);
#240=ORIENTED_EDGE('',*,*,#333,.T.);
#241=ORIENTED_EDGE('',*,*,#307,.F.);
#242=ORIENTED_EDGE('',*,*,#332,.T.);
#243=ORIENTED_EDGE('',*,*,#306,.F.);
#244=ORIENTED_EDGE('',*,*,#297,.F.);
#245=ORIENTED_EDGE('',*,*,#309,.F.);
#246=EDGE_CURVE('',#334,#335,#402,.T.);
#247=EDGE_CURVE('',#335,#336,#403,.T.);
#248=EDGE_CURVE('',#337,#336,#404,.T.);
#249=EDGE_CURVE('',#337,#334,#405,.T.);
#250=EDGE_CURVE('',#338,#339,#33,.T.);
#251=EDGE_CURVE('',#338,#335,#406,.T.);
#252=EDGE_CURVE('',#334,#340,#407,.T.);
#253=EDGE_CURVE('',#340,#339,#408,.T.);
#254=EDGE_CURVE('',#341,#341,#34,.T.);
#255=EDGE_CURVE('',#342,#336,#409,.T.);
#256=EDGE_CURVE('',#342,#343,#410,.T.);
#257=EDGE_CURVE('',#343,#344,#411,.T.);
#258=EDGE_CURVE('',#344,#345,#35,.T.);
#259=EDGE_CURVE('',#346,#345,#412,.T.);
#260=EDGE_CURVE('',#346,#337,#413,.T.);
#261=EDGE_CURVE('',#347,#348,#414,.T.);
#262=EDGE_CURVE('',#347,#349,#415,.T.);
#263=EDGE_CURVE('',#349,#350,#416,.T.);
#264=EDGE_CURVE('',#348,#350,#417,.T.);
#265=EDGE_CURVE('',#351,#352,#418,.T.);
#266=EDGE_CURVE('',#353,#351,#419,.T.);
#267=EDGE_CURVE('',#353,#354,#420,.T.);
#268=EDGE_CURVE('',#354,#352,#421,.T.);
#269=EDGE_CURVE('',#351,#355,#36,.T.);
#270=EDGE_CURVE('',#356,#355,#422,.T.);
#271=EDGE_CURVE('',#353,#356,#37,.T.);
#272=EDGE_CURVE('',#357,#355,#423,.T.);
#273=EDGE_CURVE('',#358,#357,#424,.T.);
#274=EDGE_CURVE('',#358,#356,#425,.T.);
#275=EDGE_CURVE('',#359,#357,#38,.T.);
#276=EDGE_CURVE('',#360,#359,#426,.T.);
#277=EDGE_CURVE('',#360,#358,#39,.T.);
#278=EDGE_CURVE('',#361,#359,#427,.T.);
#279=EDGE_CURVE('',#362,#361,#428,.T.);
#280=EDGE_CURVE('',#362,#360,#429,.T.);
#281=EDGE_CURVE('',#361,#363,#40,.T.);
#282=EDGE_CURVE('',#364,#363,#430,.T.);
#283=EDGE_CURVE('',#362,#364,#41,.T.);
#284=EDGE_CURVE('',#365,#363,#431,.T.);
#285=EDGE_CURVE('',#366,#365,#432,.T.);
#286=EDGE_CURVE('',#366,#364,#433,.T.);
#287=EDGE_CURVE('',#367,#367,#42,.T.);
#288=EDGE_CURVE('',#368,#368,#43,.T.);
#289=EDGE_CURVE('',#369,#369,#44,.T.);
#290=EDGE_CURVE('',#370,#370,#45,.T.);
#291=EDGE_CURVE('',#371,#371,#46,.T.);
#292=EDGE_CURVE('',#372,#372,#47,.T.);
#293=EDGE_CURVE('',#373,#373,#48,.T.);
#294=EDGE_CURVE('',#374,#374,#49,.T.);
#295=EDGE_CURVE('',#352,#365,#50,.T.);
#296=EDGE_CURVE('',#354,#366,#51,.T.);
#297=EDGE_CURVE('',#375,#375,#52,.F.);
#298=EDGE_CURVE('',#376,#376,#53,.T.);
#299=EDGE_CURVE('',#377,#377,#54,.T.);
#300=EDGE_CURVE('',#378,#378,#55,.T.);
#301=EDGE_CURVE('',#379,#379,#56,.T.);
#302=EDGE_CURVE('',#380,#380,#57,.T.);
#303=EDGE_CURVE('',#381,#381,#58,.T.);
#304=EDGE_CURVE('',#382,#382,#59,.T.);
#305=EDGE_CURVE('',#383,#383,#60,.T.);
#306=EDGE_CURVE('',#384,#384,#13,.T.);
#307=EDGE_CURVE('',#385,#385,#14,.T.);
#308=EDGE_CURVE('',#386,#386,#61,.T.);
#309=EDGE_CURVE('',#387,#387,#62,.T.);
#310=EDGE_CURVE('',#344,#388,#434,.T.);
#311=EDGE_CURVE('',#388,#389,#63,.T.);
#312=EDGE_CURVE('',#338,#389,#435,.T.);
#313=EDGE_CURVE('',#345,#339,#436,.T.);
#314=EDGE_CURVE('',#346,#340,#437,.T.);
#315=EDGE_CURVE('',#390,#390,#64,.T.);
#316=EDGE_CURVE('',#391,#391,#65,.T.);
#317=EDGE_CURVE('',#392,#347,#438,.T.);
#318=EDGE_CURVE('',#392,#393,#439,.T.);
#319=EDGE_CURVE('',#393,#349,#440,.T.);
#320=EDGE_CURVE('',#394,#348,#441,.T.);
#321=EDGE_CURVE('',#392,#394,#442,.T.);
#322=EDGE_CURVE('',#395,#395,#66,.F.);
#323=EDGE_CURVE('',#396,#396,#67,.F.);
#324=EDGE_CURVE('',#397,#350,#443,.T.);
#325=EDGE_CURVE('',#394,#397,#444,.T.);
#326=EDGE_CURVE('',#393,#397,#445,.T.);
#327=EDGE_CURVE('',#343,#398,#446,.T.);
#328=EDGE_CURVE('',#398,#388,#447,.T.);
#329=EDGE_CURVE('',#399,#389,#448,.T.);
#330=EDGE_CURVE('',#342,#399,#449,.T.);
#331=EDGE_CURVE('',#398,#399,#450,.T.);
#332=EDGE_CURVE('',#400,#400,#68,.T.);
#333=EDGE_CURVE('',#401,#401,#69,.T.);
#334=VERTEX_POINT('',#1043);
#335=VERTEX_POINT('',#1044);
#336=VERTEX_POINT('',#1046);
#337=VERTEX_POINT('',#1048);
#338=VERTEX_POINT('',#1052);
#339=VERTEX_POINT('',#1053);
#340=VERTEX_POINT('',#1056);
#341=VERTEX_POINT('',#1060);
#342=VERTEX_POINT('',#1062);
#343=VERTEX_POINT('',#1064);
#344=VERTEX_POINT('',#1066);
#345=VERTEX_POINT('',#1068);
#346=VERTEX_POINT('',#1070);
#347=VERTEX_POINT('',#1073);
#348=VERTEX_POINT('',#1074);
#349=VERTEX_POINT('',#1076);
#350=VERTEX_POINT('',#1078);
#351=VERTEX_POINT('',#1082);
#352=VERTEX_POINT('',#1083);
#353=VERTEX_POINT('',#1085);
#354=VERTEX_POINT('',#1087);
#355=VERTEX_POINT('',#1091);
#356=VERTEX_POINT('',#1093);
#357=VERTEX_POINT('',#1097);
#358=VERTEX_POINT('',#1099);
#359=VERTEX_POINT('',#1103);
#360=VERTEX_POINT('',#1105);
#361=VERTEX_POINT('',#1109);
#362=VERTEX_POINT('',#1111);
#363=VERTEX_POINT('',#1115);
#364=VERTEX_POINT('',#1117);
#365=VERTEX_POINT('',#1121);
#366=VERTEX_POINT('',#1123);
#367=VERTEX_POINT('',#1127);
#368=VERTEX_POINT('',#1129);
#369=VERTEX_POINT('',#1132);
#370=VERTEX_POINT('',#1134);
#371=VERTEX_POINT('',#1137);
#372=VERTEX_POINT('',#1139);
#373=VERTEX_POINT('',#1142);
#374=VERTEX_POINT('',#1144);
#375=VERTEX_POINT('',#1150);
#376=VERTEX_POINT('',#1153);
#377=VERTEX_POINT('',#1155);
#378=VERTEX_POINT('',#1157);
#379=VERTEX_POINT('',#1159);
#380=VERTEX_POINT('',#1162);
#381=VERTEX_POINT('',#1166);
#382=VERTEX_POINT('',#1170);
#383=VERTEX_POINT('',#1174);
#384=VERTEX_POINT('',#1196);
#385=VERTEX_POINT('',#1216);
#386=VERTEX_POINT('',#1218);
#387=VERTEX_POINT('',#1221);
#388=VERTEX_POINT('',#1223);
#389=VERTEX_POINT('',#1225);
#390=VERTEX_POINT('',#1233);
#391=VERTEX_POINT('',#1235);
#392=VERTEX_POINT('',#1238);
#393=VERTEX_POINT('',#1240);
#394=VERTEX_POINT('',#1244);
#395=VERTEX_POINT('',#1248);
#396=VERTEX_POINT('',#1250);
#397=VERTEX_POINT('',#1252);
#398=VERTEX_POINT('',#1261);
#399=VERTEX_POINT('',#1265);
#400=VERTEX_POINT('',#1271);
#401=VERTEX_POINT('',#1273);
#402=LINE('',#1042,#451);
#403=LINE('',#1045,#452);
#404=LINE('',#1047,#453);
#405=LINE('',#1049,#454);
#406=LINE('',#1054,#455);
#407=LINE('',#1055,#456);
#408=LINE('',#1057,#457);
#409=LINE('',#1061,#458);
#410=LINE('',#1063,#459);
#411=LINE('',#1065,#460);
#412=LINE('',#1069,#461);
#413=LINE('',#1071,#462);
#414=LINE('',#1072,#463);
#415=LINE('',#1075,#464);
#416=LINE('',#1077,#465);
#417=LINE('',#1079,#466);
#418=LINE('',#1081,#467);
#419=LINE('',#1084,#468);
#420=LINE('',#1086,#469);
#421=LINE('',#1088,#470);
#422=LINE('',#1092,#471);
#423=LINE('',#1096,#472);
#424=LINE('',#1098,#473);
#425=LINE('',#1100,#474);
#426=LINE('',#1104,#475);
#427=LINE('',#1108,#476);
#428=LINE('',#1110,#477);
#429=LINE('',#1112,#478);
#430=LINE('',#1116,#479);
#431=LINE('',#1120,#480);
#432=LINE('',#1122,#481);
#433=LINE('',#1124,#482);
#434=LINE('',#1222,#483);
#435=LINE('',#1226,#484);
#436=LINE('',#1227,#485);
#437=LINE('',#1230,#486);
#438=LINE('',#1237,#487);
#439=LINE('',#1239,#488);
#440=LINE('',#1241,#489);
#441=LINE('',#1243,#490);
#442=LINE('',#1245,#491);
#443=LINE('',#1251,#492);
#444=LINE('',#1253,#493);
#445=LINE('',#1255,#494);
#446=LINE('',#1260,#495);
#447=LINE('',#1262,#496);
#448=LINE('',#1264,#497);
#449=LINE('',#1266,#498);
#450=LINE('',#1268,#499);
#451=VECTOR('',#831,1.);
#452=VECTOR('',#832,1.);
#453=VECTOR('',#833,1.);
#454=VECTOR('',#834,1.);
#455=VECTOR('',#839,1.);
#456=VECTOR('',#840,1.);
#457=VECTOR('',#841,1.);
#458=VECTOR('',#846,1.);
#459=VECTOR('',#847,1.);
#460=VECTOR('',#848,1.);
#461=VECTOR('',#851,1.);
#462=VECTOR('',#852,1.);
#463=VECTOR('',#853,1.);
#464=VECTOR('',#854,1.);
#465=VECTOR('',#855,1.);
#466=VECTOR('',#856,1.);
#467=VECTOR('',#859,1.);
#468=VECTOR('',#860,1.);
#469=VECTOR('',#861,1.);
#470=VECTOR('',#862,1.);
#471=VECTOR('',#867,1.);
#472=VECTOR('',#872,1.);
#473=VECTOR('',#873,1.);
#474=VECTOR('',#874,1.);
#475=VECTOR('',#879,1.);
#476=VECTOR('',#884,1.);
#477=VECTOR('',#885,1.);
#478=VECTOR('',#886,1.);
#479=VECTOR('',#891,1.);
#480=VECTOR('',#896,1.);
#481=VECTOR('',#897,1.);
#482=VECTOR('',#898,1.);
#483=VECTOR('',#975,1.);
#484=VECTOR('',#978,1.);
#485=VECTOR('',#979,1.);
#486=VECTOR('',#984,1.);
#487=VECTOR('',#993,1.);
#488=VECTOR('',#994,1.);
#489=VECTOR('',#995,1.);
#490=VECTOR('',#998,1.);
#491=VECTOR('',#999,1.);
#492=VECTOR('',#1006,1.);
#493=VECTOR('',#1007,1.);
#494=VECTOR('',#1010,1.);
#495=VECTOR('',#1019,1.);
#496=VECTOR('',#1020,1.);
#497=VECTOR('',#1023,1.);
#498=VECTOR('',#1024,1.);
#499=VECTOR('',#1027,1.);
#500=EDGE_LOOP('',(#70,#71,#72,#73));
#501=EDGE_LOOP('',(#74,#75,#76,#77,#78));
#502=EDGE_LOOP('',(#79));
#503=EDGE_LOOP('',(#80,#81,#82,#83,#84,#85,#86));
#504=EDGE_LOOP('',(#87,#88,#89,#90));
#505=EDGE_LOOP('',(#91,#92,#93,#94));
#506=EDGE_LOOP('',(#95,#96,#97,#98));
#507=EDGE_LOOP('',(#99,#100,#101,#102));
#508=EDGE_LOOP('',(#103,#104,#105,#106));
#509=EDGE_LOOP('',(#107,#108,#109,#110));
#510=EDGE_LOOP('',(#111,#112,#113,#114));
#511=EDGE_LOOP('',(#115,#116,#117,#118));
#512=EDGE_LOOP('',(#119));
#513=EDGE_LOOP('',(#120));
#514=EDGE_LOOP('',(#121));
#515=EDGE_LOOP('',(#122));
#516=EDGE_LOOP('',(#123));
#517=EDGE_LOOP('',(#124));
#518=EDGE_LOOP('',(#125));
#519=EDGE_LOOP('',(#126));
#520=EDGE_LOOP('',(#127,#128,#129,#130));
#521=EDGE_LOOP('',(#131));
#522=EDGE_LOOP('',(#132));
#523=EDGE_LOOP('',(#133));
#524=EDGE_LOOP('',(#134));
#525=EDGE_LOOP('',(#135));
#526=EDGE_LOOP('',(#136,#137,#138,#139,#140,#141,#142,#143));
#527=EDGE_LOOP('',(#144,#145,#146,#147,#148,#149,#150,#151));
#528=EDGE_LOOP('',(#152));
#529=EDGE_LOOP('',(#153));
#530=EDGE_LOOP('',(#154));
#531=EDGE_LOOP('',(#155));
#532=EDGE_LOOP('',(#156));
#533=EDGE_LOOP('',(#157));
#534=EDGE_LOOP('',(#158));
#535=EDGE_LOOP('',(#159));
#536=EDGE_LOOP('',(#160));
#537=EDGE_LOOP('',(#161));
#538=EDGE_LOOP('',(#162));
#539=EDGE_LOOP('',(#163));
#540=EDGE_LOOP('',(#164));
#541=EDGE_LOOP('',(#165));
#542=EDGE_LOOP('',(#166));
#543=EDGE_LOOP('',(#167));
#544=EDGE_LOOP('',(#168));
#545=EDGE_LOOP('',(#169));
#546=EDGE_LOOP('',(#170));
#547=EDGE_LOOP('',(#171));
#548=EDGE_LOOP('',(#172));
#549=EDGE_LOOP('',(#173));
#550=EDGE_LOOP('',(#174));
#551=EDGE_LOOP('',(#175));
#552=EDGE_LOOP('',(#176));
#553=EDGE_LOOP('',(#177,#178,#179,#180,#181,#182));
#554=EDGE_LOOP('',(#183));
#555=EDGE_LOOP('',(#184,#185,#186,#187));
#556=EDGE_LOOP('',(#188));
#557=EDGE_LOOP('',(#189));
#558=EDGE_LOOP('',(#190,#191,#192,#193));
#559=EDGE_LOOP('',(#194,#195,#196,#197));
#560=EDGE_LOOP('',(#198,#199,#200,#201));
#561=EDGE_LOOP('',(#202));
#562=EDGE_LOOP('',(#203));
#563=EDGE_LOOP('',(#204,#205,#206,#207));
#564=EDGE_LOOP('',(#208,#209,#210,#211));
#565=EDGE_LOOP('',(#212,#213,#214,#215));
#566=EDGE_LOOP('',(#216));
#567=EDGE_LOOP('',(#217));
#568=EDGE_LOOP('',(#218));
#569=EDGE_LOOP('',(#219));
#570=EDGE_LOOP('',(#220,#221,#222,#223));
#571=EDGE_LOOP('',(#224,#225,#226,#227,#228,#229));
#572=EDGE_LOOP('',(#230,#231,#232,#233));
#573=EDGE_LOOP('',(#234));
#574=EDGE_LOOP('',(#235));
#575=EDGE_LOOP('',(#236,#237,#238,#239));
#576=EDGE_LOOP('',(#240));
#577=EDGE_LOOP('',(#241));
#578=EDGE_LOOP('',(#242));
#579=EDGE_LOOP('',(#243));
#580=EDGE_LOOP('',(#244));
#581=EDGE_LOOP('',(#245));
#582=FACE_BOUND('',#500,.T.);
#583=FACE_BOUND('',#501,.T.);
#584=FACE_BOUND('',#502,.T.);
#585=FACE_BOUND('',#503,.T.);
#586=FACE_BOUND('',#504,.T.);
#587=FACE_BOUND('',#505,.T.);
#588=FACE_BOUND('',#506,.T.);
#589=FACE_BOUND('',#507,.T.);
#590=FACE_BOUND('',#508,.T.);
#591=FACE_BOUND('',#509,.T.);
#592=FACE_BOUND('',#510,.T.);
#593=FACE_BOUND('',#511,.T.);
#594=FACE_BOUND('',#512,.T.);
#595=FACE_BOUND('',#513,.T.);
#596=FACE_BOUND('',#514,.T.);
#597=FACE_BOUND('',#515,.T.);
#598=FACE_BOUND('',#516,.T.);
#599=FACE_BOUND('',#517,.T.);
#600=FACE_BOUND('',#518,.T.);
#601=FACE_BOUND('',#519,.T.);
#602=FACE_BOUND('',#520,.T.);
#603=FACE_BOUND('',#521,.T.);
#604=FACE_BOUND('',#522,.T.);
#605=FACE_BOUND('',#523,.T.);
#606=FACE_BOUND('',#524,.T.);
#607=FACE_BOUND('',#525,.T.);
#608=FACE_BOUND('',#526,.T.);
#609=FACE_BOUND('',#527,.T.);
#610=FACE_BOUND('',#528,.T.);
#611=FACE_BOUND('',#529,.T.);
#612=FACE_BOUND('',#530,.T.);
#613=FACE_BOUND('',#531,.T.);
#614=FACE_BOUND('',#532,.T.);
#615=FACE_BOUND('',#533,.T.);
#616=FACE_BOUND('',#534,.T.);
#617=FACE_BOUND('',#535,.T.);
#618=FACE_BOUND('',#536,.T.);
#619=FACE_BOUND('',#537,.T.);
#620=FACE_BOUND('',#538,.T.);
#621=FACE_BOUND('',#539,.T.);
#622=FACE_BOUND('',#540,.T.);
#623=FACE_BOUND('',#541,.T.);
#624=FACE_BOUND('',#542,.T.);
#625=FACE_BOUND('',#543,.T.);
#626=FACE_BOUND('',#544,.T.);
#627=FACE_BOUND('',#545,.T.);
#628=FACE_BOUND('',#546,.T.);
#629=FACE_BOUND('',#547,.T.);
#630=FACE_BOUND('',#548,.T.);
#631=FACE_BOUND('',#549,.T.);
#632=FACE_BOUND('',#550,.T.);
#633=FACE_BOUND('',#551,.T.);
#634=FACE_BOUND('',#552,.T.);
#635=FACE_BOUND('',#553,.T.);
#636=FACE_BOUND('',#554,.T.);
#637=FACE_BOUND('',#555,.T.);
#638=FACE_BOUND('',#556,.T.);
#639=FACE_BOUND('',#557,.T.);
#640=FACE_BOUND('',#558,.T.);
#641=FACE_BOUND('',#559,.T.);
#642=FACE_BOUND('',#560,.T.);
#643=FACE_BOUND('',#561,.T.);
#644=FACE_BOUND('',#562,.T.);
#645=FACE_BOUND('',#563,.T.);
#646=FACE_BOUND('',#564,.T.);
#647=FACE_BOUND('',#565,.T.);
#648=FACE_BOUND('',#566,.T.);
#649=FACE_BOUND('',#567,.T.);
#650=FACE_BOUND('',#568,.T.);
#651=FACE_BOUND('',#569,.T.);
#652=FACE_BOUND('',#570,.T.);
#653=FACE_BOUND('',#571,.T.);
#654=FACE_BOUND('',#572,.T.);
#655=FACE_BOUND('',#573,.T.);
#656=FACE_BOUND('',#574,.T.);
#657=FACE_BOUND('',#575,.T.);
#658=FACE_BOUND('',#576,.T.);
#659=FACE_BOUND('',#577,.T.);
#660=FACE_BOUND('',#578,.T.);
#661=FACE_BOUND('',#579,.T.);
#662=FACE_BOUND('',#580,.T.);
#663=FACE_BOUND('',#581,.T.);
#664=PLANE('',#746);
#665=PLANE('',#747);
#666=PLANE('',#749);
#667=PLANE('',#752);
#668=PLANE('',#756);
#669=PLANE('',#760);
#670=PLANE('',#764);
#671=PLANE('',#780);
#672=PLANE('',#782);
#673=PLANE('',#789);
#674=PLANE('',#792);
#675=PLANE('',#795);
#676=PLANE('',#798);
#677=PLANE('',#804);
#678=PLANE('',#805);
#679=PLANE('',#806);
#680=PLANE('',#809);
#681=PLANE('',#810);
#682=PLANE('',#811);
#683=PLANE('',#814);
#684=PLANE('',#815);
#685=PLANE('',#818);
#686=PLANE('',#819);
#687=PLANE('',#820);
#688=PLANE('',#821);
#689=ADVANCED_FACE('',(#582),#664,.T.);
#690=ADVANCED_FACE('',(#583),#665,.T.);
#691=ADVANCED_FACE('',(#584,#585,#586),#666,.T.);
#692=ADVANCED_FACE('',(#587),#667,.T.);
#693=ADVANCED_FACE('',(#588),#15,.T.);
#694=ADVANCED_FACE('',(#589),#668,.T.);
#695=ADVANCED_FACE('',(#590),#16,.T.);
#696=ADVANCED_FACE('',(#591),#669,.T.);
#697=ADVANCED_FACE('',(#592),#17,.T.);
#698=ADVANCED_FACE('',(#593),#670,.T.);
#699=ADVANCED_FACE('',(#594,#595),#18,.F.);
#700=ADVANCED_FACE('',(#596,#597),#19,.F.);
#701=ADVANCED_FACE('',(#598,#599),#20,.F.);
#702=ADVANCED_FACE('',(#600,#601),#21,.F.);
#703=ADVANCED_FACE('',(#602),#22,.T.);
#704=ADVANCED_FACE('',(#603,#604,#605,#606,#607,#608),#671,.T.);
#705=ADVANCED_FACE('',(#609,#610,#611,#612,#613),#672,.F.);
#706=ADVANCED_FACE('',(#614,#615),#23,.F.);
#707=ADVANCED_FACE('',(#616,#617),#673,.T.);
#708=ADVANCED_FACE('',(#618,#619),#24,.F.);
#709=ADVANCED_FACE('',(#620,#621),#674,.T.);
#710=ADVANCED_FACE('',(#622,#623),#25,.F.);
#711=ADVANCED_FACE('',(#624,#625),#675,.T.);
#712=ADVANCED_FACE('',(#626,#627),#26,.F.);
#713=ADVANCED_FACE('',(#628,#629),#676,.T.);
#714=ADVANCED_FACE('',(#630,#631,#632,#633),#27,.F.);
#715=ADVANCED_FACE('',(#634,#635),#28,.T.);
#716=ADVANCED_FACE('',(#636),#677,.T.);
#717=ADVANCED_FACE('',(#637),#678,.F.);
#718=ADVANCED_FACE('',(#638,#639,#640),#679,.T.);
#719=ADVANCED_FACE('',(#641),#680,.T.);
#720=ADVANCED_FACE('',(#642),#681,.F.);
#721=ADVANCED_FACE('',(#643,#644,#645),#682,.F.);
#722=ADVANCED_FACE('',(#646),#683,.T.);
#723=ADVANCED_FACE('',(#647),#684,.T.);
#724=ADVANCED_FACE('',(#648,#649),#29,.F.);
#725=ADVANCED_FACE('',(#650,#651),#30,.F.);
#726=ADVANCED_FACE('',(#652),#685,.T.);
#727=ADVANCED_FACE('',(#653),#686,.F.);
#728=ADVANCED_FACE('',(#654),#687,.T.);
#729=ADVANCED_FACE('',(#655,#656,#657),#688,.T.);
#730=ADVANCED_FACE('',(#658,#659),#31,.F.);
#731=ADVANCED_FACE('',(#660,#661),#32,.F.);
#732=ADVANCED_FACE('',(#662,#663),#12,.F.);
#733=CLOSED_SHELL('',(#689,#690,#691,#692,#693,#694,#695,#696,#697,#698,
#699,#700,#701,#702,#703,#704,#705,#706,#707,#708,#709,#710,#711,#712,#713,
#714,#715,#716,#717,#718,#719,#720,#721,#722,#723,#724,#725,#726,#727,#728,
#729,#730,#731,#732));
#734=STYLED_ITEM('',(#735),#742);
#735=PRESENTATION_STYLE_ASSIGNMENT((#736));
#736=SURFACE_STYLE_USAGE(.BOTH.,#737);
#737=SURFACE_SIDE_STYLE('',(#738));
#738=SURFACE_STYLE_FILL_AREA(#739);
#739=FILL_AREA_STYLE('',(#740));
#740=FILL_AREA_STYLE_COLOUR('',#741);
#741=COLOUR_RGB('',0.615686274509804,0.811764705882353,0.929411764705882);
#742=MANIFOLD_SOLID_BREP('Part 1',#733);
#743=SHAPE_DEFINITION_REPRESENTATION(#1283,#744);
#744=SHAPE_REPRESENTATION('Part 1',(#745),#1278);
#745=AXIS2_PLACEMENT_3D('',#1040,#827,#828);
#746=AXIS2_PLACEMENT_3D('',#1041,#829,#830);
#747=AXIS2_PLACEMENT_3D('',#1050,#835,#836);
#748=AXIS2_PLACEMENT_3D('',#1051,#837,#838);
#749=AXIS2_PLACEMENT_3D('',#1058,#842,#843);
#750=AXIS2_PLACEMENT_3D('',#1059,#844,#845);
#751=AXIS2_PLACEMENT_3D('',#1067,#849,#850);
#752=AXIS2_PLACEMENT_3D('',#1080,#857,#858);
#753=AXIS2_PLACEMENT_3D('',#1089,#863,#864);
#754=AXIS2_PLACEMENT_3D('',#1090,#865,#866);
#755=AXIS2_PLACEMENT_3D('',#1094,#868,#869);
#756=AXIS2_PLACEMENT_3D('',#1095,#870,#871);
#757=AXIS2_PLACEMENT_3D('',#1101,#875,#876);
#758=AXIS2_PLACEMENT_3D('',#1102,#877,#878);
#759=AXIS2_PLACEMENT_3D('',#1106,#880,#881);
#760=AXIS2_PLACEMENT_3D('',#1107,#882,#883);
#761=AXIS2_PLACEMENT_3D('',#1113,#887,#888);
#762=AXIS2_PLACEMENT_3D('',#1114,#889,#890);
#763=AXIS2_PLACEMENT_3D('',#1118,#892,#893);
#764=AXIS2_PLACEMENT_3D('',#1119,#894,#895);
#765=AXIS2_PLACEMENT_3D('',#1125,#899,#900);
#766=AXIS2_PLACEMENT_3D('',#1126,#901,#902);
#767=AXIS2_PLACEMENT_3D('',#1128,#903,#904);
#768=AXIS2_PLACEMENT_3D('',#1130,#905,#906);
#769=AXIS2_PLACEMENT_3D('',#1131,#907,#908);
#770=AXIS2_PLACEMENT_3D('',#1133,#909,#910);
#771=AXIS2_PLACEMENT_3D('',#1135,#911,#912);
#772=AXIS2_PLACEMENT_3D('',#1136,#913,#914);
#773=AXIS2_PLACEMENT_3D('',#1138,#915,#916);
#774=AXIS2_PLACEMENT_3D('',#1140,#917,#918);
#775=AXIS2_PLACEMENT_3D('',#1141,#919,#920);
#776=AXIS2_PLACEMENT_3D('',#1143,#921,#922);
#777=AXIS2_PLACEMENT_3D('',#1145,#923,#924);
#778=AXIS2_PLACEMENT_3D('',#1146,#925,#926);
#779=AXIS2_PLACEMENT_3D('',#1147,#927,#928);
#780=AXIS2_PLACEMENT_3D('',#1148,#929,#930);
#781=AXIS2_PLACEMENT_3D('',#1149,#931,#932);
#782=AXIS2_PLACEMENT_3D('',#1151,#933,#934);
#783=AXIS2_PLACEMENT_3D('',#1152,#935,#936);
#784=AXIS2_PLACEMENT_3D('',#1154,#937,#938);
#785=AXIS2_PLACEMENT_3D('',#1156,#939,#940);
#786=AXIS2_PLACEMENT_3D('',#1158,#941,#942);
#787=AXIS2_PLACEMENT_3D('',#1160,#943,#944);
#788=AXIS2_PLACEMENT_3D('',#1161,#945,#946);
#789=AXIS2_PLACEMENT_3D('',#1163,#947,#948);
#790=AXIS2_PLACEMENT_3D('',#1164,#949,#950);
#791=AXIS2_PLACEMENT_3D('',#1165,#951,#952);
#792=AXIS2_PLACEMENT_3D('',#1167,#953,#954);
#793=AXIS2_PLACEMENT_3D('',#1168,#955,#956);
#794=AXIS2_PLACEMENT_3D('',#1169,#957,#958);
#795=AXIS2_PLACEMENT_3D('',#1171,#959,#960);
#796=AXIS2_PLACEMENT_3D('',#1172,#961,#962);
#797=AXIS2_PLACEMENT_3D('',#1173,#963,#964);
#798=AXIS2_PLACEMENT_3D('',#1175,#965,#966);
#799=AXIS2_PLACEMENT_3D('',#1176,#967,#968);
#800=AXIS2_PLACEMENT_3D('',#1217,#969,#970);
#801=AXIS2_PLACEMENT_3D('',#1219,#971,#972);
#802=AXIS2_PLACEMENT_3D('',#1220,#973,#974);
#803=AXIS2_PLACEMENT_3D('',#1224,#976,#977);
#804=AXIS2_PLACEMENT_3D('',#1228,#980,#981);
#805=AXIS2_PLACEMENT_3D('',#1229,#982,#983);
#806=AXIS2_PLACEMENT_3D('',#1231,#985,#986);
#807=AXIS2_PLACEMENT_3D('',#1232,#987,#988);
#808=AXIS2_PLACEMENT_3D('',#1234,#989,#990);
#809=AXIS2_PLACEMENT_3D('',#1236,#991,#992);
#810=AXIS2_PLACEMENT_3D('',#1242,#996,#997);
#811=AXIS2_PLACEMENT_3D('',#1246,#1000,#1001);
#812=AXIS2_PLACEMENT_3D('',#1247,#1002,#1003);
#813=AXIS2_PLACEMENT_3D('',#1249,#1004,#1005);
#814=AXIS2_PLACEMENT_3D('',#1254,#1008,#1009);
#815=AXIS2_PLACEMENT_3D('',#1256,#1011,#1012);
#816=AXIS2_PLACEMENT_3D('',#1257,#1013,#1014);
#817=AXIS2_PLACEMENT_3D('',#1258,#1015,#1016);
#818=AXIS2_PLACEMENT_3D('',#1259,#1017,#1018);
#819=AXIS2_PLACEMENT_3D('',#1263,#1021,#1022);
#820=AXIS2_PLACEMENT_3D('',#1267,#1025,#1026);
#821=AXIS2_PLACEMENT_3D('',#1269,#1028,#1029);
#822=AXIS2_PLACEMENT_3D('',#1270,#1030,#1031);
#823=AXIS2_PLACEMENT_3D('',#1272,#1032,#1033);
#824=AXIS2_PLACEMENT_3D('',#1274,#1034,#1035);
#825=AXIS2_PLACEMENT_3D('',#1275,#1036,#1037);
#826=AXIS2_PLACEMENT_3D('',#1276,#1038,#1039);
#827=DIRECTION('',(0.,0.,1.));
#828=DIRECTION('',(1.,0.,0.));
#829=DIRECTION('',(1.,0.,0.));
#830=DIRECTION('',(0.,0.,-1.));
#831=DIRECTION('',(0.,1.,0.));
#832=DIRECTION('',(0.,6.8475926683295E-17,1.));
#833=DIRECTION('',(0.,1.,0.));
#834=DIRECTION('',(0.,0.,-1.));
#835=DIRECTION('',(0.,0.,-1.));
#836=DIRECTION('',(-1.,0.,0.));
#837=DIRECTION('',(0.,0.,-1.));
#838=DIRECTION('',(-1.,0.,0.));
#839=DIRECTION('',(1.,0.,0.));
#840=DIRECTION('',(-1.,0.,0.));
#841=DIRECTION('',(0.,1.,0.));
#842=DIRECTION('',(0.,0.,1.));
#843=DIRECTION('',(1.,0.,0.));
#844=DIRECTION('',(0.,0.,1.));
#845=DIRECTION('',(1.,0.,0.));
#846=DIRECTION('',(-1.,0.,0.));
#847=DIRECTION('',(0.,1.,0.));
#848=DIRECTION('',(-1.,0.,0.));
#849=DIRECTION('',(0.,0.,1.));
#850=DIRECTION('',(1.,0.,0.));
#851=DIRECTION('',(0.,1.,0.));
#852=DIRECTION('',(1.,0.,0.));
#853=DIRECTION('',(0.,-1.,0.));
#854=DIRECTION('',(1.,0.,0.));
#855=DIRECTION('',(0.,-1.,0.));
#856=DIRECTION('',(1.,0.,0.));
#857=DIRECTION('',(0.,1.,0.));
#858=DIRECTION('',(0.,0.,1.));
#859=DIRECTION('',(1.,0.,0.));
#860=DIRECTION('',(0.,0.,-1.));
#861=DIRECTION('',(1.,0.,0.));
#862=DIRECTION('',(0.,0.,-1.));
#863=DIRECTION('',(0.,0.,-1.));
#864=DIRECTION('',(-1.,0.,0.));
#865=DIRECTION('',(0.,0.,1.));
#866=DIRECTION('',(1.,0.,0.));
#867=DIRECTION('',(0.,0.,-1.));
#868=DIRECTION('',(0.,0.,1.));
#869=DIRECTION('',(1.,0.,0.));
#870=DIRECTION('',(-1.,-2.1350442781253E-16,0.));
#871=DIRECTION('',(2.1350442781253E-16,-1.,0.));
#872=DIRECTION('',(-2.1350442781253E-16,1.,0.));
#873=DIRECTION('',(0.,0.,-1.));
#874=DIRECTION('',(-2.1350442781253E-16,1.,0.));
#875=DIRECTION('',(0.,0.,-1.));
#876=DIRECTION('',(-1.,0.,0.));
#877=DIRECTION('',(0.,0.,-1.));
#878=DIRECTION('',(1.,0.,0.));
#879=DIRECTION('',(0.,0.,-1.));
#880=DIRECTION('',(0.,0.,-1.));
#881=DIRECTION('',(1.,0.,0.));
#882=DIRECTION('',(0.,-1.,0.));
#883=DIRECTION('',(0.,0.,-1.));
#884=DIRECTION('',(-1.,0.,0.));
#885=DIRECTION('',(0.,0.,-1.));
#886=DIRECTION('',(-1.,0.,0.));
#887=DIRECTION('',(0.,0.,-1.));
#888=DIRECTION('',(-1.,0.,0.));
#889=DIRECTION('',(0.,0.,1.));
#890=DIRECTION('',(1.,0.,0.));
#891=DIRECTION('',(0.,0.,-1.));
#892=DIRECTION('',(0.,0.,1.));
#893=DIRECTION('',(1.,0.,0.));
#894=DIRECTION('',(1.,2.1350442781253E-16,0.));
#895=DIRECTION('',(-2.1350442781253E-16,1.,0.));
#896=DIRECTION('',(2.1350442781253E-16,-1.,0.));
#897=DIRECTION('',(0.,0.,-1.));
#898=DIRECTION('',(2.1350442781253E-16,-1.,0.));
#899=DIRECTION('',(0.,0.,-1.));
#900=DIRECTION('',(-1.,0.,0.));
#901=DIRECTION('',(0.,0.,1.));
#902=DIRECTION('',(1.,0.,0.));
#903=DIRECTION('',(0.,0.,1.));
#904=DIRECTION('',(1.,0.,0.));
#905=DIRECTION('',(0.,0.,-1.));
#906=DIRECTION('',(-1.,0.,0.));
#907=DIRECTION('',(0.,0.,-1.));
#908=DIRECTION('',(1.,0.,0.));
#909=DIRECTION('',(0.,0.,-1.));
#910=DIRECTION('',(1.,0.,0.));
#911=DIRECTION('',(0.,0.,-1.));
#912=DIRECTION('',(-1.,0.,0.));
#913=DIRECTION('',(0.,0.,1.));
#914=DIRECTION('',(1.,0.,0.));
#915=DIRECTION('',(0.,0.,1.));
#916=DIRECTION('',(1.,0.,0.));
#917=DIRECTION('',(0.,0.,-1.));
#918=DIRECTION('',(-1.,0.,0.));
#919=DIRECTION('',(0.,0.,-1.));
#920=DIRECTION('',(1.,0.,0.));
#921=DIRECTION('',(0.,0.,-1.));
#922=DIRECTION('',(1.,0.,0.));
#923=DIRECTION('',(0.,0.,-1.));
#924=DIRECTION('',(-1.,0.,0.));
#925=DIRECTION('',(0.,0.,-1.));
#926=DIRECTION('',(1.,0.,0.));
#927=DIRECTION('',(0.,0.,-1.));
#928=DIRECTION('',(1.,0.,0.));
#929=DIRECTION('',(0.,0.,1.));
#930=DIRECTION('',(1.,0.,0.));
#931=DIRECTION('',(0.,0.,1.));
#932=DIRECTION('',(1.,0.,0.));
#933=DIRECTION('',(0.,0.,1.));
#934=DIRECTION('',(1.,0.,0.));
#935=DIRECTION('',(0.,0.,-1.));
#936=DIRECTION('',(1.,0.,0.));
#937=DIRECTION('',(0.,0.,1.));
#938=DIRECTION('',(1.,0.,0.));
#939=DIRECTION('',(0.,0.,-1.));
#940=DIRECTION('',(1.,0.,0.));
#941=DIRECTION('',(0.,0.,1.));
#942=DIRECTION('',(1.,0.,0.));
#943=DIRECTION('',(0.,0.,-1.));
#944=DIRECTION('',(-1.,0.,0.));
#945=DIRECTION('',(0.,0.,-1.));
#946=DIRECTION('',(1.,0.,0.));
#947=DIRECTION('',(0.,0.,1.));
#948=DIRECTION('',(1.,0.,0.));
#949=DIRECTION('',(0.,0.,-1.));
#950=DIRECTION('',(-1.,0.,0.));
#951=DIRECTION('',(0.,0.,1.));
#952=DIRECTION('',(1.,0.,0.));
#953=DIRECTION('',(0.,0.,1.));
#954=DIRECTION('',(1.,0.,0.));
#955=DIRECTION('',(0.,0.,-1.));
#956=DIRECTION('',(-1.,0.,0.));
#957=DIRECTION('',(0.,0.,-1.));
#958=DIRECTION('',(1.,0.,0.));
#959=DIRECTION('',(0.,0.,1.));
#960=DIRECTION('',(1.,0.,0.));
#961=DIRECTION('',(0.,0.,-1.));
#962=DIRECTION('',(-1.,0.,0.));
#963=DIRECTION('',(0.,0.,1.));
#964=DIRECTION('',(1.,0.,0.));
#965=DIRECTION('',(0.,0.,1.));
#966=DIRECTION('',(1.,0.,0.));
#967=DIRECTION('',(0.,0.,-1.));
#968=DIRECTION('',(-1.,0.,0.));
#969=DIRECTION('',(0.,0.,1.));
#970=DIRECTION('',(1.,0.,0.));
#971=DIRECTION('',(0.,0.,-1.));
#972=DIRECTION('',(-1.,0.,0.));
#973=DIRECTION('',(0.,0.,1.));
#974=DIRECTION('',(1.,0.,0.));
#975=DIRECTION('',(0.,0.,-1.));
#976=DIRECTION('',(0.,0.,-1.));
#977=DIRECTION('',(-1.,0.,0.));
#978=DIRECTION('',(0.,0.,-1.));
#979=DIRECTION('',(0.,0.,-1.));
#980=DIRECTION('',(0.,0.,1.));
#981=DIRECTION('',(1.,0.,0.));
#982=DIRECTION('',(1.,0.,9.13012355777267E-17));
#983=DIRECTION('',(9.13012355777267E-17,0.,-1.));
#984=DIRECTION('',(9.13012355777267E-17,0.,-1.));
#985=DIRECTION('',(0.,-1.,0.));
#986=DIRECTION('',(1.,0.,0.));
#987=DIRECTION('',(0.,-1.,0.));
#988=DIRECTION('',(0.,0.,-1.));
#989=DIRECTION('',(0.,-1.,0.));
#990=DIRECTION('',(0.,0.,-1.));
#991=DIRECTION('',(0.,-1.,0.));
#992=DIRECTION('',(0.,0.,-1.));
#993=DIRECTION('',(0.,0.,1.));
#994=DIRECTION('',(1.,0.,0.));
#995=DIRECTION('',(0.,0.,1.));
#996=DIRECTION('',(-1.,0.,0.));
#997=DIRECTION('',(0.,0.,1.));
#998=DIRECTION('',(0.,0.,1.));
#999=DIRECTION('',(0.,-1.,0.));
#1000=DIRECTION('',(0.,-1.,0.));
#1001=DIRECTION('',(0.,0.,-1.));
#1002=DIRECTION('',(0.,-1.,0.));
#1003=DIRECTION('',(0.,0.,-1.));
#1004=DIRECTION('',(0.,-1.,0.));
#1005=DIRECTION('',(0.,0.,-1.));
#1006=DIRECTION('',(0.,0.,1.));
#1007=DIRECTION('',(1.,0.,0.));
#1008=DIRECTION('',(-1.,0.,0.));
#1009=DIRECTION('',(0.,0.,1.));
#1010=DIRECTION('',(0.,-1.,0.));
#1011=DIRECTION('',(0.,0.,1.));
#1012=DIRECTION('',(1.,0.,0.));
#1013=DIRECTION('',(0.,-1.,0.));
#1014=DIRECTION('',(0.,0.,-1.));
#1015=DIRECTION('',(0.,-1.,0.));
#1016=DIRECTION('',(0.,0.,-1.));
#1017=DIRECTION('',(0.,1.,6.8475926683295E-17));
#1018=DIRECTION('',(0.,-6.8475926683295E-17,1.));
#1019=DIRECTION('',(0.,6.8475926683295E-17,-1.));
#1020=DIRECTION('',(-1.,0.,0.));
#1021=DIRECTION('',(0.,1.,-6.8475926683295E-17));
#1022=DIRECTION('',(0.,6.8475926683295E-17,1.));
#1023=DIRECTION('',(-1.,0.,0.));
#1024=DIRECTION('',(0.,-6.8475926683295E-17,-1.));
#1025=DIRECTION('',(0.,0.,-1.));
#1026=DIRECTION('',(-1.,0.,0.));
#1027=DIRECTION('',(0.,-1.,0.));
#1028=DIRECTION('',(1.,0.,0.));
#1029=DIRECTION('',(0.,1.,0.));
#1030=DIRECTION('',(1.,0.,0.));
#1031=DIRECTION('',(0.,0.,-1.));
#1032=DIRECTION('',(1.,0.,0.));
#1033=DIRECTION('',(0.,0.,-1.));
#1034=DIRECTION('',(1.,0.,0.));
#1035=DIRECTION('',(0.,0.,-1.));
#1036=DIRECTION('',(1.,0.,0.));
#1037=DIRECTION('',(0.,0.,-1.));
#1038=DIRECTION('',(0.,0.,1.));
#1039=DIRECTION('',(1.,0.,0.));
#1040=CARTESIAN_POINT('',(0.,0.,0.));
#1041=CARTESIAN_POINT('',(0.015,-0.032,0.0795));
#1042=CARTESIAN_POINT('',(0.015,-0.032,0.051));
#1043=CARTESIAN_POINT('',(0.015,-0.032,0.051));
#1044=CARTESIAN_POINT('',(0.015,-0.015,0.051));
#1045=CARTESIAN_POINT('',(0.015,-0.015,0.0795));
#1046=CARTESIAN_POINT('',(0.015,-0.015,0.108));
#1047=CARTESIAN_POINT('',(0.015,-0.032,0.108));
#1048=CARTESIAN_POINT('',(0.015,-0.032,0.108));
#1049=CARTESIAN_POINT('',(0.015,-0.032,0.0795));
#1050=CARTESIAN_POINT('',(-0.0075,-0.032,0.051));
#1051=CARTESIAN_POINT('',(0.,1.28587913910472E-18,0.051));
#1052=CARTESIAN_POINT('',(0.0146969384566991,-0.015,0.051));
#1053=CARTESIAN_POINT('',(-0.015,-0.0146969384566991,0.051));
#1054=CARTESIAN_POINT('',(-0.0075,-0.015,0.051));
#1055=CARTESIAN_POINT('',(-0.0075,-0.032,0.051));
#1056=CARTESIAN_POINT('',(-0.015,-0.032,0.051));
#1057=CARTESIAN_POINT('',(-0.015,-0.032,0.051));
#1058=CARTESIAN_POINT('',(0.,0.,0.108));
#1059=CARTESIAN_POINT('',(0.,7.9602041944578E-19,0.108));
#1060=CARTESIAN_POINT('',(0.013,7.9602041944578E-19,0.108));
#1061=CARTESIAN_POINT('',(0.025,-0.015,0.108));
#1062=CARTESIAN_POINT('',(0.025,-0.015,0.108));
#1063=CARTESIAN_POINT('',(0.025,0.0075,0.108));
#1064=CARTESIAN_POINT('',(0.025,0.015,0.108));
#1065=CARTESIAN_POINT('',(0.025,0.015,0.108));
#1066=CARTESIAN_POINT('',(0.0146969384566991,0.015,0.108));
#1067=CARTESIAN_POINT('',(0.,1.28587913910472E-18,0.108));
#1068=CARTESIAN_POINT('',(-0.015,-0.0146969384566991,0.108));
#1069=CARTESIAN_POINT('',(-0.015,-0.032,0.108));
#1070=CARTESIAN_POINT('',(-0.015,-0.032,0.108));
#1071=CARTESIAN_POINT('',(0.0075,-0.032,0.108));
#1072=CARTESIAN_POINT('',(-0.008,-0.02,0.108));
#1073=CARTESIAN_POINT('',(-0.008,-0.016,0.108));
#1074=CARTESIAN_POINT('',(-0.008,-0.024,0.108));
#1075=CARTESIAN_POINT('',(-1.7347234759768E-18,-0.016,0.108));
#1076=CARTESIAN_POINT('',(0.008,-0.016,0.108));
#1077=CARTESIAN_POINT('',(0.008,-0.02,0.108));
#1078=CARTESIAN_POINT('',(0.008,-0.024,0.108));
#1079=CARTESIAN_POINT('',(-1.7347234759768E-18,-0.024,0.108));
#1080=CARTESIAN_POINT('',(0.01625,0.0525,0.012));
#1081=CARTESIAN_POINT('',(0.01625,0.0525,0.));
#1082=CARTESIAN_POINT('',(-0.0325,0.0525,0.));
#1083=CARTESIAN_POINT('',(0.0325,0.0525,0.));
#1084=CARTESIAN_POINT('',(-0.0325,0.0525,0.012));
#1085=CARTESIAN_POINT('',(-0.0325,0.0525,0.012));
#1086=CARTESIAN_POINT('',(0.01625,0.0525,0.012));
#1087=CARTESIAN_POINT('',(0.0325,0.0525,0.012));
#1088=CARTESIAN_POINT('',(0.0325,0.0525,0.012));
#1089=CARTESIAN_POINT('',(-0.0325,0.0325,0.012));
#1090=CARTESIAN_POINT('',(-0.0325,0.0325,0.));
#1091=CARTESIAN_POINT('',(-0.0525,0.0325,0.));
#1092=CARTESIAN_POINT('',(-0.0525,0.0325,0.012));
#1093=CARTESIAN_POINT('',(-0.0525,0.0325,0.012));
#1094=CARTESIAN_POINT('',(-0.0325,0.0325,0.012));
#1095=CARTESIAN_POINT('',(-0.0525,0.01625,0.012));
#1096=CARTESIAN_POINT('',(-0.0525,0.01625,0.));
#1097=CARTESIAN_POINT('',(-0.0525,-0.0325,0.));
#1098=CARTESIAN_POINT('',(-0.0525,-0.0325,0.012));
#1099=CARTESIAN_POINT('',(-0.0525,-0.0325,0.012));
#1100=CARTESIAN_POINT('',(-0.0525,0.01625,0.012));
#1101=CARTESIAN_POINT('',(-0.0325,-0.0325,0.012));
#1102=CARTESIAN_POINT('',(-0.0325,-0.0325,0.));
#1103=CARTESIAN_POINT('',(-0.0325,-0.0525,0.));
#1104=CARTESIAN_POINT('',(-0.0325,-0.0525,0.012));
#1105=CARTESIAN_POINT('',(-0.0325,-0.0525,0.012));
#1106=CARTESIAN_POINT('',(-0.0325,-0.0325,0.012));
#1107=CARTESIAN_POINT('',(-0.01625,-0.0525,0.012));
#1108=CARTESIAN_POINT('',(-0.01625,-0.0525,0.));
#1109=CARTESIAN_POINT('',(0.0325,-0.0525,0.));
#1110=CARTESIAN_POINT('',(0.0325,-0.0525,0.012));
#1111=CARTESIAN_POINT('',(0.0325,-0.0525,0.012));
#1112=CARTESIAN_POINT('',(-0.01625,-0.0525,0.012));
#1113=CARTESIAN_POINT('',(0.0325,-0.0325,0.012));
#1114=CARTESIAN_POINT('',(0.0325,-0.0325,0.));
#1115=CARTESIAN_POINT('',(0.0525,-0.0325,0.));
#1116=CARTESIAN_POINT('',(0.0525,-0.0325,0.012));
#1117=CARTESIAN_POINT('',(0.0525,-0.0325,0.012));
#1118=CARTESIAN_POINT('',(0.0325,-0.0325,0.012));
#1119=CARTESIAN_POINT('',(0.0525,-0.01625,0.012));
#1120=CARTESIAN_POINT('',(0.0525,-0.01625,0.));
#1121=CARTESIAN_POINT('',(0.0525,0.0325,0.));
#1122=CARTESIAN_POINT('',(0.0525,0.0325,0.012));
#1123=CARTESIAN_POINT('',(0.0525,0.0325,0.012));
#1124=CARTESIAN_POINT('',(0.0525,-0.01625,0.012));
#1125=CARTESIAN_POINT('',(-0.0325,0.032,0.012));
#1126=CARTESIAN_POINT('',(-0.0325,0.032,0.01));
#1127=CARTESIAN_POINT('',(-0.0225,0.032,0.01));
#1128=CARTESIAN_POINT('',(-0.0325,0.032,0.012));
#1129=CARTESIAN_POINT('',(-0.0225,0.032,0.012));
#1130=CARTESIAN_POINT('',(-0.0325,-0.032,0.012));
#1131=CARTESIAN_POINT('',(-0.0325,-0.032,0.01));
#1132=CARTESIAN_POINT('',(-0.0225,-0.032,0.01));
#1133=CARTESIAN_POINT('',(-0.0325,-0.032,0.012));
#1134=CARTESIAN_POINT('',(-0.0225,-0.032,0.012));
#1135=CARTESIAN_POINT('',(0.0325,-0.032,0.012));
#1136=CARTESIAN_POINT('',(0.0325,-0.032,0.01));
#1137=CARTESIAN_POINT('',(0.0425,-0.032,0.01));
#1138=CARTESIAN_POINT('',(0.0325,-0.032,0.012));
#1139=CARTESIAN_POINT('',(0.0425,-0.032,0.012));
#1140=CARTESIAN_POINT('',(0.0325,0.032,0.012));
#1141=CARTESIAN_POINT('',(0.0325,0.032,0.01));
#1142=CARTESIAN_POINT('',(0.0425,0.032,0.01));
#1143=CARTESIAN_POINT('',(0.0325,0.032,0.012));
#1144=CARTESIAN_POINT('',(0.0425,0.032,0.012));
#1145=CARTESIAN_POINT('',(0.0325,0.0325,0.012));
#1146=CARTESIAN_POINT('',(0.0325,0.0325,0.));
#1147=CARTESIAN_POINT('',(0.0325,0.0325,0.012));
#1148=CARTESIAN_POINT('',(0.,0.,0.012));
#1149=CARTESIAN_POINT('',(0.,1.28587913910472E-18,0.012));
#1150=CARTESIAN_POINT('',(0.026,1.28587913910472E-18,0.012));
#1151=CARTESIAN_POINT('',(0.,0.,0.));
#1152=CARTESIAN_POINT('',(0.0325,0.032,0.));
#1153=CARTESIAN_POINT('',(0.0375,0.032,0.));
#1154=CARTESIAN_POINT('',(0.0325,-0.032,0.));
#1155=CARTESIAN_POINT('',(0.0375,-0.032,0.));
#1156=CARTESIAN_POINT('',(-0.0325,-0.032,0.));
#1157=CARTESIAN_POINT('',(-0.0275,-0.032,0.));
#1158=CARTESIAN_POINT('',(-0.0325,0.032,0.));
#1159=CARTESIAN_POINT('',(-0.0275,0.032,0.));
#1160=CARTESIAN_POINT('',(0.0325,0.032,0.01));
#1161=CARTESIAN_POINT('',(0.0325,0.032,0.01));
#1162=CARTESIAN_POINT('',(0.0375,0.032,0.01));
#1163=CARTESIAN_POINT('',(0.,0.,0.01));
#1164=CARTESIAN_POINT('',(0.0325,-0.032,0.01));
#1165=CARTESIAN_POINT('',(0.0325,-0.032,0.01));
#1166=CARTESIAN_POINT('',(0.0375,-0.032,0.01));
#1167=CARTESIAN_POINT('',(0.,0.,0.01));
#1168=CARTESIAN_POINT('',(-0.0325,-0.032,0.01));
#1169=CARTESIAN_POINT('',(-0.0325,-0.032,0.01));
#1170=CARTESIAN_POINT('',(-0.0275,-0.032,0.01));
#1171=CARTESIAN_POINT('',(0.,0.,0.01));
#1172=CARTESIAN_POINT('',(-0.0325,0.032,0.01));
#1173=CARTESIAN_POINT('',(-0.0325,0.032,0.01));
#1174=CARTESIAN_POINT('',(-0.0275,0.032,0.01));
#1175=CARTESIAN_POINT('',(0.,0.,0.01));
#1176=CARTESIAN_POINT('',(0.,7.9602041944578E-19,0.108));
#1177=CARTESIAN_POINT('',(0.0128448636113105,-0.00239067585419921,0.0823263140896755));
#1178=CARTESIAN_POINT('',(0.0130774947589655,5.5934007189948E-7,0.0818370212561618));
#1179=CARTESIAN_POINT('',(0.0128451573528276,0.00238843849391162,0.0823256008856776));
#1180=CARTESIAN_POINT('',(0.0122922843766795,0.00435161304232983,0.0836547743204906));
#1181=CARTESIAN_POINT('',(0.0117112885195312,0.00567152556314096,0.0856100342058407));
#1182=CARTESIAN_POINT('',(0.0114439879682949,0.00616261970463044,0.0879861177763802));
#1183=CARTESIAN_POINT('',(0.0117081655660091,0.00567793720451124,0.0903806426103128));
#1184=CARTESIAN_POINT('',(0.0122914799965788,0.00435421850710333,0.0923427017488817));
#1185=CARTESIAN_POINT('',(0.0128436675534891,0.00239426244640549,0.0936711215263194));
#1186=CARTESIAN_POINT('',(0.01307713751082,1.39025458574234E-5,0.0941621509503836));
#1187=CARTESIAN_POINT('',(0.0128477486649281,-0.00237732489307184,0.0936802015724317));
#1188=CARTESIAN_POINT('',(0.0122932755166514,-0.00434968476754966,0.09234825865877));
#1189=CARTESIAN_POINT('',(0.0117111445964398,-0.00567178201543049,0.0903906035470167));
#1190=CARTESIAN_POINT('',(0.0114442033797454,-0.00616218097804843,0.0880114968900082));
#1191=CARTESIAN_POINT('',(0.0117074435262076,-0.00567944395641963,0.0856234784054506));
#1192=CARTESIAN_POINT('',(0.0122915969260396,-0.00435405752045497,0.0836562264383171));
#1193=CARTESIAN_POINT('',(0.0128448636113105,-0.00239067585419921,0.0823263140896755));
#1194=CARTESIAN_POINT('',(0.0130774947589655,5.5934007189948E-7,0.0818370212561618));
#1195=CARTESIAN_POINT('',(0.0128451573528276,0.00238843849391162,0.0823256008856776));
#1196=CARTESIAN_POINT('',(0.013,1.89175968276451E-18,0.082));
#1197=CARTESIAN_POINT('',(0.0128448636113105,-0.00239067585419921,0.0523263140896755));
#1198=CARTESIAN_POINT('',(0.0130774947589655,5.59340071900618E-7,0.0518370212561617));
#1199=CARTESIAN_POINT('',(0.0128451573528276,0.00238843849391162,0.0523256008856775));
#1200=CARTESIAN_POINT('',(0.0122922843766795,0.00435161304232982,0.0536547743204907));
#1201=CARTESIAN_POINT('',(0.0117112885195312,0.00567152556314095,0.0556100342058406));
#1202=CARTESIAN_POINT('',(0.0114439879682949,0.00616261970463044,0.0579861177763802));
#1203=CARTESIAN_POINT('',(0.0117081655660091,0.00567793720451124,0.0603806426103128));
#1204=CARTESIAN_POINT('',(0.0122914799965788,0.00435421850710333,0.0623427017488817));
#1205=CARTESIAN_POINT('',(0.0128436675534891,0.00239426244640551,0.0636711215263194));
#1206=CARTESIAN_POINT('',(0.01307713751082,1.39025458574207E-5,0.0641621509503835));
#1207=CARTESIAN_POINT('',(0.0128477486649281,-0.00237732489307182,0.0636802015724318));
#1208=CARTESIAN_POINT('',(0.0122932755166514,-0.0043496847675497,0.06234825865877));
#1209=CARTESIAN_POINT('',(0.0117111445964398,-0.00567178201543047,0.0603906035470167));
#1210=CARTESIAN_POINT('',(0.0114442033797454,-0.00616218097804843,0.0580114968900082));
#1211=CARTESIAN_POINT('',(0.0117074435262076,-0.00567944395641962,0.0556234784054506));
#1212=CARTESIAN_POINT('',(0.0122915969260395,-0.004354057520455,0.0536562264383172));
#1213=CARTESIAN_POINT('',(0.0128448636113105,-0.00239067585419921,0.0523263140896755));
#1214=CARTESIAN_POINT('',(0.0130774947589655,5.59340071900618E-7,0.0518370212561617));
#1215=CARTESIAN_POINT('',(0.0128451573528276,0.00238843849391162,0.0523256008856775));
#1216=CARTESIAN_POINT('',(0.013,1.20354403017781E-18,0.052));
#1217=CARTESIAN_POINT('',(0.,7.9602041944578E-19,0.012));
#1218=CARTESIAN_POINT('',(0.013,7.9602041944578E-19,0.012));
#1219=CARTESIAN_POINT('',(0.,1.28587913910472E-18,0.108));
#1220=CARTESIAN_POINT('',(0.,1.28587913910472E-18,0.017));
#1221=CARTESIAN_POINT('',(0.021,1.28587913910472E-18,0.017));
#1222=CARTESIAN_POINT('',(0.0146969384566991,0.015,0.108));
#1223=CARTESIAN_POINT('',(0.0146969384566991,0.015,0.032));
#1224=CARTESIAN_POINT('',(0.,1.28587913910472E-18,0.032));
#1225=CARTESIAN_POINT('',(0.0146969384566991,-0.015,0.032));
#1226=CARTESIAN_POINT('',(0.0146969384566991,-0.015,0.108));
#1227=CARTESIAN_POINT('',(-0.015,-0.0146969384566991,0.108));
#1228=CARTESIAN_POINT('',(0.,0.,0.012));
#1229=CARTESIAN_POINT('',(-0.015,-0.032,0.0795));
#1230=CARTESIAN_POINT('',(-0.015,-0.032,0.0795));
#1231=CARTESIAN_POINT('',(-3.46944695195361E-18,-0.032,0.054));
#1232=CARTESIAN_POINT('',(-1.7347234759768E-18,-0.032,0.098));
#1233=CARTESIAN_POINT('',(-1.7347234759768E-18,-0.032,0.093));
#1234=CARTESIAN_POINT('',(-1.7347234759768E-18,-0.032,0.076));
#1235=CARTESIAN_POINT('',(-1.7347234759768E-18,-0.032,0.071));
#1236=CARTESIAN_POINT('',(-1.7347234759768E-18,-0.016,0.058));
#1237=CARTESIAN_POINT('',(-0.008,-0.016,0.058));
#1238=CARTESIAN_POINT('',(-0.008,-0.016,0.058));
#1239=CARTESIAN_POINT('',(-1.7347234759768E-18,-0.016,0.058));
#1240=CARTESIAN_POINT('',(0.008,-0.016,0.058));
#1241=CARTESIAN_POINT('',(0.008,-0.016,0.058));
#1242=CARTESIAN_POINT('',(-0.008,-0.02,0.058));
#1243=CARTESIAN_POINT('',(-0.008,-0.024,0.058));
#1244=CARTESIAN_POINT('',(-0.008,-0.024,0.058));
#1245=CARTESIAN_POINT('',(-0.008,-0.02,0.058));
#1246=CARTESIAN_POINT('',(-1.7347234759768E-18,-0.024,0.058));
#1247=CARTESIAN_POINT('',(-1.7347234759768E-18,-0.024,0.098));
#1248=CARTESIAN_POINT('',(-1.7347234759768E-18,-0.024,0.093));
#1249=CARTESIAN_POINT('',(-1.7347234759768E-18,-0.024,0.076));
#1250=CARTESIAN_POINT('',(-1.7347234759768E-18,-0.024,0.071));
#1251=CARTESIAN_POINT('',(0.008,-0.024,0.058));
#1252=CARTESIAN_POINT('',(0.008,-0.024,0.058));
#1253=CARTESIAN_POINT('',(-1.7347234759768E-18,-0.024,0.058));
#1254=CARTESIAN_POINT('',(0.008,-0.02,0.058));
#1255=CARTESIAN_POINT('',(0.008,-0.02,0.058));
#1256=CARTESIAN_POINT('',(0.,-0.0145,0.058));
#1257=CARTESIAN_POINT('',(-1.7347234759768E-18,0.052502,0.076));
#1258=CARTESIAN_POINT('',(-1.7347234759768E-18,0.052502,0.098));
#1259=CARTESIAN_POINT('',(0.025,0.015,0.07));
#1260=CARTESIAN_POINT('',(0.025,0.015,0.07));
#1261=CARTESIAN_POINT('',(0.025,0.015,0.032));
#1262=CARTESIAN_POINT('',(0.025,0.015,0.032));
#1263=CARTESIAN_POINT('',(0.025,-0.015,0.07));
#1264=CARTESIAN_POINT('',(0.025,-0.015,0.032));
#1265=CARTESIAN_POINT('',(0.025,-0.015,0.032));
#1266=CARTESIAN_POINT('',(0.025,-0.015,0.07));
#1267=CARTESIAN_POINT('',(0.025,-0.0075,0.032));
#1268=CARTESIAN_POINT('',(0.025,-0.0075,0.032));
#1269=CARTESIAN_POINT('',(0.025,0.,0.054));
#1270=CARTESIAN_POINT('',(0.025,1.7347234759768E-18,0.088));
#1271=CARTESIAN_POINT('',(0.025,1.7347234759768E-18,0.082));
#1272=CARTESIAN_POINT('',(0.025,1.7347234759768E-18,0.058));
#1273=CARTESIAN_POINT('',(0.025,1.7347234759768E-18,0.052));
#1274=CARTESIAN_POINT('',(-0.052502,1.7347234759768E-18,0.058));
#1275=CARTESIAN_POINT('',(-0.052502,1.7347234759768E-18,0.088));
#1276=CARTESIAN_POINT('',(0.,1.28587913910472E-18,0.017));
#1277=MECHANICAL_DESIGN_GEOMETRIC_PRESENTATION_REPRESENTATION('',(#734),
#1278);
#1278=(
GEOMETRIC_REPRESENTATION_CONTEXT(3)
GLOBAL_UNCERTAINTY_ASSIGNED_CONTEXT((#1279))
GLOBAL_UNIT_ASSIGNED_CONTEXT((#1282,#1281,#1280))
REPRESENTATION_CONTEXT('Part 1','TOP_LEVEL_ASSEMBLY_PART')
);
#1279=UNCERTAINTY_MEASURE_WITH_UNIT(LENGTH_MEASURE(2.E-5),#1282,
'DISTANCE_ACCURACY_VALUE','Maximum Tolerance applied to model');
#1280=(
NAMED_UNIT(*)
SI_UNIT($,.STERADIAN.)
SOLID_ANGLE_UNIT()
);
#1281=(
NAMED_UNIT(*)
PLANE_ANGLE_UNIT()
SI_UNIT($,.RADIAN.)
);
#1282=(
LENGTH_UNIT()
NAMED_UNIT(*)
SI_UNIT($,.METRE.)
);
#1283=PRODUCT_DEFINITION_SHAPE('','',#1284);
#1284=PRODUCT_DEFINITION('','',#1286,#1285);
#1285=PRODUCT_DEFINITION_CONTEXT('',#1292,'design');
#1286=PRODUCT_DEFINITION_FORMATION_WITH_SPECIFIED_SOURCE('','',#1288,
 .NOT_KNOWN.);
#1287=PRODUCT_RELATED_PRODUCT_CATEGORY('','',(#1288));
#1288=PRODUCT('Part 1','Part 1','Part 1',(#1290));
#1289=PRODUCT_CATEGORY('','');
#1290=PRODUCT_CONTEXT('',#1292,'mechanical');
#1291=APPLICATION_PROTOCOL_DEFINITION('international standard',
'ap242_managed_model_based_3d_engineering',2020,#1292);
#1292=APPLICATION_CONTEXT('managed model based 3d engineering');
ENDSEC;
END-ISO-10303-21;
