ISO-10303-21;
HEADER;
/* Generated by software containing ST-Developer
 * from STEP Tools, Inc. (www.steptools.com) 
 */
/* OPTION: using custom renumber hook */

FILE_DESCRIPTION(
/* description */ ('STEP AP242 Edition 2',
'CAx-IF Rec.Pracs.---Representation and Presentation of Product Manufa
cturing Information (PMI)---4.0---2014-10-13',
'CAx-IF Rec.Pracs.---3D Tessellated Geometry---0.4---2014-09-14','2;1',
'CAx-IF Rec.Pracs.---User Defined Attributes---1.5---2016-08-15'),
/* implementation_level */ '2;1');

FILE_NAME(
/* name */ 'Part Studio 1',
/* time_stamp */ '2026-06-28T09:57:37Z',
/* author */ (''),
/* organization */ (''),
/* preprocessor_version */ 'ST-DEVELOPER v20',
/* originating_system */ 'ONSHAPE BY PTC INC, 1.217',
/* authorisation */ '  ');

FILE_SCHEMA (('AP242_MANAGED_MODEL_BASED_3D_ENGINEERING_MIM_LF { 1 0 10303 442 3 1 4 }'));
ENDSEC;

DATA;
#10=SHAPE_REPRESENTATION_RELATIONSHIP('','',#949,#11);
#11=ADVANCED_BREP_SHAPE_REPRESENTATION('',(#947),#1605);
#12=CYLINDRICAL_SURFACE('',#960,0.00635);
#13=CYLINDRICAL_SURFACE('',#961,0.00635);
#14=CYLINDRICAL_SURFACE('',#963,0.03175);
#15=CYLINDRICAL_SURFACE('',#969,0.0254);
#16=CYLINDRICAL_SURFACE('',#978,0.00635);
#17=CYLINDRICAL_SURFACE('',#988,0.00635);
#18=CYLINDRICAL_SURFACE('',#989,0.00635);
#19=CYLINDRICAL_SURFACE('',#996,0.009525);
#20=CYLINDRICAL_SURFACE('',#997,0.00635);
#21=CYLINDRICAL_SURFACE('',#1004,0.009525);
#22=CYLINDRICAL_SURFACE('',#1005,0.00635);
#23=CYLINDRICAL_SURFACE('',#1007,0.0254);
#24=CYLINDRICAL_SURFACE('',#1016,0.00635);
#25=CYLINDRICAL_SURFACE('',#1026,0.00635);
#26=CYLINDRICAL_SURFACE('',#1027,0.00635);
#27=CYLINDRICAL_SURFACE('',#1034,0.009525);
#28=CYLINDRICAL_SURFACE('',#1035,0.00635);
#29=CYLINDRICAL_SURFACE('',#1042,0.009525);
#30=CYLINDRICAL_SURFACE('',#1043,0.00635);
#31=CYLINDRICAL_SURFACE('',#1050,0.009525);
#32=CYLINDRICAL_SURFACE('',#1051,0.00635);
#33=CIRCLE('',#955,0.00635);
#34=CIRCLE('',#956,0.00635);
#35=CIRCLE('',#958,0.00635);
#36=CIRCLE('',#959,0.00635);
#37=CIRCLE('',#964,0.03175);
#38=CIRCLE('',#965,0.03175);
#39=CIRCLE('',#970,0.0254);
#40=CIRCLE('',#971,0.0254);
#41=CIRCLE('',#979,0.00635);
#42=CIRCLE('',#980,0.00635);
#43=CIRCLE('',#983,0.00635);
#44=CIRCLE('',#984,0.00635);
#45=CIRCLE('',#986,0.00635);
#46=CIRCLE('',#987,0.00635);
#47=CIRCLE('',#991,0.00635);
#48=CIRCLE('',#992,0.009525);
#49=CIRCLE('',#994,0.00635);
#50=CIRCLE('',#995,0.009525);
#51=CIRCLE('',#999,0.00635);
#52=CIRCLE('',#1000,0.009525);
#53=CIRCLE('',#1002,0.00635);
#54=CIRCLE('',#1003,0.009525);
#55=CIRCLE('',#1008,0.0254);
#56=CIRCLE('',#1009,0.0254);
#57=CIRCLE('',#1017,0.00635);
#58=CIRCLE('',#1018,0.00635);
#59=CIRCLE('',#1021,0.00635);
#60=CIRCLE('',#1022,0.00635);
#61=CIRCLE('',#1024,0.00635);
#62=CIRCLE('',#1025,0.00635);
#63=CIRCLE('',#1029,0.00635);
#64=CIRCLE('',#1030,0.009525);
#65=CIRCLE('',#1032,0.00635);
#66=CIRCLE('',#1033,0.009525);
#67=CIRCLE('',#1037,0.00635);
#68=CIRCLE('',#1038,0.009525);
#69=CIRCLE('',#1040,0.00635);
#70=CIRCLE('',#1041,0.009525);
#71=CIRCLE('',#1045,0.00635);
#72=CIRCLE('',#1046,0.009525);
#73=CIRCLE('',#1048,0.00635);
#74=CIRCLE('',#1049,0.009525);
#75=ORIENTED_EDGE('',*,*,#331,.F.);
#76=ORIENTED_EDGE('',*,*,#332,.T.);
#77=ORIENTED_EDGE('',*,*,#333,.T.);
#78=ORIENTED_EDGE('',*,*,#334,.T.);
#79=ORIENTED_EDGE('',*,*,#335,.F.);
#80=ORIENTED_EDGE('',*,*,#336,.T.);
#81=ORIENTED_EDGE('',*,*,#337,.T.);
#82=ORIENTED_EDGE('',*,*,#338,.F.);
#83=ORIENTED_EDGE('',*,*,#339,.T.);
#84=ORIENTED_EDGE('',*,*,#340,.T.);
#85=ORIENTED_EDGE('',*,*,#341,.F.);
#86=ORIENTED_EDGE('',*,*,#342,.T.);
#87=ORIENTED_EDGE('',*,*,#337,.F.);
#88=ORIENTED_EDGE('',*,*,#343,.T.);
#89=ORIENTED_EDGE('',*,*,#339,.F.);
#90=ORIENTED_EDGE('',*,*,#344,.T.);
#91=ORIENTED_EDGE('',*,*,#331,.T.);
#92=ORIENTED_EDGE('',*,*,#345,.T.);
#93=ORIENTED_EDGE('',*,*,#341,.T.);
#94=ORIENTED_EDGE('',*,*,#346,.T.);
#95=ORIENTED_EDGE('',*,*,#335,.T.);
#96=ORIENTED_EDGE('',*,*,#347,.F.);
#97=ORIENTED_EDGE('',*,*,#333,.F.);
#98=ORIENTED_EDGE('',*,*,#348,.T.);
#99=ORIENTED_EDGE('',*,*,#346,.F.);
#100=ORIENTED_EDGE('',*,*,#340,.F.);
#101=ORIENTED_EDGE('',*,*,#343,.F.);
#102=ORIENTED_EDGE('',*,*,#336,.F.);
#103=ORIENTED_EDGE('',*,*,#348,.F.);
#104=ORIENTED_EDGE('',*,*,#332,.F.);
#105=ORIENTED_EDGE('',*,*,#344,.F.);
#106=ORIENTED_EDGE('',*,*,#342,.F.);
#107=ORIENTED_EDGE('',*,*,#349,.F.);
#108=ORIENTED_EDGE('',*,*,#350,.T.);
#109=ORIENTED_EDGE('',*,*,#351,.T.);
#110=ORIENTED_EDGE('',*,*,#352,.F.);
#111=ORIENTED_EDGE('',*,*,#353,.F.);
#112=ORIENTED_EDGE('',*,*,#354,.T.);
#113=ORIENTED_EDGE('',*,*,#353,.T.);
#114=ORIENTED_EDGE('',*,*,#355,.F.);
#115=ORIENTED_EDGE('',*,*,#356,.T.);
#116=ORIENTED_EDGE('',*,*,#352,.T.);
#117=ORIENTED_EDGE('',*,*,#357,.F.);
#118=ORIENTED_EDGE('',*,*,#354,.F.);
#119=ORIENTED_EDGE('',*,*,#358,.T.);
#120=ORIENTED_EDGE('',*,*,#359,.T.);
#121=ORIENTED_EDGE('',*,*,#350,.F.);
#122=ORIENTED_EDGE('',*,*,#360,.F.);
#123=ORIENTED_EDGE('',*,*,#361,.F.);
#124=ORIENTED_EDGE('',*,*,#362,.T.);
#125=ORIENTED_EDGE('',*,*,#363,.T.);
#126=ORIENTED_EDGE('',*,*,#364,.F.);
#127=ORIENTED_EDGE('',*,*,#363,.F.);
#128=ORIENTED_EDGE('',*,*,#365,.T.);
#129=ORIENTED_EDGE('',*,*,#366,.T.);
#130=ORIENTED_EDGE('',*,*,#367,.F.);
#131=ORIENTED_EDGE('',*,*,#366,.F.);
#132=ORIENTED_EDGE('',*,*,#368,.F.);
#133=ORIENTED_EDGE('',*,*,#369,.T.);
#134=ORIENTED_EDGE('',*,*,#370,.T.);
#135=ORIENTED_EDGE('',*,*,#371,.F.);
#136=ORIENTED_EDGE('',*,*,#372,.F.);
#137=ORIENTED_EDGE('',*,*,#373,.T.);
#138=ORIENTED_EDGE('',*,*,#374,.T.);
#139=ORIENTED_EDGE('',*,*,#374,.F.);
#140=ORIENTED_EDGE('',*,*,#375,.T.);
#141=ORIENTED_EDGE('',*,*,#364,.T.);
#142=ORIENTED_EDGE('',*,*,#367,.T.);
#143=ORIENTED_EDGE('',*,*,#370,.F.);
#144=ORIENTED_EDGE('',*,*,#376,.F.);
#145=ORIENTED_EDGE('',*,*,#377,.F.);
#146=ORIENTED_EDGE('',*,*,#372,.T.);
#147=ORIENTED_EDGE('',*,*,#378,.T.);
#148=ORIENTED_EDGE('',*,*,#368,.T.);
#149=ORIENTED_EDGE('',*,*,#365,.F.);
#150=ORIENTED_EDGE('',*,*,#362,.F.);
#151=ORIENTED_EDGE('',*,*,#379,.F.);
#152=ORIENTED_EDGE('',*,*,#380,.T.);
#153=ORIENTED_EDGE('',*,*,#381,.T.);
#154=ORIENTED_EDGE('',*,*,#382,.T.);
#155=ORIENTED_EDGE('',*,*,#383,.T.);
#156=ORIENTED_EDGE('',*,*,#384,.T.);
#157=ORIENTED_EDGE('',*,*,#385,.F.);
#158=ORIENTED_EDGE('',*,*,#386,.T.);
#159=ORIENTED_EDGE('',*,*,#387,.T.);
#160=ORIENTED_EDGE('',*,*,#388,.F.);
#161=ORIENTED_EDGE('',*,*,#389,.F.);
#162=ORIENTED_EDGE('',*,*,#390,.T.);
#163=ORIENTED_EDGE('',*,*,#391,.T.);
#164=ORIENTED_EDGE('',*,*,#392,.F.);
#165=ORIENTED_EDGE('',*,*,#387,.F.);
#166=ORIENTED_EDGE('',*,*,#381,.F.);
#167=ORIENTED_EDGE('',*,*,#393,.T.);
#168=ORIENTED_EDGE('',*,*,#383,.F.);
#169=ORIENTED_EDGE('',*,*,#394,.T.);
#170=ORIENTED_EDGE('',*,*,#391,.F.);
#171=ORIENTED_EDGE('',*,*,#395,.T.);
#172=ORIENTED_EDGE('',*,*,#388,.T.);
#173=ORIENTED_EDGE('',*,*,#385,.T.);
#174=ORIENTED_EDGE('',*,*,#396,.T.);
#175=ORIENTED_EDGE('',*,*,#379,.T.);
#176=ORIENTED_EDGE('',*,*,#397,.T.);
#177=ORIENTED_EDGE('',*,*,#389,.T.);
#178=ORIENTED_EDGE('',*,*,#398,.F.);
#179=ORIENTED_EDGE('',*,*,#396,.F.);
#180=ORIENTED_EDGE('',*,*,#384,.F.);
#181=ORIENTED_EDGE('',*,*,#393,.F.);
#182=ORIENTED_EDGE('',*,*,#380,.F.);
#183=ORIENTED_EDGE('',*,*,#397,.F.);
#184=ORIENTED_EDGE('',*,*,#382,.F.);
#185=ORIENTED_EDGE('',*,*,#395,.F.);
#186=ORIENTED_EDGE('',*,*,#390,.F.);
#187=ORIENTED_EDGE('',*,*,#386,.F.);
#188=ORIENTED_EDGE('',*,*,#399,.F.);
#189=ORIENTED_EDGE('',*,*,#371,.T.);
#190=ORIENTED_EDGE('',*,*,#400,.T.);
#191=ORIENTED_EDGE('',*,*,#369,.F.);
#192=ORIENTED_EDGE('',*,*,#401,.T.);
#193=ORIENTED_EDGE('',*,*,#392,.T.);
#194=ORIENTED_EDGE('',*,*,#402,.F.);
#195=ORIENTED_EDGE('',*,*,#402,.T.);
#196=ORIENTED_EDGE('',*,*,#394,.F.);
#197=ORIENTED_EDGE('',*,*,#400,.F.);
#198=ORIENTED_EDGE('',*,*,#376,.T.);
#199=ORIENTED_EDGE('',*,*,#401,.F.);
#200=ORIENTED_EDGE('',*,*,#378,.F.);
#201=ORIENTED_EDGE('',*,*,#399,.T.);
#202=ORIENTED_EDGE('',*,*,#398,.T.);
#203=ORIENTED_EDGE('',*,*,#373,.F.);
#204=ORIENTED_EDGE('',*,*,#403,.F.);
#205=ORIENTED_EDGE('',*,*,#404,.T.);
#206=ORIENTED_EDGE('',*,*,#405,.T.);
#207=ORIENTED_EDGE('',*,*,#351,.F.);
#208=ORIENTED_EDGE('',*,*,#406,.T.);
#209=ORIENTED_EDGE('',*,*,#361,.T.);
#210=ORIENTED_EDGE('',*,*,#407,.F.);
#211=ORIENTED_EDGE('',*,*,#407,.T.);
#212=ORIENTED_EDGE('',*,*,#375,.F.);
#213=ORIENTED_EDGE('',*,*,#405,.F.);
#214=ORIENTED_EDGE('',*,*,#357,.T.);
#215=ORIENTED_EDGE('',*,*,#406,.F.);
#216=ORIENTED_EDGE('',*,*,#359,.F.);
#217=ORIENTED_EDGE('',*,*,#403,.T.);
#218=ORIENTED_EDGE('',*,*,#377,.T.);
#219=ORIENTED_EDGE('',*,*,#408,.F.);
#220=ORIENTED_EDGE('',*,*,#409,.T.);
#221=ORIENTED_EDGE('',*,*,#410,.T.);
#222=ORIENTED_EDGE('',*,*,#411,.F.);
#223=ORIENTED_EDGE('',*,*,#410,.F.);
#224=ORIENTED_EDGE('',*,*,#412,.F.);
#225=ORIENTED_EDGE('',*,*,#413,.T.);
#226=ORIENTED_EDGE('',*,*,#414,.T.);
#227=ORIENTED_EDGE('',*,*,#413,.F.);
#228=ORIENTED_EDGE('',*,*,#415,.F.);
#229=ORIENTED_EDGE('',*,*,#416,.T.);
#230=ORIENTED_EDGE('',*,*,#417,.T.);
#231=ORIENTED_EDGE('',*,*,#418,.T.);
#232=ORIENTED_EDGE('',*,*,#419,.T.);
#233=ORIENTED_EDGE('',*,*,#420,.F.);
#234=ORIENTED_EDGE('',*,*,#421,.F.);
#235=ORIENTED_EDGE('',*,*,#422,.F.);
#236=ORIENTED_EDGE('',*,*,#420,.T.);
#237=ORIENTED_EDGE('',*,*,#423,.T.);
#238=ORIENTED_EDGE('',*,*,#411,.T.);
#239=ORIENTED_EDGE('',*,*,#414,.F.);
#240=ORIENTED_EDGE('',*,*,#417,.F.);
#241=ORIENTED_EDGE('',*,*,#418,.F.);
#242=ORIENTED_EDGE('',*,*,#424,.T.);
#243=ORIENTED_EDGE('',*,*,#415,.T.);
#244=ORIENTED_EDGE('',*,*,#412,.T.);
#245=ORIENTED_EDGE('',*,*,#409,.F.);
#246=ORIENTED_EDGE('',*,*,#425,.F.);
#247=ORIENTED_EDGE('',*,*,#426,.T.);
#248=ORIENTED_EDGE('',*,*,#427,.T.);
#249=ORIENTED_EDGE('',*,*,#428,.F.);
#250=ORIENTED_EDGE('',*,*,#429,.T.);
#251=ORIENTED_EDGE('',*,*,#430,.F.);
#252=ORIENTED_EDGE('',*,*,#431,.T.);
#253=ORIENTED_EDGE('',*,*,#432,.T.);
#254=ORIENTED_EDGE('',*,*,#433,.T.);
#255=ORIENTED_EDGE('',*,*,#434,.F.);
#256=ORIENTED_EDGE('',*,*,#435,.T.);
#257=ORIENTED_EDGE('',*,*,#436,.T.);
#258=ORIENTED_EDGE('',*,*,#437,.T.);
#259=ORIENTED_EDGE('',*,*,#438,.F.);
#260=ORIENTED_EDGE('',*,*,#439,.F.);
#261=ORIENTED_EDGE('',*,*,#434,.T.);
#262=ORIENTED_EDGE('',*,*,#428,.T.);
#263=ORIENTED_EDGE('',*,*,#440,.T.);
#264=ORIENTED_EDGE('',*,*,#430,.T.);
#265=ORIENTED_EDGE('',*,*,#441,.F.);
#266=ORIENTED_EDGE('',*,*,#438,.T.);
#267=ORIENTED_EDGE('',*,*,#442,.T.);
#268=ORIENTED_EDGE('',*,*,#435,.F.);
#269=ORIENTED_EDGE('',*,*,#432,.F.);
#270=ORIENTED_EDGE('',*,*,#443,.T.);
#271=ORIENTED_EDGE('',*,*,#426,.F.);
#272=ORIENTED_EDGE('',*,*,#444,.T.);
#273=ORIENTED_EDGE('',*,*,#436,.F.);
#274=ORIENTED_EDGE('',*,*,#445,.T.);
#275=ORIENTED_EDGE('',*,*,#443,.F.);
#276=ORIENTED_EDGE('',*,*,#431,.F.);
#277=ORIENTED_EDGE('',*,*,#440,.F.);
#278=ORIENTED_EDGE('',*,*,#427,.F.);
#279=ORIENTED_EDGE('',*,*,#444,.F.);
#280=ORIENTED_EDGE('',*,*,#429,.F.);
#281=ORIENTED_EDGE('',*,*,#442,.F.);
#282=ORIENTED_EDGE('',*,*,#437,.F.);
#283=ORIENTED_EDGE('',*,*,#419,.F.);
#284=ORIENTED_EDGE('',*,*,#446,.F.);
#285=ORIENTED_EDGE('',*,*,#439,.T.);
#286=ORIENTED_EDGE('',*,*,#447,.T.);
#287=ORIENTED_EDGE('',*,*,#433,.F.);
#288=ORIENTED_EDGE('',*,*,#448,.T.);
#289=ORIENTED_EDGE('',*,*,#408,.T.);
#290=ORIENTED_EDGE('',*,*,#449,.F.);
#291=ORIENTED_EDGE('',*,*,#449,.T.);
#292=ORIENTED_EDGE('',*,*,#423,.F.);
#293=ORIENTED_EDGE('',*,*,#447,.F.);
#294=ORIENTED_EDGE('',*,*,#441,.T.);
#295=ORIENTED_EDGE('',*,*,#448,.F.);
#296=ORIENTED_EDGE('',*,*,#445,.F.);
#297=ORIENTED_EDGE('',*,*,#446,.T.);
#298=ORIENTED_EDGE('',*,*,#425,.T.);
#299=ORIENTED_EDGE('',*,*,#450,.F.);
#300=ORIENTED_EDGE('',*,*,#451,.F.);
#301=ORIENTED_EDGE('',*,*,#421,.T.);
#302=ORIENTED_EDGE('',*,*,#452,.T.);
#303=ORIENTED_EDGE('',*,*,#416,.F.);
#304=ORIENTED_EDGE('',*,*,#453,.T.);
#305=ORIENTED_EDGE('',*,*,#349,.T.);
#306=ORIENTED_EDGE('',*,*,#454,.F.);
#307=ORIENTED_EDGE('',*,*,#454,.T.);
#308=ORIENTED_EDGE('',*,*,#356,.F.);
#309=ORIENTED_EDGE('',*,*,#452,.F.);
#310=ORIENTED_EDGE('',*,*,#422,.T.);
#311=ORIENTED_EDGE('',*,*,#453,.F.);
#312=ORIENTED_EDGE('',*,*,#424,.F.);
#313=ORIENTED_EDGE('',*,*,#451,.T.);
#314=ORIENTED_EDGE('',*,*,#360,.T.);
#315=ORIENTED_EDGE('',*,*,#404,.F.);
#316=ORIENTED_EDGE('',*,*,#455,.F.);
#317=ORIENTED_EDGE('',*,*,#338,.T.);
#318=ORIENTED_EDGE('',*,*,#456,.T.);
#319=ORIENTED_EDGE('',*,*,#334,.F.);
#320=ORIENTED_EDGE('',*,*,#457,.T.);
#321=ORIENTED_EDGE('',*,*,#450,.T.);
#322=ORIENTED_EDGE('',*,*,#458,.F.);
#323=ORIENTED_EDGE('',*,*,#458,.T.);
#324=ORIENTED_EDGE('',*,*,#355,.T.);
#325=ORIENTED_EDGE('',*,*,#456,.F.);
#326=ORIENTED_EDGE('',*,*,#345,.F.);
#327=ORIENTED_EDGE('',*,*,#457,.F.);
#328=ORIENTED_EDGE('',*,*,#347,.T.);
#329=ORIENTED_EDGE('',*,*,#455,.T.);
#330=ORIENTED_EDGE('',*,*,#358,.F.);
#331=EDGE_CURVE('',#459,#460,#533,.T.);
#332=EDGE_CURVE('',#459,#461,#534,.T.);
#333=EDGE_CURVE('',#461,#462,#535,.T.);
#334=EDGE_CURVE('',#462,#460,#536,.T.);
#335=EDGE_CURVE('',#463,#464,#537,.T.);
#336=EDGE_CURVE('',#463,#465,#538,.F.);
#337=EDGE_CURVE('',#465,#466,#539,.T.);
#338=EDGE_CURVE('',#464,#466,#540,.F.);
#339=EDGE_CURVE('',#467,#468,#541,.T.);
#340=EDGE_CURVE('',#468,#469,#542,.T.);
#341=EDGE_CURVE('',#470,#469,#543,.F.);
#342=EDGE_CURVE('',#470,#467,#544,.T.);
#343=EDGE_CURVE('',#465,#468,#33,.T.);
#344=EDGE_CURVE('',#467,#459,#34,.T.);
#345=EDGE_CURVE('',#460,#466,#545,.T.);
#346=EDGE_CURVE('',#469,#463,#35,.F.);
#347=EDGE_CURVE('',#462,#464,#546,.T.);
#348=EDGE_CURVE('',#461,#470,#36,.F.);
#349=EDGE_CURVE('',#471,#472,#547,.F.);
#350=EDGE_CURVE('',#471,#473,#548,.T.);
#351=EDGE_CURVE('',#473,#474,#549,.T.);
#352=EDGE_CURVE('',#472,#474,#550,.T.);
#353=EDGE_CURVE('',#475,#475,#37,.F.);
#354=EDGE_CURVE('',#476,#476,#38,.F.);
#355=EDGE_CURVE('',#477,#478,#551,.F.);
#356=EDGE_CURVE('',#477,#472,#552,.F.);
#357=EDGE_CURVE('',#478,#474,#553,.T.);
#358=EDGE_CURVE('',#479,#480,#554,.F.);
#359=EDGE_CURVE('',#480,#473,#555,.T.);
#360=EDGE_CURVE('',#479,#471,#556,.F.);
#361=EDGE_CURVE('',#481,#482,#557,.T.);
#362=EDGE_CURVE('',#481,#483,#558,.T.);
#363=EDGE_CURVE('',#483,#484,#559,.T.);
#364=EDGE_CURVE('',#482,#484,#560,.T.);
#365=EDGE_CURVE('',#483,#485,#39,.T.);
#366=EDGE_CURVE('',#485,#486,#561,.T.);
#367=EDGE_CURVE('',#484,#486,#40,.T.);
#368=EDGE_CURVE('',#487,#485,#562,.T.);
#369=EDGE_CURVE('',#487,#488,#563,.F.);
#370=EDGE_CURVE('',#488,#486,#564,.T.);
#371=EDGE_CURVE('',#489,#490,#565,.T.);
#372=EDGE_CURVE('',#491,#489,#566,.F.);
#373=EDGE_CURVE('',#491,#492,#567,.T.);
#374=EDGE_CURVE('',#492,#490,#568,.T.);
#375=EDGE_CURVE('',#492,#482,#569,.F.);
#376=EDGE_CURVE('',#490,#488,#570,.T.);
#377=EDGE_CURVE('',#491,#481,#571,.F.);
#378=EDGE_CURVE('',#489,#487,#572,.T.);
#379=EDGE_CURVE('',#493,#494,#573,.F.);
#380=EDGE_CURVE('',#493,#495,#574,.F.);
#381=EDGE_CURVE('',#495,#496,#575,.T.);
#382=EDGE_CURVE('',#496,#494,#576,.T.);
#383=EDGE_CURVE('',#497,#498,#577,.T.);
#384=EDGE_CURVE('',#498,#499,#578,.T.);
#385=EDGE_CURVE('',#500,#499,#579,.T.);
#386=EDGE_CURVE('',#500,#497,#580,.T.);
#387=EDGE_CURVE('',#501,#501,#41,.T.);
#388=EDGE_CURVE('',#502,#502,#42,.T.);
#389=EDGE_CURVE('',#503,#504,#581,.F.);
#390=EDGE_CURVE('',#503,#505,#582,.F.);
#391=EDGE_CURVE('',#505,#506,#583,.T.);
#392=EDGE_CURVE('',#504,#506,#584,.T.);
#393=EDGE_CURVE('',#495,#498,#43,.T.);
#394=EDGE_CURVE('',#497,#506,#585,.F.);
#395=EDGE_CURVE('',#505,#496,#44,.T.);
#396=EDGE_CURVE('',#499,#493,#45,.F.);
#397=EDGE_CURVE('',#494,#503,#46,.F.);
#398=EDGE_CURVE('',#500,#504,#586,.F.);
#399=EDGE_CURVE('',#489,#500,#47,.T.);
#400=EDGE_CURVE('',#490,#497,#48,.T.);
#401=EDGE_CURVE('',#487,#504,#49,.T.);
#402=EDGE_CURVE('',#488,#506,#50,.T.);
#403=EDGE_CURVE('',#480,#491,#51,.T.);
#404=EDGE_CURVE('',#480,#478,#587,.T.);
#405=EDGE_CURVE('',#478,#492,#52,.T.);
#406=EDGE_CURVE('',#473,#481,#53,.T.);
#407=EDGE_CURVE('',#474,#482,#54,.T.);
#408=EDGE_CURVE('',#507,#508,#588,.F.);
#409=EDGE_CURVE('',#507,#509,#589,.F.);
#410=EDGE_CURVE('',#509,#510,#590,.T.);
#411=EDGE_CURVE('',#508,#510,#591,.T.);
#412=EDGE_CURVE('',#511,#509,#55,.T.);
#413=EDGE_CURVE('',#511,#512,#592,.T.);
#414=EDGE_CURVE('',#512,#510,#56,.T.);
#415=EDGE_CURVE('',#513,#511,#593,.T.);
#416=EDGE_CURVE('',#513,#514,#594,.T.);
#417=EDGE_CURVE('',#514,#512,#595,.T.);
#418=EDGE_CURVE('',#515,#516,#596,.F.);
#419=EDGE_CURVE('',#516,#517,#597,.T.);
#420=EDGE_CURVE('',#518,#517,#598,.T.);
#421=EDGE_CURVE('',#515,#518,#599,.T.);
#422=EDGE_CURVE('',#518,#514,#600,.T.);
#423=EDGE_CURVE('',#517,#508,#601,.F.);
#424=EDGE_CURVE('',#515,#513,#602,.T.);
#425=EDGE_CURVE('',#516,#507,#603,.F.);
#426=EDGE_CURVE('',#519,#520,#604,.T.);
#427=EDGE_CURVE('',#520,#521,#605,.T.);
#428=EDGE_CURVE('',#522,#521,#606,.T.);
#429=EDGE_CURVE('',#522,#519,#607,.F.);
#430=EDGE_CURVE('',#523,#524,#608,.T.);
#431=EDGE_CURVE('',#523,#525,#609,.F.);
#432=EDGE_CURVE('',#525,#526,#610,.F.);
#433=EDGE_CURVE('',#526,#524,#611,.T.);
#434=EDGE_CURVE('',#527,#527,#57,.T.);
#435=EDGE_CURVE('',#528,#528,#58,.T.);
#436=EDGE_CURVE('',#529,#530,#612,.T.);
#437=EDGE_CURVE('',#530,#531,#613,.T.);
#438=EDGE_CURVE('',#532,#531,#614,.T.);
#439=EDGE_CURVE('',#529,#532,#615,.T.);
#440=EDGE_CURVE('',#521,#523,#59,.T.);
#441=EDGE_CURVE('',#532,#524,#616,.T.);
#442=EDGE_CURVE('',#531,#522,#60,.T.);
#443=EDGE_CURVE('',#525,#520,#61,.F.);
#444=EDGE_CURVE('',#519,#530,#62,.F.);
#445=EDGE_CURVE('',#529,#526,#617,.T.);
#446=EDGE_CURVE('',#529,#516,#63,.T.);
#447=EDGE_CURVE('',#532,#517,#64,.T.);
#448=EDGE_CURVE('',#526,#507,#65,.T.);
#449=EDGE_CURVE('',#524,#508,#66,.T.);
#450=EDGE_CURVE('',#479,#477,#618,.F.);
#451=EDGE_CURVE('',#515,#479,#67,.T.);
#452=EDGE_CURVE('',#518,#477,#68,.T.);
#453=EDGE_CURVE('',#513,#471,#69,.T.);
#454=EDGE_CURVE('',#514,#472,#70,.T.);
#455=EDGE_CURVE('',#464,#480,#71,.T.);
#456=EDGE_CURVE('',#466,#478,#72,.T.);
#457=EDGE_CURVE('',#462,#479,#73,.T.);
#458=EDGE_CURVE('',#460,#477,#74,.T.);
#459=VERTEX_POINT('',#1345);
#460=VERTEX_POINT('',#1346);
#461=VERTEX_POINT('',#1348);
#462=VERTEX_POINT('',#1350);
#463=VERTEX_POINT('',#1354);
#464=VERTEX_POINT('',#1355);
#465=VERTEX_POINT('',#1357);
#466=VERTEX_POINT('',#1359);
#467=VERTEX_POINT('',#1363);
#468=VERTEX_POINT('',#1364);
#469=VERTEX_POINT('',#1366);
#470=VERTEX_POINT('',#1368);
#471=VERTEX_POINT('',#1382);
#472=VERTEX_POINT('',#1383);
#473=VERTEX_POINT('',#1385);
#474=VERTEX_POINT('',#1387);
#475=VERTEX_POINT('',#1391);
#476=VERTEX_POINT('',#1393);
#477=VERTEX_POINT('',#1396);
#478=VERTEX_POINT('',#1397);
#479=VERTEX_POINT('',#1402);
#480=VERTEX_POINT('',#1403);
#481=VERTEX_POINT('',#1408);
#482=VERTEX_POINT('',#1409);
#483=VERTEX_POINT('',#1411);
#484=VERTEX_POINT('',#1413);
#485=VERTEX_POINT('',#1417);
#486=VERTEX_POINT('',#1419);
#487=VERTEX_POINT('',#1423);
#488=VERTEX_POINT('',#1425);
#489=VERTEX_POINT('',#1429);
#490=VERTEX_POINT('',#1430);
#491=VERTEX_POINT('',#1432);
#492=VERTEX_POINT('',#1434);
#493=VERTEX_POINT('',#1444);
#494=VERTEX_POINT('',#1445);
#495=VERTEX_POINT('',#1447);
#496=VERTEX_POINT('',#1449);
#497=VERTEX_POINT('',#1453);
#498=VERTEX_POINT('',#1454);
#499=VERTEX_POINT('',#1456);
#500=VERTEX_POINT('',#1458);
#501=VERTEX_POINT('',#1462);
#502=VERTEX_POINT('',#1464);
#503=VERTEX_POINT('',#1467);
#504=VERTEX_POINT('',#1468);
#505=VERTEX_POINT('',#1470);
#506=VERTEX_POINT('',#1472);
#507=VERTEX_POINT('',#1503);
#508=VERTEX_POINT('',#1504);
#509=VERTEX_POINT('',#1506);
#510=VERTEX_POINT('',#1508);
#511=VERTEX_POINT('',#1512);
#512=VERTEX_POINT('',#1514);
#513=VERTEX_POINT('',#1518);
#514=VERTEX_POINT('',#1520);
#515=VERTEX_POINT('',#1524);
#516=VERTEX_POINT('',#1525);
#517=VERTEX_POINT('',#1527);
#518=VERTEX_POINT('',#1529);
#519=VERTEX_POINT('',#1539);
#520=VERTEX_POINT('',#1540);
#521=VERTEX_POINT('',#1542);
#522=VERTEX_POINT('',#1544);
#523=VERTEX_POINT('',#1548);
#524=VERTEX_POINT('',#1549);
#525=VERTEX_POINT('',#1551);
#526=VERTEX_POINT('',#1553);
#527=VERTEX_POINT('',#1557);
#528=VERTEX_POINT('',#1559);
#529=VERTEX_POINT('',#1562);
#530=VERTEX_POINT('',#1563);
#531=VERTEX_POINT('',#1565);
#532=VERTEX_POINT('',#1567);
#533=LINE('',#1344,#619);
#534=LINE('',#1347,#620);
#535=LINE('',#1349,#621);
#536=LINE('',#1351,#622);
#537=LINE('',#1353,#623);
#538=LINE('',#1356,#624);
#539=LINE('',#1358,#625);
#540=LINE('',#1360,#626);
#541=LINE('',#1362,#627);
#542=LINE('',#1365,#628);
#543=LINE('',#1367,#629);
#544=LINE('',#1369,#630);
#545=LINE('',#1373,#631);
#546=LINE('',#1376,#632);
#547=LINE('',#1381,#633);
#548=LINE('',#1384,#634);
#549=LINE('',#1386,#635);
#550=LINE('',#1388,#636);
#551=LINE('',#1395,#637);
#552=LINE('',#1398,#638);
#553=LINE('',#1399,#639);
#554=LINE('',#1401,#640);
#555=LINE('',#1404,#641);
#556=LINE('',#1405,#642);
#557=LINE('',#1407,#643);
#558=LINE('',#1410,#644);
#559=LINE('',#1412,#645);
#560=LINE('',#1414,#646);
#561=LINE('',#1418,#647);
#562=LINE('',#1422,#648);
#563=LINE('',#1424,#649);
#564=LINE('',#1426,#650);
#565=LINE('',#1428,#651);
#566=LINE('',#1431,#652);
#567=LINE('',#1433,#653);
#568=LINE('',#1435,#654);
#569=LINE('',#1437,#655);
#570=LINE('',#1438,#656);
#571=LINE('',#1440,#657);
#572=LINE('',#1441,#658);
#573=LINE('',#1443,#659);
#574=LINE('',#1446,#660);
#575=LINE('',#1448,#661);
#576=LINE('',#1450,#662);
#577=LINE('',#1452,#663);
#578=LINE('',#1455,#664);
#579=LINE('',#1457,#665);
#580=LINE('',#1459,#666);
#581=LINE('',#1466,#667);
#582=LINE('',#1469,#668);
#583=LINE('',#1471,#669);
#584=LINE('',#1473,#670);
#585=LINE('',#1476,#671);
#586=LINE('',#1481,#672);
#587=LINE('',#1494,#673);
#588=LINE('',#1502,#674);
#589=LINE('',#1505,#675);
#590=LINE('',#1507,#676);
#591=LINE('',#1509,#677);
#592=LINE('',#1513,#678);
#593=LINE('',#1517,#679);
#594=LINE('',#1519,#680);
#595=LINE('',#1521,#681);
#596=LINE('',#1523,#682);
#597=LINE('',#1526,#683);
#598=LINE('',#1528,#684);
#599=LINE('',#1530,#685);
#600=LINE('',#1532,#686);
#601=LINE('',#1533,#687);
#602=LINE('',#1535,#688);
#603=LINE('',#1536,#689);
#604=LINE('',#1538,#690);
#605=LINE('',#1541,#691);
#606=LINE('',#1543,#692);
#607=LINE('',#1545,#693);
#608=LINE('',#1547,#694);
#609=LINE('',#1550,#695);
#610=LINE('',#1552,#696);
#611=LINE('',#1554,#697);
#612=LINE('',#1561,#698);
#613=LINE('',#1564,#699);
#614=LINE('',#1566,#700);
#615=LINE('',#1568,#701);
#616=LINE('',#1571,#702);
#617=LINE('',#1576,#703);
#618=LINE('',#1588,#704);
#619=VECTOR('',#1056,1.);
#620=VECTOR('',#1057,1.);
#621=VECTOR('',#1058,1.);
#622=VECTOR('',#1059,1.);
#623=VECTOR('',#1062,1.);
#624=VECTOR('',#1063,1.);
#625=VECTOR('',#1064,1.);
#626=VECTOR('',#1065,1.);
#627=VECTOR('',#1068,1.);
#628=VECTOR('',#1069,1.);
#629=VECTOR('',#1070,1.);
#630=VECTOR('',#1071,1.);
#631=VECTOR('',#1078,1.);
#632=VECTOR('',#1083,1.);
#633=VECTOR('',#1092,1.);
#634=VECTOR('',#1093,1.);
#635=VECTOR('',#1094,1.);
#636=VECTOR('',#1095,1.);
#637=VECTOR('',#1104,1.);
#638=VECTOR('',#1105,1.);
#639=VECTOR('',#1106,1.);
#640=VECTOR('',#1109,1.);
#641=VECTOR('',#1110,1.);
#642=VECTOR('',#1111,1.);
#643=VECTOR('',#1114,1.);
#644=VECTOR('',#1115,1.);
#645=VECTOR('',#1116,1.);
#646=VECTOR('',#1117,1.);
#647=VECTOR('',#1122,1.);
#648=VECTOR('',#1127,1.);
#649=VECTOR('',#1128,1.);
#650=VECTOR('',#1129,1.);
#651=VECTOR('',#1132,1.);
#652=VECTOR('',#1133,1.);
#653=VECTOR('',#1134,1.);
#654=VECTOR('',#1135,1.);
#655=VECTOR('',#1138,1.);
#656=VECTOR('',#1139,1.);
#657=VECTOR('',#1142,1.);
#658=VECTOR('',#1143,1.);
#659=VECTOR('',#1146,1.);
#660=VECTOR('',#1147,1.);
#661=VECTOR('',#1148,1.);
#662=VECTOR('',#1149,1.);
#663=VECTOR('',#1152,1.);
#664=VECTOR('',#1153,1.);
#665=VECTOR('',#1154,1.);
#666=VECTOR('',#1155,1.);
#667=VECTOR('',#1164,1.);
#668=VECTOR('',#1165,1.);
#669=VECTOR('',#1166,1.);
#670=VECTOR('',#1167,1.);
#671=VECTOR('',#1172,1.);
#672=VECTOR('',#1181,1.);
#673=VECTOR('',#1206,1.);
#674=VECTOR('',#1221,1.);
#675=VECTOR('',#1222,1.);
#676=VECTOR('',#1223,1.);
#677=VECTOR('',#1224,1.);
#678=VECTOR('',#1229,1.);
#679=VECTOR('',#1234,1.);
#680=VECTOR('',#1235,1.);
#681=VECTOR('',#1236,1.);
#682=VECTOR('',#1239,1.);
#683=VECTOR('',#1240,1.);
#684=VECTOR('',#1241,1.);
#685=VECTOR('',#1242,1.);
#686=VECTOR('',#1245,1.);
#687=VECTOR('',#1246,1.);
#688=VECTOR('',#1249,1.);
#689=VECTOR('',#1250,1.);
#690=VECTOR('',#1253,1.);
#691=VECTOR('',#1254,1.);
#692=VECTOR('',#1255,1.);
#693=VECTOR('',#1256,1.);
#694=VECTOR('',#1259,1.);
#695=VECTOR('',#1260,1.);
#696=VECTOR('',#1261,1.);
#697=VECTOR('',#1262,1.);
#698=VECTOR('',#1271,1.);
#699=VECTOR('',#1272,1.);
#700=VECTOR('',#1273,1.);
#701=VECTOR('',#1274,1.);
#702=VECTOR('',#1279,1.);
#703=VECTOR('',#1288,1.);
#704=VECTOR('',#1311,1.);
#705=EDGE_LOOP('',(#75,#76,#77,#78));
#706=EDGE_LOOP('',(#79,#80,#81,#82));
#707=EDGE_LOOP('',(#83,#84,#85,#86));
#708=EDGE_LOOP('',(#87,#88,#89,#90,#91,#92));
#709=EDGE_LOOP('',(#93,#94,#95,#96,#97,#98));
#710=EDGE_LOOP('',(#99,#100,#101,#102));
#711=EDGE_LOOP('',(#103,#104,#105,#106));
#712=EDGE_LOOP('',(#107,#108,#109,#110));
#713=EDGE_LOOP('',(#111));
#714=EDGE_LOOP('',(#112));
#715=EDGE_LOOP('',(#113));
#716=EDGE_LOOP('',(#114,#115,#116,#117));
#717=EDGE_LOOP('',(#118));
#718=EDGE_LOOP('',(#119,#120,#121,#122));
#719=EDGE_LOOP('',(#123,#124,#125,#126));
#720=EDGE_LOOP('',(#127,#128,#129,#130));
#721=EDGE_LOOP('',(#131,#132,#133,#134));
#722=EDGE_LOOP('',(#135,#136,#137,#138));
#723=EDGE_LOOP('',(#139,#140,#141,#142,#143,#144));
#724=EDGE_LOOP('',(#145,#146,#147,#148,#149,#150));
#725=EDGE_LOOP('',(#151,#152,#153,#154));
#726=EDGE_LOOP('',(#155,#156,#157,#158));
#727=EDGE_LOOP('',(#159));
#728=EDGE_LOOP('',(#160));
#729=EDGE_LOOP('',(#161,#162,#163,#164));
#730=EDGE_LOOP('',(#165));
#731=EDGE_LOOP('',(#166,#167,#168,#169,#170,#171));
#732=EDGE_LOOP('',(#172));
#733=EDGE_LOOP('',(#173,#174,#175,#176,#177,#178));
#734=EDGE_LOOP('',(#179,#180,#181,#182));
#735=EDGE_LOOP('',(#183,#184,#185,#186));
#736=EDGE_LOOP('',(#187,#188,#189,#190));
#737=EDGE_LOOP('',(#191,#192,#193,#194));
#738=EDGE_LOOP('',(#195,#196,#197,#198));
#739=EDGE_LOOP('',(#199,#200,#201,#202));
#740=EDGE_LOOP('',(#203,#204,#205,#206));
#741=EDGE_LOOP('',(#207,#208,#209,#210));
#742=EDGE_LOOP('',(#211,#212,#213,#214));
#743=EDGE_LOOP('',(#215,#216,#217,#218));
#744=EDGE_LOOP('',(#219,#220,#221,#222));
#745=EDGE_LOOP('',(#223,#224,#225,#226));
#746=EDGE_LOOP('',(#227,#228,#229,#230));
#747=EDGE_LOOP('',(#231,#232,#233,#234));
#748=EDGE_LOOP('',(#235,#236,#237,#238,#239,#240));
#749=EDGE_LOOP('',(#241,#242,#243,#244,#245,#246));
#750=EDGE_LOOP('',(#247,#248,#249,#250));
#751=EDGE_LOOP('',(#251,#252,#253,#254));
#752=EDGE_LOOP('',(#255));
#753=EDGE_LOOP('',(#256));
#754=EDGE_LOOP('',(#257,#258,#259,#260));
#755=EDGE_LOOP('',(#261));
#756=EDGE_LOOP('',(#262,#263,#264,#265,#266,#267));
#757=EDGE_LOOP('',(#268));
#758=EDGE_LOOP('',(#269,#270,#271,#272,#273,#274));
#759=EDGE_LOOP('',(#275,#276,#277,#278));
#760=EDGE_LOOP('',(#279,#280,#281,#282));
#761=EDGE_LOOP('',(#283,#284,#285,#286));
#762=EDGE_LOOP('',(#287,#288,#289,#290));
#763=EDGE_LOOP('',(#291,#292,#293,#294));
#764=EDGE_LOOP('',(#295,#296,#297,#298));
#765=EDGE_LOOP('',(#299,#300,#301,#302));
#766=EDGE_LOOP('',(#303,#304,#305,#306));
#767=EDGE_LOOP('',(#307,#308,#309,#310));
#768=EDGE_LOOP('',(#311,#312,#313,#314));
#769=EDGE_LOOP('',(#315,#316,#317,#318));
#770=EDGE_LOOP('',(#319,#320,#321,#322));
#771=EDGE_LOOP('',(#323,#324,#325,#326));
#772=EDGE_LOOP('',(#327,#328,#329,#330));
#773=FACE_BOUND('',#705,.T.);
#774=FACE_BOUND('',#706,.T.);
#775=FACE_BOUND('',#707,.T.);
#776=FACE_BOUND('',#708,.T.);
#777=FACE_BOUND('',#709,.T.);
#778=FACE_BOUND('',#710,.T.);
#779=FACE_BOUND('',#711,.T.);
#780=FACE_BOUND('',#712,.T.);
#781=FACE_BOUND('',#713,.T.);
#782=FACE_BOUND('',#714,.T.);
#783=FACE_BOUND('',#715,.T.);
#784=FACE_BOUND('',#716,.T.);
#785=FACE_BOUND('',#717,.T.);
#786=FACE_BOUND('',#718,.T.);
#787=FACE_BOUND('',#719,.T.);
#788=FACE_BOUND('',#720,.T.);
#789=FACE_BOUND('',#721,.T.);
#790=FACE_BOUND('',#722,.T.);
#791=FACE_BOUND('',#723,.T.);
#792=FACE_BOUND('',#724,.T.);
#793=FACE_BOUND('',#725,.T.);
#794=FACE_BOUND('',#726,.T.);
#795=FACE_BOUND('',#727,.T.);
#796=FACE_BOUND('',#728,.T.);
#797=FACE_BOUND('',#729,.T.);
#798=FACE_BOUND('',#730,.T.);
#799=FACE_BOUND('',#731,.T.);
#800=FACE_BOUND('',#732,.T.);
#801=FACE_BOUND('',#733,.T.);
#802=FACE_BOUND('',#734,.T.);
#803=FACE_BOUND('',#735,.T.);
#804=FACE_BOUND('',#736,.T.);
#805=FACE_BOUND('',#737,.T.);
#806=FACE_BOUND('',#738,.T.);
#807=FACE_BOUND('',#739,.T.);
#808=FACE_BOUND('',#740,.T.);
#809=FACE_BOUND('',#741,.T.);
#810=FACE_BOUND('',#742,.T.);
#811=FACE_BOUND('',#743,.T.);
#812=FACE_BOUND('',#744,.T.);
#813=FACE_BOUND('',#745,.T.);
#814=FACE_BOUND('',#746,.T.);
#815=FACE_BOUND('',#747,.T.);
#816=FACE_BOUND('',#748,.T.);
#817=FACE_BOUND('',#749,.T.);
#818=FACE_BOUND('',#750,.T.);
#819=FACE_BOUND('',#751,.T.);
#820=FACE_BOUND('',#752,.T.);
#821=FACE_BOUND('',#753,.T.);
#822=FACE_BOUND('',#754,.T.);
#823=FACE_BOUND('',#755,.T.);
#824=FACE_BOUND('',#756,.T.);
#825=FACE_BOUND('',#757,.T.);
#826=FACE_BOUND('',#758,.T.);
#827=FACE_BOUND('',#759,.T.);
#828=FACE_BOUND('',#760,.T.);
#829=FACE_BOUND('',#761,.T.);
#830=FACE_BOUND('',#762,.T.);
#831=FACE_BOUND('',#763,.T.);
#832=FACE_BOUND('',#764,.T.);
#833=FACE_BOUND('',#765,.T.);
#834=FACE_BOUND('',#766,.T.);
#835=FACE_BOUND('',#767,.T.);
#836=FACE_BOUND('',#768,.T.);
#837=FACE_BOUND('',#769,.T.);
#838=FACE_BOUND('',#770,.T.);
#839=FACE_BOUND('',#771,.T.);
#840=FACE_BOUND('',#772,.T.);
#841=PLANE('',#951);
#842=PLANE('',#952);
#843=PLANE('',#953);
#844=PLANE('',#954);
#845=PLANE('',#957);
#846=PLANE('',#962);
#847=PLANE('',#966);
#848=PLANE('',#967);
#849=PLANE('',#968);
#850=PLANE('',#972);
#851=PLANE('',#973);
#852=PLANE('',#974);
#853=PLANE('',#975);
#854=PLANE('',#976);
#855=PLANE('',#977);
#856=PLANE('',#981);
#857=PLANE('',#982);
#858=PLANE('',#985);
#859=PLANE('',#990);
#860=PLANE('',#993);
#861=PLANE('',#998);
#862=PLANE('',#1001);
#863=PLANE('',#1006);
#864=PLANE('',#1010);
#865=PLANE('',#1011);
#866=PLANE('',#1012);
#867=PLANE('',#1013);
#868=PLANE('',#1014);
#869=PLANE('',#1015);
#870=PLANE('',#1019);
#871=PLANE('',#1020);
#872=PLANE('',#1023);
#873=PLANE('',#1028);
#874=PLANE('',#1031);
#875=PLANE('',#1036);
#876=PLANE('',#1039);
#877=PLANE('',#1044);
#878=PLANE('',#1047);
#879=ADVANCED_FACE('',(#773),#841,.T.);
#880=ADVANCED_FACE('',(#774),#842,.F.);
#881=ADVANCED_FACE('',(#775),#843,.F.);
#882=ADVANCED_FACE('',(#776),#844,.T.);
#883=ADVANCED_FACE('',(#777),#845,.F.);
#884=ADVANCED_FACE('',(#778),#12,.T.);
#885=ADVANCED_FACE('',(#779),#13,.T.);
#886=ADVANCED_FACE('',(#780),#846,.T.);
#887=ADVANCED_FACE('',(#781,#782),#14,.F.);
#888=ADVANCED_FACE('',(#783,#784),#847,.T.);
#889=ADVANCED_FACE('',(#785,#786),#848,.F.);
#890=ADVANCED_FACE('',(#787),#849,.T.);
#891=ADVANCED_FACE('',(#788),#15,.T.);
#892=ADVANCED_FACE('',(#789),#850,.F.);
#893=ADVANCED_FACE('',(#790),#851,.F.);
#894=ADVANCED_FACE('',(#791),#852,.T.);
#895=ADVANCED_FACE('',(#792),#853,.F.);
#896=ADVANCED_FACE('',(#793),#854,.F.);
#897=ADVANCED_FACE('',(#794),#855,.F.);
#898=ADVANCED_FACE('',(#795,#796),#16,.F.);
#899=ADVANCED_FACE('',(#797),#856,.F.);
#900=ADVANCED_FACE('',(#798,#799),#857,.T.);
#901=ADVANCED_FACE('',(#800,#801),#858,.F.);
#902=ADVANCED_FACE('',(#802),#17,.T.);
#903=ADVANCED_FACE('',(#803),#18,.T.);
#904=ADVANCED_FACE('',(#804),#859,.F.);
#905=ADVANCED_FACE('',(#805),#860,.T.);
#906=ADVANCED_FACE('',(#806),#19,.T.);
#907=ADVANCED_FACE('',(#807),#20,.F.);
#908=ADVANCED_FACE('',(#808),#861,.F.);
#909=ADVANCED_FACE('',(#809),#862,.T.);
#910=ADVANCED_FACE('',(#810),#21,.T.);
#911=ADVANCED_FACE('',(#811),#22,.F.);
#912=ADVANCED_FACE('',(#812),#863,.T.);
#913=ADVANCED_FACE('',(#813),#23,.T.);
#914=ADVANCED_FACE('',(#814),#864,.F.);
#915=ADVANCED_FACE('',(#815),#865,.T.);
#916=ADVANCED_FACE('',(#816),#866,.T.);
#917=ADVANCED_FACE('',(#817),#867,.F.);
#918=ADVANCED_FACE('',(#818),#868,.T.);
#919=ADVANCED_FACE('',(#819),#869,.T.);
#920=ADVANCED_FACE('',(#820,#821),#24,.F.);
#921=ADVANCED_FACE('',(#822),#870,.T.);
#922=ADVANCED_FACE('',(#823,#824),#871,.T.);
#923=ADVANCED_FACE('',(#825,#826),#872,.F.);
#924=ADVANCED_FACE('',(#827),#25,.T.);
#925=ADVANCED_FACE('',(#828),#26,.T.);
#926=ADVANCED_FACE('',(#829),#873,.F.);
#927=ADVANCED_FACE('',(#830),#874,.T.);
#928=ADVANCED_FACE('',(#831),#27,.T.);
#929=ADVANCED_FACE('',(#832),#28,.F.);
#930=ADVANCED_FACE('',(#833),#875,.F.);
#931=ADVANCED_FACE('',(#834),#876,.T.);
#932=ADVANCED_FACE('',(#835),#29,.T.);
#933=ADVANCED_FACE('',(#836),#30,.F.);
#934=ADVANCED_FACE('',(#837),#877,.F.);
#935=ADVANCED_FACE('',(#838),#878,.T.);
#936=ADVANCED_FACE('',(#839),#31,.T.);
#937=ADVANCED_FACE('',(#840),#32,.F.);
#938=CLOSED_SHELL('',(#879,#880,#881,#882,#883,#884,#885,#886,#887,#888,
#889,#890,#891,#892,#893,#894,#895,#896,#897,#898,#899,#900,#901,#902,#903,
#904,#905,#906,#907,#908,#909,#910,#911,#912,#913,#914,#915,#916,#917,#918,
#919,#920,#921,#922,#923,#924,#925,#926,#927,#928,#929,#930,#931,#932,#933,
#934,#935,#936,#937));
#939=STYLED_ITEM('',(#940),#947);
#940=PRESENTATION_STYLE_ASSIGNMENT((#941));
#941=SURFACE_STYLE_USAGE(.BOTH.,#942);
#942=SURFACE_SIDE_STYLE('',(#943));
#943=SURFACE_STYLE_FILL_AREA(#944);
#944=FILL_AREA_STYLE('',(#945));
#945=FILL_AREA_STYLE_COLOUR('',#946);
#946=COLOUR_RGB('',0.615686274509804,0.811764705882353,0.929411764705882);
#947=MANIFOLD_SOLID_BREP('Part 1',#938);
#948=SHAPE_DEFINITION_REPRESENTATION(#1610,#949);
#949=SHAPE_REPRESENTATION('Part 1',(#950),#1605);
#950=AXIS2_PLACEMENT_3D('',#1342,#1052,#1053);
#951=AXIS2_PLACEMENT_3D('',#1343,#1054,#1055);
#952=AXIS2_PLACEMENT_3D('',#1352,#1060,#1061);
#953=AXIS2_PLACEMENT_3D('',#1361,#1066,#1067);
#954=AXIS2_PLACEMENT_3D('',#1370,#1072,#1073);
#955=AXIS2_PLACEMENT_3D('',#1371,#1074,#1075);
#956=AXIS2_PLACEMENT_3D('',#1372,#1076,#1077);
#957=AXIS2_PLACEMENT_3D('',#1374,#1079,#1080);
#958=AXIS2_PLACEMENT_3D('',#1375,#1081,#1082);
#959=AXIS2_PLACEMENT_3D('',#1377,#1084,#1085);
#960=AXIS2_PLACEMENT_3D('',#1378,#1086,#1087);
#961=AXIS2_PLACEMENT_3D('',#1379,#1088,#1089);
#962=AXIS2_PLACEMENT_3D('',#1380,#1090,#1091);
#963=AXIS2_PLACEMENT_3D('',#1389,#1096,#1097);
#964=AXIS2_PLACEMENT_3D('',#1390,#1098,#1099);
#965=AXIS2_PLACEMENT_3D('',#1392,#1100,#1101);
#966=AXIS2_PLACEMENT_3D('',#1394,#1102,#1103);
#967=AXIS2_PLACEMENT_3D('',#1400,#1107,#1108);
#968=AXIS2_PLACEMENT_3D('',#1406,#1112,#1113);
#969=AXIS2_PLACEMENT_3D('',#1415,#1118,#1119);
#970=AXIS2_PLACEMENT_3D('',#1416,#1120,#1121);
#971=AXIS2_PLACEMENT_3D('',#1420,#1123,#1124);
#972=AXIS2_PLACEMENT_3D('',#1421,#1125,#1126);
#973=AXIS2_PLACEMENT_3D('',#1427,#1130,#1131);
#974=AXIS2_PLACEMENT_3D('',#1436,#1136,#1137);
#975=AXIS2_PLACEMENT_3D('',#1439,#1140,#1141);
#976=AXIS2_PLACEMENT_3D('',#1442,#1144,#1145);
#977=AXIS2_PLACEMENT_3D('',#1451,#1150,#1151);
#978=AXIS2_PLACEMENT_3D('',#1460,#1156,#1157);
#979=AXIS2_PLACEMENT_3D('',#1461,#1158,#1159);
#980=AXIS2_PLACEMENT_3D('',#1463,#1160,#1161);
#981=AXIS2_PLACEMENT_3D('',#1465,#1162,#1163);
#982=AXIS2_PLACEMENT_3D('',#1474,#1168,#1169);
#983=AXIS2_PLACEMENT_3D('',#1475,#1170,#1171);
#984=AXIS2_PLACEMENT_3D('',#1477,#1173,#1174);
#985=AXIS2_PLACEMENT_3D('',#1478,#1175,#1176);
#986=AXIS2_PLACEMENT_3D('',#1479,#1177,#1178);
#987=AXIS2_PLACEMENT_3D('',#1480,#1179,#1180);
#988=AXIS2_PLACEMENT_3D('',#1482,#1182,#1183);
#989=AXIS2_PLACEMENT_3D('',#1483,#1184,#1185);
#990=AXIS2_PLACEMENT_3D('',#1484,#1186,#1187);
#991=AXIS2_PLACEMENT_3D('',#1485,#1188,#1189);
#992=AXIS2_PLACEMENT_3D('',#1486,#1190,#1191);
#993=AXIS2_PLACEMENT_3D('',#1487,#1192,#1193);
#994=AXIS2_PLACEMENT_3D('',#1488,#1194,#1195);
#995=AXIS2_PLACEMENT_3D('',#1489,#1196,#1197);
#996=AXIS2_PLACEMENT_3D('',#1490,#1198,#1199);
#997=AXIS2_PLACEMENT_3D('',#1491,#1200,#1201);
#998=AXIS2_PLACEMENT_3D('',#1492,#1202,#1203);
#999=AXIS2_PLACEMENT_3D('',#1493,#1204,#1205);
#1000=AXIS2_PLACEMENT_3D('',#1495,#1207,#1208);
#1001=AXIS2_PLACEMENT_3D('',#1496,#1209,#1210);
#1002=AXIS2_PLACEMENT_3D('',#1497,#1211,#1212);
#1003=AXIS2_PLACEMENT_3D('',#1498,#1213,#1214);
#1004=AXIS2_PLACEMENT_3D('',#1499,#1215,#1216);
#1005=AXIS2_PLACEMENT_3D('',#1500,#1217,#1218);
#1006=AXIS2_PLACEMENT_3D('',#1501,#1219,#1220);
#1007=AXIS2_PLACEMENT_3D('',#1510,#1225,#1226);
#1008=AXIS2_PLACEMENT_3D('',#1511,#1227,#1228);
#1009=AXIS2_PLACEMENT_3D('',#1515,#1230,#1231);
#1010=AXIS2_PLACEMENT_3D('',#1516,#1232,#1233);
#1011=AXIS2_PLACEMENT_3D('',#1522,#1237,#1238);
#1012=AXIS2_PLACEMENT_3D('',#1531,#1243,#1244);
#1013=AXIS2_PLACEMENT_3D('',#1534,#1247,#1248);
#1014=AXIS2_PLACEMENT_3D('',#1537,#1251,#1252);
#1015=AXIS2_PLACEMENT_3D('',#1546,#1257,#1258);
#1016=AXIS2_PLACEMENT_3D('',#1555,#1263,#1264);
#1017=AXIS2_PLACEMENT_3D('',#1556,#1265,#1266);
#1018=AXIS2_PLACEMENT_3D('',#1558,#1267,#1268);
#1019=AXIS2_PLACEMENT_3D('',#1560,#1269,#1270);
#1020=AXIS2_PLACEMENT_3D('',#1569,#1275,#1276);
#1021=AXIS2_PLACEMENT_3D('',#1570,#1277,#1278);
#1022=AXIS2_PLACEMENT_3D('',#1572,#1280,#1281);
#1023=AXIS2_PLACEMENT_3D('',#1573,#1282,#1283);
#1024=AXIS2_PLACEMENT_3D('',#1574,#1284,#1285);
#1025=AXIS2_PLACEMENT_3D('',#1575,#1286,#1287);
#1026=AXIS2_PLACEMENT_3D('',#1577,#1289,#1290);
#1027=AXIS2_PLACEMENT_3D('',#1578,#1291,#1292);
#1028=AXIS2_PLACEMENT_3D('',#1579,#1293,#1294);
#1029=AXIS2_PLACEMENT_3D('',#1580,#1295,#1296);
#1030=AXIS2_PLACEMENT_3D('',#1581,#1297,#1298);
#1031=AXIS2_PLACEMENT_3D('',#1582,#1299,#1300);
#1032=AXIS2_PLACEMENT_3D('',#1583,#1301,#1302);
#1033=AXIS2_PLACEMENT_3D('',#1584,#1303,#1304);
#1034=AXIS2_PLACEMENT_3D('',#1585,#1305,#1306);
#1035=AXIS2_PLACEMENT_3D('',#1586,#1307,#1308);
#1036=AXIS2_PLACEMENT_3D('',#1587,#1309,#1310);
#1037=AXIS2_PLACEMENT_3D('',#1589,#1312,#1313);
#1038=AXIS2_PLACEMENT_3D('',#1590,#1314,#1315);
#1039=AXIS2_PLACEMENT_3D('',#1591,#1316,#1317);
#1040=AXIS2_PLACEMENT_3D('',#1592,#1318,#1319);
#1041=AXIS2_PLACEMENT_3D('',#1593,#1320,#1321);
#1042=AXIS2_PLACEMENT_3D('',#1594,#1322,#1323);
#1043=AXIS2_PLACEMENT_3D('',#1595,#1324,#1325);
#1044=AXIS2_PLACEMENT_3D('',#1596,#1326,#1327);
#1045=AXIS2_PLACEMENT_3D('',#1597,#1328,#1329);
#1046=AXIS2_PLACEMENT_3D('',#1598,#1330,#1331);
#1047=AXIS2_PLACEMENT_3D('',#1599,#1332,#1333);
#1048=AXIS2_PLACEMENT_3D('',#1600,#1334,#1335);
#1049=AXIS2_PLACEMENT_3D('',#1601,#1336,#1337);
#1050=AXIS2_PLACEMENT_3D('',#1602,#1338,#1339);
#1051=AXIS2_PLACEMENT_3D('',#1603,#1340,#1341);
#1052=DIRECTION('',(0.,0.,1.));
#1053=DIRECTION('',(1.,0.,0.));
#1054=DIRECTION('',(-1.,0.,0.));
#1055=DIRECTION('',(0.,1.,0.));
#1056=DIRECTION('',(0.,1.,0.));
#1057=DIRECTION('',(0.,0.,1.));
#1058=DIRECTION('',(0.,1.,0.));
#1059=DIRECTION('',(0.,0.,-1.));
#1060=DIRECTION('',(-1.,0.,0.));
#1061=DIRECTION('',(0.,1.,0.));
#1062=DIRECTION('',(0.,1.,0.));
#1063=DIRECTION('',(0.,0.,1.));
#1064=DIRECTION('',(0.,1.,0.));
#1065=DIRECTION('',(0.,0.,1.));
#1066=DIRECTION('',(0.,1.,0.));
#1067=DIRECTION('',(1.,0.,0.));
#1068=DIRECTION('',(1.,0.,0.));
#1069=DIRECTION('',(0.,0.,1.));
#1070=DIRECTION('',(-1.,0.,0.));
#1071=DIRECTION('',(0.,0.,-1.));
#1072=DIRECTION('',(0.,0.,-1.));
#1073=DIRECTION('',(-1.,0.,0.));
#1074=DIRECTION('',(0.,0.,-1.));
#1075=DIRECTION('',(-1.,0.,0.));
#1076=DIRECTION('',(0.,0.,-1.));
#1077=DIRECTION('',(-1.,0.,0.));
#1078=DIRECTION('',(1.,0.,0.));
#1079=DIRECTION('',(0.,0.,-1.));
#1080=DIRECTION('',(-1.,0.,0.));
#1081=DIRECTION('',(0.,0.,-1.));
#1082=DIRECTION('',(-1.,0.,0.));
#1083=DIRECTION('',(1.,0.,0.));
#1084=DIRECTION('',(0.,0.,-1.));
#1085=DIRECTION('',(-1.,0.,0.));
#1086=DIRECTION('',(0.,0.,-1.));
#1087=DIRECTION('',(-1.,0.,0.));
#1088=DIRECTION('',(0.,0.,1.));
#1089=DIRECTION('',(1.,0.,0.));
#1090=DIRECTION('',(0.,0.,1.));
#1091=DIRECTION('',(1.,0.,0.));
#1092=DIRECTION('',(0.,-1.,0.));
#1093=DIRECTION('',(1.,0.,0.));
#1094=DIRECTION('',(0.,1.,0.));
#1095=DIRECTION('',(1.,0.,0.));
#1096=DIRECTION('',(0.,1.,0.));
#1097=DIRECTION('',(0.,0.,1.));
#1098=DIRECTION('',(0.,1.,0.));
#1099=DIRECTION('',(0.,0.,1.));
#1100=DIRECTION('',(0.,1.,0.));
#1101=DIRECTION('',(0.,0.,1.));
#1102=DIRECTION('',(0.,1.,0.));
#1103=DIRECTION('',(0.,0.,1.));
#1104=DIRECTION('',(-1.,0.,0.));
#1105=DIRECTION('',(0.,0.,-1.));
#1106=DIRECTION('',(0.,0.,1.));
#1107=DIRECTION('',(0.,1.,0.));
#1108=DIRECTION('',(0.,0.,1.));
#1109=DIRECTION('',(-1.,0.,0.));
#1110=DIRECTION('',(0.,0.,1.));
#1111=DIRECTION('',(0.,0.,-1.));
#1112=DIRECTION('',(3.68505420890973E-17,-0.601815023152048,0.798635510047293));
#1113=DIRECTION('',(4.89023210532416E-17,-0.798635510047293,-0.601815023152048));
#1114=DIRECTION('',(1.,6.12323399573677E-17,0.));
#1115=DIRECTION('',(4.89023210532416E-17,-0.798635510047293,-0.601815023152048));
#1116=DIRECTION('',(1.,6.12323399573677E-17,0.));
#1117=DIRECTION('',(4.89023210532416E-17,-0.798635510047293,-0.601815023152048));
#1118=DIRECTION('',(1.,6.12323399573677E-17,0.));
#1119=DIRECTION('',(-6.12323399573677E-17,1.,0.));
#1120=DIRECTION('',(1.,6.12323399573677E-17,0.));
#1121=DIRECTION('',(-6.12323399573677E-17,1.,0.));
#1122=DIRECTION('',(1.,6.12323399573677E-17,0.));
#1123=DIRECTION('',(1.,6.12323399573677E-17,0.));
#1124=DIRECTION('',(-6.12323399573677E-17,1.,0.));
#1125=DIRECTION('',(-6.12323399573677E-17,1.,0.));
#1126=DIRECTION('',(0.,0.,1.));
#1127=DIRECTION('',(0.,0.,1.));
#1128=DIRECTION('',(-1.,-6.12323399573677E-17,0.));
#1129=DIRECTION('',(0.,0.,1.));
#1130=DIRECTION('',(0.,0.,1.));
#1131=DIRECTION('',(6.12323399573677E-17,-1.,0.));
#1132=DIRECTION('',(1.,6.12323399573677E-17,0.));
#1133=DIRECTION('',(-6.12323399573677E-17,1.,0.));
#1134=DIRECTION('',(1.,6.12323399573677E-17,0.));
#1135=DIRECTION('',(6.12323399573677E-17,-1.,0.));
#1136=DIRECTION('',(1.,6.12323399573677E-17,0.));
#1137=DIRECTION('',(-6.12323399573677E-17,1.,0.));
#1138=DIRECTION('',(0.,0.,-1.));
#1139=DIRECTION('',(6.12323399573677E-17,-1.,0.));
#1140=DIRECTION('',(1.,6.12323399573677E-17,0.));
#1141=DIRECTION('',(-6.12323399573677E-17,1.,0.));
#1142=DIRECTION('',(0.,0.,-1.));
#1143=DIRECTION('',(6.12323399573677E-17,-1.,0.));
#1144=DIRECTION('',(1.,0.,6.12323399573677E-17));
#1145=DIRECTION('',(7.54746861368278E-49,-1.,-1.23259516440783E-32));
#1146=DIRECTION('',(-7.54746861368278E-49,1.,1.23259516440783E-32));
#1147=DIRECTION('',(-6.12323399573677E-17,-1.23259516440783E-32,1.));
#1148=DIRECTION('',(7.54746861368278E-49,-1.,-1.23259516440783E-32));
#1149=DIRECTION('',(-6.12323399573677E-17,-1.23259516440783E-32,1.));
#1150=DIRECTION('',(7.54746861368278E-49,-1.,-1.23259516440783E-32));
#1151=DIRECTION('',(-1.,1.51929083932157E-64,-6.12323399573677E-17));
#1152=DIRECTION('',(-1.,1.51929083932157E-64,-6.12323399573677E-17));
#1153=DIRECTION('',(-6.12323399573677E-17,-1.23259516440783E-32,1.));
#1154=DIRECTION('',(-1.,0.,-6.12323399573677E-17));
#1155=DIRECTION('',(6.12323399573677E-17,1.23259516440783E-32,-1.));
#1156=DIRECTION('',(6.12323399573677E-17,1.23259516440783E-32,-1.));
#1157=DIRECTION('',(-1.,0.,-6.12323399573677E-17));
#1158=DIRECTION('',(6.12323399573677E-17,1.23259516440783E-32,-1.));
#1159=DIRECTION('',(-1.,0.,-6.12323399573677E-17));
#1160=DIRECTION('',(6.12323399573677E-17,1.23259516440783E-32,-1.));
#1161=DIRECTION('',(-1.,0.,-6.12323399573677E-17));
#1162=DIRECTION('',(-7.54746861368278E-49,1.,1.23259516440783E-32));
#1163=DIRECTION('',(1.,-1.51929083932157E-64,6.12323399573677E-17));
#1164=DIRECTION('',(-1.,0.,-6.12323399573677E-17));
#1165=DIRECTION('',(-6.12323399573677E-17,-1.23259516440783E-32,1.));
#1166=DIRECTION('',(1.,-1.51929083932157E-64,6.12323399573677E-17));
#1167=DIRECTION('',(6.12323399573677E-17,1.23259516440783E-32,-1.));
#1168=DIRECTION('',(6.12323399573677E-17,1.23259516440783E-32,-1.));
#1169=DIRECTION('',(-1.,0.,-6.12323399573677E-17));
#1170=DIRECTION('',(6.12323399573677E-17,1.23259516440783E-32,-1.));
#1171=DIRECTION('',(-1.,0.,-6.12323399573677E-17));
#1172=DIRECTION('',(-6.12323399573677E-17,1.,8.57655218742367E-33));
#1173=DIRECTION('',(6.12323399573677E-17,1.23259516440783E-32,-1.));
#1174=DIRECTION('',(-1.,0.,-6.12323399573677E-17));
#1175=DIRECTION('',(6.12323399573677E-17,1.23259516440783E-32,-1.));
#1176=DIRECTION('',(-1.,0.,-6.12323399573677E-17));
#1177=DIRECTION('',(6.12323399573677E-17,1.23259516440783E-32,-1.));
#1178=DIRECTION('',(-1.,0.,-6.12323399573677E-17));
#1179=DIRECTION('',(6.12323399573677E-17,1.23259516440783E-32,-1.));
#1180=DIRECTION('',(-1.,0.,-6.12323399573677E-17));
#1181=DIRECTION('',(-6.12323399573677E-17,1.,8.57655218742367E-33));
#1182=DIRECTION('',(6.12323399573677E-17,1.23259516440783E-32,-1.));
#1183=DIRECTION('',(-1.,0.,-6.12323399573677E-17));
#1184=DIRECTION('',(6.12323399573677E-17,1.23259516440783E-32,-1.));
#1185=DIRECTION('',(-1.,0.,-6.12323399573677E-17));
#1186=DIRECTION('',(0.,-1.,0.));
#1187=DIRECTION('',(0.,0.,-1.));
#1188=DIRECTION('',(0.,1.,0.));
#1189=DIRECTION('',(0.,0.,1.));
#1190=DIRECTION('',(0.,1.,0.));
#1191=DIRECTION('',(0.,0.,1.));
#1192=DIRECTION('',(0.,-1.,0.));
#1193=DIRECTION('',(0.,0.,-1.));
#1194=DIRECTION('',(0.,1.,0.));
#1195=DIRECTION('',(0.,0.,1.));
#1196=DIRECTION('',(0.,1.,0.));
#1197=DIRECTION('',(0.,0.,1.));
#1198=DIRECTION('',(0.,1.,0.));
#1199=DIRECTION('',(0.707106781186548,0.,-0.707106781186548));
#1200=DIRECTION('',(0.,1.,0.));
#1201=DIRECTION('',(0.707106781186548,0.,-0.707106781186548));
#1202=DIRECTION('',(0.,-1.87469972832732E-33,1.));
#1203=DIRECTION('',(0.,-1.,-1.87469972832732E-33));
#1204=DIRECTION('',(0.,1.87469972832732E-33,-1.));
#1205=DIRECTION('',(0.,1.,1.87469972832732E-33));
#1206=DIRECTION('',(0.,1.,0.));
#1207=DIRECTION('',(0.,1.87469972832732E-33,-1.));
#1208=DIRECTION('',(0.,1.,1.87469972832732E-33));
#1209=DIRECTION('',(0.,-1.87469972832732E-33,1.));
#1210=DIRECTION('',(0.,-1.,-1.87469972832732E-33));
#1211=DIRECTION('',(0.,1.87469972832732E-33,-1.));
#1212=DIRECTION('',(0.,1.,1.87469972832732E-33));
#1213=DIRECTION('',(0.,1.87469972832732E-33,-1.));
#1214=DIRECTION('',(0.,1.,1.87469972832732E-33));
#1215=DIRECTION('',(0.,1.87469972832732E-33,-1.));
#1216=DIRECTION('',(0.707106781186548,0.707106781186548,1.32561289058883E-33));
#1217=DIRECTION('',(0.,1.87469972832732E-33,-1.));
#1218=DIRECTION('',(0.707106781186548,0.707106781186548,1.32561289058883E-33));
#1219=DIRECTION('',(-6.12323399573677E-17,-1.,0.));
#1220=DIRECTION('',(0.,0.,1.));
#1221=DIRECTION('',(1.,-6.12323399573677E-17,0.));
#1222=DIRECTION('',(0.,0.,-1.));
#1223=DIRECTION('',(-1.,6.12323399573677E-17,0.));
#1224=DIRECTION('',(0.,0.,1.));
#1225=DIRECTION('',(-1.,6.12323399573677E-17,0.));
#1226=DIRECTION('',(-6.12323399573677E-17,-1.,0.));
#1227=DIRECTION('',(1.,-6.12323399573677E-17,0.));
#1228=DIRECTION('',(6.12323399573677E-17,1.,0.));
#1229=DIRECTION('',(-1.,6.12323399573677E-17,0.));
#1230=DIRECTION('',(1.,-6.12323399573677E-17,0.));
#1231=DIRECTION('',(6.12323399573677E-17,1.,0.));
#1232=DIRECTION('',(3.68505420890973E-17,0.601815023152048,-0.798635510047293));
#1233=DIRECTION('',(-4.89023210532416E-17,-0.798635510047293,-0.601815023152048));
#1234=DIRECTION('',(-4.89023210532416E-17,-0.798635510047293,-0.601815023152048));
#1235=DIRECTION('',(-1.,6.12323399573677E-17,0.));
#1236=DIRECTION('',(-4.89023210532416E-17,-0.798635510047293,-0.601815023152048));
#1237=DIRECTION('',(0.,0.,-1.));
#1238=DIRECTION('',(-6.12323399573677E-17,-1.,0.));
#1239=DIRECTION('',(6.12323399573677E-17,1.,0.));
#1240=DIRECTION('',(-1.,6.12323399573677E-17,0.));
#1241=DIRECTION('',(-6.12323399573677E-17,-1.,0.));
#1242=DIRECTION('',(-1.,6.12323399573677E-17,0.));
#1243=DIRECTION('',(-1.,6.12323399573677E-17,0.));
#1244=DIRECTION('',(6.12323399573677E-17,1.,0.));
#1245=DIRECTION('',(0.,0.,1.));
#1246=DIRECTION('',(6.12323399573677E-17,1.,0.));
#1247=DIRECTION('',(-1.,6.12323399573677E-17,0.));
#1248=DIRECTION('',(6.12323399573677E-17,1.,0.));
#1249=DIRECTION('',(0.,0.,1.));
#1250=DIRECTION('',(6.12323399573677E-17,1.,0.));
#1251=DIRECTION('',(1.,0.,-6.12323399573677E-17));
#1252=DIRECTION('',(-7.54746861368278E-49,-1.,-1.23259516440783E-32));
#1253=DIRECTION('',(-7.54746861368278E-49,-1.,-1.23259516440783E-32));
#1254=DIRECTION('',(-6.12323399573677E-17,1.23259516440783E-32,-1.));
#1255=DIRECTION('',(-7.54746861368278E-49,-1.,-1.23259516440783E-32));
#1256=DIRECTION('',(-6.12323399573677E-17,1.23259516440783E-32,-1.));
#1257=DIRECTION('',(-7.54746861368278E-49,-1.,-1.23259516440783E-32));
#1258=DIRECTION('',(-1.,-1.51929083932157E-64,6.12323399573677E-17));
#1259=DIRECTION('',(-1.,-1.51929083932157E-64,6.12323399573677E-17));
#1260=DIRECTION('',(-6.12323399573677E-17,1.23259516440783E-32,-1.));
#1261=DIRECTION('',(1.,0.,-6.12323399573677E-17));
#1262=DIRECTION('',(-6.12323399573677E-17,1.23259516440783E-32,-1.));
#1263=DIRECTION('',(-6.12323399573677E-17,1.23259516440783E-32,-1.));
#1264=DIRECTION('',(-1.,0.,6.12323399573677E-17));
#1265=DIRECTION('',(6.12323399573677E-17,-1.23259516440783E-32,1.));
#1266=DIRECTION('',(1.,0.,-6.12323399573677E-17));
#1267=DIRECTION('',(6.12323399573677E-17,-1.23259516440783E-32,1.));
#1268=DIRECTION('',(1.,0.,-6.12323399573677E-17));
#1269=DIRECTION('',(7.54746861368278E-49,1.,1.23259516440783E-32));
#1270=DIRECTION('',(1.,1.51929083932157E-64,-6.12323399573677E-17));
#1271=DIRECTION('',(1.,0.,-6.12323399573677E-17));
#1272=DIRECTION('',(-6.12323399573677E-17,1.23259516440783E-32,-1.));
#1273=DIRECTION('',(1.,1.51929083932157E-64,-6.12323399573677E-17));
#1274=DIRECTION('',(-6.12323399573677E-17,1.23259516440783E-32,-1.));
#1275=DIRECTION('',(-6.12323399573677E-17,1.23259516440783E-32,-1.));
#1276=DIRECTION('',(1.,0.,-6.12323399573677E-17));
#1277=DIRECTION('',(-6.12323399573677E-17,1.23259516440783E-32,-1.));
#1278=DIRECTION('',(-1.,0.,6.12323399573677E-17));
#1279=DIRECTION('',(-6.12323399573677E-17,-1.,-8.57655218742367E-33));
#1280=DIRECTION('',(-6.12323399573677E-17,1.23259516440783E-32,-1.));
#1281=DIRECTION('',(-1.,0.,6.12323399573677E-17));
#1282=DIRECTION('',(-6.12323399573677E-17,1.23259516440783E-32,-1.));
#1283=DIRECTION('',(1.,0.,-6.12323399573677E-17));
#1284=DIRECTION('',(-6.12323399573677E-17,1.23259516440783E-32,-1.));
#1285=DIRECTION('',(-1.,0.,6.12323399573677E-17));
#1286=DIRECTION('',(-6.12323399573677E-17,1.23259516440783E-32,-1.));
#1287=DIRECTION('',(-1.,0.,6.12323399573677E-17));
#1288=DIRECTION('',(-6.12323399573677E-17,-1.,-8.57655218742367E-33));
#1289=DIRECTION('',(-6.12323399573677E-17,1.23259516440783E-32,-1.));
#1290=DIRECTION('',(-1.,0.,6.12323399573677E-17));
#1291=DIRECTION('',(-6.12323399573677E-17,1.23259516440783E-32,-1.));
#1292=DIRECTION('',(-1.,0.,6.12323399573677E-17));
#1293=DIRECTION('',(0.,-1.,0.));
#1294=DIRECTION('',(0.,0.,-1.));
#1295=DIRECTION('',(0.,1.,0.));
#1296=DIRECTION('',(0.,0.,1.));
#1297=DIRECTION('',(0.,1.,0.));
#1298=DIRECTION('',(0.,0.,1.));
#1299=DIRECTION('',(0.,-1.,0.));
#1300=DIRECTION('',(0.,0.,-1.));
#1301=DIRECTION('',(0.,1.,0.));
#1302=DIRECTION('',(0.,0.,1.));
#1303=DIRECTION('',(0.,1.,0.));
#1304=DIRECTION('',(0.,0.,1.));
#1305=DIRECTION('',(0.,1.,0.));
#1306=DIRECTION('',(-0.707106781186548,0.,-0.707106781186548));
#1307=DIRECTION('',(0.,1.,0.));
#1308=DIRECTION('',(-0.707106781186548,0.,-0.707106781186548));
#1309=DIRECTION('',(0.,-1.87469972832732E-33,1.));
#1310=DIRECTION('',(0.,-1.,-1.87469972832732E-33));
#1311=DIRECTION('',(0.,-1.,0.));
#1312=DIRECTION('',(0.,1.87469972832732E-33,-1.));
#1313=DIRECTION('',(0.,1.,1.87469972832732E-33));
#1314=DIRECTION('',(0.,1.87469972832732E-33,-1.));
#1315=DIRECTION('',(0.,1.,1.87469972832732E-33));
#1316=DIRECTION('',(0.,-1.87469972832732E-33,1.));
#1317=DIRECTION('',(0.,-1.,-1.87469972832732E-33));
#1318=DIRECTION('',(0.,1.87469972832732E-33,-1.));
#1319=DIRECTION('',(0.,1.,1.87469972832732E-33));
#1320=DIRECTION('',(0.,1.87469972832732E-33,-1.));
#1321=DIRECTION('',(0.,1.,1.87469972832732E-33));
#1322=DIRECTION('',(0.,1.87469972832732E-33,-1.));
#1323=DIRECTION('',(-0.707106781186548,0.707106781186548,1.32561289058883E-33));
#1324=DIRECTION('',(0.,1.87469972832732E-33,-1.));
#1325=DIRECTION('',(-0.707106781186548,0.707106781186548,1.32561289058883E-33));
#1326=DIRECTION('',(-1.,0.,0.));
#1327=DIRECTION('',(0.,0.,1.));
#1328=DIRECTION('',(1.,0.,0.));
#1329=DIRECTION('',(0.,0.,-1.));
#1330=DIRECTION('',(1.,0.,0.));
#1331=DIRECTION('',(0.,0.,-1.));
#1332=DIRECTION('',(-1.,0.,0.));
#1333=DIRECTION('',(0.,0.,1.));
#1334=DIRECTION('',(1.,0.,0.));
#1335=DIRECTION('',(0.,0.,-1.));
#1336=DIRECTION('',(1.,0.,0.));
#1337=DIRECTION('',(0.,0.,-1.));
#1338=DIRECTION('',(1.,0.,0.));
#1339=DIRECTION('',(0.,0.707106781186548,-0.707106781186548));
#1340=DIRECTION('',(1.,0.,0.));
#1341=DIRECTION('',(0.,0.707106781186548,-0.707106781186548));
#1342=CARTESIAN_POINT('',(0.,0.,0.));
#1343=CARTESIAN_POINT('',(-0.047625,-0.0127,0.));
#1344=CARTESIAN_POINT('',(-0.047625,-0.0127,0.));
#1345=CARTESIAN_POINT('',(-0.047625,-0.01905,0.));
#1346=CARTESIAN_POINT('',(-0.047625,-0.009525,-1.7347234759768E-18));
#1347=CARTESIAN_POINT('',(-0.047625,-0.01905,0.));
#1348=CARTESIAN_POINT('',(-0.047625,-0.01905,0.003175));
#1349=CARTESIAN_POINT('',(-0.047625,-0.0127,0.003175));
#1350=CARTESIAN_POINT('',(-0.047625,-0.009525,0.003175));
#1351=CARTESIAN_POINT('',(-0.047625,-0.009525,0.));
#1352=CARTESIAN_POINT('',(0.047625,-0.0127,0.));
#1353=CARTESIAN_POINT('',(0.047625,-0.0127,0.003175));
#1354=CARTESIAN_POINT('',(0.047625,-0.01905,0.003175));
#1355=CARTESIAN_POINT('',(0.047625,-0.009525,0.003175));
#1356=CARTESIAN_POINT('',(0.047625,-0.01905,0.));
#1357=CARTESIAN_POINT('',(0.047625,-0.01905,0.));
#1358=CARTESIAN_POINT('',(0.047625,-0.0127,0.));
#1359=CARTESIAN_POINT('',(0.047625,-0.009525,0.));
#1360=CARTESIAN_POINT('',(0.047625,-0.009525,0.));
#1361=CARTESIAN_POINT('',(0.,-0.0254,0.));
#1362=CARTESIAN_POINT('',(0.,-0.0254,0.));
#1363=CARTESIAN_POINT('',(-0.041275,-0.0254,0.));
#1364=CARTESIAN_POINT('',(0.041275,-0.0254,0.));
#1365=CARTESIAN_POINT('',(0.041275,-0.0254,0.));
#1366=CARTESIAN_POINT('',(0.041275,-0.0254,0.003175));
#1367=CARTESIAN_POINT('',(0.,-0.0254,0.003175));
#1368=CARTESIAN_POINT('',(-0.041275,-0.0254,0.003175));
#1369=CARTESIAN_POINT('',(-0.041275,-0.0254,0.));
#1370=CARTESIAN_POINT('',(0.,-0.0127,0.));
#1371=CARTESIAN_POINT('',(0.041275,-0.01905,0.));
#1372=CARTESIAN_POINT('',(-0.041275,-0.01905,0.));
#1373=CARTESIAN_POINT('',(0.,-0.009525,0.));
#1374=CARTESIAN_POINT('',(0.,-0.0127,0.003175));
#1375=CARTESIAN_POINT('',(0.041275,-0.01905,0.003175));
#1376=CARTESIAN_POINT('',(0.,-0.009525,0.003175));
#1377=CARTESIAN_POINT('',(-0.041275,-0.01905,0.003175));
#1378=CARTESIAN_POINT('',(0.041275,-0.01905,0.));
#1379=CARTESIAN_POINT('',(-0.041275,-0.01905,0.));
#1380=CARTESIAN_POINT('',(0.,0.,0.1016));
#1381=CARTESIAN_POINT('',(-0.047625,0.,0.1016));
#1382=CARTESIAN_POINT('',(-0.047625,-0.003175,0.1016));
#1383=CARTESIAN_POINT('',(-0.047625,0.,0.1016));
#1384=CARTESIAN_POINT('',(0.,-0.003175,0.1016));
#1385=CARTESIAN_POINT('',(0.047625,-0.003175,0.1016));
#1386=CARTESIAN_POINT('',(0.047625,0.,0.1016));
#1387=CARTESIAN_POINT('',(0.047625,1.7347234759768E-18,0.1016));
#1388=CARTESIAN_POINT('',(0.,0.,0.1016));
#1389=CARTESIAN_POINT('',(0.,0.,0.0508));
#1390=CARTESIAN_POINT('',(0.,0.,0.0508));
#1391=CARTESIAN_POINT('',(0.,0.,0.08255));
#1392=CARTESIAN_POINT('',(0.,-0.003175,0.0508));
#1393=CARTESIAN_POINT('',(0.,-0.003175,0.08255));
#1394=CARTESIAN_POINT('',(0.,0.,0.0454264134168625));
#1395=CARTESIAN_POINT('',(0.,0.,0.009525));
#1396=CARTESIAN_POINT('',(-0.047625,1.7347234759768E-18,0.009525));
#1397=CARTESIAN_POINT('',(0.047625,1.7347234759768E-18,0.009525));
#1398=CARTESIAN_POINT('',(-0.047625,0.,0.0454264134168625));
#1399=CARTESIAN_POINT('',(0.047625,0.,0.0454264134168625));
#1400=CARTESIAN_POINT('',(0.,-0.003175,0.0454264134168625));
#1401=CARTESIAN_POINT('',(0.,-0.003175,0.009525));
#1402=CARTESIAN_POINT('',(-0.047625,-0.003175,0.009525));
#1403=CARTESIAN_POINT('',(0.047625,-0.003175,0.009525));
#1404=CARTESIAN_POINT('',(0.047625,-0.003175,0.0454264134168625));
#1405=CARTESIAN_POINT('',(-0.047625,-0.003175,0.0454264134168625));
#1406=CARTESIAN_POINT('',(0.05715,-0.050505550794031,0.0707189399737146));
#1407=CARTESIAN_POINT('',(0.05715,-0.009525,0.1016));
#1408=CARTESIAN_POINT('',(0.053975,-0.009525,0.1016));
#1409=CARTESIAN_POINT('',(0.05715,-0.009525,0.1016));
#1410=CARTESIAN_POINT('',(0.053975,-0.050505550794031,0.0707189399737146));
#1411=CARTESIAN_POINT('',(0.053975,-0.091486101588062,0.0398378799474293));
#1412=CARTESIAN_POINT('',(0.05715,-0.091486101588062,0.0398378799474293));
#1413=CARTESIAN_POINT('',(0.05715,-0.091486101588062,0.0398378799474293));
#1414=CARTESIAN_POINT('',(0.05715,-0.050505550794031,0.0707189399737146));
#1415=CARTESIAN_POINT('',(0.05715,-0.0762,0.0195525379922281));
#1416=CARTESIAN_POINT('',(0.053975,-0.0762,0.0195525379922281));
#1417=CARTESIAN_POINT('',(0.053975,-0.1016,0.0195525379922281));
#1418=CARTESIAN_POINT('',(0.05715,-0.1016,0.0195525379922281));
#1419=CARTESIAN_POINT('',(0.05715,-0.1016,0.0195525379922281));
#1420=CARTESIAN_POINT('',(0.05715,-0.0762,0.0195525379922281));
#1421=CARTESIAN_POINT('',(0.05715,-0.1016,0.0508));
#1422=CARTESIAN_POINT('',(0.053975,-0.1016,0.0508));
#1423=CARTESIAN_POINT('',(0.053975,-0.1016,0.009525));
#1424=CARTESIAN_POINT('',(0.05715,-0.1016,0.009525));
#1425=CARTESIAN_POINT('',(0.05715,-0.1016,0.009525));
#1426=CARTESIAN_POINT('',(0.05715,-0.1016,0.0508));
#1427=CARTESIAN_POINT('',(0.05715,-0.0555625,0.009525));
#1428=CARTESIAN_POINT('',(0.05715,-0.0508,0.009525));
#1429=CARTESIAN_POINT('',(0.053975,-0.0508,0.009525));
#1430=CARTESIAN_POINT('',(0.05715,-0.0508,0.009525));
#1431=CARTESIAN_POINT('',(0.053975,-0.0508,0.009525));
#1432=CARTESIAN_POINT('',(0.053975,-0.009525,0.009525));
#1433=CARTESIAN_POINT('',(0.05715,-0.009525,0.009525));
#1434=CARTESIAN_POINT('',(0.05715,-0.009525,0.009525));
#1435=CARTESIAN_POINT('',(0.05715,-0.0555625,0.009525));
#1436=CARTESIAN_POINT('',(0.05715,-0.0508,0.0508));
#1437=CARTESIAN_POINT('',(0.05715,-0.009525,0.0508));
#1438=CARTESIAN_POINT('',(0.05715,-0.0555625,0.009525));
#1439=CARTESIAN_POINT('',(0.053975,-0.0508,0.0508));
#1440=CARTESIAN_POINT('',(0.053975,-0.009525,0.0508));
#1441=CARTESIAN_POINT('',(0.053975,-0.0555625,0.009525));
#1442=CARTESIAN_POINT('',(0.01905,-0.0762,-2.31496338640974E-17));
#1443=CARTESIAN_POINT('',(0.01905,-0.0762,0.003175));
#1444=CARTESIAN_POINT('',(0.01905,-0.05715,0.003175));
#1445=CARTESIAN_POINT('',(0.01905,-0.09525,0.003175));
#1446=CARTESIAN_POINT('',(0.01905,-0.05715,-2.31496338640974E-17));
#1447=CARTESIAN_POINT('',(0.01905,-0.05715,-2.31496338640974E-17));
#1448=CARTESIAN_POINT('',(0.01905,-0.0762,-2.31496338640974E-17));
#1449=CARTESIAN_POINT('',(0.01905,-0.09525,-2.31496338640974E-17));
#1450=CARTESIAN_POINT('',(0.01905,-0.09525,-2.31496338640974E-17));
#1451=CARTESIAN_POINT('',(0.0381,-0.0508,-2.19831577879095E-17));
#1452=CARTESIAN_POINT('',(0.0381,-0.0508,-2.19831577879095E-17));
#1453=CARTESIAN_POINT('',(0.047625,-0.0508,-2.25514051876985E-17));
#1454=CARTESIAN_POINT('',(0.0254,-0.0508,-2.27608085053681E-17));
#1455=CARTESIAN_POINT('',(0.0254,-0.0508,-2.27608085053681E-17));
#1456=CARTESIAN_POINT('',(0.0254,-0.0508,0.003175));
#1457=CARTESIAN_POINT('',(0.0381,-0.0508,0.003175));
#1458=CARTESIAN_POINT('',(0.047625,-0.0508,0.003175));
#1459=CARTESIAN_POINT('',(0.047625,-0.0508,-2.13999197498156E-17));
#1460=CARTESIAN_POINT('',(0.03175,-0.0762,-2.23718342028806E-17));
#1461=CARTESIAN_POINT('',(0.03175,-0.0762,-2.23718342028806E-17));
#1462=CARTESIAN_POINT('',(0.0254,-0.0762,-2.27606595616099E-17));
#1463=CARTESIAN_POINT('',(0.03175,-0.0762,0.003175));
#1464=CARTESIAN_POINT('',(0.0254,-0.0762,0.003175));
#1465=CARTESIAN_POINT('',(0.0381,-0.1016,-2.19831577879095E-17));
#1466=CARTESIAN_POINT('',(0.0381,-0.1016,0.003175));
#1467=CARTESIAN_POINT('',(0.0254,-0.1016,0.003175));
#1468=CARTESIAN_POINT('',(0.047625,-0.1016,0.003175));
#1469=CARTESIAN_POINT('',(0.0254,-0.1016,-2.27608085053681E-17));
#1470=CARTESIAN_POINT('',(0.0254,-0.1016,-2.27608085053681E-17));
#1471=CARTESIAN_POINT('',(0.0381,-0.1016,-2.19831577879095E-17));
#1472=CARTESIAN_POINT('',(0.047625,-0.1016,-2.13999197498156E-17));
#1473=CARTESIAN_POINT('',(0.047625,-0.1016,-2.13999197498156E-17));
#1474=CARTESIAN_POINT('',(0.0381,-0.0762,-2.19831577879095E-17));
#1475=CARTESIAN_POINT('',(0.0254,-0.05715,-2.27608085053681E-17));
#1476=CARTESIAN_POINT('',(0.047625,-0.0762,-2.13999197498156E-17));
#1477=CARTESIAN_POINT('',(0.0254,-0.09525,-2.27608085053681E-17));
#1478=CARTESIAN_POINT('',(0.0381,-0.0762,0.003175));
#1479=CARTESIAN_POINT('',(0.0254,-0.05715,0.003175));
#1480=CARTESIAN_POINT('',(0.0254,-0.09525,0.003175));
#1481=CARTESIAN_POINT('',(0.047625,-0.0762,0.003175));
#1482=CARTESIAN_POINT('',(0.0254,-0.05715,-2.27608085053681E-17));
#1483=CARTESIAN_POINT('',(0.0254,-0.09525,-2.27608085053681E-17));
#1484=CARTESIAN_POINT('',(0.047625,-0.0508,0.009525));
#1485=CARTESIAN_POINT('',(0.047625,-0.0508,0.009525));
#1486=CARTESIAN_POINT('',(0.047625,-0.0508,0.009525));
#1487=CARTESIAN_POINT('',(0.047625,-0.1016,0.009525));
#1488=CARTESIAN_POINT('',(0.047625,-0.1016,0.009525));
#1489=CARTESIAN_POINT('',(0.047625,-0.1016,0.009525));
#1490=CARTESIAN_POINT('',(0.047625,-0.0762,0.009525));
#1491=CARTESIAN_POINT('',(0.047625,-0.0762,0.009525));
#1492=CARTESIAN_POINT('',(0.047625,-0.009525,0.009525));
#1493=CARTESIAN_POINT('',(0.047625,-0.009525,0.009525));
#1494=CARTESIAN_POINT('',(0.047625,0.,0.009525));
#1495=CARTESIAN_POINT('',(0.047625,-0.009525,0.009525));
#1496=CARTESIAN_POINT('',(0.047625,-0.009525,0.1016));
#1497=CARTESIAN_POINT('',(0.047625,-0.009525,0.1016));
#1498=CARTESIAN_POINT('',(0.047625,-0.009525,0.1016));
#1499=CARTESIAN_POINT('',(0.047625,-0.009525,0.0555625));
#1500=CARTESIAN_POINT('',(0.047625,-0.009525,0.0555625));
#1501=CARTESIAN_POINT('',(-0.05715,-0.1016,0.0508));
#1502=CARTESIAN_POINT('',(-0.05715,-0.1016,0.009525));
#1503=CARTESIAN_POINT('',(-0.053975,-0.1016,0.009525));
#1504=CARTESIAN_POINT('',(-0.05715,-0.1016,0.009525));
#1505=CARTESIAN_POINT('',(-0.053975,-0.1016,0.0508));
#1506=CARTESIAN_POINT('',(-0.053975,-0.1016,0.0195525379922281));
#1507=CARTESIAN_POINT('',(-0.05715,-0.1016,0.0195525379922281));
#1508=CARTESIAN_POINT('',(-0.05715,-0.1016,0.0195525379922281));
#1509=CARTESIAN_POINT('',(-0.05715,-0.1016,0.0508));
#1510=CARTESIAN_POINT('',(-0.05715,-0.0762,0.0195525379922281));
#1511=CARTESIAN_POINT('',(-0.053975,-0.0762,0.0195525379922281));
#1512=CARTESIAN_POINT('',(-0.053975,-0.091486101588062,0.0398378799474293));
#1513=CARTESIAN_POINT('',(-0.05715,-0.091486101588062,0.0398378799474293));
#1514=CARTESIAN_POINT('',(-0.05715,-0.091486101588062,0.0398378799474293));
#1515=CARTESIAN_POINT('',(-0.05715,-0.0762,0.0195525379922281));
#1516=CARTESIAN_POINT('',(-0.05715,-0.050505550794031,0.0707189399737146));
#1517=CARTESIAN_POINT('',(-0.053975,-0.050505550794031,0.0707189399737146));
#1518=CARTESIAN_POINT('',(-0.053975,-0.009525,0.1016));
#1519=CARTESIAN_POINT('',(-0.05715,-0.009525,0.1016));
#1520=CARTESIAN_POINT('',(-0.05715,-0.009525,0.1016));
#1521=CARTESIAN_POINT('',(-0.05715,-0.050505550794031,0.0707189399737146));
#1522=CARTESIAN_POINT('',(-0.05715,-0.0555625,0.009525));
#1523=CARTESIAN_POINT('',(-0.053975,-0.0508,0.009525));
#1524=CARTESIAN_POINT('',(-0.053975,-0.009525,0.009525));
#1525=CARTESIAN_POINT('',(-0.053975,-0.0508,0.009525));
#1526=CARTESIAN_POINT('',(-0.05715,-0.0508,0.009525));
#1527=CARTESIAN_POINT('',(-0.05715,-0.0508,0.009525));
#1528=CARTESIAN_POINT('',(-0.05715,-0.0555625,0.009525));
#1529=CARTESIAN_POINT('',(-0.05715,-0.009525,0.009525));
#1530=CARTESIAN_POINT('',(-0.05715,-0.009525,0.009525));
#1531=CARTESIAN_POINT('',(-0.05715,-0.0508,0.0508));
#1532=CARTESIAN_POINT('',(-0.05715,-0.009525,0.0454264134168625));
#1533=CARTESIAN_POINT('',(-0.05715,-0.0508,0.009525));
#1534=CARTESIAN_POINT('',(-0.053975,-0.0508,0.0508));
#1535=CARTESIAN_POINT('',(-0.053975,-0.009525,0.0454264134168625));
#1536=CARTESIAN_POINT('',(-0.053975,-0.0508,0.009525));
#1537=CARTESIAN_POINT('',(-0.01905,-0.0762,-2.31496338640974E-17));
#1538=CARTESIAN_POINT('',(-0.01905,-0.0762,0.003175));
#1539=CARTESIAN_POINT('',(-0.01905,-0.05715,0.003175));
#1540=CARTESIAN_POINT('',(-0.01905,-0.09525,0.003175));
#1541=CARTESIAN_POINT('',(-0.01905,-0.09525,-2.31496338640974E-17));
#1542=CARTESIAN_POINT('',(-0.01905,-0.09525,-2.31496338640974E-17));
#1543=CARTESIAN_POINT('',(-0.01905,-0.0762,-2.31496338640974E-17));
#1544=CARTESIAN_POINT('',(-0.01905,-0.05715,-2.31496338640974E-17));
#1545=CARTESIAN_POINT('',(-0.01905,-0.05715,-2.31496338640974E-17));
#1546=CARTESIAN_POINT('',(-0.0381,-0.1016,-2.19831577879095E-17));
#1547=CARTESIAN_POINT('',(-0.0381,-0.1016,-2.19831577879095E-17));
#1548=CARTESIAN_POINT('',(-0.0254,-0.1016,-2.27608085053681E-17));
#1549=CARTESIAN_POINT('',(-0.047625,-0.1016,-2.25514051876985E-17));
#1550=CARTESIAN_POINT('',(-0.0254,-0.1016,-2.27608085053681E-17));
#1551=CARTESIAN_POINT('',(-0.0254,-0.1016,0.003175));
#1552=CARTESIAN_POINT('',(-0.0381,-0.1016,0.003175));
#1553=CARTESIAN_POINT('',(-0.047625,-0.1016,0.003175));
#1554=CARTESIAN_POINT('',(-0.047625,-0.1016,-2.13999197498156E-17));
#1555=CARTESIAN_POINT('',(-0.03175,-0.0762,-2.23718342028806E-17));
#1556=CARTESIAN_POINT('',(-0.03175,-0.0762,-2.23718342028806E-17));
#1557=CARTESIAN_POINT('',(-0.0254,-0.0762,-2.27606595616099E-17));
#1558=CARTESIAN_POINT('',(-0.03175,-0.0762,0.003175));
#1559=CARTESIAN_POINT('',(-0.0254,-0.0762,0.003175));
#1560=CARTESIAN_POINT('',(-0.0381,-0.0508,-2.19831577879095E-17));
#1561=CARTESIAN_POINT('',(-0.0381,-0.0508,0.003175));
#1562=CARTESIAN_POINT('',(-0.047625,-0.0508,0.003175));
#1563=CARTESIAN_POINT('',(-0.0254,-0.0508,0.003175));
#1564=CARTESIAN_POINT('',(-0.0254,-0.0508,-2.27608085053681E-17));
#1565=CARTESIAN_POINT('',(-0.0254,-0.0508,-2.27608085053681E-17));
#1566=CARTESIAN_POINT('',(-0.0381,-0.0508,-2.19831577879095E-17));
#1567=CARTESIAN_POINT('',(-0.047625,-0.0508,-2.13999197498156E-17));
#1568=CARTESIAN_POINT('',(-0.047625,-0.0508,-2.13999197498156E-17));
#1569=CARTESIAN_POINT('',(-0.0381,-0.0762,-2.19831577879095E-17));
#1570=CARTESIAN_POINT('',(-0.0254,-0.09525,-2.27608085053681E-17));
#1571=CARTESIAN_POINT('',(-0.047625,-0.0555625,-2.13999197498156E-17));
#1572=CARTESIAN_POINT('',(-0.0254,-0.05715,-2.27608085053681E-17));
#1573=CARTESIAN_POINT('',(-0.0381,-0.0762,0.003175));
#1574=CARTESIAN_POINT('',(-0.0254,-0.09525,0.003175));
#1575=CARTESIAN_POINT('',(-0.0254,-0.05715,0.003175));
#1576=CARTESIAN_POINT('',(-0.047625,-0.0555625,0.003175));
#1577=CARTESIAN_POINT('',(-0.0254,-0.09525,-2.27608085053681E-17));
#1578=CARTESIAN_POINT('',(-0.0254,-0.05715,-2.27608085053681E-17));
#1579=CARTESIAN_POINT('',(-0.047625,-0.0508,0.009525));
#1580=CARTESIAN_POINT('',(-0.047625,-0.0508,0.009525));
#1581=CARTESIAN_POINT('',(-0.047625,-0.0508,0.009525));
#1582=CARTESIAN_POINT('',(-0.047625,-0.1016,0.009525));
#1583=CARTESIAN_POINT('',(-0.047625,-0.1016,0.009525));
#1584=CARTESIAN_POINT('',(-0.047625,-0.1016,0.009525));
#1585=CARTESIAN_POINT('',(-0.047625,-0.0762,0.009525));
#1586=CARTESIAN_POINT('',(-0.047625,-0.0762,0.009525));
#1587=CARTESIAN_POINT('',(-0.047625,-0.009525,0.009525));
#1588=CARTESIAN_POINT('',(-0.047625,0.,0.009525));
#1589=CARTESIAN_POINT('',(-0.047625,-0.009525,0.009525));
#1590=CARTESIAN_POINT('',(-0.047625,-0.009525,0.009525));
#1591=CARTESIAN_POINT('',(-0.047625,-0.009525,0.1016));
#1592=CARTESIAN_POINT('',(-0.047625,-0.009525,0.1016));
#1593=CARTESIAN_POINT('',(-0.047625,-0.009525,0.1016));
#1594=CARTESIAN_POINT('',(-0.047625,-0.009525,0.0555625));
#1595=CARTESIAN_POINT('',(-0.047625,-0.009525,0.0555625));
#1596=CARTESIAN_POINT('',(0.047625,-0.009525,0.009525));
#1597=CARTESIAN_POINT('',(0.047625,-0.009525,0.009525));
#1598=CARTESIAN_POINT('',(0.047625,-0.009525,0.009525));
#1599=CARTESIAN_POINT('',(-0.047625,-0.009525,0.009525));
#1600=CARTESIAN_POINT('',(-0.047625,-0.009525,0.009525));
#1601=CARTESIAN_POINT('',(-0.047625,-0.009525,0.009525));
#1602=CARTESIAN_POINT('',(0.,-0.009525,0.009525));
#1603=CARTESIAN_POINT('',(0.,-0.009525,0.009525));
#1604=MECHANICAL_DESIGN_GEOMETRIC_PRESENTATION_REPRESENTATION('',(#939),
#1605);
#1605=(
GEOMETRIC_REPRESENTATION_CONTEXT(3)
GLOBAL_UNCERTAINTY_ASSIGNED_CONTEXT((#1606))
GLOBAL_UNIT_ASSIGNED_CONTEXT((#1609,#1608,#1607))
REPRESENTATION_CONTEXT('Part 1','TOP_LEVEL_ASSEMBLY_PART')
);
#1606=UNCERTAINTY_MEASURE_WITH_UNIT(LENGTH_MEASURE(1.E-8),#1609,
'DISTANCE_ACCURACY_VALUE','Maximum Tolerance applied to model');
#1607=(
NAMED_UNIT(*)
SI_UNIT($,.STERADIAN.)
SOLID_ANGLE_UNIT()
);
#1608=(
NAMED_UNIT(*)
PLANE_ANGLE_UNIT()
SI_UNIT($,.RADIAN.)
);
#1609=(
LENGTH_UNIT()
NAMED_UNIT(*)
SI_UNIT($,.METRE.)
);
#1610=PRODUCT_DEFINITION_SHAPE('','',#1611);
#1611=PRODUCT_DEFINITION('','',#1613,#1612);
#1612=PRODUCT_DEFINITION_CONTEXT('',#1619,'design');
#1613=PRODUCT_DEFINITION_FORMATION_WITH_SPECIFIED_SOURCE('','',#1615,
 .NOT_KNOWN.);
#1614=PRODUCT_RELATED_PRODUCT_CATEGORY('','',(#1615));
#1615=PRODUCT('Part 1','Part 1','Part 1',(#1617));
#1616=PRODUCT_CATEGORY('','');
#1617=PRODUCT_CONTEXT('',#1619,'mechanical');
#1618=APPLICATION_PROTOCOL_DEFINITION('international standard',
'ap242_managed_model_based_3d_engineering',2020,#1619);
#1619=APPLICATION_CONTEXT('managed model based 3d engineering');
ENDSEC;
END-ISO-10303-21;
