ISO-10303-21;
HEADER;
/* Generated by software containing ST-Developer
 * from STEP Tools, Inc. (www.steptools.com) 
 */
/* OPTION: using custom renumber hook */

FILE_DESCRIPTION(
/* description */ ('STEP AP242 Edition 2',
'CAx-IF Rec.Pracs.---Representation and Presentation of Product Manufa
cturing Information (PMI)---4.0---2014-10-13',
'CAx-IF Rec.Pracs.---3D Tessellated Geometry---0.4---2014-09-14','2;1',
'CAx-IF Rec.Pracs.---User Defined Attributes---1.5---2016-08-15'),
/* implementation_level */ '2;1');

FILE_NAME(
/* name */ 'Part Studio 1',
/* time_stamp */ '2026-06-29T12:37:17Z',
/* author */ (''),
/* organization */ (''),
/* preprocessor_version */ 'ST-DEVELOPER v20',
/* originating_system */ 'ONSHAPE BY PTC INC, 1.217',
/* authorisation */ '  ');

FILE_SCHEMA (('AP242_MANAGED_MODEL_BASED_3D_ENGINEERING_MIM_LF { 1 0 10303 442 3 1 4 }'));
ENDSEC;

DATA;
#10=SHAPE_REPRESENTATION_RELATIONSHIP('','',#877,#11);
#11=ADVANCED_BREP_SHAPE_REPRESENTATION('',(#875),#1467);
#12=CYLINDRICAL_SURFACE('',#883,0.018);
#13=CYLINDRICAL_SURFACE('',#887,0.018);
#14=CYLINDRICAL_SURFACE('',#890,0.04);
#15=CYLINDRICAL_SURFACE('',#892,0.025);
#16=CYLINDRICAL_SURFACE('',#896,0.034);
#17=CYLINDRICAL_SURFACE('',#900,0.034);
#18=CYLINDRICAL_SURFACE('',#907,0.04);
#19=CYLINDRICAL_SURFACE('',#915,0.008);
#20=CYLINDRICAL_SURFACE('',#919,0.008);
#21=CYLINDRICAL_SURFACE('',#924,0.034);
#22=CYLINDRICAL_SURFACE('',#928,0.034);
#23=CYLINDRICAL_SURFACE('',#937,0.018);
#24=CYLINDRICAL_SURFACE('',#941,0.018);
#25=CYLINDRICAL_SURFACE('',#946,0.04);
#26=CYLINDRICAL_SURFACE('',#947,0.025);
#27=CYLINDRICAL_SURFACE('',#950,0.034);
#28=CYLINDRICAL_SURFACE('',#953,0.034);
#29=CYLINDRICAL_SURFACE('',#959,0.025);
#30=CYLINDRICAL_SURFACE('',#960,0.01);
#31=CIRCLE('',#880,0.04);
#32=CIRCLE('',#882,0.025);
#33=CIRCLE('',#884,0.018);
#34=CIRCLE('',#885,0.018);
#35=CIRCLE('',#888,0.018);
#36=CIRCLE('',#889,0.018);
#37=CIRCLE('',#891,0.04);
#38=CIRCLE('',#893,0.025);
#39=CIRCLE('',#895,0.04);
#40=CIRCLE('',#897,0.034);
#41=CIRCLE('',#898,0.034);
#42=CIRCLE('',#901,0.034);
#43=CIRCLE('',#902,0.034);
#44=CIRCLE('',#904,0.025);
#45=CIRCLE('',#905,0.04);
#46=CIRCLE('',#906,0.04);
#47=CIRCLE('',#908,0.04);
#48=CIRCLE('',#910,0.01);
#49=CIRCLE('',#911,0.025);
#50=CIRCLE('',#914,0.01);
#51=CIRCLE('',#916,0.008);
#52=CIRCLE('',#917,0.008);
#53=CIRCLE('',#920,0.008);
#54=CIRCLE('',#921,0.008);
#55=CIRCLE('',#923,0.025);
#56=CIRCLE('',#925,0.034);
#57=CIRCLE('',#926,0.034);
#58=CIRCLE('',#929,0.034);
#59=CIRCLE('',#930,0.034);
#60=CIRCLE('',#936,0.025);
#61=CIRCLE('',#938,0.018);
#62=CIRCLE('',#939,0.018);
#63=CIRCLE('',#942,0.018);
#64=CIRCLE('',#943,0.018);
#65=CIRCLE('',#951,0.034);
#66=CIRCLE('',#952,0.034);
#67=CIRCLE('',#954,0.034);
#68=CIRCLE('',#955,0.034);
#69=ORIENTED_EDGE('',*,*,#317,.F.);
#70=ORIENTED_EDGE('',*,*,#318,.T.);
#71=ORIENTED_EDGE('',*,*,#319,.T.);
#72=ORIENTED_EDGE('',*,*,#320,.F.);
#73=ORIENTED_EDGE('',*,*,#321,.F.);
#74=ORIENTED_EDGE('',*,*,#322,.F.);
#75=ORIENTED_EDGE('',*,*,#323,.T.);
#76=ORIENTED_EDGE('',*,*,#324,.T.);
#77=ORIENTED_EDGE('',*,*,#325,.F.);
#78=ORIENTED_EDGE('',*,*,#326,.F.);
#79=ORIENTED_EDGE('',*,*,#325,.T.);
#80=ORIENTED_EDGE('',*,*,#327,.T.);
#81=ORIENTED_EDGE('',*,*,#328,.F.);
#82=ORIENTED_EDGE('',*,*,#329,.F.);
#83=ORIENTED_EDGE('',*,*,#328,.T.);
#84=ORIENTED_EDGE('',*,*,#330,.T.);
#85=ORIENTED_EDGE('',*,*,#331,.F.);
#86=ORIENTED_EDGE('',*,*,#332,.F.);
#87=ORIENTED_EDGE('',*,*,#331,.T.);
#88=ORIENTED_EDGE('',*,*,#333,.T.);
#89=ORIENTED_EDGE('',*,*,#318,.F.);
#90=ORIENTED_EDGE('',*,*,#334,.F.);
#91=ORIENTED_EDGE('',*,*,#335,.T.);
#92=ORIENTED_EDGE('',*,*,#320,.T.);
#93=ORIENTED_EDGE('',*,*,#336,.T.);
#94=ORIENTED_EDGE('',*,*,#322,.T.);
#95=ORIENTED_EDGE('',*,*,#337,.T.);
#96=ORIENTED_EDGE('',*,*,#338,.F.);
#97=ORIENTED_EDGE('',*,*,#339,.T.);
#98=ORIENTED_EDGE('',*,*,#340,.T.);
#99=ORIENTED_EDGE('',*,*,#341,.T.);
#100=ORIENTED_EDGE('',*,*,#342,.F.);
#101=ORIENTED_EDGE('',*,*,#343,.F.);
#102=ORIENTED_EDGE('',*,*,#344,.F.);
#103=ORIENTED_EDGE('',*,*,#345,.T.);
#104=ORIENTED_EDGE('',*,*,#346,.T.);
#105=ORIENTED_EDGE('',*,*,#347,.F.);
#106=ORIENTED_EDGE('',*,*,#348,.F.);
#107=ORIENTED_EDGE('',*,*,#349,.T.);
#108=ORIENTED_EDGE('',*,*,#344,.T.);
#109=ORIENTED_EDGE('',*,*,#350,.F.);
#110=ORIENTED_EDGE('',*,*,#351,.F.);
#111=ORIENTED_EDGE('',*,*,#352,.T.);
#112=ORIENTED_EDGE('',*,*,#348,.T.);
#113=ORIENTED_EDGE('',*,*,#353,.F.);
#114=ORIENTED_EDGE('',*,*,#354,.F.);
#115=ORIENTED_EDGE('',*,*,#355,.T.);
#116=ORIENTED_EDGE('',*,*,#356,.T.);
#117=ORIENTED_EDGE('',*,*,#357,.T.);
#118=ORIENTED_EDGE('',*,*,#358,.F.);
#119=ORIENTED_EDGE('',*,*,#334,.T.);
#120=ORIENTED_EDGE('',*,*,#359,.T.);
#121=ORIENTED_EDGE('',*,*,#351,.T.);
#122=ORIENTED_EDGE('',*,*,#360,.F.);
#123=ORIENTED_EDGE('',*,*,#361,.T.);
#124=ORIENTED_EDGE('',*,*,#362,.T.);
#125=ORIENTED_EDGE('',*,*,#363,.T.);
#126=ORIENTED_EDGE('',*,*,#364,.F.);
#127=ORIENTED_EDGE('',*,*,#365,.F.);
#128=ORIENTED_EDGE('',*,*,#366,.F.);
#129=ORIENTED_EDGE('',*,*,#367,.F.);
#130=ORIENTED_EDGE('',*,*,#361,.F.);
#131=ORIENTED_EDGE('',*,*,#368,.F.);
#132=ORIENTED_EDGE('',*,*,#338,.T.);
#133=ORIENTED_EDGE('',*,*,#369,.F.);
#134=ORIENTED_EDGE('',*,*,#370,.F.);
#135=ORIENTED_EDGE('',*,*,#371,.T.);
#136=ORIENTED_EDGE('',*,*,#372,.T.);
#137=ORIENTED_EDGE('',*,*,#373,.F.);
#138=ORIENTED_EDGE('',*,*,#374,.F.);
#139=ORIENTED_EDGE('',*,*,#375,.F.);
#140=ORIENTED_EDGE('',*,*,#376,.T.);
#141=ORIENTED_EDGE('',*,*,#377,.T.);
#142=ORIENTED_EDGE('',*,*,#378,.T.);
#143=ORIENTED_EDGE('',*,*,#379,.T.);
#144=ORIENTED_EDGE('',*,*,#380,.F.);
#145=ORIENTED_EDGE('',*,*,#346,.F.);
#146=ORIENTED_EDGE('',*,*,#381,.T.);
#147=ORIENTED_EDGE('',*,*,#382,.F.);
#148=ORIENTED_EDGE('',*,*,#378,.F.);
#149=ORIENTED_EDGE('',*,*,#383,.T.);
#150=ORIENTED_EDGE('',*,*,#384,.T.);
#151=ORIENTED_EDGE('',*,*,#385,.T.);
#152=ORIENTED_EDGE('',*,*,#386,.T.);
#153=ORIENTED_EDGE('',*,*,#384,.F.);
#154=ORIENTED_EDGE('',*,*,#387,.T.);
#155=ORIENTED_EDGE('',*,*,#388,.T.);
#156=ORIENTED_EDGE('',*,*,#389,.T.);
#157=ORIENTED_EDGE('',*,*,#390,.F.);
#158=ORIENTED_EDGE('',*,*,#391,.T.);
#159=ORIENTED_EDGE('',*,*,#392,.F.);
#160=ORIENTED_EDGE('',*,*,#389,.F.);
#161=ORIENTED_EDGE('',*,*,#393,.T.);
#162=ORIENTED_EDGE('',*,*,#394,.T.);
#163=ORIENTED_EDGE('',*,*,#395,.F.);
#164=ORIENTED_EDGE('',*,*,#394,.F.);
#165=ORIENTED_EDGE('',*,*,#396,.T.);
#166=ORIENTED_EDGE('',*,*,#397,.T.);
#167=ORIENTED_EDGE('',*,*,#398,.F.);
#168=ORIENTED_EDGE('',*,*,#397,.F.);
#169=ORIENTED_EDGE('',*,*,#399,.T.);
#170=ORIENTED_EDGE('',*,*,#400,.T.);
#171=ORIENTED_EDGE('',*,*,#401,.T.);
#172=ORIENTED_EDGE('',*,*,#402,.T.);
#173=ORIENTED_EDGE('',*,*,#366,.T.);
#174=ORIENTED_EDGE('',*,*,#403,.F.);
#175=ORIENTED_EDGE('',*,*,#400,.F.);
#176=ORIENTED_EDGE('',*,*,#404,.F.);
#177=ORIENTED_EDGE('',*,*,#363,.F.);
#178=ORIENTED_EDGE('',*,*,#405,.T.);
#179=ORIENTED_EDGE('',*,*,#406,.T.);
#180=ORIENTED_EDGE('',*,*,#407,.F.);
#181=ORIENTED_EDGE('',*,*,#406,.F.);
#182=ORIENTED_EDGE('',*,*,#408,.T.);
#183=ORIENTED_EDGE('',*,*,#409,.T.);
#184=ORIENTED_EDGE('',*,*,#410,.F.);
#185=ORIENTED_EDGE('',*,*,#409,.F.);
#186=ORIENTED_EDGE('',*,*,#411,.T.);
#187=ORIENTED_EDGE('',*,*,#375,.T.);
#188=ORIENTED_EDGE('',*,*,#388,.F.);
#189=ORIENTED_EDGE('',*,*,#412,.T.);
#190=ORIENTED_EDGE('',*,*,#376,.F.);
#191=ORIENTED_EDGE('',*,*,#411,.F.);
#192=ORIENTED_EDGE('',*,*,#408,.F.);
#193=ORIENTED_EDGE('',*,*,#405,.F.);
#194=ORIENTED_EDGE('',*,*,#362,.F.);
#195=ORIENTED_EDGE('',*,*,#367,.T.);
#196=ORIENTED_EDGE('',*,*,#402,.F.);
#197=ORIENTED_EDGE('',*,*,#399,.F.);
#198=ORIENTED_EDGE('',*,*,#396,.F.);
#199=ORIENTED_EDGE('',*,*,#393,.F.);
#200=ORIENTED_EDGE('',*,*,#380,.T.);
#201=ORIENTED_EDGE('',*,*,#413,.T.);
#202=ORIENTED_EDGE('',*,*,#390,.T.);
#203=ORIENTED_EDGE('',*,*,#392,.T.);
#204=ORIENTED_EDGE('',*,*,#395,.T.);
#205=ORIENTED_EDGE('',*,*,#398,.T.);
#206=ORIENTED_EDGE('',*,*,#403,.T.);
#207=ORIENTED_EDGE('',*,*,#365,.T.);
#208=ORIENTED_EDGE('',*,*,#360,.T.);
#209=ORIENTED_EDGE('',*,*,#353,.T.);
#210=ORIENTED_EDGE('',*,*,#350,.T.);
#211=ORIENTED_EDGE('',*,*,#347,.T.);
#212=ORIENTED_EDGE('',*,*,#377,.F.);
#213=ORIENTED_EDGE('',*,*,#412,.F.);
#214=ORIENTED_EDGE('',*,*,#387,.F.);
#215=ORIENTED_EDGE('',*,*,#383,.F.);
#216=ORIENTED_EDGE('',*,*,#379,.F.);
#217=ORIENTED_EDGE('',*,*,#385,.F.);
#218=ORIENTED_EDGE('',*,*,#391,.F.);
#219=ORIENTED_EDGE('',*,*,#413,.F.);
#220=ORIENTED_EDGE('',*,*,#414,.F.);
#221=ORIENTED_EDGE('',*,*,#415,.T.);
#222=ORIENTED_EDGE('',*,*,#416,.F.);
#223=ORIENTED_EDGE('',*,*,#417,.F.);
#224=ORIENTED_EDGE('',*,*,#418,.T.);
#225=ORIENTED_EDGE('',*,*,#416,.T.);
#226=ORIENTED_EDGE('',*,*,#419,.T.);
#227=ORIENTED_EDGE('',*,*,#420,.F.);
#228=ORIENTED_EDGE('',*,*,#421,.F.);
#229=ORIENTED_EDGE('',*,*,#420,.T.);
#230=ORIENTED_EDGE('',*,*,#422,.T.);
#231=ORIENTED_EDGE('',*,*,#423,.F.);
#232=ORIENTED_EDGE('',*,*,#424,.F.);
#233=ORIENTED_EDGE('',*,*,#423,.T.);
#234=ORIENTED_EDGE('',*,*,#425,.T.);
#235=ORIENTED_EDGE('',*,*,#340,.F.);
#236=ORIENTED_EDGE('',*,*,#426,.F.);
#237=ORIENTED_EDGE('',*,*,#374,.T.);
#238=ORIENTED_EDGE('',*,*,#427,.T.);
#239=ORIENTED_EDGE('',*,*,#417,.T.);
#240=ORIENTED_EDGE('',*,*,#421,.T.);
#241=ORIENTED_EDGE('',*,*,#424,.T.);
#242=ORIENTED_EDGE('',*,*,#426,.T.);
#243=ORIENTED_EDGE('',*,*,#343,.T.);
#244=ORIENTED_EDGE('',*,*,#428,.T.);
#245=ORIENTED_EDGE('',*,*,#364,.T.);
#246=ORIENTED_EDGE('',*,*,#404,.T.);
#247=ORIENTED_EDGE('',*,*,#407,.T.);
#248=ORIENTED_EDGE('',*,*,#410,.T.);
#249=ORIENTED_EDGE('',*,*,#429,.F.);
#250=ORIENTED_EDGE('',*,*,#381,.F.);
#251=ORIENTED_EDGE('',*,*,#345,.F.);
#252=ORIENTED_EDGE('',*,*,#349,.F.);
#253=ORIENTED_EDGE('',*,*,#352,.F.);
#254=ORIENTED_EDGE('',*,*,#359,.F.);
#255=ORIENTED_EDGE('',*,*,#336,.F.);
#256=ORIENTED_EDGE('',*,*,#319,.F.);
#257=ORIENTED_EDGE('',*,*,#333,.F.);
#258=ORIENTED_EDGE('',*,*,#330,.F.);
#259=ORIENTED_EDGE('',*,*,#327,.F.);
#260=ORIENTED_EDGE('',*,*,#324,.F.);
#261=ORIENTED_EDGE('',*,*,#430,.F.);
#262=ORIENTED_EDGE('',*,*,#355,.F.);
#263=ORIENTED_EDGE('',*,*,#428,.F.);
#264=ORIENTED_EDGE('',*,*,#342,.T.);
#265=ORIENTED_EDGE('',*,*,#431,.F.);
#266=ORIENTED_EDGE('',*,*,#414,.T.);
#267=ORIENTED_EDGE('',*,*,#432,.F.);
#268=ORIENTED_EDGE('',*,*,#372,.F.);
#269=ORIENTED_EDGE('',*,*,#339,.F.);
#270=ORIENTED_EDGE('',*,*,#382,.T.);
#271=ORIENTED_EDGE('',*,*,#429,.T.);
#272=ORIENTED_EDGE('',*,*,#323,.F.);
#273=ORIENTED_EDGE('',*,*,#427,.F.);
#274=ORIENTED_EDGE('',*,*,#373,.T.);
#275=ORIENTED_EDGE('',*,*,#432,.T.);
#276=ORIENTED_EDGE('',*,*,#418,.F.);
#277=ORIENTED_EDGE('',*,*,#433,.F.);
#278=ORIENTED_EDGE('',*,*,#434,.F.);
#279=ORIENTED_EDGE('',*,*,#435,.T.);
#280=ORIENTED_EDGE('',*,*,#370,.T.);
#281=ORIENTED_EDGE('',*,*,#436,.F.);
#282=ORIENTED_EDGE('',*,*,#357,.F.);
#283=ORIENTED_EDGE('',*,*,#437,.T.);
#284=ORIENTED_EDGE('',*,*,#438,.T.);
#285=ORIENTED_EDGE('',*,*,#439,.F.);
#286=ORIENTED_EDGE('',*,*,#438,.F.);
#287=ORIENTED_EDGE('',*,*,#440,.T.);
#288=ORIENTED_EDGE('',*,*,#434,.T.);
#289=ORIENTED_EDGE('',*,*,#356,.F.);
#290=ORIENTED_EDGE('',*,*,#430,.T.);
#291=ORIENTED_EDGE('',*,*,#341,.F.);
#292=ORIENTED_EDGE('',*,*,#425,.F.);
#293=ORIENTED_EDGE('',*,*,#422,.F.);
#294=ORIENTED_EDGE('',*,*,#419,.F.);
#295=ORIENTED_EDGE('',*,*,#415,.F.);
#296=ORIENTED_EDGE('',*,*,#431,.T.);
#297=ORIENTED_EDGE('',*,*,#371,.F.);
#298=ORIENTED_EDGE('',*,*,#435,.F.);
#299=ORIENTED_EDGE('',*,*,#440,.F.);
#300=ORIENTED_EDGE('',*,*,#437,.F.);
#301=ORIENTED_EDGE('',*,*,#335,.F.);
#302=ORIENTED_EDGE('',*,*,#358,.T.);
#303=ORIENTED_EDGE('',*,*,#436,.T.);
#304=ORIENTED_EDGE('',*,*,#439,.T.);
#305=ORIENTED_EDGE('',*,*,#433,.T.);
#306=ORIENTED_EDGE('',*,*,#369,.T.);
#307=ORIENTED_EDGE('',*,*,#337,.F.);
#308=ORIENTED_EDGE('',*,*,#321,.T.);
#309=ORIENTED_EDGE('',*,*,#326,.T.);
#310=ORIENTED_EDGE('',*,*,#329,.T.);
#311=ORIENTED_EDGE('',*,*,#332,.T.);
#312=ORIENTED_EDGE('',*,*,#317,.T.);
#313=ORIENTED_EDGE('',*,*,#354,.T.);
#314=ORIENTED_EDGE('',*,*,#401,.F.);
#315=ORIENTED_EDGE('',*,*,#368,.T.);
#316=ORIENTED_EDGE('',*,*,#386,.F.);
#317=EDGE_CURVE('',#441,#442,#525,.T.);
#318=EDGE_CURVE('',#441,#443,#526,.T.);
#319=EDGE_CURVE('',#443,#444,#527,.T.);
#320=EDGE_CURVE('',#442,#444,#31,.F.);
#321=EDGE_CURVE('',#445,#446,#528,.T.);
#322=EDGE_CURVE('',#447,#445,#32,.F.);
#323=EDGE_CURVE('',#447,#448,#529,.T.);
#324=EDGE_CURVE('',#448,#449,#530,.T.);
#325=EDGE_CURVE('',#446,#449,#531,.T.);
#326=EDGE_CURVE('',#446,#450,#33,.T.);
#327=EDGE_CURVE('',#449,#451,#34,.T.);
#328=EDGE_CURVE('',#450,#451,#532,.T.);
#329=EDGE_CURVE('',#450,#452,#533,.T.);
#330=EDGE_CURVE('',#451,#453,#534,.T.);
#331=EDGE_CURVE('',#452,#453,#535,.T.);
#332=EDGE_CURVE('',#452,#441,#35,.T.);
#333=EDGE_CURVE('',#453,#443,#36,.T.);
#334=EDGE_CURVE('',#454,#455,#37,.T.);
#335=EDGE_CURVE('',#454,#442,#536,.F.);
#336=EDGE_CURVE('',#444,#455,#537,.T.);
#337=EDGE_CURVE('',#445,#456,#538,.T.);
#338=EDGE_CURVE('',#457,#456,#38,.T.);
#339=EDGE_CURVE('',#457,#447,#539,.T.);
#340=EDGE_CURVE('',#458,#459,#540,.T.);
#341=EDGE_CURVE('',#459,#460,#541,.T.);
#342=EDGE_CURVE('',#461,#460,#39,.F.);
#343=EDGE_CURVE('',#458,#461,#542,.T.);
#344=EDGE_CURVE('',#462,#463,#543,.T.);
#345=EDGE_CURVE('',#462,#464,#40,.F.);
#346=EDGE_CURVE('',#464,#465,#544,.T.);
#347=EDGE_CURVE('',#463,#465,#41,.F.);
#348=EDGE_CURVE('',#466,#467,#545,.T.);
#349=EDGE_CURVE('',#466,#462,#546,.T.);
#350=EDGE_CURVE('',#467,#463,#547,.F.);
#351=EDGE_CURVE('',#468,#469,#548,.T.);
#352=EDGE_CURVE('',#468,#466,#42,.F.);
#353=EDGE_CURVE('',#469,#467,#43,.F.);
#354=EDGE_CURVE('',#470,#470,#44,.T.);
#355=EDGE_CURVE('',#471,#472,#45,.T.);
#356=EDGE_CURVE('',#472,#473,#549,.F.);
#357=EDGE_CURVE('',#473,#474,#550,.T.);
#358=EDGE_CURVE('',#454,#474,#551,.F.);
#359=EDGE_CURVE('',#455,#468,#552,.T.);
#360=EDGE_CURVE('',#475,#469,#553,.F.);
#361=EDGE_CURVE('',#475,#476,#46,.T.);
#362=EDGE_CURVE('',#476,#477,#554,.F.);
#363=EDGE_CURVE('',#477,#478,#555,.T.);
#364=EDGE_CURVE('',#471,#478,#556,.T.);
#365=EDGE_CURVE('',#479,#475,#557,.F.);
#366=EDGE_CURVE('',#480,#479,#47,.T.);
#367=EDGE_CURVE('',#476,#480,#558,.F.);
#368=EDGE_CURVE('',#481,#481,#48,.T.);
#369=EDGE_CURVE('',#482,#456,#559,.F.);
#370=EDGE_CURVE('',#483,#482,#560,.T.);
#371=EDGE_CURVE('',#483,#484,#561,.F.);
#372=EDGE_CURVE('',#484,#485,#49,.T.);
#373=EDGE_CURVE('',#486,#485,#562,.T.);
#374=EDGE_CURVE('',#487,#486,#563,.T.);
#375=EDGE_CURVE('',#488,#487,#564,.T.);
#376=EDGE_CURVE('',#488,#489,#565,.F.);
#377=EDGE_CURVE('',#489,#490,#566,.F.);
#378=EDGE_CURVE('',#490,#491,#567,.T.);
#379=EDGE_CURVE('',#491,#492,#568,.T.);
#380=EDGE_CURVE('',#465,#492,#569,.F.);
#381=EDGE_CURVE('',#464,#493,#570,.T.);
#382=EDGE_CURVE('',#457,#493,#571,.T.);
#383=EDGE_CURVE('',#490,#494,#572,.T.);
#384=EDGE_CURVE('',#494,#495,#573,.T.);
#385=EDGE_CURVE('',#495,#491,#574,.T.);
#386=EDGE_CURVE('',#496,#496,#50,.F.);
#387=EDGE_CURVE('',#494,#497,#575,.F.);
#388=EDGE_CURVE('',#497,#498,#576,.F.);
#389=EDGE_CURVE('',#498,#499,#577,.T.);
#390=EDGE_CURVE('',#500,#499,#578,.F.);
#391=EDGE_CURVE('',#500,#495,#579,.T.);
#392=EDGE_CURVE('',#499,#501,#51,.T.);
#393=EDGE_CURVE('',#498,#502,#52,.T.);
#394=EDGE_CURVE('',#502,#501,#580,.T.);
#395=EDGE_CURVE('',#501,#503,#581,.T.);
#396=EDGE_CURVE('',#502,#504,#582,.T.);
#397=EDGE_CURVE('',#504,#503,#583,.T.);
#398=EDGE_CURVE('',#503,#505,#53,.T.);
#399=EDGE_CURVE('',#504,#506,#54,.T.);
#400=EDGE_CURVE('',#506,#505,#584,.T.);
#401=EDGE_CURVE('',#507,#507,#55,.F.);
#402=EDGE_CURVE('',#506,#480,#585,.T.);
#403=EDGE_CURVE('',#505,#479,#586,.T.);
#404=EDGE_CURVE('',#478,#508,#56,.F.);
#405=EDGE_CURVE('',#477,#509,#57,.F.);
#406=EDGE_CURVE('',#509,#508,#587,.T.);
#407=EDGE_CURVE('',#508,#510,#588,.T.);
#408=EDGE_CURVE('',#509,#511,#589,.F.);
#409=EDGE_CURVE('',#511,#510,#590,.T.);
#410=EDGE_CURVE('',#510,#487,#58,.F.);
#411=EDGE_CURVE('',#511,#488,#59,.F.);
#412=EDGE_CURVE('',#497,#489,#591,.T.);
#413=EDGE_CURVE('',#492,#500,#592,.T.);
#414=EDGE_CURVE('',#512,#513,#60,.F.);
#415=EDGE_CURVE('',#512,#514,#593,.T.);
#416=EDGE_CURVE('',#515,#514,#594,.T.);
#417=EDGE_CURVE('',#516,#515,#595,.T.);
#418=EDGE_CURVE('',#516,#513,#596,.T.);
#419=EDGE_CURVE('',#514,#517,#61,.T.);
#420=EDGE_CURVE('',#518,#517,#597,.T.);
#421=EDGE_CURVE('',#515,#518,#62,.T.);
#422=EDGE_CURVE('',#517,#519,#598,.T.);
#423=EDGE_CURVE('',#520,#519,#599,.T.);
#424=EDGE_CURVE('',#518,#520,#600,.T.);
#425=EDGE_CURVE('',#519,#459,#63,.T.);
#426=EDGE_CURVE('',#520,#458,#64,.T.);
#427=EDGE_CURVE('',#486,#516,#601,.T.);
#428=EDGE_CURVE('',#461,#471,#602,.T.);
#429=EDGE_CURVE('',#493,#448,#603,.T.);
#430=EDGE_CURVE('',#472,#460,#604,.F.);
#431=EDGE_CURVE('',#512,#484,#605,.T.);
#432=EDGE_CURVE('',#485,#513,#606,.T.);
#433=EDGE_CURVE('',#521,#482,#65,.F.);
#434=EDGE_CURVE('',#522,#521,#607,.T.);
#435=EDGE_CURVE('',#522,#483,#66,.F.);
#436=EDGE_CURVE('',#474,#523,#67,.F.);
#437=EDGE_CURVE('',#473,#524,#68,.F.);
#438=EDGE_CURVE('',#524,#523,#608,.T.);
#439=EDGE_CURVE('',#523,#521,#609,.F.);
#440=EDGE_CURVE('',#524,#522,#610,.F.);
#441=VERTEX_POINT('',#1216);
#442=VERTEX_POINT('',#1217);
#443=VERTEX_POINT('',#1219);
#444=VERTEX_POINT('',#1221);
#445=VERTEX_POINT('',#1225);
#446=VERTEX_POINT('',#1226);
#447=VERTEX_POINT('',#1228);
#448=VERTEX_POINT('',#1230);
#449=VERTEX_POINT('',#1232);
#450=VERTEX_POINT('',#1236);
#451=VERTEX_POINT('',#1238);
#452=VERTEX_POINT('',#1242);
#453=VERTEX_POINT('',#1244);
#454=VERTEX_POINT('',#1251);
#455=VERTEX_POINT('',#1252);
#456=VERTEX_POINT('',#1257);
#457=VERTEX_POINT('',#1259);
#458=VERTEX_POINT('',#1263);
#459=VERTEX_POINT('',#1264);
#460=VERTEX_POINT('',#1266);
#461=VERTEX_POINT('',#1268);
#462=VERTEX_POINT('',#1272);
#463=VERTEX_POINT('',#1273);
#464=VERTEX_POINT('',#1275);
#465=VERTEX_POINT('',#1277);
#466=VERTEX_POINT('',#1281);
#467=VERTEX_POINT('',#1282);
#468=VERTEX_POINT('',#1287);
#469=VERTEX_POINT('',#1288);
#470=VERTEX_POINT('',#1293);
#471=VERTEX_POINT('',#1295);
#472=VERTEX_POINT('',#1296);
#473=VERTEX_POINT('',#1298);
#474=VERTEX_POINT('',#1300);
#475=VERTEX_POINT('',#1304);
#476=VERTEX_POINT('',#1306);
#477=VERTEX_POINT('',#1308);
#478=VERTEX_POINT('',#1310);
#479=VERTEX_POINT('',#1314);
#480=VERTEX_POINT('',#1316);
#481=VERTEX_POINT('',#1320);
#482=VERTEX_POINT('',#1322);
#483=VERTEX_POINT('',#1324);
#484=VERTEX_POINT('',#1326);
#485=VERTEX_POINT('',#1328);
#486=VERTEX_POINT('',#1330);
#487=VERTEX_POINT('',#1332);
#488=VERTEX_POINT('',#1334);
#489=VERTEX_POINT('',#1336);
#490=VERTEX_POINT('',#1338);
#491=VERTEX_POINT('',#1340);
#492=VERTEX_POINT('',#1342);
#493=VERTEX_POINT('',#1345);
#494=VERTEX_POINT('',#1349);
#495=VERTEX_POINT('',#1351);
#496=VERTEX_POINT('',#1355);
#497=VERTEX_POINT('',#1357);
#498=VERTEX_POINT('',#1359);
#499=VERTEX_POINT('',#1361);
#500=VERTEX_POINT('',#1363);
#501=VERTEX_POINT('',#1367);
#502=VERTEX_POINT('',#1369);
#503=VERTEX_POINT('',#1373);
#504=VERTEX_POINT('',#1375);
#505=VERTEX_POINT('',#1379);
#506=VERTEX_POINT('',#1381);
#507=VERTEX_POINT('',#1385);
#508=VERTEX_POINT('',#1390);
#509=VERTEX_POINT('',#1392);
#510=VERTEX_POINT('',#1396);
#511=VERTEX_POINT('',#1398);
#512=VERTEX_POINT('',#1411);
#513=VERTEX_POINT('',#1412);
#514=VERTEX_POINT('',#1414);
#515=VERTEX_POINT('',#1416);
#516=VERTEX_POINT('',#1418);
#517=VERTEX_POINT('',#1422);
#518=VERTEX_POINT('',#1424);
#519=VERTEX_POINT('',#1428);
#520=VERTEX_POINT('',#1430);
#521=VERTEX_POINT('',#1449);
#522=VERTEX_POINT('',#1451);
#523=VERTEX_POINT('',#1455);
#524=VERTEX_POINT('',#1457);
#525=LINE('',#1215,#611);
#526=LINE('',#1218,#612);
#527=LINE('',#1220,#613);
#528=LINE('',#1224,#614);
#529=LINE('',#1229,#615);
#530=LINE('',#1231,#616);
#531=LINE('',#1233,#617);
#532=LINE('',#1239,#618);
#533=LINE('',#1241,#619);
#534=LINE('',#1243,#620);
#535=LINE('',#1245,#621);
#536=LINE('',#1253,#622);
#537=LINE('',#1254,#623);
#538=LINE('',#1256,#624);
#539=LINE('',#1260,#625);
#540=LINE('',#1262,#626);
#541=LINE('',#1265,#627);
#542=LINE('',#1269,#628);
#543=LINE('',#1271,#629);
#544=LINE('',#1276,#630);
#545=LINE('',#1280,#631);
#546=LINE('',#1283,#632);
#547=LINE('',#1284,#633);
#548=LINE('',#1286,#634);
#549=LINE('',#1297,#635);
#550=LINE('',#1299,#636);
#551=LINE('',#1301,#637);
#552=LINE('',#1302,#638);
#553=LINE('',#1303,#639);
#554=LINE('',#1307,#640);
#555=LINE('',#1309,#641);
#556=LINE('',#1311,#642);
#557=LINE('',#1313,#643);
#558=LINE('',#1317,#644);
#559=LINE('',#1321,#645);
#560=LINE('',#1323,#646);
#561=LINE('',#1325,#647);
#562=LINE('',#1329,#648);
#563=LINE('',#1331,#649);
#564=LINE('',#1333,#650);
#565=LINE('',#1335,#651);
#566=LINE('',#1337,#652);
#567=LINE('',#1339,#653);
#568=LINE('',#1341,#654);
#569=LINE('',#1343,#655);
#570=LINE('',#1344,#656);
#571=LINE('',#1346,#657);
#572=LINE('',#1348,#658);
#573=LINE('',#1350,#659);
#574=LINE('',#1352,#660);
#575=LINE('',#1356,#661);
#576=LINE('',#1358,#662);
#577=LINE('',#1360,#663);
#578=LINE('',#1362,#664);
#579=LINE('',#1364,#665);
#580=LINE('',#1370,#666);
#581=LINE('',#1372,#667);
#582=LINE('',#1374,#668);
#583=LINE('',#1376,#669);
#584=LINE('',#1382,#670);
#585=LINE('',#1386,#671);
#586=LINE('',#1387,#672);
#587=LINE('',#1393,#673);
#588=LINE('',#1395,#674);
#589=LINE('',#1397,#675);
#590=LINE('',#1399,#676);
#591=LINE('',#1404,#677);
#592=LINE('',#1406,#678);
#593=LINE('',#1413,#679);
#594=LINE('',#1415,#680);
#595=LINE('',#1417,#681);
#596=LINE('',#1419,#682);
#597=LINE('',#1423,#683);
#598=LINE('',#1427,#684);
#599=LINE('',#1429,#685);
#600=LINE('',#1431,#686);
#601=LINE('',#1436,#687);
#602=LINE('',#1437,#688);
#603=LINE('',#1439,#689);
#604=LINE('',#1441,#690);
#605=LINE('',#1443,#691);
#606=LINE('',#1444,#692);
#607=LINE('',#1450,#693);
#608=LINE('',#1458,#694);
#609=LINE('',#1460,#695);
#610=LINE('',#1461,#696);
#611=VECTOR('',#965,1.);
#612=VECTOR('',#966,1.);
#613=VECTOR('',#967,1.);
#614=VECTOR('',#972,1.);
#615=VECTOR('',#975,1.);
#616=VECTOR('',#976,1.);
#617=VECTOR('',#977,1.);
#618=VECTOR('',#984,1.);
#619=VECTOR('',#987,1.);
#620=VECTOR('',#988,1.);
#621=VECTOR('',#989,1.);
#622=VECTOR('',#1000,1.);
#623=VECTOR('',#1001,1.);
#624=VECTOR('',#1004,1.);
#625=VECTOR('',#1007,1.);
#626=VECTOR('',#1010,1.);
#627=VECTOR('',#1011,1.);
#628=VECTOR('',#1014,1.);
#629=VECTOR('',#1017,1.);
#630=VECTOR('',#1020,1.);
#631=VECTOR('',#1025,1.);
#632=VECTOR('',#1026,1.);
#633=VECTOR('',#1027,1.);
#634=VECTOR('',#1030,1.);
#635=VECTOR('',#1041,1.);
#636=VECTOR('',#1042,1.);
#637=VECTOR('',#1043,1.);
#638=VECTOR('',#1044,1.);
#639=VECTOR('',#1045,1.);
#640=VECTOR('',#1048,1.);
#641=VECTOR('',#1049,1.);
#642=VECTOR('',#1050,1.);
#643=VECTOR('',#1053,1.);
#644=VECTOR('',#1056,1.);
#645=VECTOR('',#1061,1.);
#646=VECTOR('',#1062,1.);
#647=VECTOR('',#1063,1.);
#648=VECTOR('',#1066,1.);
#649=VECTOR('',#1067,1.);
#650=VECTOR('',#1068,1.);
#651=VECTOR('',#1069,1.);
#652=VECTOR('',#1070,1.);
#653=VECTOR('',#1071,1.);
#654=VECTOR('',#1072,1.);
#655=VECTOR('',#1073,1.);
#656=VECTOR('',#1074,1.);
#657=VECTOR('',#1075,1.);
#658=VECTOR('',#1078,1.);
#659=VECTOR('',#1079,1.);
#660=VECTOR('',#1080,1.);
#661=VECTOR('',#1085,1.);
#662=VECTOR('',#1086,1.);
#663=VECTOR('',#1087,1.);
#664=VECTOR('',#1088,1.);
#665=VECTOR('',#1089,1.);
#666=VECTOR('',#1096,1.);
#667=VECTOR('',#1099,1.);
#668=VECTOR('',#1100,1.);
#669=VECTOR('',#1101,1.);
#670=VECTOR('',#1108,1.);
#671=VECTOR('',#1113,1.);
#672=VECTOR('',#1114,1.);
#673=VECTOR('',#1121,1.);
#674=VECTOR('',#1124,1.);
#675=VECTOR('',#1125,1.);
#676=VECTOR('',#1126,1.);
#677=VECTOR('',#1135,1.);
#678=VECTOR('',#1138,1.);
#679=VECTOR('',#1147,1.);
#680=VECTOR('',#1148,1.);
#681=VECTOR('',#1149,1.);
#682=VECTOR('',#1150,1.);
#683=VECTOR('',#1155,1.);
#684=VECTOR('',#1160,1.);
#685=VECTOR('',#1161,1.);
#686=VECTOR('',#1162,1.);
#687=VECTOR('',#1171,1.);
#688=VECTOR('',#1172,1.);
#689=VECTOR('',#1175,1.);
#690=VECTOR('',#1178,1.);
#691=VECTOR('',#1181,1.);
#692=VECTOR('',#1182,1.);
#693=VECTOR('',#1191,1.);
#694=VECTOR('',#1200,1.);
#695=VECTOR('',#1203,1.);
#696=VECTOR('',#1204,1.);
#697=EDGE_LOOP('',(#69,#70,#71,#72));
#698=EDGE_LOOP('',(#73,#74,#75,#76,#77));
#699=EDGE_LOOP('',(#78,#79,#80,#81));
#700=EDGE_LOOP('',(#82,#83,#84,#85));
#701=EDGE_LOOP('',(#86,#87,#88,#89));
#702=EDGE_LOOP('',(#90,#91,#92,#93));
#703=EDGE_LOOP('',(#94,#95,#96,#97));
#704=EDGE_LOOP('',(#98,#99,#100,#101));
#705=EDGE_LOOP('',(#102,#103,#104,#105));
#706=EDGE_LOOP('',(#106,#107,#108,#109));
#707=EDGE_LOOP('',(#110,#111,#112,#113));
#708=EDGE_LOOP('',(#114));
#709=EDGE_LOOP('',(#115,#116,#117,#118,#119,#120,#121,#122,#123,#124,#125,
#126));
#710=EDGE_LOOP('',(#127,#128,#129,#130));
#711=EDGE_LOOP('',(#131));
#712=EDGE_LOOP('',(#132,#133,#134,#135,#136,#137,#138,#139,#140,#141,#142,
#143,#144,#145,#146,#147));
#713=EDGE_LOOP('',(#148,#149,#150,#151));
#714=EDGE_LOOP('',(#152));
#715=EDGE_LOOP('',(#153,#154,#155,#156,#157,#158));
#716=EDGE_LOOP('',(#159,#160,#161,#162));
#717=EDGE_LOOP('',(#163,#164,#165,#166));
#718=EDGE_LOOP('',(#167,#168,#169,#170));
#719=EDGE_LOOP('',(#171));
#720=EDGE_LOOP('',(#172,#173,#174,#175));
#721=EDGE_LOOP('',(#176,#177,#178,#179));
#722=EDGE_LOOP('',(#180,#181,#182,#183));
#723=EDGE_LOOP('',(#184,#185,#186,#187));
#724=EDGE_LOOP('',(#188,#189,#190,#191,#192,#193,#194,#195,#196,#197,#198,
#199));
#725=EDGE_LOOP('',(#200,#201,#202,#203,#204,#205,#206,#207,#208,#209,#210,
#211));
#726=EDGE_LOOP('',(#212,#213,#214,#215));
#727=EDGE_LOOP('',(#216,#217,#218,#219));
#728=EDGE_LOOP('',(#220,#221,#222,#223,#224));
#729=EDGE_LOOP('',(#225,#226,#227,#228));
#730=EDGE_LOOP('',(#229,#230,#231,#232));
#731=EDGE_LOOP('',(#233,#234,#235,#236));
#732=EDGE_LOOP('',(#237,#238,#239,#240,#241,#242,#243,#244,#245,#246,#247,
#248));
#733=EDGE_LOOP('',(#249,#250,#251,#252,#253,#254,#255,#256,#257,#258,#259,
#260));
#734=EDGE_LOOP('',(#261,#262,#263,#264));
#735=EDGE_LOOP('',(#265,#266,#267,#268));
#736=EDGE_LOOP('',(#269,#270,#271,#272));
#737=EDGE_LOOP('',(#273,#274,#275,#276));
#738=EDGE_LOOP('',(#277,#278,#279,#280));
#739=EDGE_LOOP('',(#281,#282,#283,#284));
#740=EDGE_LOOP('',(#285,#286,#287,#288));
#741=EDGE_LOOP('',(#289,#290,#291,#292,#293,#294,#295,#296,#297,#298,#299,
#300));
#742=EDGE_LOOP('',(#301,#302,#303,#304,#305,#306,#307,#308,#309,#310,#311,
#312));
#743=EDGE_LOOP('',(#313));
#744=EDGE_LOOP('',(#314));
#745=EDGE_LOOP('',(#315));
#746=EDGE_LOOP('',(#316));
#747=FACE_BOUND('',#697,.T.);
#748=FACE_BOUND('',#698,.T.);
#749=FACE_BOUND('',#699,.T.);
#750=FACE_BOUND('',#700,.T.);
#751=FACE_BOUND('',#701,.T.);
#752=FACE_BOUND('',#702,.T.);
#753=FACE_BOUND('',#703,.T.);
#754=FACE_BOUND('',#704,.T.);
#755=FACE_BOUND('',#705,.T.);
#756=FACE_BOUND('',#706,.T.);
#757=FACE_BOUND('',#707,.T.);
#758=FACE_BOUND('',#708,.T.);
#759=FACE_BOUND('',#709,.T.);
#760=FACE_BOUND('',#710,.T.);
#761=FACE_BOUND('',#711,.T.);
#762=FACE_BOUND('',#712,.T.);
#763=FACE_BOUND('',#713,.T.);
#764=FACE_BOUND('',#714,.T.);
#765=FACE_BOUND('',#715,.T.);
#766=FACE_BOUND('',#716,.T.);
#767=FACE_BOUND('',#717,.T.);
#768=FACE_BOUND('',#718,.T.);
#769=FACE_BOUND('',#719,.T.);
#770=FACE_BOUND('',#720,.T.);
#771=FACE_BOUND('',#721,.T.);
#772=FACE_BOUND('',#722,.T.);
#773=FACE_BOUND('',#723,.T.);
#774=FACE_BOUND('',#724,.T.);
#775=FACE_BOUND('',#725,.T.);
#776=FACE_BOUND('',#726,.T.);
#777=FACE_BOUND('',#727,.T.);
#778=FACE_BOUND('',#728,.T.);
#779=FACE_BOUND('',#729,.T.);
#780=FACE_BOUND('',#730,.T.);
#781=FACE_BOUND('',#731,.T.);
#782=FACE_BOUND('',#732,.T.);
#783=FACE_BOUND('',#733,.T.);
#784=FACE_BOUND('',#734,.T.);
#785=FACE_BOUND('',#735,.T.);
#786=FACE_BOUND('',#736,.T.);
#787=FACE_BOUND('',#737,.T.);
#788=FACE_BOUND('',#738,.T.);
#789=FACE_BOUND('',#739,.T.);
#790=FACE_BOUND('',#740,.T.);
#791=FACE_BOUND('',#741,.T.);
#792=FACE_BOUND('',#742,.T.);
#793=FACE_BOUND('',#743,.T.);
#794=FACE_BOUND('',#744,.T.);
#795=FACE_BOUND('',#745,.T.);
#796=FACE_BOUND('',#746,.T.);
#797=PLANE('',#879);
#798=PLANE('',#881);
#799=PLANE('',#886);
#800=PLANE('',#894);
#801=PLANE('',#899);
#802=PLANE('',#903);
#803=PLANE('',#909);
#804=PLANE('',#912);
#805=PLANE('',#913);
#806=PLANE('',#918);
#807=PLANE('',#922);
#808=PLANE('',#927);
#809=PLANE('',#931);
#810=PLANE('',#932);
#811=PLANE('',#933);
#812=PLANE('',#934);
#813=PLANE('',#935);
#814=PLANE('',#940);
#815=PLANE('',#944);
#816=PLANE('',#945);
#817=PLANE('',#948);
#818=PLANE('',#949);
#819=PLANE('',#956);
#820=PLANE('',#957);
#821=PLANE('',#958);
#822=ADVANCED_FACE('',(#747),#797,.F.);
#823=ADVANCED_FACE('',(#748),#798,.F.);
#824=ADVANCED_FACE('',(#749),#12,.T.);
#825=ADVANCED_FACE('',(#750),#799,.F.);
#826=ADVANCED_FACE('',(#751),#13,.T.);
#827=ADVANCED_FACE('',(#752),#14,.T.);
#828=ADVANCED_FACE('',(#753),#15,.T.);
#829=ADVANCED_FACE('',(#754),#800,.F.);
#830=ADVANCED_FACE('',(#755),#16,.T.);
#831=ADVANCED_FACE('',(#756),#801,.T.);
#832=ADVANCED_FACE('',(#757),#17,.T.);
#833=ADVANCED_FACE('',(#758,#759),#802,.T.);
#834=ADVANCED_FACE('',(#760),#18,.T.);
#835=ADVANCED_FACE('',(#761,#762),#803,.T.);
#836=ADVANCED_FACE('',(#763),#804,.T.);
#837=ADVANCED_FACE('',(#764,#765),#805,.T.);
#838=ADVANCED_FACE('',(#766),#19,.F.);
#839=ADVANCED_FACE('',(#767),#806,.T.);
#840=ADVANCED_FACE('',(#768),#20,.F.);
#841=ADVANCED_FACE('',(#769,#770),#807,.T.);
#842=ADVANCED_FACE('',(#771),#21,.T.);
#843=ADVANCED_FACE('',(#772),#808,.T.);
#844=ADVANCED_FACE('',(#773),#22,.T.);
#845=ADVANCED_FACE('',(#774),#809,.T.);
#846=ADVANCED_FACE('',(#775),#810,.F.);
#847=ADVANCED_FACE('',(#776),#811,.F.);
#848=ADVANCED_FACE('',(#777),#812,.T.);
#849=ADVANCED_FACE('',(#778),#813,.F.);
#850=ADVANCED_FACE('',(#779),#23,.T.);
#851=ADVANCED_FACE('',(#780),#814,.F.);
#852=ADVANCED_FACE('',(#781),#24,.T.);
#853=ADVANCED_FACE('',(#782),#815,.F.);
#854=ADVANCED_FACE('',(#783),#816,.T.);
#855=ADVANCED_FACE('',(#784),#25,.T.);
#856=ADVANCED_FACE('',(#785),#26,.T.);
#857=ADVANCED_FACE('',(#786),#817,.T.);
#858=ADVANCED_FACE('',(#787),#818,.T.);
#859=ADVANCED_FACE('',(#788),#27,.T.);
#860=ADVANCED_FACE('',(#789),#28,.T.);
#861=ADVANCED_FACE('',(#790),#819,.T.);
#862=ADVANCED_FACE('',(#791),#820,.T.);
#863=ADVANCED_FACE('',(#792),#821,.F.);
#864=ADVANCED_FACE('',(#793,#794),#29,.F.);
#865=ADVANCED_FACE('',(#795,#796),#30,.F.);
#866=CLOSED_SHELL('',(#822,#823,#824,#825,#826,#827,#828,#829,#830,#831,
#832,#833,#834,#835,#836,#837,#838,#839,#840,#841,#842,#843,#844,#845,#846,
#847,#848,#849,#850,#851,#852,#853,#854,#855,#856,#857,#858,#859,#860,#861,
#862,#863,#864,#865));
#867=STYLED_ITEM('',(#868),#875);
#868=PRESENTATION_STYLE_ASSIGNMENT((#869));
#869=SURFACE_STYLE_USAGE(.BOTH.,#870);
#870=SURFACE_SIDE_STYLE('',(#871));
#871=SURFACE_STYLE_FILL_AREA(#872);
#872=FILL_AREA_STYLE('',(#873));
#873=FILL_AREA_STYLE_COLOUR('',#874);
#874=COLOUR_RGB('',0.615686274509804,0.811764705882353,0.929411764705882);
#875=MANIFOLD_SOLID_BREP('Part 1',#866);
#876=SHAPE_DEFINITION_REPRESENTATION(#1472,#877);
#877=SHAPE_REPRESENTATION('Part 1',(#878),#1467);
#878=AXIS2_PLACEMENT_3D('',#1213,#961,#962);
#879=AXIS2_PLACEMENT_3D('',#1214,#963,#964);
#880=AXIS2_PLACEMENT_3D('',#1222,#968,#969);
#881=AXIS2_PLACEMENT_3D('',#1223,#970,#971);
#882=AXIS2_PLACEMENT_3D('',#1227,#973,#974);
#883=AXIS2_PLACEMENT_3D('',#1234,#978,#979);
#884=AXIS2_PLACEMENT_3D('',#1235,#980,#981);
#885=AXIS2_PLACEMENT_3D('',#1237,#982,#983);
#886=AXIS2_PLACEMENT_3D('',#1240,#985,#986);
#887=AXIS2_PLACEMENT_3D('',#1246,#990,#991);
#888=AXIS2_PLACEMENT_3D('',#1247,#992,#993);
#889=AXIS2_PLACEMENT_3D('',#1248,#994,#995);
#890=AXIS2_PLACEMENT_3D('',#1249,#996,#997);
#891=AXIS2_PLACEMENT_3D('',#1250,#998,#999);
#892=AXIS2_PLACEMENT_3D('',#1255,#1002,#1003);
#893=AXIS2_PLACEMENT_3D('',#1258,#1005,#1006);
#894=AXIS2_PLACEMENT_3D('',#1261,#1008,#1009);
#895=AXIS2_PLACEMENT_3D('',#1267,#1012,#1013);
#896=AXIS2_PLACEMENT_3D('',#1270,#1015,#1016);
#897=AXIS2_PLACEMENT_3D('',#1274,#1018,#1019);
#898=AXIS2_PLACEMENT_3D('',#1278,#1021,#1022);
#899=AXIS2_PLACEMENT_3D('',#1279,#1023,#1024);
#900=AXIS2_PLACEMENT_3D('',#1285,#1028,#1029);
#901=AXIS2_PLACEMENT_3D('',#1289,#1031,#1032);
#902=AXIS2_PLACEMENT_3D('',#1290,#1033,#1034);
#903=AXIS2_PLACEMENT_3D('',#1291,#1035,#1036);
#904=AXIS2_PLACEMENT_3D('',#1292,#1037,#1038);
#905=AXIS2_PLACEMENT_3D('',#1294,#1039,#1040);
#906=AXIS2_PLACEMENT_3D('',#1305,#1046,#1047);
#907=AXIS2_PLACEMENT_3D('',#1312,#1051,#1052);
#908=AXIS2_PLACEMENT_3D('',#1315,#1054,#1055);
#909=AXIS2_PLACEMENT_3D('',#1318,#1057,#1058);
#910=AXIS2_PLACEMENT_3D('',#1319,#1059,#1060);
#911=AXIS2_PLACEMENT_3D('',#1327,#1064,#1065);
#912=AXIS2_PLACEMENT_3D('',#1347,#1076,#1077);
#913=AXIS2_PLACEMENT_3D('',#1353,#1081,#1082);
#914=AXIS2_PLACEMENT_3D('',#1354,#1083,#1084);
#915=AXIS2_PLACEMENT_3D('',#1365,#1090,#1091);
#916=AXIS2_PLACEMENT_3D('',#1366,#1092,#1093);
#917=AXIS2_PLACEMENT_3D('',#1368,#1094,#1095);
#918=AXIS2_PLACEMENT_3D('',#1371,#1097,#1098);
#919=AXIS2_PLACEMENT_3D('',#1377,#1102,#1103);
#920=AXIS2_PLACEMENT_3D('',#1378,#1104,#1105);
#921=AXIS2_PLACEMENT_3D('',#1380,#1106,#1107);
#922=AXIS2_PLACEMENT_3D('',#1383,#1109,#1110);
#923=AXIS2_PLACEMENT_3D('',#1384,#1111,#1112);
#924=AXIS2_PLACEMENT_3D('',#1388,#1115,#1116);
#925=AXIS2_PLACEMENT_3D('',#1389,#1117,#1118);
#926=AXIS2_PLACEMENT_3D('',#1391,#1119,#1120);
#927=AXIS2_PLACEMENT_3D('',#1394,#1122,#1123);
#928=AXIS2_PLACEMENT_3D('',#1400,#1127,#1128);
#929=AXIS2_PLACEMENT_3D('',#1401,#1129,#1130);
#930=AXIS2_PLACEMENT_3D('',#1402,#1131,#1132);
#931=AXIS2_PLACEMENT_3D('',#1403,#1133,#1134);
#932=AXIS2_PLACEMENT_3D('',#1405,#1136,#1137);
#933=AXIS2_PLACEMENT_3D('',#1407,#1139,#1140);
#934=AXIS2_PLACEMENT_3D('',#1408,#1141,#1142);
#935=AXIS2_PLACEMENT_3D('',#1409,#1143,#1144);
#936=AXIS2_PLACEMENT_3D('',#1410,#1145,#1146);
#937=AXIS2_PLACEMENT_3D('',#1420,#1151,#1152);
#938=AXIS2_PLACEMENT_3D('',#1421,#1153,#1154);
#939=AXIS2_PLACEMENT_3D('',#1425,#1156,#1157);
#940=AXIS2_PLACEMENT_3D('',#1426,#1158,#1159);
#941=AXIS2_PLACEMENT_3D('',#1432,#1163,#1164);
#942=AXIS2_PLACEMENT_3D('',#1433,#1165,#1166);
#943=AXIS2_PLACEMENT_3D('',#1434,#1167,#1168);
#944=AXIS2_PLACEMENT_3D('',#1435,#1169,#1170);
#945=AXIS2_PLACEMENT_3D('',#1438,#1173,#1174);
#946=AXIS2_PLACEMENT_3D('',#1440,#1176,#1177);
#947=AXIS2_PLACEMENT_3D('',#1442,#1179,#1180);
#948=AXIS2_PLACEMENT_3D('',#1445,#1183,#1184);
#949=AXIS2_PLACEMENT_3D('',#1446,#1185,#1186);
#950=AXIS2_PLACEMENT_3D('',#1447,#1187,#1188);
#951=AXIS2_PLACEMENT_3D('',#1448,#1189,#1190);
#952=AXIS2_PLACEMENT_3D('',#1452,#1192,#1193);
#953=AXIS2_PLACEMENT_3D('',#1453,#1194,#1195);
#954=AXIS2_PLACEMENT_3D('',#1454,#1196,#1197);
#955=AXIS2_PLACEMENT_3D('',#1456,#1198,#1199);
#956=AXIS2_PLACEMENT_3D('',#1459,#1201,#1202);
#957=AXIS2_PLACEMENT_3D('',#1462,#1205,#1206);
#958=AXIS2_PLACEMENT_3D('',#1463,#1207,#1208);
#959=AXIS2_PLACEMENT_3D('',#1464,#1209,#1210);
#960=AXIS2_PLACEMENT_3D('',#1465,#1211,#1212);
#961=DIRECTION('',(0.,0.,1.));
#962=DIRECTION('',(1.,0.,0.));
#963=DIRECTION('',(0.,0.,-1.));
#964=DIRECTION('',(-1.,0.,0.));
#965=DIRECTION('',(-1.,0.,0.));
#966=DIRECTION('',(0.,1.,0.));
#967=DIRECTION('',(-1.,0.,0.));
#968=DIRECTION('',(0.,0.,-1.));
#969=DIRECTION('',(-1.,0.,0.));
#970=DIRECTION('',(0.,0.,1.));
#971=DIRECTION('',(1.,0.,0.));
#972=DIRECTION('',(1.,0.,0.));
#973=DIRECTION('',(0.,0.,1.));
#974=DIRECTION('',(1.,0.,0.));
#975=DIRECTION('',(0.,1.,0.));
#976=DIRECTION('',(1.,0.,0.));
#977=DIRECTION('',(0.,1.,0.));
#978=DIRECTION('',(0.,1.,0.));
#979=DIRECTION('',(0.,0.,1.));
#980=DIRECTION('',(0.,-1.,0.));
#981=DIRECTION('',(2.04085114820801E-16,0.,-1.));
#982=DIRECTION('',(0.,-1.,0.));
#983=DIRECTION('',(0.,0.,-1.));
#984=DIRECTION('',(0.,1.,0.));
#985=DIRECTION('',(-1.,0.,0.));
#986=DIRECTION('',(0.,0.,1.));
#987=DIRECTION('',(0.,0.,1.));
#988=DIRECTION('',(0.,0.,1.));
#989=DIRECTION('',(0.,1.,0.));
#990=DIRECTION('',(0.,1.,0.));
#991=DIRECTION('',(0.,0.,1.));
#992=DIRECTION('',(0.,-1.,0.));
#993=DIRECTION('',(1.,0.,8.16340459283203E-16));
#994=DIRECTION('',(0.,-1.,0.));
#995=DIRECTION('',(0.,0.,-1.));
#996=DIRECTION('',(0.,0.,1.));
#997=DIRECTION('',(1.,0.,0.));
#998=DIRECTION('',(0.,0.,1.));
#999=DIRECTION('',(1.,0.,0.));
#1000=DIRECTION('',(0.,0.,1.));
#1001=DIRECTION('',(0.,0.,1.));
#1002=DIRECTION('',(0.,0.,-1.));
#1003=DIRECTION('',(-1.,0.,0.));
#1004=DIRECTION('',(0.,0.,-1.));
#1005=DIRECTION('',(0.,0.,-1.));
#1006=DIRECTION('',(-1.,0.,0.));
#1007=DIRECTION('',(0.,0.,1.));
#1008=DIRECTION('',(0.,0.,-1.));
#1009=DIRECTION('',(-1.,0.,0.));
#1010=DIRECTION('',(0.,1.,0.));
#1011=DIRECTION('',(-1.,0.,0.));
#1012=DIRECTION('',(0.,0.,-1.));
#1013=DIRECTION('',(-1.,0.,0.));
#1014=DIRECTION('',(-1.,0.,0.));
#1015=DIRECTION('',(0.,1.,0.));
#1016=DIRECTION('',(0.,0.,1.));
#1017=DIRECTION('',(0.,1.,0.));
#1018=DIRECTION('',(0.,-1.,0.));
#1019=DIRECTION('',(0.,0.,-1.));
#1020=DIRECTION('',(0.,1.,0.));
#1021=DIRECTION('',(0.,-1.,0.));
#1022=DIRECTION('',(2.04085114820801E-16,0.,-1.));
#1023=DIRECTION('',(1.,0.,0.));
#1024=DIRECTION('',(0.,0.,-1.));
#1025=DIRECTION('',(0.,1.,0.));
#1026=DIRECTION('',(0.,0.,-1.));
#1027=DIRECTION('',(0.,0.,1.));
#1028=DIRECTION('',(0.,1.,0.));
#1029=DIRECTION('',(0.,0.,1.));
#1030=DIRECTION('',(0.,1.,0.));
#1031=DIRECTION('',(0.,-1.,0.));
#1032=DIRECTION('',(0.,0.,-1.));
#1033=DIRECTION('',(0.,-1.,0.));
#1034=DIRECTION('',(1.,0.,8.16340459283203E-16));
#1035=DIRECTION('',(0.,0.,1.));
#1036=DIRECTION('',(1.,0.,0.));
#1037=DIRECTION('',(0.,0.,1.));
#1038=DIRECTION('',(1.,0.,0.));
#1039=DIRECTION('',(0.,0.,1.));
#1040=DIRECTION('',(1.,0.,0.));
#1041=DIRECTION('',(-1.,0.,0.));
#1042=DIRECTION('',(0.,1.,0.));
#1043=DIRECTION('',(-1.,0.,0.));
#1044=DIRECTION('',(1.,0.,0.));
#1045=DIRECTION('',(-1.,0.,0.));
#1046=DIRECTION('',(0.,0.,1.));
#1047=DIRECTION('',(1.,0.,0.));
#1048=DIRECTION('',(-1.,0.,0.));
#1049=DIRECTION('',(0.,1.,0.));
#1050=DIRECTION('',(1.,0.,0.));
#1051=DIRECTION('',(0.,0.,1.));
#1052=DIRECTION('',(1.,0.,0.));
#1053=DIRECTION('',(0.,0.,-1.));
#1054=DIRECTION('',(0.,0.,-1.));
#1055=DIRECTION('',(-1.,0.,0.));
#1056=DIRECTION('',(0.,0.,1.));
#1057=DIRECTION('',(0.,0.,-1.));
#1058=DIRECTION('',(-1.,0.,0.));
#1059=DIRECTION('',(0.,0.,-1.));
#1060=DIRECTION('',(-1.,0.,0.));
#1061=DIRECTION('',(1.,0.,0.));
#1062=DIRECTION('',(0.,1.,0.));
#1063=DIRECTION('',(1.,0.,0.));
#1064=DIRECTION('',(0.,0.,-1.));
#1065=DIRECTION('',(-1.,0.,0.));
#1066=DIRECTION('',(0.,1.,0.));
#1067=DIRECTION('',(-1.,0.,0.));
#1068=DIRECTION('',(0.,1.,0.));
#1069=DIRECTION('',(1.,0.,0.));
#1070=DIRECTION('',(0.707106781186548,-0.707106781186548,0.));
#1071=DIRECTION('',(0.,1.,0.));
#1072=DIRECTION('',(0.707106781186548,0.707106781186548,0.));
#1073=DIRECTION('',(1.,0.,0.));
#1074=DIRECTION('',(-1.,0.,0.));
#1075=DIRECTION('',(0.,1.,0.));
#1076=DIRECTION('',(-1.,0.,0.));
#1077=DIRECTION('',(0.,0.,1.));
#1078=DIRECTION('',(0.,0.,1.));
#1079=DIRECTION('',(0.,1.,0.));
#1080=DIRECTION('',(0.,0.,-1.));
#1081=DIRECTION('',(0.,0.,1.));
#1082=DIRECTION('',(1.,0.,0.));
#1083=DIRECTION('',(0.,0.,1.));
#1084=DIRECTION('',(1.,0.,0.));
#1085=DIRECTION('',(-0.707106781186548,0.707106781186548,0.));
#1086=DIRECTION('',(-1.,0.,0.));
#1087=DIRECTION('',(0.,1.,0.));
#1088=DIRECTION('',(-1.,0.,0.));
#1089=DIRECTION('',(-0.707106781186548,-0.707106781186548,0.));
#1090=DIRECTION('',(0.,1.,0.));
#1091=DIRECTION('',(0.,0.,1.));
#1092=DIRECTION('',(0.,-1.,0.));
#1093=DIRECTION('',(2.04085114820801E-16,0.,-1.));
#1094=DIRECTION('',(0.,-1.,0.));
#1095=DIRECTION('',(2.04085114820801E-16,0.,-1.));
#1096=DIRECTION('',(0.,1.,0.));
#1097=DIRECTION('',(-1.,0.,0.));
#1098=DIRECTION('',(0.,0.,1.));
#1099=DIRECTION('',(0.,0.,1.));
#1100=DIRECTION('',(0.,0.,1.));
#1101=DIRECTION('',(0.,1.,0.));
#1102=DIRECTION('',(0.,1.,0.));
#1103=DIRECTION('',(0.,0.,1.));
#1104=DIRECTION('',(0.,-1.,0.));
#1105=DIRECTION('',(1.,0.,8.16340459283203E-16));
#1106=DIRECTION('',(0.,-1.,0.));
#1107=DIRECTION('',(1.,0.,8.16340459283203E-16));
#1108=DIRECTION('',(0.,1.,0.));
#1109=DIRECTION('',(0.,0.,-1.));
#1110=DIRECTION('',(-1.,0.,0.));
#1111=DIRECTION('',(0.,0.,-1.));
#1112=DIRECTION('',(-1.,0.,0.));
#1113=DIRECTION('',(-1.,0.,0.));
#1114=DIRECTION('',(-1.,0.,0.));
#1115=DIRECTION('',(0.,1.,0.));
#1116=DIRECTION('',(0.,0.,1.));
#1117=DIRECTION('',(0.,-1.,0.));
#1118=DIRECTION('',(0.,0.,-1.));
#1119=DIRECTION('',(0.,-1.,0.));
#1120=DIRECTION('',(1.,0.,8.16340459283203E-16));
#1121=DIRECTION('',(0.,1.,0.));
#1122=DIRECTION('',(1.,0.,0.));
#1123=DIRECTION('',(0.,0.,-1.));
#1124=DIRECTION('',(0.,0.,-1.));
#1125=DIRECTION('',(0.,0.,1.));
#1126=DIRECTION('',(0.,1.,0.));
#1127=DIRECTION('',(0.,1.,0.));
#1128=DIRECTION('',(0.,0.,1.));
#1129=DIRECTION('',(0.,-1.,0.));
#1130=DIRECTION('',(0.,0.,-1.));
#1131=DIRECTION('',(0.,-1.,0.));
#1132=DIRECTION('',(2.04085114820801E-16,0.,-1.));
#1133=DIRECTION('',(0.,-1.,0.));
#1134=DIRECTION('',(0.,0.,-1.));
#1135=DIRECTION('',(0.,0.,-1.));
#1136=DIRECTION('',(0.,-1.,0.));
#1137=DIRECTION('',(0.,0.,-1.));
#1138=DIRECTION('',(0.,0.,1.));
#1139=DIRECTION('',(0.707106781186548,0.707106781186548,0.));
#1140=DIRECTION('',(0.,0.,1.));
#1141=DIRECTION('',(-0.707106781186548,0.707106781186548,0.));
#1142=DIRECTION('',(0.,0.,-1.));
#1143=DIRECTION('',(0.,0.,1.));
#1144=DIRECTION('',(1.,0.,0.));
#1145=DIRECTION('',(0.,0.,1.));
#1146=DIRECTION('',(1.,0.,0.));
#1147=DIRECTION('',(1.,0.,0.));
#1148=DIRECTION('',(0.,1.,0.));
#1149=DIRECTION('',(1.,0.,0.));
#1150=DIRECTION('',(0.,1.,0.));
#1151=DIRECTION('',(0.,1.,0.));
#1152=DIRECTION('',(0.,0.,1.));
#1153=DIRECTION('',(0.,-1.,0.));
#1154=DIRECTION('',(2.04085114820801E-16,0.,-1.));
#1155=DIRECTION('',(0.,1.,0.));
#1156=DIRECTION('',(0.,-1.,0.));
#1157=DIRECTION('',(0.,0.,-1.));
#1158=DIRECTION('',(-1.,0.,0.));
#1159=DIRECTION('',(0.,0.,1.));
#1160=DIRECTION('',(0.,0.,1.));
#1161=DIRECTION('',(0.,1.,0.));
#1162=DIRECTION('',(0.,0.,1.));
#1163=DIRECTION('',(0.,1.,0.));
#1164=DIRECTION('',(0.,0.,1.));
#1165=DIRECTION('',(0.,-1.,0.));
#1166=DIRECTION('',(1.,0.,8.16340459283203E-16));
#1167=DIRECTION('',(0.,-1.,0.));
#1168=DIRECTION('',(0.,0.,-1.));
#1169=DIRECTION('',(0.,-1.,0.));
#1170=DIRECTION('',(0.,0.,-1.));
#1171=DIRECTION('',(0.,0.,1.));
#1172=DIRECTION('',(0.,0.,1.));
#1173=DIRECTION('',(0.,-1.,0.));
#1174=DIRECTION('',(0.,0.,-1.));
#1175=DIRECTION('',(0.,0.,1.));
#1176=DIRECTION('',(0.,0.,1.));
#1177=DIRECTION('',(1.,0.,0.));
#1178=DIRECTION('',(0.,0.,1.));
#1179=DIRECTION('',(0.,0.,-1.));
#1180=DIRECTION('',(-1.,0.,0.));
#1181=DIRECTION('',(0.,0.,-1.));
#1182=DIRECTION('',(0.,0.,1.));
#1183=DIRECTION('',(1.,0.,0.));
#1184=DIRECTION('',(0.,0.,-1.));
#1185=DIRECTION('',(1.,0.,0.));
#1186=DIRECTION('',(0.,0.,-1.));
#1187=DIRECTION('',(0.,1.,0.));
#1188=DIRECTION('',(0.,0.,1.));
#1189=DIRECTION('',(0.,-1.,0.));
#1190=DIRECTION('',(2.04085114820801E-16,0.,-1.));
#1191=DIRECTION('',(0.,1.,0.));
#1192=DIRECTION('',(0.,-1.,0.));
#1193=DIRECTION('',(2.04085114820801E-16,0.,-1.));
#1194=DIRECTION('',(0.,1.,0.));
#1195=DIRECTION('',(0.,0.,1.));
#1196=DIRECTION('',(0.,-1.,0.));
#1197=DIRECTION('',(1.,0.,8.16340459283203E-16));
#1198=DIRECTION('',(0.,-1.,0.));
#1199=DIRECTION('',(1.,0.,8.16340459283203E-16));
#1200=DIRECTION('',(0.,1.,0.));
#1201=DIRECTION('',(1.,0.,0.));
#1202=DIRECTION('',(0.,0.,-1.));
#1203=DIRECTION('',(0.,0.,1.));
#1204=DIRECTION('',(0.,0.,1.));
#1205=DIRECTION('',(0.,-1.,0.));
#1206=DIRECTION('',(0.,0.,-1.));
#1207=DIRECTION('',(0.,-1.,0.));
#1208=DIRECTION('',(0.,0.,-1.));
#1209=DIRECTION('',(0.,0.,1.));
#1210=DIRECTION('',(1.,0.,0.));
#1211=DIRECTION('',(0.,0.,-1.));
#1212=DIRECTION('',(-1.,0.,0.));
#1213=CARTESIAN_POINT('',(0.,0.,0.));
#1214=CARTESIAN_POINT('',(0.039,-0.04,0.134));
#1215=CARTESIAN_POINT('',(0.039,0.005,0.134));
#1216=CARTESIAN_POINT('',(0.044,0.005,0.134));
#1217=CARTESIAN_POINT('',(0.0396862696659688,0.005,0.134));
#1218=CARTESIAN_POINT('',(0.044,-0.04,0.134));
#1219=CARTESIAN_POINT('',(0.044,0.03,0.134));
#1220=CARTESIAN_POINT('',(0.039,0.03,0.134));
#1221=CARTESIAN_POINT('',(0.0264575131106459,0.03,0.134));
#1222=CARTESIAN_POINT('',(0.,2.4492935982947E-18,0.134));
#1223=CARTESIAN_POINT('',(-0.0193904340267182,-0.04,0.016));
#1224=CARTESIAN_POINT('',(0.0410567373037338,0.005,0.016));
#1225=CARTESIAN_POINT('',(0.0244948974278318,0.005,0.016));
#1226=CARTESIAN_POINT('',(0.044,0.005,0.016));
#1227=CARTESIAN_POINT('',(0.,-1.53080849893419E-18,0.016));
#1228=CARTESIAN_POINT('',(0.,0.025,0.016));
#1229=CARTESIAN_POINT('',(0.,3.46944695195361E-18,0.016));
#1230=CARTESIAN_POINT('',(0.,0.03,0.016));
#1231=CARTESIAN_POINT('',(-0.0193904340267182,0.03,0.016));
#1232=CARTESIAN_POINT('',(0.044,0.03,0.016));
#1233=CARTESIAN_POINT('',(0.044,-0.04,0.016));
#1234=CARTESIAN_POINT('',(0.044,-0.04,0.034));
#1235=CARTESIAN_POINT('',(0.044,0.005,0.034));
#1236=CARTESIAN_POINT('',(0.062,0.005,0.034));
#1237=CARTESIAN_POINT('',(0.044,0.03,0.034));
#1238=CARTESIAN_POINT('',(0.062,0.03,0.034));
#1239=CARTESIAN_POINT('',(0.062,-0.04,0.034));
#1240=CARTESIAN_POINT('',(0.062,-0.04,0.0426953658461571));
#1241=CARTESIAN_POINT('',(0.062,0.005,0.0426953658461571));
#1242=CARTESIAN_POINT('',(0.062,0.005,0.116));
#1243=CARTESIAN_POINT('',(0.062,0.03,0.0426953658461571));
#1244=CARTESIAN_POINT('',(0.062,0.03,0.116));
#1245=CARTESIAN_POINT('',(0.062,-0.04,0.116));
#1246=CARTESIAN_POINT('',(0.044,-0.04,0.116));
#1247=CARTESIAN_POINT('',(0.044,0.005,0.116));
#1248=CARTESIAN_POINT('',(0.044,0.03,0.116));
#1249=CARTESIAN_POINT('',(0.,2.4492935982947E-18,-2.000000000002E-6));
#1250=CARTESIAN_POINT('',(0.,2.4492935982947E-18,0.15));
#1251=CARTESIAN_POINT('',(0.0396862696659688,0.005,0.15));
#1252=CARTESIAN_POINT('',(0.0264575131106459,0.03,0.15));
#1253=CARTESIAN_POINT('',(0.0396862696659688,0.005,-2.000000000002E-6));
#1254=CARTESIAN_POINT('',(0.0264575131106459,0.03,-2.000000000002E-6));
#1255=CARTESIAN_POINT('',(0.,-1.53080849893419E-18,0.150002));
#1256=CARTESIAN_POINT('',(0.0244948974278318,0.005,0.150002));
#1257=CARTESIAN_POINT('',(0.0244948974278318,0.005,0.));
#1258=CARTESIAN_POINT('',(0.,-1.53080849893419E-18,0.));
#1259=CARTESIAN_POINT('',(0.,0.025,0.));
#1260=CARTESIAN_POINT('',(0.,0.025,-2.00000000001241E-6));
#1261=CARTESIAN_POINT('',(0.039,-0.04,0.134));
#1262=CARTESIAN_POINT('',(0.044,-0.04,0.134));
#1263=CARTESIAN_POINT('',(0.044,-0.03,0.134));
#1264=CARTESIAN_POINT('',(0.044,-0.005,0.134));
#1265=CARTESIAN_POINT('',(0.039,-0.005,0.134));
#1266=CARTESIAN_POINT('',(0.0396862696659688,-0.005,0.134));
#1267=CARTESIAN_POINT('',(0.,2.4492935982947E-18,0.134));
#1268=CARTESIAN_POINT('',(0.0264575131106459,-0.03,0.134));
#1269=CARTESIAN_POINT('',(0.039,-0.03,0.134));
#1270=CARTESIAN_POINT('',(0.044,-0.04,0.034));
#1271=CARTESIAN_POINT('',(0.078,-0.04,0.034));
#1272=CARTESIAN_POINT('',(0.078,0.03,0.034));
#1273=CARTESIAN_POINT('',(0.078,0.04,0.034));
#1274=CARTESIAN_POINT('',(0.044,0.03,0.034));
#1275=CARTESIAN_POINT('',(0.044,0.03,0.));
#1276=CARTESIAN_POINT('',(0.044,-0.04,0.));
#1277=CARTESIAN_POINT('',(0.044,0.04,0.));
#1278=CARTESIAN_POINT('',(0.044,0.04,0.034));
#1279=CARTESIAN_POINT('',(0.078,-0.04,0.0426953658461571));
#1280=CARTESIAN_POINT('',(0.078,-0.04,0.116));
#1281=CARTESIAN_POINT('',(0.078,0.03,0.116));
#1282=CARTESIAN_POINT('',(0.078,0.04,0.116));
#1283=CARTESIAN_POINT('',(0.078,0.03,0.0426953658461571));
#1284=CARTESIAN_POINT('',(0.078,0.04,0.0426953658461571));
#1285=CARTESIAN_POINT('',(0.044,-0.04,0.116));
#1286=CARTESIAN_POINT('',(0.044,-0.04,0.15));
#1287=CARTESIAN_POINT('',(0.044,0.03,0.15));
#1288=CARTESIAN_POINT('',(0.044,0.04,0.15));
#1289=CARTESIAN_POINT('',(0.044,0.03,0.116));
#1290=CARTESIAN_POINT('',(0.044,0.04,0.116));
#1291=CARTESIAN_POINT('',(-0.0186621528118849,-0.04,0.15));
#1292=CARTESIAN_POINT('',(0.,1.53080849893419E-18,0.15));
#1293=CARTESIAN_POINT('',(0.025,1.53080849893419E-18,0.15));
#1294=CARTESIAN_POINT('',(0.,2.4492935982947E-18,0.15));
#1295=CARTESIAN_POINT('',(0.0264575131106459,-0.03,0.15));
#1296=CARTESIAN_POINT('',(0.0396862696659688,-0.005,0.15));
#1297=CARTESIAN_POINT('',(0.039,-0.005,0.15));
#1298=CARTESIAN_POINT('',(0.044,-0.005,0.15));
#1299=CARTESIAN_POINT('',(0.044,-0.005,0.15));
#1300=CARTESIAN_POINT('',(0.044,0.005,0.15));
#1301=CARTESIAN_POINT('',(0.039,0.005,0.15));
#1302=CARTESIAN_POINT('',(-0.0186621528118849,0.03,0.15));
#1303=CARTESIAN_POINT('',(-0.0186621528118849,0.04,0.15));
#1304=CARTESIAN_POINT('',(0.,0.04,0.15));
#1305=CARTESIAN_POINT('',(0.,0.,0.15));
#1306=CARTESIAN_POINT('',(0.,-0.04,0.15));
#1307=CARTESIAN_POINT('',(-0.0186621528118849,-0.04,0.15));
#1308=CARTESIAN_POINT('',(0.044,-0.04,0.15));
#1309=CARTESIAN_POINT('',(0.044,-0.04,0.15));
#1310=CARTESIAN_POINT('',(0.044,-0.03,0.15));
#1311=CARTESIAN_POINT('',(-0.0186621528118849,-0.03,0.15));
#1312=CARTESIAN_POINT('',(0.,0.,0.));
#1313=CARTESIAN_POINT('',(0.,0.04,0.));
#1314=CARTESIAN_POINT('',(0.,0.04,0.124));
#1315=CARTESIAN_POINT('',(0.,0.,0.124));
#1316=CARTESIAN_POINT('',(0.,-0.04,0.124));
#1317=CARTESIAN_POINT('',(0.,-0.04,0.034));
#1318=CARTESIAN_POINT('',(0.0410567373037338,-0.04,0.));
#1319=CARTESIAN_POINT('',(0.,-6.12323399573677E-19,0.));
#1320=CARTESIAN_POINT('',(-0.01,-6.12323399573677E-19,0.));
#1321=CARTESIAN_POINT('',(0.0410567373037338,0.005,0.));
#1322=CARTESIAN_POINT('',(0.044,0.005,0.));
#1323=CARTESIAN_POINT('',(0.044,-0.005,0.));
#1324=CARTESIAN_POINT('',(0.044,-0.005,0.));
#1325=CARTESIAN_POINT('',(0.0410567373037338,-0.005,0.));
#1326=CARTESIAN_POINT('',(0.0244948974278318,-0.005,0.));
#1327=CARTESIAN_POINT('',(0.,-1.53080849893419E-18,0.));
#1328=CARTESIAN_POINT('',(0.,-0.025,0.));
#1329=CARTESIAN_POINT('',(0.,3.46944695195361E-18,0.));
#1330=CARTESIAN_POINT('',(0.,-0.03,0.));
#1331=CARTESIAN_POINT('',(0.0410567373037338,-0.03,0.));
#1332=CARTESIAN_POINT('',(0.044,-0.03,0.));
#1333=CARTESIAN_POINT('',(0.044,-0.04,0.));
#1334=CARTESIAN_POINT('',(0.044,-0.04,0.));
#1335=CARTESIAN_POINT('',(0.0410567373037338,-0.04,0.));
#1336=CARTESIAN_POINT('',(-0.012,-0.04,0.));
#1337=CARTESIAN_POINT('',(0.0145283686518669,-0.0665283686518669,0.));
#1338=CARTESIAN_POINT('',(-0.04,-0.012,0.));
#1339=CARTESIAN_POINT('',(-0.04,-0.04,0.));
#1340=CARTESIAN_POINT('',(-0.04,0.012,0.));
#1341=CARTESIAN_POINT('',(-0.0254716313481331,0.0265283686518669,0.));
#1342=CARTESIAN_POINT('',(-0.012,0.04,0.));
#1343=CARTESIAN_POINT('',(0.0410567373037338,0.04,0.));
#1344=CARTESIAN_POINT('',(0.0410567373037338,0.03,0.));
#1345=CARTESIAN_POINT('',(0.,0.03,0.));
#1346=CARTESIAN_POINT('',(0.,3.46944695195361E-18,0.));
#1347=CARTESIAN_POINT('',(-0.04,-0.04,0.));
#1348=CARTESIAN_POINT('',(-0.04,-0.012,0.));
#1349=CARTESIAN_POINT('',(-0.04,-0.012,0.026));
#1350=CARTESIAN_POINT('',(-0.04,-0.04,0.026));
#1351=CARTESIAN_POINT('',(-0.04,0.012,0.026));
#1352=CARTESIAN_POINT('',(-0.04,0.012,0.));
#1353=CARTESIAN_POINT('',(-0.0193904340267182,-0.04,0.026));
#1354=CARTESIAN_POINT('',(0.,-6.12323399573677E-19,0.026));
#1355=CARTESIAN_POINT('',(0.01,-6.12323399573677E-19,0.026));
#1356=CARTESIAN_POINT('',(-0.0156952170133591,-0.036304782986641,0.026));
#1357=CARTESIAN_POINT('',(-0.012,-0.04,0.026));
#1358=CARTESIAN_POINT('',(-0.0193904340267182,-0.04,0.026));
#1359=CARTESIAN_POINT('',(0.044,-0.04,0.026));
#1360=CARTESIAN_POINT('',(0.044,-0.04,0.026));
#1361=CARTESIAN_POINT('',(0.044,0.04,0.026));
#1362=CARTESIAN_POINT('',(-0.0193904340267182,0.04,0.026));
#1363=CARTESIAN_POINT('',(-0.012,0.04,0.026));
#1364=CARTESIAN_POINT('',(-0.0556952170133591,-0.00369521701335907,0.026));
#1365=CARTESIAN_POINT('',(0.044,-0.04,0.034));
#1366=CARTESIAN_POINT('',(0.044,0.04,0.034));
#1367=CARTESIAN_POINT('',(0.052,0.04,0.034));
#1368=CARTESIAN_POINT('',(0.044,-0.04,0.034));
#1369=CARTESIAN_POINT('',(0.052,-0.04,0.034));
#1370=CARTESIAN_POINT('',(0.052,-0.04,0.034));
#1371=CARTESIAN_POINT('',(0.052,-0.04,0.0426953658461571));
#1372=CARTESIAN_POINT('',(0.052,0.04,0.0426953658461571));
#1373=CARTESIAN_POINT('',(0.052,0.04,0.116));
#1374=CARTESIAN_POINT('',(0.052,-0.04,0.0426953658461571));
#1375=CARTESIAN_POINT('',(0.052,-0.04,0.116));
#1376=CARTESIAN_POINT('',(0.052,-0.04,0.116));
#1377=CARTESIAN_POINT('',(0.044,-0.04,0.116));
#1378=CARTESIAN_POINT('',(0.044,0.04,0.116));
#1379=CARTESIAN_POINT('',(0.044,0.04,0.124));
#1380=CARTESIAN_POINT('',(0.044,-0.04,0.116));
#1381=CARTESIAN_POINT('',(0.044,-0.04,0.124));
#1382=CARTESIAN_POINT('',(0.044,-0.04,0.124));
#1383=CARTESIAN_POINT('',(0.039,-0.04,0.124));
#1384=CARTESIAN_POINT('',(0.,1.53080849893419E-18,0.124));
#1385=CARTESIAN_POINT('',(-0.025,1.53080849893419E-18,0.124));
#1386=CARTESIAN_POINT('',(0.039,-0.04,0.124));
#1387=CARTESIAN_POINT('',(0.039,0.04,0.124));
#1388=CARTESIAN_POINT('',(0.044,-0.04,0.116));
#1389=CARTESIAN_POINT('',(0.044,-0.03,0.116));
#1390=CARTESIAN_POINT('',(0.078,-0.03,0.116));
#1391=CARTESIAN_POINT('',(0.044,-0.04,0.116));
#1392=CARTESIAN_POINT('',(0.078,-0.04,0.116));
#1393=CARTESIAN_POINT('',(0.078,-0.04,0.116));
#1394=CARTESIAN_POINT('',(0.078,-0.04,0.0426953658461571));
#1395=CARTESIAN_POINT('',(0.078,-0.03,0.0426953658461571));
#1396=CARTESIAN_POINT('',(0.078,-0.03,0.034));
#1397=CARTESIAN_POINT('',(0.078,-0.04,0.0426953658461571));
#1398=CARTESIAN_POINT('',(0.078,-0.04,0.034));
#1399=CARTESIAN_POINT('',(0.078,-0.04,0.034));
#1400=CARTESIAN_POINT('',(0.044,-0.04,0.034));
#1401=CARTESIAN_POINT('',(0.044,-0.03,0.034));
#1402=CARTESIAN_POINT('',(0.044,-0.04,0.034));
#1403=CARTESIAN_POINT('',(0.044,-0.04,0.034));
#1404=CARTESIAN_POINT('',(-0.012,-0.04,0.034));
#1405=CARTESIAN_POINT('',(0.044,0.04,0.034));
#1406=CARTESIAN_POINT('',(-0.012,0.04,0.026));
#1407=CARTESIAN_POINT('',(-0.04,-0.012,0.));
#1408=CARTESIAN_POINT('',(-0.012,0.04,0.034));
#1409=CARTESIAN_POINT('',(-0.0193904340267182,-0.04,0.016));
#1410=CARTESIAN_POINT('',(0.,-1.53080849893419E-18,0.016));
#1411=CARTESIAN_POINT('',(0.0244948974278318,-0.005,0.016));
#1412=CARTESIAN_POINT('',(0.,-0.025,0.016));
#1413=CARTESIAN_POINT('',(0.0410567373037338,-0.005,0.016));
#1414=CARTESIAN_POINT('',(0.044,-0.005,0.016));
#1415=CARTESIAN_POINT('',(0.044,-0.04,0.016));
#1416=CARTESIAN_POINT('',(0.044,-0.03,0.016));
#1417=CARTESIAN_POINT('',(-0.0193904340267182,-0.03,0.016));
#1418=CARTESIAN_POINT('',(0.,-0.03,0.016));
#1419=CARTESIAN_POINT('',(0.,3.46944695195361E-18,0.016));
#1420=CARTESIAN_POINT('',(0.044,-0.04,0.034));
#1421=CARTESIAN_POINT('',(0.044,-0.005,0.034));
#1422=CARTESIAN_POINT('',(0.062,-0.005,0.034));
#1423=CARTESIAN_POINT('',(0.062,-0.04,0.034));
#1424=CARTESIAN_POINT('',(0.062,-0.03,0.034));
#1425=CARTESIAN_POINT('',(0.044,-0.03,0.034));
#1426=CARTESIAN_POINT('',(0.062,-0.04,0.0426953658461571));
#1427=CARTESIAN_POINT('',(0.062,-0.005,0.0426953658461571));
#1428=CARTESIAN_POINT('',(0.062,-0.005,0.116));
#1429=CARTESIAN_POINT('',(0.062,-0.04,0.116));
#1430=CARTESIAN_POINT('',(0.062,-0.03,0.116));
#1431=CARTESIAN_POINT('',(0.062,-0.03,0.0426953658461571));
#1432=CARTESIAN_POINT('',(0.044,-0.04,0.116));
#1433=CARTESIAN_POINT('',(0.044,-0.005,0.116));
#1434=CARTESIAN_POINT('',(0.044,-0.03,0.116));
#1435=CARTESIAN_POINT('',(0.044,-0.03,0.034));
#1436=CARTESIAN_POINT('',(0.,-0.03,-1.99999999999853E-6));
#1437=CARTESIAN_POINT('',(0.0264575131106459,-0.03,-2.000000000002E-6));
#1438=CARTESIAN_POINT('',(0.044,0.03,0.034));
#1439=CARTESIAN_POINT('',(0.,0.03,-1.99999999999853E-6));
#1440=CARTESIAN_POINT('',(0.,2.4492935982947E-18,-2.000000000002E-6));
#1441=CARTESIAN_POINT('',(0.0396862696659688,-0.005,-2.000000000002E-6));
#1442=CARTESIAN_POINT('',(0.,-1.53080849893419E-18,0.150002));
#1443=CARTESIAN_POINT('',(0.0244948974278318,-0.005,0.150002));
#1444=CARTESIAN_POINT('',(0.,-0.025,-2.00000000001241E-6));
#1445=CARTESIAN_POINT('',(0.,3.46944695195361E-18,-1.99999999999853E-6));
#1446=CARTESIAN_POINT('',(0.,3.46944695195361E-18,-1.99999999999853E-6));
#1447=CARTESIAN_POINT('',(0.044,-0.005,0.034));
#1448=CARTESIAN_POINT('',(0.044,0.005,0.034));
#1449=CARTESIAN_POINT('',(0.078,0.005,0.034));
#1450=CARTESIAN_POINT('',(0.078,-0.005,0.034));
#1451=CARTESIAN_POINT('',(0.078,-0.005,0.034));
#1452=CARTESIAN_POINT('',(0.044,-0.005,0.034));
#1453=CARTESIAN_POINT('',(0.044,-0.005,0.116));
#1454=CARTESIAN_POINT('',(0.044,0.005,0.116));
#1455=CARTESIAN_POINT('',(0.078,0.005,0.116));
#1456=CARTESIAN_POINT('',(0.044,-0.005,0.116));
#1457=CARTESIAN_POINT('',(0.078,-0.005,0.116));
#1458=CARTESIAN_POINT('',(0.078,-0.005,0.116));
#1459=CARTESIAN_POINT('',(0.078,-0.005,0.0426953658461571));
#1460=CARTESIAN_POINT('',(0.078,0.005,0.0426953658461571));
#1461=CARTESIAN_POINT('',(0.078,-0.005,0.0426953658461571));
#1462=CARTESIAN_POINT('',(0.044,-0.005,0.034));
#1463=CARTESIAN_POINT('',(0.044,0.005,0.034));
#1464=CARTESIAN_POINT('',(0.,1.53080849893419E-18,0.123998));
#1465=CARTESIAN_POINT('',(0.,-6.12323399573677E-19,0.026002));
#1466=MECHANICAL_DESIGN_GEOMETRIC_PRESENTATION_REPRESENTATION('',(#867),
#1467);
#1467=(
GEOMETRIC_REPRESENTATION_CONTEXT(3)
GLOBAL_UNCERTAINTY_ASSIGNED_CONTEXT((#1468))
GLOBAL_UNIT_ASSIGNED_CONTEXT((#1471,#1470,#1469))
REPRESENTATION_CONTEXT('Part 1','TOP_LEVEL_ASSEMBLY_PART')
);
#1468=UNCERTAINTY_MEASURE_WITH_UNIT(LENGTH_MEASURE(1.E-8),#1471,
'DISTANCE_ACCURACY_VALUE','Maximum Tolerance applied to model');
#1469=(
NAMED_UNIT(*)
SI_UNIT($,.STERADIAN.)
SOLID_ANGLE_UNIT()
);
#1470=(
NAMED_UNIT(*)
PLANE_ANGLE_UNIT()
SI_UNIT($,.RADIAN.)
);
#1471=(
LENGTH_UNIT()
NAMED_UNIT(*)
SI_UNIT($,.METRE.)
);
#1472=PRODUCT_DEFINITION_SHAPE('','',#1473);
#1473=PRODUCT_DEFINITION('','',#1475,#1474);
#1474=PRODUCT_DEFINITION_CONTEXT('',#1481,'design');
#1475=PRODUCT_DEFINITION_FORMATION_WITH_SPECIFIED_SOURCE('','',#1477,
 .NOT_KNOWN.);
#1476=PRODUCT_RELATED_PRODUCT_CATEGORY('','',(#1477));
#1477=PRODUCT('Part 1','Part 1','Part 1',(#1479));
#1478=PRODUCT_CATEGORY('','');
#1479=PRODUCT_CONTEXT('',#1481,'mechanical');
#1480=APPLICATION_PROTOCOL_DEFINITION('international standard',
'ap242_managed_model_based_3d_engineering',2020,#1481);
#1481=APPLICATION_CONTEXT('managed model based 3d engineering');
ENDSEC;
END-ISO-10303-21;
