ISO-10303-21;
HEADER;
/* Generated by software containing ST-Developer
 * from STEP Tools, Inc. (www.steptools.com) 
 */
/* OPTION: using custom renumber hook */

FILE_DESCRIPTION(
/* description */ ('STEP AP242 Edition 2',
'CAx-IF Rec.Pracs.---Representation and Presentation of Product Manufa
cturing Information (PMI)---4.0---2014-10-13',
'CAx-IF Rec.Pracs.---3D Tessellated Geometry---0.4---2014-09-14','2;1',
'CAx-IF Rec.Pracs.---User Defined Attributes---1.5---2016-08-15'),
/* implementation_level */ '2;1');

FILE_NAME(
/* name */ 'Part Studio 1',
/* time_stamp */ '2026-06-30T06:55:37Z',
/* author */ (''),
/* organization */ (''),
/* preprocessor_version */ 'ST-DEVELOPER v20',
/* originating_system */ 'ONSHAPE BY PTC INC, 1.217',
/* authorisation */ '  ');

FILE_SCHEMA (('AP242_MANAGED_MODEL_BASED_3D_ENGINEERING_MIM_LF { 1 0 10303 442 3 1 4 }'));
ENDSEC;

DATA;
#10=SHAPE_REPRESENTATION_RELATIONSHIP('','',#407,#11);
#11=ADVANCED_BREP_SHAPE_REPRESENTATION('',(#405),#665);
#12=CYLINDRICAL_SURFACE('',#419,0.013);
#13=CYLINDRICAL_SURFACE('',#425,0.006);
#14=CYLINDRICAL_SURFACE('',#427,0.006);
#15=CYLINDRICAL_SURFACE('',#433,0.0095);
#16=CYLINDRICAL_SURFACE('',#434,0.0185);
#17=CYLINDRICAL_SURFACE('',#435,0.013);
#18=CYLINDRICAL_SURFACE('',#441,0.006);
#19=LINE('',#560,#57);
#20=LINE('',#565,#58);
#21=LINE('',#567,#59);
#22=LINE('',#569,#60);
#23=LINE('',#571,#61);
#24=LINE('',#575,#62);
#25=LINE('',#577,#63);
#26=LINE('',#579,#64);
#27=LINE('',#581,#65);
#28=LINE('',#590,#66);
#29=LINE('',#592,#67);
#30=LINE('',#594,#68);
#31=LINE('',#598,#69);
#32=LINE('',#600,#70);
#33=LINE('',#602,#71);
#34=LINE('',#607,#72);
#35=LINE('',#608,#73);
#36=LINE('',#610,#74);
#37=LINE('',#612,#75);
#38=LINE('',#614,#76);
#39=LINE('',#616,#77);
#40=LINE('',#618,#78);
#41=LINE('',#619,#79);
#42=LINE('',#621,#80);
#43=LINE('',#623,#81);
#44=LINE('',#625,#82);
#45=LINE('',#627,#83);
#46=LINE('',#628,#84);
#47=LINE('',#630,#85);
#48=LINE('',#632,#86);
#49=LINE('',#640,#87);
#50=LINE('',#645,#88);
#51=LINE('',#649,#89);
#52=LINE('',#651,#90);
#53=LINE('',#653,#91);
#54=LINE('',#655,#92);
#55=LINE('',#656,#93);
#56=LINE('',#658,#94);
#57=VECTOR('',#452,1.);
#58=VECTOR('',#455,1.);
#59=VECTOR('',#456,1.);
#60=VECTOR('',#457,1.);
#61=VECTOR('',#458,1.);
#62=VECTOR('',#461,1.);
#63=VECTOR('',#462,1.);
#64=VECTOR('',#463,1.);
#65=VECTOR('',#464,1.);
#66=VECTOR('',#473,1.);
#67=VECTOR('',#474,1.);
#68=VECTOR('',#475,1.);
#69=VECTOR('',#478,1.);
#70=VECTOR('',#479,1.);
#71=VECTOR('',#480,1.);
#72=VECTOR('',#485,1.);
#73=VECTOR('',#486,1.);
#74=VECTOR('',#489,1.);
#75=VECTOR('',#490,1.);
#76=VECTOR('',#493,1.);
#77=VECTOR('',#494,1.);
#78=VECTOR('',#495,1.);
#79=VECTOR('',#496,1.);
#80=VECTOR('',#499,1.);
#81=VECTOR('',#502,1.);
#82=VECTOR('',#505,1.);
#83=VECTOR('',#508,1.);
#84=VECTOR('',#509,1.);
#85=VECTOR('',#510,1.);
#86=VECTOR('',#511,1.);
#87=VECTOR('',#522,1.);
#88=VECTOR('',#529,1.);
#89=VECTOR('',#534,1.);
#90=VECTOR('',#537,1.);
#91=VECTOR('',#538,1.);
#92=VECTOR('',#541,1.);
#93=VECTOR('',#542,1.);
#94=VECTOR('',#545,1.);
#95=CIRCLE('',#411,0.006);
#96=CIRCLE('',#412,0.013);
#97=CIRCLE('',#413,0.006);
#98=CIRCLE('',#414,0.013);
#99=CIRCLE('',#415,0.006);
#100=CIRCLE('',#418,0.006);
#101=CIRCLE('',#420,0.013);
#102=CIRCLE('',#428,0.006);
#103=CIRCLE('',#431,0.0095);
#104=CIRCLE('',#432,0.0185);
#105=CIRCLE('',#436,0.013);
#106=CIRCLE('',#442,0.006);
#107=ORIENTED_EDGE('',*,*,#211,.F.);
#108=ORIENTED_EDGE('',*,*,#212,.T.);
#109=ORIENTED_EDGE('',*,*,#213,.T.);
#110=ORIENTED_EDGE('',*,*,#214,.F.);
#111=ORIENTED_EDGE('',*,*,#215,.T.);
#112=ORIENTED_EDGE('',*,*,#216,.T.);
#113=ORIENTED_EDGE('',*,*,#217,.F.);
#114=ORIENTED_EDGE('',*,*,#218,.T.);
#115=ORIENTED_EDGE('',*,*,#219,.F.);
#116=ORIENTED_EDGE('',*,*,#220,.F.);
#117=ORIENTED_EDGE('',*,*,#221,.T.);
#118=ORIENTED_EDGE('',*,*,#222,.F.);
#119=ORIENTED_EDGE('',*,*,#223,.F.);
#120=ORIENTED_EDGE('',*,*,#224,.T.);
#121=ORIENTED_EDGE('',*,*,#225,.F.);
#122=ORIENTED_EDGE('',*,*,#226,.F.);
#123=ORIENTED_EDGE('',*,*,#227,.T.);
#124=ORIENTED_EDGE('',*,*,#228,.F.);
#125=ORIENTED_EDGE('',*,*,#229,.T.);
#126=ORIENTED_EDGE('',*,*,#230,.T.);
#127=ORIENTED_EDGE('',*,*,#231,.F.);
#128=ORIENTED_EDGE('',*,*,#232,.T.);
#129=ORIENTED_EDGE('',*,*,#233,.F.);
#130=ORIENTED_EDGE('',*,*,#234,.T.);
#131=ORIENTED_EDGE('',*,*,#235,.F.);
#132=ORIENTED_EDGE('',*,*,#224,.F.);
#133=ORIENTED_EDGE('',*,*,#236,.T.);
#134=ORIENTED_EDGE('',*,*,#237,.F.);
#135=ORIENTED_EDGE('',*,*,#236,.F.);
#136=ORIENTED_EDGE('',*,*,#223,.T.);
#137=ORIENTED_EDGE('',*,*,#238,.T.);
#138=ORIENTED_EDGE('',*,*,#227,.F.);
#139=ORIENTED_EDGE('',*,*,#239,.F.);
#140=ORIENTED_EDGE('',*,*,#240,.F.);
#141=ORIENTED_EDGE('',*,*,#241,.T.);
#142=ORIENTED_EDGE('',*,*,#238,.F.);
#143=ORIENTED_EDGE('',*,*,#222,.T.);
#144=ORIENTED_EDGE('',*,*,#242,.T.);
#145=ORIENTED_EDGE('',*,*,#228,.T.);
#146=ORIENTED_EDGE('',*,*,#242,.F.);
#147=ORIENTED_EDGE('',*,*,#221,.F.);
#148=ORIENTED_EDGE('',*,*,#243,.T.);
#149=ORIENTED_EDGE('',*,*,#229,.F.);
#150=ORIENTED_EDGE('',*,*,#243,.F.);
#151=ORIENTED_EDGE('',*,*,#220,.T.);
#152=ORIENTED_EDGE('',*,*,#244,.T.);
#153=ORIENTED_EDGE('',*,*,#230,.F.);
#154=ORIENTED_EDGE('',*,*,#244,.F.);
#155=ORIENTED_EDGE('',*,*,#219,.T.);
#156=ORIENTED_EDGE('',*,*,#245,.T.);
#157=ORIENTED_EDGE('',*,*,#246,.T.);
#158=ORIENTED_EDGE('',*,*,#247,.T.);
#159=ORIENTED_EDGE('',*,*,#248,.F.);
#160=ORIENTED_EDGE('',*,*,#249,.F.);
#161=ORIENTED_EDGE('',*,*,#213,.F.);
#162=ORIENTED_EDGE('',*,*,#235,.T.);
#163=ORIENTED_EDGE('',*,*,#212,.F.);
#164=ORIENTED_EDGE('',*,*,#250,.T.);
#165=ORIENTED_EDGE('',*,*,#241,.F.);
#166=ORIENTED_EDGE('',*,*,#246,.F.);
#167=ORIENTED_EDGE('',*,*,#234,.F.);
#168=ORIENTED_EDGE('',*,*,#237,.T.);
#169=ORIENTED_EDGE('',*,*,#250,.F.);
#170=ORIENTED_EDGE('',*,*,#251,.F.);
#171=ORIENTED_EDGE('',*,*,#252,.F.);
#172=ORIENTED_EDGE('',*,*,#247,.F.);
#173=ORIENTED_EDGE('',*,*,#240,.T.);
#174=ORIENTED_EDGE('',*,*,#253,.T.);
#175=ORIENTED_EDGE('',*,*,#251,.T.);
#176=ORIENTED_EDGE('',*,*,#211,.T.);
#177=ORIENTED_EDGE('',*,*,#239,.T.);
#178=ORIENTED_EDGE('',*,*,#226,.T.);
#179=ORIENTED_EDGE('',*,*,#254,.F.);
#180=ORIENTED_EDGE('',*,*,#253,.F.);
#181=ORIENTED_EDGE('',*,*,#255,.F.);
#182=ORIENTED_EDGE('',*,*,#256,.F.);
#183=ORIENTED_EDGE('',*,*,#214,.T.);
#184=ORIENTED_EDGE('',*,*,#249,.T.);
#185=ORIENTED_EDGE('',*,*,#257,.T.);
#186=ORIENTED_EDGE('',*,*,#258,.F.);
#187=ORIENTED_EDGE('',*,*,#215,.F.);
#188=ORIENTED_EDGE('',*,*,#256,.T.);
#189=ORIENTED_EDGE('',*,*,#233,.T.);
#190=ORIENTED_EDGE('',*,*,#259,.F.);
#191=ORIENTED_EDGE('',*,*,#216,.F.);
#192=ORIENTED_EDGE('',*,*,#258,.T.);
#193=ORIENTED_EDGE('',*,*,#260,.F.);
#194=ORIENTED_EDGE('',*,*,#252,.T.);
#195=ORIENTED_EDGE('',*,*,#254,.T.);
#196=ORIENTED_EDGE('',*,*,#232,.F.);
#197=ORIENTED_EDGE('',*,*,#261,.F.);
#198=ORIENTED_EDGE('',*,*,#217,.T.);
#199=ORIENTED_EDGE('',*,*,#259,.T.);
#200=ORIENTED_EDGE('',*,*,#231,.T.);
#201=ORIENTED_EDGE('',*,*,#245,.F.);
#202=ORIENTED_EDGE('',*,*,#218,.F.);
#203=ORIENTED_EDGE('',*,*,#261,.T.);
#204=ORIENTED_EDGE('',*,*,#225,.T.);
#205=ORIENTED_EDGE('',*,*,#262,.F.);
#206=ORIENTED_EDGE('',*,*,#260,.T.);
#207=ORIENTED_EDGE('',*,*,#257,.F.);
#208=ORIENTED_EDGE('',*,*,#255,.T.);
#209=ORIENTED_EDGE('',*,*,#248,.T.);
#210=ORIENTED_EDGE('',*,*,#262,.T.);
#211=EDGE_CURVE('',#263,#263,#299,.F.);
#212=EDGE_CURVE('',#264,#264,#95,.T.);
#213=EDGE_CURVE('',#265,#266,#19,.T.);
#214=EDGE_CURVE('',#267,#266,#96,.T.);
#215=EDGE_CURVE('',#267,#268,#20,.T.);
#216=EDGE_CURVE('',#268,#269,#21,.T.);
#217=EDGE_CURVE('',#270,#269,#22,.T.);
#218=EDGE_CURVE('',#270,#271,#23,.T.);
#219=EDGE_CURVE('',#272,#271,#97,.T.);
#220=EDGE_CURVE('',#273,#272,#24,.T.);
#221=EDGE_CURVE('',#273,#274,#25,.T.);
#222=EDGE_CURVE('',#275,#274,#26,.T.);
#223=EDGE_CURVE('',#276,#275,#27,.T.);
#224=EDGE_CURVE('',#276,#265,#98,.T.);
#225=EDGE_CURVE('',#277,#277,#99,.T.);
#226=EDGE_CURVE('',#278,#279,#300,.T.);
#227=EDGE_CURVE('',#278,#280,#28,.T.);
#228=EDGE_CURVE('',#281,#280,#29,.T.);
#229=EDGE_CURVE('',#281,#282,#30,.T.);
#230=EDGE_CURVE('',#282,#283,#100,.T.);
#231=EDGE_CURVE('',#284,#283,#31,.T.);
#232=EDGE_CURVE('',#284,#285,#32,.T.);
#233=EDGE_CURVE('',#279,#285,#33,.T.);
#234=EDGE_CURVE('',#286,#287,#101,.T.);
#235=EDGE_CURVE('',#265,#287,#34,.T.);
#236=EDGE_CURVE('',#276,#286,#35,.T.);
#237=EDGE_CURVE('',#286,#288,#36,.T.);
#238=EDGE_CURVE('',#275,#288,#37,.T.);
#239=EDGE_CURVE('',#289,#278,#38,.T.);
#240=EDGE_CURVE('',#290,#289,#39,.T.);
#241=EDGE_CURVE('',#290,#288,#40,.T.);
#242=EDGE_CURVE('',#274,#280,#41,.T.);
#243=EDGE_CURVE('',#273,#281,#42,.T.);
#244=EDGE_CURVE('',#272,#282,#43,.T.);
#245=EDGE_CURVE('',#271,#283,#44,.T.);
#246=EDGE_CURVE('',#287,#290,#45,.T.);
#247=EDGE_CURVE('',#290,#291,#46,.T.);
#248=EDGE_CURVE('',#292,#291,#47,.T.);
#249=EDGE_CURVE('',#266,#292,#48,.T.);
#250=EDGE_CURVE('',#293,#293,#102,.T.);
#251=EDGE_CURVE('',#294,#294,#103,.T.);
#252=EDGE_CURVE('',#291,#295,#49,.T.);
#253=EDGE_CURVE('',#289,#295,#104,.T.);
#254=EDGE_CURVE('',#295,#279,#50,.T.);
#255=EDGE_CURVE('',#296,#292,#105,.T.);
#256=EDGE_CURVE('',#267,#296,#51,.T.);
#257=EDGE_CURVE('',#296,#297,#52,.T.);
#258=EDGE_CURVE('',#268,#297,#53,.T.);
#259=EDGE_CURVE('',#269,#285,#54,.T.);
#260=EDGE_CURVE('',#291,#297,#55,.T.);
#261=EDGE_CURVE('',#270,#284,#56,.T.);
#262=EDGE_CURVE('',#298,#298,#106,.T.);
#263=VERTEX_POINT('',#557);
#264=VERTEX_POINT('',#559);
#265=VERTEX_POINT('',#561);
#266=VERTEX_POINT('',#562);
#267=VERTEX_POINT('',#564);
#268=VERTEX_POINT('',#566);
#269=VERTEX_POINT('',#568);
#270=VERTEX_POINT('',#570);
#271=VERTEX_POINT('',#572);
#272=VERTEX_POINT('',#574);
#273=VERTEX_POINT('',#576);
#274=VERTEX_POINT('',#578);
#275=VERTEX_POINT('',#580);
#276=VERTEX_POINT('',#582);
#277=VERTEX_POINT('',#585);
#278=VERTEX_POINT('',#588);
#279=VERTEX_POINT('',#589);
#280=VERTEX_POINT('',#591);
#281=VERTEX_POINT('',#593);
#282=VERTEX_POINT('',#595);
#283=VERTEX_POINT('',#597);
#284=VERTEX_POINT('',#599);
#285=VERTEX_POINT('',#601);
#286=VERTEX_POINT('',#605);
#287=VERTEX_POINT('',#606);
#288=VERTEX_POINT('',#611);
#289=VERTEX_POINT('',#615);
#290=VERTEX_POINT('',#617);
#291=VERTEX_POINT('',#629);
#292=VERTEX_POINT('',#631);
#293=VERTEX_POINT('',#635);
#294=VERTEX_POINT('',#639);
#295=VERTEX_POINT('',#641);
#296=VERTEX_POINT('',#648);
#297=VERTEX_POINT('',#652);
#298=VERTEX_POINT('',#662);
#299=ELLIPSE('',#410,0.0134350288425444,0.0095);
#300=ELLIPSE('',#417,0.0261629509039022,0.0185);
#301=EDGE_LOOP('',(#107));
#302=EDGE_LOOP('',(#108));
#303=EDGE_LOOP('',(#109,#110,#111,#112,#113,#114,#115,#116,#117,#118,#119,
#120));
#304=EDGE_LOOP('',(#121));
#305=EDGE_LOOP('',(#122,#123,#124,#125,#126,#127,#128,#129));
#306=EDGE_LOOP('',(#130,#131,#132,#133));
#307=EDGE_LOOP('',(#134,#135,#136,#137));
#308=EDGE_LOOP('',(#138,#139,#140,#141,#142,#143,#144));
#309=EDGE_LOOP('',(#145,#146,#147,#148));
#310=EDGE_LOOP('',(#149,#150,#151,#152));
#311=EDGE_LOOP('',(#153,#154,#155,#156));
#312=EDGE_LOOP('',(#157,#158,#159,#160,#161,#162));
#313=EDGE_LOOP('',(#163));
#314=EDGE_LOOP('',(#164));
#315=EDGE_LOOP('',(#165,#166,#167,#168));
#316=EDGE_LOOP('',(#169));
#317=EDGE_LOOP('',(#170));
#318=EDGE_LOOP('',(#171,#172,#173,#174));
#319=EDGE_LOOP('',(#175));
#320=EDGE_LOOP('',(#176));
#321=EDGE_LOOP('',(#177,#178,#179,#180));
#322=EDGE_LOOP('',(#181,#182,#183,#184));
#323=EDGE_LOOP('',(#185,#186,#187,#188));
#324=EDGE_LOOP('',(#189,#190,#191,#192,#193,#194,#195));
#325=EDGE_LOOP('',(#196,#197,#198,#199));
#326=EDGE_LOOP('',(#200,#201,#202,#203));
#327=EDGE_LOOP('',(#204));
#328=EDGE_LOOP('',(#205));
#329=EDGE_LOOP('',(#206,#207,#208,#209));
#330=EDGE_LOOP('',(#210));
#331=FACE_BOUND('',#301,.T.);
#332=FACE_BOUND('',#302,.T.);
#333=FACE_BOUND('',#303,.T.);
#334=FACE_BOUND('',#304,.T.);
#335=FACE_BOUND('',#305,.T.);
#336=FACE_BOUND('',#306,.T.);
#337=FACE_BOUND('',#307,.T.);
#338=FACE_BOUND('',#308,.T.);
#339=FACE_BOUND('',#309,.T.);
#340=FACE_BOUND('',#310,.T.);
#341=FACE_BOUND('',#311,.T.);
#342=FACE_BOUND('',#312,.T.);
#343=FACE_BOUND('',#313,.T.);
#344=FACE_BOUND('',#314,.T.);
#345=FACE_BOUND('',#315,.T.);
#346=FACE_BOUND('',#316,.T.);
#347=FACE_BOUND('',#317,.T.);
#348=FACE_BOUND('',#318,.T.);
#349=FACE_BOUND('',#319,.T.);
#350=FACE_BOUND('',#320,.T.);
#351=FACE_BOUND('',#321,.T.);
#352=FACE_BOUND('',#322,.T.);
#353=FACE_BOUND('',#323,.T.);
#354=FACE_BOUND('',#324,.T.);
#355=FACE_BOUND('',#325,.T.);
#356=FACE_BOUND('',#326,.T.);
#357=FACE_BOUND('',#327,.T.);
#358=FACE_BOUND('',#328,.T.);
#359=FACE_BOUND('',#329,.T.);
#360=FACE_BOUND('',#330,.T.);
#361=PLANE('',#409);
#362=PLANE('',#416);
#363=PLANE('',#421);
#364=PLANE('',#422);
#365=PLANE('',#423);
#366=PLANE('',#424);
#367=PLANE('',#426);
#368=PLANE('',#429);
#369=PLANE('',#430);
#370=PLANE('',#437);
#371=PLANE('',#438);
#372=PLANE('',#439);
#373=PLANE('',#440);
#374=PLANE('',#443);
#375=ADVANCED_FACE('',(#331,#332,#333,#334),#361,.F.);
#376=ADVANCED_FACE('',(#335),#362,.T.);
#377=ADVANCED_FACE('',(#336),#12,.T.);
#378=ADVANCED_FACE('',(#337),#363,.T.);
#379=ADVANCED_FACE('',(#338),#364,.T.);
#380=ADVANCED_FACE('',(#339),#365,.F.);
#381=ADVANCED_FACE('',(#340),#366,.T.);
#382=ADVANCED_FACE('',(#341),#13,.F.);
#383=ADVANCED_FACE('',(#342),#367,.F.);
#384=ADVANCED_FACE('',(#343,#344),#14,.F.);
#385=ADVANCED_FACE('',(#345,#346),#368,.T.);
#386=ADVANCED_FACE('',(#347,#348),#369,.T.);
#387=ADVANCED_FACE('',(#349,#350),#15,.F.);
#388=ADVANCED_FACE('',(#351),#16,.T.);
#389=ADVANCED_FACE('',(#352),#17,.T.);
#390=ADVANCED_FACE('',(#353),#370,.T.);
#391=ADVANCED_FACE('',(#354),#371,.T.);
#392=ADVANCED_FACE('',(#355),#372,.F.);
#393=ADVANCED_FACE('',(#356),#373,.T.);
#394=ADVANCED_FACE('',(#357,#358),#18,.F.);
#395=ADVANCED_FACE('',(#359,#360),#374,.T.);
#396=CLOSED_SHELL('',(#375,#376,#377,#378,#379,#380,#381,#382,#383,#384,
#385,#386,#387,#388,#389,#390,#391,#392,#393,#394,#395));
#397=STYLED_ITEM('',(#398),#405);
#398=PRESENTATION_STYLE_ASSIGNMENT((#399));
#399=SURFACE_STYLE_USAGE(.BOTH.,#400);
#400=SURFACE_SIDE_STYLE('',(#401));
#401=SURFACE_STYLE_FILL_AREA(#402);
#402=FILL_AREA_STYLE('',(#403));
#403=FILL_AREA_STYLE_COLOUR('',#404);
#404=COLOUR_RGB('',0.615686274509804,0.811764705882353,0.929411764705882);
#405=MANIFOLD_SOLID_BREP('Part 1',#396);
#406=SHAPE_DEFINITION_REPRESENTATION(#670,#407);
#407=SHAPE_REPRESENTATION('Part 1',(#408),#665);
#408=AXIS2_PLACEMENT_3D('',#554,#444,#445);
#409=AXIS2_PLACEMENT_3D('',#555,#446,#447);
#410=AXIS2_PLACEMENT_3D('',#556,#448,#449);
#411=AXIS2_PLACEMENT_3D('',#558,#450,#451);
#412=AXIS2_PLACEMENT_3D('',#563,#453,#454);
#413=AXIS2_PLACEMENT_3D('',#573,#459,#460);
#414=AXIS2_PLACEMENT_3D('',#583,#465,#466);
#415=AXIS2_PLACEMENT_3D('',#584,#467,#468);
#416=AXIS2_PLACEMENT_3D('',#586,#469,#470);
#417=AXIS2_PLACEMENT_3D('',#587,#471,#472);
#418=AXIS2_PLACEMENT_3D('',#596,#476,#477);
#419=AXIS2_PLACEMENT_3D('',#603,#481,#482);
#420=AXIS2_PLACEMENT_3D('',#604,#483,#484);
#421=AXIS2_PLACEMENT_3D('',#609,#487,#488);
#422=AXIS2_PLACEMENT_3D('',#613,#491,#492);
#423=AXIS2_PLACEMENT_3D('',#620,#497,#498);
#424=AXIS2_PLACEMENT_3D('',#622,#500,#501);
#425=AXIS2_PLACEMENT_3D('',#624,#503,#504);
#426=AXIS2_PLACEMENT_3D('',#626,#506,#507);
#427=AXIS2_PLACEMENT_3D('',#633,#512,#513);
#428=AXIS2_PLACEMENT_3D('',#634,#514,#515);
#429=AXIS2_PLACEMENT_3D('',#636,#516,#517);
#430=AXIS2_PLACEMENT_3D('',#637,#518,#519);
#431=AXIS2_PLACEMENT_3D('',#638,#520,#521);
#432=AXIS2_PLACEMENT_3D('',#642,#523,#524);
#433=AXIS2_PLACEMENT_3D('',#643,#525,#526);
#434=AXIS2_PLACEMENT_3D('',#644,#527,#528);
#435=AXIS2_PLACEMENT_3D('',#646,#530,#531);
#436=AXIS2_PLACEMENT_3D('',#647,#532,#533);
#437=AXIS2_PLACEMENT_3D('',#650,#535,#536);
#438=AXIS2_PLACEMENT_3D('',#654,#539,#540);
#439=AXIS2_PLACEMENT_3D('',#657,#543,#544);
#440=AXIS2_PLACEMENT_3D('',#659,#546,#547);
#441=AXIS2_PLACEMENT_3D('',#660,#548,#549);
#442=AXIS2_PLACEMENT_3D('',#661,#550,#551);
#443=AXIS2_PLACEMENT_3D('',#663,#552,#553);
#444=DIRECTION('',(0.,0.,1.));
#445=DIRECTION('',(1.,0.,0.));
#446=DIRECTION('',(0.,0.,1.));
#447=DIRECTION('',(1.,0.,0.));
#448=DIRECTION('',(0.,0.,1.));
#449=DIRECTION('',(1.,0.,0.));
#450=DIRECTION('',(0.,0.,1.));
#451=DIRECTION('',(1.,0.,0.));
#452=DIRECTION('',(1.10141173077892E-16,-1.,0.));
#453=DIRECTION('',(0.,0.,1.));
#454=DIRECTION('',(1.,0.,0.));
#455=DIRECTION('',(1.33440267382831E-16,1.,0.));
#456=DIRECTION('',(-1.,1.21027219254196E-16,0.));
#457=DIRECTION('',(0.,-1.,0.));
#458=DIRECTION('',(1.,-2.16840434497101E-16,0.));
#459=DIRECTION('',(0.,0.,-1.));
#460=DIRECTION('',(1.,0.,0.));
#461=DIRECTION('',(1.,2.16840434497101E-16,0.));
#462=DIRECTION('',(0.,1.,0.));
#463=DIRECTION('',(-1.,-1.21027219254196E-16,0.));
#464=DIRECTION('',(1.33440267382831E-16,-1.,0.));
#465=DIRECTION('',(0.,0.,-1.));
#466=DIRECTION('',(1.,0.,0.));
#467=DIRECTION('',(0.,0.,-1.));
#468=DIRECTION('',(1.,0.,0.));
#469=DIRECTION('',(0.,0.,1.));
#470=DIRECTION('',(1.,0.,0.));
#471=DIRECTION('',(0.,0.,1.));
#472=DIRECTION('',(1.,0.,0.));
#473=DIRECTION('',(-1.,-1.21027219254196E-16,0.));
#474=DIRECTION('',(0.,1.,0.));
#475=DIRECTION('',(1.,2.16840434497101E-16,0.));
#476=DIRECTION('',(0.,0.,-1.));
#477=DIRECTION('',(1.,0.,0.));
#478=DIRECTION('',(1.,-2.16840434497101E-16,0.));
#479=DIRECTION('',(0.,-1.,0.));
#480=DIRECTION('',(-1.,1.21027219254196E-16,0.));
#481=DIRECTION('',(0.,0.,1.));
#482=DIRECTION('',(1.,0.,0.));
#483=DIRECTION('',(0.,0.,-1.));
#484=DIRECTION('',(1.,0.,0.));
#485=DIRECTION('',(0.,0.,1.));
#486=DIRECTION('',(0.,0.,1.));
#487=DIRECTION('',(-1.,-1.33440267382831E-16,0.));
#488=DIRECTION('',(1.33440267382831E-16,-1.,0.));
#489=DIRECTION('',(1.33440267382831E-16,-1.,0.));
#490=DIRECTION('',(0.,0.,1.));
#491=DIRECTION('',(-1.21027219254196E-16,1.,0.));
#492=DIRECTION('',(-1.,-1.21027219254196E-16,0.));
#493=DIRECTION('',(-0.707106781186548,0.,-0.707106781186548));
#494=DIRECTION('',(-0.707106781186548,0.,0.707106781186548));
#495=DIRECTION('',(-1.,0.,0.));
#496=DIRECTION('',(0.,0.,1.));
#497=DIRECTION('',(1.,0.,0.));
#498=DIRECTION('',(0.,0.,-1.));
#499=DIRECTION('',(0.,0.,1.));
#500=DIRECTION('',(2.16840434497101E-16,-1.,0.));
#501=DIRECTION('',(1.,2.16840434497101E-16,0.));
#502=DIRECTION('',(0.,0.,1.));
#503=DIRECTION('',(0.,0.,1.));
#504=DIRECTION('',(1.,0.,0.));
#505=DIRECTION('',(0.,0.,1.));
#506=DIRECTION('',(-1.,-1.10141173077892E-16,0.));
#507=DIRECTION('',(1.10141173077892E-16,-1.,0.));
#508=DIRECTION('',(1.10141173077892E-16,-1.,0.));
#509=DIRECTION('',(0.,-1.,0.));
#510=DIRECTION('',(1.10141173077892E-16,1.,0.));
#511=DIRECTION('',(0.,0.,1.));
#512=DIRECTION('',(0.,0.,1.));
#513=DIRECTION('',(1.,0.,0.));
#514=DIRECTION('',(0.,0.,1.));
#515=DIRECTION('',(1.,0.,0.));
#516=DIRECTION('',(0.,0.,1.));
#517=DIRECTION('',(1.,0.,0.));
#518=DIRECTION('',(0.707106781186548,0.,0.707106781186548));
#519=DIRECTION('',(0.707106781186548,0.,-0.707106781186548));
#520=DIRECTION('',(0.707106781186548,0.,0.707106781186548));
#521=DIRECTION('',(0.707106781186548,0.,-0.707106781186548));
#522=DIRECTION('',(-0.707106781186548,0.,0.707106781186548));
#523=DIRECTION('',(0.707106781186548,0.,0.707106781186548));
#524=DIRECTION('',(0.707106781186548,0.,-0.707106781186548));
#525=DIRECTION('',(0.707106781186548,0.,0.707106781186548));
#526=DIRECTION('',(0.707106781186548,0.,-0.707106781186548));
#527=DIRECTION('',(0.707106781186548,0.,0.707106781186548));
#528=DIRECTION('',(0.707106781186548,0.,-0.707106781186548));
#529=DIRECTION('',(-0.707106781186548,0.,-0.707106781186548));
#530=DIRECTION('',(0.,0.,1.));
#531=DIRECTION('',(1.,0.,0.));
#532=DIRECTION('',(0.,0.,1.));
#533=DIRECTION('',(1.,0.,0.));
#534=DIRECTION('',(0.,0.,1.));
#535=DIRECTION('',(-1.,1.33440267382831E-16,0.));
#536=DIRECTION('',(1.33440267382831E-16,1.,0.));
#537=DIRECTION('',(1.33440267382831E-16,1.,0.));
#538=DIRECTION('',(0.,0.,1.));
#539=DIRECTION('',(-1.21027219254196E-16,-1.,0.));
#540=DIRECTION('',(-1.,1.21027219254196E-16,0.));
#541=DIRECTION('',(0.,0.,1.));
#542=DIRECTION('',(-1.,0.,0.));
#543=DIRECTION('',(1.,0.,0.));
#544=DIRECTION('',(0.,0.,-1.));
#545=DIRECTION('',(0.,0.,1.));
#546=DIRECTION('',(2.16840434497101E-16,1.,0.));
#547=DIRECTION('',(1.,-2.16840434497101E-16,0.));
#548=DIRECTION('',(0.,0.,1.));
#549=DIRECTION('',(1.,0.,0.));
#550=DIRECTION('',(0.,0.,-1.));
#551=DIRECTION('',(1.,0.,0.));
#552=DIRECTION('',(0.,0.,1.));
#553=DIRECTION('',(1.,0.,0.));
#554=CARTESIAN_POINT('',(0.,0.,0.));
#555=CARTESIAN_POINT('',(-0.043,0.02225,-0.013));
#556=CARTESIAN_POINT('',(-0.043,1.54312605343489E-18,-0.013));
#557=CARTESIAN_POINT('',(-0.0295649711574556,1.54312605343489E-18,-0.013));
#558=CARTESIAN_POINT('',(0.,0.0315,-0.013));
#559=CARTESIAN_POINT('',(0.006,0.0315,-0.013));
#560=CARTESIAN_POINT('',(0.013,0.01575,-0.013));
#561=CARTESIAN_POINT('',(0.013,0.0315,-0.013));
#562=CARTESIAN_POINT('',(0.013,-0.0315,-0.013));
#563=CARTESIAN_POINT('',(0.,-0.0315,-0.013));
#564=CARTESIAN_POINT('',(-0.013,-0.0315,-0.013));
#565=CARTESIAN_POINT('',(-0.013,-0.025,-0.013));
#566=CARTESIAN_POINT('',(-0.013,-0.0185,-0.013));
#567=CARTESIAN_POINT('',(-0.056,-0.0185,-0.013));
#568=CARTESIAN_POINT('',(-0.099,-0.0185,-0.013));
#569=CARTESIAN_POINT('',(-0.099,-0.01225,-0.013));
#570=CARTESIAN_POINT('',(-0.099,-0.006,-0.013));
#571=CARTESIAN_POINT('',(-0.093,-0.006,-0.013));
#572=CARTESIAN_POINT('',(-0.087,-0.006,-0.013));
#573=CARTESIAN_POINT('',(-0.087,-1.5510264561047E-18,-0.013));
#574=CARTESIAN_POINT('',(-0.087,0.006,-0.013));
#575=CARTESIAN_POINT('',(-0.093,0.006,-0.013));
#576=CARTESIAN_POINT('',(-0.099,0.006,-0.013));
#577=CARTESIAN_POINT('',(-0.099,0.01225,-0.013));
#578=CARTESIAN_POINT('',(-0.099,0.0185,-0.013));
#579=CARTESIAN_POINT('',(-0.056,0.0185,-0.013));
#580=CARTESIAN_POINT('',(-0.013,0.0185,-0.013));
#581=CARTESIAN_POINT('',(-0.013,0.025,-0.013));
#582=CARTESIAN_POINT('',(-0.013,0.0315,-0.013));
#583=CARTESIAN_POINT('',(0.,0.0315,-0.013));
#584=CARTESIAN_POINT('',(0.,-0.0315,-0.013));
#585=CARTESIAN_POINT('',(0.006,-0.0315,-0.013));
#586=CARTESIAN_POINT('',(-0.043,0.02225,0.));
#587=CARTESIAN_POINT('',(-0.03,-3.26232080270626E-18,-3.46944695195361E-18));
#588=CARTESIAN_POINT('',(-0.03,0.0185,-6.93889390390723E-18));
#589=CARTESIAN_POINT('',(-0.03,-0.0185,-6.93889390390723E-18));
#590=CARTESIAN_POINT('',(-0.056,0.0185,0.));
#591=CARTESIAN_POINT('',(-0.099,0.0185,0.));
#592=CARTESIAN_POINT('',(-0.099,0.01225,0.));
#593=CARTESIAN_POINT('',(-0.099,0.006,0.));
#594=CARTESIAN_POINT('',(-0.093,0.006,0.));
#595=CARTESIAN_POINT('',(-0.087,0.006,0.));
#596=CARTESIAN_POINT('',(-0.087,-1.5510264561047E-18,0.));
#597=CARTESIAN_POINT('',(-0.087,-0.006,0.));
#598=CARTESIAN_POINT('',(-0.093,-0.006,0.));
#599=CARTESIAN_POINT('',(-0.099,-0.006,0.));
#600=CARTESIAN_POINT('',(-0.099,-0.01225,0.));
#601=CARTESIAN_POINT('',(-0.099,-0.0185,0.));
#602=CARTESIAN_POINT('',(-0.056,-0.0185,0.));
#603=CARTESIAN_POINT('',(0.,0.0315,-0.013));
#604=CARTESIAN_POINT('',(0.,0.0315,0.));
#605=CARTESIAN_POINT('',(-0.013,0.0315,0.));
#606=CARTESIAN_POINT('',(0.013,0.0315,0.));
#607=CARTESIAN_POINT('',(0.013,0.0315,-0.013));
#608=CARTESIAN_POINT('',(-0.013,0.0315,-0.013));
#609=CARTESIAN_POINT('',(-0.013,0.025,-0.013));
#610=CARTESIAN_POINT('',(-0.013,0.025,0.));
#611=CARTESIAN_POINT('',(-0.013,0.0185,0.));
#612=CARTESIAN_POINT('',(-0.013,0.0185,-0.013));
#613=CARTESIAN_POINT('',(-0.056,0.0185,-0.013));
#614=CARTESIAN_POINT('',(-0.01925,0.0185,0.01075));
#615=CARTESIAN_POINT('',(-0.0085,0.0185,0.0215));
#616=CARTESIAN_POINT('',(0.00225,0.0185,0.01075));
#617=CARTESIAN_POINT('',(0.013,0.0185,0.));
#618=CARTESIAN_POINT('',(-0.0085,0.0185,0.));
#619=CARTESIAN_POINT('',(-0.099,0.0185,-0.013));
#620=CARTESIAN_POINT('',(-0.099,0.01225,-0.013));
#621=CARTESIAN_POINT('',(-0.099,0.006,-0.013));
#622=CARTESIAN_POINT('',(-0.093,0.006,-0.013));
#623=CARTESIAN_POINT('',(-0.087,0.006,-0.013));
#624=CARTESIAN_POINT('',(-0.087,-1.5510264561047E-18,-0.013));
#625=CARTESIAN_POINT('',(-0.087,-0.006,-0.013));
#626=CARTESIAN_POINT('',(0.013,0.01575,-0.013));
#627=CARTESIAN_POINT('',(0.013,0.01575,0.));
#628=CARTESIAN_POINT('',(0.013,0.0185,0.));
#629=CARTESIAN_POINT('',(0.013,-0.0185,0.));
#630=CARTESIAN_POINT('',(0.013,-0.01575,0.));
#631=CARTESIAN_POINT('',(0.013,-0.0315,0.));
#632=CARTESIAN_POINT('',(0.013,-0.0315,-0.013));
#633=CARTESIAN_POINT('',(0.,0.0315,-0.013));
#634=CARTESIAN_POINT('',(0.,0.0315,0.));
#635=CARTESIAN_POINT('',(0.006,0.0315,0.));
#636=CARTESIAN_POINT('',(-0.043,0.02225,0.));
#637=CARTESIAN_POINT('',(0.00225,0.0185,0.01075));
#638=CARTESIAN_POINT('',(-0.0085,2.98567252523844E-19,0.0215));
#639=CARTESIAN_POINT('',(-0.00178248557872779,2.98567252523844E-19,0.0147824855787278));
#640=CARTESIAN_POINT('',(0.00225,-0.0185,0.01075));
#641=CARTESIAN_POINT('',(-0.0085,-0.0185,0.0215));
#642=CARTESIAN_POINT('',(-0.0085,-3.26232080270626E-18,0.0215));
#643=CARTESIAN_POINT('',(-0.0560828896655135,2.98567252523844E-19,-0.0260828896655135));
#644=CARTESIAN_POINT('',(-0.0560828896655135,-3.26232080270626E-18,-0.0260828896655135));
#645=CARTESIAN_POINT('',(-0.01925,-0.0185,0.01075));
#646=CARTESIAN_POINT('',(0.,-0.0315,-0.013));
#647=CARTESIAN_POINT('',(0.,-0.0315,0.));
#648=CARTESIAN_POINT('',(-0.013,-0.0315,0.));
#649=CARTESIAN_POINT('',(-0.013,-0.0315,-0.013));
#650=CARTESIAN_POINT('',(-0.013,-0.025,-0.013));
#651=CARTESIAN_POINT('',(-0.013,-0.025,0.));
#652=CARTESIAN_POINT('',(-0.013,-0.0185,0.));
#653=CARTESIAN_POINT('',(-0.013,-0.0185,-0.013));
#654=CARTESIAN_POINT('',(-0.056,-0.0185,-0.013));
#655=CARTESIAN_POINT('',(-0.099,-0.0185,-0.013));
#656=CARTESIAN_POINT('',(-0.0085,-0.0185,0.));
#657=CARTESIAN_POINT('',(-0.099,-0.01225,-0.013));
#658=CARTESIAN_POINT('',(-0.099,-0.006,-0.013));
#659=CARTESIAN_POINT('',(-0.093,-0.006,-0.013));
#660=CARTESIAN_POINT('',(0.,-0.0315,-0.013));
#661=CARTESIAN_POINT('',(0.,-0.0315,0.));
#662=CARTESIAN_POINT('',(0.006,-0.0315,0.));
#663=CARTESIAN_POINT('',(-0.043,-0.02225,0.));
#664=MECHANICAL_DESIGN_GEOMETRIC_PRESENTATION_REPRESENTATION('',(#397),
#665);
#665=(
GEOMETRIC_REPRESENTATION_CONTEXT(3)
GLOBAL_UNCERTAINTY_ASSIGNED_CONTEXT((#666))
GLOBAL_UNIT_ASSIGNED_CONTEXT((#669,#668,#667))
REPRESENTATION_CONTEXT('Part 1','TOP_LEVEL_ASSEMBLY_PART')
);
#666=UNCERTAINTY_MEASURE_WITH_UNIT(LENGTH_MEASURE(1.E-8),#669,
'DISTANCE_ACCURACY_VALUE','Maximum Tolerance applied to model');
#667=(
NAMED_UNIT(*)
SI_UNIT($,.STERADIAN.)
SOLID_ANGLE_UNIT()
);
#668=(
NAMED_UNIT(*)
PLANE_ANGLE_UNIT()
SI_UNIT($,.RADIAN.)
);
#669=(
LENGTH_UNIT()
NAMED_UNIT(*)
SI_UNIT($,.METRE.)
);
#670=PRODUCT_DEFINITION_SHAPE('','',#671);
#671=PRODUCT_DEFINITION('','',#673,#672);
#672=PRODUCT_DEFINITION_CONTEXT('',#679,'design');
#673=PRODUCT_DEFINITION_FORMATION_WITH_SPECIFIED_SOURCE('','',#675,
 .NOT_KNOWN.);
#674=PRODUCT_RELATED_PRODUCT_CATEGORY('','',(#675));
#675=PRODUCT('Part 1','Part 1','Part 1',(#677));
#676=PRODUCT_CATEGORY('','');
#677=PRODUCT_CONTEXT('',#679,'mechanical');
#678=APPLICATION_PROTOCOL_DEFINITION('international standard',
'ap242_managed_model_based_3d_engineering',2020,#679);
#679=APPLICATION_CONTEXT('managed model based 3d engineering');
ENDSEC;
END-ISO-10303-21;
