ISO-10303-21;
HEADER;
/* Generated by software containing ST-Developer
 * from STEP Tools, Inc. (www.steptools.com) 
 */
/* OPTION: using custom renumber hook */

FILE_DESCRIPTION(
/* description */ ('STEP AP242 Edition 2',
'CAx-IF Rec.Pracs.---Representation and Presentation of Product Manufa
cturing Information (PMI)---4.0---2014-10-13',
'CAx-IF Rec.Pracs.---3D Tessellated Geometry---0.4---2014-09-14','2;1',
'CAx-IF Rec.Pracs.---User Defined Attributes---1.5---2016-08-15'),
/* implementation_level */ '2;1');

FILE_NAME(
/* name */ 'Part Studio 1',
/* time_stamp */ '2026-07-12T15:09:58Z',
/* author */ (''),
/* organization */ (''),
/* preprocessor_version */ 'ST-DEVELOPER v20',
/* originating_system */ 'ONSHAPE BY PTC INC, 1.217',
/* authorisation */ '  ');

FILE_SCHEMA (('AP242_MANAGED_MODEL_BASED_3D_ENGINEERING_MIM_LF { 1 0 10303 442 3 1 4 }'));
ENDSEC;

DATA;
#10=SHAPE_REPRESENTATION_RELATIONSHIP('','',#850,#18);
#11=SHAPE_REPRESENTATION_RELATIONSHIP('','',#851,#19);
#12=SHAPE_REPRESENTATION_RELATIONSHIP('','',#852,#20);
#13=SHAPE_REPRESENTATION_RELATIONSHIP('','',#853,#21);
#14=SHAPE_REPRESENTATION_RELATIONSHIP('','',#854,#22);
#15=SHAPE_REPRESENTATION_RELATIONSHIP('','',#855,#23);
#16=SHAPE_REPRESENTATION_RELATIONSHIP('','',#856,#24);
#17=SHAPE_REPRESENTATION_RELATIONSHIP('','',#857,#25);
#18=ADVANCED_BREP_SHAPE_REPRESENTATION('',(#834),#1346);
#19=ADVANCED_BREP_SHAPE_REPRESENTATION('',(#835),#1347);
#20=ADVANCED_BREP_SHAPE_REPRESENTATION('',(#836),#1348);
#21=ADVANCED_BREP_SHAPE_REPRESENTATION('',(#837),#1349);
#22=ADVANCED_BREP_SHAPE_REPRESENTATION('',(#838),#1350);
#23=ADVANCED_BREP_SHAPE_REPRESENTATION('',(#839),#1351);
#24=ADVANCED_BREP_SHAPE_REPRESENTATION('',(#840),#1352);
#25=ADVANCED_BREP_SHAPE_REPRESENTATION('',(#841),#1353);
#26=ORIENTED_EDGE('',*,*,#218,.F.);
#27=ORIENTED_EDGE('',*,*,#219,.F.);
#28=ORIENTED_EDGE('',*,*,#220,.T.);
#29=ORIENTED_EDGE('',*,*,#221,.T.);
#30=ORIENTED_EDGE('',*,*,#222,.F.);
#31=ORIENTED_EDGE('',*,*,#223,.F.);
#32=ORIENTED_EDGE('',*,*,#224,.T.);
#33=ORIENTED_EDGE('',*,*,#219,.T.);
#34=ORIENTED_EDGE('',*,*,#225,.T.);
#35=ORIENTED_EDGE('',*,*,#226,.F.);
#36=ORIENTED_EDGE('',*,*,#227,.F.);
#37=ORIENTED_EDGE('',*,*,#223,.T.);
#38=ORIENTED_EDGE('',*,*,#228,.T.);
#39=ORIENTED_EDGE('',*,*,#221,.F.);
#40=ORIENTED_EDGE('',*,*,#229,.F.);
#41=ORIENTED_EDGE('',*,*,#226,.T.);
#42=ORIENTED_EDGE('',*,*,#220,.F.);
#43=ORIENTED_EDGE('',*,*,#224,.F.);
#44=ORIENTED_EDGE('',*,*,#227,.T.);
#45=ORIENTED_EDGE('',*,*,#229,.T.);
#46=ORIENTED_EDGE('',*,*,#218,.T.);
#47=ORIENTED_EDGE('',*,*,#228,.F.);
#48=ORIENTED_EDGE('',*,*,#225,.F.);
#49=ORIENTED_EDGE('',*,*,#222,.T.);
#50=ORIENTED_EDGE('',*,*,#230,.T.);
#51=ORIENTED_EDGE('',*,*,#231,.F.);
#52=ORIENTED_EDGE('',*,*,#232,.F.);
#53=ORIENTED_EDGE('',*,*,#233,.T.);
#54=ORIENTED_EDGE('',*,*,#234,.T.);
#55=ORIENTED_EDGE('',*,*,#235,.F.);
#56=ORIENTED_EDGE('',*,*,#236,.F.);
#57=ORIENTED_EDGE('',*,*,#231,.T.);
#58=ORIENTED_EDGE('',*,*,#237,.F.);
#59=ORIENTED_EDGE('',*,*,#238,.F.);
#60=ORIENTED_EDGE('',*,*,#239,.T.);
#61=ORIENTED_EDGE('',*,*,#235,.T.);
#62=ORIENTED_EDGE('',*,*,#240,.F.);
#63=ORIENTED_EDGE('',*,*,#233,.F.);
#64=ORIENTED_EDGE('',*,*,#241,.T.);
#65=ORIENTED_EDGE('',*,*,#238,.T.);
#66=ORIENTED_EDGE('',*,*,#232,.T.);
#67=ORIENTED_EDGE('',*,*,#236,.T.);
#68=ORIENTED_EDGE('',*,*,#239,.F.);
#69=ORIENTED_EDGE('',*,*,#241,.F.);
#70=ORIENTED_EDGE('',*,*,#230,.F.);
#71=ORIENTED_EDGE('',*,*,#240,.T.);
#72=ORIENTED_EDGE('',*,*,#237,.T.);
#73=ORIENTED_EDGE('',*,*,#234,.F.);
#74=ORIENTED_EDGE('',*,*,#242,.F.);
#75=ORIENTED_EDGE('',*,*,#243,.F.);
#76=ORIENTED_EDGE('',*,*,#244,.T.);
#77=ORIENTED_EDGE('',*,*,#245,.T.);
#78=ORIENTED_EDGE('',*,*,#246,.T.);
#79=ORIENTED_EDGE('',*,*,#247,.F.);
#80=ORIENTED_EDGE('',*,*,#248,.F.);
#81=ORIENTED_EDGE('',*,*,#243,.T.);
#82=ORIENTED_EDGE('',*,*,#249,.T.);
#83=ORIENTED_EDGE('',*,*,#250,.F.);
#84=ORIENTED_EDGE('',*,*,#251,.F.);
#85=ORIENTED_EDGE('',*,*,#247,.T.);
#86=ORIENTED_EDGE('',*,*,#252,.F.);
#87=ORIENTED_EDGE('',*,*,#245,.F.);
#88=ORIENTED_EDGE('',*,*,#253,.T.);
#89=ORIENTED_EDGE('',*,*,#250,.T.);
#90=ORIENTED_EDGE('',*,*,#244,.F.);
#91=ORIENTED_EDGE('',*,*,#248,.T.);
#92=ORIENTED_EDGE('',*,*,#251,.T.);
#93=ORIENTED_EDGE('',*,*,#253,.F.);
#94=ORIENTED_EDGE('',*,*,#242,.T.);
#95=ORIENTED_EDGE('',*,*,#252,.T.);
#96=ORIENTED_EDGE('',*,*,#249,.F.);
#97=ORIENTED_EDGE('',*,*,#246,.F.);
#98=ORIENTED_EDGE('',*,*,#254,.T.);
#99=ORIENTED_EDGE('',*,*,#255,.F.);
#100=ORIENTED_EDGE('',*,*,#256,.F.);
#101=ORIENTED_EDGE('',*,*,#257,.T.);
#102=ORIENTED_EDGE('',*,*,#258,.F.);
#103=ORIENTED_EDGE('',*,*,#259,.F.);
#104=ORIENTED_EDGE('',*,*,#260,.T.);
#105=ORIENTED_EDGE('',*,*,#255,.T.);
#106=ORIENTED_EDGE('',*,*,#261,.F.);
#107=ORIENTED_EDGE('',*,*,#262,.F.);
#108=ORIENTED_EDGE('',*,*,#263,.T.);
#109=ORIENTED_EDGE('',*,*,#259,.T.);
#110=ORIENTED_EDGE('',*,*,#264,.T.);
#111=ORIENTED_EDGE('',*,*,#257,.F.);
#112=ORIENTED_EDGE('',*,*,#265,.F.);
#113=ORIENTED_EDGE('',*,*,#262,.T.);
#114=ORIENTED_EDGE('',*,*,#256,.T.);
#115=ORIENTED_EDGE('',*,*,#260,.F.);
#116=ORIENTED_EDGE('',*,*,#263,.F.);
#117=ORIENTED_EDGE('',*,*,#265,.T.);
#118=ORIENTED_EDGE('',*,*,#254,.F.);
#119=ORIENTED_EDGE('',*,*,#264,.F.);
#120=ORIENTED_EDGE('',*,*,#261,.T.);
#121=ORIENTED_EDGE('',*,*,#258,.T.);
#122=ORIENTED_EDGE('',*,*,#266,.T.);
#123=ORIENTED_EDGE('',*,*,#267,.F.);
#124=ORIENTED_EDGE('',*,*,#268,.F.);
#125=ORIENTED_EDGE('',*,*,#269,.T.);
#126=ORIENTED_EDGE('',*,*,#270,.F.);
#127=ORIENTED_EDGE('',*,*,#271,.F.);
#128=ORIENTED_EDGE('',*,*,#272,.T.);
#129=ORIENTED_EDGE('',*,*,#267,.T.);
#130=ORIENTED_EDGE('',*,*,#273,.F.);
#131=ORIENTED_EDGE('',*,*,#274,.F.);
#132=ORIENTED_EDGE('',*,*,#275,.T.);
#133=ORIENTED_EDGE('',*,*,#271,.T.);
#134=ORIENTED_EDGE('',*,*,#276,.T.);
#135=ORIENTED_EDGE('',*,*,#269,.F.);
#136=ORIENTED_EDGE('',*,*,#277,.F.);
#137=ORIENTED_EDGE('',*,*,#274,.T.);
#138=ORIENTED_EDGE('',*,*,#268,.T.);
#139=ORIENTED_EDGE('',*,*,#272,.F.);
#140=ORIENTED_EDGE('',*,*,#275,.F.);
#141=ORIENTED_EDGE('',*,*,#277,.T.);
#142=ORIENTED_EDGE('',*,*,#266,.F.);
#143=ORIENTED_EDGE('',*,*,#276,.F.);
#144=ORIENTED_EDGE('',*,*,#273,.T.);
#145=ORIENTED_EDGE('',*,*,#270,.T.);
#146=ORIENTED_EDGE('',*,*,#278,.F.);
#147=ORIENTED_EDGE('',*,*,#279,.F.);
#148=ORIENTED_EDGE('',*,*,#280,.T.);
#149=ORIENTED_EDGE('',*,*,#281,.T.);
#150=ORIENTED_EDGE('',*,*,#282,.F.);
#151=ORIENTED_EDGE('',*,*,#283,.F.);
#152=ORIENTED_EDGE('',*,*,#284,.T.);
#153=ORIENTED_EDGE('',*,*,#279,.T.);
#154=ORIENTED_EDGE('',*,*,#285,.T.);
#155=ORIENTED_EDGE('',*,*,#286,.F.);
#156=ORIENTED_EDGE('',*,*,#287,.F.);
#157=ORIENTED_EDGE('',*,*,#283,.T.);
#158=ORIENTED_EDGE('',*,*,#288,.T.);
#159=ORIENTED_EDGE('',*,*,#281,.F.);
#160=ORIENTED_EDGE('',*,*,#289,.F.);
#161=ORIENTED_EDGE('',*,*,#286,.T.);
#162=ORIENTED_EDGE('',*,*,#280,.F.);
#163=ORIENTED_EDGE('',*,*,#284,.F.);
#164=ORIENTED_EDGE('',*,*,#287,.T.);
#165=ORIENTED_EDGE('',*,*,#289,.T.);
#166=ORIENTED_EDGE('',*,*,#278,.T.);
#167=ORIENTED_EDGE('',*,*,#288,.F.);
#168=ORIENTED_EDGE('',*,*,#285,.F.);
#169=ORIENTED_EDGE('',*,*,#282,.T.);
#170=ORIENTED_EDGE('',*,*,#290,.F.);
#171=ORIENTED_EDGE('',*,*,#291,.F.);
#172=ORIENTED_EDGE('',*,*,#292,.T.);
#173=ORIENTED_EDGE('',*,*,#293,.T.);
#174=ORIENTED_EDGE('',*,*,#294,.T.);
#175=ORIENTED_EDGE('',*,*,#295,.F.);
#176=ORIENTED_EDGE('',*,*,#296,.F.);
#177=ORIENTED_EDGE('',*,*,#291,.T.);
#178=ORIENTED_EDGE('',*,*,#297,.T.);
#179=ORIENTED_EDGE('',*,*,#298,.F.);
#180=ORIENTED_EDGE('',*,*,#299,.F.);
#181=ORIENTED_EDGE('',*,*,#295,.T.);
#182=ORIENTED_EDGE('',*,*,#300,.F.);
#183=ORIENTED_EDGE('',*,*,#293,.F.);
#184=ORIENTED_EDGE('',*,*,#301,.T.);
#185=ORIENTED_EDGE('',*,*,#298,.T.);
#186=ORIENTED_EDGE('',*,*,#292,.F.);
#187=ORIENTED_EDGE('',*,*,#296,.T.);
#188=ORIENTED_EDGE('',*,*,#299,.T.);
#189=ORIENTED_EDGE('',*,*,#301,.F.);
#190=ORIENTED_EDGE('',*,*,#290,.T.);
#191=ORIENTED_EDGE('',*,*,#300,.T.);
#192=ORIENTED_EDGE('',*,*,#297,.F.);
#193=ORIENTED_EDGE('',*,*,#294,.F.);
#194=ORIENTED_EDGE('',*,*,#302,.F.);
#195=ORIENTED_EDGE('',*,*,#303,.F.);
#196=ORIENTED_EDGE('',*,*,#304,.T.);
#197=ORIENTED_EDGE('',*,*,#305,.T.);
#198=ORIENTED_EDGE('',*,*,#306,.F.);
#199=ORIENTED_EDGE('',*,*,#307,.F.);
#200=ORIENTED_EDGE('',*,*,#308,.T.);
#201=ORIENTED_EDGE('',*,*,#303,.T.);
#202=ORIENTED_EDGE('',*,*,#309,.T.);
#203=ORIENTED_EDGE('',*,*,#310,.F.);
#204=ORIENTED_EDGE('',*,*,#311,.F.);
#205=ORIENTED_EDGE('',*,*,#307,.T.);
#206=ORIENTED_EDGE('',*,*,#312,.T.);
#207=ORIENTED_EDGE('',*,*,#305,.F.);
#208=ORIENTED_EDGE('',*,*,#313,.F.);
#209=ORIENTED_EDGE('',*,*,#310,.T.);
#210=ORIENTED_EDGE('',*,*,#304,.F.);
#211=ORIENTED_EDGE('',*,*,#308,.F.);
#212=ORIENTED_EDGE('',*,*,#311,.T.);
#213=ORIENTED_EDGE('',*,*,#313,.T.);
#214=ORIENTED_EDGE('',*,*,#302,.T.);
#215=ORIENTED_EDGE('',*,*,#312,.F.);
#216=ORIENTED_EDGE('',*,*,#309,.F.);
#217=ORIENTED_EDGE('',*,*,#306,.T.);
#218=EDGE_CURVE('',#314,#315,#378,.T.);
#219=EDGE_CURVE('',#316,#314,#379,.T.);
#220=EDGE_CURVE('',#316,#317,#380,.T.);
#221=EDGE_CURVE('',#317,#315,#381,.T.);
#222=EDGE_CURVE('',#318,#314,#382,.T.);
#223=EDGE_CURVE('',#319,#318,#383,.T.);
#224=EDGE_CURVE('',#319,#316,#384,.T.);
#225=EDGE_CURVE('',#318,#320,#385,.T.);
#226=EDGE_CURVE('',#321,#320,#386,.T.);
#227=EDGE_CURVE('',#319,#321,#387,.T.);
#228=EDGE_CURVE('',#320,#315,#388,.T.);
#229=EDGE_CURVE('',#321,#317,#389,.T.);
#230=EDGE_CURVE('',#322,#323,#390,.T.);
#231=EDGE_CURVE('',#324,#323,#391,.T.);
#232=EDGE_CURVE('',#325,#324,#392,.T.);
#233=EDGE_CURVE('',#325,#322,#393,.T.);
#234=EDGE_CURVE('',#323,#326,#394,.T.);
#235=EDGE_CURVE('',#327,#326,#395,.T.);
#236=EDGE_CURVE('',#324,#327,#396,.T.);
#237=EDGE_CURVE('',#328,#326,#397,.T.);
#238=EDGE_CURVE('',#329,#328,#398,.T.);
#239=EDGE_CURVE('',#329,#327,#399,.T.);
#240=EDGE_CURVE('',#322,#328,#400,.T.);
#241=EDGE_CURVE('',#325,#329,#401,.T.);
#242=EDGE_CURVE('',#330,#331,#402,.T.);
#243=EDGE_CURVE('',#332,#330,#403,.T.);
#244=EDGE_CURVE('',#332,#333,#404,.T.);
#245=EDGE_CURVE('',#333,#331,#405,.T.);
#246=EDGE_CURVE('',#330,#334,#406,.T.);
#247=EDGE_CURVE('',#335,#334,#407,.T.);
#248=EDGE_CURVE('',#332,#335,#408,.T.);
#249=EDGE_CURVE('',#334,#336,#409,.T.);
#250=EDGE_CURVE('',#337,#336,#410,.T.);
#251=EDGE_CURVE('',#335,#337,#411,.T.);
#252=EDGE_CURVE('',#331,#336,#412,.T.);
#253=EDGE_CURVE('',#333,#337,#413,.T.);
#254=EDGE_CURVE('',#338,#339,#414,.T.);
#255=EDGE_CURVE('',#340,#339,#415,.T.);
#256=EDGE_CURVE('',#341,#340,#416,.T.);
#257=EDGE_CURVE('',#341,#338,#417,.T.);
#258=EDGE_CURVE('',#342,#339,#418,.T.);
#259=EDGE_CURVE('',#343,#342,#419,.T.);
#260=EDGE_CURVE('',#343,#340,#420,.T.);
#261=EDGE_CURVE('',#344,#342,#421,.T.);
#262=EDGE_CURVE('',#345,#344,#422,.T.);
#263=EDGE_CURVE('',#345,#343,#423,.T.);
#264=EDGE_CURVE('',#344,#338,#424,.T.);
#265=EDGE_CURVE('',#345,#341,#425,.T.);
#266=EDGE_CURVE('',#346,#347,#426,.T.);
#267=EDGE_CURVE('',#348,#347,#427,.T.);
#268=EDGE_CURVE('',#349,#348,#428,.T.);
#269=EDGE_CURVE('',#349,#346,#429,.T.);
#270=EDGE_CURVE('',#350,#347,#430,.T.);
#271=EDGE_CURVE('',#351,#350,#431,.T.);
#272=EDGE_CURVE('',#351,#348,#432,.T.);
#273=EDGE_CURVE('',#352,#350,#433,.T.);
#274=EDGE_CURVE('',#353,#352,#434,.T.);
#275=EDGE_CURVE('',#353,#351,#435,.T.);
#276=EDGE_CURVE('',#352,#346,#436,.T.);
#277=EDGE_CURVE('',#353,#349,#437,.T.);
#278=EDGE_CURVE('',#354,#355,#438,.T.);
#279=EDGE_CURVE('',#356,#354,#439,.T.);
#280=EDGE_CURVE('',#356,#357,#440,.T.);
#281=EDGE_CURVE('',#357,#355,#441,.T.);
#282=EDGE_CURVE('',#358,#354,#442,.T.);
#283=EDGE_CURVE('',#359,#358,#443,.T.);
#284=EDGE_CURVE('',#359,#356,#444,.T.);
#285=EDGE_CURVE('',#358,#360,#445,.T.);
#286=EDGE_CURVE('',#361,#360,#446,.T.);
#287=EDGE_CURVE('',#359,#361,#447,.T.);
#288=EDGE_CURVE('',#360,#355,#448,.T.);
#289=EDGE_CURVE('',#361,#357,#449,.T.);
#290=EDGE_CURVE('',#362,#363,#450,.T.);
#291=EDGE_CURVE('',#364,#362,#451,.T.);
#292=EDGE_CURVE('',#364,#365,#452,.T.);
#293=EDGE_CURVE('',#365,#363,#453,.T.);
#294=EDGE_CURVE('',#362,#366,#454,.T.);
#295=EDGE_CURVE('',#367,#366,#455,.T.);
#296=EDGE_CURVE('',#364,#367,#456,.T.);
#297=EDGE_CURVE('',#366,#368,#457,.T.);
#298=EDGE_CURVE('',#369,#368,#458,.T.);
#299=EDGE_CURVE('',#367,#369,#459,.T.);
#300=EDGE_CURVE('',#363,#368,#460,.T.);
#301=EDGE_CURVE('',#365,#369,#461,.T.);
#302=EDGE_CURVE('',#370,#371,#462,.T.);
#303=EDGE_CURVE('',#372,#370,#463,.T.);
#304=EDGE_CURVE('',#372,#373,#464,.T.);
#305=EDGE_CURVE('',#373,#371,#465,.T.);
#306=EDGE_CURVE('',#374,#370,#466,.T.);
#307=EDGE_CURVE('',#375,#374,#467,.T.);
#308=EDGE_CURVE('',#375,#372,#468,.T.);
#309=EDGE_CURVE('',#374,#376,#469,.T.);
#310=EDGE_CURVE('',#377,#376,#470,.T.);
#311=EDGE_CURVE('',#375,#377,#471,.T.);
#312=EDGE_CURVE('',#376,#371,#472,.T.);
#313=EDGE_CURVE('',#377,#373,#473,.T.);
#314=VERTEX_POINT('',#1125);
#315=VERTEX_POINT('',#1126);
#316=VERTEX_POINT('',#1128);
#317=VERTEX_POINT('',#1130);
#318=VERTEX_POINT('',#1134);
#319=VERTEX_POINT('',#1136);
#320=VERTEX_POINT('',#1140);
#321=VERTEX_POINT('',#1142);
#322=VERTEX_POINT('',#1152);
#323=VERTEX_POINT('',#1153);
#324=VERTEX_POINT('',#1155);
#325=VERTEX_POINT('',#1157);
#326=VERTEX_POINT('',#1161);
#327=VERTEX_POINT('',#1163);
#328=VERTEX_POINT('',#1167);
#329=VERTEX_POINT('',#1169);
#330=VERTEX_POINT('',#1179);
#331=VERTEX_POINT('',#1180);
#332=VERTEX_POINT('',#1182);
#333=VERTEX_POINT('',#1184);
#334=VERTEX_POINT('',#1188);
#335=VERTEX_POINT('',#1190);
#336=VERTEX_POINT('',#1194);
#337=VERTEX_POINT('',#1196);
#338=VERTEX_POINT('',#1206);
#339=VERTEX_POINT('',#1207);
#340=VERTEX_POINT('',#1209);
#341=VERTEX_POINT('',#1211);
#342=VERTEX_POINT('',#1215);
#343=VERTEX_POINT('',#1217);
#344=VERTEX_POINT('',#1221);
#345=VERTEX_POINT('',#1223);
#346=VERTEX_POINT('',#1233);
#347=VERTEX_POINT('',#1234);
#348=VERTEX_POINT('',#1236);
#349=VERTEX_POINT('',#1238);
#350=VERTEX_POINT('',#1242);
#351=VERTEX_POINT('',#1244);
#352=VERTEX_POINT('',#1248);
#353=VERTEX_POINT('',#1250);
#354=VERTEX_POINT('',#1260);
#355=VERTEX_POINT('',#1261);
#356=VERTEX_POINT('',#1263);
#357=VERTEX_POINT('',#1265);
#358=VERTEX_POINT('',#1269);
#359=VERTEX_POINT('',#1271);
#360=VERTEX_POINT('',#1275);
#361=VERTEX_POINT('',#1277);
#362=VERTEX_POINT('',#1287);
#363=VERTEX_POINT('',#1288);
#364=VERTEX_POINT('',#1290);
#365=VERTEX_POINT('',#1292);
#366=VERTEX_POINT('',#1296);
#367=VERTEX_POINT('',#1298);
#368=VERTEX_POINT('',#1302);
#369=VERTEX_POINT('',#1304);
#370=VERTEX_POINT('',#1314);
#371=VERTEX_POINT('',#1315);
#372=VERTEX_POINT('',#1317);
#373=VERTEX_POINT('',#1319);
#374=VERTEX_POINT('',#1323);
#375=VERTEX_POINT('',#1325);
#376=VERTEX_POINT('',#1329);
#377=VERTEX_POINT('',#1331);
#378=LINE('',#1124,#474);
#379=LINE('',#1127,#475);
#380=LINE('',#1129,#476);
#381=LINE('',#1131,#477);
#382=LINE('',#1133,#478);
#383=LINE('',#1135,#479);
#384=LINE('',#1137,#480);
#385=LINE('',#1139,#481);
#386=LINE('',#1141,#482);
#387=LINE('',#1143,#483);
#388=LINE('',#1145,#484);
#389=LINE('',#1146,#485);
#390=LINE('',#1151,#486);
#391=LINE('',#1154,#487);
#392=LINE('',#1156,#488);
#393=LINE('',#1158,#489);
#394=LINE('',#1160,#490);
#395=LINE('',#1162,#491);
#396=LINE('',#1164,#492);
#397=LINE('',#1166,#493);
#398=LINE('',#1168,#494);
#399=LINE('',#1170,#495);
#400=LINE('',#1172,#496);
#401=LINE('',#1173,#497);
#402=LINE('',#1178,#498);
#403=LINE('',#1181,#499);
#404=LINE('',#1183,#500);
#405=LINE('',#1185,#501);
#406=LINE('',#1187,#502);
#407=LINE('',#1189,#503);
#408=LINE('',#1191,#504);
#409=LINE('',#1193,#505);
#410=LINE('',#1195,#506);
#411=LINE('',#1197,#507);
#412=LINE('',#1199,#508);
#413=LINE('',#1200,#509);
#414=LINE('',#1205,#510);
#415=LINE('',#1208,#511);
#416=LINE('',#1210,#512);
#417=LINE('',#1212,#513);
#418=LINE('',#1214,#514);
#419=LINE('',#1216,#515);
#420=LINE('',#1218,#516);
#421=LINE('',#1220,#517);
#422=LINE('',#1222,#518);
#423=LINE('',#1224,#519);
#424=LINE('',#1226,#520);
#425=LINE('',#1227,#521);
#426=LINE('',#1232,#522);
#427=LINE('',#1235,#523);
#428=LINE('',#1237,#524);
#429=LINE('',#1239,#525);
#430=LINE('',#1241,#526);
#431=LINE('',#1243,#527);
#432=LINE('',#1245,#528);
#433=LINE('',#1247,#529);
#434=LINE('',#1249,#530);
#435=LINE('',#1251,#531);
#436=LINE('',#1253,#532);
#437=LINE('',#1254,#533);
#438=LINE('',#1259,#534);
#439=LINE('',#1262,#535);
#440=LINE('',#1264,#536);
#441=LINE('',#1266,#537);
#442=LINE('',#1268,#538);
#443=LINE('',#1270,#539);
#444=LINE('',#1272,#540);
#445=LINE('',#1274,#541);
#446=LINE('',#1276,#542);
#447=LINE('',#1278,#543);
#448=LINE('',#1280,#544);
#449=LINE('',#1281,#545);
#450=LINE('',#1286,#546);
#451=LINE('',#1289,#547);
#452=LINE('',#1291,#548);
#453=LINE('',#1293,#549);
#454=LINE('',#1295,#550);
#455=LINE('',#1297,#551);
#456=LINE('',#1299,#552);
#457=LINE('',#1301,#553);
#458=LINE('',#1303,#554);
#459=LINE('',#1305,#555);
#460=LINE('',#1307,#556);
#461=LINE('',#1308,#557);
#462=LINE('',#1313,#558);
#463=LINE('',#1316,#559);
#464=LINE('',#1318,#560);
#465=LINE('',#1320,#561);
#466=LINE('',#1322,#562);
#467=LINE('',#1324,#563);
#468=LINE('',#1326,#564);
#469=LINE('',#1328,#565);
#470=LINE('',#1330,#566);
#471=LINE('',#1332,#567);
#472=LINE('',#1334,#568);
#473=LINE('',#1335,#569);
#474=VECTOR('',#918,1.);
#475=VECTOR('',#919,1.);
#476=VECTOR('',#920,1.);
#477=VECTOR('',#921,1.);
#478=VECTOR('',#924,1.);
#479=VECTOR('',#925,1.);
#480=VECTOR('',#926,1.);
#481=VECTOR('',#929,1.);
#482=VECTOR('',#930,1.);
#483=VECTOR('',#931,1.);
#484=VECTOR('',#934,1.);
#485=VECTOR('',#935,1.);
#486=VECTOR('',#944,1.);
#487=VECTOR('',#945,1.);
#488=VECTOR('',#946,1.);
#489=VECTOR('',#947,1.);
#490=VECTOR('',#950,1.);
#491=VECTOR('',#951,1.);
#492=VECTOR('',#952,1.);
#493=VECTOR('',#955,1.);
#494=VECTOR('',#956,1.);
#495=VECTOR('',#957,1.);
#496=VECTOR('',#960,1.);
#497=VECTOR('',#961,1.);
#498=VECTOR('',#970,1.);
#499=VECTOR('',#971,1.);
#500=VECTOR('',#972,1.);
#501=VECTOR('',#973,1.);
#502=VECTOR('',#976,1.);
#503=VECTOR('',#977,1.);
#504=VECTOR('',#978,1.);
#505=VECTOR('',#981,1.);
#506=VECTOR('',#982,1.);
#507=VECTOR('',#983,1.);
#508=VECTOR('',#986,1.);
#509=VECTOR('',#987,1.);
#510=VECTOR('',#996,1.);
#511=VECTOR('',#997,1.);
#512=VECTOR('',#998,1.);
#513=VECTOR('',#999,1.);
#514=VECTOR('',#1002,1.);
#515=VECTOR('',#1003,1.);
#516=VECTOR('',#1004,1.);
#517=VECTOR('',#1007,1.);
#518=VECTOR('',#1008,1.);
#519=VECTOR('',#1009,1.);
#520=VECTOR('',#1012,1.);
#521=VECTOR('',#1013,1.);
#522=VECTOR('',#1022,1.);
#523=VECTOR('',#1023,1.);
#524=VECTOR('',#1024,1.);
#525=VECTOR('',#1025,1.);
#526=VECTOR('',#1028,1.);
#527=VECTOR('',#1029,1.);
#528=VECTOR('',#1030,1.);
#529=VECTOR('',#1033,1.);
#530=VECTOR('',#1034,1.);
#531=VECTOR('',#1035,1.);
#532=VECTOR('',#1038,1.);
#533=VECTOR('',#1039,1.);
#534=VECTOR('',#1048,1.);
#535=VECTOR('',#1049,1.);
#536=VECTOR('',#1050,1.);
#537=VECTOR('',#1051,1.);
#538=VECTOR('',#1054,1.);
#539=VECTOR('',#1055,1.);
#540=VECTOR('',#1056,1.);
#541=VECTOR('',#1059,1.);
#542=VECTOR('',#1060,1.);
#543=VECTOR('',#1061,1.);
#544=VECTOR('',#1064,1.);
#545=VECTOR('',#1065,1.);
#546=VECTOR('',#1074,1.);
#547=VECTOR('',#1075,1.);
#548=VECTOR('',#1076,1.);
#549=VECTOR('',#1077,1.);
#550=VECTOR('',#1080,1.);
#551=VECTOR('',#1081,1.);
#552=VECTOR('',#1082,1.);
#553=VECTOR('',#1085,1.);
#554=VECTOR('',#1086,1.);
#555=VECTOR('',#1087,1.);
#556=VECTOR('',#1090,1.);
#557=VECTOR('',#1091,1.);
#558=VECTOR('',#1100,1.);
#559=VECTOR('',#1101,1.);
#560=VECTOR('',#1102,1.);
#561=VECTOR('',#1103,1.);
#562=VECTOR('',#1106,1.);
#563=VECTOR('',#1107,1.);
#564=VECTOR('',#1108,1.);
#565=VECTOR('',#1111,1.);
#566=VECTOR('',#1112,1.);
#567=VECTOR('',#1113,1.);
#568=VECTOR('',#1116,1.);
#569=VECTOR('',#1117,1.);
#570=EDGE_LOOP('',(#26,#27,#28,#29));
#571=EDGE_LOOP('',(#30,#31,#32,#33));
#572=EDGE_LOOP('',(#34,#35,#36,#37));
#573=EDGE_LOOP('',(#38,#39,#40,#41));
#574=EDGE_LOOP('',(#42,#43,#44,#45));
#575=EDGE_LOOP('',(#46,#47,#48,#49));
#576=EDGE_LOOP('',(#50,#51,#52,#53));
#577=EDGE_LOOP('',(#54,#55,#56,#57));
#578=EDGE_LOOP('',(#58,#59,#60,#61));
#579=EDGE_LOOP('',(#62,#63,#64,#65));
#580=EDGE_LOOP('',(#66,#67,#68,#69));
#581=EDGE_LOOP('',(#70,#71,#72,#73));
#582=EDGE_LOOP('',(#74,#75,#76,#77));
#583=EDGE_LOOP('',(#78,#79,#80,#81));
#584=EDGE_LOOP('',(#82,#83,#84,#85));
#585=EDGE_LOOP('',(#86,#87,#88,#89));
#586=EDGE_LOOP('',(#90,#91,#92,#93));
#587=EDGE_LOOP('',(#94,#95,#96,#97));
#588=EDGE_LOOP('',(#98,#99,#100,#101));
#589=EDGE_LOOP('',(#102,#103,#104,#105));
#590=EDGE_LOOP('',(#106,#107,#108,#109));
#591=EDGE_LOOP('',(#110,#111,#112,#113));
#592=EDGE_LOOP('',(#114,#115,#116,#117));
#593=EDGE_LOOP('',(#118,#119,#120,#121));
#594=EDGE_LOOP('',(#122,#123,#124,#125));
#595=EDGE_LOOP('',(#126,#127,#128,#129));
#596=EDGE_LOOP('',(#130,#131,#132,#133));
#597=EDGE_LOOP('',(#134,#135,#136,#137));
#598=EDGE_LOOP('',(#138,#139,#140,#141));
#599=EDGE_LOOP('',(#142,#143,#144,#145));
#600=EDGE_LOOP('',(#146,#147,#148,#149));
#601=EDGE_LOOP('',(#150,#151,#152,#153));
#602=EDGE_LOOP('',(#154,#155,#156,#157));
#603=EDGE_LOOP('',(#158,#159,#160,#161));
#604=EDGE_LOOP('',(#162,#163,#164,#165));
#605=EDGE_LOOP('',(#166,#167,#168,#169));
#606=EDGE_LOOP('',(#170,#171,#172,#173));
#607=EDGE_LOOP('',(#174,#175,#176,#177));
#608=EDGE_LOOP('',(#178,#179,#180,#181));
#609=EDGE_LOOP('',(#182,#183,#184,#185));
#610=EDGE_LOOP('',(#186,#187,#188,#189));
#611=EDGE_LOOP('',(#190,#191,#192,#193));
#612=EDGE_LOOP('',(#194,#195,#196,#197));
#613=EDGE_LOOP('',(#198,#199,#200,#201));
#614=EDGE_LOOP('',(#202,#203,#204,#205));
#615=EDGE_LOOP('',(#206,#207,#208,#209));
#616=EDGE_LOOP('',(#210,#211,#212,#213));
#617=EDGE_LOOP('',(#214,#215,#216,#217));
#618=FACE_BOUND('',#570,.T.);
#619=FACE_BOUND('',#571,.T.);
#620=FACE_BOUND('',#572,.T.);
#621=FACE_BOUND('',#573,.T.);
#622=FACE_BOUND('',#574,.T.);
#623=FACE_BOUND('',#575,.T.);
#624=FACE_BOUND('',#576,.T.);
#625=FACE_BOUND('',#577,.T.);
#626=FACE_BOUND('',#578,.T.);
#627=FACE_BOUND('',#579,.T.);
#628=FACE_BOUND('',#580,.T.);
#629=FACE_BOUND('',#581,.T.);
#630=FACE_BOUND('',#582,.T.);
#631=FACE_BOUND('',#583,.T.);
#632=FACE_BOUND('',#584,.T.);
#633=FACE_BOUND('',#585,.T.);
#634=FACE_BOUND('',#586,.T.);
#635=FACE_BOUND('',#587,.T.);
#636=FACE_BOUND('',#588,.T.);
#637=FACE_BOUND('',#589,.T.);
#638=FACE_BOUND('',#590,.T.);
#639=FACE_BOUND('',#591,.T.);
#640=FACE_BOUND('',#592,.T.);
#641=FACE_BOUND('',#593,.T.);
#642=FACE_BOUND('',#594,.T.);
#643=FACE_BOUND('',#595,.T.);
#644=FACE_BOUND('',#596,.T.);
#645=FACE_BOUND('',#597,.T.);
#646=FACE_BOUND('',#598,.T.);
#647=FACE_BOUND('',#599,.T.);
#648=FACE_BOUND('',#600,.T.);
#649=FACE_BOUND('',#601,.T.);
#650=FACE_BOUND('',#602,.T.);
#651=FACE_BOUND('',#603,.T.);
#652=FACE_BOUND('',#604,.T.);
#653=FACE_BOUND('',#605,.T.);
#654=FACE_BOUND('',#606,.T.);
#655=FACE_BOUND('',#607,.T.);
#656=FACE_BOUND('',#608,.T.);
#657=FACE_BOUND('',#609,.T.);
#658=FACE_BOUND('',#610,.T.);
#659=FACE_BOUND('',#611,.T.);
#660=FACE_BOUND('',#612,.T.);
#661=FACE_BOUND('',#613,.T.);
#662=FACE_BOUND('',#614,.T.);
#663=FACE_BOUND('',#615,.T.);
#664=FACE_BOUND('',#616,.T.);
#665=FACE_BOUND('',#617,.T.);
#666=PLANE('',#859);
#667=PLANE('',#860);
#668=PLANE('',#861);
#669=PLANE('',#862);
#670=PLANE('',#863);
#671=PLANE('',#864);
#672=PLANE('',#866);
#673=PLANE('',#867);
#674=PLANE('',#868);
#675=PLANE('',#869);
#676=PLANE('',#870);
#677=PLANE('',#871);
#678=PLANE('',#873);
#679=PLANE('',#874);
#680=PLANE('',#875);
#681=PLANE('',#876);
#682=PLANE('',#877);
#683=PLANE('',#878);
#684=PLANE('',#880);
#685=PLANE('',#881);
#686=PLANE('',#882);
#687=PLANE('',#883);
#688=PLANE('',#884);
#689=PLANE('',#885);
#690=PLANE('',#887);
#691=PLANE('',#888);
#692=PLANE('',#889);
#693=PLANE('',#890);
#694=PLANE('',#891);
#695=PLANE('',#892);
#696=PLANE('',#894);
#697=PLANE('',#895);
#698=PLANE('',#896);
#699=PLANE('',#897);
#700=PLANE('',#898);
#701=PLANE('',#899);
#702=PLANE('',#901);
#703=PLANE('',#902);
#704=PLANE('',#903);
#705=PLANE('',#904);
#706=PLANE('',#905);
#707=PLANE('',#906);
#708=PLANE('',#908);
#709=PLANE('',#909);
#710=PLANE('',#910);
#711=PLANE('',#911);
#712=PLANE('',#912);
#713=PLANE('',#913);
#714=ADVANCED_FACE('',(#618),#666,.T.);
#715=ADVANCED_FACE('',(#619),#667,.T.);
#716=ADVANCED_FACE('',(#620),#668,.F.);
#717=ADVANCED_FACE('',(#621),#669,.F.);
#718=ADVANCED_FACE('',(#622),#670,.T.);
#719=ADVANCED_FACE('',(#623),#671,.F.);
#720=ADVANCED_FACE('',(#624),#672,.F.);
#721=ADVANCED_FACE('',(#625),#673,.F.);
#722=ADVANCED_FACE('',(#626),#674,.T.);
#723=ADVANCED_FACE('',(#627),#675,.T.);
#724=ADVANCED_FACE('',(#628),#676,.F.);
#725=ADVANCED_FACE('',(#629),#677,.T.);
#726=ADVANCED_FACE('',(#630),#678,.T.);
#727=ADVANCED_FACE('',(#631),#679,.F.);
#728=ADVANCED_FACE('',(#632),#680,.F.);
#729=ADVANCED_FACE('',(#633),#681,.T.);
#730=ADVANCED_FACE('',(#634),#682,.T.);
#731=ADVANCED_FACE('',(#635),#683,.F.);
#732=ADVANCED_FACE('',(#636),#684,.F.);
#733=ADVANCED_FACE('',(#637),#685,.T.);
#734=ADVANCED_FACE('',(#638),#686,.T.);
#735=ADVANCED_FACE('',(#639),#687,.F.);
#736=ADVANCED_FACE('',(#640),#688,.F.);
#737=ADVANCED_FACE('',(#641),#689,.T.);
#738=ADVANCED_FACE('',(#642),#690,.F.);
#739=ADVANCED_FACE('',(#643),#691,.T.);
#740=ADVANCED_FACE('',(#644),#692,.T.);
#741=ADVANCED_FACE('',(#645),#693,.F.);
#742=ADVANCED_FACE('',(#646),#694,.F.);
#743=ADVANCED_FACE('',(#647),#695,.T.);
#744=ADVANCED_FACE('',(#648),#696,.T.);
#745=ADVANCED_FACE('',(#649),#697,.T.);
#746=ADVANCED_FACE('',(#650),#698,.F.);
#747=ADVANCED_FACE('',(#651),#699,.F.);
#748=ADVANCED_FACE('',(#652),#700,.T.);
#749=ADVANCED_FACE('',(#653),#701,.F.);
#750=ADVANCED_FACE('',(#654),#702,.T.);
#751=ADVANCED_FACE('',(#655),#703,.F.);
#752=ADVANCED_FACE('',(#656),#704,.F.);
#753=ADVANCED_FACE('',(#657),#705,.T.);
#754=ADVANCED_FACE('',(#658),#706,.T.);
#755=ADVANCED_FACE('',(#659),#707,.F.);
#756=ADVANCED_FACE('',(#660),#708,.T.);
#757=ADVANCED_FACE('',(#661),#709,.T.);
#758=ADVANCED_FACE('',(#662),#710,.F.);
#759=ADVANCED_FACE('',(#663),#711,.F.);
#760=ADVANCED_FACE('',(#664),#712,.T.);
#761=ADVANCED_FACE('',(#665),#713,.F.);
#762=CLOSED_SHELL('',(#714,#715,#716,#717,#718,#719));
#763=CLOSED_SHELL('',(#720,#721,#722,#723,#724,#725));
#764=CLOSED_SHELL('',(#726,#727,#728,#729,#730,#731));
#765=CLOSED_SHELL('',(#732,#733,#734,#735,#736,#737));
#766=CLOSED_SHELL('',(#738,#739,#740,#741,#742,#743));
#767=CLOSED_SHELL('',(#744,#745,#746,#747,#748,#749));
#768=CLOSED_SHELL('',(#750,#751,#752,#753,#754,#755));
#769=CLOSED_SHELL('',(#756,#757,#758,#759,#760,#761));
#770=STYLED_ITEM('',(#778),#834);
#771=STYLED_ITEM('',(#779),#835);
#772=STYLED_ITEM('',(#780),#836);
#773=STYLED_ITEM('',(#781),#837);
#774=STYLED_ITEM('',(#782),#838);
#775=STYLED_ITEM('',(#783),#839);
#776=STYLED_ITEM('',(#784),#840);
#777=STYLED_ITEM('',(#785),#841);
#778=PRESENTATION_STYLE_ASSIGNMENT((#786));
#779=PRESENTATION_STYLE_ASSIGNMENT((#787));
#780=PRESENTATION_STYLE_ASSIGNMENT((#788));
#781=PRESENTATION_STYLE_ASSIGNMENT((#789));
#782=PRESENTATION_STYLE_ASSIGNMENT((#790));
#783=PRESENTATION_STYLE_ASSIGNMENT((#791));
#784=PRESENTATION_STYLE_ASSIGNMENT((#792));
#785=PRESENTATION_STYLE_ASSIGNMENT((#793));
#786=SURFACE_STYLE_USAGE(.BOTH.,#794);
#787=SURFACE_STYLE_USAGE(.BOTH.,#795);
#788=SURFACE_STYLE_USAGE(.BOTH.,#796);
#789=SURFACE_STYLE_USAGE(.BOTH.,#797);
#790=SURFACE_STYLE_USAGE(.BOTH.,#798);
#791=SURFACE_STYLE_USAGE(.BOTH.,#799);
#792=SURFACE_STYLE_USAGE(.BOTH.,#800);
#793=SURFACE_STYLE_USAGE(.BOTH.,#801);
#794=SURFACE_SIDE_STYLE('',(#802));
#795=SURFACE_SIDE_STYLE('',(#803));
#796=SURFACE_SIDE_STYLE('',(#804));
#797=SURFACE_SIDE_STYLE('',(#805));
#798=SURFACE_SIDE_STYLE('',(#806));
#799=SURFACE_SIDE_STYLE('',(#807));
#800=SURFACE_SIDE_STYLE('',(#808));
#801=SURFACE_SIDE_STYLE('',(#809));
#802=SURFACE_STYLE_FILL_AREA(#810);
#803=SURFACE_STYLE_FILL_AREA(#811);
#804=SURFACE_STYLE_FILL_AREA(#812);
#805=SURFACE_STYLE_FILL_AREA(#813);
#806=SURFACE_STYLE_FILL_AREA(#814);
#807=SURFACE_STYLE_FILL_AREA(#815);
#808=SURFACE_STYLE_FILL_AREA(#816);
#809=SURFACE_STYLE_FILL_AREA(#817);
#810=FILL_AREA_STYLE('',(#818));
#811=FILL_AREA_STYLE('',(#819));
#812=FILL_AREA_STYLE('',(#820));
#813=FILL_AREA_STYLE('',(#821));
#814=FILL_AREA_STYLE('',(#822));
#815=FILL_AREA_STYLE('',(#823));
#816=FILL_AREA_STYLE('',(#824));
#817=FILL_AREA_STYLE('',(#825));
#818=FILL_AREA_STYLE_COLOUR('',#826);
#819=FILL_AREA_STYLE_COLOUR('',#827);
#820=FILL_AREA_STYLE_COLOUR('',#828);
#821=FILL_AREA_STYLE_COLOUR('',#829);
#822=FILL_AREA_STYLE_COLOUR('',#830);
#823=FILL_AREA_STYLE_COLOUR('',#831);
#824=FILL_AREA_STYLE_COLOUR('',#832);
#825=FILL_AREA_STYLE_COLOUR('',#833);
#826=COLOUR_RGB('',0.972549019607843,0.529411764705882,0.00392156862745098);
#827=COLOUR_RGB('',0.498039215686275,0.498039215686275,0.498039215686275);
#828=COLOUR_RGB('',0.917647058823529,0.917647058823529,0.917647058823529);
#829=COLOUR_RGB('',0.768627450980392,0.886274509803922,0.952941176470588);
#830=COLOUR_RGB('',0.647058823529412,0.647058823529412,0.647058823529412);
#831=COLOUR_RGB('',0.231372549019608,0.380392156862745,0.705882352941177);
#832=COLOUR_RGB('',0.615686274509804,0.811764705882353,0.929411764705882);
#833=COLOUR_RGB('',0.980392156862745,0.713725490196078,0.00392156862745098);
#834=MANIFOLD_SOLID_BREP('Part 6',#762);
#835=MANIFOLD_SOLID_BREP('Part 7',#763);
#836=MANIFOLD_SOLID_BREP('Part 4',#764);
#837=MANIFOLD_SOLID_BREP('Part 5',#765);
#838=MANIFOLD_SOLID_BREP('Part 2',#766);
#839=MANIFOLD_SOLID_BREP('Part 3',#767);
#840=MANIFOLD_SOLID_BREP('Part 1',#768);
#841=MANIFOLD_SOLID_BREP('Part 8',#769);
#842=SHAPE_DEFINITION_REPRESENTATION(#1386,#850);
#843=SHAPE_DEFINITION_REPRESENTATION(#1387,#851);
#844=SHAPE_DEFINITION_REPRESENTATION(#1388,#852);
#845=SHAPE_DEFINITION_REPRESENTATION(#1389,#853);
#846=SHAPE_DEFINITION_REPRESENTATION(#1390,#854);
#847=SHAPE_DEFINITION_REPRESENTATION(#1391,#855);
#848=SHAPE_DEFINITION_REPRESENTATION(#1392,#856);
#849=SHAPE_DEFINITION_REPRESENTATION(#1393,#857);
#850=SHAPE_REPRESENTATION('Part 6',(#858),#1346);
#851=SHAPE_REPRESENTATION('Part 7',(#865),#1347);
#852=SHAPE_REPRESENTATION('Part 4',(#872),#1348);
#853=SHAPE_REPRESENTATION('Part 5',(#879),#1349);
#854=SHAPE_REPRESENTATION('Part 2',(#886),#1350);
#855=SHAPE_REPRESENTATION('Part 3',(#893),#1351);
#856=SHAPE_REPRESENTATION('Part 1',(#900),#1352);
#857=SHAPE_REPRESENTATION('Part 8',(#907),#1353);
#858=AXIS2_PLACEMENT_3D('',#1122,#914,#915);
#859=AXIS2_PLACEMENT_3D('',#1123,#916,#917);
#860=AXIS2_PLACEMENT_3D('',#1132,#922,#923);
#861=AXIS2_PLACEMENT_3D('',#1138,#927,#928);
#862=AXIS2_PLACEMENT_3D('',#1144,#932,#933);
#863=AXIS2_PLACEMENT_3D('',#1147,#936,#937);
#864=AXIS2_PLACEMENT_3D('',#1148,#938,#939);
#865=AXIS2_PLACEMENT_3D('',#1149,#940,#941);
#866=AXIS2_PLACEMENT_3D('',#1150,#942,#943);
#867=AXIS2_PLACEMENT_3D('',#1159,#948,#949);
#868=AXIS2_PLACEMENT_3D('',#1165,#953,#954);
#869=AXIS2_PLACEMENT_3D('',#1171,#958,#959);
#870=AXIS2_PLACEMENT_3D('',#1174,#962,#963);
#871=AXIS2_PLACEMENT_3D('',#1175,#964,#965);
#872=AXIS2_PLACEMENT_3D('',#1176,#966,#967);
#873=AXIS2_PLACEMENT_3D('',#1177,#968,#969);
#874=AXIS2_PLACEMENT_3D('',#1186,#974,#975);
#875=AXIS2_PLACEMENT_3D('',#1192,#979,#980);
#876=AXIS2_PLACEMENT_3D('',#1198,#984,#985);
#877=AXIS2_PLACEMENT_3D('',#1201,#988,#989);
#878=AXIS2_PLACEMENT_3D('',#1202,#990,#991);
#879=AXIS2_PLACEMENT_3D('',#1203,#992,#993);
#880=AXIS2_PLACEMENT_3D('',#1204,#994,#995);
#881=AXIS2_PLACEMENT_3D('',#1213,#1000,#1001);
#882=AXIS2_PLACEMENT_3D('',#1219,#1005,#1006);
#883=AXIS2_PLACEMENT_3D('',#1225,#1010,#1011);
#884=AXIS2_PLACEMENT_3D('',#1228,#1014,#1015);
#885=AXIS2_PLACEMENT_3D('',#1229,#1016,#1017);
#886=AXIS2_PLACEMENT_3D('',#1230,#1018,#1019);
#887=AXIS2_PLACEMENT_3D('',#1231,#1020,#1021);
#888=AXIS2_PLACEMENT_3D('',#1240,#1026,#1027);
#889=AXIS2_PLACEMENT_3D('',#1246,#1031,#1032);
#890=AXIS2_PLACEMENT_3D('',#1252,#1036,#1037);
#891=AXIS2_PLACEMENT_3D('',#1255,#1040,#1041);
#892=AXIS2_PLACEMENT_3D('',#1256,#1042,#1043);
#893=AXIS2_PLACEMENT_3D('',#1257,#1044,#1045);
#894=AXIS2_PLACEMENT_3D('',#1258,#1046,#1047);
#895=AXIS2_PLACEMENT_3D('',#1267,#1052,#1053);
#896=AXIS2_PLACEMENT_3D('',#1273,#1057,#1058);
#897=AXIS2_PLACEMENT_3D('',#1279,#1062,#1063);
#898=AXIS2_PLACEMENT_3D('',#1282,#1066,#1067);
#899=AXIS2_PLACEMENT_3D('',#1283,#1068,#1069);
#900=AXIS2_PLACEMENT_3D('',#1284,#1070,#1071);
#901=AXIS2_PLACEMENT_3D('',#1285,#1072,#1073);
#902=AXIS2_PLACEMENT_3D('',#1294,#1078,#1079);
#903=AXIS2_PLACEMENT_3D('',#1300,#1083,#1084);
#904=AXIS2_PLACEMENT_3D('',#1306,#1088,#1089);
#905=AXIS2_PLACEMENT_3D('',#1309,#1092,#1093);
#906=AXIS2_PLACEMENT_3D('',#1310,#1094,#1095);
#907=AXIS2_PLACEMENT_3D('',#1311,#1096,#1097);
#908=AXIS2_PLACEMENT_3D('',#1312,#1098,#1099);
#909=AXIS2_PLACEMENT_3D('',#1321,#1104,#1105);
#910=AXIS2_PLACEMENT_3D('',#1327,#1109,#1110);
#911=AXIS2_PLACEMENT_3D('',#1333,#1114,#1115);
#912=AXIS2_PLACEMENT_3D('',#1336,#1118,#1119);
#913=AXIS2_PLACEMENT_3D('',#1337,#1120,#1121);
#914=DIRECTION('',(0.,0.,1.));
#915=DIRECTION('',(1.,0.,0.));
#916=DIRECTION('',(-1.,0.,0.));
#917=DIRECTION('',(0.,0.,1.));
#918=DIRECTION('',(0.,-1.,-1.38777878078145E-16));
#919=DIRECTION('',(0.,-1.38777878078145E-16,1.));
#920=DIRECTION('',(0.,-1.,-1.38777878078145E-16));
#921=DIRECTION('',(0.,-1.38777878078145E-16,1.));
#922=DIRECTION('',(0.,1.,1.38777878078145E-16));
#923=DIRECTION('',(0.,-1.38777878078145E-16,1.));
#924=DIRECTION('',(-1.,0.,0.));
#925=DIRECTION('',(0.,-1.38777878078145E-16,1.));
#926=DIRECTION('',(-1.,0.,0.));
#927=DIRECTION('',(-1.,0.,0.));
#928=DIRECTION('',(0.,0.,1.));
#929=DIRECTION('',(0.,-1.,-1.38777878078145E-16));
#930=DIRECTION('',(0.,-1.38777878078145E-16,1.));
#931=DIRECTION('',(0.,-1.,-1.38777878078145E-16));
#932=DIRECTION('',(0.,1.,1.38777878078145E-16));
#933=DIRECTION('',(0.,-1.38777878078145E-16,1.));
#934=DIRECTION('',(-1.,0.,0.));
#935=DIRECTION('',(-1.,0.,0.));
#936=DIRECTION('',(0.,1.38777878078145E-16,-1.));
#937=DIRECTION('',(0.,1.,1.38777878078145E-16));
#938=DIRECTION('',(0.,1.38777878078145E-16,-1.));
#939=DIRECTION('',(0.,1.,1.38777878078145E-16));
#940=DIRECTION('',(0.,0.,1.));
#941=DIRECTION('',(1.,0.,0.));
#942=DIRECTION('',(0.,-1.38777878078145E-16,1.));
#943=DIRECTION('',(0.,-1.,-1.38777878078145E-16));
#944=DIRECTION('',(0.,-1.,-1.38777878078145E-16));
#945=DIRECTION('',(1.,0.,0.));
#946=DIRECTION('',(0.,-1.,-1.38777878078145E-16));
#947=DIRECTION('',(1.,0.,0.));
#948=DIRECTION('',(0.,1.,-6.93889390390723E-17));
#949=DIRECTION('',(0.,6.93889390390723E-17,1.));
#950=DIRECTION('',(0.,6.93889390390723E-17,1.));
#951=DIRECTION('',(1.,0.,0.));
#952=DIRECTION('',(0.,6.93889390390723E-17,1.));
#953=DIRECTION('',(0.,-1.38777878078145E-16,1.));
#954=DIRECTION('',(0.,-1.,-1.38777878078145E-16));
#955=DIRECTION('',(0.,-1.,-1.38777878078145E-16));
#956=DIRECTION('',(1.,0.,0.));
#957=DIRECTION('',(0.,-1.,-1.38777878078145E-16));
#958=DIRECTION('',(0.,1.,-6.93889390390723E-17));
#959=DIRECTION('',(0.,6.93889390390723E-17,1.));
#960=DIRECTION('',(0.,6.93889390390723E-17,1.));
#961=DIRECTION('',(0.,6.93889390390723E-17,1.));
#962=DIRECTION('',(1.,0.,0.));
#963=DIRECTION('',(0.,1.,0.));
#964=DIRECTION('',(1.,0.,0.));
#965=DIRECTION('',(0.,1.,0.));
#966=DIRECTION('',(0.,0.,1.));
#967=DIRECTION('',(1.,0.,0.));
#968=DIRECTION('',(0.,1.38777878078145E-16,-1.));
#969=DIRECTION('',(0.,1.,1.38777878078145E-16));
#970=DIRECTION('',(0.,-1.,-1.38777878078145E-16));
#971=DIRECTION('',(-1.,0.,0.));
#972=DIRECTION('',(0.,-1.,-1.38777878078145E-16));
#973=DIRECTION('',(-1.,0.,0.));
#974=DIRECTION('',(0.,-1.,6.93889390390723E-17));
#975=DIRECTION('',(0.,-6.93889390390723E-17,-1.));
#976=DIRECTION('',(0.,6.93889390390723E-17,1.));
#977=DIRECTION('',(-1.,0.,0.));
#978=DIRECTION('',(0.,6.93889390390723E-17,1.));
#979=DIRECTION('',(0.,1.38777878078145E-16,-1.));
#980=DIRECTION('',(0.,1.,1.38777878078145E-16));
#981=DIRECTION('',(0.,-1.,-1.38777878078145E-16));
#982=DIRECTION('',(-1.,0.,0.));
#983=DIRECTION('',(0.,-1.,-1.38777878078145E-16));
#984=DIRECTION('',(0.,-1.,6.93889390390723E-17));
#985=DIRECTION('',(0.,-6.93889390390723E-17,-1.));
#986=DIRECTION('',(0.,6.93889390390723E-17,1.));
#987=DIRECTION('',(0.,6.93889390390723E-17,1.));
#988=DIRECTION('',(1.,0.,0.));
#989=DIRECTION('',(0.,1.,0.));
#990=DIRECTION('',(1.,0.,0.));
#991=DIRECTION('',(0.,1.,0.));
#992=DIRECTION('',(0.,0.,1.));
#993=DIRECTION('',(1.,0.,0.));
#994=DIRECTION('',(1.,0.,0.));
#995=DIRECTION('',(0.,0.,-1.));
#996=DIRECTION('',(0.,6.93889390390723E-17,1.));
#997=DIRECTION('',(0.,-1.,6.93889390390723E-17));
#998=DIRECTION('',(0.,6.93889390390723E-17,1.));
#999=DIRECTION('',(0.,-1.,6.93889390390723E-17));
#1000=DIRECTION('',(0.,6.93889390390723E-17,1.));
#1001=DIRECTION('',(0.,-1.,6.93889390390723E-17));
#1002=DIRECTION('',(-1.,0.,0.));
#1003=DIRECTION('',(0.,-1.,6.93889390390723E-17));
#1004=DIRECTION('',(-1.,0.,0.));
#1005=DIRECTION('',(1.,0.,0.));
#1006=DIRECTION('',(0.,0.,-1.));
#1007=DIRECTION('',(0.,6.93889390390723E-17,1.));
#1008=DIRECTION('',(0.,-1.,6.93889390390723E-17));
#1009=DIRECTION('',(0.,6.93889390390723E-17,1.));
#1010=DIRECTION('',(0.,6.93889390390723E-17,1.));
#1011=DIRECTION('',(0.,-1.,6.93889390390723E-17));
#1012=DIRECTION('',(-1.,0.,0.));
#1013=DIRECTION('',(-1.,0.,0.));
#1014=DIRECTION('',(0.,-1.,6.93889390390723E-17));
#1015=DIRECTION('',(0.,-6.93889390390723E-17,-1.));
#1016=DIRECTION('',(0.,-1.,6.93889390390723E-17));
#1017=DIRECTION('',(0.,-6.93889390390723E-17,-1.));
#1018=DIRECTION('',(0.,0.,1.));
#1019=DIRECTION('',(1.,0.,0.));
#1020=DIRECTION('',(1.,0.,0.));
#1021=DIRECTION('',(0.,0.,-1.));
#1022=DIRECTION('',(0.,-1.,-1.38777878078145E-16));
#1023=DIRECTION('',(0.,1.38777878078145E-16,-1.));
#1024=DIRECTION('',(0.,-1.,-1.38777878078145E-16));
#1025=DIRECTION('',(0.,1.38777878078145E-16,-1.));
#1026=DIRECTION('',(0.,-1.,-1.38777878078145E-16));
#1027=DIRECTION('',(0.,1.38777878078145E-16,-1.));
#1028=DIRECTION('',(-1.,0.,0.));
#1029=DIRECTION('',(0.,1.38777878078145E-16,-1.));
#1030=DIRECTION('',(-1.,0.,0.));
#1031=DIRECTION('',(1.,0.,0.));
#1032=DIRECTION('',(0.,0.,-1.));
#1033=DIRECTION('',(0.,-1.,-1.38777878078145E-16));
#1034=DIRECTION('',(0.,1.38777878078145E-16,-1.));
#1035=DIRECTION('',(0.,-1.,-1.38777878078145E-16));
#1036=DIRECTION('',(0.,-1.,-1.38777878078145E-16));
#1037=DIRECTION('',(0.,1.38777878078145E-16,-1.));
#1038=DIRECTION('',(-1.,0.,0.));
#1039=DIRECTION('',(-1.,0.,0.));
#1040=DIRECTION('',(0.,1.38777878078145E-16,-1.));
#1041=DIRECTION('',(0.,1.,1.38777878078145E-16));
#1042=DIRECTION('',(0.,1.38777878078145E-16,-1.));
#1043=DIRECTION('',(0.,1.,1.38777878078145E-16));
#1044=DIRECTION('',(0.,0.,1.));
#1045=DIRECTION('',(1.,0.,0.));
#1046=DIRECTION('',(-1.,0.,0.));
#1047=DIRECTION('',(0.,0.,1.));
#1048=DIRECTION('',(0.,6.93889390390723E-17,1.));
#1049=DIRECTION('',(0.,1.,-6.93889390390723E-17));
#1050=DIRECTION('',(0.,6.93889390390723E-17,1.));
#1051=DIRECTION('',(0.,1.,-6.93889390390723E-17));
#1052=DIRECTION('',(0.,-6.93889390390723E-17,-1.));
#1053=DIRECTION('',(0.,1.,-6.93889390390723E-17));
#1054=DIRECTION('',(-1.,0.,0.));
#1055=DIRECTION('',(0.,1.,-6.93889390390723E-17));
#1056=DIRECTION('',(-1.,0.,0.));
#1057=DIRECTION('',(-1.,0.,0.));
#1058=DIRECTION('',(0.,0.,1.));
#1059=DIRECTION('',(0.,6.93889390390723E-17,1.));
#1060=DIRECTION('',(0.,1.,-6.93889390390723E-17));
#1061=DIRECTION('',(0.,6.93889390390723E-17,1.));
#1062=DIRECTION('',(0.,-6.93889390390723E-17,-1.));
#1063=DIRECTION('',(0.,1.,-6.93889390390723E-17));
#1064=DIRECTION('',(-1.,0.,0.));
#1065=DIRECTION('',(-1.,0.,0.));
#1066=DIRECTION('',(0.,-1.,6.93889390390723E-17));
#1067=DIRECTION('',(0.,-6.93889390390723E-17,-1.));
#1068=DIRECTION('',(0.,-1.,6.93889390390723E-17));
#1069=DIRECTION('',(0.,-6.93889390390723E-17,-1.));
#1070=DIRECTION('',(0.,0.,1.));
#1071=DIRECTION('',(1.,0.,0.));
#1072=DIRECTION('',(0.,1.38777878078145E-16,-1.));
#1073=DIRECTION('',(0.,1.,1.38777878078145E-16));
#1074=DIRECTION('',(0.,-1.,-1.38777878078145E-16));
#1075=DIRECTION('',(-1.,0.,0.));
#1076=DIRECTION('',(0.,-1.,-1.38777878078145E-16));
#1077=DIRECTION('',(-1.,0.,0.));
#1078=DIRECTION('',(0.,-1.,6.93889390390723E-17));
#1079=DIRECTION('',(0.,-6.93889390390723E-17,-1.));
#1080=DIRECTION('',(0.,6.93889390390723E-17,1.));
#1081=DIRECTION('',(-1.,0.,0.));
#1082=DIRECTION('',(0.,6.93889390390723E-17,1.));
#1083=DIRECTION('',(0.,1.38777878078145E-16,-1.));
#1084=DIRECTION('',(0.,1.,1.38777878078145E-16));
#1085=DIRECTION('',(0.,-1.,-1.38777878078145E-16));
#1086=DIRECTION('',(-1.,0.,0.));
#1087=DIRECTION('',(0.,-1.,-1.38777878078145E-16));
#1088=DIRECTION('',(0.,-1.,6.93889390390723E-17));
#1089=DIRECTION('',(0.,-6.93889390390723E-17,-1.));
#1090=DIRECTION('',(0.,6.93889390390723E-17,1.));
#1091=DIRECTION('',(0.,6.93889390390723E-17,1.));
#1092=DIRECTION('',(1.,0.,0.));
#1093=DIRECTION('',(0.,1.,0.));
#1094=DIRECTION('',(1.,0.,0.));
#1095=DIRECTION('',(0.,1.,0.));
#1096=DIRECTION('',(0.,0.,1.));
#1097=DIRECTION('',(1.,0.,0.));
#1098=DIRECTION('',(-1.,0.,0.));
#1099=DIRECTION('',(0.,0.,1.));
#1100=DIRECTION('',(0.,-1.,-1.38777878078145E-16));
#1101=DIRECTION('',(0.,-1.38777878078145E-16,1.));
#1102=DIRECTION('',(0.,-1.,-1.38777878078145E-16));
#1103=DIRECTION('',(0.,-1.38777878078145E-16,1.));
#1104=DIRECTION('',(0.,1.,1.38777878078145E-16));
#1105=DIRECTION('',(0.,-1.38777878078145E-16,1.));
#1106=DIRECTION('',(-1.,0.,0.));
#1107=DIRECTION('',(0.,-1.38777878078145E-16,1.));
#1108=DIRECTION('',(-1.,0.,0.));
#1109=DIRECTION('',(-1.,0.,0.));
#1110=DIRECTION('',(0.,0.,1.));
#1111=DIRECTION('',(0.,-1.,-1.38777878078145E-16));
#1112=DIRECTION('',(0.,-1.38777878078145E-16,1.));
#1113=DIRECTION('',(0.,-1.,-1.38777878078145E-16));
#1114=DIRECTION('',(0.,1.,1.38777878078145E-16));
#1115=DIRECTION('',(0.,-1.38777878078145E-16,1.));
#1116=DIRECTION('',(-1.,0.,0.));
#1117=DIRECTION('',(-1.,0.,0.));
#1118=DIRECTION('',(0.,1.38777878078145E-16,-1.));
#1119=DIRECTION('',(0.,1.,1.38777878078145E-16));
#1120=DIRECTION('',(0.,1.38777878078145E-16,-1.));
#1121=DIRECTION('',(0.,1.,1.38777878078145E-16));
#1122=CARTESIAN_POINT('',(0.,0.,0.));
#1123=CARTESIAN_POINT('',(0.,1.38777878078145E-17,-0.15));
#1124=CARTESIAN_POINT('',(0.,0.,-0.05));
#1125=CARTESIAN_POINT('',(0.,0.05,-0.05));
#1126=CARTESIAN_POINT('',(0.,-0.05,-0.05));
#1127=CARTESIAN_POINT('',(0.,0.05,-0.15));
#1128=CARTESIAN_POINT('',(0.,0.05,-0.15));
#1129=CARTESIAN_POINT('',(0.,1.38777878078145E-17,-0.15));
#1130=CARTESIAN_POINT('',(0.,-0.05,-0.15));
#1131=CARTESIAN_POINT('',(0.,-0.05,-0.15));
#1132=CARTESIAN_POINT('',(0.1,0.05,-0.15));
#1133=CARTESIAN_POINT('',(0.1,0.05,-0.05));
#1134=CARTESIAN_POINT('',(0.1,0.05,-0.05));
#1135=CARTESIAN_POINT('',(0.1,0.05,-0.15));
#1136=CARTESIAN_POINT('',(0.1,0.05,-0.15));
#1137=CARTESIAN_POINT('',(0.1,0.05,-0.15));
#1138=CARTESIAN_POINT('',(0.1,1.38777878078145E-17,-0.15));
#1139=CARTESIAN_POINT('',(0.1,0.,-0.05));
#1140=CARTESIAN_POINT('',(0.1,-0.05,-0.05));
#1141=CARTESIAN_POINT('',(0.1,-0.05,-0.15));
#1142=CARTESIAN_POINT('',(0.1,-0.05,-0.15));
#1143=CARTESIAN_POINT('',(0.1,1.38777878078145E-17,-0.15));
#1144=CARTESIAN_POINT('',(0.1,-0.05,-0.15));
#1145=CARTESIAN_POINT('',(0.1,-0.05,-0.05));
#1146=CARTESIAN_POINT('',(0.1,-0.05,-0.15));
#1147=CARTESIAN_POINT('',(0.1,1.38777878078145E-17,-0.15));
#1148=CARTESIAN_POINT('',(0.1,0.,-0.05));
#1149=CARTESIAN_POINT('',(0.,0.,0.));
#1150=CARTESIAN_POINT('',(-0.1,0.,-0.05));
#1151=CARTESIAN_POINT('',(0.,0.,-0.05));
#1152=CARTESIAN_POINT('',(0.,0.05,-0.05));
#1153=CARTESIAN_POINT('',(0.,-0.05,-0.05));
#1154=CARTESIAN_POINT('',(-0.1,-0.05,-0.05));
#1155=CARTESIAN_POINT('',(-0.1,-0.05,-0.05));
#1156=CARTESIAN_POINT('',(-0.1,0.,-0.05));
#1157=CARTESIAN_POINT('',(-0.1,0.05,-0.05));
#1158=CARTESIAN_POINT('',(-0.1,0.05,-0.05));
#1159=CARTESIAN_POINT('',(-0.1,-0.05,0.));
#1160=CARTESIAN_POINT('',(0.,-0.05,0.));
#1161=CARTESIAN_POINT('',(0.,-0.05,0.05));
#1162=CARTESIAN_POINT('',(-0.1,-0.05,0.05));
#1163=CARTESIAN_POINT('',(-0.1,-0.05,0.05));
#1164=CARTESIAN_POINT('',(-0.1,-0.05,0.));
#1165=CARTESIAN_POINT('',(-0.1,6.93889390390723E-18,0.05));
#1166=CARTESIAN_POINT('',(0.,6.93889390390723E-18,0.05));
#1167=CARTESIAN_POINT('',(0.,0.05,0.05));
#1168=CARTESIAN_POINT('',(-0.1,0.05,0.05));
#1169=CARTESIAN_POINT('',(-0.1,0.05,0.05));
#1170=CARTESIAN_POINT('',(-0.1,6.93889390390723E-18,0.05));
#1171=CARTESIAN_POINT('',(-0.1,0.05,6.93889390390723E-18));
#1172=CARTESIAN_POINT('',(0.,0.05,6.93889390390723E-18));
#1173=CARTESIAN_POINT('',(-0.1,0.05,6.93889390390723E-18));
#1174=CARTESIAN_POINT('',(-0.1,0.,0.));
#1175=CARTESIAN_POINT('',(0.,0.,0.));
#1176=CARTESIAN_POINT('',(0.,0.,0.));
#1177=CARTESIAN_POINT('',(0.2,0.,-0.05));
#1178=CARTESIAN_POINT('',(0.1,0.,-0.05));
#1179=CARTESIAN_POINT('',(0.1,0.05,-0.05));
#1180=CARTESIAN_POINT('',(0.1,-0.05,-0.05));
#1181=CARTESIAN_POINT('',(0.2,0.05,-0.05));
#1182=CARTESIAN_POINT('',(0.2,0.05,-0.05));
#1183=CARTESIAN_POINT('',(0.2,0.,-0.05));
#1184=CARTESIAN_POINT('',(0.2,-0.05,-0.05));
#1185=CARTESIAN_POINT('',(0.2,-0.05,-0.05));
#1186=CARTESIAN_POINT('',(0.2,0.05,6.93889390390723E-18));
#1187=CARTESIAN_POINT('',(0.1,0.05,6.93889390390723E-18));
#1188=CARTESIAN_POINT('',(0.1,0.05,0.05));
#1189=CARTESIAN_POINT('',(0.2,0.05,0.05));
#1190=CARTESIAN_POINT('',(0.2,0.05,0.05));
#1191=CARTESIAN_POINT('',(0.2,0.05,6.93889390390723E-18));
#1192=CARTESIAN_POINT('',(0.2,6.93889390390723E-18,0.05));
#1193=CARTESIAN_POINT('',(0.1,6.93889390390723E-18,0.05));
#1194=CARTESIAN_POINT('',(0.1,-0.05,0.05));
#1195=CARTESIAN_POINT('',(0.2,-0.05,0.05));
#1196=CARTESIAN_POINT('',(0.2,-0.05,0.05));
#1197=CARTESIAN_POINT('',(0.2,6.93889390390723E-18,0.05));
#1198=CARTESIAN_POINT('',(0.2,-0.05,0.));
#1199=CARTESIAN_POINT('',(0.1,-0.05,0.));
#1200=CARTESIAN_POINT('',(0.2,-0.05,0.));
#1201=CARTESIAN_POINT('',(0.2,0.,0.));
#1202=CARTESIAN_POINT('',(0.1,0.,0.));
#1203=CARTESIAN_POINT('',(0.,0.,0.));
#1204=CARTESIAN_POINT('',(0.,0.15,-1.54074395550979E-33));
#1205=CARTESIAN_POINT('',(0.,0.05,6.93889390390723E-18));
#1206=CARTESIAN_POINT('',(0.,0.05,-0.05));
#1207=CARTESIAN_POINT('',(0.,0.05,0.05));
#1208=CARTESIAN_POINT('',(0.,0.15,0.05));
#1209=CARTESIAN_POINT('',(0.,0.15,0.05));
#1210=CARTESIAN_POINT('',(0.,0.15,-1.54074395550979E-33));
#1211=CARTESIAN_POINT('',(0.,0.15,-0.05));
#1212=CARTESIAN_POINT('',(0.,0.15,-0.05));
#1213=CARTESIAN_POINT('',(0.1,0.15,0.05));
#1214=CARTESIAN_POINT('',(0.1,0.05,0.05));
#1215=CARTESIAN_POINT('',(0.1,0.05,0.05));
#1216=CARTESIAN_POINT('',(0.1,0.15,0.05));
#1217=CARTESIAN_POINT('',(0.1,0.15,0.05));
#1218=CARTESIAN_POINT('',(0.1,0.15,0.05));
#1219=CARTESIAN_POINT('',(0.1,0.15,-1.54074395550979E-33));
#1220=CARTESIAN_POINT('',(0.1,0.05,6.93889390390723E-18));
#1221=CARTESIAN_POINT('',(0.1,0.05,-0.05));
#1222=CARTESIAN_POINT('',(0.1,0.15,-0.05));
#1223=CARTESIAN_POINT('',(0.1,0.15,-0.05));
#1224=CARTESIAN_POINT('',(0.1,0.15,-1.54074395550979E-33));
#1225=CARTESIAN_POINT('',(0.1,0.15,-0.05));
#1226=CARTESIAN_POINT('',(0.1,0.05,-0.05));
#1227=CARTESIAN_POINT('',(0.1,0.15,-0.05));
#1228=CARTESIAN_POINT('',(0.1,0.15,-1.54074395550979E-33));
#1229=CARTESIAN_POINT('',(0.1,0.05,6.93889390390723E-18));
#1230=CARTESIAN_POINT('',(0.,0.,0.));
#1231=CARTESIAN_POINT('',(0.,-6.93889390390723E-18,0.15));
#1232=CARTESIAN_POINT('',(0.,6.93889390390723E-18,0.05));
#1233=CARTESIAN_POINT('',(0.,0.05,0.05));
#1234=CARTESIAN_POINT('',(0.,-0.05,0.05));
#1235=CARTESIAN_POINT('',(0.,-0.05,0.15));
#1236=CARTESIAN_POINT('',(0.,-0.05,0.15));
#1237=CARTESIAN_POINT('',(0.,-6.93889390390723E-18,0.15));
#1238=CARTESIAN_POINT('',(0.,0.05,0.15));
#1239=CARTESIAN_POINT('',(0.,0.05,0.15));
#1240=CARTESIAN_POINT('',(0.1,-0.05,0.15));
#1241=CARTESIAN_POINT('',(0.1,-0.05,0.05));
#1242=CARTESIAN_POINT('',(0.1,-0.05,0.05));
#1243=CARTESIAN_POINT('',(0.1,-0.05,0.15));
#1244=CARTESIAN_POINT('',(0.1,-0.05,0.15));
#1245=CARTESIAN_POINT('',(0.1,-0.05,0.15));
#1246=CARTESIAN_POINT('',(0.1,-6.93889390390723E-18,0.15));
#1247=CARTESIAN_POINT('',(0.1,6.93889390390723E-18,0.05));
#1248=CARTESIAN_POINT('',(0.1,0.05,0.05));
#1249=CARTESIAN_POINT('',(0.1,0.05,0.15));
#1250=CARTESIAN_POINT('',(0.1,0.05,0.15));
#1251=CARTESIAN_POINT('',(0.1,-6.93889390390723E-18,0.15));
#1252=CARTESIAN_POINT('',(0.1,0.05,0.15));
#1253=CARTESIAN_POINT('',(0.1,0.05,0.05));
#1254=CARTESIAN_POINT('',(0.1,0.05,0.15));
#1255=CARTESIAN_POINT('',(0.1,-6.93889390390723E-18,0.15));
#1256=CARTESIAN_POINT('',(0.1,6.93889390390723E-18,0.05));
#1257=CARTESIAN_POINT('',(0.,0.,0.));
#1258=CARTESIAN_POINT('',(0.,-0.15,6.93889390390723E-18));
#1259=CARTESIAN_POINT('',(0.,-0.05,0.));
#1260=CARTESIAN_POINT('',(0.,-0.05,-0.05));
#1261=CARTESIAN_POINT('',(0.,-0.05,0.05));
#1262=CARTESIAN_POINT('',(0.,-0.15,-0.05));
#1263=CARTESIAN_POINT('',(0.,-0.15,-0.05));
#1264=CARTESIAN_POINT('',(0.,-0.15,6.93889390390723E-18));
#1265=CARTESIAN_POINT('',(0.,-0.15,0.05));
#1266=CARTESIAN_POINT('',(0.,-0.15,0.05));
#1267=CARTESIAN_POINT('',(0.1,-0.15,-0.05));
#1268=CARTESIAN_POINT('',(0.1,-0.05,-0.05));
#1269=CARTESIAN_POINT('',(0.1,-0.05,-0.05));
#1270=CARTESIAN_POINT('',(0.1,-0.15,-0.05));
#1271=CARTESIAN_POINT('',(0.1,-0.15,-0.05));
#1272=CARTESIAN_POINT('',(0.1,-0.15,-0.05));
#1273=CARTESIAN_POINT('',(0.1,-0.15,6.93889390390723E-18));
#1274=CARTESIAN_POINT('',(0.1,-0.05,0.));
#1275=CARTESIAN_POINT('',(0.1,-0.05,0.05));
#1276=CARTESIAN_POINT('',(0.1,-0.15,0.05));
#1277=CARTESIAN_POINT('',(0.1,-0.15,0.05));
#1278=CARTESIAN_POINT('',(0.1,-0.15,6.93889390390723E-18));
#1279=CARTESIAN_POINT('',(0.1,-0.15,0.05));
#1280=CARTESIAN_POINT('',(0.1,-0.05,0.05));
#1281=CARTESIAN_POINT('',(0.1,-0.15,0.05));
#1282=CARTESIAN_POINT('',(0.1,-0.15,6.93889390390723E-18));
#1283=CARTESIAN_POINT('',(0.1,-0.05,0.));
#1284=CARTESIAN_POINT('',(0.,0.,0.));
#1285=CARTESIAN_POINT('',(0.1,0.,-0.05));
#1286=CARTESIAN_POINT('',(0.,0.,-0.05));
#1287=CARTESIAN_POINT('',(0.,0.05,-0.05));
#1288=CARTESIAN_POINT('',(0.,-0.05,-0.05));
#1289=CARTESIAN_POINT('',(0.1,0.05,-0.05));
#1290=CARTESIAN_POINT('',(0.1,0.05,-0.05));
#1291=CARTESIAN_POINT('',(0.1,0.,-0.05));
#1292=CARTESIAN_POINT('',(0.1,-0.05,-0.05));
#1293=CARTESIAN_POINT('',(0.1,-0.05,-0.05));
#1294=CARTESIAN_POINT('',(0.1,0.05,6.93889390390723E-18));
#1295=CARTESIAN_POINT('',(0.,0.05,6.93889390390723E-18));
#1296=CARTESIAN_POINT('',(0.,0.05,0.05));
#1297=CARTESIAN_POINT('',(0.1,0.05,0.05));
#1298=CARTESIAN_POINT('',(0.1,0.05,0.05));
#1299=CARTESIAN_POINT('',(0.1,0.05,6.93889390390723E-18));
#1300=CARTESIAN_POINT('',(0.1,6.93889390390723E-18,0.05));
#1301=CARTESIAN_POINT('',(0.,6.93889390390723E-18,0.05));
#1302=CARTESIAN_POINT('',(0.,-0.05,0.05));
#1303=CARTESIAN_POINT('',(0.1,-0.05,0.05));
#1304=CARTESIAN_POINT('',(0.1,-0.05,0.05));
#1305=CARTESIAN_POINT('',(0.1,6.93889390390723E-18,0.05));
#1306=CARTESIAN_POINT('',(0.1,-0.05,0.));
#1307=CARTESIAN_POINT('',(0.,-0.05,0.));
#1308=CARTESIAN_POINT('',(0.1,-0.05,0.));
#1309=CARTESIAN_POINT('',(0.1,0.,0.));
#1310=CARTESIAN_POINT('',(0.,0.,0.));
#1311=CARTESIAN_POINT('',(0.,0.,0.));
#1312=CARTESIAN_POINT('',(0.,2.77555756156289E-17,-0.25));
#1313=CARTESIAN_POINT('',(0.,1.38777878078145E-17,-0.15));
#1314=CARTESIAN_POINT('',(0.,0.05,-0.15));
#1315=CARTESIAN_POINT('',(0.,-0.05,-0.15));
#1316=CARTESIAN_POINT('',(0.,0.05,-0.25));
#1317=CARTESIAN_POINT('',(0.,0.05,-0.25));
#1318=CARTESIAN_POINT('',(0.,2.77555756156289E-17,-0.25));
#1319=CARTESIAN_POINT('',(0.,-0.05,-0.25));
#1320=CARTESIAN_POINT('',(0.,-0.05,-0.25));
#1321=CARTESIAN_POINT('',(0.1,0.05,-0.25));
#1322=CARTESIAN_POINT('',(0.1,0.05,-0.15));
#1323=CARTESIAN_POINT('',(0.1,0.05,-0.15));
#1324=CARTESIAN_POINT('',(0.1,0.05,-0.25));
#1325=CARTESIAN_POINT('',(0.1,0.05,-0.25));
#1326=CARTESIAN_POINT('',(0.1,0.05,-0.25));
#1327=CARTESIAN_POINT('',(0.1,2.77555756156289E-17,-0.25));
#1328=CARTESIAN_POINT('',(0.1,1.38777878078145E-17,-0.15));
#1329=CARTESIAN_POINT('',(0.1,-0.05,-0.15));
#1330=CARTESIAN_POINT('',(0.1,-0.05,-0.25));
#1331=CARTESIAN_POINT('',(0.1,-0.05,-0.25));
#1332=CARTESIAN_POINT('',(0.1,2.77555756156289E-17,-0.25));
#1333=CARTESIAN_POINT('',(0.1,-0.05,-0.25));
#1334=CARTESIAN_POINT('',(0.1,-0.05,-0.15));
#1335=CARTESIAN_POINT('',(0.1,-0.05,-0.25));
#1336=CARTESIAN_POINT('',(0.1,2.77555756156289E-17,-0.25));
#1337=CARTESIAN_POINT('',(0.1,1.38777878078145E-17,-0.15));
#1338=MECHANICAL_DESIGN_GEOMETRIC_PRESENTATION_REPRESENTATION('',(#770),
#1346);
#1339=MECHANICAL_DESIGN_GEOMETRIC_PRESENTATION_REPRESENTATION('',(#771),
#1347);
#1340=MECHANICAL_DESIGN_GEOMETRIC_PRESENTATION_REPRESENTATION('',(#772),
#1348);
#1341=MECHANICAL_DESIGN_GEOMETRIC_PRESENTATION_REPRESENTATION('',(#773),
#1349);
#1342=MECHANICAL_DESIGN_GEOMETRIC_PRESENTATION_REPRESENTATION('',(#774),
#1350);
#1343=MECHANICAL_DESIGN_GEOMETRIC_PRESENTATION_REPRESENTATION('',(#775),
#1351);
#1344=MECHANICAL_DESIGN_GEOMETRIC_PRESENTATION_REPRESENTATION('',(#776),
#1352);
#1345=MECHANICAL_DESIGN_GEOMETRIC_PRESENTATION_REPRESENTATION('',(#777),
#1353);
#1346=(
GEOMETRIC_REPRESENTATION_CONTEXT(3)
GLOBAL_UNCERTAINTY_ASSIGNED_CONTEXT((#1354))
GLOBAL_UNIT_ASSIGNED_CONTEXT((#1378,#1370,#1362))
REPRESENTATION_CONTEXT('Part 6','TOP_LEVEL_ASSEMBLY_PART')
);
#1347=(
GEOMETRIC_REPRESENTATION_CONTEXT(3)
GLOBAL_UNCERTAINTY_ASSIGNED_CONTEXT((#1355))
GLOBAL_UNIT_ASSIGNED_CONTEXT((#1379,#1371,#1363))
REPRESENTATION_CONTEXT('Part 7','TOP_LEVEL_ASSEMBLY_PART')
);
#1348=(
GEOMETRIC_REPRESENTATION_CONTEXT(3)
GLOBAL_UNCERTAINTY_ASSIGNED_CONTEXT((#1356))
GLOBAL_UNIT_ASSIGNED_CONTEXT((#1380,#1372,#1364))
REPRESENTATION_CONTEXT('Part 4','TOP_LEVEL_ASSEMBLY_PART')
);
#1349=(
GEOMETRIC_REPRESENTATION_CONTEXT(3)
GLOBAL_UNCERTAINTY_ASSIGNED_CONTEXT((#1357))
GLOBAL_UNIT_ASSIGNED_CONTEXT((#1381,#1373,#1365))
REPRESENTATION_CONTEXT('Part 5','TOP_LEVEL_ASSEMBLY_PART')
);
#1350=(
GEOMETRIC_REPRESENTATION_CONTEXT(3)
GLOBAL_UNCERTAINTY_ASSIGNED_CONTEXT((#1358))
GLOBAL_UNIT_ASSIGNED_CONTEXT((#1382,#1374,#1366))
REPRESENTATION_CONTEXT('Part 2','TOP_LEVEL_ASSEMBLY_PART')
);
#1351=(
GEOMETRIC_REPRESENTATION_CONTEXT(3)
GLOBAL_UNCERTAINTY_ASSIGNED_CONTEXT((#1359))
GLOBAL_UNIT_ASSIGNED_CONTEXT((#1383,#1375,#1367))
REPRESENTATION_CONTEXT('Part 3','TOP_LEVEL_ASSEMBLY_PART')
);
#1352=(
GEOMETRIC_REPRESENTATION_CONTEXT(3)
GLOBAL_UNCERTAINTY_ASSIGNED_CONTEXT((#1360))
GLOBAL_UNIT_ASSIGNED_CONTEXT((#1384,#1376,#1368))
REPRESENTATION_CONTEXT('Part 1','TOP_LEVEL_ASSEMBLY_PART')
);
#1353=(
GEOMETRIC_REPRESENTATION_CONTEXT(3)
GLOBAL_UNCERTAINTY_ASSIGNED_CONTEXT((#1361))
GLOBAL_UNIT_ASSIGNED_CONTEXT((#1385,#1377,#1369))
REPRESENTATION_CONTEXT('Part 8','TOP_LEVEL_ASSEMBLY_PART')
);
#1354=UNCERTAINTY_MEASURE_WITH_UNIT(LENGTH_MEASURE(1.E-8),#1378,
'DISTANCE_ACCURACY_VALUE','Maximum Tolerance applied to model');
#1355=UNCERTAINTY_MEASURE_WITH_UNIT(LENGTH_MEASURE(1.E-8),#1379,
'DISTANCE_ACCURACY_VALUE','Maximum Tolerance applied to model');
#1356=UNCERTAINTY_MEASURE_WITH_UNIT(LENGTH_MEASURE(1.E-8),#1380,
'DISTANCE_ACCURACY_VALUE','Maximum Tolerance applied to model');
#1357=UNCERTAINTY_MEASURE_WITH_UNIT(LENGTH_MEASURE(1.E-8),#1381,
'DISTANCE_ACCURACY_VALUE','Maximum Tolerance applied to model');
#1358=UNCERTAINTY_MEASURE_WITH_UNIT(LENGTH_MEASURE(1.E-8),#1382,
'DISTANCE_ACCURACY_VALUE','Maximum Tolerance applied to model');
#1359=UNCERTAINTY_MEASURE_WITH_UNIT(LENGTH_MEASURE(1.E-8),#1383,
'DISTANCE_ACCURACY_VALUE','Maximum Tolerance applied to model');
#1360=UNCERTAINTY_MEASURE_WITH_UNIT(LENGTH_MEASURE(1.E-8),#1384,
'DISTANCE_ACCURACY_VALUE','Maximum Tolerance applied to model');
#1361=UNCERTAINTY_MEASURE_WITH_UNIT(LENGTH_MEASURE(1.E-8),#1385,
'DISTANCE_ACCURACY_VALUE','Maximum Tolerance applied to model');
#1362=(
NAMED_UNIT(*)
SI_UNIT($,.STERADIAN.)
SOLID_ANGLE_UNIT()
);
#1363=(
NAMED_UNIT(*)
SI_UNIT($,.STERADIAN.)
SOLID_ANGLE_UNIT()
);
#1364=(
NAMED_UNIT(*)
SI_UNIT($,.STERADIAN.)
SOLID_ANGLE_UNIT()
);
#1365=(
NAMED_UNIT(*)
SI_UNIT($,.STERADIAN.)
SOLID_ANGLE_UNIT()
);
#1366=(
NAMED_UNIT(*)
SI_UNIT($,.STERADIAN.)
SOLID_ANGLE_UNIT()
);
#1367=(
NAMED_UNIT(*)
SI_UNIT($,.STERADIAN.)
SOLID_ANGLE_UNIT()
);
#1368=(
NAMED_UNIT(*)
SI_UNIT($,.STERADIAN.)
SOLID_ANGLE_UNIT()
);
#1369=(
NAMED_UNIT(*)
SI_UNIT($,.STERADIAN.)
SOLID_ANGLE_UNIT()
);
#1370=(
NAMED_UNIT(*)
PLANE_ANGLE_UNIT()
SI_UNIT($,.RADIAN.)
);
#1371=(
NAMED_UNIT(*)
PLANE_ANGLE_UNIT()
SI_UNIT($,.RADIAN.)
);
#1372=(
NAMED_UNIT(*)
PLANE_ANGLE_UNIT()
SI_UNIT($,.RADIAN.)
);
#1373=(
NAMED_UNIT(*)
PLANE_ANGLE_UNIT()
SI_UNIT($,.RADIAN.)
);
#1374=(
NAMED_UNIT(*)
PLANE_ANGLE_UNIT()
SI_UNIT($,.RADIAN.)
);
#1375=(
NAMED_UNIT(*)
PLANE_ANGLE_UNIT()
SI_UNIT($,.RADIAN.)
);
#1376=(
NAMED_UNIT(*)
PLANE_ANGLE_UNIT()
SI_UNIT($,.RADIAN.)
);
#1377=(
NAMED_UNIT(*)
PLANE_ANGLE_UNIT()
SI_UNIT($,.RADIAN.)
);
#1378=(
LENGTH_UNIT()
NAMED_UNIT(*)
SI_UNIT($,.METRE.)
);
#1379=(
LENGTH_UNIT()
NAMED_UNIT(*)
SI_UNIT($,.METRE.)
);
#1380=(
LENGTH_UNIT()
NAMED_UNIT(*)
SI_UNIT($,.METRE.)
);
#1381=(
LENGTH_UNIT()
NAMED_UNIT(*)
SI_UNIT($,.METRE.)
);
#1382=(
LENGTH_UNIT()
NAMED_UNIT(*)
SI_UNIT($,.METRE.)
);
#1383=(
LENGTH_UNIT()
NAMED_UNIT(*)
SI_UNIT($,.METRE.)
);
#1384=(
LENGTH_UNIT()
NAMED_UNIT(*)
SI_UNIT($,.METRE.)
);
#1385=(
LENGTH_UNIT()
NAMED_UNIT(*)
SI_UNIT($,.METRE.)
);
#1386=PRODUCT_DEFINITION_SHAPE('','',#1394);
#1387=PRODUCT_DEFINITION_SHAPE('','',#1395);
#1388=PRODUCT_DEFINITION_SHAPE('','',#1396);
#1389=PRODUCT_DEFINITION_SHAPE('','',#1397);
#1390=PRODUCT_DEFINITION_SHAPE('','',#1398);
#1391=PRODUCT_DEFINITION_SHAPE('','',#1399);
#1392=PRODUCT_DEFINITION_SHAPE('','',#1400);
#1393=PRODUCT_DEFINITION_SHAPE('','',#1401);
#1394=PRODUCT_DEFINITION('','',#1410,#1402);
#1395=PRODUCT_DEFINITION('','',#1411,#1403);
#1396=PRODUCT_DEFINITION('','',#1412,#1404);
#1397=PRODUCT_DEFINITION('','',#1413,#1405);
#1398=PRODUCT_DEFINITION('','',#1414,#1406);
#1399=PRODUCT_DEFINITION('','',#1415,#1407);
#1400=PRODUCT_DEFINITION('','',#1416,#1408);
#1401=PRODUCT_DEFINITION('','',#1417,#1409);
#1402=PRODUCT_DEFINITION_CONTEXT('',#1458,'design');
#1403=PRODUCT_DEFINITION_CONTEXT('',#1459,'design');
#1404=PRODUCT_DEFINITION_CONTEXT('',#1460,'design');
#1405=PRODUCT_DEFINITION_CONTEXT('',#1461,'design');
#1406=PRODUCT_DEFINITION_CONTEXT('',#1462,'design');
#1407=PRODUCT_DEFINITION_CONTEXT('',#1463,'design');
#1408=PRODUCT_DEFINITION_CONTEXT('',#1464,'design');
#1409=PRODUCT_DEFINITION_CONTEXT('',#1465,'design');
#1410=PRODUCT_DEFINITION_FORMATION_WITH_SPECIFIED_SOURCE('','',#1426,
 .NOT_KNOWN.);
#1411=PRODUCT_DEFINITION_FORMATION_WITH_SPECIFIED_SOURCE('','',#1427,
 .NOT_KNOWN.);
#1412=PRODUCT_DEFINITION_FORMATION_WITH_SPECIFIED_SOURCE('','',#1428,
 .NOT_KNOWN.);
#1413=PRODUCT_DEFINITION_FORMATION_WITH_SPECIFIED_SOURCE('','',#1429,
 .NOT_KNOWN.);
#1414=PRODUCT_DEFINITION_FORMATION_WITH_SPECIFIED_SOURCE('','',#1430,
 .NOT_KNOWN.);
#1415=PRODUCT_DEFINITION_FORMATION_WITH_SPECIFIED_SOURCE('','',#1431,
 .NOT_KNOWN.);
#1416=PRODUCT_DEFINITION_FORMATION_WITH_SPECIFIED_SOURCE('','',#1432,
 .NOT_KNOWN.);
#1417=PRODUCT_DEFINITION_FORMATION_WITH_SPECIFIED_SOURCE('','',#1433,
 .NOT_KNOWN.);
#1418=PRODUCT_RELATED_PRODUCT_CATEGORY('','',(#1426));
#1419=PRODUCT_RELATED_PRODUCT_CATEGORY('','',(#1427));
#1420=PRODUCT_RELATED_PRODUCT_CATEGORY('','',(#1428));
#1421=PRODUCT_RELATED_PRODUCT_CATEGORY('','',(#1429));
#1422=PRODUCT_RELATED_PRODUCT_CATEGORY('','',(#1430));
#1423=PRODUCT_RELATED_PRODUCT_CATEGORY('','',(#1431));
#1424=PRODUCT_RELATED_PRODUCT_CATEGORY('','',(#1432));
#1425=PRODUCT_RELATED_PRODUCT_CATEGORY('','',(#1433));
#1426=PRODUCT('Part 6','Part 6','Part 6',(#1442));
#1427=PRODUCT('Part 7','Part 7','Part 7',(#1443));
#1428=PRODUCT('Part 4','Part 4','Part 4',(#1444));
#1429=PRODUCT('Part 5','Part 5','Part 5',(#1445));
#1430=PRODUCT('Part 2','Part 2','Part 2',(#1446));
#1431=PRODUCT('Part 3','Part 3','Part 3',(#1447));
#1432=PRODUCT('Part 1','Part 1','Part 1',(#1448));
#1433=PRODUCT('Part 8','Part 8','Part 8',(#1449));
#1434=PRODUCT_CATEGORY('','');
#1435=PRODUCT_CATEGORY('','');
#1436=PRODUCT_CATEGORY('','');
#1437=PRODUCT_CATEGORY('','');
#1438=PRODUCT_CATEGORY('','');
#1439=PRODUCT_CATEGORY('','');
#1440=PRODUCT_CATEGORY('','');
#1441=PRODUCT_CATEGORY('','');
#1442=PRODUCT_CONTEXT('',#1458,'mechanical');
#1443=PRODUCT_CONTEXT('',#1459,'mechanical');
#1444=PRODUCT_CONTEXT('',#1460,'mechanical');
#1445=PRODUCT_CONTEXT('',#1461,'mechanical');
#1446=PRODUCT_CONTEXT('',#1462,'mechanical');
#1447=PRODUCT_CONTEXT('',#1463,'mechanical');
#1448=PRODUCT_CONTEXT('',#1464,'mechanical');
#1449=PRODUCT_CONTEXT('',#1465,'mechanical');
#1450=APPLICATION_PROTOCOL_DEFINITION('international standard',
'ap242_managed_model_based_3d_engineering',2020,#1458);
#1451=APPLICATION_PROTOCOL_DEFINITION('international standard',
'ap242_managed_model_based_3d_engineering',2020,#1459);
#1452=APPLICATION_PROTOCOL_DEFINITION('international standard',
'ap242_managed_model_based_3d_engineering',2020,#1460);
#1453=APPLICATION_PROTOCOL_DEFINITION('international standard',
'ap242_managed_model_based_3d_engineering',2020,#1461);
#1454=APPLICATION_PROTOCOL_DEFINITION('international standard',
'ap242_managed_model_based_3d_engineering',2020,#1462);
#1455=APPLICATION_PROTOCOL_DEFINITION('international standard',
'ap242_managed_model_based_3d_engineering',2020,#1463);
#1456=APPLICATION_PROTOCOL_DEFINITION('international standard',
'ap242_managed_model_based_3d_engineering',2020,#1464);
#1457=APPLICATION_PROTOCOL_DEFINITION('international standard',
'ap242_managed_model_based_3d_engineering',2020,#1465);
#1458=APPLICATION_CONTEXT('managed model based 3d engineering');
#1459=APPLICATION_CONTEXT('managed model based 3d engineering');
#1460=APPLICATION_CONTEXT('managed model based 3d engineering');
#1461=APPLICATION_CONTEXT('managed model based 3d engineering');
#1462=APPLICATION_CONTEXT('managed model based 3d engineering');
#1463=APPLICATION_CONTEXT('managed model based 3d engineering');
#1464=APPLICATION_CONTEXT('managed model based 3d engineering');
#1465=APPLICATION_CONTEXT('managed model based 3d engineering');
ENDSEC;
END-ISO-10303-21;
