ISO-10303-21;
HEADER;
/* Generated by software containing ST-Developer
 * from STEP Tools, Inc. (www.steptools.com) 
 */
/* OPTION: using custom renumber hook */

FILE_DESCRIPTION(
/* description */ ('STEP AP242 Edition 2',
'CAx-IF Rec.Pracs.---Representation and Presentation of Product Manufa
cturing Information (PMI)---4.0---2014-10-13',
'CAx-IF Rec.Pracs.---3D Tessellated Geometry---0.4---2014-09-14','2;1',
'CAx-IF Rec.Pracs.---User Defined Attributes---1.5---2016-08-15'),
/* implementation_level */ '2;1');

FILE_NAME(
/* name */ 'Part Studio 1',
/* time_stamp */ '2026-06-08T17:14:17Z',
/* author */ (''),
/* organization */ (''),
/* preprocessor_version */ 'ST-DEVELOPER v20',
/* originating_system */ 'ONSHAPE BY PTC INC, 1.216',
/* authorisation */ '  ');

FILE_SCHEMA (('AP242_MANAGED_MODEL_BASED_3D_ENGINEERING_MIM_LF { 1 0 10303 442 3 1 4 }'));
ENDSEC;

DATA;
#10=SHAPE_REPRESENTATION_RELATIONSHIP('','',#632,#11);
#11=ADVANCED_BREP_SHAPE_REPRESENTATION('',(#630),#1093);
#12=VERTEX_LOOP('',#398);
#13=CONICAL_SURFACE('',#703,0.009,1.02974425867665);
#14=LINE('',#929,#54);
#15=LINE('',#934,#55);
#16=LINE('',#936,#56);
#17=LINE('',#938,#57);
#18=LINE('',#940,#58);
#19=LINE('',#942,#59);
#20=LINE('',#945,#60);
#21=LINE('',#947,#61);
#22=LINE('',#949,#62);
#23=LINE('',#951,#63);
#24=LINE('',#954,#64);
#25=LINE('',#956,#65);
#26=LINE('',#958,#66);
#27=LINE('',#960,#67);
#28=LINE('',#963,#68);
#29=LINE('',#965,#69);
#30=LINE('',#967,#70);
#31=LINE('',#969,#71);
#32=LINE('',#971,#72);
#33=LINE('',#973,#73);
#34=LINE('',#975,#74);
#35=LINE('',#977,#75);
#36=LINE('',#979,#76);
#37=LINE('',#981,#77);
#38=LINE('',#986,#78);
#39=LINE('',#989,#79);
#40=LINE('',#991,#80);
#41=LINE('',#993,#81);
#42=LINE('',#1026,#82);
#43=LINE('',#1028,#83);
#44=LINE('',#1030,#84);
#45=LINE('',#1032,#85);
#46=LINE('',#1034,#86);
#47=LINE('',#1036,#87);
#48=LINE('',#1049,#88);
#49=LINE('',#1051,#89);
#50=LINE('',#1053,#90);
#51=LINE('',#1055,#91);
#52=LINE('',#1057,#92);
#53=LINE('',#1059,#93);
#54=VECTOR('',#715,1.);
#55=VECTOR('',#718,1.);
#56=VECTOR('',#719,1.);
#57=VECTOR('',#720,1.);
#58=VECTOR('',#721,1.);
#59=VECTOR('',#724,1.);
#60=VECTOR('',#725,1.);
#61=VECTOR('',#726,1.);
#62=VECTOR('',#727,1.);
#63=VECTOR('',#730,1.);
#64=VECTOR('',#731,1.);
#65=VECTOR('',#732,1.);
#66=VECTOR('',#733,1.);
#67=VECTOR('',#736,1.);
#68=VECTOR('',#737,1.);
#69=VECTOR('',#738,1.);
#70=VECTOR('',#739,1.);
#71=VECTOR('',#742,1.);
#72=VECTOR('',#743,1.);
#73=VECTOR('',#744,1.);
#74=VECTOR('',#745,1.);
#75=VECTOR('',#746,1.);
#76=VECTOR('',#747,1.);
#77=VECTOR('',#748,1.);
#78=VECTOR('',#757,1.);
#79=VECTOR('',#758,1.);
#80=VECTOR('',#759,1.);
#81=VECTOR('',#760,1.);
#82=VECTOR('',#807,1.);
#83=VECTOR('',#808,1.);
#84=VECTOR('',#809,1.);
#85=VECTOR('',#812,1.);
#86=VECTOR('',#813,1.);
#87=VECTOR('',#814,1.);
#88=VECTOR('',#835,1.);
#89=VECTOR('',#836,1.);
#90=VECTOR('',#837,1.);
#91=VECTOR('',#840,1.);
#92=VECTOR('',#841,1.);
#93=VECTOR('',#842,1.);
#94=PLANE('',#637);
#95=PLANE('',#639);
#96=PLANE('',#640);
#97=PLANE('',#641);
#98=PLANE('',#642);
#99=PLANE('',#651);
#100=PLANE('',#669);
#101=PLANE('',#670);
#102=PLANE('',#677);
#103=PLANE('',#678);
#104=PLANE('',#680);
#105=PLANE('',#681);
#106=PLANE('',#688);
#107=PLANE('',#689);
#108=PLANE('',#696);
#109=PLANE('',#697);
#110=PLANE('',#702);
#111=B_SPLINE_CURVE_WITH_KNOTS('',3,(#895,#896,#897,#898,#899,#900,#901,
#902,#903,#904,#905,#906,#907,#908,#909,#910,#911,#912,#913,#914,#915,#916,
#917,#918,#919,#920,#921,#922,#923,#924,#925,#926),.UNSPECIFIED.,.T.,.F.,
(1,1,1,1,1,1,1,1,1,1,1,1,1,1,1,1,1,1,1,1,1,1,1,1,1,1,1,1,1,1,1,1,1,1,1,
1),(-0.00371047472050216,-0.00185523736025108,-0.000927618680125537,0.,
0.00185523736025108,0.00371047472050216,0.00556571208075324,0.00742094944100432,
0.0111314241615065,0.0148418988820086,0.0166971362422597,0.0185523736025108,
0.022262848323013,0.024118085683264,0.0259733230435151,0.0278285604037662,
0.0287561790838917,0.0296837977640173,0.0306114164441428,0.0315390351242684,
0.0333942724845194,0.0352495098447705,0.0371047472050216,0.0389599845652727,
0.0408152219255238,0.0445256966460259,0.0482361713665281,0.0519466460870302,
0.0538018834472813,0.0556571208075324,0.0575123581677835,0.058439976847909,
0.0593675955280345,0.0612228328882856,0.0630780702485367,0.0649333076087878),
 .UNSPECIFIED.);
#112=ORIENTED_EDGE('',*,*,#264,.F.);
#113=ORIENTED_EDGE('',*,*,#265,.T.);
#114=ORIENTED_EDGE('',*,*,#266,.T.);
#115=ORIENTED_EDGE('',*,*,#264,.T.);
#116=ORIENTED_EDGE('',*,*,#267,.T.);
#117=ORIENTED_EDGE('',*,*,#268,.T.);
#118=ORIENTED_EDGE('',*,*,#269,.T.);
#119=ORIENTED_EDGE('',*,*,#270,.T.);
#120=ORIENTED_EDGE('',*,*,#271,.F.);
#121=ORIENTED_EDGE('',*,*,#272,.T.);
#122=ORIENTED_EDGE('',*,*,#273,.T.);
#123=ORIENTED_EDGE('',*,*,#274,.T.);
#124=ORIENTED_EDGE('',*,*,#275,.F.);
#125=ORIENTED_EDGE('',*,*,#276,.T.);
#126=ORIENTED_EDGE('',*,*,#277,.T.);
#127=ORIENTED_EDGE('',*,*,#278,.T.);
#128=ORIENTED_EDGE('',*,*,#279,.F.);
#129=ORIENTED_EDGE('',*,*,#280,.T.);
#130=ORIENTED_EDGE('',*,*,#281,.F.);
#131=ORIENTED_EDGE('',*,*,#282,.T.);
#132=ORIENTED_EDGE('',*,*,#283,.T.);
#133=ORIENTED_EDGE('',*,*,#284,.T.);
#134=ORIENTED_EDGE('',*,*,#285,.F.);
#135=ORIENTED_EDGE('',*,*,#286,.F.);
#136=ORIENTED_EDGE('',*,*,#287,.F.);
#137=ORIENTED_EDGE('',*,*,#288,.T.);
#138=ORIENTED_EDGE('',*,*,#289,.T.);
#139=ORIENTED_EDGE('',*,*,#290,.F.);
#140=ORIENTED_EDGE('',*,*,#291,.T.);
#141=ORIENTED_EDGE('',*,*,#267,.F.);
#142=ORIENTED_EDGE('',*,*,#292,.T.);
#143=ORIENTED_EDGE('',*,*,#275,.T.);
#144=ORIENTED_EDGE('',*,*,#293,.T.);
#145=ORIENTED_EDGE('',*,*,#279,.T.);
#146=ORIENTED_EDGE('',*,*,#294,.T.);
#147=ORIENTED_EDGE('',*,*,#283,.F.);
#148=ORIENTED_EDGE('',*,*,#295,.T.);
#149=ORIENTED_EDGE('',*,*,#269,.F.);
#150=ORIENTED_EDGE('',*,*,#296,.F.);
#151=ORIENTED_EDGE('',*,*,#297,.T.);
#152=ORIENTED_EDGE('',*,*,#298,.T.);
#153=ORIENTED_EDGE('',*,*,#299,.F.);
#154=ORIENTED_EDGE('',*,*,#300,.T.);
#155=ORIENTED_EDGE('',*,*,#301,.T.);
#156=ORIENTED_EDGE('',*,*,#302,.T.);
#157=ORIENTED_EDGE('',*,*,#303,.T.);
#158=ORIENTED_EDGE('',*,*,#304,.F.);
#159=ORIENTED_EDGE('',*,*,#305,.F.);
#160=ORIENTED_EDGE('',*,*,#306,.F.);
#161=ORIENTED_EDGE('',*,*,#307,.F.);
#162=ORIENTED_EDGE('',*,*,#308,.F.);
#163=ORIENTED_EDGE('',*,*,#271,.T.);
#164=ORIENTED_EDGE('',*,*,#309,.T.);
#165=ORIENTED_EDGE('',*,*,#281,.T.);
#166=ORIENTED_EDGE('',*,*,#310,.T.);
#167=ORIENTED_EDGE('',*,*,#277,.F.);
#168=ORIENTED_EDGE('',*,*,#311,.T.);
#169=ORIENTED_EDGE('',*,*,#273,.F.);
#170=ORIENTED_EDGE('',*,*,#312,.T.);
#171=ORIENTED_EDGE('',*,*,#295,.F.);
#172=ORIENTED_EDGE('',*,*,#282,.F.);
#173=ORIENTED_EDGE('',*,*,#309,.F.);
#174=ORIENTED_EDGE('',*,*,#270,.F.);
#175=ORIENTED_EDGE('',*,*,#294,.F.);
#176=ORIENTED_EDGE('',*,*,#278,.F.);
#177=ORIENTED_EDGE('',*,*,#310,.F.);
#178=ORIENTED_EDGE('',*,*,#284,.F.);
#179=ORIENTED_EDGE('',*,*,#293,.F.);
#180=ORIENTED_EDGE('',*,*,#274,.F.);
#181=ORIENTED_EDGE('',*,*,#311,.F.);
#182=ORIENTED_EDGE('',*,*,#280,.F.);
#183=ORIENTED_EDGE('',*,*,#292,.F.);
#184=ORIENTED_EDGE('',*,*,#272,.F.);
#185=ORIENTED_EDGE('',*,*,#312,.F.);
#186=ORIENTED_EDGE('',*,*,#276,.F.);
#187=ORIENTED_EDGE('',*,*,#303,.F.);
#188=ORIENTED_EDGE('',*,*,#308,.T.);
#189=ORIENTED_EDGE('',*,*,#302,.F.);
#190=ORIENTED_EDGE('',*,*,#307,.T.);
#191=ORIENTED_EDGE('',*,*,#301,.F.);
#192=ORIENTED_EDGE('',*,*,#306,.T.);
#193=ORIENTED_EDGE('',*,*,#300,.F.);
#194=ORIENTED_EDGE('',*,*,#305,.T.);
#195=ORIENTED_EDGE('',*,*,#313,.T.);
#196=ORIENTED_EDGE('',*,*,#314,.F.);
#197=ORIENTED_EDGE('',*,*,#315,.F.);
#198=ORIENTED_EDGE('',*,*,#287,.T.);
#199=ORIENTED_EDGE('',*,*,#316,.F.);
#200=ORIENTED_EDGE('',*,*,#289,.F.);
#201=ORIENTED_EDGE('',*,*,#317,.T.);
#202=ORIENTED_EDGE('',*,*,#318,.T.);
#203=ORIENTED_EDGE('',*,*,#319,.F.);
#204=ORIENTED_EDGE('',*,*,#320,.T.);
#205=ORIENTED_EDGE('',*,*,#321,.T.);
#206=ORIENTED_EDGE('',*,*,#318,.F.);
#207=ORIENTED_EDGE('',*,*,#322,.F.);
#208=ORIENTED_EDGE('',*,*,#314,.T.);
#209=ORIENTED_EDGE('',*,*,#319,.T.);
#210=ORIENTED_EDGE('',*,*,#315,.T.);
#211=ORIENTED_EDGE('',*,*,#322,.T.);
#212=ORIENTED_EDGE('',*,*,#317,.F.);
#213=ORIENTED_EDGE('',*,*,#288,.F.);
#214=ORIENTED_EDGE('',*,*,#323,.F.);
#215=ORIENTED_EDGE('',*,*,#290,.T.);
#216=ORIENTED_EDGE('',*,*,#316,.T.);
#217=ORIENTED_EDGE('',*,*,#321,.F.);
#218=ORIENTED_EDGE('',*,*,#313,.F.);
#219=ORIENTED_EDGE('',*,*,#286,.T.);
#220=ORIENTED_EDGE('',*,*,#320,.F.);
#221=ORIENTED_EDGE('',*,*,#324,.F.);
#222=ORIENTED_EDGE('',*,*,#297,.F.);
#223=ORIENTED_EDGE('',*,*,#325,.T.);
#224=ORIENTED_EDGE('',*,*,#326,.T.);
#225=ORIENTED_EDGE('',*,*,#327,.T.);
#226=ORIENTED_EDGE('',*,*,#328,.F.);
#227=ORIENTED_EDGE('',*,*,#329,.F.);
#228=ORIENTED_EDGE('',*,*,#299,.T.);
#229=ORIENTED_EDGE('',*,*,#330,.T.);
#230=ORIENTED_EDGE('',*,*,#331,.F.);
#231=ORIENTED_EDGE('',*,*,#332,.F.);
#232=ORIENTED_EDGE('',*,*,#326,.F.);
#233=ORIENTED_EDGE('',*,*,#333,.T.);
#234=ORIENTED_EDGE('',*,*,#328,.T.);
#235=ORIENTED_EDGE('',*,*,#330,.F.);
#236=ORIENTED_EDGE('',*,*,#325,.F.);
#237=ORIENTED_EDGE('',*,*,#296,.T.);
#238=ORIENTED_EDGE('',*,*,#329,.T.);
#239=ORIENTED_EDGE('',*,*,#333,.F.);
#240=ORIENTED_EDGE('',*,*,#331,.T.);
#241=ORIENTED_EDGE('',*,*,#324,.T.);
#242=ORIENTED_EDGE('',*,*,#332,.T.);
#243=ORIENTED_EDGE('',*,*,#327,.F.);
#244=ORIENTED_EDGE('',*,*,#298,.F.);
#245=ORIENTED_EDGE('',*,*,#268,.F.);
#246=ORIENTED_EDGE('',*,*,#291,.F.);
#247=ORIENTED_EDGE('',*,*,#323,.T.);
#248=ORIENTED_EDGE('',*,*,#285,.T.);
#249=ORIENTED_EDGE('',*,*,#334,.T.);
#250=ORIENTED_EDGE('',*,*,#335,.F.);
#251=ORIENTED_EDGE('',*,*,#336,.F.);
#252=ORIENTED_EDGE('',*,*,#304,.T.);
#253=ORIENTED_EDGE('',*,*,#334,.F.);
#254=ORIENTED_EDGE('',*,*,#336,.T.);
#255=ORIENTED_EDGE('',*,*,#337,.T.);
#256=ORIENTED_EDGE('',*,*,#338,.F.);
#257=ORIENTED_EDGE('',*,*,#335,.T.);
#258=ORIENTED_EDGE('',*,*,#339,.F.);
#259=ORIENTED_EDGE('',*,*,#338,.T.);
#260=ORIENTED_EDGE('',*,*,#339,.T.);
#261=ORIENTED_EDGE('',*,*,#265,.F.);
#262=ORIENTED_EDGE('',*,*,#266,.F.);
#263=ORIENTED_EDGE('',*,*,#337,.F.);
#264=EDGE_CURVE('',#340,#340,#399,.T.);
#265=EDGE_CURVE('',#341,#341,#400,.T.);
#266=EDGE_CURVE('',#342,#342,#111,.T.);
#267=EDGE_CURVE('',#343,#344,#14,.T.);
#268=EDGE_CURVE('',#344,#345,#401,.T.);
#269=EDGE_CURVE('',#345,#346,#15,.T.);
#270=EDGE_CURVE('',#346,#347,#16,.T.);
#271=EDGE_CURVE('',#348,#347,#17,.T.);
#272=EDGE_CURVE('',#348,#343,#18,.F.);
#273=EDGE_CURVE('',#349,#350,#19,.T.);
#274=EDGE_CURVE('',#350,#351,#20,.F.);
#275=EDGE_CURVE('',#352,#351,#21,.T.);
#276=EDGE_CURVE('',#352,#349,#22,.T.);
#277=EDGE_CURVE('',#353,#354,#23,.T.);
#278=EDGE_CURVE('',#354,#355,#24,.F.);
#279=EDGE_CURVE('',#356,#355,#25,.T.);
#280=EDGE_CURVE('',#356,#353,#26,.T.);
#281=EDGE_CURVE('',#357,#358,#27,.T.);
#282=EDGE_CURVE('',#357,#359,#28,.F.);
#283=EDGE_CURVE('',#359,#360,#29,.T.);
#284=EDGE_CURVE('',#360,#358,#30,.T.);
#285=EDGE_CURVE('',#361,#345,#31,.T.);
#286=EDGE_CURVE('',#362,#361,#32,.T.);
#287=EDGE_CURVE('',#363,#362,#33,.T.);
#288=EDGE_CURVE('',#363,#364,#34,.T.);
#289=EDGE_CURVE('',#364,#365,#35,.T.);
#290=EDGE_CURVE('',#366,#365,#36,.T.);
#291=EDGE_CURVE('',#366,#344,#37,.T.);
#292=EDGE_CURVE('',#343,#352,#402,.T.);
#293=EDGE_CURVE('',#351,#356,#403,.T.);
#294=EDGE_CURVE('',#355,#360,#404,.T.);
#295=EDGE_CURVE('',#359,#346,#405,.T.);
#296=EDGE_CURVE('',#367,#368,#38,.T.);
#297=EDGE_CURVE('',#367,#369,#39,.T.);
#298=EDGE_CURVE('',#369,#370,#40,.T.);
#299=EDGE_CURVE('',#368,#370,#41,.T.);
#300=EDGE_CURVE('',#371,#371,#406,.T.);
#301=EDGE_CURVE('',#372,#372,#407,.T.);
#302=EDGE_CURVE('',#373,#373,#408,.T.);
#303=EDGE_CURVE('',#374,#374,#409,.T.);
#304=EDGE_CURVE('',#375,#375,#410,.T.);
#305=EDGE_CURVE('',#376,#376,#411,.F.);
#306=EDGE_CURVE('',#377,#377,#412,.F.);
#307=EDGE_CURVE('',#378,#378,#413,.F.);
#308=EDGE_CURVE('',#379,#379,#414,.F.);
#309=EDGE_CURVE('',#347,#357,#415,.F.);
#310=EDGE_CURVE('',#358,#354,#416,.F.);
#311=EDGE_CURVE('',#353,#350,#417,.F.);
#312=EDGE_CURVE('',#349,#348,#418,.F.);
#313=EDGE_CURVE('',#362,#380,#42,.T.);
#314=EDGE_CURVE('',#381,#380,#43,.T.);
#315=EDGE_CURVE('',#363,#381,#44,.T.);
#316=EDGE_CURVE('',#365,#382,#45,.T.);
#317=EDGE_CURVE('',#364,#383,#46,.T.);
#318=EDGE_CURVE('',#383,#382,#47,.T.);
#319=EDGE_CURVE('',#384,#384,#419,.T.);
#320=EDGE_CURVE('',#385,#385,#420,.T.);
#321=EDGE_CURVE('',#380,#382,#421,.T.);
#322=EDGE_CURVE('',#381,#383,#422,.T.);
#323=EDGE_CURVE('',#366,#361,#423,.T.);
#324=EDGE_CURVE('',#369,#386,#48,.T.);
#325=EDGE_CURVE('',#367,#387,#49,.T.);
#326=EDGE_CURVE('',#387,#386,#50,.T.);
#327=EDGE_CURVE('',#370,#388,#51,.T.);
#328=EDGE_CURVE('',#389,#388,#52,.T.);
#329=EDGE_CURVE('',#368,#389,#53,.T.);
#330=EDGE_CURVE('',#390,#390,#424,.T.);
#331=EDGE_CURVE('',#391,#391,#425,.T.);
#332=EDGE_CURVE('',#386,#388,#426,.T.);
#333=EDGE_CURVE('',#387,#389,#427,.T.);
#334=EDGE_CURVE('',#392,#392,#428,.T.);
#335=EDGE_CURVE('',#393,#393,#429,.T.);
#336=EDGE_CURVE('',#394,#394,#430,.T.);
#337=EDGE_CURVE('',#395,#395,#431,.T.);
#338=EDGE_CURVE('',#396,#396,#432,.T.);
#339=EDGE_CURVE('',#397,#397,#433,.T.);
#340=VERTEX_POINT('',#892);
#341=VERTEX_POINT('',#894);
#342=VERTEX_POINT('',#927);
#343=VERTEX_POINT('',#930);
#344=VERTEX_POINT('',#931);
#345=VERTEX_POINT('',#933);
#346=VERTEX_POINT('',#935);
#347=VERTEX_POINT('',#937);
#348=VERTEX_POINT('',#939);
#349=VERTEX_POINT('',#943);
#350=VERTEX_POINT('',#944);
#351=VERTEX_POINT('',#946);
#352=VERTEX_POINT('',#948);
#353=VERTEX_POINT('',#952);
#354=VERTEX_POINT('',#953);
#355=VERTEX_POINT('',#955);
#356=VERTEX_POINT('',#957);
#357=VERTEX_POINT('',#961);
#358=VERTEX_POINT('',#962);
#359=VERTEX_POINT('',#964);
#360=VERTEX_POINT('',#966);
#361=VERTEX_POINT('',#970);
#362=VERTEX_POINT('',#972);
#363=VERTEX_POINT('',#974);
#364=VERTEX_POINT('',#976);
#365=VERTEX_POINT('',#978);
#366=VERTEX_POINT('',#980);
#367=VERTEX_POINT('',#987);
#368=VERTEX_POINT('',#988);
#369=VERTEX_POINT('',#990);
#370=VERTEX_POINT('',#992);
#371=VERTEX_POINT('',#995);
#372=VERTEX_POINT('',#997);
#373=VERTEX_POINT('',#999);
#374=VERTEX_POINT('',#1001);
#375=VERTEX_POINT('',#1004);
#376=VERTEX_POINT('',#1006);
#377=VERTEX_POINT('',#1008);
#378=VERTEX_POINT('',#1010);
#379=VERTEX_POINT('',#1012);
#380=VERTEX_POINT('',#1027);
#381=VERTEX_POINT('',#1029);
#382=VERTEX_POINT('',#1033);
#383=VERTEX_POINT('',#1035);
#384=VERTEX_POINT('',#1039);
#385=VERTEX_POINT('',#1041);
#386=VERTEX_POINT('',#1050);
#387=VERTEX_POINT('',#1052);
#388=VERTEX_POINT('',#1056);
#389=VERTEX_POINT('',#1058);
#390=VERTEX_POINT('',#1062);
#391=VERTEX_POINT('',#1064);
#392=VERTEX_POINT('',#1073);
#393=VERTEX_POINT('',#1075);
#394=VERTEX_POINT('',#1078);
#395=VERTEX_POINT('',#1082);
#396=VERTEX_POINT('',#1084);
#397=VERTEX_POINT('',#1087);
#398=VERTEX_POINT('',#1090);
#399=CIRCLE('',#635,0.009);
#400=CIRCLE('',#636,0.009);
#401=CIRCLE('',#638,0.024);
#402=CIRCLE('',#643,0.018);
#403=CIRCLE('',#644,0.018);
#404=CIRCLE('',#645,0.018);
#405=CIRCLE('',#646,0.018);
#406=CIRCLE('',#647,0.009);
#407=CIRCLE('',#648,0.009);
#408=CIRCLE('',#649,0.009);
#409=CIRCLE('',#650,0.009);
#410=CIRCLE('',#652,0.069);
#411=CIRCLE('',#653,0.009);
#412=CIRCLE('',#654,0.009);
#413=CIRCLE('',#655,0.009);
#414=CIRCLE('',#656,0.009);
#415=CIRCLE('',#657,0.018);
#416=CIRCLE('',#658,0.018);
#417=CIRCLE('',#659,0.018);
#418=CIRCLE('',#660,0.018);
#419=CIRCLE('',#672,0.015);
#420=CIRCLE('',#673,0.015);
#421=CIRCLE('',#675,0.036);
#422=CIRCLE('',#676,0.036);
#423=CIRCLE('',#679,0.024);
#424=CIRCLE('',#683,0.015);
#425=CIRCLE('',#684,0.015);
#426=CIRCLE('',#686,0.036);
#427=CIRCLE('',#687,0.036);
#428=CIRCLE('',#692,0.06);
#429=CIRCLE('',#693,0.06);
#430=CIRCLE('',#695,0.069);
#431=CIRCLE('',#698,0.0085);
#432=CIRCLE('',#699,0.03);
#433=CIRCLE('',#701,0.03);
#434=EDGE_LOOP('',(#112));
#435=EDGE_LOOP('',(#113));
#436=EDGE_LOOP('',(#114));
#437=EDGE_LOOP('',(#115));
#438=EDGE_LOOP('',(#116,#117,#118,#119,#120,#121));
#439=EDGE_LOOP('',(#122,#123,#124,#125));
#440=EDGE_LOOP('',(#126,#127,#128,#129));
#441=EDGE_LOOP('',(#130,#131,#132,#133));
#442=EDGE_LOOP('',(#134,#135,#136,#137,#138,#139,#140,#141,#142,#143,#144,
#145,#146,#147,#148,#149));
#443=EDGE_LOOP('',(#150,#151,#152,#153));
#444=EDGE_LOOP('',(#154));
#445=EDGE_LOOP('',(#155));
#446=EDGE_LOOP('',(#156));
#447=EDGE_LOOP('',(#157));
#448=EDGE_LOOP('',(#158));
#449=EDGE_LOOP('',(#159));
#450=EDGE_LOOP('',(#160));
#451=EDGE_LOOP('',(#161));
#452=EDGE_LOOP('',(#162));
#453=EDGE_LOOP('',(#163,#164,#165,#166,#167,#168,#169,#170));
#454=EDGE_LOOP('',(#171,#172,#173,#174));
#455=EDGE_LOOP('',(#175,#176,#177,#178));
#456=EDGE_LOOP('',(#179,#180,#181,#182));
#457=EDGE_LOOP('',(#183,#184,#185,#186));
#458=EDGE_LOOP('',(#187));
#459=EDGE_LOOP('',(#188));
#460=EDGE_LOOP('',(#189));
#461=EDGE_LOOP('',(#190));
#462=EDGE_LOOP('',(#191));
#463=EDGE_LOOP('',(#192));
#464=EDGE_LOOP('',(#193));
#465=EDGE_LOOP('',(#194));
#466=EDGE_LOOP('',(#195,#196,#197,#198));
#467=EDGE_LOOP('',(#199,#200,#201,#202));
#468=EDGE_LOOP('',(#203));
#469=EDGE_LOOP('',(#204));
#470=EDGE_LOOP('',(#205,#206,#207,#208));
#471=EDGE_LOOP('',(#209));
#472=EDGE_LOOP('',(#210,#211,#212,#213));
#473=EDGE_LOOP('',(#214,#215,#216,#217,#218,#219));
#474=EDGE_LOOP('',(#220));
#475=EDGE_LOOP('',(#221,#222,#223,#224));
#476=EDGE_LOOP('',(#225,#226,#227,#228));
#477=EDGE_LOOP('',(#229));
#478=EDGE_LOOP('',(#230));
#479=EDGE_LOOP('',(#231,#232,#233,#234));
#480=EDGE_LOOP('',(#235));
#481=EDGE_LOOP('',(#236,#237,#238,#239));
#482=EDGE_LOOP('',(#240));
#483=EDGE_LOOP('',(#241,#242,#243,#244));
#484=EDGE_LOOP('',(#245,#246,#247,#248));
#485=EDGE_LOOP('',(#249));
#486=EDGE_LOOP('',(#250));
#487=EDGE_LOOP('',(#251));
#488=EDGE_LOOP('',(#252));
#489=EDGE_LOOP('',(#253));
#490=EDGE_LOOP('',(#254));
#491=EDGE_LOOP('',(#255));
#492=EDGE_LOOP('',(#256));
#493=EDGE_LOOP('',(#257));
#494=EDGE_LOOP('',(#258));
#495=EDGE_LOOP('',(#259));
#496=EDGE_LOOP('',(#260));
#497=EDGE_LOOP('',(#261));
#498=EDGE_LOOP('',(#262));
#499=EDGE_LOOP('',(#263));
#500=FACE_BOUND('',#434,.T.);
#501=FACE_BOUND('',#435,.T.);
#502=FACE_BOUND('',#436,.T.);
#503=FACE_BOUND('',#437,.T.);
#504=FACE_BOUND('',#438,.T.);
#505=FACE_BOUND('',#439,.T.);
#506=FACE_BOUND('',#440,.T.);
#507=FACE_BOUND('',#441,.T.);
#508=FACE_BOUND('',#442,.T.);
#509=FACE_BOUND('',#443,.T.);
#510=FACE_BOUND('',#444,.T.);
#511=FACE_BOUND('',#445,.T.);
#512=FACE_BOUND('',#446,.T.);
#513=FACE_BOUND('',#447,.T.);
#514=FACE_BOUND('',#448,.T.);
#515=FACE_BOUND('',#449,.T.);
#516=FACE_BOUND('',#450,.T.);
#517=FACE_BOUND('',#451,.T.);
#518=FACE_BOUND('',#452,.T.);
#519=FACE_BOUND('',#453,.T.);
#520=FACE_BOUND('',#454,.T.);
#521=FACE_BOUND('',#455,.T.);
#522=FACE_BOUND('',#456,.T.);
#523=FACE_BOUND('',#457,.T.);
#524=FACE_BOUND('',#458,.T.);
#525=FACE_BOUND('',#459,.T.);
#526=FACE_BOUND('',#460,.T.);
#527=FACE_BOUND('',#461,.T.);
#528=FACE_BOUND('',#462,.T.);
#529=FACE_BOUND('',#463,.T.);
#530=FACE_BOUND('',#464,.T.);
#531=FACE_BOUND('',#465,.T.);
#532=FACE_BOUND('',#466,.T.);
#533=FACE_BOUND('',#467,.T.);
#534=FACE_BOUND('',#468,.T.);
#535=FACE_BOUND('',#469,.T.);
#536=FACE_BOUND('',#470,.T.);
#537=FACE_BOUND('',#471,.T.);
#538=FACE_BOUND('',#472,.T.);
#539=FACE_BOUND('',#473,.T.);
#540=FACE_BOUND('',#474,.T.);
#541=FACE_BOUND('',#475,.T.);
#542=FACE_BOUND('',#476,.T.);
#543=FACE_BOUND('',#477,.T.);
#544=FACE_BOUND('',#478,.T.);
#545=FACE_BOUND('',#479,.T.);
#546=FACE_BOUND('',#480,.T.);
#547=FACE_BOUND('',#481,.T.);
#548=FACE_BOUND('',#482,.T.);
#549=FACE_BOUND('',#483,.T.);
#550=FACE_BOUND('',#484,.T.);
#551=FACE_BOUND('',#485,.T.);
#552=FACE_BOUND('',#486,.T.);
#553=FACE_BOUND('',#487,.T.);
#554=FACE_BOUND('',#488,.T.);
#555=FACE_BOUND('',#489,.T.);
#556=FACE_BOUND('',#490,.T.);
#557=FACE_BOUND('',#491,.T.);
#558=FACE_BOUND('',#492,.T.);
#559=FACE_BOUND('',#493,.T.);
#560=FACE_BOUND('',#494,.T.);
#561=FACE_BOUND('',#495,.T.);
#562=FACE_BOUND('',#496,.T.);
#563=FACE_BOUND('',#12,.T.);
#564=FACE_BOUND('',#497,.T.);
#565=FACE_BOUND('',#498,.T.);
#566=FACE_BOUND('',#499,.T.);
#567=CYLINDRICAL_SURFACE('',#634,0.009);
#568=CYLINDRICAL_SURFACE('',#661,0.018);
#569=CYLINDRICAL_SURFACE('',#662,0.018);
#570=CYLINDRICAL_SURFACE('',#663,0.018);
#571=CYLINDRICAL_SURFACE('',#664,0.018);
#572=CYLINDRICAL_SURFACE('',#665,0.009);
#573=CYLINDRICAL_SURFACE('',#666,0.009);
#574=CYLINDRICAL_SURFACE('',#667,0.009);
#575=CYLINDRICAL_SURFACE('',#668,0.009);
#576=CYLINDRICAL_SURFACE('',#671,0.015);
#577=CYLINDRICAL_SURFACE('',#674,0.036);
#578=CYLINDRICAL_SURFACE('',#682,0.015);
#579=CYLINDRICAL_SURFACE('',#685,0.036);
#580=CYLINDRICAL_SURFACE('',#690,0.024);
#581=CYLINDRICAL_SURFACE('',#691,0.06);
#582=CYLINDRICAL_SURFACE('',#694,0.069);
#583=CYLINDRICAL_SURFACE('',#700,0.03);
#584=CYLINDRICAL_SURFACE('',#704,0.0085);
#585=ADVANCED_FACE('',(#500,#501,#502),#567,.F.);
#586=ADVANCED_FACE('',(#503,#504),#94,.T.);
#587=ADVANCED_FACE('',(#505),#95,.F.);
#588=ADVANCED_FACE('',(#506),#96,.F.);
#589=ADVANCED_FACE('',(#507),#97,.T.);
#590=ADVANCED_FACE('',(#508,#509,#510,#511,#512,#513),#98,.T.);
#591=ADVANCED_FACE('',(#514,#515,#516,#517,#518,#519),#99,.F.);
#592=ADVANCED_FACE('',(#520),#568,.T.);
#593=ADVANCED_FACE('',(#521),#569,.T.);
#594=ADVANCED_FACE('',(#522),#570,.T.);
#595=ADVANCED_FACE('',(#523),#571,.T.);
#596=ADVANCED_FACE('',(#524,#525),#572,.F.);
#597=ADVANCED_FACE('',(#526,#527),#573,.F.);
#598=ADVANCED_FACE('',(#528,#529),#574,.F.);
#599=ADVANCED_FACE('',(#530,#531),#575,.F.);
#600=ADVANCED_FACE('',(#532),#100,.F.);
#601=ADVANCED_FACE('',(#533),#101,.T.);
#602=ADVANCED_FACE('',(#534,#535),#576,.F.);
#603=ADVANCED_FACE('',(#536),#577,.T.);
#604=ADVANCED_FACE('',(#537,#538),#102,.F.);
#605=ADVANCED_FACE('',(#539,#540),#103,.T.);
#606=ADVANCED_FACE('',(#541),#104,.F.);
#607=ADVANCED_FACE('',(#542),#105,.T.);
#608=ADVANCED_FACE('',(#543,#544),#578,.F.);
#609=ADVANCED_FACE('',(#545),#579,.T.);
#610=ADVANCED_FACE('',(#546,#547),#106,.F.);
#611=ADVANCED_FACE('',(#548,#549),#107,.T.);
#612=ADVANCED_FACE('',(#550),#580,.T.);
#613=ADVANCED_FACE('',(#551,#552),#581,.T.);
#614=ADVANCED_FACE('',(#553,#554),#582,.F.);
#615=ADVANCED_FACE('',(#555,#556),#108,.T.);
#616=ADVANCED_FACE('',(#557,#558,#559),#109,.F.);
#617=ADVANCED_FACE('',(#560,#561),#583,.F.);
#618=ADVANCED_FACE('',(#562),#110,.T.);
#619=ADVANCED_FACE('',(#563,#564),#13,.F.);
#620=ADVANCED_FACE('',(#565,#566),#584,.F.);
#621=CLOSED_SHELL('',(#585,#586,#587,#588,#589,#590,#591,#592,#593,#594,
#595,#596,#597,#598,#599,#600,#601,#602,#603,#604,#605,#606,#607,#608,#609,
#610,#611,#612,#613,#614,#615,#616,#617,#618,#619,#620));
#622=STYLED_ITEM('',(#623),#630);
#623=PRESENTATION_STYLE_ASSIGNMENT((#624));
#624=SURFACE_STYLE_USAGE(.BOTH.,#625);
#625=SURFACE_SIDE_STYLE('',(#626));
#626=SURFACE_STYLE_FILL_AREA(#627);
#627=FILL_AREA_STYLE('',(#628));
#628=FILL_AREA_STYLE_COLOUR('',#629);
#629=COLOUR_RGB('',0.615686274509804,0.811764705882353,0.929411764705882);
#630=MANIFOLD_SOLID_BREP('Part 1',#621);
#631=SHAPE_DEFINITION_REPRESENTATION(#1098,#632);
#632=SHAPE_REPRESENTATION('Part 1',(#633),#1093);
#633=AXIS2_PLACEMENT_3D('',#889,#705,#706);
#634=AXIS2_PLACEMENT_3D('',#890,#707,#708);
#635=AXIS2_PLACEMENT_3D('',#891,#709,#710);
#636=AXIS2_PLACEMENT_3D('',#893,#711,#712);
#637=AXIS2_PLACEMENT_3D('',#928,#713,#714);
#638=AXIS2_PLACEMENT_3D('',#932,#716,#717);
#639=AXIS2_PLACEMENT_3D('',#941,#722,#723);
#640=AXIS2_PLACEMENT_3D('',#950,#728,#729);
#641=AXIS2_PLACEMENT_3D('',#959,#734,#735);
#642=AXIS2_PLACEMENT_3D('',#968,#740,#741);
#643=AXIS2_PLACEMENT_3D('',#982,#749,#750);
#644=AXIS2_PLACEMENT_3D('',#983,#751,#752);
#645=AXIS2_PLACEMENT_3D('',#984,#753,#754);
#646=AXIS2_PLACEMENT_3D('',#985,#755,#756);
#647=AXIS2_PLACEMENT_3D('',#994,#761,#762);
#648=AXIS2_PLACEMENT_3D('',#996,#763,#764);
#649=AXIS2_PLACEMENT_3D('',#998,#765,#766);
#650=AXIS2_PLACEMENT_3D('',#1000,#767,#768);
#651=AXIS2_PLACEMENT_3D('',#1002,#769,#770);
#652=AXIS2_PLACEMENT_3D('',#1003,#771,#772);
#653=AXIS2_PLACEMENT_3D('',#1005,#773,#774);
#654=AXIS2_PLACEMENT_3D('',#1007,#775,#776);
#655=AXIS2_PLACEMENT_3D('',#1009,#777,#778);
#656=AXIS2_PLACEMENT_3D('',#1011,#779,#780);
#657=AXIS2_PLACEMENT_3D('',#1013,#781,#782);
#658=AXIS2_PLACEMENT_3D('',#1014,#783,#784);
#659=AXIS2_PLACEMENT_3D('',#1015,#785,#786);
#660=AXIS2_PLACEMENT_3D('',#1016,#787,#788);
#661=AXIS2_PLACEMENT_3D('',#1017,#789,#790);
#662=AXIS2_PLACEMENT_3D('',#1018,#791,#792);
#663=AXIS2_PLACEMENT_3D('',#1019,#793,#794);
#664=AXIS2_PLACEMENT_3D('',#1020,#795,#796);
#665=AXIS2_PLACEMENT_3D('',#1021,#797,#798);
#666=AXIS2_PLACEMENT_3D('',#1022,#799,#800);
#667=AXIS2_PLACEMENT_3D('',#1023,#801,#802);
#668=AXIS2_PLACEMENT_3D('',#1024,#803,#804);
#669=AXIS2_PLACEMENT_3D('',#1025,#805,#806);
#670=AXIS2_PLACEMENT_3D('',#1031,#810,#811);
#671=AXIS2_PLACEMENT_3D('',#1037,#815,#816);
#672=AXIS2_PLACEMENT_3D('',#1038,#817,#818);
#673=AXIS2_PLACEMENT_3D('',#1040,#819,#820);
#674=AXIS2_PLACEMENT_3D('',#1042,#821,#822);
#675=AXIS2_PLACEMENT_3D('',#1043,#823,#824);
#676=AXIS2_PLACEMENT_3D('',#1044,#825,#826);
#677=AXIS2_PLACEMENT_3D('',#1045,#827,#828);
#678=AXIS2_PLACEMENT_3D('',#1046,#829,#830);
#679=AXIS2_PLACEMENT_3D('',#1047,#831,#832);
#680=AXIS2_PLACEMENT_3D('',#1048,#833,#834);
#681=AXIS2_PLACEMENT_3D('',#1054,#838,#839);
#682=AXIS2_PLACEMENT_3D('',#1060,#843,#844);
#683=AXIS2_PLACEMENT_3D('',#1061,#845,#846);
#684=AXIS2_PLACEMENT_3D('',#1063,#847,#848);
#685=AXIS2_PLACEMENT_3D('',#1065,#849,#850);
#686=AXIS2_PLACEMENT_3D('',#1066,#851,#852);
#687=AXIS2_PLACEMENT_3D('',#1067,#853,#854);
#688=AXIS2_PLACEMENT_3D('',#1068,#855,#856);
#689=AXIS2_PLACEMENT_3D('',#1069,#857,#858);
#690=AXIS2_PLACEMENT_3D('',#1070,#859,#860);
#691=AXIS2_PLACEMENT_3D('',#1071,#861,#862);
#692=AXIS2_PLACEMENT_3D('',#1072,#863,#864);
#693=AXIS2_PLACEMENT_3D('',#1074,#865,#866);
#694=AXIS2_PLACEMENT_3D('',#1076,#867,#868);
#695=AXIS2_PLACEMENT_3D('',#1077,#869,#870);
#696=AXIS2_PLACEMENT_3D('',#1079,#871,#872);
#697=AXIS2_PLACEMENT_3D('',#1080,#873,#874);
#698=AXIS2_PLACEMENT_3D('',#1081,#875,#876);
#699=AXIS2_PLACEMENT_3D('',#1083,#877,#878);
#700=AXIS2_PLACEMENT_3D('',#1085,#879,#880);
#701=AXIS2_PLACEMENT_3D('',#1086,#881,#882);
#702=AXIS2_PLACEMENT_3D('',#1088,#883,#884);
#703=AXIS2_PLACEMENT_3D('',#1089,#885,#886);
#704=AXIS2_PLACEMENT_3D('',#1091,#887,#888);
#705=DIRECTION('',(0.,0.,1.));
#706=DIRECTION('',(1.,0.,0.));
#707=DIRECTION('',(-9.25185853854297E-17,1.,0.));
#708=DIRECTION('',(-1.,-9.25185853854297E-17,0.));
#709=DIRECTION('',(-9.25185853854297E-17,1.,0.));
#710=DIRECTION('',(-1.,-9.25185853854297E-17,0.));
#711=DIRECTION('',(-9.25185853854297E-17,1.,0.));
#712=DIRECTION('',(-1.,-9.25185853854297E-17,0.));
#713=DIRECTION('',(9.25185853854297E-17,-1.,0.));
#714=DIRECTION('',(1.,9.25185853854297E-17,0.));
#715=DIRECTION('',(-1.,-9.25185853854297E-17,0.));
#716=DIRECTION('',(9.25185853854297E-17,-1.,0.));
#717=DIRECTION('',(1.,9.25185853854297E-17,0.));
#718=DIRECTION('',(-1.,-9.25185853854297E-17,0.));
#719=DIRECTION('',(0.,0.,-1.));
#720=DIRECTION('',(-1.,-9.25185853854297E-17,0.));
#721=DIRECTION('',(0.,0.,-1.));
#722=DIRECTION('',(-1.,0.,0.));
#723=DIRECTION('',(0.,0.,1.));
#724=DIRECTION('',(0.,1.,0.));
#725=DIRECTION('',(0.,0.,-1.));
#726=DIRECTION('',(0.,1.,0.));
#727=DIRECTION('',(0.,0.,-1.));
#728=DIRECTION('',(1.85037170770859E-16,-1.,0.));
#729=DIRECTION('',(1.,1.85037170770859E-16,0.));
#730=DIRECTION('',(-1.,-1.85037170770859E-16,0.));
#731=DIRECTION('',(0.,0.,-1.));
#732=DIRECTION('',(-1.,-1.85037170770859E-16,0.));
#733=DIRECTION('',(0.,0.,-1.));
#734=DIRECTION('',(-1.,0.,0.));
#735=DIRECTION('',(0.,0.,1.));
#736=DIRECTION('',(0.,1.,0.));
#737=DIRECTION('',(0.,0.,-1.));
#738=DIRECTION('',(0.,1.,0.));
#739=DIRECTION('',(0.,0.,-1.));
#740=DIRECTION('',(0.,0.,1.));
#741=DIRECTION('',(1.,0.,0.));
#742=DIRECTION('',(9.25185853854297E-17,-1.,0.));
#743=DIRECTION('',(1.,9.25185853854297E-17,0.));
#744=DIRECTION('',(9.25185853854297E-17,-1.,0.));
#745=DIRECTION('',(1.,9.25185853854297E-17,0.));
#746=DIRECTION('',(9.25185853854297E-17,-1.,0.));
#747=DIRECTION('',(1.,9.25185853854297E-17,0.));
#748=DIRECTION('',(9.25185853854297E-17,-1.,0.));
#749=DIRECTION('',(0.,0.,1.));
#750=DIRECTION('',(1.,0.,0.));
#751=DIRECTION('',(0.,0.,1.));
#752=DIRECTION('',(1.,0.,0.));
#753=DIRECTION('',(0.,0.,1.));
#754=DIRECTION('',(1.,0.,0.));
#755=DIRECTION('',(0.,0.,1.));
#756=DIRECTION('',(1.,0.,0.));
#757=DIRECTION('',(1.,-9.25185853854297E-17,0.));
#758=DIRECTION('',(9.25185853854297E-17,1.,0.));
#759=DIRECTION('',(1.,-9.25185853854297E-17,0.));
#760=DIRECTION('',(9.25185853854297E-17,1.,0.));
#761=DIRECTION('',(0.,0.,-1.));
#762=DIRECTION('',(-1.,0.,0.));
#763=DIRECTION('',(0.,0.,-1.));
#764=DIRECTION('',(-1.,0.,0.));
#765=DIRECTION('',(0.,0.,-1.));
#766=DIRECTION('',(-1.,0.,0.));
#767=DIRECTION('',(0.,0.,-1.));
#768=DIRECTION('',(-1.,0.,0.));
#769=DIRECTION('',(0.,0.,1.));
#770=DIRECTION('',(1.,0.,0.));
#771=DIRECTION('',(0.,0.,-1.));
#772=DIRECTION('',(-1.,0.,0.));
#773=DIRECTION('',(0.,0.,1.));
#774=DIRECTION('',(1.,0.,0.));
#775=DIRECTION('',(0.,0.,1.));
#776=DIRECTION('',(1.,0.,0.));
#777=DIRECTION('',(0.,0.,1.));
#778=DIRECTION('',(1.,0.,0.));
#779=DIRECTION('',(0.,0.,1.));
#780=DIRECTION('',(1.,0.,0.));
#781=DIRECTION('',(0.,0.,1.));
#782=DIRECTION('',(1.,0.,0.));
#783=DIRECTION('',(0.,0.,1.));
#784=DIRECTION('',(1.,0.,0.));
#785=DIRECTION('',(0.,0.,1.));
#786=DIRECTION('',(1.,0.,0.));
#787=DIRECTION('',(0.,0.,1.));
#788=DIRECTION('',(1.,0.,0.));
#789=DIRECTION('',(0.,0.,-1.));
#790=DIRECTION('',(-1.,0.,0.));
#791=DIRECTION('',(0.,0.,1.));
#792=DIRECTION('',(1.,0.,0.));
#793=DIRECTION('',(0.,0.,-1.));
#794=DIRECTION('',(-1.,0.,0.));
#795=DIRECTION('',(0.,0.,1.));
#796=DIRECTION('',(1.,0.,0.));
#797=DIRECTION('',(0.,0.,-1.));
#798=DIRECTION('',(-1.,0.,0.));
#799=DIRECTION('',(0.,0.,-1.));
#800=DIRECTION('',(-1.,0.,0.));
#801=DIRECTION('',(0.,0.,-1.));
#802=DIRECTION('',(-1.,0.,0.));
#803=DIRECTION('',(0.,0.,-1.));
#804=DIRECTION('',(-1.,0.,0.));
#805=DIRECTION('',(1.,9.25185853854297E-17,0.));
#806=DIRECTION('',(-9.25185853854297E-17,1.,0.));
#807=DIRECTION('',(0.,0.,1.));
#808=DIRECTION('',(9.25185853854297E-17,-1.,0.));
#809=DIRECTION('',(0.,0.,1.));
#810=DIRECTION('',(1.,9.25185853854297E-17,0.));
#811=DIRECTION('',(-9.25185853854297E-17,1.,0.));
#812=DIRECTION('',(0.,0.,1.));
#813=DIRECTION('',(0.,0.,1.));
#814=DIRECTION('',(9.25185853854297E-17,-1.,0.));
#815=DIRECTION('',(9.25185853854297E-17,-1.,0.));
#816=DIRECTION('',(1.,9.25185853854297E-17,0.));
#817=DIRECTION('',(9.25185853854297E-17,-1.,0.));
#818=DIRECTION('',(1.,9.25185853854297E-17,0.));
#819=DIRECTION('',(9.25185853854297E-17,-1.,0.));
#820=DIRECTION('',(1.,9.25185853854297E-17,0.));
#821=DIRECTION('',(9.25185853854297E-17,-1.,0.));
#822=DIRECTION('',(1.,9.25185853854297E-17,0.));
#823=DIRECTION('',(-9.25185853854297E-17,1.,0.));
#824=DIRECTION('',(1.,9.25185853854297E-17,0.));
#825=DIRECTION('',(-9.25185853854297E-17,1.,0.));
#826=DIRECTION('',(1.,9.25185853854297E-17,0.));
#827=DIRECTION('',(9.25185853854297E-17,-1.,0.));
#828=DIRECTION('',(1.,9.25185853854297E-17,0.));
#829=DIRECTION('',(9.25185853854297E-17,-1.,0.));
#830=DIRECTION('',(1.,9.25185853854297E-17,0.));
#831=DIRECTION('',(9.25185853854297E-17,-1.,0.));
#832=DIRECTION('',(1.,9.25185853854297E-17,0.));
#833=DIRECTION('',(1.,-9.25185853854297E-17,0.));
#834=DIRECTION('',(-9.25185853854297E-17,-1.,0.));
#835=DIRECTION('',(0.,0.,1.));
#836=DIRECTION('',(0.,0.,1.));
#837=DIRECTION('',(9.25185853854297E-17,1.,0.));
#838=DIRECTION('',(1.,-9.25185853854297E-17,0.));
#839=DIRECTION('',(-9.25185853854297E-17,-1.,0.));
#840=DIRECTION('',(0.,0.,1.));
#841=DIRECTION('',(9.25185853854297E-17,1.,0.));
#842=DIRECTION('',(0.,0.,1.));
#843=DIRECTION('',(9.25185853854297E-17,1.,0.));
#844=DIRECTION('',(1.,-9.25185853854297E-17,0.));
#845=DIRECTION('',(-9.25185853854297E-17,-1.,0.));
#846=DIRECTION('',(1.,-9.25185853854297E-17,0.));
#847=DIRECTION('',(-9.25185853854297E-17,-1.,0.));
#848=DIRECTION('',(1.,-9.25185853854297E-17,0.));
#849=DIRECTION('',(9.25185853854297E-17,1.,0.));
#850=DIRECTION('',(1.,-9.25185853854297E-17,0.));
#851=DIRECTION('',(9.25185853854297E-17,1.,0.));
#852=DIRECTION('',(1.,-9.25185853854297E-17,0.));
#853=DIRECTION('',(9.25185853854297E-17,1.,0.));
#854=DIRECTION('',(1.,-9.25185853854297E-17,0.));
#855=DIRECTION('',(9.25185853854297E-17,1.,0.));
#856=DIRECTION('',(1.,-9.25185853854297E-17,0.));
#857=DIRECTION('',(9.25185853854297E-17,1.,0.));
#858=DIRECTION('',(1.,-9.25185853854297E-17,0.));
#859=DIRECTION('',(9.25185853854297E-17,-1.,0.));
#860=DIRECTION('',(1.,9.25185853854297E-17,0.));
#861=DIRECTION('',(0.,0.,-1.));
#862=DIRECTION('',(-1.,0.,0.));
#863=DIRECTION('',(0.,0.,-1.));
#864=DIRECTION('',(-1.,0.,0.));
#865=DIRECTION('',(0.,0.,-1.));
#866=DIRECTION('',(-1.,0.,0.));
#867=DIRECTION('',(0.,0.,-1.));
#868=DIRECTION('',(-1.,0.,0.));
#869=DIRECTION('',(0.,0.,-1.));
#870=DIRECTION('',(-1.,0.,0.));
#871=DIRECTION('',(0.,0.,-1.));
#872=DIRECTION('',(1.,0.,0.));
#873=DIRECTION('',(0.,0.,1.));
#874=DIRECTION('',(1.,0.,0.));
#875=DIRECTION('',(0.,0.,1.));
#876=DIRECTION('',(1.,0.,0.));
#877=DIRECTION('',(0.,0.,-1.));
#878=DIRECTION('',(-1.,0.,0.));
#879=DIRECTION('',(0.,0.,-1.));
#880=DIRECTION('',(-1.,0.,0.));
#881=DIRECTION('',(0.,0.,-1.));
#882=DIRECTION('',(-1.,0.,0.));
#883=DIRECTION('',(0.,0.,-1.));
#884=DIRECTION('',(1.,0.,0.));
#885=DIRECTION('',(9.25185853854297E-17,-1.,0.));
#886=DIRECTION('',(1.,9.25185853854297E-17,0.));
#887=DIRECTION('',(0.,0.,1.));
#888=DIRECTION('',(1.,0.,0.));
#889=CARTESIAN_POINT('',(0.,0.,0.));
#890=CARTESIAN_POINT('',(6.93889390390723E-18,-0.075,0.03));
#891=CARTESIAN_POINT('',(6.93889390390723E-18,-0.075,0.03));
#892=CARTESIAN_POINT('',(-0.00899999999999999,-0.075,0.03));
#893=CARTESIAN_POINT('',(3.05311331771918E-18,-0.033,0.03));
#894=CARTESIAN_POINT('',(-0.009,-0.033,0.03));
#895=CARTESIAN_POINT('',(0.00846427423598993,-0.0420611199222145,0.0269368475194875));
#896=CARTESIAN_POINT('',(0.00853562353332705,-0.0433186709265566,0.0271475164588833));
#897=CARTESIAN_POINT('',(0.00835801702010695,-0.0448263620499185,0.0266175158993655));
#898=CARTESIAN_POINT('',(0.00787544850934403,-0.0463131670446892,0.0255853798777975));
#899=CARTESIAN_POINT('',(0.00717125970047691,-0.0476460396916004,0.0245064892157019));
#900=CARTESIAN_POINT('',(0.00591548786783733,-0.0492539344639541,0.0230964734352858));
#901=CARTESIAN_POINT('',(0.00369885668295328,-0.0509224965232636,0.0215474075890034));
#902=CARTESIAN_POINT('',(0.000638387420718603,-0.0516400785158314,0.020867321392155));
#903=CARTESIAN_POINT('',(-0.00185684158040192,-0.0513633392543723,0.0211293589714381));
#904=CARTESIAN_POINT('',(-0.00413900673298333,-0.0505848672086438,0.0218609821193643));
#905=CARTESIAN_POINT('',(-0.00590703996392373,-0.0492646373919222,0.0230872869295707));
#906=CARTESIAN_POINT('',(-0.00717344741260633,-0.0476424883474762,0.0245089617072838));
#907=CARTESIAN_POINT('',(-0.00787400890920036,-0.046317885584623,0.0255837392216748));
#908=CARTESIAN_POINT('',(-0.00827753933301811,-0.0450688196519166,0.026443692249925));
#909=CARTESIAN_POINT('',(-0.0084653300366452,-0.0439286770537414,0.0269399827037704));
#910=CARTESIAN_POINT('',(-0.00851765338634831,-0.0429932369348188,0.0270938466600185));
#911=CARTESIAN_POINT('',(-0.00846404299609722,-0.0420613748018355,0.0269363527388483));
#912=CARTESIAN_POINT('',(-0.00827638457037527,-0.040928006143319,0.0264412183429496));
#913=CARTESIAN_POINT('',(-0.00787405919985925,-0.0396818344185905,0.0255837234354796));
#914=CARTESIAN_POINT('',(-0.00717021781808973,-0.0383518442415352,0.0245041525273742));
#915=CARTESIAN_POINT('',(-0.00621929960430966,-0.0371373257170224,0.0234396112159885));
#916=CARTESIAN_POINT('',(-0.00504130659799406,-0.0360927585839122,0.022489133365392));
#917=CARTESIAN_POINT('',(-0.00309193527629168,-0.0349319529030164,0.0214100267070804));
#918=CARTESIAN_POINT('',(-2.35961057353024E-5,-0.0342126712571564,0.0207274876089817));
#919=CARTESIAN_POINT('',(0.00369737349323779,-0.035073608971067,0.0215436125341392));
#920=CARTESIAN_POINT('',(0.00590443935174435,-0.036735392210463,0.023087277113023));
#921=CARTESIAN_POINT('',(0.00716796255278626,-0.0383490651042823,0.0245016061195962));
#922=CARTESIAN_POINT('',(0.00787174732060617,-0.03967559046778,0.0255792822390667));
#923=CARTESIAN_POINT('',(0.00827636640408311,-0.0409281560856516,0.0264410838913831));
#924=CARTESIAN_POINT('',(0.00846427423598993,-0.0420611199222145,0.0269368475194875));
#925=CARTESIAN_POINT('',(0.00853562353332705,-0.0433186709265566,0.0271475164588833));
#926=CARTESIAN_POINT('',(0.00835801702010695,-0.0448263620499185,0.0266175158993655));
#927=CARTESIAN_POINT('',(0.0085,-0.043,0.0270419601084502));
#928=CARTESIAN_POINT('',(-6.93889390390723E-18,-0.075,0.04));
#929=CARTESIAN_POINT('',(-6.93889390390723E-18,-0.075,0.04));
#930=CARTESIAN_POINT('',(0.057,-0.075,0.04));
#931=CARTESIAN_POINT('',(0.024,-0.075,0.04));
#932=CARTESIAN_POINT('',(1.31882885357775E-65,-0.075,0.04));
#933=CARTESIAN_POINT('',(-0.024,-0.075,0.04));
#934=CARTESIAN_POINT('',(-6.93889390390723E-18,-0.075,0.04));
#935=CARTESIAN_POINT('',(-0.057,-0.075,0.04));
#936=CARTESIAN_POINT('',(-0.057,-0.075,0.04));
#937=CARTESIAN_POINT('',(-0.057,-0.075,0.));
#938=CARTESIAN_POINT('',(-6.93889390390723E-18,-0.075,0.));
#939=CARTESIAN_POINT('',(0.057,-0.075,0.));
#940=CARTESIAN_POINT('',(0.057,-0.075,0.04));
#941=CARTESIAN_POINT('',(0.075,1.38777878078145E-17,0.04));
#942=CARTESIAN_POINT('',(0.075,1.38777878078145E-17,0.));
#943=CARTESIAN_POINT('',(0.075,-0.057,0.));
#944=CARTESIAN_POINT('',(0.075,0.057,0.));
#945=CARTESIAN_POINT('',(0.075,0.057,0.04));
#946=CARTESIAN_POINT('',(0.075,0.057,0.04));
#947=CARTESIAN_POINT('',(0.075,1.38777878078145E-17,0.04));
#948=CARTESIAN_POINT('',(0.075,-0.057,0.04));
#949=CARTESIAN_POINT('',(0.075,-0.057,0.));
#950=CARTESIAN_POINT('',(0.,0.075,0.04));
#951=CARTESIAN_POINT('',(0.,0.075,0.));
#952=CARTESIAN_POINT('',(0.057,0.075,0.));
#953=CARTESIAN_POINT('',(-0.057,0.075,0.));
#954=CARTESIAN_POINT('',(-0.057,0.075,0.04));
#955=CARTESIAN_POINT('',(-0.057,0.075,0.04));
#956=CARTESIAN_POINT('',(0.,0.075,0.04));
#957=CARTESIAN_POINT('',(0.057,0.075,0.04));
#958=CARTESIAN_POINT('',(0.057,0.075,0.04));
#959=CARTESIAN_POINT('',(-0.075,-1.38777878078145E-17,0.04));
#960=CARTESIAN_POINT('',(-0.075,-1.38777878078145E-17,0.));
#961=CARTESIAN_POINT('',(-0.075,-0.057,0.));
#962=CARTESIAN_POINT('',(-0.075,0.057,0.));
#963=CARTESIAN_POINT('',(-0.075,-0.057,0.04));
#964=CARTESIAN_POINT('',(-0.075,-0.057,0.04));
#965=CARTESIAN_POINT('',(-0.075,-1.38777878078145E-17,0.04));
#966=CARTESIAN_POINT('',(-0.075,0.057,0.04));
#967=CARTESIAN_POINT('',(-0.075,0.057,0.));
#968=CARTESIAN_POINT('',(0.,0.,0.04));
#969=CARTESIAN_POINT('',(-0.024,-0.046,0.04));
#970=CARTESIAN_POINT('',(-0.024,-0.046,0.04));
#971=CARTESIAN_POINT('',(6.93889390390723E-18,-0.046,0.04));
#972=CARTESIAN_POINT('',(-0.036,-0.046,0.04));
#973=CARTESIAN_POINT('',(-0.036,-0.022,0.04));
#974=CARTESIAN_POINT('',(-0.036,-0.022,0.04));
#975=CARTESIAN_POINT('',(4.71844785465692E-18,-0.022,0.04));
#976=CARTESIAN_POINT('',(0.036,-0.022,0.04));
#977=CARTESIAN_POINT('',(0.036,-0.022,0.04));
#978=CARTESIAN_POINT('',(0.036,-0.046,0.04));
#979=CARTESIAN_POINT('',(6.93889390390723E-18,-0.046,0.04));
#980=CARTESIAN_POINT('',(0.024,-0.046,0.04));
#981=CARTESIAN_POINT('',(0.024,-0.046,0.04));
#982=CARTESIAN_POINT('',(0.057,-0.057,0.04));
#983=CARTESIAN_POINT('',(0.057,0.057,0.04));
#984=CARTESIAN_POINT('',(-0.057,0.057,0.04));
#985=CARTESIAN_POINT('',(-0.057,-0.057,0.04));
#986=CARTESIAN_POINT('',(4.71844785465692E-18,0.022,0.04));
#987=CARTESIAN_POINT('',(-0.036,0.022,0.04));
#988=CARTESIAN_POINT('',(0.036,0.022,0.04));
#989=CARTESIAN_POINT('',(-0.036,0.022,0.04));
#990=CARTESIAN_POINT('',(-0.036,0.046,0.04));
#991=CARTESIAN_POINT('',(6.93889390390723E-18,0.046,0.04));
#992=CARTESIAN_POINT('',(0.036,0.046,0.04));
#993=CARTESIAN_POINT('',(0.036,0.022,0.04));
#994=CARTESIAN_POINT('',(0.057,0.057,0.04));
#995=CARTESIAN_POINT('',(0.048,0.057,0.04));
#996=CARTESIAN_POINT('',(0.057,-0.057,0.04));
#997=CARTESIAN_POINT('',(0.048,-0.057,0.04));
#998=CARTESIAN_POINT('',(-0.057,-0.057,0.04));
#999=CARTESIAN_POINT('',(-0.066,-0.057,0.04));
#1000=CARTESIAN_POINT('',(-0.057,0.057,0.04));
#1001=CARTESIAN_POINT('',(-0.066,0.057,0.04));
#1002=CARTESIAN_POINT('',(0.,0.,0.));
#1003=CARTESIAN_POINT('',(0.,-4.22503145705837E-18,0.));
#1004=CARTESIAN_POINT('',(-0.069,-4.22503145705837E-18,0.));
#1005=CARTESIAN_POINT('',(0.057,0.057,0.));
#1006=CARTESIAN_POINT('',(0.066,0.057,0.));
#1007=CARTESIAN_POINT('',(0.057,-0.057,0.));
#1008=CARTESIAN_POINT('',(0.066,-0.057,0.));
#1009=CARTESIAN_POINT('',(-0.057,-0.057,0.));
#1010=CARTESIAN_POINT('',(-0.048,-0.057,0.));
#1011=CARTESIAN_POINT('',(-0.057,0.057,0.));
#1012=CARTESIAN_POINT('',(-0.048,0.057,0.));
#1013=CARTESIAN_POINT('',(-0.057,-0.057,0.));
#1014=CARTESIAN_POINT('',(-0.057,0.057,0.));
#1015=CARTESIAN_POINT('',(0.057,0.057,0.));
#1016=CARTESIAN_POINT('',(0.057,-0.057,0.));
#1017=CARTESIAN_POINT('',(-0.057,-0.057,0.04));
#1018=CARTESIAN_POINT('',(-0.057,0.057,0.04));
#1019=CARTESIAN_POINT('',(0.057,0.057,0.04));
#1020=CARTESIAN_POINT('',(0.057,-0.057,0.04));
#1021=CARTESIAN_POINT('',(-0.057,0.057,0.04));
#1022=CARTESIAN_POINT('',(-0.057,-0.057,0.04));
#1023=CARTESIAN_POINT('',(0.057,-0.057,0.04));
#1024=CARTESIAN_POINT('',(0.057,0.057,0.04));
#1025=CARTESIAN_POINT('',(-0.036,-0.022,0.068));
#1026=CARTESIAN_POINT('',(-0.036,-0.046,0.068));
#1027=CARTESIAN_POINT('',(-0.036,-0.046,0.096));
#1028=CARTESIAN_POINT('',(-0.036,-0.022,0.096));
#1029=CARTESIAN_POINT('',(-0.036,-0.022,0.096));
#1030=CARTESIAN_POINT('',(-0.036,-0.022,0.068));
#1031=CARTESIAN_POINT('',(0.036,-0.022,0.068));
#1032=CARTESIAN_POINT('',(0.036,-0.046,0.068));
#1033=CARTESIAN_POINT('',(0.036,-0.046,0.096));
#1034=CARTESIAN_POINT('',(0.036,-0.022,0.068));
#1035=CARTESIAN_POINT('',(0.036,-0.022,0.096));
#1036=CARTESIAN_POINT('',(0.036,-0.022,0.096));
#1037=CARTESIAN_POINT('',(1.2490009027033E-18,-0.022,0.096));
#1038=CARTESIAN_POINT('',(1.2490009027033E-18,-0.022,0.096));
#1039=CARTESIAN_POINT('',(0.015,-0.022,0.096));
#1040=CARTESIAN_POINT('',(3.46944695195361E-18,-0.046,0.096));
#1041=CARTESIAN_POINT('',(0.015,-0.046,0.096));
#1042=CARTESIAN_POINT('',(4.71844785465692E-18,-0.022,0.096));
#1043=CARTESIAN_POINT('',(6.93889390390723E-18,-0.046,0.096));
#1044=CARTESIAN_POINT('',(4.71844785465692E-18,-0.022,0.096));
#1045=CARTESIAN_POINT('',(2.03540887847945E-18,-0.022,0.086));
#1046=CARTESIAN_POINT('',(4.25585492772977E-18,-0.046,0.086));
#1047=CARTESIAN_POINT('',(-2.68303897617746E-18,-0.046,0.04));
#1048=CARTESIAN_POINT('',(-0.036,0.022,0.068));
#1049=CARTESIAN_POINT('',(-0.036,0.046,0.068));
#1050=CARTESIAN_POINT('',(-0.036,0.046,0.096));
#1051=CARTESIAN_POINT('',(-0.036,0.022,0.068));
#1052=CARTESIAN_POINT('',(-0.036,0.022,0.096));
#1053=CARTESIAN_POINT('',(-0.036,0.022,0.096));
#1054=CARTESIAN_POINT('',(0.036,0.022,0.068));
#1055=CARTESIAN_POINT('',(0.036,0.046,0.068));
#1056=CARTESIAN_POINT('',(0.036,0.046,0.096));
#1057=CARTESIAN_POINT('',(0.036,0.022,0.096));
#1058=CARTESIAN_POINT('',(0.036,0.022,0.096));
#1059=CARTESIAN_POINT('',(0.036,0.022,0.068));
#1060=CARTESIAN_POINT('',(1.2490009027033E-18,0.022,0.096));
#1061=CARTESIAN_POINT('',(1.2490009027033E-18,0.022,0.096));
#1062=CARTESIAN_POINT('',(0.015,0.022,0.096));
#1063=CARTESIAN_POINT('',(3.46944695195361E-18,0.046,0.096));
#1064=CARTESIAN_POINT('',(0.015,0.046,0.096));
#1065=CARTESIAN_POINT('',(4.71844785465692E-18,0.022,0.096));
#1066=CARTESIAN_POINT('',(6.93889390390723E-18,0.046,0.096));
#1067=CARTESIAN_POINT('',(4.71844785465692E-18,0.022,0.096));
#1068=CARTESIAN_POINT('',(2.03540887847945E-18,0.022,0.086));
#1069=CARTESIAN_POINT('',(4.25585492772977E-18,0.046,0.086));
#1070=CARTESIAN_POINT('',(-2.68303897617746E-18,-0.046,0.04));
#1071=CARTESIAN_POINT('',(0.,-3.67394039744206E-18,0.008));
#1072=CARTESIAN_POINT('',(0.,-3.67394039744206E-18,0.008));
#1073=CARTESIAN_POINT('',(-0.06,-3.67394039744206E-18,0.008));
#1074=CARTESIAN_POINT('',(0.,-3.67394039744206E-18,0.));
#1075=CARTESIAN_POINT('',(-0.06,-3.67394039744206E-18,0.));
#1076=CARTESIAN_POINT('',(0.,-4.22503145705837E-18,0.008));
#1077=CARTESIAN_POINT('',(0.,-4.22503145705837E-18,0.008));
#1078=CARTESIAN_POINT('',(-0.069,-4.22503145705837E-18,0.008));
#1079=CARTESIAN_POINT('',(0.,0.,0.008));
#1080=CARTESIAN_POINT('',(0.,0.,0.));
#1081=CARTESIAN_POINT('',(7.90751211270721E-19,-0.043,0.));
#1082=CARTESIAN_POINT('',(0.0085,-0.043,0.));
#1083=CARTESIAN_POINT('',(0.,-1.83697019872103E-18,0.));
#1084=CARTESIAN_POINT('',(-0.03,-1.83697019872103E-18,0.));
#1085=CARTESIAN_POINT('',(0.,-1.83697019872103E-18,0.024));
#1086=CARTESIAN_POINT('',(0.,-1.83697019872103E-18,0.024));
#1087=CARTESIAN_POINT('',(-0.03,-1.83697019872103E-18,0.024));
#1088=CARTESIAN_POINT('',(0.,0.,0.024));
#1089=CARTESIAN_POINT('',(3.05311331771918E-18,-0.033,0.03));
#1090=CARTESIAN_POINT('',(1.7347234759768E-18,-0.0275922544287519,0.03));
#1091=CARTESIAN_POINT('',(7.90751211270721E-19,-0.043,0.));
#1092=MECHANICAL_DESIGN_GEOMETRIC_PRESENTATION_REPRESENTATION('',(#622),
#1093);
#1093=(
GEOMETRIC_REPRESENTATION_CONTEXT(3)
GLOBAL_UNCERTAINTY_ASSIGNED_CONTEXT((#1094))
GLOBAL_UNIT_ASSIGNED_CONTEXT((#1097,#1096,#1095))
REPRESENTATION_CONTEXT('Part 1','TOP_LEVEL_ASSEMBLY_PART')
);
#1094=UNCERTAINTY_MEASURE_WITH_UNIT(LENGTH_MEASURE(2.E-5),#1097,
'DISTANCE_ACCURACY_VALUE','Maximum Tolerance applied to model');
#1095=(
NAMED_UNIT(*)
SI_UNIT($,.STERADIAN.)
SOLID_ANGLE_UNIT()
);
#1096=(
NAMED_UNIT(*)
PLANE_ANGLE_UNIT()
SI_UNIT($,.RADIAN.)
);
#1097=(
LENGTH_UNIT()
NAMED_UNIT(*)
SI_UNIT($,.METRE.)
);
#1098=PRODUCT_DEFINITION_SHAPE('','',#1099);
#1099=PRODUCT_DEFINITION('','',#1101,#1100);
#1100=PRODUCT_DEFINITION_CONTEXT('',#1107,'design');
#1101=PRODUCT_DEFINITION_FORMATION_WITH_SPECIFIED_SOURCE('','',#1103,
 .NOT_KNOWN.);
#1102=PRODUCT_RELATED_PRODUCT_CATEGORY('','',(#1103));
#1103=PRODUCT('Part 1','Part 1','Part 1',(#1105));
#1104=PRODUCT_CATEGORY('','');
#1105=PRODUCT_CONTEXT('',#1107,'mechanical');
#1106=APPLICATION_PROTOCOL_DEFINITION('international standard',
'ap242_managed_model_based_3d_engineering',2020,#1107);
#1107=APPLICATION_CONTEXT('managed model based 3d engineering');
ENDSEC;
END-ISO-10303-21;
